
<svg 
z-index="0"

   pointer-events="all"
   xmlns:dc="http://purl.org/dc/elements/1.1/"
   xmlns:cc="http://creativecommons.org/ns#"
   xmlns:rdf="http://www.w3.org/1999/02/22-rdf-syntax-ns#"
   xmlns:svg="http://www.w3.org/2000/svg"
   xmlns="http://www.w3.org/2000/svg"
   xmlns:xlink="http://www.w3.org/1999/xlink"
   xmlns:sodipodi="http://sodipodi.sourceforge.net/DTD/sodipodi-0.dtd"
   xmlns:inkscape="http://www.inkscape.org/namespaces/inkscape"
   version="1.1"
   width="338.07001"
   height="267.54919"
   viewBox="0 0 338.07001 267.54919"
   id="svgObjID"
   sodipodi:docname="testSVG.svg"
   inkscape:version="1.0.1 (3bc2e813f5, 2020-09-07)">
  <metadata
     id="metadata411">
    <rdf:RDF>
      <cc:Work
         rdf:about="">
        <dc:format>image/svg+xml</dc:format>
        <dc:type
           rdf:resource="http://purl.org/dc/dcmitype/StillImage" />
      </cc:Work>
    </rdf:RDF>
  </metadata>
  <defs
     id="defs409" />
  <sodipodi:namedview
     pagecolor="#ffffff"
     bordercolor="#666666"
     borderopacity="1"
     objecttolerance="10"
     gridtolerance="10"
     guidetolerance="10"
     inkscape:pageopacity="0"
     inkscape:pageshadow="2"
     inkscape:window-width="1920"
     inkscape:window-height="1018"
     id="namedview407"
     showgrid="false"
     inkscape:zoom="2.020202"
     inkscape:cx="39.852847"
     inkscape:cy="126.85781"
     inkscape:window-x="-6"
     inkscape:window-y="-6"
     inkscape:window-maximized="1"
     inkscape:current-layer="svg405"
     showguides="false" />
  <a
     xlink:href="/#/About" target="_top"
     id="a1252">
    <g
       enable-background="new"
       id="g403"
       transform="matrix(1.0892953,0,0,1.0986744,-146.59209,-438.78249)">
      <g
         id="g401">
        <path
           transform="matrix(1,0,0,-1,0,841.5)"
           stroke-width="0.75"
           stroke-linecap="round"
           stroke-linejoin="round"
           fill="none"
           stroke="#000000"
           d="m 409.24,198.53 h 28.346 V 440.59 H 409.24 Z"
           id="path2" />
        <g
           id="Layer-1"
           data-name="P">
          <clipPath
             id="cp516">
            <path
               transform="matrix(1,0,0,-1,0,841.5)"
               d="M 8.862e-6,0 H 594.75 V 841.5 H 8.862e-6 Z"
               fill-rule="evenodd"
               id="path4" />
          </clipPath>
          <g
             clip-path="url(#cp516)"
             id="g11">
            <text
               xml:space="preserve"
               transform="translate(0,841.5)"
               font-size="11.275px"
               font-family="ArialNarrow"
               font-weight="bold"
               font-style="italic"
               id="text9"><tspan
                 y="-405.04999"
                 x="404.26999 407.26913 409.52414 414.767 420.02115 426.00818 431.26233 433.51733 436.50522 441.00394 444.74722"
                 id="tspan7">[ supplier </tspan></text>
          </g>
        </g>
        <clipPath
           id="cp517">
          <path
             transform="matrix(1,0,0,-1,0,841.5)"
             d="M 8.862e-6,0 H 594.75 V 841.5 H 8.862e-6 Z"
             fill-rule="evenodd"
             id="path14" />
        </clipPath>
        <g
           clip-path="url(#cp517)"
           id="g21">
          <text
             xml:space="preserve"
             transform="translate(0,841.5)"
             font-size="11.25px"
             font-family="ArialNarrow"
             font-weight="bold"
             font-style="italic"
             id="text19"><tspan
               y="-391.82001"
               x="407.72 410.71976"
               id="tspan17">• </tspan></text>
        </g>
        <g
           id="g32"
           data-name="P">
          <clipPath
             id="cp518">
            <path
               transform="matrix(1,0,0,-1,0,841.5)"
               d="M 8.862e-6,0 H 594.75 V 841.5 H 8.862e-6 Z"
               fill-rule="evenodd"
               id="path23" />
          </clipPath>
          <g
             clip-path="url(#cp518)"
             id="g30">
            <text
               xml:space="preserve"
               transform="translate(0,841.5)"
               font-size="11.25px"
               font-family="ArialNarrow"
               font-weight="bold"
               font-style="italic"
               id="text28"><tspan
                 y="-391.82001"
                 x="413.39999 416.40375 420.13873 424.63873 427.63123 432.88498 438.13873 441.14249"
                 id="tspan26">freight </tspan></text>
          </g>
        </g>
        <g
           id="g43"
           data-name="P">
          <clipPath
             id="cp519">
            <path
               transform="matrix(1,0,0,-1,0,841.5)"
               d="M 8.862e-6,0 H 594.75 V 841.5 H 8.862e-6 Z"
               fill-rule="evenodd"
               id="path34" />
          </clipPath>
          <g
             clip-path="url(#cp519)"
             id="g41">
            <text
               xml:space="preserve"
               transform="translate(0,841.5)"
               font-size="11.275px"
               font-family="ArialNarrow"
               font-weight="bold"
               font-style="italic"
               id="text39"><tspan
                 y="-378.63"
                 x="409.29999 412.29913 417.55328 421.29657 428.05029 433.29315"
                 id="tspan37">forwar</tspan></text>
          </g>
        </g>
        <g
           id="g54"
           data-name="P">
          <clipPath
             id="cp520">
            <path
               transform="matrix(1,0,0,-1,0,841.5)"
               d="M 8.862e-6,0 H 594.75 V 841.5 H 8.862e-6 Z"
               fill-rule="evenodd"
               id="path45" />
          </clipPath>
          <g
             clip-path="url(#cp520)"
             id="g52">
            <text
               xml:space="preserve"
               transform="translate(0,841.5)"
               font-size="11.275px"
               font-family="ArialNarrow"
               font-weight="bold"
               font-style="italic"
               id="text50"><tspan
                 y="-378.63"
                 x="436.89999"
                 id="tspan48">-</tspan></text>
          </g>
        </g>
        <g
           id="g65"
           data-name="P">
          <clipPath
             id="cp521">
            <path
               transform="matrix(1,0,0,-1,0,841.5)"
               d="M 8.862e-6,0 H 594.75 V 841.5 H 8.862e-6 Z"
               fill-rule="evenodd"
               id="path56" />
          </clipPath>
          <g
             clip-path="url(#cp521)"
             id="g63">
            <text
               xml:space="preserve"
               transform="translate(0,841.5)"
               font-size="11.25px"
               font-family="ArialNarrow"
               font-weight="bold"
               font-style="italic"
               id="text61"><tspan
                 y="-365.39999"
                 x="412.29999 417.55374 422.79623 426.53122 431.03122 434.02371"
                 id="tspan59">ders ]</tspan></text>
          </g>
        </g>
        <path
           transform="matrix(1,0,0,-1,0,841.5)"
           stroke-width="1.5"
           stroke-linecap="round"
           stroke-linejoin="round"
           fill="none"
           stroke="#000000"
           d="m 317.3,356.21 h 28.62"
           id="path67" />
        <path
           transform="matrix(1,0,0,-1,0,841.5)"
           d="m 318.3,352.19 -12.06,4.02 12.06,4.02 z"
           fill-rule="evenodd"
           id="path69" />
        <g
           id="g80"
           data-name="P">
          <clipPath
             id="cp522">
            <path
               transform="matrix(1,0,0,-1,0,841.5)"
               d="M 8.862e-6,0 H 594.75 V 841.5 H 8.862e-6 Z"
               fill-rule="evenodd"
               id="path71" />
          </clipPath>
          <g
             clip-path="url(#cp522)"
             id="g78">
            <text
               xml:space="preserve"
               transform="translate(0,841.5)"
               font-size="11.25px"
               font-family="ArialNarrow"
               font-weight="bold"
               font-style="italic"
               id="text76"><tspan
                 y="-332.13"
                 x="280.54999 287.29999 292.54248 296.27747"
                 id="tspan74">ware</tspan></text>
          </g>
        </g>
        <g
           id="g91"
           data-name="P">
          <clipPath
             id="cp523">
            <path
               transform="matrix(1,0,0,-1,0,841.5)"
               d="M 8.862e-6,0 H 594.75 V 841.5 H 8.862e-6 Z"
               fill-rule="evenodd"
               id="path82" />
          </clipPath>
          <g
             clip-path="url(#cp523)"
             id="g89">
            <text
               xml:space="preserve"
               transform="translate(0,841.5)"
               font-size="11.25px"
               font-family="ArialNarrow"
               font-weight="bold"
               font-style="italic"
               id="text87"><tspan
                 y="-332.13"
                 x="301.14999"
                 id="tspan85">-</tspan></text>
          </g>
        </g>
        <g
           id="g102"
           data-name="P">
          <clipPath
             id="cp524">
            <path
               transform="matrix(1,0,0,-1,0,841.5)"
               d="M 8.862e-6,0 H 594.75 V 841.5 H 8.862e-6 Z"
               fill-rule="evenodd"
               id="path93" />
          </clipPath>
          <g
             clip-path="url(#cp524)"
             id="g100">
            <text
               xml:space="preserve"
               transform="translate(0,841.5)"
               font-size="11.25px"
               font-family="ArialNarrow"
               font-weight="bold"
               font-style="italic"
               id="text98"><tspan
                 y="-332.13"
                 x="304.14999"
                 id="tspan96"> </tspan></text>
          </g>
        </g>
        <g
           id="g113"
           data-name="P">
          <clipPath
             id="cp525">
            <path
               transform="matrix(1,0,0,-1,0,841.5)"
               d="M 8.862e-6,0 H 594.75 V 841.5 H 8.862e-6 Z"
               fill-rule="evenodd"
               id="path104" />
          </clipPath>
          <g
             clip-path="url(#cp525)"
             id="g111">
            <text
               xml:space="preserve"
               transform="translate(0,841.5)"
               font-size="11.275px"
               font-family="ArialNarrow"
               font-weight="bold"
               font-style="italic"
               id="text109"><tspan
                 y="-318.92001"
                 x="279.04999 284.30414 290.29117 295.54532 300.78818"
                 id="tspan107">house</tspan></text>
          </g>
        </g>
        <path
           transform="matrix(1,0,0,-1,0,841.5)"
           stroke-width="0.75"
           stroke-linecap="round"
           stroke-linejoin="round"
           fill="none"
           stroke="#000000"
           d="m 148.11,199.24 h 28.346 V 441.3 H 148.11 Z"
           id="path115"
           onclick="" />
        <g
           id="g126"
           data-name="P">
          <clipPath
             id="cp526">
            <path
               transform="matrix(1,0,0,-1,0,841.5)"
               d="M 8.862e-6,0 H 594.75 V 841.5 H 8.862e-6 Z"
               fill-rule="evenodd"
               id="path117" />
          </clipPath>
          <g
             clip-path="url(#cp526)"
             id="g124">
            <text
               xml:space="preserve"
               transform="translate(0,841.5)"
               font-size="11.25px"
               font-family="ArialNarrow"
               font-weight="bold"
               font-style="italic"
               id="text122"><tspan
                 y="-415.72"
                 x="136.95 139.95374 142.20374 147.46873 152.74498 158.00998 161.01372 166.28996 174.55872 179.82372 182.82745 188.09245"
                 id="tspan120">[ customers </tspan></text>
          </g>
        </g>
        <clipPath
           id="cp527">
          <path
             transform="matrix(1,0,0,-1,0,841.5)"
             d="M 8.862e-6,0 H 594.75 V 841.5 H 8.862e-6 Z"
             fill-rule="evenodd"
             id="path128" />
        </clipPath>
        <g
           clip-path="url(#cp527)"
           id="g135">
          <text
             xml:space="preserve"
             transform="translate(0,841.5)"
             font-size="11.25px"
             font-family="ArialNarrow"
             font-weight="bold"
             font-style="italic"
             id="text133"><tspan
               y="-415.72"
               x="190.64999 193.67474"
               id="tspan131">• </tspan></text>
        </g>
        <g
           id="g146"
           data-name="P">
          <clipPath
             id="cp528">
            <path
               transform="matrix(1,0,0,-1,0,841.5)"
               d="M 8.862e-6,0 H 594.75 V 841.5 H 8.862e-6 Z"
               fill-rule="evenodd"
               id="path137" />
          </clipPath>
          <g
             clip-path="url(#cp528)"
             id="g144">
            <text
               xml:space="preserve"
               transform="translate(0,841.5)"
               font-size="11.25px"
               font-family="ArialNarrow"
               font-weight="bold"
               font-style="italic"
               id="text142"><tspan
                 y="-402.5"
                 x="153.85001 159.10374 162.83875 168.09248 173.33499 177.06999"
                 id="tspan140">order </tspan></text>
          </g>
        </g>
        <g
           id="g157"
           data-name="P">
          <clipPath
             id="cp529">
            <path
               transform="matrix(1,0,0,-1,0,841.5)"
               d="M 8.862e-6,0 H 594.75 V 841.5 H 8.862e-6 Z"
               fill-rule="evenodd"
               id="path148" />
          </clipPath>
          <g
             clip-path="url(#cp529)"
             id="g155">
            <text
               xml:space="preserve"
               transform="translate(0,841.5)"
               font-size="11.25px"
               font-family="ArialNarrow"
               font-weight="bold"
               font-style="italic"
               id="text153"><tspan
                 y="-389.29999"
                 x="134.7 142.935 147.435 153.42 157.92 163.905 168.405 176.64 181.88251 187.13625 190.13998"
                 id="tspan151">management </tspan></text>
          </g>
        </g>
        <clipPath
           id="cp530">
          <path
             transform="matrix(1,0,0,-1,0,841.5)"
             d="M 8.862e-6,0 H 594.75 V 841.5 H 8.862e-6 Z"
             fill-rule="evenodd"
             id="path159" />
        </clipPath>
        <g
           clip-path="url(#cp530)"
           id="g166">
          <text
             xml:space="preserve"
             transform="translate(0,841.5)"
             font-size="11.25px"
             font-family="ArialNarrow"
             font-weight="bold"
             font-style="italic"
             id="text164"><tspan
               y="-389.29999"
               x="192.92999 195.92975"
               id="tspan162">• </tspan></text>
        </g>
        <g
           id="g177"
           data-name="P">
          <clipPath
             id="cp531">
            <path
               transform="matrix(1,0,0,-1,0,841.5)"
               d="M 8.862e-6,0 H 594.75 V 841.5 H 8.862e-6 Z"
               fill-rule="evenodd"
               id="path168" />
          </clipPath>
          <g
             clip-path="url(#cp531)"
             id="g175">
            <text
               xml:space="preserve"
               transform="translate(0,841.5)"
               font-size="11.275px"
               font-family="ArialNarrow"
               font-weight="bold"
               font-style="italic"
               id="text173"><tspan
                 y="-376.10001"
                 x="145.08 147.33499 153.32202 157.82076 163.06363 168.31778 171.31694 177.30397 180.30312 185.54599"
                 id="tspan171">inventory </tspan></text>
          </g>
        </g>
        <g
           id="g188"
           data-name="P">
          <clipPath
             id="cp532">
            <path
               transform="matrix(1,0,0,-1,0,841.5)"
               d="M 8.862e-6,0 H 594.75 V 841.5 H 8.862e-6 Z"
               fill-rule="evenodd"
               id="path179" />
          </clipPath>
          <g
             clip-path="url(#cp532)"
             id="g186">
            <text
               xml:space="preserve"
               transform="translate(0,841.5)"
               font-size="11.25px"
               font-family="ArialNarrow"
               font-weight="bold"
               font-style="italic"
               id="text184"><tspan
                 y="-362.88"
                 x="134.78 143.015 147.515 153.5 158 163.985 168.485 176.72 181.96251 187.21625 190.21999 193.21249"
                 id="tspan182">management ]</tspan></text>
          </g>
        </g>
        <path
           transform="matrix(1,0,0,-1,0,841.5)"
           stroke-width="0.75"
           stroke-linecap="round"
           stroke-linejoin="round"
           fill="none"
           stroke="#000000"
           d="m 277.98,271.04 h 28.177 v 99.921 H 277.98 Z"
           id="path190" />
        <path
           transform="matrix(1,0,0,-1,0,841.5)"
           d="m 255.4,415.25 h 65.197 v 25.147 H 255.4 Z"
           fill="#ffffff"
           fill-rule="evenodd"
           id="path192" />
        <g
           id="g203"
           data-name="P">
          <clipPath
             id="cp533">
            <path
               transform="matrix(1,0,0,-1,0,841.5)"
               d="M 8.862e-6,0 H 594.75 V 841.5 H 8.862e-6 Z"
               fill-rule="evenodd"
               id="path194" />
          </clipPath>
          <g
             clip-path="url(#cp533)"
             id="g201">
            <text
               xml:space="preserve"
               transform="translate(0,841.5)"
               font-size="11.25px"
               font-family="ArialNarrow"
               font-weight="bold"
               id="text199"><tspan
                 y="-430.75"
                 x="273.79999 279.065 284.34128 289.61755 295.63632 297.90881 303.17383"
                 id="tspan197">supply </tspan></text>
          </g>
        </g>
        <g
           id="g214"
           data-name="P">
          <clipPath
             id="cp534">
            <path
               transform="matrix(1,0,0,-1,0,841.5)"
               d="M 8.862e-6,0 H 594.75 V 841.5 H 8.862e-6 Z"
               fill-rule="evenodd"
               id="path205" />
          </clipPath>
          <g
             clip-path="url(#cp534)"
             id="g212">
            <text
               xml:space="preserve"
               transform="translate(0,841.5)"
               font-size="11.25px"
               font-family="ArialNarrow"
               font-weight="bold"
               id="text210"><tspan
                 y="-417.54999"
                 x="274.32999 279.58374 283.31873 288.57248 293.81497 297.54996"
                 id="tspan208">orders</tspan></text>
          </g>
        </g>
        <path
           transform="matrix(1,0,0,-1,0,841.5)"
           d="m 330.52,346.04 h 56.976 v 21.509 H 330.52 Z"
           fill="#ffffff"
           fill-rule="evenodd"
           id="path216" />
        <g
           id="g227"
           data-name="P">
          <clipPath
             id="cp535">
            <path
               transform="matrix(1,0,0,-1,0,841.5)"
               d="M 8.862e-6,0 H 594.75 V 841.5 H 8.862e-6 Z"
               fill-rule="evenodd"
               id="path218" />
          </clipPath>
          <g
             clip-path="url(#cp535)"
             id="g225">
            <text
               xml:space="preserve"
               transform="translate(0,841.5)"
               font-size="11.275px"
               font-family="ArialNarrow"
               font-weight="bold"
               id="text223"><tspan
                 y="-359.67999"
                 x="340.39999 345.65414 351.64117 356.89532 362.14948 367.39233 369.64734 372.64648 378.63351"
                 id="tspan221">goods to </tspan></text>
          </g>
        </g>
        <g
           id="g238"
           data-name="P">
          <clipPath
             id="cp536">
            <path
               transform="matrix(1,0,0,-1,0,841.5)"
               d="M 8.862e-6,0 H 594.75 V 841.5 H 8.862e-6 Z"
               fill-rule="evenodd"
               id="path229" />
          </clipPath>
          <g
             clip-path="url(#cp536)"
             id="g236">
            <text
               xml:space="preserve"
               transform="translate(0,841.5)"
               font-size="11.25px"
               font-family="ArialNarrow"
               font-weight="bold"
               id="text234"><tspan
                 y="-346.45001"
                 x="335.88 342.63 347.8725 351.60748 356.10748 362.0925 367.34625 372.60001 377.8425"
                 id="tspan232">warehouse</tspan></text>
          </g>
        </g>
        <path
           transform="matrix(1,0,0,-1,0,841.5)"
           d="m 209.02,328.84 h 49.96103 v 56.659 H 209.02 Z"
           fill="#ffffff"
           fill-rule="evenodd"
           id="path240" />
        <g
           id="g251"
           data-name="P">
          <clipPath
             id="cp537">
            <path
               transform="matrix(1,0,0,-1,0,841.5)"
               d="M 8.862e-6,0 H 594.75 V 841.5 H 8.862e-6 Z"
               fill-rule="evenodd"
               id="path242" />
          </clipPath>
          <g
             clip-path="url(#cp537)"
             id="g249">
            <text
               xml:space="preserve"
               transform="translate(0,841.5)"
               font-size="11.25px"
               font-family="ArialNarrow"
               font-weight="bold"
               id="text247"><tspan
                 y="-366.64999"
                 x="216.22 221.46251 225.96251 231.20502 236.45876 242.44376"
                 id="tspan245">acknow</tspan></text>
          </g>
        </g>
        <g
           id="g262"
           data-name="P">
          <clipPath
             id="cp538">
            <path
               transform="matrix(1,0,0,-1,0,841.5)"
               d="M 8.862e-6,0 H 594.75 V 841.5 H 8.862e-6 Z"
               fill-rule="evenodd"
               id="path253" />
          </clipPath>
          <g
             clip-path="url(#cp538)"
             id="g260">
            <text
               xml:space="preserve"
               transform="translate(0,841.5)"
               font-size="11.25px"
               font-family="ArialNarrow"
               font-weight="bold"
               id="text258"><tspan
                 y="-366.64999"
                 x="249.35001"
                 id="tspan256">-</tspan></text>
          </g>
        </g>
        <g
           id="g273"
           data-name="P">
          <clipPath
             id="cp539">
            <path
               transform="matrix(1,0,0,-1,0,841.5)"
               d="M 8.862e-6,0 H 594.75 V 841.5 H 8.862e-6 Z"
               fill-rule="evenodd"
               id="path264" />
          </clipPath>
          <g
             clip-path="url(#cp539)"
             id="g271">
            <text
               xml:space="preserve"
               transform="translate(0,841.5)"
               font-size="11.275px"
               font-family="ArialNarrow"
               font-weight="bold"
               id="text269"><tspan
                 y="-353.45001"
                 x="219.75 222.00499 227.24786 232.50201 238.48904 242.98778 248.97481"
                 id="tspan267">ledged </tspan></text>
          </g>
        </g>
        <g
           id="g284"
           data-name="P">
          <clipPath
             id="cp540">
            <path
               transform="matrix(1,0,0,-1,0,841.5)"
               d="M 8.862e-6,0 H 594.75 V 841.5 H 8.862e-6 Z"
               fill-rule="evenodd"
               id="path275" />
          </clipPath>
          <g
             clip-path="url(#cp540)"
             id="g282">
            <text
               xml:space="preserve"
               transform="translate(0,841.5)"
               font-size="11.25px"
               font-family="ArialNarrow"
               font-weight="bold"
               id="text280"><tspan
                 y="-340.22"
                 x="216.98 220.715 225.215 230.4575 235.70001 237.95001 243.20375 246.20749"
                 id="tspan278">receipts</tspan></text>
          </g>
        </g>
        <path
           transform="matrix(1,0,0,-1,0,841.5)"
           d="m 330.52,272.95 h 58.927 v 25.14703 H 330.52 Z"
           fill="#ffffff"
           fill-rule="evenodd"
           id="path286" />
        <g
           id="g297"
           data-name="P">
          <clipPath
             id="cp541">
            <path
               transform="matrix(1,0,0,-1,0,841.5)"
               d="M 8.862e-6,0 H 594.75 V 841.5 H 8.862e-6 Z"
               fill-rule="evenodd"
               id="path288" />
          </clipPath>
          <g
             clip-path="url(#cp541)"
             id="g295">
            <text
               xml:space="preserve"
               transform="translate(0,841.5)"
               font-size="11.275px"
               font-family="ArialNarrow"
               font-weight="bold"
               id="text293"><tspan
                 y="-288.35001"
                 x="340.88 343.87915 349.1333 352.12119 355.12033 358.11948 363.36234 365.61734 371.60437 376.85852 379.85767"
                 id="tspan291">to freight </tspan></text>
          </g>
        </g>
        <g
           id="g308"
           data-name="P">
          <clipPath
             id="cp542">
            <path
               transform="matrix(1,0,0,-1,0,841.5)"
               d="M 8.862e-6,0 H 594.75 V 841.5 H 8.862e-6 Z"
               fill-rule="evenodd"
               id="path299" />
          </clipPath>
          <g
             clip-path="url(#cp542)"
             id="g306">
            <text
               xml:space="preserve"
               transform="translate(0,841.5)"
               font-size="11.25px"
               font-family="ArialNarrow"
               font-weight="bold"
               id="text304"><tspan
                 y="-275.13"
                 x="337.10001 340.10376 345.35751 349.0925 355.8425 361.08499 364.81998 370.07373 375.31622 378.31998"
                 id="tspan302">forwarders</tspan></text>
          </g>
        </g>
        <path
           transform="matrix(1,0,0,-1,0,841.5)"
           d="m 205.16,272.41 h 46.063 v 25.147 H 205.16 Z"
           fill="#ffffff"
           fill-rule="evenodd"
           id="path310" />
        <g
           id="g321"
           data-name="P">
          <clipPath
             id="cp543">
            <path
               transform="matrix(1,0,0,-1,0,841.5)"
               d="M 8.862e-6,0 H 594.75 V 841.5 H 8.862e-6 Z"
               fill-rule="evenodd"
               id="path312" />
          </clipPath>
          <g
             clip-path="url(#cp543)"
             id="g319">
            <text
               xml:space="preserve"
               transform="translate(0,841.5)"
               font-size="11.25px"
               font-family="ArialNarrow"
               font-weight="bold"
               id="text317"><tspan
                 y="-287.79999"
                 x="215.17 220.42374 225.66624 229.40125 233.90125 239.14375 241.39375"
                 id="tspan315">parcel </tspan></text>
          </g>
        </g>
        <g
           id="g332"
           data-name="P">
          <clipPath
             id="cp544">
            <path
               transform="matrix(1,0,0,-1,0,841.5)"
               d="M 8.862e-6,0 H 594.75 V 841.5 H 8.862e-6 Z"
               fill-rule="evenodd"
               id="path323" />
          </clipPath>
          <g
             clip-path="url(#cp544)"
             id="g330">
            <text
               xml:space="preserve"
               transform="translate(0,841.5)"
               font-size="11.275px"
               font-family="ArialNarrow"
               font-weight="bold"
               id="text328"><tspan
                 y="-274.60001"
                 x="214.42999 219.68414 223.42744 228.68159 233.92447 237.66777"
                 id="tspan326">orders</tspan></text>
          </g>
        </g>
        <path
           transform="matrix(1,0,0,-1,0,841.5)"
           d="m 252.57,202.89 h 75.969 v 25.147 H 252.57 Z"
           fill="#ffffff"
           fill-rule="evenodd"
           id="path334" />
        <g
           id="g345"
           data-name="P">
          <clipPath
             id="cp545">
            <path
               transform="matrix(1,0,0,-1,0,841.5)"
               d="M 8.862e-6,0 H 594.75 V 841.5 H 8.862e-6 Z"
               fill-rule="evenodd"
               id="path336" />
          </clipPath>
          <g
             clip-path="url(#cp545)"
             id="g343">
            <text
               xml:space="preserve"
               transform="translate(0,841.5)"
               font-size="11.275px"
               font-family="ArialNarrow"
               font-weight="bold"
               id="text341"><tspan
                 y="-211.63"
                 x="273.85001 279.10416 284.34702 286.60202 289.5899 294.08862 299.33148 303.07477"
                 id="tspan339">delivery</tspan></text>
          </g>
        </g>
        <path
           transform="matrix(1,0,0,-1,0,841.5)"
           stroke-width="1.5"
           stroke-linecap="round"
           stroke-linejoin="round"
           fill="none"
           stroke="#000000"
           d="m 307.84,427.75 h 90.34"
           id="path347" />
        <path
           transform="matrix(1,0,0,-1,0,841.5)"
           d="m 397.18,431.77 12.06,-4.02 -12.06,-4.02 z"
           fill-rule="evenodd"
           id="path349" />
        <path
           transform="matrix(1,0,0,-1,0,841.5)"
           stroke-width="1.5"
           stroke-linecap="round"
           stroke-linejoin="round"
           fill="none"
           stroke="#000000"
           d="m 176.26,427.75 h 79.61"
           id="path351" />
        <path
           transform="matrix(1,0,0,-1,0,841.5)"
           d="m 254.87,431.77 12.06,-4.02 -12.06,-4.02 z"
           fill-rule="evenodd"
           id="path353" />
        <path
           transform="matrix(1,0,0,-1,0,841.5)"
           stroke-width="1.5"
           stroke-linecap="round"
           stroke-linejoin="round"
           fill="none"
           stroke="#000000"
           d="m 187.51,356.75 h 25.88"
           id="path355" />
        <path
           transform="matrix(1,0,0,-1,0,841.5)"
           d="m 188.52,352.73 -12.06,4.02 12.06,4.02 z"
           fill-rule="evenodd"
           id="path357" />
        <path
           transform="matrix(1,0,0,-1,0,841.5)"
           stroke-width="1.5"
           stroke-linecap="round"
           stroke-linejoin="round"
           fill="none"
           stroke="#000000"
           d="m 262.2,356.7 h 15.78"
           id="path359" />
        <path
           transform="matrix(1,0,0,-1,0,841.5)"
           d="m 263.21,352.68 -12.06,4.02 12.06,4.02 z"
           fill-rule="evenodd"
           id="path361" />
        <path
           transform="matrix(1,0,0,-1,0,841.5)"
           stroke-width="1.5"
           stroke-linecap="round"
           stroke-linejoin="round"
           fill="none"
           stroke="#000000"
           d="M 390.85,356.61 H 409.5"
           id="path363" />
        <path
           transform="matrix(1,0,0,-1,0,841.5)"
           d="m 391.85,352.59 -12.06,4.02 12.06,4.02 z"
           fill-rule="evenodd"
           id="path365" />
        <path
           transform="matrix(1,0,0,-1,0,841.5)"
           stroke-width="1.5"
           stroke-linecap="round"
           stroke-linejoin="round"
           fill="none"
           stroke="#000000"
           d="m 245.48,284.74 h 21.44"
           id="path367" />
        <path
           transform="matrix(1,0,0,-1,0,841.5)"
           d="m 265.92,288.76 12.06,-4.02 -12.06,-4.02 z"
           fill-rule="evenodd"
           id="path369" />
        <path
           transform="matrix(1,0,0,-1,0,841.5)"
           stroke-width="1.5"
           stroke-linecap="round"
           stroke-linejoin="round"
           fill="none"
           stroke="#000000"
           d="M 176.76,284.74 H 198.2"
           id="path371" />
        <path
           transform="matrix(1,0,0,-1,0,841.5)"
           d="m 197.2,288.76 12.06,-4.02 -12.06,-4.02 z"
           fill-rule="evenodd"
           id="path373" />
        <path
           transform="matrix(1,0,0,-1,0,841.5)"
           stroke-width="1.5"
           stroke-linecap="round"
           stroke-linejoin="round"
           fill="none"
           stroke="#000000"
           d="m 306.83,285.59 h 27.26"
           id="path375" />
        <path
           transform="matrix(1,0,0,-1,0,841.5)"
           d="m 333.08,289.61 12.06,-4.02 -12.06,-4.02 z"
           fill-rule="evenodd"
           id="path377" />
        <clipPath
           id="cp546">
          <path
             transform="matrix(1,0,0,-1,0,841.5)"
             d="M -6.1035e-5,841.5 H 594.75 V 6.1035e-5 H -6.1035e-5"
             fill-rule="evenodd"
             id="path379" />
        </clipPath>
        <g
           clip-path="url(#cp546)"
           id="g384">
          <path
             transform="matrix(1,0,0,-1,0,841.5)"
             stroke-width="1.5"
             stroke-linecap="round"
             stroke-linejoin="round"
             fill="none"
             stroke="#000000"
             d="m 375.87,285.63 22.52,0.05"
             id="path382" />
        </g>
        <clipPath
           id="cp547">
          <path
             transform="matrix(1,0,0,-1,0,841.5)"
             d="M -6.1035e-5,841.5 H 594.75 V 6.1035e-5 H -6.1035e-5"
             fill-rule="evenodd"
             id="path386" />
        </clipPath>
        <g
           clip-path="url(#cp547)"
           id="g391">
          <path
             transform="matrix(1,0,0,-1,0,841.5)"
             d="m 397.37,289.69 12.07,-3.99 -12.05,-4.05 z"
             fill-rule="evenodd"
             id="path389" />
        </g>
        <path
           transform="matrix(1,0,0,-1,0,841.5)"
           stroke-width="1.5"
           stroke-linecap="round"
           stroke-linejoin="round"
           fill="none"
           stroke="#000000"
           d="m 324.57,215.89 h 84.67"
           id="path393" />
        <path
           transform="matrix(1,0,0,-1,0,841.5)"
           d="m 325.57,211.87 -12.06,4.02 12.06,4.02 z"
           fill-rule="evenodd"
           id="path395" />
        <path
           transform="matrix(1,0,0,-1,0,841.5)"
           stroke-width="1.5"
           stroke-linecap="round"
           stroke-linejoin="round"
           fill="none"
           stroke="#000000"
           d="m 187.51,215.52 h 77.58"
           id="path397" />
        <path
           transform="matrix(1,0,0,-1,0,841.5)"
           d="m 188.52,211.5 -12.06,4.02 12.06,4.02 z"
           fill-rule="evenodd"
           id="path399" />
      </g>
      <rect
         style="fill:#0000ff;fill-opacity:0;fill-rule:evenodd;stroke-width:0.914098"
         id="rect427"
         width="28.346001"
         height="242.06"
         x="148.11"
         y="400.20001"
         onclick="/#/About" />
    </g>
  </a>
  
</svg>
