<?xml version="1.0" encoding="UTF-8" standalone="no"?>
<!DOCTYPE svg PUBLIC "-//W3C//DTD SVG 1.1//EN" "http://www.w3.org/Graphics/SVG/1.1/DTD/svg11.dtd">
<svg xmlns="http://www.w3.org/2000/svg" xmlns:xlink="http://www.w3.org/1999/xlink" version="1.1" width="594.75pt" height="841.5pt" viewBox="0 0 594.75 841.5">
<g enable-background="new">
<g>
<g id="Layer-1" data-name="P">
<clipPath id="cp492">
<path transform="matrix(1,0,0,-1,0,841.5)" d="M .000008862 0 L 594.75 0 L 594.75 841.5 L .000008862 841.5 Z " fill-rule="evenodd"/>
</clipPath>
<g clip-path="url(#cp492)">
<text xml:space="preserve" transform="matrix(1 0 -0 1 0 841.5)" font-size="12" font-family="ArialNarrow" font-weight="bold" font-style="italic"><tspan y="-719.05" x="137.73 142.974 148.986 154.96199 157.96199 163.97399 172.94998 178.19399 181.93799">customers</tspan></text>
</g>
</g>
<path transform="matrix(1,0,0,-1,0,841.5)" stroke-width=".75" stroke-linecap="round" stroke-linejoin="round" fill="none" stroke="#000000" d="M 149.13 550.38 L 177.47602 550.38 L 177.47602 792.44 L 149.13 792.44 Z "/>
<path transform="matrix(1,0,0,-1,0,841.5)" stroke-width=".75" stroke-linecap="round" stroke-linejoin="round" fill="none" stroke="#000000" d="M 411.04 549.97 L 439.38603 549.97 L 439.38603 792.02999 L 411.04 792.02999 Z "/>
<g id="Layer-1" data-name="P">
<clipPath id="cp493">
<path transform="matrix(1,0,0,-1,0,841.5)" d="M .000008862 0 L 594.75 0 L 594.75 841.5 L .000008862 841.5 Z " fill-rule="evenodd"/>
</clipPath>
<g clip-path="url(#cp493)">
<text xml:space="preserve" transform="matrix(1 0 -0 1 0 841.5)" font-size="11.25" font-family="ArialNarrow" font-weight="bold"><tspan y="-764.03" x="407.65 410.65376 412.90376 415.89625 421.15 426.3925 430.8925 436.91127 439.915 445.16877 448.90376 453.40376">[ inventory </tspan></text>
</g>
</g>
<g id="Layer-1" data-name="P">
<clipPath id="cp494">
<path transform="matrix(1,0,0,-1,0,841.5)" d="M .000008862 0 L 594.75 0 L 594.75 841.5 L .000008862 841.5 Z " fill-rule="evenodd"/>
</clipPath>
<g clip-path="url(#cp494)">
<text xml:space="preserve" transform="matrix(1 0 -0 1 0 841.5)" font-size="11.25" font-family="ArialNarrow" font-weight="bold"><tspan y="-750.83" x="400.05 408.285 412.785 418.77003 423.27003 429.25505 433.75505 441.99006 447.23255 452.4863 455.49006">management </tspan></text>
</g>
</g>
<clipPath id="cp495">
<path transform="matrix(1,0,0,-1,0,841.5)" d="M .000008862 0 L 594.75 0 L 594.75 841.5 L .000008862 841.5 Z " fill-rule="evenodd"/>
</clipPath>
<g clip-path="url(#cp495)">
<text xml:space="preserve" transform="matrix(1 0 -0 1 0 841.5)" font-size="11.25" font-family="ArialNarrow" font-weight="bold"><tspan y="-750.83" x="458.27 461.26976">&#x2022; </tspan></text>
</g>
<g id="Layer-1" data-name="P">
<clipPath id="cp496">
<path transform="matrix(1,0,0,-1,0,841.5)" d="M .000008862 0 L 594.75 0 L 594.75 841.5 L .000008862 841.5 Z " fill-rule="evenodd"/>
</clipPath>
<g clip-path="url(#cp496)">
<text xml:space="preserve" transform="matrix(1 0 -0 1 0 841.5)" font-size="11.25" font-family="ArialNarrow" font-weight="bold"><tspan y="-737.6" x="404.3 411.07249 416.3375 420.10624 424.62873 430.6475 435.92378 441.20005 446.46507 451.73008">warehouse </tspan></text>
</g>
</g>
<clipPath id="cp497">
<path transform="matrix(1,0,0,-1,0,841.5)" d="M .000008862 0 L 594.75 0 L 594.75 841.5 L .000008862 841.5 Z " fill-rule="evenodd"/>
</clipPath>
<g clip-path="url(#cp497)">
<text xml:space="preserve" transform="matrix(1 0 -0 1 0 841.5)" font-size="11.25" font-family="ArialNarrow" font-weight="bold"><tspan y="-737.6" x="454 456.99977">&#x2022; </tspan></text>
</g>
<g id="Layer-1" data-name="P">
<clipPath id="cp498">
<path transform="matrix(1,0,0,-1,0,841.5)" d="M .000008862 0 L 594.75 0 L 594.75 841.5 L .000008862 841.5 Z " fill-rule="evenodd"/>
</clipPath>
<g clip-path="url(#cp498)">
<text xml:space="preserve" transform="matrix(1 0 -0 1 0 841.5)" font-size="11.25" font-family="ArialNarrow" font-weight="bold"><tspan y="-724.4" x="397.55 402.79249 408.04624 413.3 419.285 421.535 423.785 429.0275 432.76249">supplier </tspan></text>
</g>
</g>
<clipPath id="cp499">
<path transform="matrix(1,0,0,-1,0,841.5)" d="M .000008862 0 L 594.75 0 L 594.75 841.5 L .000008862 841.5 Z " fill-rule="evenodd"/>
</clipPath>
<g clip-path="url(#cp499)">
<text xml:space="preserve" transform="matrix(1 0 -0 1 0 841.5)" font-size="11.25" font-family="ArialNarrow" font-weight="bold"><tspan y="-724.4" x="435.2 438.19978">&#x2022; </tspan></text>
</g>
<g id="Layer-1" data-name="P">
<clipPath id="cp500">
<path transform="matrix(1,0,0,-1,0,841.5)" d="M .000008862 0 L 594.75 0 L 594.75 841.5 L .000008862 841.5 Z " fill-rule="evenodd"/>
</clipPath>
<g clip-path="url(#cp500)">
<text xml:space="preserve" transform="matrix(1 0 -0 1 0 841.5)" font-size="11.25" font-family="ArialNarrow" font-weight="bold"><tspan y="-724.4" x="440.88 443.88377 447.61875 449.86875 455.1225 461.1075 464.11128">fright </tspan></text>
</g>
</g>
<g id="Layer-1" data-name="P">
<clipPath id="cp501">
<path transform="matrix(1,0,0,-1,0,841.5)" d="M .000008862 0 L 594.75 0 L 594.75 841.5 L .000008862 841.5 Z " fill-rule="evenodd"/>
</clipPath>
<g clip-path="url(#cp501)">
<text xml:space="preserve" transform="matrix(1 0 -0 1 0 841.5)" font-size="11.25" font-family="ArialNarrow" font-weight="bold"><tspan y="-710.28" x="404.65 407.65376 412.9075 416.6425 423.3925 428.63499 432.36997 437.62373 442.8662 445.86997 451.11247 453.36247">forwarders ]</tspan></text>
</g>
</g>
<path transform="matrix(1,0,0,-1,0,841.5)" stroke-width=".75" stroke-linecap="round" stroke-linejoin="round" fill="none" stroke="#000000" d="M 268.78 621.92 L 297.126 621.92 L 297.126 792.64 L 268.78 792.64 Z "/>
<path transform="matrix(1,0,0,-1,0,841.5)" d="M 322.07 766.23 L 388.573 766.23 L 388.573 791.37698 L 322.07 791.37698 Z " fill="#ffffff" fill-rule="evenodd"/>
<g id="Layer-1" data-name="P">
<clipPath id="cp502">
<path transform="matrix(1,0,0,-1,0,841.5)" d="M .000008862 0 L 594.75 0 L 594.75 841.5 L .000008862 841.5 Z " fill-rule="evenodd"/>
</clipPath>
<g clip-path="url(#cp502)">
<text xml:space="preserve" transform="matrix(1 0 -0 1 0 841.5)" font-size="11.25" font-family="ArialNarrow" font-weight="bold"><tspan y="-782.05" x="334.2 337.935 342.435 348.42 353.67378 358.91627 363.41627 366.42 371.6625 376.91627">requested </tspan></text>
</g>
</g>
<g id="Layer-1" data-name="P">
<clipPath id="cp503">
<path transform="matrix(1,0,0,-1,0,841.5)" d="M .000008862 0 L 594.75 0 L 594.75 841.5 L .000008862 841.5 Z " fill-rule="evenodd"/>
</clipPath>
<g clip-path="url(#cp503)">
<text xml:space="preserve" transform="matrix(1 0 -0 1 0 841.5)" font-size="11.275" font-family="ArialNarrow" font-weight="bold"><tspan y="-768.85" x="328.9 332.66584 337.1871 342.4525 347.71794 350.73963 356.00505 361.27046 364.29216 366.5697 371.8464 377.856">reservations</tspan></text>
</g>
</g>
<path transform="matrix(1,0,0,-1,0,841.5)" d="M 314.76 697.36 L 388.957 697.36 L 388.957 718.86898 L 314.76 718.86898 Z " fill="#ffffff" fill-rule="evenodd"/>
<g id="Layer-1" data-name="P">
<clipPath id="cp504">
<path transform="matrix(1,0,0,-1,0,841.5)" d="M .000008862 0 L 594.75 0 L 594.75 841.5 L .000008862 841.5 Z " fill-rule="evenodd"/>
</clipPath>
<g clip-path="url(#cp504)">
<text xml:space="preserve" transform="matrix(1 0 -0 1 0 841.5)" font-size="11.25" font-family="ArialNarrow" font-weight="bold"><tspan y="-711.3" x="335.75 341.00376 344.73875 349.98124 355.235 358.23875 363.48124 368.735">granted </tspan></text>
</g>
</g>
<g id="Layer-1" data-name="P">
<clipPath id="cp505">
<path transform="matrix(1,0,0,-1,0,841.5)" d="M .000008862 0 L 594.75 0 L 594.75 841.5 L .000008862 841.5 Z " fill-rule="evenodd"/>
</clipPath>
<g clip-path="url(#cp505)">
<text xml:space="preserve" transform="matrix(1 0 -0 1 0 841.5)" font-size="11.25" font-family="ArialNarrow" font-weight="bold"><tspan y="-698.08" x="325.45 329.185 333.685 338.9275 344.16999 347.17375 352.41624 357.65873 360.66249 362.91249 368.16624 374.15126">reservations</tspan></text>
</g>
</g>
<path transform="matrix(1,0,0,-1,0,841.5)" d="M 201.22 624.36 L 240.905 624.36 L 240.905 649.50698 L 201.22 649.50698 Z " fill="#ffffff" fill-rule="evenodd"/>
<g id="Layer-1" data-name="P">
<clipPath id="cp506">
<path transform="matrix(1,0,0,-1,0,841.5)" d="M .000008862 0 L 594.75 0 L 594.75 841.5 L .000008862 841.5 Z " fill-rule="evenodd"/>
</clipPath>
<g clip-path="url(#cp506)">
<text xml:space="preserve" transform="matrix(1 0 -0 1 0 841.5)" font-size="11.25" font-family="ArialNarrow" font-weight="bold"><tspan y="-640.05" x="208.3 216.535 221.035 226.27751">mess</tspan></text>
</g>
</g>
<g id="Layer-1" data-name="P">
<clipPath id="cp507">
<path transform="matrix(1,0,0,-1,0,841.5)" d="M .000008862 0 L 594.75 0 L 594.75 841.5 L .000008862 841.5 Z " fill-rule="evenodd"/>
</clipPath>
<g clip-path="url(#cp507)">
<text xml:space="preserve" transform="matrix(1 0 -0 1 0 841.5)" font-size="11.25" font-family="ArialNarrow" font-weight="bold"><tspan y="-640.05" x="231.4">-</tspan></text>
</g>
</g>
<g id="Layer-1" data-name="P">
<clipPath id="cp508">
<path transform="matrix(1,0,0,-1,0,841.5)" d="M .000008862 0 L 594.75 0 L 594.75 841.5 L .000008862 841.5 Z " fill-rule="evenodd"/>
</clipPath>
<g clip-path="url(#cp508)">
<text xml:space="preserve" transform="matrix(1 0 -0 1 0 841.5)" font-size="11.275" font-family="ArialNarrow" font-weight="bold"><tspan y="-626.85" x="211.05 216.29288 221.54703 226.7899">ages</tspan></text>
</g>
</g>
<path transform="matrix(1,0,0,-1,0,841.5)" d="M 193 766.79 L 244.626 766.79 L 244.626 790.484 L 193 790.484 Z " fill="#ffffff" fill-rule="evenodd"/>
<g id="Layer-1" data-name="P">
<clipPath id="cp509">
<path transform="matrix(1,0,0,-1,0,841.5)" d="M .000008862 0 L 594.75 0 L 594.75 841.5 L .000008862 841.5 Z " fill-rule="evenodd"/>
</clipPath>
<g clip-path="url(#cp509)">
<text xml:space="preserve" transform="matrix(1 0 -0 1 0 841.5)" font-size="11.25" font-family="ArialNarrow" font-weight="bold"><tspan y="-781.88" x="199.03 204.28374 210.26874 213.27248 218.51499 223.76873 229.01123 234.25374 238.75374">purchase </tspan></text>
</g>
</g>
<g id="Layer-1" data-name="P">
<clipPath id="cp510">
<path transform="matrix(1,0,0,-1,0,841.5)" d="M .000008862 0 L 594.75 0 L 594.75 841.5 L .000008862 841.5 Z " fill-rule="evenodd"/>
</clipPath>
<g clip-path="url(#cp510)">
<text xml:space="preserve" transform="matrix(1 0 -0 1 0 841.5)" font-size="11.275" font-family="ArialNarrow" font-weight="bold"><tspan y="-768.67" x="205.05 210.30416 214.04746 219.3016 224.54448 228.28778">orders</tspan></text>
</g>
</g>
<g id="Layer-1" data-name="P">
<clipPath id="cp511">
<path transform="matrix(1,0,0,-1,0,841.5)" d="M .000008862 0 L 594.75 0 L 594.75 841.5 L .000008862 841.5 Z " fill-rule="evenodd"/>
</clipPath>
<g clip-path="url(#cp511)">
<text xml:space="preserve" transform="matrix(1 0 -0 1 0 841.5)" font-size="12.025" font-family="ArialNarrow" font-weight="bold" font-style="italic"><tspan y="-740.47" x="270.73 276.75456 280.4823 286.50685 291.7377 296.22303">order </tspan></text>
</g>
</g>
<g id="Layer-1" data-name="P">
<clipPath id="cp512">
<path transform="matrix(1,0,0,-1,0,841.5)" d="M .000008862 0 L 594.75 0 L 594.75 841.5 L .000008862 841.5 Z " fill-rule="evenodd"/>
</clipPath>
<g clip-path="url(#cp512)">
<text xml:space="preserve" transform="matrix(1 0 -0 1 0 841.5)" font-size="12" font-family="ArialNarrow" font-weight="bold" font-style="italic"><tspan y="-726.05" x="252.93 261.91798 267.16197 273.17396 278.40596 284.41795 290.39396 298.64994 304.63795 310.64994">management</tspan></text>
</g>
</g>
<path transform="matrix(1,0,0,-1,0,841.5)" d="M 248.88 552.19 L 324.849 552.19 L 324.849 577.337 L 248.88 577.337 Z " fill="#ffffff" fill-rule="evenodd"/>
<g id="Layer-1" data-name="P">
<clipPath id="cp513">
<path transform="matrix(1,0,0,-1,0,841.5)" d="M .000008862 0 L 594.75 0 L 594.75 841.5 L .000008862 841.5 Z " fill-rule="evenodd"/>
</clipPath>
<g clip-path="url(#cp513)">
<text xml:space="preserve" transform="matrix(1 0 -0 1 0 841.5)" font-size="11.275" font-family="ArialNarrow" font-weight="bold"><tspan y="-561.22" x="266.4 271.65415 276.897 279.152 282.1399 286.6386 291.88148 295.62477 297.87977 303.12263">deliveries</tspan></text>
</g>
</g>
<path transform="matrix(1,0,0,-1,0,841.5)" d="M 330.17 624.45 L 376.233 624.45 L 376.233 649.597 L 330.17 649.597 Z " fill="#ffffff" fill-rule="evenodd"/>
<g id="Layer-1" data-name="P">
<clipPath id="cp514">
<path transform="matrix(1,0,0,-1,0,841.5)" d="M .000008862 0 L 594.75 0 L 594.75 841.5 L .000008862 841.5 Z " fill-rule="evenodd"/>
</clipPath>
<g clip-path="url(#cp514)">
<text xml:space="preserve" transform="matrix(1 0 -0 1 0 841.5)" font-size="11.275" font-family="ArialNarrow" font-weight="bold"><tspan y="-640.15" x="340.35 345.60417 350.84703 354.5903 359.08903 364.33189 366.58689">parcel </tspan></text>
</g>
</g>
<g id="Layer-1" data-name="P">
<clipPath id="cp515">
<path transform="matrix(1,0,0,-1,0,841.5)" d="M .000008862 0 L 594.75 0 L 594.75 841.5 L .000008862 841.5 Z " fill-rule="evenodd"/>
</clipPath>
<g clip-path="url(#cp515)">
<text xml:space="preserve" transform="matrix(1 0 -0 1 0 841.5)" font-size="11.25" font-family="ArialNarrow" font-weight="bold"><tspan y="-626.92" x="339.6 344.85377 348.58876 353.8425 359.085 362.81999">orders</tspan></text>
</g>
</g>
<path transform="matrix(1,0,0,-1,0,841.5)" stroke-width="1.5" stroke-linecap="round" stroke-linejoin="round" fill="none" stroke="#000000" d="M 238.34 778.58 L 257.67 778.58 "/>
<path transform="matrix(1,0,0,-1,0,841.5)" d="M 256.67 782.6 L 268.73 778.58 L 256.67 774.56 L 256.67 782.6 Z " fill-rule="evenodd"/>
<path transform="matrix(1,0,0,-1,0,841.5)" stroke-width="1.5" stroke-linecap="round" stroke-linejoin="round" fill="none" stroke="#000000" d="M 177.48 778.27 L 190.77 778.27 "/>
<path transform="matrix(1,0,0,-1,0,841.5)" d="M 189.77 782.29 L 201.83 778.27 L 189.77 774.25 L 189.77 782.29 Z " fill-rule="evenodd"/>
<path transform="matrix(1,0,0,-1,0,841.5)" stroke-width="1.5" stroke-linecap="round" stroke-linejoin="round" fill="none" stroke="#000000" d="M 245.2 636.87 L 267.37 636.87 "/>
<path transform="matrix(1,0,0,-1,0,841.5)" d="M 246.2 632.85 L 234.14 636.87 L 246.2 640.89 L 246.2 632.85 Z " fill-rule="evenodd"/>
<path transform="matrix(1,0,0,-1,0,841.5)" stroke-width="1.5" stroke-linecap="round" stroke-linejoin="round" fill="none" stroke="#000000" d="M 188.65 636.97 L 209.44 636.97 "/>
<path transform="matrix(1,0,0,-1,0,841.5)" d="M 189.66 632.95 L 177.6 636.97 L 189.66 640.99 L 189.66 632.95 Z " fill-rule="evenodd"/>
<path transform="matrix(1,0,0,-1,0,841.5)" stroke-width="1.5" stroke-linecap="round" stroke-linejoin="round" fill="none" stroke="#000000" d="M 297.12 778.62 L 325.13 778.62 "/>
<path transform="matrix(1,0,0,-1,0,841.5)" d="M 324.13 782.64 L 336.19 778.62 L 324.13 774.6 L 324.13 782.64 Z " fill-rule="evenodd"/>
<path transform="matrix(1,0,0,-1,0,841.5)" stroke-width="1.5" stroke-linecap="round" stroke-linejoin="round" fill="none" stroke="#000000" d="M 377.57 778.57 L 398.91 778.57 "/>
<path transform="matrix(1,0,0,-1,0,841.5)" d="M 397.9 782.59 L 409.96 778.57 L 397.9 774.55 L 397.9 782.59 Z " fill-rule="evenodd"/>
<path transform="matrix(1,0,0,-1,0,841.5)" stroke-width="1.5" stroke-linecap="round" stroke-linejoin="round" fill="none" stroke="#000000" d="M 370.2 636.82 L 399.99 636.82 "/>
<path transform="matrix(1,0,0,-1,0,841.5)" d="M 398.98 640.84 L 411.04 636.82 L 398.98 632.8 L 398.98 640.84 Z " fill-rule="evenodd"/>
<path transform="matrix(1,0,0,-1,0,841.5)" stroke-width="1.5" stroke-linecap="round" stroke-linejoin="round" fill="none" stroke="#000000" d="M 296.94 637.41 L 326.72 637.41 "/>
<path transform="matrix(1,0,0,-1,0,841.5)" d="M 325.72 641.43 L 337.78 637.41 L 325.72 633.39 L 325.72 641.43 Z " fill-rule="evenodd"/>
<path transform="matrix(1,0,0,-1,0,841.5)" stroke-width="1.5" stroke-linecap="round" stroke-linejoin="round" fill="none" stroke="#000000" d="M 386.93 707.68 L 409.96 707.68 "/>
<path transform="matrix(1,0,0,-1,0,841.5)" d="M 387.93 703.66 L 375.87 707.68 L 387.93 711.7 L 387.93 703.66 Z " fill-rule="evenodd"/>
<path transform="matrix(1,0,0,-1,0,841.5)" stroke-width="1.5" stroke-linecap="round" stroke-linejoin="round" fill="none" stroke="#000000" d="M 308.18 707.73 L 319.18 707.73 "/>
<path transform="matrix(1,0,0,-1,0,841.5)" d="M 309.18 703.71 L 297.12 707.73 L 309.18 711.75 L 309.18 703.71 Z " fill-rule="evenodd"/>
<path transform="matrix(1,0,0,-1,0,841.5)" stroke-width="1.5" stroke-linecap="round" stroke-linejoin="round" fill="none" stroke="#000000" d="M 322.87 564.56 L 411.04 564.56 "/>
<path transform="matrix(1,0,0,-1,0,841.5)" d="M 323.87 560.54 L 311.81 564.56 L 323.87 568.58 L 323.87 560.54 Z " fill-rule="evenodd"/>
<path transform="matrix(1,0,0,-1,0,841.5)" stroke-width="1.5" stroke-linecap="round" stroke-linejoin="round" fill="none" stroke="#000000" d="M 187.27 564.56 L 261.07 564.56 "/>
<path transform="matrix(1,0,0,-1,0,841.5)" d="M 188.27 560.54 L 176.21 564.56 L 188.27 568.58 L 188.27 560.54 Z " fill-rule="evenodd"/>
</g>
</g>
</svg>
