<?xml version="1.0" encoding="UTF-8" standalone="no"?>
<!DOCTYPE svg PUBLIC "-//W3C//DTD SVG 1.1//EN" "http://www.w3.org/Graphics/SVG/1.1/DTD/svg11.dtd">
<svg xmlns="http://www.w3.org/2000/svg" xmlns:xlink="http://www.w3.org/1999/xlink" version="1.1" width="594.75pt" height="841.5pt" viewBox="0 0 594.75 841.5">
<g enable-background="new">
<g>
<path transform="matrix(1,0,0,-1,0,841.5)" d="M 314.53 296.91 L 372.529 296.91 L 372.529 322.057 L 314.53 322.057 Z " fill="#ffffff" fill-rule="evenodd"/>
<g id="Layer-1" data-name="P">
<clipPath id="cp414">
<path transform="matrix(1,0,0,-1,0,841.5)" d="M .000008862 0 L 594.75 0 L 594.75 841.5 L .000008862 841.5 Z " fill-rule="evenodd"/>
</clipPath>
<g clip-path="url(#cp414)">
<text xml:space="preserve" transform="matrix(1 0 -0 1 0 841.5)" font-size="11.275" font-family="ArialNarrow" font-weight="bold"><tspan y="-312.33" x="329.88 332.87916 338.1333 341.1212 344.12034 347.11949 352.36235 354.61735 360.60438 365.85853 368.85768">to freight </tspan></text>
</g>
</g>
<g id="Layer-1" data-name="P">
<clipPath id="cp415">
<path transform="matrix(1,0,0,-1,0,841.5)" d="M .000008862 0 L 594.75 0 L 594.75 841.5 L .000008862 841.5 Z " fill-rule="evenodd"/>
</clipPath>
<g clip-path="url(#cp415)">
<text xml:space="preserve" transform="matrix(1 0 -0 1 0 841.5)" font-size="11.25" font-family="ArialNarrow" font-weight="bold"><tspan y="-299.1" x="322.33 325.33375 330.5875 334.32249 341.07249 346.31498 350.04997 355.3037 360.5462 363.54997">forwarders</tspan></text>
</g>
</g>
<path transform="matrix(1,0,0,-1,0,841.5)" d="M 319.49 369.36 L 374.655 369.36 L 374.655 390.869 L 319.49 390.869 Z " fill="#ffffff" fill-rule="evenodd"/>
<g id="Layer-1" data-name="P">
<clipPath id="cp416">
<path transform="matrix(1,0,0,-1,0,841.5)" d="M .000008862 0 L 594.75 0 L 594.75 841.5 L .000008862 841.5 Z " fill-rule="evenodd"/>
</clipPath>
<g clip-path="url(#cp416)">
<text xml:space="preserve" transform="matrix(1 0 -0 1 0 841.5)" font-size="11.275" font-family="ArialNarrow" font-weight="bold"><tspan y="-383.03" x="333 338.25416 344.24119 349.49534 354.74949 359.99235 362.24736 365.2465 371.23353">goods to </tspan></text>
</g>
</g>
<g id="Layer-1" data-name="P">
<clipPath id="cp417">
<path transform="matrix(1,0,0,-1,0,841.5)" d="M .000008862 0 L 594.75 0 L 594.75 841.5 L .000008862 841.5 Z " fill-rule="evenodd"/>
</clipPath>
<g clip-path="url(#cp417)">
<text xml:space="preserve" transform="matrix(1 0 -0 1 0 841.5)" font-size="11.25" font-family="ArialNarrow" font-weight="bold"><tspan y="-369.8" x="323.95 330.7 335.9425 339.6775 344.1775 350.1625 355.41627 360.67 365.9125">warehouse</tspan></text>
</g>
</g>
<clipPath id="cp418">
<path transform="matrix(1,0,0,-1,0,841.5)" d="M -.000061035 841.5 L 594.75 841.5 L 594.75 .00012207 L -.000061035 .00012207 " fill-rule="evenodd"/>
</clipPath>
<g clip-path="url(#cp418)">
<path transform="matrix(1,0,0,-1,0,841.5)" stroke-width="1.5" stroke-linecap="round" stroke-linejoin="round" fill="none" stroke="#000000" d="M 277.89 450.77 L 319.01 450.6 "/>
</g>
<clipPath id="cp419">
<path transform="matrix(1,0,0,-1,0,841.5)" d="M -.000061035 841.5 L 594.75 841.5 L 594.75 .00012207 L -.000061035 .00012207 " fill-rule="evenodd"/>
</clipPath>
<g clip-path="url(#cp419)">
<path transform="matrix(1,0,0,-1,0,841.5)" d="M 318.02 454.62 L 330.06 450.55 L 317.99 446.58 L 318.02 454.62 Z " fill-rule="evenodd"/>
</g>
<path transform="matrix(1,0,0,-1,0,841.5)" stroke-width="1.5" stroke-linecap="round" stroke-linejoin="round" fill="none" stroke="#000000" d="M 287.18 379.86 L 328.7 379.86 "/>
<path transform="matrix(1,0,0,-1,0,841.5)" d="M 288.18 375.84 L 276.12 379.86 L 288.18 383.88 L 288.18 375.84 Z " fill-rule="evenodd"/>
<path transform="matrix(1,0,0,-1,0,841.5)" stroke-width="1.5" stroke-linecap="round" stroke-linejoin="round" fill="none" stroke="#000000" d="M 276.71 309.23 L 317.65 309.23 "/>
<path transform="matrix(1,0,0,-1,0,841.5)" d="M 316.64 313.25 L 328.7 309.23 L 316.64 305.21 L 316.64 313.25 Z " fill-rule="evenodd"/>
<path transform="matrix(1,0,0,-1,0,841.5)" stroke-width="1.5" stroke-linecap="round" stroke-linejoin="round" fill="none" stroke="#000000" d="M 212.23 309.78 L 247.18 309.78 "/>
<path transform="matrix(1,0,0,-1,0,841.5)" d="M 213.24 305.76 L 201.18 309.78 L 213.24 313.8 L 213.24 305.76 Z " fill-rule="evenodd"/>
<path transform="matrix(1,0,0,-1,0,841.5)" stroke-width="1.5" stroke-linecap="round" stroke-linejoin="round" fill="none" stroke="#000000" d="M 190.48 451.49 L 236.12 451.49 "/>
<path transform="matrix(1,0,0,-1,0,841.5)" d="M 235.12 455.51 L 247.18 451.49 L 235.12 447.47 L 235.12 455.51 Z " fill-rule="evenodd"/>
<path transform="matrix(1,0,0,-1,0,841.5)" d="M 161.84 438.22 L 212.864 438.22 L 212.864 461.914 L 161.84 461.914 Z " fill="#ffffff" fill-rule="evenodd"/>
<g id="Layer-1" data-name="P">
<clipPath id="cp420">
<path transform="matrix(1,0,0,-1,0,841.5)" d="M .000008862 0 L 594.75 0 L 594.75 841.5 L .000008862 841.5 Z " fill-rule="evenodd"/>
</clipPath>
<g clip-path="url(#cp420)">
<text xml:space="preserve" transform="matrix(1 0 -0 1 0 841.5)" font-size="11.275" font-family="ArialNarrow" font-weight="bold"><tspan y="-453.03" x="166.05 171.30416 177.31372 180.31287 185.55574 190.80989 196.05277 201.29564 205.79438">purchase </tspan></text>
</g>
</g>
<g id="Layer-1" data-name="P">
<clipPath id="cp421">
<path transform="matrix(1,0,0,-1,0,841.5)" d="M .000008862 0 L 594.75 0 L 594.75 841.5 L .000008862 841.5 Z " fill-rule="evenodd"/>
</clipPath>
<g clip-path="url(#cp421)">
<text xml:space="preserve" transform="matrix(1 0 -0 1 0 841.5)" font-size="11.25" font-family="ArialNarrow" font-weight="bold"><tspan y="-439.8" x="166.05 171.30374 175.03874 180.29248 185.53499 189.26999">orders</tspan></text>
</g>
</g>
<path transform="matrix(1,0,0,-1,0,841.5)" d="M 161.84 297.57 L 201.17499 297.57 L 201.17499 322.717 L 161.84 322.717 Z " fill="#ffffff" fill-rule="evenodd"/>
<g id="Layer-1" data-name="P">
<clipPath id="cp422">
<path transform="matrix(1,0,0,-1,0,841.5)" d="M .000008862 0 L 594.75 0 L 594.75 841.5 L .000008862 841.5 Z " fill-rule="evenodd"/>
</clipPath>
<g clip-path="url(#cp422)">
<text xml:space="preserve" transform="matrix(1 0 -0 1 0 841.5)" font-size="11.25" font-family="ArialNarrow" font-weight="bold"><tspan y="-312.98" x="166.05 174.31876 178.81876 184.06127">mess</tspan></text>
</g>
</g>
<g id="Layer-1" data-name="P">
<clipPath id="cp423">
<path transform="matrix(1,0,0,-1,0,841.5)" d="M .000008862 0 L 594.75 0 L 594.75 841.5 L .000008862 841.5 Z " fill-rule="evenodd"/>
</clipPath>
<g clip-path="url(#cp423)">
<text xml:space="preserve" transform="matrix(1 0 -0 1 0 841.5)" font-size="11.25" font-family="ArialNarrow" font-weight="bold"><tspan y="-312.98" x="189.15">-</tspan></text>
</g>
</g>
<g id="Layer-1" data-name="P">
<clipPath id="cp424">
<path transform="matrix(1,0,0,-1,0,841.5)" d="M .000008862 0 L 594.75 0 L 594.75 841.5 L .000008862 841.5 Z " fill-rule="evenodd"/>
</clipPath>
<g clip-path="url(#cp424)">
<text xml:space="preserve" transform="matrix(1 0 -0 1 0 841.5)" font-size="11.275" font-family="ArialNarrow" font-weight="bold"><tspan y="-299.78" x="166.05 171.29288 176.54703 181.7899">ages</tspan></text>
</g>
</g>
<path transform="matrix(1,0,0,-1,0,841.5)" d="M 330.06 438.72 L 376.123 438.72 L 376.123 463.867 L 330.06 463.867 Z " fill="#ffffff" fill-rule="evenodd"/>
<g id="Layer-1" data-name="P">
<clipPath id="cp425">
<path transform="matrix(1,0,0,-1,0,841.5)" d="M .000008862 0 L 594.75 0 L 594.75 841.5 L .000008862 841.5 Z " fill-rule="evenodd"/>
</clipPath>
<g clip-path="url(#cp425)">
<text xml:space="preserve" transform="matrix(1 0 -0 1 0 841.5)" font-size="11.25" font-family="ArialNarrow" font-weight="bold"><tspan y="-454.25" x="337.48 342.7225 347.97627 353.23 359.21504 361.46504 363.71504 368.95753 372.6925">supplier </tspan></text>
</g>
</g>
<g id="Layer-1" data-name="P">
<clipPath id="cp426">
<path transform="matrix(1,0,0,-1,0,841.5)" d="M .000008862 0 L 594.75 0 L 594.75 841.5 L .000008862 841.5 Z " fill-rule="evenodd"/>
</clipPath>
<g clip-path="url(#cp426)">
<text xml:space="preserve" transform="matrix(1 0 -0 1 0 841.5)" font-size="11.275" font-family="ArialNarrow" font-weight="bold"><tspan y="-441.05" x="344.5 349.75416 353.49745 358.7516 363.99446 367.73774">orders</tspan></text>
</g>
</g>
<clipPath id="cp427">
<path transform="matrix(1,0,0,-1,0,841.5)" d="M -.000030518 841.5 L 594.75 841.5 L 594.75 .00012207 L -.000030518 .00012207 " fill-rule="evenodd"/>
</clipPath>
<g clip-path="url(#cp427)">
<path transform="matrix(1,0,0,-1,0,841.5)" stroke-width="1.5" stroke-linecap="round" stroke-linejoin="round" fill="none" stroke="#000000" d="M 138.5 448.4 L 149.23 448.59 "/>
</g>
<clipPath id="cp428">
<path transform="matrix(1,0,0,-1,0,841.5)" d="M -.000030518 841.5 L 594.75 841.5 L 594.75 .00012207 L -.000030518 .00012207 " fill-rule="evenodd"/>
</clipPath>
<g clip-path="url(#cp428)">
<path transform="matrix(1,0,0,-1,0,841.5)" d="M 148.16 452.59 L 160.28 448.78 L 148.29 444.55 L 148.16 452.59 Z " fill-rule="evenodd"/>
</g>
<path transform="matrix(1,0,0,-1,0,841.5)" stroke-width="1.5" stroke-linecap="round" stroke-linejoin="round" fill="none" stroke="#000000" d="M 151.32 307.16 L 161.81 307.16 "/>
<path transform="matrix(1,0,0,-1,0,841.5)" d="M 152.32 303.14 L 140.26 307.16 L 152.32 311.18 L 152.32 303.14 Z " fill-rule="evenodd"/>
<path transform="matrix(1,0,0,-1,0,841.5)" stroke-width="1.5" stroke-linecap="round" stroke-linejoin="round" fill="none" stroke="#000000" d="M 151.32 236.73 L 257.9 236.73 "/>
<path transform="matrix(1,0,0,-1,0,841.5)" d="M 152.32 232.71 L 140.26 236.73 L 152.32 240.75 L 152.32 232.71 Z " fill-rule="evenodd"/>
<path transform="matrix(1,0,0,-1,0,841.5)" d="M 233.93 225.76 L 296.507 225.76 L 296.507 250.907 L 233.93 250.907 Z " fill="#ffffff" fill-rule="evenodd"/>
<g id="Layer-1" data-name="P">
<clipPath id="cp429">
<path transform="matrix(1,0,0,-1,0,841.5)" d="M .000008862 0 L 594.75 0 L 594.75 841.5 L .000008862 841.5 Z " fill-rule="evenodd"/>
</clipPath>
<g clip-path="url(#cp429)">
<text xml:space="preserve" transform="matrix(1 0 -0 1 0 841.5)" font-size="11.275" font-family="ArialNarrow" font-weight="bold"><tspan y="-234.5" x="244.73 249.98415 255.22702 257.48204 260.4699 264.96864 270.2115 273.95478 276.20979 281.45265">deliveries</tspan></text>
</g>
</g>
<path transform="matrix(1,0,0,-1,0,841.5)" stroke-width="1.5" stroke-linecap="round" stroke-linejoin="round" fill="none" stroke="#000000" d="M 310.64 236.73 L 397.21 236.73 "/>
<path transform="matrix(1,0,0,-1,0,841.5)" d="M 311.64 232.71 L 299.58 236.73 L 311.64 240.75 L 311.64 232.71 Z " fill-rule="evenodd"/>
<path transform="matrix(1,0,0,-1,0,841.5)" stroke-width="1.5" stroke-linecap="round" stroke-linejoin="round" fill="none" stroke="#000000" d="M 369.7 308.61 L 386.44 308.61 "/>
<path transform="matrix(1,0,0,-1,0,841.5)" d="M 385.44 312.63 L 397.5 308.61 L 385.44 304.59 L 385.44 312.63 Z " fill-rule="evenodd"/>
<path transform="matrix(1,0,0,-1,0,841.5)" stroke-width="1.5" stroke-linecap="round" stroke-linejoin="round" fill="none" stroke="#000000" d="M 363.7 451.2 L 382.71 451.2 "/>
<path transform="matrix(1,0,0,-1,0,841.5)" d="M 381.71 455.22 L 393.77 451.2 L 381.71 447.18 L 381.71 455.22 Z " fill-rule="evenodd"/>
<path transform="matrix(1,0,0,-1,0,841.5)" stroke-width="1.5" stroke-linecap="round" stroke-linejoin="round" fill="none" stroke="#000000" d="M 380.97 380.05 L 394.03 380.05 "/>
<path transform="matrix(1,0,0,-1,0,841.5)" d="M 381.98 376.03 L 369.92 380.05 L 381.98 384.07 L 381.98 376.03 Z " fill-rule="evenodd"/>
<path transform="matrix(1,0,0,-1,0,841.5)" stroke-width=".75" stroke-linecap="round" stroke-linejoin="round" fill="none" stroke="#000000" d="M 246.85 290.73 L 275.196 290.73 L 275.196 461.45 L 246.85 461.45 Z "/>
<g id="Layer-1" data-name="P">
<clipPath id="cp430">
<path transform="matrix(1,0,0,-1,0,841.5)" d="M .000008862 0 L 594.75 0 L 594.75 841.5 L .000008862 841.5 Z " fill-rule="evenodd"/>
</clipPath>
<g clip-path="url(#cp430)">
<text xml:space="preserve" transform="matrix(1 0 -0 1 0 841.5)" font-size="11.275" font-family="ArialNarrow" font-weight="bold" font-style="italic"><tspan y="-409.9" x="245.25 248.9933 253.49204 256.49119 261.73405 263.98905 266.97694 271.47566">retailer</tspan></text>
</g>
</g>
<path transform="matrix(1,0,0,-1,0,841.5)" d="M 111.92 220.58 L 140.26599 220.58 L 140.26599 462.64 L 111.92 462.64 Z " fill="#ffffff" fill-rule="evenodd"/>
<path transform="matrix(1,0,0,-1,0,841.5)" stroke-width=".75" stroke-linecap="round" stroke-linejoin="round" fill="none" stroke="#000000" d="M 111.92 220.58 L 140.26599 220.58 L 140.26599 462.64 L 111.92 462.64 Z "/>
<clipPath id="cp431">
<path transform="matrix(1,0,0,-1,0,841.5)" d="M -.000015259 841.5 L 594.75 841.5 L 594.75 .00024414 L -.000022888 .00018311 " fill-rule="evenodd"/>
</clipPath>
<g clip-path="url(#cp431)">
<path transform="matrix(1,0,0,-1,0,841.5)" stroke-width="1.5" stroke-linecap="round" stroke-linejoin="round" fill="none" stroke="#000000" d="M 96.331 234.95 L 111.04 235.22 "/>
</g>
<clipPath id="cp432">
<path transform="matrix(1,0,0,-1,0,841.5)" d="M -.000015259 841.5 L 594.75 841.5 L 594.75 .00024414 L -.000022888 .00018311 " fill-rule="evenodd"/>
</clipPath>
<g clip-path="url(#cp432)">
<path transform="matrix(1,0,0,-1,0,841.5)" d="M 97.412 230.95 L 85.278 234.74 L 97.26 238.98 L 97.412 230.95 Z " fill-rule="evenodd"/>
</g>
<clipPath id="cp433">
<path transform="matrix(1,0,0,-1,0,841.5)" d="M -.000022888 841.5 L 594.75 841.5 L 594.75 .00012207 L -.000030518 .000061035 " fill-rule="evenodd"/>
</clipPath>
<g clip-path="url(#cp433)">
<path transform="matrix(1,0,0,-1,0,841.5)" stroke-width="1.5" stroke-linecap="round" stroke-linejoin="round" fill="none" stroke="#000000" d="M 89.546 448.68 L 100.6 448.69 "/>
</g>
<clipPath id="cp434">
<path transform="matrix(1,0,0,-1,0,841.5)" d="M -.000022888 841.5 L 594.75 841.5 L 594.75 .00012207 L -.000030518 .000061035 " fill-rule="evenodd"/>
</clipPath>
<g clip-path="url(#cp434)">
<path transform="matrix(1,0,0,-1,0,841.5)" d="M 99.594 452.71 L 111.66 448.7 L 99.601 444.67 L 99.594 452.71 Z " fill-rule="evenodd"/>
</g>
<path transform="matrix(1,0,0,-1,0,841.5)" d="M 28.585 437.43 L 88.679 437.43 L 88.679 461.124 L 28.585 461.124 Z " fill="#ffffff" fill-rule="evenodd"/>
<g id="Layer-1" data-name="P">
<clipPath id="cp435">
<path transform="matrix(1,0,0,-1,0,841.5)" d="M .000008862 0 L 594.75 0 L 594.75 841.5 L .000008862 841.5 Z " fill-rule="evenodd"/>
</clipPath>
<g clip-path="url(#cp435)">
<text xml:space="preserve" transform="matrix(1 0 -0 1 0 841.5)" font-size="11.25" font-family="ArialNarrow" font-weight="bold"><tspan y="-452.23" x="45.15 50.40375 54.138753 59.3925 64.635 68.37 73.62376 78.87751 84.86251">orderung </tspan></text>
</g>
</g>
<g id="Layer-1" data-name="P">
<clipPath id="cp436">
<path transform="matrix(1,0,0,-1,0,841.5)" d="M .000008862 0 L 594.75 0 L 594.75 841.5 L .000008862 841.5 Z " fill-rule="evenodd"/>
</clipPath>
<g clip-path="url(#cp436)">
<text xml:space="preserve" transform="matrix(1 0 -0 1 0 841.5)" font-size="11.25" font-family="ArialNarrow" font-weight="bold"><tspan y="-439.02" x="39.125 44.3675 49.62125 54.86375 57.8675 63.12125 71.356258 75.856258 79.591259">customers</tspan></text>
</g>
</g>
<path transform="matrix(1,0,0,-1,0,841.5)" d="M 34.255 222.65 L 85.279 222.65 L 85.279 247.797 L 34.255 247.797 Z " fill="#ffffff" fill-rule="evenodd"/>
<g id="Layer-1" data-name="P">
<clipPath id="cp437">
<path transform="matrix(1,0,0,-1,0,841.5)" d="M .000008862 0 L 594.75 0 L 594.75 841.5 L .000008862 841.5 Z " fill-rule="evenodd"/>
</clipPath>
<g clip-path="url(#cp437)">
<text xml:space="preserve" transform="matrix(1 0 -0 1 0 841.5)" font-size="11.25" font-family="ArialNarrow" font-weight="bold"><tspan y="-244.6" x="42.225 47.4675 51.9675 57.21 62.4525 67.70625 70.71001 75.95251 81.20626">accepted </tspan></text>
</g>
</g>
<g id="Layer-1" data-name="P">
<clipPath id="cp438">
<path transform="matrix(1,0,0,-1,0,841.5)" d="M .000008862 0 L 594.75 0 L 594.75 841.5 L .000008862 841.5 Z " fill-rule="evenodd"/>
</clipPath>
<g clip-path="url(#cp438)">
<text xml:space="preserve" transform="matrix(1 0 -0 1 0 841.5)" font-size="11.25" font-family="ArialNarrow" font-weight="bold"><tspan y="-231.38" x="52.25 57.52625 62.79125 68.05625 71.082508 76.3475 78.62 81.635">overall </tspan></text>
</g>
</g>
<g id="Layer-1" data-name="P">
<clipPath id="cp439">
<path transform="matrix(1,0,0,-1,0,841.5)" d="M .000008862 0 L 594.75 0 L 594.75 841.5 L .000008862 841.5 Z " fill-rule="evenodd"/>
</clipPath>
<g clip-path="url(#cp439)">
<text xml:space="preserve" transform="matrix(1 0 -0 1 0 841.5)" font-size="11.25" font-family="ArialNarrow" font-weight="bold"><tspan y="-218.18" x="47.25 52.50375 57.74625 59.99625 62.98875 67.488758 72.731258 76.466259">delivery</tspan></text>
</g>
</g>
<path transform="matrix(1,0,0,-1,0,841.5)" d="M 111.92 220.58 L 140.26599 220.58 L 140.26599 462.64 L 111.92 462.64 Z " fill="#ffffff" fill-rule="evenodd"/>
<path transform="matrix(1,0,0,-1,0,841.5)" stroke-width=".75" stroke-linecap="round" stroke-linejoin="round" fill="none" stroke="#000000" d="M 111.92 220.58 L 140.26599 220.58 L 140.26599 462.64 L 111.92 462.64 Z "/>
<clipPath id="cp440">
<path transform="matrix(1,0,0,-1,0,841.5)" d="M -.000015259 841.5 L 594.75 841.5 L 594.75 .00024414 L -.000022888 .00018311 " fill-rule="evenodd"/>
</clipPath>
<g clip-path="url(#cp440)">
<path transform="matrix(1,0,0,-1,0,841.5)" stroke-width="1.5" stroke-linecap="round" stroke-linejoin="round" fill="none" stroke="#000000" d="M 96.331 234.95 L 111.04 235.22 "/>
</g>
<clipPath id="cp441">
<path transform="matrix(1,0,0,-1,0,841.5)" d="M -.000015259 841.5 L 594.75 841.5 L 594.75 .00024414 L -.000022888 .00018311 " fill-rule="evenodd"/>
</clipPath>
<g clip-path="url(#cp441)">
<path transform="matrix(1,0,0,-1,0,841.5)" d="M 97.412 230.95 L 85.278 234.74 L 97.26 238.98 L 97.412 230.95 Z " fill-rule="evenodd"/>
</g>
<clipPath id="cp442">
<path transform="matrix(1,0,0,-1,0,841.5)" d="M -.000022888 841.5 L 594.75 841.5 L 594.75 .00012207 L -.000030518 .000061035 " fill-rule="evenodd"/>
</clipPath>
<g clip-path="url(#cp442)">
<path transform="matrix(1,0,0,-1,0,841.5)" stroke-width="1.5" stroke-linecap="round" stroke-linejoin="round" fill="none" stroke="#000000" d="M 89.546 448.68 L 100.6 448.69 "/>
</g>
<clipPath id="cp443">
<path transform="matrix(1,0,0,-1,0,841.5)" d="M -.000022888 841.5 L 594.75 841.5 L 594.75 .00012207 L -.000030518 .000061035 " fill-rule="evenodd"/>
</clipPath>
<g clip-path="url(#cp443)">
<path transform="matrix(1,0,0,-1,0,841.5)" d="M 99.594 452.71 L 111.66 448.7 L 99.601 444.67 L 99.594 452.71 Z " fill-rule="evenodd"/>
</g>
<path transform="matrix(1,0,0,-1,0,841.5)" d="M 28.585 437.43 L 88.679 437.43 L 88.679 461.124 L 28.585 461.124 Z " fill="#ffffff" fill-rule="evenodd"/>
<g id="Layer-1" data-name="P">
<clipPath id="cp444">
<path transform="matrix(1,0,0,-1,0,841.5)" d="M .000008862 0 L 594.75 0 L 594.75 841.5 L .000008862 841.5 Z " fill-rule="evenodd"/>
</clipPath>
<g clip-path="url(#cp444)">
<text xml:space="preserve" transform="matrix(1 0 -0 1 0 841.5)" font-size="11.25" font-family="ArialNarrow" font-weight="bold"><tspan y="-452.23" x="45.15 50.40375 54.138753 59.3925 64.635 68.37 73.62376 78.87751 84.86251">orderung </tspan></text>
</g>
</g>
<g id="Layer-1" data-name="P">
<clipPath id="cp445">
<path transform="matrix(1,0,0,-1,0,841.5)" d="M .000008862 0 L 594.75 0 L 594.75 841.5 L .000008862 841.5 Z " fill-rule="evenodd"/>
</clipPath>
<g clip-path="url(#cp445)">
<text xml:space="preserve" transform="matrix(1 0 -0 1 0 841.5)" font-size="11.25" font-family="ArialNarrow" font-weight="bold"><tspan y="-439.02" x="39.125 44.3675 49.62125 54.86375 57.8675 63.12125 71.356258 75.856258 79.591259">customers</tspan></text>
</g>
</g>
<path transform="matrix(1,0,0,-1,0,841.5)" d="M 34.255 222.65 L 85.279 222.65 L 85.279 247.797 L 34.255 247.797 Z " fill="#ffffff" fill-rule="evenodd"/>
<g id="Layer-1" data-name="P">
<clipPath id="cp446">
<path transform="matrix(1,0,0,-1,0,841.5)" d="M .000008862 0 L 594.75 0 L 594.75 841.5 L .000008862 841.5 Z " fill-rule="evenodd"/>
</clipPath>
<g clip-path="url(#cp446)">
<text xml:space="preserve" transform="matrix(1 0 -0 1 0 841.5)" font-size="11.25" font-family="ArialNarrow" font-weight="bold"><tspan y="-244.6" x="42.225 47.4675 51.9675 57.21 62.4525 67.70625 70.71001 75.95251 81.20626">accepted </tspan></text>
</g>
</g>
<g id="Layer-1" data-name="P">
<clipPath id="cp447">
<path transform="matrix(1,0,0,-1,0,841.5)" d="M .000008862 0 L 594.75 0 L 594.75 841.5 L .000008862 841.5 Z " fill-rule="evenodd"/>
</clipPath>
<g clip-path="url(#cp447)">
<text xml:space="preserve" transform="matrix(1 0 -0 1 0 841.5)" font-size="11.25" font-family="ArialNarrow" font-weight="bold"><tspan y="-231.38" x="52.25 57.52625 62.79125 68.05625 71.082508 76.3475 78.62 81.635">overall </tspan></text>
</g>
</g>
<g id="Layer-1" data-name="P">
<clipPath id="cp448">
<path transform="matrix(1,0,0,-1,0,841.5)" d="M .000008862 0 L 594.75 0 L 594.75 841.5 L .000008862 841.5 Z " fill-rule="evenodd"/>
</clipPath>
<g clip-path="url(#cp448)">
<text xml:space="preserve" transform="matrix(1 0 -0 1 0 841.5)" font-size="11.25" font-family="ArialNarrow" font-weight="bold"><tspan y="-218.18" x="47.25 52.50375 57.74625 59.99625 62.98875 67.488758 72.731258 76.466259">delivery</tspan></text>
</g>
</g>
<g id="Layer-1" data-name="P">
<clipPath id="cp449">
<path transform="matrix(1,0,0,-1,0,841.5)" d="M .000008862 0 L 594.75 0 L 594.75 841.5 L .000008862 841.5 Z " fill-rule="evenodd"/>
</clipPath>
<g clip-path="url(#cp449)">
<text xml:space="preserve" transform="matrix(1 0 -0 1 0 841.5)" font-size="11.25" font-family="ArialNarrow" font-weight="bold" font-style="italic"><tspan y="-389.85" x="102.52 107.784999 113.06125 118.32625 121.33 126.606258 134.87502 139.39752 143.16626">customers</tspan></text>
</g>
</g>
<path transform="matrix(1,0,0,-1,0,841.5)" stroke-width=".75" stroke-linecap="round" stroke-linejoin="round" fill="none" stroke="#000000" d="M 394.64 206.68 L 422.98603 206.68 L 422.98603 461.8 L 394.64 461.8 Z "/>
<g id="Layer-1" data-name="P">
<clipPath id="cp450">
<path transform="matrix(1,0,0,-1,0,841.5)" d="M .000008862 0 L 594.75 0 L 594.75 841.5 L .000008862 841.5 Z " fill-rule="evenodd"/>
</clipPath>
<g clip-path="url(#cp450)">
<text xml:space="preserve" transform="matrix(1 0 -0 1 0 841.5)" font-size="11.25" font-family="ArialNarrow" font-weight="bold" font-style="italic"><tspan y="-354.7" x="390.08 393.10624 395.37873 400.64375 405.92 411.93879 417.21507 419.48756 422.50257 427.02507 430.7938">[ supplier </tspan></text>
</g>
</g>
<clipPath id="cp451">
<path transform="matrix(1,0,0,-1,0,841.5)" d="M .000008862 0 L 594.75 0 L 594.75 841.5 L .000008862 841.5 Z " fill-rule="evenodd"/>
</clipPath>
<g clip-path="url(#cp451)">
<text xml:space="preserve" transform="matrix(1 0 -0 1 0 841.5)" font-size="11.275" font-family="Calibri"><tspan y="-341.25" x="392.38 397.62995">&#x2022; </tspan></text>
</g>
<g id="Layer-1" data-name="P">
<clipPath id="cp452">
<path transform="matrix(1,0,0,-1,0,841.5)" d="M .000008862 0 L 594.75 0 L 594.75 841.5 L .000008862 841.5 Z " fill-rule="evenodd"/>
</clipPath>
<g clip-path="url(#cp452)">
<text xml:space="preserve" transform="matrix(1 0 -0 1 0 841.5)" font-size="11.275" font-family="ArialNarrow" font-weight="bold" font-style="italic"><tspan y="-341.25" x="400.35 403.34916 407.09245 411.59117 414.57905 419.8332 425.08735 428.0865">freight </tspan></text>
</g>
</g>
<g id="Layer-1" data-name="P">
<clipPath id="cp453">
<path transform="matrix(1,0,0,-1,0,841.5)" d="M .000008862 0 L 594.75 0 L 594.75 841.5 L .000008862 841.5 Z " fill-rule="evenodd"/>
</clipPath>
<g clip-path="url(#cp453)">
<text xml:space="preserve" transform="matrix(1 0 -0 1 0 841.5)" font-size="11.275" font-family="ArialNarrow" font-weight="bold" font-style="italic"><tspan y="-327.95" x="395.1 398.09916 403.37586 407.1417 413.91798 419.18339">forwar</tspan></text>
</g>
</g>
<g id="Layer-1" data-name="P">
<clipPath id="cp454">
<path transform="matrix(1,0,0,-1,0,841.5)" d="M .000008862 0 L 594.75 0 L 594.75 841.5 L .000008862 841.5 Z " fill-rule="evenodd"/>
</clipPath>
<g clip-path="url(#cp454)">
<text xml:space="preserve" transform="matrix(1 0 -0 1 0 841.5)" font-size="11.275" font-family="ArialNarrow" font-weight="bold" font-style="italic"><tspan y="-327.95" x="422.7">-</tspan></text>
</g>
</g>
<g id="Layer-1" data-name="P">
<clipPath id="cp455">
<path transform="matrix(1,0,0,-1,0,841.5)" d="M .000008862 0 L 594.75 0 L 594.75 841.5 L .000008862 841.5 Z " fill-rule="evenodd"/>
</clipPath>
<g clip-path="url(#cp455)">
<text xml:space="preserve" transform="matrix(1 0 -0 1 0 841.5)" font-size="11.25" font-family="ArialNarrow" font-weight="bold" font-style="italic"><tspan y="-314.72" x="398.13 403.38377 408.62626 412.36125 416.86125">ders </tspan></text>
</g>
</g>
<g id="Layer-1" data-name="P">
<clipPath id="cp456">
<path transform="matrix(1,0,0,-1,0,841.5)" d="M .000008862 0 L 594.75 0 L 594.75 841.5 L .000008862 841.5 Z " fill-rule="evenodd"/>
</clipPath>
<g clip-path="url(#cp456)">
<text xml:space="preserve" transform="matrix(1 0 -0 1 0 841.5)" font-size="11.25" font-family="ArialNarrow" font-weight="bold" font-style="italic"><tspan y="-314.72" x="419.7">]</tspan></text>
</g>
</g>
</g>
</g>
</svg>
