<?xml version="1.0" encoding="UTF-8" standalone="no"?>
<!DOCTYPE svg PUBLIC "-//W3C//DTD SVG 1.1//EN" "http://www.w3.org/Graphics/SVG/1.1/DTD/svg11.dtd">
<svg xmlns="http://www.w3.org/2000/svg" xmlns:xlink="http://www.w3.org/1999/xlink" version="1.1" width="1154.25pt" height="841.5pt" viewBox="0 0 1154.25 841.5">
<g enable-background="new">
<g>
<path transform="matrix(1,0,0,-1,0,841.5)" d="M 638.29 323.44 L 696.289 323.44 L 696.289 348.587 L 638.29 348.587 Z " fill="#ffffff" fill-rule="evenodd"/>
<g id="Layer-1" data-name="P">
<clipPath id="cp238">
<path transform="matrix(1,0,0,-1,0,841.5)" d="M .0000172 0 L 1154.25 0 L 1154.25 841.5 L .0000172 841.5 Z " fill-rule="evenodd"/>
</clipPath>
<g clip-path="url(#cp238)">
<text xml:space="preserve" transform="matrix(1 0 -0 1 0 841.5)" font-size="11.275" font-family="ArialNarrow" font-weight="bold"><tspan y="-338.88" x="653.63 656.62918 661.8833 664.87118 667.8703 670.86947 676.11239 678.3674 684.35446 689.6086 692.6077">to freight </tspan></text>
</g>
</g>
<g id="Layer-1" data-name="P">
<clipPath id="cp239">
<path transform="matrix(1,0,0,-1,0,841.5)" d="M .0000172 0 L 1154.25 0 L 1154.25 841.5 L .0000172 841.5 Z " fill-rule="evenodd"/>
</clipPath>
<g clip-path="url(#cp239)">
<text xml:space="preserve" transform="matrix(1 0 -0 1 0 841.5)" font-size="11.25" font-family="ArialNarrow" font-weight="bold"><tspan y="-325.65" x="646.1 649.1037 654.3574 658.0924 664.8424 670.0849 673.8199 679.0736 684.3161 687.3198">forwarders</tspan></text>
</g>
</g>
<path transform="matrix(1,0,0,-1,0,841.5)" d="M 643.25 395.89 L 698.415 395.89 L 698.415 417.39903 L 643.25 417.39903 Z " fill="#ffffff" fill-rule="evenodd"/>
<g id="Layer-1" data-name="P">
<clipPath id="cp240">
<path transform="matrix(1,0,0,-1,0,841.5)" d="M .0000172 0 L 1154.25 0 L 1154.25 841.5 L .0000172 841.5 Z " fill-rule="evenodd"/>
</clipPath>
<g clip-path="url(#cp240)">
<text xml:space="preserve" transform="matrix(1 0 -0 1 0 841.5)" font-size="11.275" font-family="ArialNarrow" font-weight="bold"><tspan y="-409.58" x="656.75 662.02676 668.0363 673.31307 678.5898 683.8552 686.1102 689.1094 695.11898">goods to </tspan></text>
</g>
</g>
<g id="Layer-1" data-name="P">
<clipPath id="cp241">
<path transform="matrix(1,0,0,-1,0,841.5)" d="M .0000172 0 L 1154.25 0 L 1154.25 841.5 L .0000172 841.5 Z " fill-rule="evenodd"/>
</clipPath>
<g clip-path="url(#cp241)">
<text xml:space="preserve" transform="matrix(1 0 -0 1 0 841.5)" font-size="11.25" font-family="ArialNarrow" font-weight="bold"><tspan y="-396.35" x="647.7 654.4725 659.7375 663.5062 668.02877 674.0475 679.3237 684.6 689.865">warehouse</tspan></text>
</g>
</g>
<clipPath id="cp242">
<path transform="matrix(1,0,0,-1,0,841.5)" d="M -.000030518 841.5 L 1154.25 841.5 L 1154.25 .00018311 L -.000091553 .00018311 " fill-rule="evenodd"/>
</clipPath>
<g clip-path="url(#cp242)">
<path transform="matrix(1,0,0,-1,0,841.5)" stroke-width="1.5" stroke-linecap="round" stroke-linejoin="round" fill="none" stroke="#000000" d="M 454.13 477.93 L 642.77 477.13 "/>
</g>
<clipPath id="cp243">
<path transform="matrix(1,0,0,-1,0,841.5)" d="M -.000030518 841.5 L 1154.25 841.5 L 1154.25 .00018311 L -.000091553 .00018311 " fill-rule="evenodd"/>
</clipPath>
<g clip-path="url(#cp243)">
<path transform="matrix(1,0,0,-1,0,841.5)" d="M 641.78 481.16 L 653.82 477.08 L 641.75 473.12 L 641.78 481.16 Z " fill-rule="evenodd"/>
</g>
<path transform="matrix(1,0,0,-1,0,841.5)" stroke-width="1.5" stroke-linecap="round" stroke-linejoin="round" fill="none" stroke="#000000" d="M 610.94 406.39 L 652.46 406.39 "/>
<path transform="matrix(1,0,0,-1,0,841.5)" d="M 611.94 402.37 L 599.88 406.39 L 611.94 410.41 L 611.94 402.37 Z " fill-rule="evenodd"/>
<path transform="matrix(1,0,0,-1,0,841.5)" stroke-width="1.5" stroke-linecap="round" stroke-linejoin="round" fill="none" stroke="#000000" d="M 600.47 335.76 L 641.41 335.76 "/>
<path transform="matrix(1,0,0,-1,0,841.5)" d="M 640.4 339.78 L 652.46 335.76 L 640.4 331.74 L 640.4 339.78 Z " fill-rule="evenodd"/>
<g id="Layer-1" data-name="P">
<clipPath id="cp244">
<path transform="matrix(1,0,0,-1,0,841.5)" d="M .0000172 0 L 1154.25 0 L 1154.25 841.5 L .0000172 841.5 Z " fill-rule="evenodd"/>
</clipPath>
<g clip-path="url(#cp244)">
<text xml:space="preserve" transform="matrix(1 0 -0 1 0 841.5)" font-size="12" font-family="ArialNarrow" font-weight="bold" font-style="italic"><tspan y="-388.65" x="572.73 580.23 586.21798 589.962">ware</tspan></text>
</g>
</g>
<g id="Layer-1" data-name="P">
<clipPath id="cp245">
<path transform="matrix(1,0,0,-1,0,841.5)" d="M .0000172 0 L 1154.25 0 L 1154.25 841.5 L .0000172 841.5 Z " fill-rule="evenodd"/>
</clipPath>
<g clip-path="url(#cp245)">
<text xml:space="preserve" transform="matrix(1 0 -0 1 0 841.5)" font-size="12" font-family="ArialNarrow" font-weight="bold" font-style="italic"><tspan y="-388.65" x="595.17">-</tspan></text>
</g>
</g>
<g id="Layer-1" data-name="P">
<clipPath id="cp246">
<path transform="matrix(1,0,0,-1,0,841.5)" d="M .0000172 0 L 1154.25 0 L 1154.25 841.5 L .0000172 841.5 Z " fill-rule="evenodd"/>
</clipPath>
<g clip-path="url(#cp246)">
<text xml:space="preserve" transform="matrix(1 0 -0 1 0 841.5)" font-size="12" font-family="ArialNarrow" font-weight="bold" font-style="italic"><tspan y="-388.65" x="598.45"> </tspan></text>
</g>
</g>
<g id="Layer-1" data-name="P">
<clipPath id="cp247">
<path transform="matrix(1,0,0,-1,0,841.5)" d="M .0000172 0 L 1154.25 0 L 1154.25 841.5 L .0000172 841.5 Z " fill-rule="evenodd"/>
</clipPath>
<g clip-path="url(#cp247)">
<text xml:space="preserve" transform="matrix(1 0 -0 1 0 841.5)" font-size="12" font-family="ArialNarrow" font-weight="bold" font-style="italic"><tspan y="-374.25" x="571.1 577.112 583.124 589.10006 594.344">house</tspan></text>
</g>
</g>
<path transform="matrix(1,0,0,-1,0,841.5)" stroke-width="1.5" stroke-linecap="round" stroke-linejoin="round" fill="none" stroke="#000000" d="M 386.01 478.01 L 413.65 478.01 "/>
<path transform="matrix(1,0,0,-1,0,841.5)" d="M 412.65 482.03 L 424.71 478.01 L 412.65 473.99 L 412.65 482.03 Z " fill-rule="evenodd"/>
<path transform="matrix(1,0,0,-1,0,841.5)" stroke-width="1.5" stroke-linecap="round" stroke-linejoin="round" fill="none" stroke="#000000" d="M 409.81 407.12 L 424.71 407.12 "/>
<path transform="matrix(1,0,0,-1,0,841.5)" d="M 410.82 403.1 L 398.76 407.12 L 410.82 411.14 L 410.82 403.1 Z " fill-rule="evenodd"/>
<path transform="matrix(1,0,0,-1,0,841.5)" stroke-width=".75" stroke-linecap="round" stroke-linejoin="round" fill="none" stroke="#000000" d="M 425.79 391.55 L 454.13603 391.55 L 454.13603 491.47099 L 425.79 491.47099 Z "/>
<g id="Layer-1" data-name="P">
<clipPath id="cp248">
<path transform="matrix(1,0,0,-1,0,841.5)" d="M .0000172 0 L 1154.25 0 L 1154.25 841.5 L .0000172 841.5 Z " fill-rule="evenodd"/>
</clipPath>
<g clip-path="url(#cp248)">
<text xml:space="preserve" transform="matrix(1 0 -0 1 0 841.5)" font-size="12.025" font-family="ArialNarrow" font-weight="bold" font-style="italic"><tspan y="-453.7" x="416.67 419.65223 425.67677 430.90763 436.16255 442.18708 445.9028 451.92735 455.6551 460.91">inventory </tspan></text>
</g>
</g>
<g id="Layer-1" data-name="P">
<clipPath id="cp249">
<path transform="matrix(1,0,0,-1,0,841.5)" d="M .0000172 0 L 1154.25 0 L 1154.25 841.5 L .0000172 841.5 Z " fill-rule="evenodd"/>
</clipPath>
<g clip-path="url(#cp249)">
<text xml:space="preserve" transform="matrix(1 0 -0 1 0 841.5)" font-size="12" font-family="ArialNarrow" font-weight="bold" font-style="italic"><tspan y="-439.28" x="408.48 417.468 422.712 428.724 433.956 439.968 445.944 454.19999 460.188 466.19999">management</tspan></text>
</g>
</g>
<path transform="matrix(1,0,0,-1,0,841.5)" stroke-width="1.5" stroke-linecap="round" stroke-linejoin="round" fill="none" stroke="#000000" d="M 306.93 478.06 L 329.6 478.06 "/>
<path transform="matrix(1,0,0,-1,0,841.5)" d="M 328.59 482.08 L 340.65 478.06 L 328.59 474.04 L 328.59 482.08 Z " fill-rule="evenodd"/>
<path transform="matrix(1,0,0,-1,0,841.5)" stroke-width="1.5" stroke-linecap="round" stroke-linejoin="round" fill="none" stroke="#000000" d="M 317.98 407.17 L 337.82 407.17 "/>
<path transform="matrix(1,0,0,-1,0,841.5)" d="M 318.99 403.15 L 306.93 407.17 L 318.99 411.19 L 318.99 403.15 Z " fill-rule="evenodd"/>
<path transform="matrix(1,0,0,-1,0,841.5)" stroke-width="1.5" stroke-linecap="round" stroke-linejoin="round" fill="none" stroke="#000000" d="M 454.04 335.76 L 560.57 335.76 "/>
<path transform="matrix(1,0,0,-1,0,841.5)" d="M 559.56 339.78 L 571.62 335.76 L 559.56 331.74 L 559.56 339.78 Z " fill-rule="evenodd"/>
<path transform="matrix(1,0,0,-1,0,841.5)" stroke-width="1.5" stroke-linecap="round" stroke-linejoin="round" fill="none" stroke="#000000" d="M 243.64 336.31 L 278.58 336.31 "/>
<path transform="matrix(1,0,0,-1,0,841.5)" d="M 244.65 332.29 L 232.59 336.31 L 244.65 340.33 L 244.65 332.29 Z " fill-rule="evenodd"/>
<path transform="matrix(1,0,0,-1,0,841.5)" stroke-width="1.5" stroke-linecap="round" stroke-linejoin="round" fill="none" stroke="#000000" d="M 221.89 478.02 L 267.53 478.02 "/>
<path transform="matrix(1,0,0,-1,0,841.5)" d="M 266.52 482.04 L 278.58 478.02 L 266.52 474 L 266.52 482.04 Z " fill-rule="evenodd"/>
<path transform="matrix(1,0,0,-1,0,841.5)" stroke-width=".75" stroke-linecap="round" stroke-linejoin="round" fill="none" stroke="#000000" d="M 278.58 321.36 L 306.926 321.36 L 306.926 492.08 L 278.58 492.08 Z "/>
<g id="Layer-1" data-name="P">
<clipPath id="cp250">
<path transform="matrix(1,0,0,-1,0,841.5)" d="M .0000172 0 L 1154.25 0 L 1154.25 841.5 L .0000172 841.5 Z " fill-rule="evenodd"/>
</clipPath>
<g clip-path="url(#cp250)">
<text xml:space="preserve" transform="matrix(1 0 -0 1 0 841.5)" font-size="11.25" font-family="ArialNarrow" font-weight="bold"><tspan y="-481.23" x="343.8 347.53498 352.03498 358.02 363.27375 368.51625 373.01625 376.02 381.26249 386.51625">requested </tspan></text>
</g>
</g>
<g id="Layer-1" data-name="P">
<clipPath id="cp251">
<path transform="matrix(1,0,0,-1,0,841.5)" d="M .0000172 0 L 1154.25 0 L 1154.25 841.5 L .0000172 841.5 Z " fill-rule="evenodd"/>
</clipPath>
<g clip-path="url(#cp251)">
<text xml:space="preserve" transform="matrix(1 0 -0 1 0 841.5)" font-size="11.275" font-family="ArialNarrow" font-weight="bold"><tspan y="-468.02" x="338.52 342.26329 346.762 352.00486 357.2477 360.24687 365.48973 370.73258 373.73173 375.98674 381.24089 387.2279">reservations</tspan></text>
</g>
</g>
<g id="Layer-1" data-name="P">
<clipPath id="cp252">
<path transform="matrix(1,0,0,-1,0,841.5)" d="M .0000172 0 L 1154.25 0 L 1154.25 841.5 L .0000172 841.5 Z " fill-rule="evenodd"/>
</clipPath>
<g clip-path="url(#cp252)">
<text xml:space="preserve" transform="matrix(1 0 -0 1 0 841.5)" font-size="11.25" font-family="ArialNarrow" font-weight="bold"><tspan y="-410.48" x="350.68 355.93376 359.66874 364.91123 370.16499 373.16874 378.41123 383.66499">granted </tspan></text>
</g>
</g>
<g id="Layer-1" data-name="P">
<clipPath id="cp253">
<path transform="matrix(1,0,0,-1,0,841.5)" d="M .0000172 0 L 1154.25 0 L 1154.25 841.5 L .0000172 841.5 Z " fill-rule="evenodd"/>
</clipPath>
<g clip-path="url(#cp253)">
<text xml:space="preserve" transform="matrix(1 0 -0 1 0 841.5)" font-size="11.25" font-family="ArialNarrow" font-weight="bold"><tspan y="-397.25" x="342.88 346.615 351.115 356.35749 361.59999 364.60374 369.84623 372.84999 375.09999 381.085 386.33876">reservtions</tspan></text>
</g>
</g>
<g id="Layer-1" data-name="P">
<clipPath id="cp254">
<path transform="matrix(1,0,0,-1,0,841.5)" d="M .0000172 0 L 1154.25 0 L 1154.25 841.5 L .0000172 841.5 Z " fill-rule="evenodd"/>
</clipPath>
<g clip-path="url(#cp254)">
<text xml:space="preserve" transform="matrix(1 0 -0 1 0 841.5)" font-size="12.025" font-family="ArialNarrow" font-weight="bold" font-style="italic"><tspan y="-439.65" x="280.38 286.40455 290.1323 296.15684 301.3877 305.87303">order </tspan></text>
</g>
</g>
<g id="Layer-1" data-name="P">
<clipPath id="cp255">
<path transform="matrix(1,0,0,-1,0,841.5)" d="M .0000172 0 L 1154.25 0 L 1154.25 841.5 L .0000172 841.5 Z " fill-rule="evenodd"/>
</clipPath>
<g clip-path="url(#cp255)">
<text xml:space="preserve" transform="matrix(1 0 -0 1 0 841.5)" font-size="12" font-family="ArialNarrow" font-weight="bold" font-style="italic"><tspan y="-425.23" x="262.57 271.55799 276.80198 282.81398 288.04597 294.05796 300.03398 308.28996 314.27796 320.28996">management</tspan></text>
</g>
</g>
<g id="Layer-1" data-name="P">
<clipPath id="cp256">
<path transform="matrix(1,0,0,-1,0,841.5)" d="M .0000172 0 L 1154.25 0 L 1154.25 841.5 L .0000172 841.5 Z " fill-rule="evenodd"/>
</clipPath>
<g clip-path="url(#cp256)">
<text xml:space="preserve" transform="matrix(1 0 -0 1 0 841.5)" font-size="12.025" font-family="ArialNarrow" font-weight="bold" font-style="italic"><tspan y="-490.33" x="568.1 571.8518 577.10678 580.84658 586.1015 589.0837 591.33236 597.3208">retailer</tspan></text>
</g>
</g>
<path transform="matrix(1,0,0,-1,0,841.5)" stroke-width=".75" stroke-linecap="round" stroke-linejoin="round" fill="none" stroke="#000000" d="M 571.62 321.22 L 599.797 321.22 L 599.797 421.141 L 571.62 421.141 Z "/>
<path transform="matrix(1,0,0,-1,0,841.5)" stroke-width="1.5" stroke-linecap="round" stroke-linejoin="round" fill="none" stroke="#000000" d="M 552.97 406.87 L 571.82 406.87 "/>
<path transform="matrix(1,0,0,-1,0,841.5)" d="M 553.97 402.85 L 541.91 406.87 L 553.97 410.89 L 553.97 402.85 Z " fill-rule="evenodd"/>
<path transform="matrix(1,0,0,-1,0,841.5)" stroke-width="1.5" stroke-linecap="round" stroke-linejoin="round" fill="none" stroke="#000000" d="M 465.09 406.92 L 493.72 406.92 "/>
<path transform="matrix(1,0,0,-1,0,841.5)" d="M 466.1 402.9 L 454.04 406.92 L 466.1 410.94 L 466.1 402.9 Z " fill-rule="evenodd"/>
<path transform="matrix(1,0,0,-1,0,841.5)" d="M 193.25 464.75 L 244.274 464.75 L 244.274 488.444 L 193.25 488.444 Z " fill="#ffffff" fill-rule="evenodd"/>
<g id="Layer-1" data-name="P">
<clipPath id="cp257">
<path transform="matrix(1,0,0,-1,0,841.5)" d="M .0000172 0 L 1154.25 0 L 1154.25 841.5 L .0000172 841.5 Z " fill-rule="evenodd"/>
</clipPath>
<g clip-path="url(#cp257)">
<text xml:space="preserve" transform="matrix(1 0 -0 1 0 841.5)" font-size="11.25" font-family="ArialNarrow" font-weight="bold"><tspan y="-479.57" x="197.38 202.63375 208.61875 211.62248 216.86499 222.11873 227.36124 232.60375 237.10375">purchase </tspan></text>
</g>
</g>
<g id="Layer-1" data-name="P">
<clipPath id="cp258">
<path transform="matrix(1,0,0,-1,0,841.5)" d="M .0000172 0 L 1154.25 0 L 1154.25 841.5 L .0000172 841.5 Z " fill-rule="evenodd"/>
</clipPath>
<g clip-path="url(#cp258)">
<text xml:space="preserve" transform="matrix(1 0 -0 1 0 841.5)" font-size="11.275" font-family="ArialNarrow" font-weight="bold"><tspan y="-466.38" x="197.38 202.63416 206.37746 211.6316 216.87448 220.61779">orders</tspan></text>
</g>
</g>
<path transform="matrix(1,0,0,-1,0,841.5)" d="M 193.25 324.11 L 232.58499 324.11 L 232.58499 349.257 L 193.25 349.257 Z " fill="#ffffff" fill-rule="evenodd"/>
<g id="Layer-1" data-name="P">
<clipPath id="cp259">
<path transform="matrix(1,0,0,-1,0,841.5)" d="M .0000172 0 L 1154.25 0 L 1154.25 841.5 L .0000172 841.5 Z " fill-rule="evenodd"/>
</clipPath>
<g clip-path="url(#cp259)">
<text xml:space="preserve" transform="matrix(1 0 -0 1 0 841.5)" font-size="11.25" font-family="ArialNarrow" font-weight="bold"><tspan y="-339.52" x="197.38 205.615 210.115 215.35752">mess</tspan></text>
</g>
</g>
<g id="Layer-1" data-name="P">
<clipPath id="cp260">
<path transform="matrix(1,0,0,-1,0,841.5)" d="M .0000172 0 L 1154.25 0 L 1154.25 841.5 L .0000172 841.5 Z " fill-rule="evenodd"/>
</clipPath>
<g clip-path="url(#cp260)">
<text xml:space="preserve" transform="matrix(1 0 -0 1 0 841.5)" font-size="11.25" font-family="ArialNarrow" font-weight="bold"><tspan y="-339.52" x="220.48">-</tspan></text>
</g>
</g>
<g id="Layer-1" data-name="P">
<clipPath id="cp261">
<path transform="matrix(1,0,0,-1,0,841.5)" d="M .0000172 0 L 1154.25 0 L 1154.25 841.5 L .0000172 841.5 Z " fill-rule="evenodd"/>
</clipPath>
<g clip-path="url(#cp261)">
<text xml:space="preserve" transform="matrix(1 0 -0 1 0 841.5)" font-size="11.25" font-family="ArialNarrow" font-weight="bold"><tspan y="-326.33" x="197.38 202.62252 207.87625 213.11876">ages</tspan></text>
</g>
</g>
<path transform="matrix(1,0,0,-1,0,841.5)" d="M 425.49 323.44 L 471.55299 323.44 L 471.55299 348.587 L 425.49 348.587 Z " fill="#ffffff" fill-rule="evenodd"/>
<g id="Layer-1" data-name="P">
<clipPath id="cp262">
<path transform="matrix(1,0,0,-1,0,841.5)" d="M .0000172 0 L 1154.25 0 L 1154.25 841.5 L .0000172 841.5 Z " fill-rule="evenodd"/>
</clipPath>
<g clip-path="url(#cp262)">
<text xml:space="preserve" transform="matrix(1 0 -0 1 0 841.5)" font-size="11.275" font-family="ArialNarrow" font-weight="bold"><tspan y="-338.88" x="435.52 440.77415 446.017 449.76029 454.259 459.50187 461.75688">parcel </tspan></text>
</g>
</g>
<g id="Layer-1" data-name="P">
<clipPath id="cp263">
<path transform="matrix(1,0,0,-1,0,841.5)" d="M .0000172 0 L 1154.25 0 L 1154.25 841.5 L .0000172 841.5 Z " fill-rule="evenodd"/>
</clipPath>
<g clip-path="url(#cp263)">
<text xml:space="preserve" transform="matrix(1 0 -0 1 0 841.5)" font-size="11.25" font-family="ArialNarrow" font-weight="bold"><tspan y="-325.65" x="434.78 440.03376 443.76875 449.0225 454.26499 457.99998">orders</tspan></text>
</g>
</g>
<g id="Layer-1" data-name="P">
<clipPath id="cp264">
<path transform="matrix(1,0,0,-1,0,841.5)" d="M .0000172 0 L 1154.25 0 L 1154.25 841.5 L .0000172 841.5 Z " fill-rule="evenodd"/>
</clipPath>
<g clip-path="url(#cp264)">
<text xml:space="preserve" transform="matrix(1 0 -0 1 0 841.5)" font-size="11.25" font-family="ArialNarrow" font-weight="bold"><tspan y="-406.63" x="486.13 491.3725 495.8725 501.115 506.36875 512.35379 519.10379 521.35379 526.59628 532.58126 537.83499 543.07748 548.3312">acknowledged </tspan></text>
</g>
</g>
<g id="Layer-1" data-name="P">
<clipPath id="cp265">
<path transform="matrix(1,0,0,-1,0,841.5)" d="M .0000172 0 L 1154.25 0 L 1154.25 841.5 L .0000172 841.5 Z " fill-rule="evenodd"/>
</clipPath>
<g clip-path="url(#cp265)">
<text xml:space="preserve" transform="matrix(1 0 -0 1 0 841.5)" font-size="11.275" font-family="ArialNarrow" font-weight="bold"><tspan y="-393.43" x="499.9 503.66584 508.1871 513.4525 518.71798 520.97299 526.2497 529.24887">receipts</tspan></text>
</g>
</g>
<path transform="matrix(1,0,0,-1,0,841.5)" d="M 653.82 465.26 L 699.883 465.26 L 699.883 490.407 L 653.82 490.407 Z " fill="#ffffff" fill-rule="evenodd"/>
<g id="Layer-1" data-name="P">
<clipPath id="cp266">
<path transform="matrix(1,0,0,-1,0,841.5)" d="M .0000172 0 L 1154.25 0 L 1154.25 841.5 L .0000172 841.5 Z " fill-rule="evenodd"/>
</clipPath>
<g clip-path="url(#cp266)">
<text xml:space="preserve" transform="matrix(1 0 -0 1 0 841.5)" font-size="11.25" font-family="ArialNarrow" font-weight="bold"><tspan y="-480.8" x="661.22 666.46249 671.7162 676.9699 682.9549 685.2049 687.4549 692.6974 696.4324">supplier </tspan></text>
</g>
</g>
<g id="Layer-1" data-name="P">
<clipPath id="cp267">
<path transform="matrix(1,0,0,-1,0,841.5)" d="M .0000172 0 L 1154.25 0 L 1154.25 841.5 L .0000172 841.5 Z " fill-rule="evenodd"/>
</clipPath>
<g clip-path="url(#cp267)">
<text xml:space="preserve" transform="matrix(1 0 -0 1 0 841.5)" font-size="11.25" font-family="ArialNarrow" font-weight="bold"><tspan y="-467.6" x="668.25 673.5037 677.2387 682.49246 687.7349 691.4699">orders</tspan></text>
</g>
</g>
<path transform="matrix(1,0,0,-1,0,841.5)" stroke-width="1.5" stroke-linecap="round" stroke-linejoin="round" fill="none" stroke="#000000" d="M 306.93 335.35 L 417.47 335.35 "/>
<path transform="matrix(1,0,0,-1,0,841.5)" d="M 416.47 339.37 L 428.53 335.35 L 416.47 331.33 L 416.47 339.37 Z " fill-rule="evenodd"/>
<clipPath id="cp268">
<path transform="matrix(1,0,0,-1,0,841.5)" d="M -.000030518 841.5 L 1154.25 841.5 L 1154.25 .00012207 L -.000045776 .00012207 " fill-rule="evenodd"/>
</clipPath>
<g clip-path="url(#cp268)">
<path transform="matrix(1,0,0,-1,0,841.5)" stroke-width="1.5" stroke-linecap="round" stroke-linejoin="round" fill="none" stroke="#000000" d="M 169.91 474.93 L 180.64 475.12 "/>
</g>
<clipPath id="cp269">
<path transform="matrix(1,0,0,-1,0,841.5)" d="M -.000030518 841.5 L 1154.25 841.5 L 1154.25 .00012207 L -.000045776 .00012207 " fill-rule="evenodd"/>
</clipPath>
<g clip-path="url(#cp269)">
<path transform="matrix(1,0,0,-1,0,841.5)" d="M 179.56 479.12 L 191.69 475.31 L 179.7 471.08 L 179.56 479.12 Z " fill-rule="evenodd"/>
</g>
<path transform="matrix(1,0,0,-1,0,841.5)" d="M 143.32 247.11 L 171.66602 247.11 L 171.66602 489.16999 L 143.32 489.16999 Z " fill="#ffffff" fill-rule="evenodd"/>
<path transform="matrix(1,0,0,-1,0,841.5)" stroke-width=".75" stroke-linecap="round" stroke-linejoin="round" fill="none" stroke="#000000" d="M 143.32 247.11 L 171.66602 247.11 L 171.66602 489.16999 L 143.32 489.16999 Z "/>
<path transform="matrix(1,0,0,-1,0,841.5)" stroke-width="1.5" stroke-linecap="round" stroke-linejoin="round" fill="none" stroke="#000000" d="M 182.72 333.69 L 193.22 333.69 "/>
<path transform="matrix(1,0,0,-1,0,841.5)" d="M 183.73 329.67 L 171.67 333.69 L 183.73 337.71 L 183.73 329.67 Z " fill-rule="evenodd"/>
<g id="Layer-1" data-name="P">
<clipPath id="cp270">
<path transform="matrix(1,0,0,-1,0,841.5)" d="M .0000172 0 L 1154.25 0 L 1154.25 841.5 L .0000172 841.5 Z " fill-rule="evenodd"/>
</clipPath>
<g clip-path="url(#cp270)">
<text xml:space="preserve" transform="matrix(1 0 -0 1 0 841.5)" font-size="11.275" font-family="ArialNarrow" font-weight="bold" font-style="italic"><tspan y="-416.42" x="133.9 139.14287 144.39702 149.6399 152.63906 157.8932 166.11267 170.64522 174.38852">customers</tspan></text>
</g>
</g>
<clipPath id="cp271">
<path transform="matrix(1,0,0,-1,0,841.5)" d="M -.000007629 841.5 L 1154.25 841.5 L 1154.25 .00018311 L -.000007629 .00018311 " fill-rule="evenodd"/>
</clipPath>
<g clip-path="url(#cp271)">
<path transform="matrix(1,0,0,-1,0,841.5)" stroke-width="1.5" stroke-linecap="round" stroke-linejoin="round" fill="none" stroke="#000000" d="M 127.74 261.48 L 142.44 261.75 "/>
</g>
<clipPath id="cp272">
<path transform="matrix(1,0,0,-1,0,841.5)" d="M -.000007629 841.5 L 1154.25 841.5 L 1154.25 .00018311 L -.000007629 .00018311 " fill-rule="evenodd"/>
</clipPath>
<g clip-path="url(#cp272)">
<path transform="matrix(1,0,0,-1,0,841.5)" d="M 128.82 257.48 L 116.68 261.27 L 128.67 265.52 L 128.82 257.48 Z " fill-rule="evenodd"/>
</g>
<clipPath id="cp273">
<path transform="matrix(1,0,0,-1,0,841.5)" d="M -.000022888 841.5 L 1154.25 841.5 L 1154.25 .00018311 L -.000022888 .00012207 " fill-rule="evenodd"/>
</clipPath>
<g clip-path="url(#cp273)">
<path transform="matrix(1,0,0,-1,0,841.5)" stroke-width="1.5" stroke-linecap="round" stroke-linejoin="round" fill="none" stroke="#000000" d="M 120.95 475.21 L 132.01 475.22 "/>
</g>
<clipPath id="cp274">
<path transform="matrix(1,0,0,-1,0,841.5)" d="M -.000022888 841.5 L 1154.25 841.5 L 1154.25 .00018311 L -.000022888 .00012207 " fill-rule="evenodd"/>
</clipPath>
<g clip-path="url(#cp274)">
<path transform="matrix(1,0,0,-1,0,841.5)" d="M 131 479.24 L 143.06 475.23 L 131.01 471.2 L 131 479.24 Z " fill-rule="evenodd"/>
</g>
<path transform="matrix(1,0,0,-1,0,841.5)" d="M 59.992 463.96 L 120.086 463.96 L 120.086 487.654 L 59.992 487.654 Z " fill="#ffffff" fill-rule="evenodd"/>
<g id="Layer-1" data-name="P">
<clipPath id="cp275">
<path transform="matrix(1,0,0,-1,0,841.5)" d="M .0000172 0 L 1154.25 0 L 1154.25 841.5 L .0000172 841.5 Z " fill-rule="evenodd"/>
</clipPath>
<g clip-path="url(#cp275)">
<text xml:space="preserve" transform="matrix(1 0 -0 1 0 841.5)" font-size="11.275" font-family="ArialNarrow" font-weight="bold"><tspan y="-478.8" x="76.55 81.80415 85.547458 90.801609 96.04449 99.78779 105.04194 110.29609 116.28311">orderung </tspan></text>
</g>
</g>
<g id="Layer-1" data-name="P">
<clipPath id="cp276">
<path transform="matrix(1,0,0,-1,0,841.5)" d="M .0000172 0 L 1154.25 0 L 1154.25 841.5 L .0000172 841.5 Z " fill-rule="evenodd"/>
</clipPath>
<g clip-path="url(#cp276)">
<text xml:space="preserve" transform="matrix(1 0 -0 1 0 841.5)" font-size="11.25" font-family="ArialNarrow" font-weight="bold"><tspan y="-465.58" x="70.525 75.7675 81.021259 86.263759 89.26751 94.52126 102.75626 107.25626 110.991268">customers</tspan></text>
</g>
</g>
<path transform="matrix(1,0,0,-1,0,841.5)" d="M 65.661 249.18 L 116.685 249.18 L 116.685 274.327 L 65.661 274.327 Z " fill="#ffffff" fill-rule="evenodd"/>
<g id="Layer-1" data-name="P">
<clipPath id="cp277">
<path transform="matrix(1,0,0,-1,0,841.5)" d="M .0000172 0 L 1154.25 0 L 1154.25 841.5 L .0000172 841.5 Z " fill-rule="evenodd"/>
</clipPath>
<g clip-path="url(#cp277)">
<text xml:space="preserve" transform="matrix(1 0 -0 1 0 841.5)" font-size="11.25" font-family="ArialNarrow" font-weight="bold"><tspan y="-271.15" x="73.625 78.8675 83.3675 88.61 93.8525 99.106258 102.11001 107.35251 112.60626">accepted </tspan></text>
</g>
</g>
<g id="Layer-1" data-name="P">
<clipPath id="cp278">
<path transform="matrix(1,0,0,-1,0,841.5)" d="M .0000172 0 L 1154.25 0 L 1154.25 841.5 L .0000172 841.5 Z " fill-rule="evenodd"/>
</clipPath>
<g clip-path="url(#cp278)">
<text xml:space="preserve" transform="matrix(1 0 -0 1 0 841.5)" font-size="11.275" font-family="ArialNarrow" font-weight="bold"><tspan y="-257.95" x="83.65 88.90415 94.14703 99.389919 102.38907 107.63195 109.886959 112.87483">overall </tspan></text>
</g>
</g>
<g id="Layer-1" data-name="P">
<clipPath id="cp279">
<path transform="matrix(1,0,0,-1,0,841.5)" d="M .0000172 0 L 1154.25 0 L 1154.25 841.5 L .0000172 841.5 Z " fill-rule="evenodd"/>
</clipPath>
<g clip-path="url(#cp279)">
<text xml:space="preserve" transform="matrix(1 0 -0 1 0 841.5)" font-size="11.25" font-family="ArialNarrow" font-weight="bold"><tspan y="-244.72" x="78.625 83.90125 89.16625 91.41625 94.40875 98.93125 104.19625 107.965007">delivery</tspan></text>
</g>
</g>
<path transform="matrix(1,0,0,-1,0,841.5)" stroke-width=".75" stroke-linecap="round" stroke-linejoin="round" fill="none" stroke="#000000" d="M 720.97 253.44 L 749.316 253.44 L 749.316 353.361 L 720.97 353.361 Z "/>
<g id="Layer-1" data-name="P">
<clipPath id="cp280">
<path transform="matrix(1,0,0,-1,0,841.5)" d="M .0000172 0 L 1154.25 0 L 1154.25 841.5 L .0000172 841.5 Z " fill-rule="evenodd"/>
</clipPath>
<g clip-path="url(#cp280)">
<text xml:space="preserve" transform="matrix(1 0 -0 1 0 841.5)" font-size="11.25" font-family="ArialNarrow" font-weight="bold" font-style="italic"><tspan y="-312.3" x="721.2 724.20376 727.9387 732.4387 735.4312 740.68496 745.93869 748.9424">freight </tspan></text>
</g>
</g>
<g id="Layer-1" data-name="P">
<clipPath id="cp281">
<path transform="matrix(1,0,0,-1,0,841.5)" d="M .0000172 0 L 1154.25 0 L 1154.25 841.5 L .0000172 841.5 Z " fill-rule="evenodd"/>
</clipPath>
<g clip-path="url(#cp281)">
<text xml:space="preserve" transform="matrix(1 0 -0 1 0 841.5)" font-size="11.275" font-family="ArialNarrow" font-weight="bold" font-style="italic"><tspan y="-299.1" x="711.9 714.9217 720.1984 723.9643 730.74057 736.006 739.77188 745.0486 750.314 753.33578">forwarders</tspan></text>
</g>
</g>
<path transform="matrix(1,0,0,-1,0,841.5)" stroke-width="1.5" stroke-linecap="round" stroke-linejoin="round" fill="none" stroke="#000000" d="M 182.72 263.26 L 464.22 263.26 "/>
<path transform="matrix(1,0,0,-1,0,841.5)" d="M 183.73 259.24 L 171.67 263.26 L 183.73 267.28 L 183.73 259.24 Z " fill-rule="evenodd"/>
<path transform="matrix(1,0,0,-1,0,841.5)" d="M 414.32 252.29 L 490.289 252.29 L 490.289 277.43699 L 414.32 277.43699 Z " fill="#ffffff" fill-rule="evenodd"/>
<g id="Layer-1" data-name="P">
<clipPath id="cp282">
<path transform="matrix(1,0,0,-1,0,841.5)" d="M .0000172 0 L 1154.25 0 L 1154.25 841.5 L .0000172 841.5 Z " fill-rule="evenodd"/>
</clipPath>
<g clip-path="url(#cp282)">
<text xml:space="preserve" transform="matrix(1 0 -0 1 0 841.5)" font-size="11.25" font-family="ArialNarrow" font-weight="bold"><tspan y="-261.05" x="431.77 437.02375 442.26625 444.51625 447.50874 452.00874 457.25123 460.9862 463.2362 468.4787">deliveries</tspan></text>
</g>
</g>
<path transform="matrix(1,0,0,-1,0,841.5)" stroke-width="1.5" stroke-linecap="round" stroke-linejoin="round" fill="none" stroke="#000000" d="M 486.95 263.26 L 720.97 263.26 "/>
<path transform="matrix(1,0,0,-1,0,841.5)" d="M 487.95 259.24 L 475.89 263.26 L 487.95 267.28 L 487.95 259.24 Z " fill-rule="evenodd"/>
<path transform="matrix(1,0,0,-1,0,841.5)" stroke-width="1.5" stroke-linecap="round" stroke-linejoin="round" fill="none" stroke="#000000" d="M 693.46 335.14 L 710.2 335.14 "/>
<path transform="matrix(1,0,0,-1,0,841.5)" d="M 709.2 339.16 L 721.26 335.14 L 709.2 331.12 L 709.2 339.16 Z " fill-rule="evenodd"/>
<path transform="matrix(1,0,0,-1,0,841.5)" stroke-width=".75" stroke-linecap="round" stroke-linejoin="round" fill="none" stroke="#000000" d="M 717.53 395.61 L 745.87606 395.61 L 745.87606 490.57099 L 717.53 490.57099 Z "/>
<g id="Layer-1" data-name="P">
<clipPath id="cp283">
<path transform="matrix(1,0,0,-1,0,841.5)" d="M .0000172 0 L 1154.25 0 L 1154.25 841.5 L .0000172 841.5 Z " fill-rule="evenodd"/>
</clipPath>
<g clip-path="url(#cp283)">
<text xml:space="preserve" transform="matrix(1 0 -0 1 0 841.5)" font-size="11.25" font-family="ArialNarrow" font-weight="bold" font-style="italic"><tspan y="-444" x="714.38 719.6225 724.8762 730.12997 736.1149 738.3649 740.6149 745.8574">supplier</tspan></text>
</g>
</g>
<path transform="matrix(1,0,0,-1,0,841.5)" stroke-width="1.5" stroke-linecap="round" stroke-linejoin="round" fill="none" stroke="#000000" d="M 687.46 477.73 L 706.47 477.73 "/>
<path transform="matrix(1,0,0,-1,0,841.5)" d="M 705.47 481.75 L 717.53 477.73 L 705.47 473.71 L 705.47 481.75 Z " fill-rule="evenodd"/>
<path transform="matrix(1,0,0,-1,0,841.5)" stroke-width="1.5" stroke-linecap="round" stroke-linejoin="round" fill="none" stroke="#000000" d="M 704.73 406.58 L 717.79 406.58 "/>
<path transform="matrix(1,0,0,-1,0,841.5)" d="M 705.74 402.56 L 693.68 406.58 L 705.74 410.6 L 705.74 402.56 Z " fill-rule="evenodd"/>
<path transform="matrix(1,0,0,-1,0,841.5)" d="M 638.29 323.44 L 696.289 323.44 L 696.289 348.587 L 638.29 348.587 Z " fill="#ffffff" fill-rule="evenodd"/>
<g id="Layer-1" data-name="P">
<clipPath id="cp284">
<path transform="matrix(1,0,0,-1,0,841.5)" d="M .0000172 0 L 1154.25 0 L 1154.25 841.5 L .0000172 841.5 Z " fill-rule="evenodd"/>
</clipPath>
<g clip-path="url(#cp284)">
<text xml:space="preserve" transform="matrix(1 0 -0 1 0 841.5)" font-size="11.275" font-family="ArialNarrow" font-weight="bold"><tspan y="-338.88" x="653.63 656.62918 661.8833 664.87118 667.8703 670.86947 676.11239 678.3674 684.35446 689.6086 692.6077">to freight </tspan></text>
</g>
</g>
<g id="Layer-1" data-name="P">
<clipPath id="cp285">
<path transform="matrix(1,0,0,-1,0,841.5)" d="M .0000172 0 L 1154.25 0 L 1154.25 841.5 L .0000172 841.5 Z " fill-rule="evenodd"/>
</clipPath>
<g clip-path="url(#cp285)">
<text xml:space="preserve" transform="matrix(1 0 -0 1 0 841.5)" font-size="11.25" font-family="ArialNarrow" font-weight="bold"><tspan y="-325.65" x="646.1 649.1037 654.3574 658.0924 664.8424 670.0849 673.8199 679.0736 684.3161 687.3198">forwarders</tspan></text>
</g>
</g>
<path transform="matrix(1,0,0,-1,0,841.5)" d="M 643.25 395.89 L 698.415 395.89 L 698.415 417.39903 L 643.25 417.39903 Z " fill="#ffffff" fill-rule="evenodd"/>
<g id="Layer-1" data-name="P">
<clipPath id="cp286">
<path transform="matrix(1,0,0,-1,0,841.5)" d="M .0000172 0 L 1154.25 0 L 1154.25 841.5 L .0000172 841.5 Z " fill-rule="evenodd"/>
</clipPath>
<g clip-path="url(#cp286)">
<text xml:space="preserve" transform="matrix(1 0 -0 1 0 841.5)" font-size="11.275" font-family="ArialNarrow" font-weight="bold"><tspan y="-409.58" x="656.75 662.02676 668.0363 673.31307 678.5898 683.8552 686.1102 689.1094 695.11898">goods to </tspan></text>
</g>
</g>
<g id="Layer-1" data-name="P">
<clipPath id="cp287">
<path transform="matrix(1,0,0,-1,0,841.5)" d="M .0000172 0 L 1154.25 0 L 1154.25 841.5 L .0000172 841.5 Z " fill-rule="evenodd"/>
</clipPath>
<g clip-path="url(#cp287)">
<text xml:space="preserve" transform="matrix(1 0 -0 1 0 841.5)" font-size="11.25" font-family="ArialNarrow" font-weight="bold"><tspan y="-396.35" x="647.7 654.4725 659.7375 663.5062 668.02877 674.0475 679.3237 684.6 689.865">warehouse</tspan></text>
</g>
</g>
<clipPath id="cp288">
<path transform="matrix(1,0,0,-1,0,841.5)" d="M -.000030518 841.5 L 1154.25 841.5 L 1154.25 .00018311 L -.000091553 .00018311 " fill-rule="evenodd"/>
</clipPath>
<g clip-path="url(#cp288)">
<path transform="matrix(1,0,0,-1,0,841.5)" stroke-width="1.5" stroke-linecap="round" stroke-linejoin="round" fill="none" stroke="#000000" d="M 454.13 477.93 L 642.77 477.13 "/>
</g>
<clipPath id="cp289">
<path transform="matrix(1,0,0,-1,0,841.5)" d="M -.000030518 841.5 L 1154.25 841.5 L 1154.25 .00018311 L -.000091553 .00018311 " fill-rule="evenodd"/>
</clipPath>
<g clip-path="url(#cp289)">
<path transform="matrix(1,0,0,-1,0,841.5)" d="M 641.78 481.16 L 653.82 477.08 L 641.75 473.12 L 641.78 481.16 Z " fill-rule="evenodd"/>
</g>
<path transform="matrix(1,0,0,-1,0,841.5)" stroke-width="1.5" stroke-linecap="round" stroke-linejoin="round" fill="none" stroke="#000000" d="M 610.94 406.39 L 652.46 406.39 "/>
<path transform="matrix(1,0,0,-1,0,841.5)" d="M 611.94 402.37 L 599.88 406.39 L 611.94 410.41 L 611.94 402.37 Z " fill-rule="evenodd"/>
<path transform="matrix(1,0,0,-1,0,841.5)" stroke-width="1.5" stroke-linecap="round" stroke-linejoin="round" fill="none" stroke="#000000" d="M 600.47 335.76 L 641.41 335.76 "/>
<path transform="matrix(1,0,0,-1,0,841.5)" d="M 640.4 339.78 L 652.46 335.76 L 640.4 331.74 L 640.4 339.78 Z " fill-rule="evenodd"/>
<g id="Layer-1" data-name="P">
<clipPath id="cp290">
<path transform="matrix(1,0,0,-1,0,841.5)" d="M .0000172 0 L 1154.25 0 L 1154.25 841.5 L .0000172 841.5 Z " fill-rule="evenodd"/>
</clipPath>
<g clip-path="url(#cp290)">
<text xml:space="preserve" transform="matrix(1 0 -0 1 0 841.5)" font-size="12" font-family="ArialNarrow" font-weight="bold" font-style="italic"><tspan y="-388.65" x="572.73 580.23 586.21798 589.962">ware</tspan></text>
</g>
</g>
<g id="Layer-1" data-name="P">
<clipPath id="cp291">
<path transform="matrix(1,0,0,-1,0,841.5)" d="M .0000172 0 L 1154.25 0 L 1154.25 841.5 L .0000172 841.5 Z " fill-rule="evenodd"/>
</clipPath>
<g clip-path="url(#cp291)">
<text xml:space="preserve" transform="matrix(1 0 -0 1 0 841.5)" font-size="12" font-family="ArialNarrow" font-weight="bold" font-style="italic"><tspan y="-388.65" x="595.17">-</tspan></text>
</g>
</g>
<g id="Layer-1" data-name="P">
<clipPath id="cp292">
<path transform="matrix(1,0,0,-1,0,841.5)" d="M .0000172 0 L 1154.25 0 L 1154.25 841.5 L .0000172 841.5 Z " fill-rule="evenodd"/>
</clipPath>
<g clip-path="url(#cp292)">
<text xml:space="preserve" transform="matrix(1 0 -0 1 0 841.5)" font-size="12" font-family="ArialNarrow" font-weight="bold" font-style="italic"><tspan y="-388.65" x="598.45"> </tspan></text>
</g>
</g>
<g id="Layer-1" data-name="P">
<clipPath id="cp293">
<path transform="matrix(1,0,0,-1,0,841.5)" d="M .0000172 0 L 1154.25 0 L 1154.25 841.5 L .0000172 841.5 Z " fill-rule="evenodd"/>
</clipPath>
<g clip-path="url(#cp293)">
<text xml:space="preserve" transform="matrix(1 0 -0 1 0 841.5)" font-size="12" font-family="ArialNarrow" font-weight="bold" font-style="italic"><tspan y="-374.25" x="571.1 577.112 583.124 589.10006 594.344">house</tspan></text>
</g>
</g>
<path transform="matrix(1,0,0,-1,0,841.5)" stroke-width="1.5" stroke-linecap="round" stroke-linejoin="round" fill="none" stroke="#000000" d="M 386.01 478.01 L 413.65 478.01 "/>
<path transform="matrix(1,0,0,-1,0,841.5)" d="M 412.65 482.03 L 424.71 478.01 L 412.65 473.99 L 412.65 482.03 Z " fill-rule="evenodd"/>
<path transform="matrix(1,0,0,-1,0,841.5)" stroke-width="1.5" stroke-linecap="round" stroke-linejoin="round" fill="none" stroke="#000000" d="M 409.81 407.12 L 424.71 407.12 "/>
<path transform="matrix(1,0,0,-1,0,841.5)" d="M 410.82 403.1 L 398.76 407.12 L 410.82 411.14 L 410.82 403.1 Z " fill-rule="evenodd"/>
<path transform="matrix(1,0,0,-1,0,841.5)" stroke-width=".75" stroke-linecap="round" stroke-linejoin="round" fill="none" stroke="#000000" d="M 425.79 391.55 L 454.13603 391.55 L 454.13603 491.47099 L 425.79 491.47099 Z "/>
<g id="Layer-1" data-name="P">
<clipPath id="cp294">
<path transform="matrix(1,0,0,-1,0,841.5)" d="M .0000172 0 L 1154.25 0 L 1154.25 841.5 L .0000172 841.5 Z " fill-rule="evenodd"/>
</clipPath>
<g clip-path="url(#cp294)">
<text xml:space="preserve" transform="matrix(1 0 -0 1 0 841.5)" font-size="12.025" font-family="ArialNarrow" font-weight="bold" font-style="italic"><tspan y="-453.7" x="416.67 419.65223 425.67677 430.90763 436.16255 442.18708 445.9028 451.92735 455.6551 460.91">inventory </tspan></text>
</g>
</g>
<g id="Layer-1" data-name="P">
<clipPath id="cp295">
<path transform="matrix(1,0,0,-1,0,841.5)" d="M .0000172 0 L 1154.25 0 L 1154.25 841.5 L .0000172 841.5 Z " fill-rule="evenodd"/>
</clipPath>
<g clip-path="url(#cp295)">
<text xml:space="preserve" transform="matrix(1 0 -0 1 0 841.5)" font-size="12" font-family="ArialNarrow" font-weight="bold" font-style="italic"><tspan y="-439.28" x="408.48 417.468 422.712 428.724 433.956 439.968 445.944 454.19999 460.188 466.19999">management</tspan></text>
</g>
</g>
<path transform="matrix(1,0,0,-1,0,841.5)" stroke-width="1.5" stroke-linecap="round" stroke-linejoin="round" fill="none" stroke="#000000" d="M 306.93 478.06 L 329.6 478.06 "/>
<path transform="matrix(1,0,0,-1,0,841.5)" d="M 328.59 482.08 L 340.65 478.06 L 328.59 474.04 L 328.59 482.08 Z " fill-rule="evenodd"/>
<path transform="matrix(1,0,0,-1,0,841.5)" stroke-width="1.5" stroke-linecap="round" stroke-linejoin="round" fill="none" stroke="#000000" d="M 317.98 407.17 L 337.82 407.17 "/>
<path transform="matrix(1,0,0,-1,0,841.5)" d="M 318.99 403.15 L 306.93 407.17 L 318.99 411.19 L 318.99 403.15 Z " fill-rule="evenodd"/>
<path transform="matrix(1,0,0,-1,0,841.5)" stroke-width="1.5" stroke-linecap="round" stroke-linejoin="round" fill="none" stroke="#000000" d="M 454.04 335.76 L 560.57 335.76 "/>
<path transform="matrix(1,0,0,-1,0,841.5)" d="M 559.56 339.78 L 571.62 335.76 L 559.56 331.74 L 559.56 339.78 Z " fill-rule="evenodd"/>
<path transform="matrix(1,0,0,-1,0,841.5)" stroke-width="1.5" stroke-linecap="round" stroke-linejoin="round" fill="none" stroke="#000000" d="M 243.64 336.31 L 278.58 336.31 "/>
<path transform="matrix(1,0,0,-1,0,841.5)" d="M 244.65 332.29 L 232.59 336.31 L 244.65 340.33 L 244.65 332.29 Z " fill-rule="evenodd"/>
<path transform="matrix(1,0,0,-1,0,841.5)" stroke-width="1.5" stroke-linecap="round" stroke-linejoin="round" fill="none" stroke="#000000" d="M 221.89 478.02 L 267.53 478.02 "/>
<path transform="matrix(1,0,0,-1,0,841.5)" d="M 266.52 482.04 L 278.58 478.02 L 266.52 474 L 266.52 482.04 Z " fill-rule="evenodd"/>
<path transform="matrix(1,0,0,-1,0,841.5)" stroke-width=".75" stroke-linecap="round" stroke-linejoin="round" fill="none" stroke="#000000" d="M 278.58 321.36 L 306.926 321.36 L 306.926 492.08 L 278.58 492.08 Z "/>
<g id="Layer-1" data-name="P">
<clipPath id="cp296">
<path transform="matrix(1,0,0,-1,0,841.5)" d="M .0000172 0 L 1154.25 0 L 1154.25 841.5 L .0000172 841.5 Z " fill-rule="evenodd"/>
</clipPath>
<g clip-path="url(#cp296)">
<text xml:space="preserve" transform="matrix(1 0 -0 1 0 841.5)" font-size="11.25" font-family="ArialNarrow" font-weight="bold"><tspan y="-481.23" x="343.8 347.53498 352.03498 358.02 363.27375 368.51625 373.01625 376.02 381.26249 386.51625">requested </tspan></text>
</g>
</g>
<g id="Layer-1" data-name="P">
<clipPath id="cp297">
<path transform="matrix(1,0,0,-1,0,841.5)" d="M .0000172 0 L 1154.25 0 L 1154.25 841.5 L .0000172 841.5 Z " fill-rule="evenodd"/>
</clipPath>
<g clip-path="url(#cp297)">
<text xml:space="preserve" transform="matrix(1 0 -0 1 0 841.5)" font-size="11.275" font-family="ArialNarrow" font-weight="bold"><tspan y="-468.02" x="338.52 342.26329 346.762 352.00486 357.2477 360.24687 365.48973 370.73258 373.73173 375.98674 381.24089 387.2279">reservations</tspan></text>
</g>
</g>
<g id="Layer-1" data-name="P">
<clipPath id="cp298">
<path transform="matrix(1,0,0,-1,0,841.5)" d="M .0000172 0 L 1154.25 0 L 1154.25 841.5 L .0000172 841.5 Z " fill-rule="evenodd"/>
</clipPath>
<g clip-path="url(#cp298)">
<text xml:space="preserve" transform="matrix(1 0 -0 1 0 841.5)" font-size="11.25" font-family="ArialNarrow" font-weight="bold"><tspan y="-410.48" x="350.68 355.93376 359.66874 364.91123 370.16499 373.16874 378.41123 383.66499">granted </tspan></text>
</g>
</g>
<g id="Layer-1" data-name="P">
<clipPath id="cp299">
<path transform="matrix(1,0,0,-1,0,841.5)" d="M .0000172 0 L 1154.25 0 L 1154.25 841.5 L .0000172 841.5 Z " fill-rule="evenodd"/>
</clipPath>
<g clip-path="url(#cp299)">
<text xml:space="preserve" transform="matrix(1 0 -0 1 0 841.5)" font-size="11.25" font-family="ArialNarrow" font-weight="bold"><tspan y="-397.25" x="342.88 346.615 351.115 356.35749 361.59999 364.60374 369.84623 372.84999 375.09999 381.085 386.33876">reservtions</tspan></text>
</g>
</g>
<g id="Layer-1" data-name="P">
<clipPath id="cp300">
<path transform="matrix(1,0,0,-1,0,841.5)" d="M .0000172 0 L 1154.25 0 L 1154.25 841.5 L .0000172 841.5 Z " fill-rule="evenodd"/>
</clipPath>
<g clip-path="url(#cp300)">
<text xml:space="preserve" transform="matrix(1 0 -0 1 0 841.5)" font-size="12.025" font-family="ArialNarrow" font-weight="bold" font-style="italic"><tspan y="-439.65" x="280.38 286.40455 290.1323 296.15684 301.3877 305.87303">order </tspan></text>
</g>
</g>
<g id="Layer-1" data-name="P">
<clipPath id="cp301">
<path transform="matrix(1,0,0,-1,0,841.5)" d="M .0000172 0 L 1154.25 0 L 1154.25 841.5 L .0000172 841.5 Z " fill-rule="evenodd"/>
</clipPath>
<g clip-path="url(#cp301)">
<text xml:space="preserve" transform="matrix(1 0 -0 1 0 841.5)" font-size="12" font-family="ArialNarrow" font-weight="bold" font-style="italic"><tspan y="-425.23" x="262.57 271.55799 276.80198 282.81398 288.04597 294.05796 300.03398 308.28996 314.27796 320.28996">management</tspan></text>
</g>
</g>
<g id="Layer-1" data-name="P">
<clipPath id="cp302">
<path transform="matrix(1,0,0,-1,0,841.5)" d="M .0000172 0 L 1154.25 0 L 1154.25 841.5 L .0000172 841.5 Z " fill-rule="evenodd"/>
</clipPath>
<g clip-path="url(#cp302)">
<text xml:space="preserve" transform="matrix(1 0 -0 1 0 841.5)" font-size="12.025" font-family="ArialNarrow" font-weight="bold" font-style="italic"><tspan y="-490.33" x="568.1 571.8518 577.10678 580.84658 586.1015 589.0837 591.33236 597.3208">retailer</tspan></text>
</g>
</g>
<path transform="matrix(1,0,0,-1,0,841.5)" stroke-width=".75" stroke-linecap="round" stroke-linejoin="round" fill="none" stroke="#000000" d="M 571.62 321.22 L 599.797 321.22 L 599.797 421.141 L 571.62 421.141 Z "/>
<path transform="matrix(1,0,0,-1,0,841.5)" stroke-width="1.5" stroke-linecap="round" stroke-linejoin="round" fill="none" stroke="#000000" d="M 552.97 406.87 L 571.82 406.87 "/>
<path transform="matrix(1,0,0,-1,0,841.5)" d="M 553.97 402.85 L 541.91 406.87 L 553.97 410.89 L 553.97 402.85 Z " fill-rule="evenodd"/>
<path transform="matrix(1,0,0,-1,0,841.5)" stroke-width="1.5" stroke-linecap="round" stroke-linejoin="round" fill="none" stroke="#000000" d="M 465.09 406.92 L 493.72 406.92 "/>
<path transform="matrix(1,0,0,-1,0,841.5)" d="M 466.1 402.9 L 454.04 406.92 L 466.1 410.94 L 466.1 402.9 Z " fill-rule="evenodd"/>
<path transform="matrix(1,0,0,-1,0,841.5)" d="M 193.25 464.75 L 244.274 464.75 L 244.274 488.444 L 193.25 488.444 Z " fill="#ffffff" fill-rule="evenodd"/>
<g id="Layer-1" data-name="P">
<clipPath id="cp303">
<path transform="matrix(1,0,0,-1,0,841.5)" d="M .0000172 0 L 1154.25 0 L 1154.25 841.5 L .0000172 841.5 Z " fill-rule="evenodd"/>
</clipPath>
<g clip-path="url(#cp303)">
<text xml:space="preserve" transform="matrix(1 0 -0 1 0 841.5)" font-size="11.25" font-family="ArialNarrow" font-weight="bold"><tspan y="-479.57" x="197.38 202.63375 208.61875 211.62248 216.86499 222.11873 227.36124 232.60375 237.10375">purchase </tspan></text>
</g>
</g>
<g id="Layer-1" data-name="P">
<clipPath id="cp304">
<path transform="matrix(1,0,0,-1,0,841.5)" d="M .0000172 0 L 1154.25 0 L 1154.25 841.5 L .0000172 841.5 Z " fill-rule="evenodd"/>
</clipPath>
<g clip-path="url(#cp304)">
<text xml:space="preserve" transform="matrix(1 0 -0 1 0 841.5)" font-size="11.275" font-family="ArialNarrow" font-weight="bold"><tspan y="-466.38" x="197.38 202.63416 206.37746 211.6316 216.87448 220.61779">orders</tspan></text>
</g>
</g>
<path transform="matrix(1,0,0,-1,0,841.5)" d="M 193.25 324.11 L 232.58499 324.11 L 232.58499 349.257 L 193.25 349.257 Z " fill="#ffffff" fill-rule="evenodd"/>
<g id="Layer-1" data-name="P">
<clipPath id="cp305">
<path transform="matrix(1,0,0,-1,0,841.5)" d="M .0000172 0 L 1154.25 0 L 1154.25 841.5 L .0000172 841.5 Z " fill-rule="evenodd"/>
</clipPath>
<g clip-path="url(#cp305)">
<text xml:space="preserve" transform="matrix(1 0 -0 1 0 841.5)" font-size="11.25" font-family="ArialNarrow" font-weight="bold"><tspan y="-339.52" x="197.38 205.615 210.115 215.35752">mess</tspan></text>
</g>
</g>
<g id="Layer-1" data-name="P">
<clipPath id="cp306">
<path transform="matrix(1,0,0,-1,0,841.5)" d="M .0000172 0 L 1154.25 0 L 1154.25 841.5 L .0000172 841.5 Z " fill-rule="evenodd"/>
</clipPath>
<g clip-path="url(#cp306)">
<text xml:space="preserve" transform="matrix(1 0 -0 1 0 841.5)" font-size="11.25" font-family="ArialNarrow" font-weight="bold"><tspan y="-339.52" x="220.48">-</tspan></text>
</g>
</g>
<g id="Layer-1" data-name="P">
<clipPath id="cp307">
<path transform="matrix(1,0,0,-1,0,841.5)" d="M .0000172 0 L 1154.25 0 L 1154.25 841.5 L .0000172 841.5 Z " fill-rule="evenodd"/>
</clipPath>
<g clip-path="url(#cp307)">
<text xml:space="preserve" transform="matrix(1 0 -0 1 0 841.5)" font-size="11.25" font-family="ArialNarrow" font-weight="bold"><tspan y="-326.33" x="197.38 202.62252 207.87625 213.11876">ages</tspan></text>
</g>
</g>
<path transform="matrix(1,0,0,-1,0,841.5)" d="M 425.49 323.44 L 471.55299 323.44 L 471.55299 348.587 L 425.49 348.587 Z " fill="#ffffff" fill-rule="evenodd"/>
<g id="Layer-1" data-name="P">
<clipPath id="cp308">
<path transform="matrix(1,0,0,-1,0,841.5)" d="M .0000172 0 L 1154.25 0 L 1154.25 841.5 L .0000172 841.5 Z " fill-rule="evenodd"/>
</clipPath>
<g clip-path="url(#cp308)">
<text xml:space="preserve" transform="matrix(1 0 -0 1 0 841.5)" font-size="11.275" font-family="ArialNarrow" font-weight="bold"><tspan y="-338.88" x="435.52 440.77415 446.017 449.76029 454.259 459.50187 461.75688">parcel </tspan></text>
</g>
</g>
<g id="Layer-1" data-name="P">
<clipPath id="cp309">
<path transform="matrix(1,0,0,-1,0,841.5)" d="M .0000172 0 L 1154.25 0 L 1154.25 841.5 L .0000172 841.5 Z " fill-rule="evenodd"/>
</clipPath>
<g clip-path="url(#cp309)">
<text xml:space="preserve" transform="matrix(1 0 -0 1 0 841.5)" font-size="11.25" font-family="ArialNarrow" font-weight="bold"><tspan y="-325.65" x="434.78 440.03376 443.76875 449.0225 454.26499 457.99998">orders</tspan></text>
</g>
</g>
<g id="Layer-1" data-name="P">
<clipPath id="cp310">
<path transform="matrix(1,0,0,-1,0,841.5)" d="M .0000172 0 L 1154.25 0 L 1154.25 841.5 L .0000172 841.5 Z " fill-rule="evenodd"/>
</clipPath>
<g clip-path="url(#cp310)">
<text xml:space="preserve" transform="matrix(1 0 -0 1 0 841.5)" font-size="11.25" font-family="ArialNarrow" font-weight="bold"><tspan y="-406.63" x="486.13 491.3725 495.8725 501.115 506.36875 512.35379 519.10379 521.35379 526.59628 532.58126 537.83499 543.07748 548.3312">acknowledged </tspan></text>
</g>
</g>
<g id="Layer-1" data-name="P">
<clipPath id="cp311">
<path transform="matrix(1,0,0,-1,0,841.5)" d="M .0000172 0 L 1154.25 0 L 1154.25 841.5 L .0000172 841.5 Z " fill-rule="evenodd"/>
</clipPath>
<g clip-path="url(#cp311)">
<text xml:space="preserve" transform="matrix(1 0 -0 1 0 841.5)" font-size="11.275" font-family="ArialNarrow" font-weight="bold"><tspan y="-393.43" x="499.9 503.66584 508.1871 513.4525 518.71798 520.97299 526.2497 529.24887">receipts</tspan></text>
</g>
</g>
<path transform="matrix(1,0,0,-1,0,841.5)" d="M 653.82 465.26 L 699.883 465.26 L 699.883 490.407 L 653.82 490.407 Z " fill="#ffffff" fill-rule="evenodd"/>
<g id="Layer-1" data-name="P">
<clipPath id="cp312">
<path transform="matrix(1,0,0,-1,0,841.5)" d="M .0000172 0 L 1154.25 0 L 1154.25 841.5 L .0000172 841.5 Z " fill-rule="evenodd"/>
</clipPath>
<g clip-path="url(#cp312)">
<text xml:space="preserve" transform="matrix(1 0 -0 1 0 841.5)" font-size="11.25" font-family="ArialNarrow" font-weight="bold"><tspan y="-480.8" x="661.22 666.46249 671.7162 676.9699 682.9549 685.2049 687.4549 692.6974 696.4324">supplier </tspan></text>
</g>
</g>
<g id="Layer-1" data-name="P">
<clipPath id="cp313">
<path transform="matrix(1,0,0,-1,0,841.5)" d="M .0000172 0 L 1154.25 0 L 1154.25 841.5 L .0000172 841.5 Z " fill-rule="evenodd"/>
</clipPath>
<g clip-path="url(#cp313)">
<text xml:space="preserve" transform="matrix(1 0 -0 1 0 841.5)" font-size="11.25" font-family="ArialNarrow" font-weight="bold"><tspan y="-467.6" x="668.25 673.5037 677.2387 682.49246 687.7349 691.4699">orders</tspan></text>
</g>
</g>
<path transform="matrix(1,0,0,-1,0,841.5)" stroke-width="1.5" stroke-linecap="round" stroke-linejoin="round" fill="none" stroke="#000000" d="M 306.93 335.35 L 417.47 335.35 "/>
<path transform="matrix(1,0,0,-1,0,841.5)" d="M 416.47 339.37 L 428.53 335.35 L 416.47 331.33 L 416.47 339.37 Z " fill-rule="evenodd"/>
<clipPath id="cp314">
<path transform="matrix(1,0,0,-1,0,841.5)" d="M -.000030518 841.5 L 1154.25 841.5 L 1154.25 .00012207 L -.000045776 .00012207 " fill-rule="evenodd"/>
</clipPath>
<g clip-path="url(#cp314)">
<path transform="matrix(1,0,0,-1,0,841.5)" stroke-width="1.5" stroke-linecap="round" stroke-linejoin="round" fill="none" stroke="#000000" d="M 169.91 474.93 L 180.64 475.12 "/>
</g>
<clipPath id="cp315">
<path transform="matrix(1,0,0,-1,0,841.5)" d="M -.000030518 841.5 L 1154.25 841.5 L 1154.25 .00012207 L -.000045776 .00012207 " fill-rule="evenodd"/>
</clipPath>
<g clip-path="url(#cp315)">
<path transform="matrix(1,0,0,-1,0,841.5)" d="M 179.56 479.12 L 191.69 475.31 L 179.7 471.08 L 179.56 479.12 Z " fill-rule="evenodd"/>
</g>
<path transform="matrix(1,0,0,-1,0,841.5)" d="M 143.32 247.11 L 171.66602 247.11 L 171.66602 489.16999 L 143.32 489.16999 Z " fill="#ffffff" fill-rule="evenodd"/>
<path transform="matrix(1,0,0,-1,0,841.5)" stroke-width=".75" stroke-linecap="round" stroke-linejoin="round" fill="none" stroke="#000000" d="M 143.32 247.11 L 171.66602 247.11 L 171.66602 489.16999 L 143.32 489.16999 Z "/>
<path transform="matrix(1,0,0,-1,0,841.5)" stroke-width="1.5" stroke-linecap="round" stroke-linejoin="round" fill="none" stroke="#000000" d="M 182.72 333.69 L 193.22 333.69 "/>
<path transform="matrix(1,0,0,-1,0,841.5)" d="M 183.73 329.67 L 171.67 333.69 L 183.73 337.71 L 183.73 329.67 Z " fill-rule="evenodd"/>
<g id="Layer-1" data-name="P">
<clipPath id="cp316">
<path transform="matrix(1,0,0,-1,0,841.5)" d="M .0000172 0 L 1154.25 0 L 1154.25 841.5 L .0000172 841.5 Z " fill-rule="evenodd"/>
</clipPath>
<g clip-path="url(#cp316)">
<text xml:space="preserve" transform="matrix(1 0 -0 1 0 841.5)" font-size="11.275" font-family="ArialNarrow" font-weight="bold" font-style="italic"><tspan y="-416.42" x="133.9 139.14287 144.39702 149.6399 152.63906 157.8932 166.11267 170.64522 174.38852">customers</tspan></text>
</g>
</g>
<clipPath id="cp317">
<path transform="matrix(1,0,0,-1,0,841.5)" d="M -.000007629 841.5 L 1154.25 841.5 L 1154.25 .00018311 L -.000007629 .00018311 " fill-rule="evenodd"/>
</clipPath>
<g clip-path="url(#cp317)">
<path transform="matrix(1,0,0,-1,0,841.5)" stroke-width="1.5" stroke-linecap="round" stroke-linejoin="round" fill="none" stroke="#000000" d="M 127.74 261.48 L 142.44 261.75 "/>
</g>
<clipPath id="cp318">
<path transform="matrix(1,0,0,-1,0,841.5)" d="M -.000007629 841.5 L 1154.25 841.5 L 1154.25 .00018311 L -.000007629 .00018311 " fill-rule="evenodd"/>
</clipPath>
<g clip-path="url(#cp318)">
<path transform="matrix(1,0,0,-1,0,841.5)" d="M 128.82 257.48 L 116.68 261.27 L 128.67 265.52 L 128.82 257.48 Z " fill-rule="evenodd"/>
</g>
<clipPath id="cp319">
<path transform="matrix(1,0,0,-1,0,841.5)" d="M -.000022888 841.5 L 1154.25 841.5 L 1154.25 .00018311 L -.000022888 .00012207 " fill-rule="evenodd"/>
</clipPath>
<g clip-path="url(#cp319)">
<path transform="matrix(1,0,0,-1,0,841.5)" stroke-width="1.5" stroke-linecap="round" stroke-linejoin="round" fill="none" stroke="#000000" d="M 120.95 475.21 L 132.01 475.22 "/>
</g>
<clipPath id="cp320">
<path transform="matrix(1,0,0,-1,0,841.5)" d="M -.000022888 841.5 L 1154.25 841.5 L 1154.25 .00018311 L -.000022888 .00012207 " fill-rule="evenodd"/>
</clipPath>
<g clip-path="url(#cp320)">
<path transform="matrix(1,0,0,-1,0,841.5)" d="M 131 479.24 L 143.06 475.23 L 131.01 471.2 L 131 479.24 Z " fill-rule="evenodd"/>
</g>
<path transform="matrix(1,0,0,-1,0,841.5)" d="M 59.992 463.96 L 120.086 463.96 L 120.086 487.654 L 59.992 487.654 Z " fill="#ffffff" fill-rule="evenodd"/>
<g id="Layer-1" data-name="P">
<clipPath id="cp321">
<path transform="matrix(1,0,0,-1,0,841.5)" d="M .0000172 0 L 1154.25 0 L 1154.25 841.5 L .0000172 841.5 Z " fill-rule="evenodd"/>
</clipPath>
<g clip-path="url(#cp321)">
<text xml:space="preserve" transform="matrix(1 0 -0 1 0 841.5)" font-size="11.275" font-family="ArialNarrow" font-weight="bold"><tspan y="-478.8" x="76.55 81.80415 85.547458 90.801609 96.04449 99.78779 105.04194 110.29609 116.28311">orderung </tspan></text>
</g>
</g>
<g id="Layer-1" data-name="P">
<clipPath id="cp322">
<path transform="matrix(1,0,0,-1,0,841.5)" d="M .0000172 0 L 1154.25 0 L 1154.25 841.5 L .0000172 841.5 Z " fill-rule="evenodd"/>
</clipPath>
<g clip-path="url(#cp322)">
<text xml:space="preserve" transform="matrix(1 0 -0 1 0 841.5)" font-size="11.25" font-family="ArialNarrow" font-weight="bold"><tspan y="-465.58" x="70.525 75.7675 81.021259 86.263759 89.26751 94.52126 102.75626 107.25626 110.991268">customers</tspan></text>
</g>
</g>
<path transform="matrix(1,0,0,-1,0,841.5)" d="M 65.661 249.18 L 116.685 249.18 L 116.685 274.327 L 65.661 274.327 Z " fill="#ffffff" fill-rule="evenodd"/>
<g id="Layer-1" data-name="P">
<clipPath id="cp323">
<path transform="matrix(1,0,0,-1,0,841.5)" d="M .0000172 0 L 1154.25 0 L 1154.25 841.5 L .0000172 841.5 Z " fill-rule="evenodd"/>
</clipPath>
<g clip-path="url(#cp323)">
<text xml:space="preserve" transform="matrix(1 0 -0 1 0 841.5)" font-size="11.25" font-family="ArialNarrow" font-weight="bold"><tspan y="-271.15" x="73.625 78.8675 83.3675 88.61 93.8525 99.106258 102.11001 107.35251 112.60626">accepted </tspan></text>
</g>
</g>
<g id="Layer-1" data-name="P">
<clipPath id="cp324">
<path transform="matrix(1,0,0,-1,0,841.5)" d="M .0000172 0 L 1154.25 0 L 1154.25 841.5 L .0000172 841.5 Z " fill-rule="evenodd"/>
</clipPath>
<g clip-path="url(#cp324)">
<text xml:space="preserve" transform="matrix(1 0 -0 1 0 841.5)" font-size="11.275" font-family="ArialNarrow" font-weight="bold"><tspan y="-257.95" x="83.65 88.90415 94.14703 99.389919 102.38907 107.63195 109.886959 112.87483">overall </tspan></text>
</g>
</g>
<g id="Layer-1" data-name="P">
<clipPath id="cp325">
<path transform="matrix(1,0,0,-1,0,841.5)" d="M .0000172 0 L 1154.25 0 L 1154.25 841.5 L .0000172 841.5 Z " fill-rule="evenodd"/>
</clipPath>
<g clip-path="url(#cp325)">
<text xml:space="preserve" transform="matrix(1 0 -0 1 0 841.5)" font-size="11.25" font-family="ArialNarrow" font-weight="bold"><tspan y="-244.72" x="78.625 83.90125 89.16625 91.41625 94.40875 98.93125 104.19625 107.965007">delivery</tspan></text>
</g>
</g>
<path transform="matrix(1,0,0,-1,0,841.5)" stroke-width=".75" stroke-linecap="round" stroke-linejoin="round" fill="none" stroke="#000000" d="M 720.97 253.44 L 749.316 253.44 L 749.316 353.361 L 720.97 353.361 Z "/>
<g id="Layer-1" data-name="P">
<clipPath id="cp326">
<path transform="matrix(1,0,0,-1,0,841.5)" d="M .0000172 0 L 1154.25 0 L 1154.25 841.5 L .0000172 841.5 Z " fill-rule="evenodd"/>
</clipPath>
<g clip-path="url(#cp326)">
<text xml:space="preserve" transform="matrix(1 0 -0 1 0 841.5)" font-size="11.25" font-family="ArialNarrow" font-weight="bold" font-style="italic"><tspan y="-312.3" x="721.2 724.20376 727.9387 732.4387 735.4312 740.68496 745.93869 748.9424">freight </tspan></text>
</g>
</g>
<g id="Layer-1" data-name="P">
<clipPath id="cp327">
<path transform="matrix(1,0,0,-1,0,841.5)" d="M .0000172 0 L 1154.25 0 L 1154.25 841.5 L .0000172 841.5 Z " fill-rule="evenodd"/>
</clipPath>
<g clip-path="url(#cp327)">
<text xml:space="preserve" transform="matrix(1 0 -0 1 0 841.5)" font-size="11.275" font-family="ArialNarrow" font-weight="bold" font-style="italic"><tspan y="-299.1" x="711.9 714.9217 720.1984 723.9643 730.74057 736.006 739.77188 745.0486 750.314 753.33578">forwarders</tspan></text>
</g>
</g>
<path transform="matrix(1,0,0,-1,0,841.5)" stroke-width="1.5" stroke-linecap="round" stroke-linejoin="round" fill="none" stroke="#000000" d="M 182.72 263.26 L 464.22 263.26 "/>
<path transform="matrix(1,0,0,-1,0,841.5)" d="M 183.73 259.24 L 171.67 263.26 L 183.73 267.28 L 183.73 259.24 Z " fill-rule="evenodd"/>
<path transform="matrix(1,0,0,-1,0,841.5)" d="M 414.32 252.29 L 490.289 252.29 L 490.289 277.43699 L 414.32 277.43699 Z " fill="#ffffff" fill-rule="evenodd"/>
<g id="Layer-1" data-name="P">
<clipPath id="cp328">
<path transform="matrix(1,0,0,-1,0,841.5)" d="M .0000172 0 L 1154.25 0 L 1154.25 841.5 L .0000172 841.5 Z " fill-rule="evenodd"/>
</clipPath>
<g clip-path="url(#cp328)">
<text xml:space="preserve" transform="matrix(1 0 -0 1 0 841.5)" font-size="11.25" font-family="ArialNarrow" font-weight="bold"><tspan y="-261.05" x="431.77 437.02375 442.26625 444.51625 447.50874 452.00874 457.25123 460.9862 463.2362 468.4787">deliveries</tspan></text>
</g>
</g>
<path transform="matrix(1,0,0,-1,0,841.5)" stroke-width="1.5" stroke-linecap="round" stroke-linejoin="round" fill="none" stroke="#000000" d="M 486.95 263.26 L 720.97 263.26 "/>
<path transform="matrix(1,0,0,-1,0,841.5)" d="M 487.95 259.24 L 475.89 263.26 L 487.95 267.28 L 487.95 259.24 Z " fill-rule="evenodd"/>
<path transform="matrix(1,0,0,-1,0,841.5)" stroke-width="1.5" stroke-linecap="round" stroke-linejoin="round" fill="none" stroke="#000000" d="M 693.46 335.14 L 710.2 335.14 "/>
<path transform="matrix(1,0,0,-1,0,841.5)" d="M 709.2 339.16 L 721.26 335.14 L 709.2 331.12 L 709.2 339.16 Z " fill-rule="evenodd"/>
<path transform="matrix(1,0,0,-1,0,841.5)" stroke-width=".75" stroke-linecap="round" stroke-linejoin="round" fill="none" stroke="#000000" d="M 717.53 395.61 L 745.87606 395.61 L 745.87606 490.57099 L 717.53 490.57099 Z "/>
<g id="Layer-1" data-name="P">
<clipPath id="cp329">
<path transform="matrix(1,0,0,-1,0,841.5)" d="M .0000172 0 L 1154.25 0 L 1154.25 841.5 L .0000172 841.5 Z " fill-rule="evenodd"/>
</clipPath>
<g clip-path="url(#cp329)">
<text xml:space="preserve" transform="matrix(1 0 -0 1 0 841.5)" font-size="11.25" font-family="ArialNarrow" font-weight="bold" font-style="italic"><tspan y="-444" x="714.38 719.6225 724.8762 730.12997 736.1149 738.3649 740.6149 745.8574">supplier</tspan></text>
</g>
</g>
<path transform="matrix(1,0,0,-1,0,841.5)" stroke-width="1.5" stroke-linecap="round" stroke-linejoin="round" fill="none" stroke="#000000" d="M 687.46 477.73 L 706.47 477.73 "/>
<path transform="matrix(1,0,0,-1,0,841.5)" d="M 705.47 481.75 L 717.53 477.73 L 705.47 473.71 L 705.47 481.75 Z " fill-rule="evenodd"/>
<path transform="matrix(1,0,0,-1,0,841.5)" stroke-width="1.5" stroke-linecap="round" stroke-linejoin="round" fill="none" stroke="#000000" d="M 704.73 406.58 L 717.79 406.58 "/>
<path transform="matrix(1,0,0,-1,0,841.5)" d="M 705.74 402.56 L 693.68 406.58 L 705.74 410.6 L 705.74 402.56 Z " fill-rule="evenodd"/>
</g>
</g>
</svg>
