<?xml version="1.0" encoding="UTF-8" standalone="no"?>
<!DOCTYPE svg PUBLIC "-//W3C//DTD SVG 1.1//EN" "http://www.w3.org/Graphics/SVG/1.1/DTD/svg11.dtd">
<svg xmlns="http://www.w3.org/2000/svg" xmlns:xlink="http://www.w3.org/1999/xlink" version="1.1" width="1154.25pt" height="841.5pt" viewBox="0 0 1154.25 841.5">
<g enable-background="new">
<g>
<path transform="matrix(1,0,0,-1,0,841.5)" d="M 621.9 527.5 L 679.89907 527.5 L 679.89907 552.647 L 621.9 552.647 Z " fill="#ffffff" fill-rule="evenodd"/>
<g id="Layer-1" data-name="P">
<clipPath id="cp146">
<path transform="matrix(1,0,0,-1,0,841.5)" d="M .0000172 0 L 1154.25 0 L 1154.25 841.5 L .0000172 841.5 Z " fill-rule="evenodd"/>
</clipPath>
<g clip-path="url(#cp146)">
<text xml:space="preserve" transform="matrix(1 0 -0 1 0 841.5)" font-size="11.25" font-family="ArialNarrow" font-weight="bold"><tspan y="-543.1" x="637.23 640.2337 645.4874 648.4799 651.48367 654.48739 659.72988 661.97988 667.96487 673.21859 676.2223">to freight </tspan></text>
</g>
</g>
<g id="Layer-1" data-name="P">
<clipPath id="cp147">
<path transform="matrix(1,0,0,-1,0,841.5)" d="M .0000172 0 L 1154.25 0 L 1154.25 841.5 L .0000172 841.5 Z " fill-rule="evenodd"/>
</clipPath>
<g clip-path="url(#cp147)">
<text xml:space="preserve" transform="matrix(1 0 -0 1 0 841.5)" font-size="11.25" font-family="ArialNarrow" font-weight="bold"><tspan y="-529.9" x="629.7 632.70376 637.95748 641.69247 648.44247 653.68496 657.4199 662.67367 667.91616 670.91989">forwarders</tspan></text>
</g>
</g>
<path transform="matrix(1,0,0,-1,0,841.5)" d="M 626.86 599.96 L 682.02499 599.96 L 682.02499 621.469 L 626.86 621.469 Z " fill="#ffffff" fill-rule="evenodd"/>
<g id="Layer-1" data-name="P">
<clipPath id="cp148">
<path transform="matrix(1,0,0,-1,0,841.5)" d="M .0000172 0 L 1154.25 0 L 1154.25 841.5 L .0000172 841.5 Z " fill-rule="evenodd"/>
</clipPath>
<g clip-path="url(#cp148)">
<text xml:space="preserve" transform="matrix(1 0 -0 1 0 841.5)" font-size="11.25" font-family="ArialNarrow" font-weight="bold"><tspan y="-613.8" x="640.35 645.6262 651.64498 656.9212 662.19747 667.46249 669.71249 672.7162 678.7349">goods to </tspan></text>
</g>
</g>
<g id="Layer-1" data-name="P">
<clipPath id="cp149">
<path transform="matrix(1,0,0,-1,0,841.5)" d="M .0000172 0 L 1154.25 0 L 1154.25 841.5 L .0000172 841.5 Z " fill-rule="evenodd"/>
</clipPath>
<g clip-path="url(#cp149)">
<text xml:space="preserve" transform="matrix(1 0 -0 1 0 841.5)" font-size="11.25" font-family="ArialNarrow" font-weight="bold"><tspan y="-600.6" x="631.3 638.07247 643.31497 647.0499 651.5499 657.5349 662.78866 668.04238 673.28488">warehouse</tspan></text>
</g>
</g>
<clipPath id="cp150">
<path transform="matrix(1,0,0,-1,0,841.5)" d="M -.000061035 841.5 L 1154.25 841.5 L 1154.25 .00018311 L -.000091553 .00018311 " fill-rule="evenodd"/>
</clipPath>
<g clip-path="url(#cp150)">
<path transform="matrix(1,0,0,-1,0,841.5)" stroke-width="1.5" stroke-linecap="round" stroke-linejoin="round" fill="none" stroke="#000000" d="M 437.74 681.99 L 626.38 681.19 "/>
</g>
<clipPath id="cp151">
<path transform="matrix(1,0,0,-1,0,841.5)" d="M -.000061035 841.5 L 1154.25 841.5 L 1154.25 .00018311 L -.000091553 .00018311 " fill-rule="evenodd"/>
</clipPath>
<g clip-path="url(#cp151)">
<path transform="matrix(1,0,0,-1,0,841.5)" d="M 625.39 685.22 L 637.44 681.15 L 625.36 677.18 L 625.39 685.22 Z " fill-rule="evenodd"/>
</g>
<path transform="matrix(1,0,0,-1,0,841.5)" stroke-width="1.5" stroke-linecap="round" stroke-linejoin="round" fill="none" stroke="#000000" d="M 594.55 610.45 L 636.07 610.45 "/>
<path transform="matrix(1,0,0,-1,0,841.5)" d="M 595.55 606.43 L 583.49 610.45 L 595.55 614.47 L 595.55 606.43 Z " fill-rule="evenodd"/>
<path transform="matrix(1,0,0,-1,0,841.5)" stroke-width="1.5" stroke-linecap="round" stroke-linejoin="round" fill="none" stroke="#000000" d="M 584.08 539.83 L 625.02 539.83 "/>
<path transform="matrix(1,0,0,-1,0,841.5)" d="M 624.01 543.85 L 636.07 539.83 L 624.01 535.81 L 624.01 543.85 Z " fill-rule="evenodd"/>
<g id="Layer-1" data-name="P">
<clipPath id="cp152">
<path transform="matrix(1,0,0,-1,0,841.5)" d="M .0000172 0 L 1154.25 0 L 1154.25 841.5 L .0000172 841.5 Z " fill-rule="evenodd"/>
</clipPath>
<g clip-path="url(#cp152)">
<text xml:space="preserve" transform="matrix(1 0 -0 1 0 841.5)" font-size="12" font-family="ArialNarrow" font-weight="bold" font-style="italic"><tspan y="-592.9" x="556.33 563.83 569.818 573.562">ware</tspan></text>
</g>
</g>
<g id="Layer-1" data-name="P">
<clipPath id="cp153">
<path transform="matrix(1,0,0,-1,0,841.5)" d="M .0000172 0 L 1154.25 0 L 1154.25 841.5 L .0000172 841.5 Z " fill-rule="evenodd"/>
</clipPath>
<g clip-path="url(#cp153)">
<text xml:space="preserve" transform="matrix(1 0 -0 1 0 841.5)" font-size="12" font-family="ArialNarrow" font-weight="bold" font-style="italic"><tspan y="-592.9" x="578.78">-</tspan></text>
</g>
</g>
<g id="Layer-1" data-name="P">
<clipPath id="cp154">
<path transform="matrix(1,0,0,-1,0,841.5)" d="M .0000172 0 L 1154.25 0 L 1154.25 841.5 L .0000172 841.5 Z " fill-rule="evenodd"/>
</clipPath>
<g clip-path="url(#cp154)">
<text xml:space="preserve" transform="matrix(1 0 -0 1 0 841.5)" font-size="12" font-family="ArialNarrow" font-weight="bold" font-style="italic"><tspan y="-592.9" x="582.05"> </tspan></text>
</g>
</g>
<g id="Layer-1" data-name="P">
<clipPath id="cp155">
<path transform="matrix(1,0,0,-1,0,841.5)" d="M .0000172 0 L 1154.25 0 L 1154.25 841.5 L .0000172 841.5 Z " fill-rule="evenodd"/>
</clipPath>
<g clip-path="url(#cp155)">
<text xml:space="preserve" transform="matrix(1 0 -0 1 0 841.5)" font-size="12.025" font-family="ArialNarrow" font-weight="bold" font-style="italic"><tspan y="-578.5" x="554.7 560.72457 566.701 572.7255 577.9564">house</tspan></text>
</g>
</g>
<path transform="matrix(1,0,0,-1,0,841.5)" stroke-width="1.5" stroke-linecap="round" stroke-linejoin="round" fill="none" stroke="#000000" d="M 369.62 682.07 L 397.26 682.07 "/>
<path transform="matrix(1,0,0,-1,0,841.5)" d="M 396.26 686.09 L 408.32 682.07 L 396.26 678.05 L 396.26 686.09 Z " fill-rule="evenodd"/>
<path transform="matrix(1,0,0,-1,0,841.5)" stroke-width="1.5" stroke-linecap="round" stroke-linejoin="round" fill="none" stroke="#000000" d="M 393.42 611.19 L 408.32 611.19 "/>
<path transform="matrix(1,0,0,-1,0,841.5)" d="M 394.43 607.17 L 382.37 611.19 L 394.43 615.21 L 394.43 607.17 Z " fill-rule="evenodd"/>
<path transform="matrix(1,0,0,-1,0,841.5)" stroke-width=".75" stroke-linecap="round" stroke-linejoin="round" fill="none" stroke="#000000" d="M 409.4 595.62 L 437.746 595.62 L 437.746 695.541 L 409.4 695.541 Z "/>
<g id="Layer-1" data-name="P">
<clipPath id="cp156">
<path transform="matrix(1,0,0,-1,0,841.5)" d="M .0000172 0 L 1154.25 0 L 1154.25 841.5 L .0000172 841.5 Z " fill-rule="evenodd"/>
</clipPath>
<g clip-path="url(#cp156)">
<text xml:space="preserve" transform="matrix(1 0 -0 1 0 841.5)" font-size="12" font-family="ArialNarrow" font-weight="bold" font-style="italic"><tspan y="-657.92" x="400.27 403.258 409.27 414.502 419.746 425.758 429.49 435.50199 439.24598 444.48997">inventory </tspan></text>
</g>
</g>
<g id="Layer-1" data-name="P">
<clipPath id="cp157">
<path transform="matrix(1,0,0,-1,0,841.5)" d="M .0000172 0 L 1154.25 0 L 1154.25 841.5 L .0000172 841.5 Z " fill-rule="evenodd"/>
</clipPath>
<g clip-path="url(#cp157)">
<text xml:space="preserve" transform="matrix(1 0 -0 1 0 841.5)" font-size="12.025" font-family="ArialNarrow" font-weight="bold" font-style="italic"><tspan y="-643.53" x="392.08 401.06269 406.3176 412.34214 417.573 423.59754 429.56193 437.81108 443.7995 449.82405">management</tspan></text>
</g>
</g>
<path transform="matrix(1,0,0,-1,0,841.5)" stroke-width="1.5" stroke-linecap="round" stroke-linejoin="round" fill="none" stroke="#000000" d="M 290.54 682.12 L 313.21 682.12 "/>
<path transform="matrix(1,0,0,-1,0,841.5)" d="M 312.2 686.14 L 324.26 682.12 L 312.2 678.1 L 312.2 686.14 Z " fill-rule="evenodd"/>
<path transform="matrix(1,0,0,-1,0,841.5)" stroke-width="1.5" stroke-linecap="round" stroke-linejoin="round" fill="none" stroke="#000000" d="M 301.59 611.24 L 321.43 611.24 "/>
<path transform="matrix(1,0,0,-1,0,841.5)" d="M 302.6 607.22 L 290.54 611.24 L 302.6 615.26 L 302.6 607.22 Z " fill-rule="evenodd"/>
<path transform="matrix(1,0,0,-1,0,841.5)" stroke-width="1.5" stroke-linecap="round" stroke-linejoin="round" fill="none" stroke="#000000" d="M 437.65 539.83 L 544.18 539.83 "/>
<path transform="matrix(1,0,0,-1,0,841.5)" d="M 543.17 543.85 L 555.23 539.83 L 543.17 535.81 L 543.17 543.85 Z " fill-rule="evenodd"/>
<path transform="matrix(1,0,0,-1,0,841.5)" stroke-width="1.5" stroke-linecap="round" stroke-linejoin="round" fill="none" stroke="#000000" d="M 227.25 540.37 L 262.19 540.37 "/>
<path transform="matrix(1,0,0,-1,0,841.5)" d="M 228.26 536.35 L 216.2 540.37 L 228.26 544.39 L 228.26 536.35 Z " fill-rule="evenodd"/>
<path transform="matrix(1,0,0,-1,0,841.5)" stroke-width="1.5" stroke-linecap="round" stroke-linejoin="round" fill="none" stroke="#000000" d="M 205.5 682.08 L 251.14 682.08 "/>
<path transform="matrix(1,0,0,-1,0,841.5)" d="M 250.13 686.1 L 262.19 682.08 L 250.13 678.06 L 250.13 686.1 Z " fill-rule="evenodd"/>
<path transform="matrix(1,0,0,-1,0,841.5)" stroke-width=".75" stroke-linecap="round" stroke-linejoin="round" fill="none" stroke="#000000" d="M 262.19 525.42 L 290.536 525.42 L 290.536 696.14 L 262.19 696.14 Z "/>
<g id="Layer-1" data-name="P">
<clipPath id="cp158">
<path transform="matrix(1,0,0,-1,0,841.5)" d="M .0000172 0 L 1154.25 0 L 1154.25 841.5 L .0000172 841.5 Z " fill-rule="evenodd"/>
</clipPath>
<g clip-path="url(#cp158)">
<text xml:space="preserve" transform="matrix(1 0 -0 1 0 841.5)" font-size="11.275" font-family="ArialNarrow" font-weight="bold"><tspan y="-685.47" x="327.4 331.14329 335.642 341.62904 346.88319 352.12605 356.62477 359.6239 364.86677 370.1209">requested </tspan></text>
</g>
</g>
<g id="Layer-1" data-name="P">
<clipPath id="cp159">
<path transform="matrix(1,0,0,-1,0,841.5)" d="M .0000172 0 L 1154.25 0 L 1154.25 841.5 L .0000172 841.5 Z " fill-rule="evenodd"/>
</clipPath>
<g clip-path="url(#cp159)">
<text xml:space="preserve" transform="matrix(1 0 -0 1 0 841.5)" font-size="11.25" font-family="ArialNarrow" font-weight="bold"><tspan y="-672.25" x="322.13 325.865 330.365 335.60749 340.84999 343.85374 349.09623 354.3387 357.34248 359.59248 364.84623 370.83125">reservations</tspan></text>
</g>
</g>
<g id="Layer-1" data-name="P">
<clipPath id="cp160">
<path transform="matrix(1,0,0,-1,0,841.5)" d="M .0000172 0 L 1154.25 0 L 1154.25 841.5 L .0000172 841.5 Z " fill-rule="evenodd"/>
</clipPath>
<g clip-path="url(#cp160)">
<text xml:space="preserve" transform="matrix(1 0 -0 1 0 841.5)" font-size="11.275" font-family="ArialNarrow" font-weight="bold"><tspan y="-614.72" x="334.27 339.52415 343.26744 348.51029 353.76445 356.76359 362.00645 367.2606">granted </tspan></text>
</g>
</g>
<g id="Layer-1" data-name="P">
<clipPath id="cp161">
<path transform="matrix(1,0,0,-1,0,841.5)" d="M .0000172 0 L 1154.25 0 L 1154.25 841.5 L .0000172 841.5 Z " fill-rule="evenodd"/>
</clipPath>
<g clip-path="url(#cp161)">
<text xml:space="preserve" transform="matrix(1 0 -0 1 0 841.5)" font-size="11.25" font-family="ArialNarrow" font-weight="bold"><tspan y="-601.5" x="326.48 330.215 334.715 339.9575 345.19999 348.20375 353.44624 356.44999 358.69999 364.685 369.93876">reservtions</tspan></text>
</g>
</g>
<g id="Layer-1" data-name="P">
<clipPath id="cp162">
<path transform="matrix(1,0,0,-1,0,841.5)" d="M .0000172 0 L 1154.25 0 L 1154.25 841.5 L .0000172 841.5 Z " fill-rule="evenodd"/>
</clipPath>
<g clip-path="url(#cp162)">
<text xml:space="preserve" transform="matrix(1 0 -0 1 0 841.5)" font-size="12" font-family="ArialNarrow" font-weight="bold" font-style="italic"><tspan y="-643.88" x="263.98 269.992 273.736 279.748 284.97999 289.468">order </tspan></text>
</g>
</g>
<g id="Layer-1" data-name="P">
<clipPath id="cp163">
<path transform="matrix(1,0,0,-1,0,841.5)" d="M .0000172 0 L 1154.25 0 L 1154.25 841.5 L .0000172 841.5 Z " fill-rule="evenodd"/>
</clipPath>
<g clip-path="url(#cp163)">
<text xml:space="preserve" transform="matrix(1 0 -0 1 0 841.5)" font-size="12.025" font-family="ArialNarrow" font-weight="bold" font-style="italic"><tspan y="-629.47" x="246.18 255.16266 260.41758 266.4421 271.67298 277.6975 283.6619 291.91105 297.89949 303.924">management</tspan></text>
</g>
</g>
<path transform="matrix(1,0,0,-1,0,841.5)" stroke-width=".75" stroke-linecap="round" stroke-linejoin="round" fill="none" stroke="#000000" d="M 239.22 511.56 L 607.72 511.56 L 607.72 709 L 239.22 709 Z "/>
<g id="Layer-1" data-name="P">
<clipPath id="cp164">
<path transform="matrix(1,0,0,-1,0,841.5)" d="M .0000172 0 L 1154.25 0 L 1154.25 841.5 L .0000172 841.5 Z " fill-rule="evenodd"/>
</clipPath>
<g clip-path="url(#cp164)">
<text xml:space="preserve" transform="matrix(1 0 -0 1 0 841.5)" font-size="12.025" font-family="ArialNarrow" font-weight="bold" font-style="italic"><tspan y="-694.58" x="551.7 555.45187 560.7068 564.4466 569.70156 572.6837 574.9324 580.92086">retailer</tspan></text>
</g>
</g>
<path transform="matrix(1,0,0,-1,0,841.5)" stroke-width=".75" stroke-linecap="round" stroke-linejoin="round" fill="none" stroke="#000000" d="M 555.23 525.28 L 583.407 525.28 L 583.407 625.20108 L 555.23 625.20108 Z "/>
<path transform="matrix(1,0,0,-1,0,841.5)" stroke-width="1.5" stroke-linecap="round" stroke-linejoin="round" fill="none" stroke="#000000" d="M 536.58 610.94 L 555.43 610.94 "/>
<path transform="matrix(1,0,0,-1,0,841.5)" d="M 537.58 606.92 L 525.52 610.94 L 537.58 614.96 L 537.58 606.92 Z " fill-rule="evenodd"/>
<path transform="matrix(1,0,0,-1,0,841.5)" stroke-width="1.5" stroke-linecap="round" stroke-linejoin="round" fill="none" stroke="#000000" d="M 448.7 610.99 L 477.33 610.99 "/>
<path transform="matrix(1,0,0,-1,0,841.5)" d="M 449.71 606.97 L 437.65 610.99 L 449.71 615.01 L 449.71 606.97 Z " fill-rule="evenodd"/>
<path transform="matrix(1,0,0,-1,0,841.5)" d="M 176.86 668.81 L 227.884 668.81 L 227.884 692.504 L 176.86 692.504 Z " fill="#ffffff" fill-rule="evenodd"/>
<g id="Layer-1" data-name="P">
<clipPath id="cp165">
<path transform="matrix(1,0,0,-1,0,841.5)" d="M .0000172 0 L 1154.25 0 L 1154.25 841.5 L .0000172 841.5 Z " fill-rule="evenodd"/>
</clipPath>
<g clip-path="url(#cp165)">
<text xml:space="preserve" transform="matrix(1 0 -0 1 0 841.5)" font-size="11.275" font-family="ArialNarrow" font-weight="bold"><tspan y="-683.83" x="180.98 186.23415 192.22118 195.22032 200.4632 205.71735 210.96022 216.2031 220.70183">purchase </tspan></text>
</g>
</g>
<g id="Layer-1" data-name="P">
<clipPath id="cp166">
<path transform="matrix(1,0,0,-1,0,841.5)" d="M .0000172 0 L 1154.25 0 L 1154.25 841.5 L .0000172 841.5 Z " fill-rule="evenodd"/>
</clipPath>
<g clip-path="url(#cp166)">
<text xml:space="preserve" transform="matrix(1 0 -0 1 0 841.5)" font-size="11.25" font-family="ArialNarrow" font-weight="bold"><tspan y="-670.6" x="180.98 186.23374 189.96874 195.22248 200.46498 204.19998">orders</tspan></text>
</g>
</g>
<path transform="matrix(1,0,0,-1,0,841.5)" d="M 176.86 528.17 L 216.195 528.17 L 216.195 553.31698 L 176.86 553.31698 Z " fill="#ffffff" fill-rule="evenodd"/>
<g id="Layer-1" data-name="P">
<clipPath id="cp167">
<path transform="matrix(1,0,0,-1,0,841.5)" d="M .0000172 0 L 1154.25 0 L 1154.25 841.5 L .0000172 841.5 Z " fill-rule="evenodd"/>
</clipPath>
<g clip-path="url(#cp167)">
<text xml:space="preserve" transform="matrix(1 0 -0 1 0 841.5)" font-size="11.25" font-family="ArialNarrow" font-weight="bold"><tspan y="-543.78" x="180.98 189.215 193.715 198.9575">mess</tspan></text>
</g>
</g>
<g id="Layer-1" data-name="P">
<clipPath id="cp168">
<path transform="matrix(1,0,0,-1,0,841.5)" d="M .0000172 0 L 1154.25 0 L 1154.25 841.5 L .0000172 841.5 Z " fill-rule="evenodd"/>
</clipPath>
<g clip-path="url(#cp168)">
<text xml:space="preserve" transform="matrix(1 0 -0 1 0 841.5)" font-size="11.25" font-family="ArialNarrow" font-weight="bold"><tspan y="-543.78" x="204.08">-</tspan></text>
</g>
</g>
<g id="Layer-1" data-name="P">
<clipPath id="cp169">
<path transform="matrix(1,0,0,-1,0,841.5)" d="M .0000172 0 L 1154.25 0 L 1154.25 841.5 L .0000172 841.5 Z " fill-rule="evenodd"/>
</clipPath>
<g clip-path="url(#cp169)">
<text xml:space="preserve" transform="matrix(1 0 -0 1 0 841.5)" font-size="11.275" font-family="ArialNarrow" font-weight="bold"><tspan y="-530.58" x="180.98 186.22287 191.47702 196.7199">ages</tspan></text>
</g>
</g>
<path transform="matrix(1,0,0,-1,0,841.5)" d="M 409.1 527.5 L 455.163 527.5 L 455.163 552.647 L 409.1 552.647 Z " fill="#ffffff" fill-rule="evenodd"/>
<g id="Layer-1" data-name="P">
<clipPath id="cp170">
<path transform="matrix(1,0,0,-1,0,841.5)" d="M .0000172 0 L 1154.25 0 L 1154.25 841.5 L .0000172 841.5 Z " fill-rule="evenodd"/>
</clipPath>
<g clip-path="url(#cp170)">
<text xml:space="preserve" transform="matrix(1 0 -0 1 0 841.5)" font-size="11.25" font-family="ArialNarrow" font-weight="bold"><tspan y="-543.1" x="419.13 424.38377 429.62626 433.36125 437.86125 443.10374 445.35374">parcel </tspan></text>
</g>
</g>
<g id="Layer-1" data-name="P">
<clipPath id="cp171">
<path transform="matrix(1,0,0,-1,0,841.5)" d="M .0000172 0 L 1154.25 0 L 1154.25 841.5 L .0000172 841.5 Z " fill-rule="evenodd"/>
</clipPath>
<g clip-path="url(#cp171)">
<text xml:space="preserve" transform="matrix(1 0 -0 1 0 841.5)" font-size="11.25" font-family="ArialNarrow" font-weight="bold"><tspan y="-529.9" x="418.38 423.63377 427.36875 432.6225 437.865 441.59999">orders</tspan></text>
</g>
</g>
<g id="Layer-1" data-name="P">
<clipPath id="cp172">
<path transform="matrix(1,0,0,-1,0,841.5)" d="M .0000172 0 L 1154.25 0 L 1154.25 841.5 L .0000172 841.5 Z " fill-rule="evenodd"/>
</clipPath>
<g clip-path="url(#cp172)">
<text xml:space="preserve" transform="matrix(1 0 -0 1 0 841.5)" font-size="11.275" font-family="ArialNarrow" font-weight="bold"><tspan y="-610.88" x="469.72 474.96287 479.46159 484.70445 489.9586 495.94563 502.69935 504.95436 510.1972 516.18429 521.4384 526.68136 531.9355">acknowledged </tspan></text>
</g>
</g>
<g id="Layer-1" data-name="P">
<clipPath id="cp173">
<path transform="matrix(1,0,0,-1,0,841.5)" d="M .0000172 0 L 1154.25 0 L 1154.25 841.5 L .0000172 841.5 Z " fill-rule="evenodd"/>
</clipPath>
<g clip-path="url(#cp173)">
<text xml:space="preserve" transform="matrix(1 0 -0 1 0 841.5)" font-size="11.25" font-family="ArialNarrow" font-weight="bold"><tspan y="-597.65" x="483.5 487.26875 491.79124 497.05625 502.32127 504.57127 509.84754 512.85128">receipts</tspan></text>
</g>
</g>
<path transform="matrix(1,0,0,-1,0,841.5)" d="M 637.44 669.32 L 683.503 669.32 L 683.503 694.467 L 637.44 694.467 Z " fill="#ffffff" fill-rule="evenodd"/>
<g id="Layer-1" data-name="P">
<clipPath id="cp174">
<path transform="matrix(1,0,0,-1,0,841.5)" d="M .0000172 0 L 1154.25 0 L 1154.25 841.5 L .0000172 841.5 Z " fill-rule="evenodd"/>
</clipPath>
<g clip-path="url(#cp174)">
<text xml:space="preserve" transform="matrix(1 0 -0 1 0 841.5)" font-size="11.25" font-family="ArialNarrow" font-weight="bold"><tspan y="-685.05" x="644.83 650.0725 655.32626 660.57998 666.56497 668.81497 671.06497 676.30746 680.0424">supplier </tspan></text>
</g>
</g>
<g id="Layer-1" data-name="P">
<clipPath id="cp175">
<path transform="matrix(1,0,0,-1,0,841.5)" d="M .0000172 0 L 1154.25 0 L 1154.25 841.5 L .0000172 841.5 Z " fill-rule="evenodd"/>
</clipPath>
<g clip-path="url(#cp175)">
<text xml:space="preserve" transform="matrix(1 0 -0 1 0 841.5)" font-size="11.275" font-family="ArialNarrow" font-weight="bold"><tspan y="-671.85" x="651.85 657.1041 660.8474 666.10159 671.3445 675.08779">orders</tspan></text>
</g>
</g>
<path transform="matrix(1,0,0,-1,0,841.5)" stroke-width="1.5" stroke-linecap="round" stroke-linejoin="round" fill="none" stroke="#000000" d="M 290.54 539.41 L 401.08 539.41 "/>
<path transform="matrix(1,0,0,-1,0,841.5)" d="M 400.08 543.43 L 412.14 539.41 L 400.08 535.39 L 400.08 543.43 Z " fill-rule="evenodd"/>
<clipPath id="cp176">
<path transform="matrix(1,0,0,-1,0,841.5)" d="M -.000030518 841.5 L 1154.25 841.5 L 1154.25 .00018311 L -.000045776 .00018311 " fill-rule="evenodd"/>
</clipPath>
<g clip-path="url(#cp176)">
<path transform="matrix(1,0,0,-1,0,841.5)" stroke-width="1.5" stroke-linecap="round" stroke-linejoin="round" fill="none" stroke="#000000" d="M 153.52 678.99 L 164.25 679.18 "/>
</g>
<clipPath id="cp177">
<path transform="matrix(1,0,0,-1,0,841.5)" d="M -.000030518 841.5 L 1154.25 841.5 L 1154.25 .00018311 L -.000045776 .00018311 " fill-rule="evenodd"/>
</clipPath>
<g clip-path="url(#cp177)">
<path transform="matrix(1,0,0,-1,0,841.5)" d="M 163.17 683.18 L 175.3 679.37 L 163.31 675.14 L 163.17 683.18 Z " fill-rule="evenodd"/>
</g>
<path transform="matrix(1,0,0,-1,0,841.5)" d="M 126.93 451.17 L 155.276 451.17 L 155.276 693.23 L 126.93 693.23 Z " fill="#ffffff" fill-rule="evenodd"/>
<path transform="matrix(1,0,0,-1,0,841.5)" stroke-width=".75" stroke-linecap="round" stroke-linejoin="round" fill="none" stroke="#000000" d="M 126.93 451.17 L 155.276 451.17 L 155.276 693.23 L 126.93 693.23 Z "/>
<path transform="matrix(1,0,0,-1,0,841.5)" stroke-width="1.5" stroke-linecap="round" stroke-linejoin="round" fill="none" stroke="#000000" d="M 166.33 537.76 L 176.83 537.76 "/>
<path transform="matrix(1,0,0,-1,0,841.5)" d="M 167.34 533.73 L 155.28 537.76 L 167.34 541.78 L 167.34 533.73 Z " fill-rule="evenodd"/>
<g id="Layer-1" data-name="P">
<clipPath id="cp178">
<path transform="matrix(1,0,0,-1,0,841.5)" d="M .0000172 0 L 1154.25 0 L 1154.25 841.5 L .0000172 841.5 Z " fill-rule="evenodd"/>
</clipPath>
<g clip-path="url(#cp178)">
<text xml:space="preserve" transform="matrix(1 0 -0 1 0 841.5)" font-size="11.25" font-family="ArialNarrow" font-weight="bold" font-style="italic"><tspan y="-620.65" x="117.5 122.7425 127.996257 133.23876 136.2425 141.49623 149.73123 154.23123 157.96623">customers</tspan></text>
</g>
</g>
<clipPath id="cp179">
<path transform="matrix(1,0,0,-1,0,841.5)" d="M -.000015259 841.5 L 1154.25 841.5 L 1154.25 .00012207 L -.000015259 .00012207 " fill-rule="evenodd"/>
</clipPath>
<g clip-path="url(#cp179)">
<path transform="matrix(1,0,0,-1,0,841.5)" stroke-width="1.5" stroke-linecap="round" stroke-linejoin="round" fill="none" stroke="#000000" d="M 111.35 465.54 L 126.06 465.82 "/>
</g>
<clipPath id="cp180">
<path transform="matrix(1,0,0,-1,0,841.5)" d="M -.000015259 841.5 L 1154.25 841.5 L 1154.25 .00012207 L -.000015259 .00012207 " fill-rule="evenodd"/>
</clipPath>
<g clip-path="url(#cp180)">
<path transform="matrix(1,0,0,-1,0,841.5)" d="M 112.43 461.54 L 100.3 465.33 L 112.28 469.58 L 112.43 461.54 Z " fill-rule="evenodd"/>
</g>
<clipPath id="cp181">
<path transform="matrix(1,0,0,-1,0,841.5)" d="M -.000022888 841.5 L 1154.25 841.5 L 1154.25 .00018311 L -.000030518 .00012207 " fill-rule="evenodd"/>
</clipPath>
<g clip-path="url(#cp181)">
<path transform="matrix(1,0,0,-1,0,841.5)" stroke-width="1.5" stroke-linecap="round" stroke-linejoin="round" fill="none" stroke="#000000" d="M 104.56 679.27 L 115.62 679.28 "/>
</g>
<clipPath id="cp182">
<path transform="matrix(1,0,0,-1,0,841.5)" d="M -.000022888 841.5 L 1154.25 841.5 L 1154.25 .00018311 L -.000030518 .00012207 " fill-rule="evenodd"/>
</clipPath>
<g clip-path="url(#cp182)">
<path transform="matrix(1,0,0,-1,0,841.5)" d="M 114.61 683.3 L 126.67 679.29 L 114.62 675.26 L 114.61 683.3 Z " fill-rule="evenodd"/>
</g>
<path transform="matrix(1,0,0,-1,0,841.5)" d="M 43.602 668.02 L 103.696 668.02 L 103.696 691.714 L 43.602 691.714 Z " fill="#ffffff" fill-rule="evenodd"/>
<g id="Layer-1" data-name="P">
<clipPath id="cp183">
<path transform="matrix(1,0,0,-1,0,841.5)" d="M .0000172 0 L 1154.25 0 L 1154.25 841.5 L .0000172 841.5 Z " fill-rule="evenodd"/>
</clipPath>
<g clip-path="url(#cp183)">
<text xml:space="preserve" transform="matrix(1 0 -0 1 0 841.5)" font-size="11.25" font-family="ArialNarrow" font-weight="bold"><tspan y="-683.03" x="60.15 65.403759 69.138759 74.39251 79.63501 83.37001 88.623767 93.87752 99.86252">orderung </tspan></text>
</g>
</g>
<g id="Layer-1" data-name="P">
<clipPath id="cp184">
<path transform="matrix(1,0,0,-1,0,841.5)" d="M .0000172 0 L 1154.25 0 L 1154.25 841.5 L .0000172 841.5 Z " fill-rule="evenodd"/>
</clipPath>
<g clip-path="url(#cp184)">
<text xml:space="preserve" transform="matrix(1 0 -0 1 0 841.5)" font-size="11.275" font-family="ArialNarrow" font-weight="bold"><tspan y="-669.83" x="54.125 59.367876 64.622028 69.86491 72.86405 78.1182 86.33768 90.87023 94.61353">customers</tspan></text>
</g>
</g>
<path transform="matrix(1,0,0,-1,0,841.5)" d="M 49.272 453.24 L 100.296 453.24 L 100.296 478.387 L 49.272 478.387 Z " fill="#ffffff" fill-rule="evenodd"/>
<g id="Layer-1" data-name="P">
<clipPath id="cp185">
<path transform="matrix(1,0,0,-1,0,841.5)" d="M .0000172 0 L 1154.25 0 L 1154.25 841.5 L .0000172 841.5 Z " fill-rule="evenodd"/>
</clipPath>
<g clip-path="url(#cp185)">
<text xml:space="preserve" transform="matrix(1 0 -0 1 0 841.5)" font-size="11.275" font-family="ArialNarrow" font-weight="bold"><tspan y="-475.4" x="57.225 62.467874 66.9666 72.20948 77.45236 82.70651 85.70566 90.94854 96.20269">accepted </tspan></text>
</g>
</g>
<g id="Layer-1" data-name="P">
<clipPath id="cp186">
<path transform="matrix(1,0,0,-1,0,841.5)" d="M .0000172 0 L 1154.25 0 L 1154.25 841.5 L .0000172 841.5 Z " fill-rule="evenodd"/>
</clipPath>
<g clip-path="url(#cp186)">
<text xml:space="preserve" transform="matrix(1 0 -0 1 0 841.5)" font-size="11.25" font-family="ArialNarrow" font-weight="bold"><tspan y="-462.18" x="67.25 72.50375 77.746257 82.988758 85.99251 91.23501 93.48501 96.47751">overall </tspan></text>
</g>
</g>
<g id="Layer-1" data-name="P">
<clipPath id="cp187">
<path transform="matrix(1,0,0,-1,0,841.5)" d="M .0000172 0 L 1154.25 0 L 1154.25 841.5 L .0000172 841.5 Z " fill-rule="evenodd"/>
</clipPath>
<g clip-path="url(#cp187)">
<text xml:space="preserve" transform="matrix(1 0 -0 1 0 841.5)" font-size="11.275" font-family="ArialNarrow" font-weight="bold"><tspan y="-448.98" x="62.225 67.50169 72.76712 75.022129 78.01 82.53128 87.79671 91.56256">delivery</tspan></text>
</g>
</g>
<path transform="matrix(1,0,0,-1,0,841.5)" stroke-width=".75" stroke-linecap="round" stroke-linejoin="round" fill="none" stroke="#000000" d="M 704.58 457.5 L 732.926 457.5 L 732.926 557.421 L 704.58 557.421 Z "/>
<g id="Layer-1" data-name="P">
<clipPath id="cp188">
<path transform="matrix(1,0,0,-1,0,841.5)" d="M .0000172 0 L 1154.25 0 L 1154.25 841.5 L .0000172 841.5 Z " fill-rule="evenodd"/>
</clipPath>
<g clip-path="url(#cp188)">
<text xml:space="preserve" transform="matrix(1 0 -0 1 0 841.5)" font-size="11.275" font-family="ArialNarrow" font-weight="bold" font-style="italic"><tspan y="-516.55" x="704.8 707.79916 711.5424 716.04116 719.029 724.28317 729.5373 732.53646">freight </tspan></text>
</g>
</g>
<g id="Layer-1" data-name="P">
<clipPath id="cp189">
<path transform="matrix(1,0,0,-1,0,841.5)" d="M .0000172 0 L 1154.25 0 L 1154.25 841.5 L .0000172 841.5 Z " fill-rule="evenodd"/>
</clipPath>
<g clip-path="url(#cp189)">
<text xml:space="preserve" transform="matrix(1 0 -0 1 0 841.5)" font-size="11.25" font-family="ArialNarrow" font-weight="bold" font-style="italic"><tspan y="-503.32" x="695.5 698.5037 703.77999 707.5487 714.32119 719.5862 723.3549 728.63119 733.8962 736.8999">forwarders</tspan></text>
</g>
</g>
<path transform="matrix(1,0,0,-1,0,841.5)" stroke-width="1.5" stroke-linecap="round" stroke-linejoin="round" fill="none" stroke="#000000" d="M 166.33 467.32 L 447.83 467.32 "/>
<path transform="matrix(1,0,0,-1,0,841.5)" d="M 167.34 463.3 L 155.28 467.32 L 167.34 471.34 L 167.34 463.3 Z " fill-rule="evenodd"/>
<path transform="matrix(1,0,0,-1,0,841.5)" d="M 397.93 456.35 L 473.899 456.35 L 473.899 481.497 L 397.93 481.497 Z " fill="#ffffff" fill-rule="evenodd"/>
<g id="Layer-1" data-name="P">
<clipPath id="cp190">
<path transform="matrix(1,0,0,-1,0,841.5)" d="M .0000172 0 L 1154.25 0 L 1154.25 841.5 L .0000172 841.5 Z " fill-rule="evenodd"/>
</clipPath>
<g clip-path="url(#cp190)">
<text xml:space="preserve" transform="matrix(1 0 -0 1 0 841.5)" font-size="11.275" font-family="ArialNarrow" font-weight="bold"><tspan y="-465.3" x="415.38 420.63417 425.877 428.13203 431.1199 435.61863 440.86149 444.60478 446.85978 452.10264">deliveries</tspan></text>
</g>
</g>
<path transform="matrix(1,0,0,-1,0,841.5)" stroke-width="1.5" stroke-linecap="round" stroke-linejoin="round" fill="none" stroke="#000000" d="M 470.56 467.32 L 704.58 467.32 "/>
<path transform="matrix(1,0,0,-1,0,841.5)" d="M 471.56 463.3 L 459.5 467.32 L 471.56 471.34 L 471.56 463.3 Z " fill-rule="evenodd"/>
<path transform="matrix(1,0,0,-1,0,841.5)" stroke-width="1.5" stroke-linecap="round" stroke-linejoin="round" fill="none" stroke="#000000" d="M 677.07 539.2 L 693.81 539.2 "/>
<path transform="matrix(1,0,0,-1,0,841.5)" d="M 692.81 543.22 L 704.87 539.2 L 692.81 535.18 L 692.81 543.22 Z " fill-rule="evenodd"/>
<path transform="matrix(1,0,0,-1,0,841.5)" stroke-width=".75" stroke-linecap="round" stroke-linejoin="round" fill="none" stroke="#000000" d="M 701.14 599.67 L 729.486 599.67 L 729.486 694.631 L 701.14 694.631 Z "/>
<g id="Layer-1" data-name="P">
<clipPath id="cp191">
<path transform="matrix(1,0,0,-1,0,841.5)" d="M .0000172 0 L 1154.25 0 L 1154.25 841.5 L .0000172 841.5 Z " fill-rule="evenodd"/>
</clipPath>
<g clip-path="url(#cp191)">
<text xml:space="preserve" transform="matrix(1 0 -0 1 0 841.5)" font-size="11.275" font-family="ArialNarrow" font-weight="bold" font-style="italic"><tspan y="-648.25" x="697.98 703.2229 708.47708 713.7312 719.71829 721.97329 724.2283 729.4712">supplier</tspan></text>
</g>
</g>
<path transform="matrix(1,0,0,-1,0,841.5)" stroke-width="1.5" stroke-linecap="round" stroke-linejoin="round" fill="none" stroke="#000000" d="M 671.07 681.79 L 690.08 681.79 "/>
<path transform="matrix(1,0,0,-1,0,841.5)" d="M 689.08 685.81 L 701.14 681.79 L 689.08 677.77 L 689.08 685.81 Z " fill-rule="evenodd"/>
<path transform="matrix(1,0,0,-1,0,841.5)" stroke-width="1.5" stroke-linecap="round" stroke-linejoin="round" fill="none" stroke="#000000" d="M 688.34 610.64 L 701.4 610.64 "/>
<path transform="matrix(1,0,0,-1,0,841.5)" d="M 689.35 606.62 L 677.29 610.64 L 689.35 614.66 L 689.35 606.62 Z " fill-rule="evenodd"/>
<path transform="matrix(1,0,0,-1,0,841.5)" d="M 621.9 527.5 L 679.89907 527.5 L 679.89907 552.647 L 621.9 552.647 Z " fill="#ffffff" fill-rule="evenodd"/>
<g id="Layer-1" data-name="P">
<clipPath id="cp192">
<path transform="matrix(1,0,0,-1,0,841.5)" d="M .0000172 0 L 1154.25 0 L 1154.25 841.5 L .0000172 841.5 Z " fill-rule="evenodd"/>
</clipPath>
<g clip-path="url(#cp192)">
<text xml:space="preserve" transform="matrix(1 0 -0 1 0 841.5)" font-size="11.25" font-family="ArialNarrow" font-weight="bold"><tspan y="-543.1" x="637.23 640.2337 645.4874 648.4799 651.48367 654.48739 659.72988 661.97988 667.96487 673.21859 676.2223">to freight </tspan></text>
</g>
</g>
<g id="Layer-1" data-name="P">
<clipPath id="cp193">
<path transform="matrix(1,0,0,-1,0,841.5)" d="M .0000172 0 L 1154.25 0 L 1154.25 841.5 L .0000172 841.5 Z " fill-rule="evenodd"/>
</clipPath>
<g clip-path="url(#cp193)">
<text xml:space="preserve" transform="matrix(1 0 -0 1 0 841.5)" font-size="11.25" font-family="ArialNarrow" font-weight="bold"><tspan y="-529.9" x="629.7 632.70376 637.95748 641.69247 648.44247 653.68496 657.4199 662.67367 667.91616 670.91989">forwarders</tspan></text>
</g>
</g>
<path transform="matrix(1,0,0,-1,0,841.5)" d="M 626.86 599.96 L 682.02499 599.96 L 682.02499 621.469 L 626.86 621.469 Z " fill="#ffffff" fill-rule="evenodd"/>
<g id="Layer-1" data-name="P">
<clipPath id="cp194">
<path transform="matrix(1,0,0,-1,0,841.5)" d="M .0000172 0 L 1154.25 0 L 1154.25 841.5 L .0000172 841.5 Z " fill-rule="evenodd"/>
</clipPath>
<g clip-path="url(#cp194)">
<text xml:space="preserve" transform="matrix(1 0 -0 1 0 841.5)" font-size="11.25" font-family="ArialNarrow" font-weight="bold"><tspan y="-613.8" x="640.35 645.6262 651.64498 656.9212 662.19747 667.46249 669.71249 672.7162 678.7349">goods to </tspan></text>
</g>
</g>
<g id="Layer-1" data-name="P">
<clipPath id="cp195">
<path transform="matrix(1,0,0,-1,0,841.5)" d="M .0000172 0 L 1154.25 0 L 1154.25 841.5 L .0000172 841.5 Z " fill-rule="evenodd"/>
</clipPath>
<g clip-path="url(#cp195)">
<text xml:space="preserve" transform="matrix(1 0 -0 1 0 841.5)" font-size="11.25" font-family="ArialNarrow" font-weight="bold"><tspan y="-600.6" x="631.3 638.07247 643.31497 647.0499 651.5499 657.5349 662.78866 668.04238 673.28488">warehouse</tspan></text>
</g>
</g>
<clipPath id="cp196">
<path transform="matrix(1,0,0,-1,0,841.5)" d="M -.000061035 841.5 L 1154.25 841.5 L 1154.25 .00018311 L -.000091553 .00018311 " fill-rule="evenodd"/>
</clipPath>
<g clip-path="url(#cp196)">
<path transform="matrix(1,0,0,-1,0,841.5)" stroke-width="1.5" stroke-linecap="round" stroke-linejoin="round" fill="none" stroke="#000000" d="M 437.74 681.99 L 626.38 681.19 "/>
</g>
<clipPath id="cp197">
<path transform="matrix(1,0,0,-1,0,841.5)" d="M -.000061035 841.5 L 1154.25 841.5 L 1154.25 .00018311 L -.000091553 .00018311 " fill-rule="evenodd"/>
</clipPath>
<g clip-path="url(#cp197)">
<path transform="matrix(1,0,0,-1,0,841.5)" d="M 625.39 685.22 L 637.44 681.15 L 625.36 677.18 L 625.39 685.22 Z " fill-rule="evenodd"/>
</g>
<path transform="matrix(1,0,0,-1,0,841.5)" stroke-width="1.5" stroke-linecap="round" stroke-linejoin="round" fill="none" stroke="#000000" d="M 594.55 610.45 L 636.07 610.45 "/>
<path transform="matrix(1,0,0,-1,0,841.5)" d="M 595.55 606.43 L 583.49 610.45 L 595.55 614.47 L 595.55 606.43 Z " fill-rule="evenodd"/>
<path transform="matrix(1,0,0,-1,0,841.5)" stroke-width="1.5" stroke-linecap="round" stroke-linejoin="round" fill="none" stroke="#000000" d="M 584.08 539.83 L 625.02 539.83 "/>
<path transform="matrix(1,0,0,-1,0,841.5)" d="M 624.01 543.85 L 636.07 539.83 L 624.01 535.81 L 624.01 543.85 Z " fill-rule="evenodd"/>
<g id="Layer-1" data-name="P">
<clipPath id="cp198">
<path transform="matrix(1,0,0,-1,0,841.5)" d="M .0000172 0 L 1154.25 0 L 1154.25 841.5 L .0000172 841.5 Z " fill-rule="evenodd"/>
</clipPath>
<g clip-path="url(#cp198)">
<text xml:space="preserve" transform="matrix(1 0 -0 1 0 841.5)" font-size="12" font-family="ArialNarrow" font-weight="bold" font-style="italic"><tspan y="-592.9" x="556.33 563.83 569.818 573.562">ware</tspan></text>
</g>
</g>
<g id="Layer-1" data-name="P">
<clipPath id="cp199">
<path transform="matrix(1,0,0,-1,0,841.5)" d="M .0000172 0 L 1154.25 0 L 1154.25 841.5 L .0000172 841.5 Z " fill-rule="evenodd"/>
</clipPath>
<g clip-path="url(#cp199)">
<text xml:space="preserve" transform="matrix(1 0 -0 1 0 841.5)" font-size="12" font-family="ArialNarrow" font-weight="bold" font-style="italic"><tspan y="-592.9" x="578.78">-</tspan></text>
</g>
</g>
<g id="Layer-1" data-name="P">
<clipPath id="cp200">
<path transform="matrix(1,0,0,-1,0,841.5)" d="M .0000172 0 L 1154.25 0 L 1154.25 841.5 L .0000172 841.5 Z " fill-rule="evenodd"/>
</clipPath>
<g clip-path="url(#cp200)">
<text xml:space="preserve" transform="matrix(1 0 -0 1 0 841.5)" font-size="12" font-family="ArialNarrow" font-weight="bold" font-style="italic"><tspan y="-592.9" x="582.05"> </tspan></text>
</g>
</g>
<g id="Layer-1" data-name="P">
<clipPath id="cp201">
<path transform="matrix(1,0,0,-1,0,841.5)" d="M .0000172 0 L 1154.25 0 L 1154.25 841.5 L .0000172 841.5 Z " fill-rule="evenodd"/>
</clipPath>
<g clip-path="url(#cp201)">
<text xml:space="preserve" transform="matrix(1 0 -0 1 0 841.5)" font-size="12.025" font-family="ArialNarrow" font-weight="bold" font-style="italic"><tspan y="-578.5" x="554.7 560.72457 566.701 572.7255 577.9564">house</tspan></text>
</g>
</g>
<path transform="matrix(1,0,0,-1,0,841.5)" stroke-width="1.5" stroke-linecap="round" stroke-linejoin="round" fill="none" stroke="#000000" d="M 369.62 682.07 L 397.26 682.07 "/>
<path transform="matrix(1,0,0,-1,0,841.5)" d="M 396.26 686.09 L 408.32 682.07 L 396.26 678.05 L 396.26 686.09 Z " fill-rule="evenodd"/>
<path transform="matrix(1,0,0,-1,0,841.5)" stroke-width="1.5" stroke-linecap="round" stroke-linejoin="round" fill="none" stroke="#000000" d="M 393.42 611.19 L 408.32 611.19 "/>
<path transform="matrix(1,0,0,-1,0,841.5)" d="M 394.43 607.17 L 382.37 611.19 L 394.43 615.21 L 394.43 607.17 Z " fill-rule="evenodd"/>
<path transform="matrix(1,0,0,-1,0,841.5)" stroke-width=".75" stroke-linecap="round" stroke-linejoin="round" fill="none" stroke="#000000" d="M 409.4 595.62 L 437.746 595.62 L 437.746 695.541 L 409.4 695.541 Z "/>
<g id="Layer-1" data-name="P">
<clipPath id="cp202">
<path transform="matrix(1,0,0,-1,0,841.5)" d="M .0000172 0 L 1154.25 0 L 1154.25 841.5 L .0000172 841.5 Z " fill-rule="evenodd"/>
</clipPath>
<g clip-path="url(#cp202)">
<text xml:space="preserve" transform="matrix(1 0 -0 1 0 841.5)" font-size="12" font-family="ArialNarrow" font-weight="bold" font-style="italic"><tspan y="-657.92" x="400.27 403.258 409.27 414.502 419.746 425.758 429.49 435.50199 439.24598 444.48997">inventory </tspan></text>
</g>
</g>
<g id="Layer-1" data-name="P">
<clipPath id="cp203">
<path transform="matrix(1,0,0,-1,0,841.5)" d="M .0000172 0 L 1154.25 0 L 1154.25 841.5 L .0000172 841.5 Z " fill-rule="evenodd"/>
</clipPath>
<g clip-path="url(#cp203)">
<text xml:space="preserve" transform="matrix(1 0 -0 1 0 841.5)" font-size="12.025" font-family="ArialNarrow" font-weight="bold" font-style="italic"><tspan y="-643.53" x="392.08 401.06269 406.3176 412.34214 417.573 423.59754 429.56193 437.81108 443.7995 449.82405">management</tspan></text>
</g>
</g>
<path transform="matrix(1,0,0,-1,0,841.5)" stroke-width="1.5" stroke-linecap="round" stroke-linejoin="round" fill="none" stroke="#000000" d="M 290.54 682.12 L 313.21 682.12 "/>
<path transform="matrix(1,0,0,-1,0,841.5)" d="M 312.2 686.14 L 324.26 682.12 L 312.2 678.1 L 312.2 686.14 Z " fill-rule="evenodd"/>
<path transform="matrix(1,0,0,-1,0,841.5)" stroke-width="1.5" stroke-linecap="round" stroke-linejoin="round" fill="none" stroke="#000000" d="M 301.59 611.24 L 321.43 611.24 "/>
<path transform="matrix(1,0,0,-1,0,841.5)" d="M 302.6 607.22 L 290.54 611.24 L 302.6 615.26 L 302.6 607.22 Z " fill-rule="evenodd"/>
<path transform="matrix(1,0,0,-1,0,841.5)" stroke-width="1.5" stroke-linecap="round" stroke-linejoin="round" fill="none" stroke="#000000" d="M 437.65 539.83 L 544.18 539.83 "/>
<path transform="matrix(1,0,0,-1,0,841.5)" d="M 543.17 543.85 L 555.23 539.83 L 543.17 535.81 L 543.17 543.85 Z " fill-rule="evenodd"/>
<path transform="matrix(1,0,0,-1,0,841.5)" stroke-width="1.5" stroke-linecap="round" stroke-linejoin="round" fill="none" stroke="#000000" d="M 227.25 540.37 L 262.19 540.37 "/>
<path transform="matrix(1,0,0,-1,0,841.5)" d="M 228.26 536.35 L 216.2 540.37 L 228.26 544.39 L 228.26 536.35 Z " fill-rule="evenodd"/>
<path transform="matrix(1,0,0,-1,0,841.5)" stroke-width="1.5" stroke-linecap="round" stroke-linejoin="round" fill="none" stroke="#000000" d="M 205.5 682.08 L 251.14 682.08 "/>
<path transform="matrix(1,0,0,-1,0,841.5)" d="M 250.13 686.1 L 262.19 682.08 L 250.13 678.06 L 250.13 686.1 Z " fill-rule="evenodd"/>
<path transform="matrix(1,0,0,-1,0,841.5)" stroke-width=".75" stroke-linecap="round" stroke-linejoin="round" fill="none" stroke="#000000" d="M 262.19 525.42 L 290.536 525.42 L 290.536 696.14 L 262.19 696.14 Z "/>
<g id="Layer-1" data-name="P">
<clipPath id="cp204">
<path transform="matrix(1,0,0,-1,0,841.5)" d="M .0000172 0 L 1154.25 0 L 1154.25 841.5 L .0000172 841.5 Z " fill-rule="evenodd"/>
</clipPath>
<g clip-path="url(#cp204)">
<text xml:space="preserve" transform="matrix(1 0 -0 1 0 841.5)" font-size="11.275" font-family="ArialNarrow" font-weight="bold"><tspan y="-685.47" x="327.4 331.14329 335.642 341.62904 346.88319 352.12605 356.62477 359.6239 364.86677 370.1209">requested </tspan></text>
</g>
</g>
<g id="Layer-1" data-name="P">
<clipPath id="cp205">
<path transform="matrix(1,0,0,-1,0,841.5)" d="M .0000172 0 L 1154.25 0 L 1154.25 841.5 L .0000172 841.5 Z " fill-rule="evenodd"/>
</clipPath>
<g clip-path="url(#cp205)">
<text xml:space="preserve" transform="matrix(1 0 -0 1 0 841.5)" font-size="11.25" font-family="ArialNarrow" font-weight="bold"><tspan y="-672.25" x="322.13 325.865 330.365 335.60749 340.84999 343.85374 349.09623 354.3387 357.34248 359.59248 364.84623 370.83125">reservations</tspan></text>
</g>
</g>
<g id="Layer-1" data-name="P">
<clipPath id="cp206">
<path transform="matrix(1,0,0,-1,0,841.5)" d="M .0000172 0 L 1154.25 0 L 1154.25 841.5 L .0000172 841.5 Z " fill-rule="evenodd"/>
</clipPath>
<g clip-path="url(#cp206)">
<text xml:space="preserve" transform="matrix(1 0 -0 1 0 841.5)" font-size="11.275" font-family="ArialNarrow" font-weight="bold"><tspan y="-614.72" x="334.27 339.52415 343.26744 348.51029 353.76445 356.76359 362.00645 367.2606">granted </tspan></text>
</g>
</g>
<g id="Layer-1" data-name="P">
<clipPath id="cp207">
<path transform="matrix(1,0,0,-1,0,841.5)" d="M .0000172 0 L 1154.25 0 L 1154.25 841.5 L .0000172 841.5 Z " fill-rule="evenodd"/>
</clipPath>
<g clip-path="url(#cp207)">
<text xml:space="preserve" transform="matrix(1 0 -0 1 0 841.5)" font-size="11.25" font-family="ArialNarrow" font-weight="bold"><tspan y="-601.5" x="326.48 330.215 334.715 339.9575 345.19999 348.20375 353.44624 356.44999 358.69999 364.685 369.93876">reservtions</tspan></text>
</g>
</g>
<g id="Layer-1" data-name="P">
<clipPath id="cp208">
<path transform="matrix(1,0,0,-1,0,841.5)" d="M .0000172 0 L 1154.25 0 L 1154.25 841.5 L .0000172 841.5 Z " fill-rule="evenodd"/>
</clipPath>
<g clip-path="url(#cp208)">
<text xml:space="preserve" transform="matrix(1 0 -0 1 0 841.5)" font-size="12" font-family="ArialNarrow" font-weight="bold" font-style="italic"><tspan y="-643.88" x="263.98 269.992 273.736 279.748 284.97999 289.468">order </tspan></text>
</g>
</g>
<g id="Layer-1" data-name="P">
<clipPath id="cp209">
<path transform="matrix(1,0,0,-1,0,841.5)" d="M .0000172 0 L 1154.25 0 L 1154.25 841.5 L .0000172 841.5 Z " fill-rule="evenodd"/>
</clipPath>
<g clip-path="url(#cp209)">
<text xml:space="preserve" transform="matrix(1 0 -0 1 0 841.5)" font-size="12.025" font-family="ArialNarrow" font-weight="bold" font-style="italic"><tspan y="-629.47" x="246.18 255.16266 260.41758 266.4421 271.67298 277.6975 283.6619 291.91105 297.89949 303.924">management</tspan></text>
</g>
</g>
<path transform="matrix(1,0,0,-1,0,841.5)" stroke-width=".75" stroke-linecap="round" stroke-linejoin="round" fill="none" stroke="#000000" d="M 239.22 511.56 L 607.72 511.56 L 607.72 709 L 239.22 709 Z "/>
<g id="Layer-1" data-name="P">
<clipPath id="cp210">
<path transform="matrix(1,0,0,-1,0,841.5)" d="M .0000172 0 L 1154.25 0 L 1154.25 841.5 L .0000172 841.5 Z " fill-rule="evenodd"/>
</clipPath>
<g clip-path="url(#cp210)">
<text xml:space="preserve" transform="matrix(1 0 -0 1 0 841.5)" font-size="12.025" font-family="ArialNarrow" font-weight="bold" font-style="italic"><tspan y="-694.58" x="551.7 555.45187 560.7068 564.4466 569.70156 572.6837 574.9324 580.92086">retailer</tspan></text>
</g>
</g>
<path transform="matrix(1,0,0,-1,0,841.5)" stroke-width=".75" stroke-linecap="round" stroke-linejoin="round" fill="none" stroke="#000000" d="M 555.23 525.28 L 583.407 525.28 L 583.407 625.20108 L 555.23 625.20108 Z "/>
<path transform="matrix(1,0,0,-1,0,841.5)" stroke-width="1.5" stroke-linecap="round" stroke-linejoin="round" fill="none" stroke="#000000" d="M 536.58 610.94 L 555.43 610.94 "/>
<path transform="matrix(1,0,0,-1,0,841.5)" d="M 537.58 606.92 L 525.52 610.94 L 537.58 614.96 L 537.58 606.92 Z " fill-rule="evenodd"/>
<path transform="matrix(1,0,0,-1,0,841.5)" stroke-width="1.5" stroke-linecap="round" stroke-linejoin="round" fill="none" stroke="#000000" d="M 448.7 610.99 L 477.33 610.99 "/>
<path transform="matrix(1,0,0,-1,0,841.5)" d="M 449.71 606.97 L 437.65 610.99 L 449.71 615.01 L 449.71 606.97 Z " fill-rule="evenodd"/>
<path transform="matrix(1,0,0,-1,0,841.5)" d="M 176.86 668.81 L 227.884 668.81 L 227.884 692.504 L 176.86 692.504 Z " fill="#ffffff" fill-rule="evenodd"/>
<g id="Layer-1" data-name="P">
<clipPath id="cp211">
<path transform="matrix(1,0,0,-1,0,841.5)" d="M .0000172 0 L 1154.25 0 L 1154.25 841.5 L .0000172 841.5 Z " fill-rule="evenodd"/>
</clipPath>
<g clip-path="url(#cp211)">
<text xml:space="preserve" transform="matrix(1 0 -0 1 0 841.5)" font-size="11.275" font-family="ArialNarrow" font-weight="bold"><tspan y="-683.83" x="180.98 186.23415 192.22118 195.22032 200.4632 205.71735 210.96022 216.2031 220.70183">purchase </tspan></text>
</g>
</g>
<g id="Layer-1" data-name="P">
<clipPath id="cp212">
<path transform="matrix(1,0,0,-1,0,841.5)" d="M .0000172 0 L 1154.25 0 L 1154.25 841.5 L .0000172 841.5 Z " fill-rule="evenodd"/>
</clipPath>
<g clip-path="url(#cp212)">
<text xml:space="preserve" transform="matrix(1 0 -0 1 0 841.5)" font-size="11.25" font-family="ArialNarrow" font-weight="bold"><tspan y="-670.6" x="180.98 186.23374 189.96874 195.22248 200.46498 204.19998">orders</tspan></text>
</g>
</g>
<path transform="matrix(1,0,0,-1,0,841.5)" d="M 176.86 528.17 L 216.195 528.17 L 216.195 553.31698 L 176.86 553.31698 Z " fill="#ffffff" fill-rule="evenodd"/>
<g id="Layer-1" data-name="P">
<clipPath id="cp213">
<path transform="matrix(1,0,0,-1,0,841.5)" d="M .0000172 0 L 1154.25 0 L 1154.25 841.5 L .0000172 841.5 Z " fill-rule="evenodd"/>
</clipPath>
<g clip-path="url(#cp213)">
<text xml:space="preserve" transform="matrix(1 0 -0 1 0 841.5)" font-size="11.25" font-family="ArialNarrow" font-weight="bold"><tspan y="-543.78" x="180.98 189.215 193.715 198.9575">mess</tspan></text>
</g>
</g>
<g id="Layer-1" data-name="P">
<clipPath id="cp214">
<path transform="matrix(1,0,0,-1,0,841.5)" d="M .0000172 0 L 1154.25 0 L 1154.25 841.5 L .0000172 841.5 Z " fill-rule="evenodd"/>
</clipPath>
<g clip-path="url(#cp214)">
<text xml:space="preserve" transform="matrix(1 0 -0 1 0 841.5)" font-size="11.25" font-family="ArialNarrow" font-weight="bold"><tspan y="-543.78" x="204.08">-</tspan></text>
</g>
</g>
<g id="Layer-1" data-name="P">
<clipPath id="cp215">
<path transform="matrix(1,0,0,-1,0,841.5)" d="M .0000172 0 L 1154.25 0 L 1154.25 841.5 L .0000172 841.5 Z " fill-rule="evenodd"/>
</clipPath>
<g clip-path="url(#cp215)">
<text xml:space="preserve" transform="matrix(1 0 -0 1 0 841.5)" font-size="11.275" font-family="ArialNarrow" font-weight="bold"><tspan y="-530.58" x="180.98 186.22287 191.47702 196.7199">ages</tspan></text>
</g>
</g>
<path transform="matrix(1,0,0,-1,0,841.5)" d="M 409.1 527.5 L 455.163 527.5 L 455.163 552.647 L 409.1 552.647 Z " fill="#ffffff" fill-rule="evenodd"/>
<g id="Layer-1" data-name="P">
<clipPath id="cp216">
<path transform="matrix(1,0,0,-1,0,841.5)" d="M .0000172 0 L 1154.25 0 L 1154.25 841.5 L .0000172 841.5 Z " fill-rule="evenodd"/>
</clipPath>
<g clip-path="url(#cp216)">
<text xml:space="preserve" transform="matrix(1 0 -0 1 0 841.5)" font-size="11.25" font-family="ArialNarrow" font-weight="bold"><tspan y="-543.1" x="419.13 424.38377 429.62626 433.36125 437.86125 443.10374 445.35374">parcel </tspan></text>
</g>
</g>
<g id="Layer-1" data-name="P">
<clipPath id="cp217">
<path transform="matrix(1,0,0,-1,0,841.5)" d="M .0000172 0 L 1154.25 0 L 1154.25 841.5 L .0000172 841.5 Z " fill-rule="evenodd"/>
</clipPath>
<g clip-path="url(#cp217)">
<text xml:space="preserve" transform="matrix(1 0 -0 1 0 841.5)" font-size="11.25" font-family="ArialNarrow" font-weight="bold"><tspan y="-529.9" x="418.38 423.63377 427.36875 432.6225 437.865 441.59999">orders</tspan></text>
</g>
</g>
<g id="Layer-1" data-name="P">
<clipPath id="cp218">
<path transform="matrix(1,0,0,-1,0,841.5)" d="M .0000172 0 L 1154.25 0 L 1154.25 841.5 L .0000172 841.5 Z " fill-rule="evenodd"/>
</clipPath>
<g clip-path="url(#cp218)">
<text xml:space="preserve" transform="matrix(1 0 -0 1 0 841.5)" font-size="11.275" font-family="ArialNarrow" font-weight="bold"><tspan y="-610.88" x="469.72 474.96287 479.46159 484.70445 489.9586 495.94563 502.69935 504.95436 510.1972 516.18429 521.4384 526.68136 531.9355">acknowledged </tspan></text>
</g>
</g>
<g id="Layer-1" data-name="P">
<clipPath id="cp219">
<path transform="matrix(1,0,0,-1,0,841.5)" d="M .0000172 0 L 1154.25 0 L 1154.25 841.5 L .0000172 841.5 Z " fill-rule="evenodd"/>
</clipPath>
<g clip-path="url(#cp219)">
<text xml:space="preserve" transform="matrix(1 0 -0 1 0 841.5)" font-size="11.25" font-family="ArialNarrow" font-weight="bold"><tspan y="-597.65" x="483.5 487.26875 491.79124 497.05625 502.32127 504.57127 509.84754 512.85128">receipts</tspan></text>
</g>
</g>
<path transform="matrix(1,0,0,-1,0,841.5)" d="M 637.44 669.32 L 683.503 669.32 L 683.503 694.467 L 637.44 694.467 Z " fill="#ffffff" fill-rule="evenodd"/>
<g id="Layer-1" data-name="P">
<clipPath id="cp220">
<path transform="matrix(1,0,0,-1,0,841.5)" d="M .0000172 0 L 1154.25 0 L 1154.25 841.5 L .0000172 841.5 Z " fill-rule="evenodd"/>
</clipPath>
<g clip-path="url(#cp220)">
<text xml:space="preserve" transform="matrix(1 0 -0 1 0 841.5)" font-size="11.25" font-family="ArialNarrow" font-weight="bold"><tspan y="-685.05" x="644.83 650.0725 655.32626 660.57998 666.56497 668.81497 671.06497 676.30746 680.0424">supplier </tspan></text>
</g>
</g>
<g id="Layer-1" data-name="P">
<clipPath id="cp221">
<path transform="matrix(1,0,0,-1,0,841.5)" d="M .0000172 0 L 1154.25 0 L 1154.25 841.5 L .0000172 841.5 Z " fill-rule="evenodd"/>
</clipPath>
<g clip-path="url(#cp221)">
<text xml:space="preserve" transform="matrix(1 0 -0 1 0 841.5)" font-size="11.275" font-family="ArialNarrow" font-weight="bold"><tspan y="-671.85" x="651.85 657.1041 660.8474 666.10159 671.3445 675.08779">orders</tspan></text>
</g>
</g>
<path transform="matrix(1,0,0,-1,0,841.5)" stroke-width="1.5" stroke-linecap="round" stroke-linejoin="round" fill="none" stroke="#000000" d="M 290.54 539.41 L 401.08 539.41 "/>
<path transform="matrix(1,0,0,-1,0,841.5)" d="M 400.08 543.43 L 412.14 539.41 L 400.08 535.39 L 400.08 543.43 Z " fill-rule="evenodd"/>
<clipPath id="cp222">
<path transform="matrix(1,0,0,-1,0,841.5)" d="M -.000030518 841.5 L 1154.25 841.5 L 1154.25 .00018311 L -.000045776 .00018311 " fill-rule="evenodd"/>
</clipPath>
<g clip-path="url(#cp222)">
<path transform="matrix(1,0,0,-1,0,841.5)" stroke-width="1.5" stroke-linecap="round" stroke-linejoin="round" fill="none" stroke="#000000" d="M 153.52 678.99 L 164.25 679.18 "/>
</g>
<clipPath id="cp223">
<path transform="matrix(1,0,0,-1,0,841.5)" d="M -.000030518 841.5 L 1154.25 841.5 L 1154.25 .00018311 L -.000045776 .00018311 " fill-rule="evenodd"/>
</clipPath>
<g clip-path="url(#cp223)">
<path transform="matrix(1,0,0,-1,0,841.5)" d="M 163.17 683.18 L 175.3 679.37 L 163.31 675.14 L 163.17 683.18 Z " fill-rule="evenodd"/>
</g>
<path transform="matrix(1,0,0,-1,0,841.5)" d="M 126.93 451.17 L 155.276 451.17 L 155.276 693.23 L 126.93 693.23 Z " fill="#ffffff" fill-rule="evenodd"/>
<path transform="matrix(1,0,0,-1,0,841.5)" stroke-width=".75" stroke-linecap="round" stroke-linejoin="round" fill="none" stroke="#000000" d="M 126.93 451.17 L 155.276 451.17 L 155.276 693.23 L 126.93 693.23 Z "/>
<path transform="matrix(1,0,0,-1,0,841.5)" stroke-width="1.5" stroke-linecap="round" stroke-linejoin="round" fill="none" stroke="#000000" d="M 166.33 537.76 L 176.83 537.76 "/>
<path transform="matrix(1,0,0,-1,0,841.5)" d="M 167.34 533.73 L 155.28 537.76 L 167.34 541.78 L 167.34 533.73 Z " fill-rule="evenodd"/>
<g id="Layer-1" data-name="P">
<clipPath id="cp224">
<path transform="matrix(1,0,0,-1,0,841.5)" d="M .0000172 0 L 1154.25 0 L 1154.25 841.5 L .0000172 841.5 Z " fill-rule="evenodd"/>
</clipPath>
<g clip-path="url(#cp224)">
<text xml:space="preserve" transform="matrix(1 0 -0 1 0 841.5)" font-size="11.25" font-family="ArialNarrow" font-weight="bold" font-style="italic"><tspan y="-620.65" x="117.5 122.7425 127.996257 133.23876 136.2425 141.49623 149.73123 154.23123 157.96623">customers</tspan></text>
</g>
</g>
<clipPath id="cp225">
<path transform="matrix(1,0,0,-1,0,841.5)" d="M -.000015259 841.5 L 1154.25 841.5 L 1154.25 .00012207 L -.000015259 .00012207 " fill-rule="evenodd"/>
</clipPath>
<g clip-path="url(#cp225)">
<path transform="matrix(1,0,0,-1,0,841.5)" stroke-width="1.5" stroke-linecap="round" stroke-linejoin="round" fill="none" stroke="#000000" d="M 111.35 465.54 L 126.06 465.82 "/>
</g>
<clipPath id="cp226">
<path transform="matrix(1,0,0,-1,0,841.5)" d="M -.000015259 841.5 L 1154.25 841.5 L 1154.25 .00012207 L -.000015259 .00012207 " fill-rule="evenodd"/>
</clipPath>
<g clip-path="url(#cp226)">
<path transform="matrix(1,0,0,-1,0,841.5)" d="M 112.43 461.54 L 100.3 465.33 L 112.28 469.58 L 112.43 461.54 Z " fill-rule="evenodd"/>
</g>
<clipPath id="cp227">
<path transform="matrix(1,0,0,-1,0,841.5)" d="M -.000022888 841.5 L 1154.25 841.5 L 1154.25 .00018311 L -.000030518 .00012207 " fill-rule="evenodd"/>
</clipPath>
<g clip-path="url(#cp227)">
<path transform="matrix(1,0,0,-1,0,841.5)" stroke-width="1.5" stroke-linecap="round" stroke-linejoin="round" fill="none" stroke="#000000" d="M 104.56 679.27 L 115.62 679.28 "/>
</g>
<clipPath id="cp228">
<path transform="matrix(1,0,0,-1,0,841.5)" d="M -.000022888 841.5 L 1154.25 841.5 L 1154.25 .00018311 L -.000030518 .00012207 " fill-rule="evenodd"/>
</clipPath>
<g clip-path="url(#cp228)">
<path transform="matrix(1,0,0,-1,0,841.5)" d="M 114.61 683.3 L 126.67 679.29 L 114.62 675.26 L 114.61 683.3 Z " fill-rule="evenodd"/>
</g>
<path transform="matrix(1,0,0,-1,0,841.5)" d="M 43.602 668.02 L 103.696 668.02 L 103.696 691.714 L 43.602 691.714 Z " fill="#ffffff" fill-rule="evenodd"/>
<g id="Layer-1" data-name="P">
<clipPath id="cp229">
<path transform="matrix(1,0,0,-1,0,841.5)" d="M .0000172 0 L 1154.25 0 L 1154.25 841.5 L .0000172 841.5 Z " fill-rule="evenodd"/>
</clipPath>
<g clip-path="url(#cp229)">
<text xml:space="preserve" transform="matrix(1 0 -0 1 0 841.5)" font-size="11.25" font-family="ArialNarrow" font-weight="bold"><tspan y="-683.03" x="60.15 65.403759 69.138759 74.39251 79.63501 83.37001 88.623767 93.87752 99.86252">orderung </tspan></text>
</g>
</g>
<g id="Layer-1" data-name="P">
<clipPath id="cp230">
<path transform="matrix(1,0,0,-1,0,841.5)" d="M .0000172 0 L 1154.25 0 L 1154.25 841.5 L .0000172 841.5 Z " fill-rule="evenodd"/>
</clipPath>
<g clip-path="url(#cp230)">
<text xml:space="preserve" transform="matrix(1 0 -0 1 0 841.5)" font-size="11.275" font-family="ArialNarrow" font-weight="bold"><tspan y="-669.83" x="54.125 59.367876 64.622028 69.86491 72.86405 78.1182 86.33768 90.87023 94.61353">customers</tspan></text>
</g>
</g>
<path transform="matrix(1,0,0,-1,0,841.5)" d="M 49.272 453.24 L 100.296 453.24 L 100.296 478.387 L 49.272 478.387 Z " fill="#ffffff" fill-rule="evenodd"/>
<g id="Layer-1" data-name="P">
<clipPath id="cp231">
<path transform="matrix(1,0,0,-1,0,841.5)" d="M .0000172 0 L 1154.25 0 L 1154.25 841.5 L .0000172 841.5 Z " fill-rule="evenodd"/>
</clipPath>
<g clip-path="url(#cp231)">
<text xml:space="preserve" transform="matrix(1 0 -0 1 0 841.5)" font-size="11.275" font-family="ArialNarrow" font-weight="bold"><tspan y="-475.4" x="57.225 62.467874 66.9666 72.20948 77.45236 82.70651 85.70566 90.94854 96.20269">accepted </tspan></text>
</g>
</g>
<g id="Layer-1" data-name="P">
<clipPath id="cp232">
<path transform="matrix(1,0,0,-1,0,841.5)" d="M .0000172 0 L 1154.25 0 L 1154.25 841.5 L .0000172 841.5 Z " fill-rule="evenodd"/>
</clipPath>
<g clip-path="url(#cp232)">
<text xml:space="preserve" transform="matrix(1 0 -0 1 0 841.5)" font-size="11.25" font-family="ArialNarrow" font-weight="bold"><tspan y="-462.18" x="67.25 72.50375 77.746257 82.988758 85.99251 91.23501 93.48501 96.47751">overall </tspan></text>
</g>
</g>
<g id="Layer-1" data-name="P">
<clipPath id="cp233">
<path transform="matrix(1,0,0,-1,0,841.5)" d="M .0000172 0 L 1154.25 0 L 1154.25 841.5 L .0000172 841.5 Z " fill-rule="evenodd"/>
</clipPath>
<g clip-path="url(#cp233)">
<text xml:space="preserve" transform="matrix(1 0 -0 1 0 841.5)" font-size="11.275" font-family="ArialNarrow" font-weight="bold"><tspan y="-448.98" x="62.225 67.50169 72.76712 75.022129 78.01 82.53128 87.79671 91.56256">delivery</tspan></text>
</g>
</g>
<path transform="matrix(1,0,0,-1,0,841.5)" stroke-width=".75" stroke-linecap="round" stroke-linejoin="round" fill="none" stroke="#000000" d="M 704.58 457.5 L 732.926 457.5 L 732.926 557.421 L 704.58 557.421 Z "/>
<g id="Layer-1" data-name="P">
<clipPath id="cp234">
<path transform="matrix(1,0,0,-1,0,841.5)" d="M .0000172 0 L 1154.25 0 L 1154.25 841.5 L .0000172 841.5 Z " fill-rule="evenodd"/>
</clipPath>
<g clip-path="url(#cp234)">
<text xml:space="preserve" transform="matrix(1 0 -0 1 0 841.5)" font-size="11.275" font-family="ArialNarrow" font-weight="bold" font-style="italic"><tspan y="-516.55" x="704.8 707.79916 711.5424 716.04116 719.029 724.28317 729.5373 732.53646">freight </tspan></text>
</g>
</g>
<g id="Layer-1" data-name="P">
<clipPath id="cp235">
<path transform="matrix(1,0,0,-1,0,841.5)" d="M .0000172 0 L 1154.25 0 L 1154.25 841.5 L .0000172 841.5 Z " fill-rule="evenodd"/>
</clipPath>
<g clip-path="url(#cp235)">
<text xml:space="preserve" transform="matrix(1 0 -0 1 0 841.5)" font-size="11.25" font-family="ArialNarrow" font-weight="bold" font-style="italic"><tspan y="-503.32" x="695.5 698.5037 703.77999 707.5487 714.32119 719.5862 723.3549 728.63119 733.8962 736.8999">forwarders</tspan></text>
</g>
</g>
<path transform="matrix(1,0,0,-1,0,841.5)" stroke-width="1.5" stroke-linecap="round" stroke-linejoin="round" fill="none" stroke="#000000" d="M 166.33 467.32 L 447.83 467.32 "/>
<path transform="matrix(1,0,0,-1,0,841.5)" d="M 167.34 463.3 L 155.28 467.32 L 167.34 471.34 L 167.34 463.3 Z " fill-rule="evenodd"/>
<path transform="matrix(1,0,0,-1,0,841.5)" d="M 397.93 456.35 L 473.899 456.35 L 473.899 481.497 L 397.93 481.497 Z " fill="#ffffff" fill-rule="evenodd"/>
<g id="Layer-1" data-name="P">
<clipPath id="cp236">
<path transform="matrix(1,0,0,-1,0,841.5)" d="M .0000172 0 L 1154.25 0 L 1154.25 841.5 L .0000172 841.5 Z " fill-rule="evenodd"/>
</clipPath>
<g clip-path="url(#cp236)">
<text xml:space="preserve" transform="matrix(1 0 -0 1 0 841.5)" font-size="11.275" font-family="ArialNarrow" font-weight="bold"><tspan y="-465.3" x="415.38 420.63417 425.877 428.13203 431.1199 435.61863 440.86149 444.60478 446.85978 452.10264">deliveries</tspan></text>
</g>
</g>
<path transform="matrix(1,0,0,-1,0,841.5)" stroke-width="1.5" stroke-linecap="round" stroke-linejoin="round" fill="none" stroke="#000000" d="M 470.56 467.32 L 704.58 467.32 "/>
<path transform="matrix(1,0,0,-1,0,841.5)" d="M 471.56 463.3 L 459.5 467.32 L 471.56 471.34 L 471.56 463.3 Z " fill-rule="evenodd"/>
<path transform="matrix(1,0,0,-1,0,841.5)" stroke-width="1.5" stroke-linecap="round" stroke-linejoin="round" fill="none" stroke="#000000" d="M 677.07 539.2 L 693.81 539.2 "/>
<path transform="matrix(1,0,0,-1,0,841.5)" d="M 692.81 543.22 L 704.87 539.2 L 692.81 535.18 L 692.81 543.22 Z " fill-rule="evenodd"/>
<path transform="matrix(1,0,0,-1,0,841.5)" stroke-width=".75" stroke-linecap="round" stroke-linejoin="round" fill="none" stroke="#000000" d="M 701.14 599.67 L 729.486 599.67 L 729.486 694.631 L 701.14 694.631 Z "/>
<g id="Layer-1" data-name="P">
<clipPath id="cp237">
<path transform="matrix(1,0,0,-1,0,841.5)" d="M .0000172 0 L 1154.25 0 L 1154.25 841.5 L .0000172 841.5 Z " fill-rule="evenodd"/>
</clipPath>
<g clip-path="url(#cp237)">
<text xml:space="preserve" transform="matrix(1 0 -0 1 0 841.5)" font-size="11.275" font-family="ArialNarrow" font-weight="bold" font-style="italic"><tspan y="-648.25" x="697.98 703.2229 708.47708 713.7312 719.71829 721.97329 724.2283 729.4712">supplier</tspan></text>
</g>
</g>
<path transform="matrix(1,0,0,-1,0,841.5)" stroke-width="1.5" stroke-linecap="round" stroke-linejoin="round" fill="none" stroke="#000000" d="M 671.07 681.79 L 690.08 681.79 "/>
<path transform="matrix(1,0,0,-1,0,841.5)" d="M 689.08 685.81 L 701.14 681.79 L 689.08 677.77 L 689.08 685.81 Z " fill-rule="evenodd"/>
<path transform="matrix(1,0,0,-1,0,841.5)" stroke-width="1.5" stroke-linecap="round" stroke-linejoin="round" fill="none" stroke="#000000" d="M 688.34 610.64 L 701.4 610.64 "/>
<path transform="matrix(1,0,0,-1,0,841.5)" d="M 689.35 606.62 L 677.29 610.64 L 689.35 614.66 L 689.35 606.62 Z " fill-rule="evenodd"/>
</g>
</g>
</svg>
