<?xml version="1.0" encoding="UTF-8" standalone="no"?>
<!DOCTYPE svg PUBLIC "-//W3C//DTD SVG 1.1//EN" "http://www.w3.org/Graphics/SVG/1.1/DTD/svg11.dtd">
<svg xmlns="http://www.w3.org/2000/svg" xmlns:xlink="http://www.w3.org/1999/xlink" version="1.1" width="594.75pt" height="841.5pt" viewBox="0 0 594.75 841.5">
<g enable-background="new">
<g>
<clipPath id="cp10">
<path transform="matrix(1,0,0,-1,0,841.5)" d="M -.000007629 841.5 L 594.75 841.5 L 594.75 .00012207 L -.000015259 .00012207 " fill-rule="evenodd"/>
</clipPath>
<g clip-path="url(#cp10)">
<path transform="matrix(1,0,0,-1,0,841.5)" stroke-width="1.5" stroke-linecap="round" stroke-linejoin="round" fill="none" stroke="#000000" d="M 118.11 367.45 L 132.81 367.73 "/>
</g>
<clipPath id="cp11">
<path transform="matrix(1,0,0,-1,0,841.5)" d="M -.000007629 841.5 L 594.75 841.5 L 594.75 .00012207 L -.000015259 .00012207 " fill-rule="evenodd"/>
</clipPath>
<g clip-path="url(#cp11)">
<path transform="matrix(1,0,0,-1,0,841.5)" d="M 119.19 363.45 L 107.06 367.24 L 119.04 371.49 L 119.19 363.45 Z " fill-rule="evenodd"/>
</g>
<g id="Layer-1" data-name="P">
<clipPath id="cp12">
<path transform="matrix(1,0,0,-1,0,841.5)" d="M .000008862 0 L 594.75 0 L 594.75 841.5 L .000008862 841.5 Z " fill-rule="evenodd"/>
</clipPath>
<g clip-path="url(#cp12)">
<text xml:space="preserve" transform="matrix(1 0 -0 1 0 841.5)" font-size="12" font-family="ArialNarrow" font-weight="bold" font-style="italic"><tspan y="-481.48" x="122.25 127.53 133.54199 139.566 142.59 148.60199 157.62599 162.90599 166.68599">customers</tspan></text>
</g>
</g>
<clipPath id="cp13">
<path transform="matrix(1,0,0,-1,0,841.5)" d="M -.000045776 841.5 L 594.75 841.5 L 594.75 .00018311 L -.000061035 .00012207 " fill-rule="evenodd"/>
</clipPath>
<g clip-path="url(#cp13)">
<path transform="matrix(1,0,0,-1,0,841.5)" stroke-width="1.5" stroke-linecap="round" stroke-linejoin="round" fill="none" stroke="#000000" d="M 161.56 536.21 L 172.61 536.22 "/>
</g>
<clipPath id="cp14">
<path transform="matrix(1,0,0,-1,0,841.5)" d="M -.000045776 841.5 L 594.75 841.5 L 594.75 .00018311 L -.000061035 .00012207 " fill-rule="evenodd"/>
</clipPath>
<g clip-path="url(#cp14)">
<path transform="matrix(1,0,0,-1,0,841.5)" d="M 171.6 540.24 L 183.67 536.23 L 171.61 532.2 L 171.6 540.24 Z " fill-rule="evenodd"/>
</g>
<path transform="matrix(1,0,0,-1,0,841.5)" stroke-width=".75" stroke-linecap="round" stroke-linejoin="round" fill="none" stroke="#000000" d="M 132.81 351.99 L 161.156 351.99 L 161.156 550.38 L 132.81 550.38 Z "/>
<path transform="matrix(1,0,0,-1,0,841.5)" stroke-width="1.5" stroke-linecap="round" stroke-linejoin="round" fill="none" stroke="#000000" d="M 172.61 367.24 L 225.88 367.24 "/>
<path transform="matrix(1,0,0,-1,0,841.5)" d="M 173.62 363.22 L 161.56 367.24 L 173.62 371.26 L 173.62 363.22 Z " fill-rule="evenodd"/>
<path transform="matrix(1,0,0,-1,0,841.5)" stroke-width="1.5" stroke-linecap="round" stroke-linejoin="round" fill="none" stroke="#000000" d="M 172.61 451.11 L 225.88 451.11 "/>
<path transform="matrix(1,0,0,-1,0,841.5)" d="M 173.62 447.09 L 161.56 451.11 L 173.62 455.13 L 173.62 447.09 Z " fill-rule="evenodd"/>
<path transform="matrix(1,0,0,-1,0,841.5)" d="M 185.95 524.96 L 236.974 524.96 L 236.974 548.65408 L 185.95 548.65408 Z " fill="#ffffff" fill-rule="evenodd"/>
<g id="Layer-1" data-name="P">
<clipPath id="cp15">
<path transform="matrix(1,0,0,-1,0,841.5)" d="M .000008862 0 L 594.75 0 L 594.75 841.5 L .000008862 841.5 Z " fill-rule="evenodd"/>
</clipPath>
<g clip-path="url(#cp15)">
<text xml:space="preserve" transform="matrix(1 0 -0 1 0 841.5)" font-size="11.275" font-family="ArialNarrow" font-weight="bold"><tspan y="-539.85" x="193.13 198.38416 204.37119 207.37033 212.6132 217.86736 223.11023 228.3531 232.85184">purchase </tspan></text>
</g>
</g>
<g id="Layer-1" data-name="P">
<clipPath id="cp16">
<path transform="matrix(1,0,0,-1,0,841.5)" d="M .000008862 0 L 594.75 0 L 594.75 841.5 L .000008862 841.5 Z " fill-rule="evenodd"/>
</clipPath>
<g clip-path="url(#cp16)">
<text xml:space="preserve" transform="matrix(1 0 -0 1 0 841.5)" font-size="11.25" font-family="ArialNarrow" font-weight="bold"><tspan y="-526.63" x="205.18 210.43373 214.16873 219.42247 224.66498 228.39998">orders</tspan></text>
</g>
</g>
<path transform="matrix(1,0,0,-1,0,841.5)" d="M 185.95 438.85 L 238.35599 438.85 L 238.35599 463.997 L 185.95 463.997 Z " fill="#ffffff" fill-rule="evenodd"/>
<g id="Layer-1" data-name="P">
<clipPath id="cp17">
<path transform="matrix(1,0,0,-1,0,841.5)" d="M .000008862 0 L 594.75 0 L 594.75 841.5 L .000008862 841.5 Z " fill-rule="evenodd"/>
</clipPath>
<g clip-path="url(#cp17)">
<text xml:space="preserve" transform="matrix(1 0 -0 1 0 841.5)" font-size="11.25" font-family="ArialNarrow" font-weight="bold"><tspan y="-447.77" x="190.98 199.215 203.715 208.9575 214.20001 218.70001 224.68502 229.18502">messages</tspan></text>
</g>
</g>
<path transform="matrix(1,0,0,-1,0,841.5)" d="M 188.79 355.16 L 239.814 355.16 L 239.814 380.307 L 188.79 380.307 Z " fill="#ffffff" fill-rule="evenodd"/>
<g id="Layer-1" data-name="P">
<clipPath id="cp18">
<path transform="matrix(1,0,0,-1,0,841.5)" d="M .000008862 0 L 594.75 0 L 594.75 841.5 L .000008862 841.5 Z " fill-rule="evenodd"/>
</clipPath>
<g clip-path="url(#cp18)">
<text xml:space="preserve" transform="matrix(1 0 -0 1 0 841.5)" font-size="11.25" font-family="ArialNarrow" font-weight="bold"><tspan y="-364" x="194.43 199.70624 204.97124 207.22124 210.21375 214.73625 220.00125 223.73625 225.98625 231.25125">deliveries</tspan></text>
</g>
</g>
<clipPath id="cp19">
<path transform="matrix(1,0,0,-1,0,841.5)" d="M -.000022888 841.5 L 594.75 841.5 L 594.75 .00018311 L -.000022888 .000061035 " fill-rule="evenodd"/>
</clipPath>
<g clip-path="url(#cp19)">
<path transform="matrix(1,0,0,-1,0,841.5)" stroke-width="1.5" stroke-linecap="round" stroke-linejoin="round" fill="none" stroke="#000000" d="M 110.28 536.4 L 121.34 536.41 "/>
</g>
<clipPath id="cp20">
<path transform="matrix(1,0,0,-1,0,841.5)" d="M -.000022888 841.5 L 594.75 841.5 L 594.75 .00018311 L -.000022888 .000061035 " fill-rule="evenodd"/>
</clipPath>
<g clip-path="url(#cp20)">
<path transform="matrix(1,0,0,-1,0,841.5)" d="M 120.33 540.43 L 132.4 536.42 L 120.34 532.39 L 120.33 540.43 Z " fill-rule="evenodd"/>
</g>
<path transform="matrix(1,0,0,-1,0,841.5)" d="M 49.323 525.15 L 109.41701 525.15 L 109.41701 548.844 L 49.323 548.844 Z " fill="#ffffff" fill-rule="evenodd"/>
<g id="Layer-1" data-name="P">
<clipPath id="cp21">
<path transform="matrix(1,0,0,-1,0,841.5)" d="M .000008862 0 L 594.75 0 L 594.75 841.5 L .000008862 841.5 Z " fill-rule="evenodd"/>
</clipPath>
<g clip-path="url(#cp21)">
<text xml:space="preserve" transform="matrix(1 0 -0 1 0 841.5)" font-size="11.25" font-family="ArialNarrow" font-weight="bold"><tspan y="-540.03" x="65.925 71.17876 74.91376 80.16751 85.41001 89.14501 94.398769 99.65252 105.63752">orderung </tspan></text>
</g>
</g>
<g id="Layer-1" data-name="P">
<clipPath id="cp22">
<path transform="matrix(1,0,0,-1,0,841.5)" d="M .000008862 0 L 594.75 0 L 594.75 841.5 L .000008862 841.5 Z " fill-rule="evenodd"/>
</clipPath>
<g clip-path="url(#cp22)">
<text xml:space="preserve" transform="matrix(1 0 -0 1 0 841.5)" font-size="11.275" font-family="ArialNarrow" font-weight="bold"><tspan y="-526.82" x="59.875 65.11788 70.37203 75.614917 78.61406 83.86821 92.13278 96.63151 100.37481">customers</tspan></text>
</g>
</g>
<path transform="matrix(1,0,0,-1,0,841.5)" d="M 56.031 355.16 L 107.05499 355.16 L 107.05499 380.307 L 56.031 380.307 Z " fill="#ffffff" fill-rule="evenodd"/>
<g id="Layer-1" data-name="P">
<clipPath id="cp23">
<path transform="matrix(1,0,0,-1,0,841.5)" d="M .000008862 0 L 594.75 0 L 594.75 841.5 L .000008862 841.5 Z " fill-rule="evenodd"/>
</clipPath>
<g clip-path="url(#cp23)">
<text xml:space="preserve" transform="matrix(1 0 -0 1 0 841.5)" font-size="11.275" font-family="ArialNarrow" font-weight="bold"><tspan y="-377.22" x="64.025 69.26788 73.76661 79.00949 84.25237 89.50652 92.50567 97.74855 103.0027">accepted </tspan></text>
</g>
</g>
<g id="Layer-1" data-name="P">
<clipPath id="cp24">
<path transform="matrix(1,0,0,-1,0,841.5)" d="M .000008862 0 L 594.75 0 L 594.75 841.5 L .000008862 841.5 Z " fill-rule="evenodd"/>
</clipPath>
<g clip-path="url(#cp24)">
<text xml:space="preserve" transform="matrix(1 0 -0 1 0 841.5)" font-size="11.25" font-family="ArialNarrow" font-weight="bold"><tspan y="-364" x="74.075 79.32875 84.57125 89.81375 92.817508 98.060009 100.310009 103.302509">overall </tspan></text>
</g>
</g>
<g id="Layer-1" data-name="P">
<clipPath id="cp25">
<path transform="matrix(1,0,0,-1,0,841.5)" d="M .000008862 0 L 594.75 0 L 594.75 841.5 L .000008862 841.5 Z " fill-rule="evenodd"/>
</clipPath>
<g clip-path="url(#cp25)">
<text xml:space="preserve" transform="matrix(1 0 -0 1 0 841.5)" font-size="11.25" font-family="ArialNarrow" font-weight="bold"><tspan y="-350.8" x="69.05 74.30376 79.54626 81.79626 84.78876 89.28876 94.53126 98.26626">delivery</tspan></text>
</g>
</g>
</g>
</g>
</svg>
