<?xml version="1.0" encoding="UTF-8" standalone="no"?>
<!DOCTYPE svg PUBLIC "-//W3C//DTD SVG 1.1//EN" "http://www.w3.org/Graphics/SVG/1.1/DTD/svg11.dtd">
<svg xmlns="http://www.w3.org/2000/svg" xmlns:xlink="http://www.w3.org/1999/xlink" version="1.1" width="594.75pt" height="841.5pt" viewBox="0 0 594.75 841.5">
<g enable-background="new">
<g>
<path transform="matrix(1,0,0,-1,0,841.5)" d="M 314.53 296.91 L 372.529 296.91 L 372.529 322.057 L 314.53 322.057 Z " fill="#ffffff" fill-rule="evenodd"/>
<g id="Layer-1" data-name="P">
<clipPath id="cp330">
<path transform="matrix(1,0,0,-1,0,841.5)" d="M .000008862 0 L 594.75 0 L 594.75 841.5 L .000008862 841.5 Z " fill-rule="evenodd"/>
</clipPath>
<g clip-path="url(#cp330)">
<text xml:space="preserve" transform="matrix(1 0 -0 1 0 841.5)" font-size="11.275" font-family="ArialNarrow" font-weight="bold"><tspan y="-312.33" x="329.88 332.87916 338.1333 341.1212 344.12034 347.11949 352.36235 354.61735 360.60438 365.85853 368.85768">to freight </tspan></text>
</g>
</g>
<g id="Layer-1" data-name="P">
<clipPath id="cp331">
<path transform="matrix(1,0,0,-1,0,841.5)" d="M .000008862 0 L 594.75 0 L 594.75 841.5 L .000008862 841.5 Z " fill-rule="evenodd"/>
</clipPath>
<g clip-path="url(#cp331)">
<text xml:space="preserve" transform="matrix(1 0 -0 1 0 841.5)" font-size="11.25" font-family="ArialNarrow" font-weight="bold"><tspan y="-299.1" x="322.33 325.33375 330.5875 334.32249 341.07249 346.31498 350.04997 355.3037 360.5462 363.54997">forwarders</tspan></text>
</g>
</g>
<path transform="matrix(1,0,0,-1,0,841.5)" d="M 319.49 369.36 L 374.655 369.36 L 374.655 390.869 L 319.49 390.869 Z " fill="#ffffff" fill-rule="evenodd"/>
<g id="Layer-1" data-name="P">
<clipPath id="cp332">
<path transform="matrix(1,0,0,-1,0,841.5)" d="M .000008862 0 L 594.75 0 L 594.75 841.5 L .000008862 841.5 Z " fill-rule="evenodd"/>
</clipPath>
<g clip-path="url(#cp332)">
<text xml:space="preserve" transform="matrix(1 0 -0 1 0 841.5)" font-size="11.275" font-family="ArialNarrow" font-weight="bold"><tspan y="-383.03" x="333 338.25416 344.24119 349.49534 354.74949 359.99235 362.24736 365.2465 371.23353">goods to </tspan></text>
</g>
</g>
<g id="Layer-1" data-name="P">
<clipPath id="cp333">
<path transform="matrix(1,0,0,-1,0,841.5)" d="M .000008862 0 L 594.75 0 L 594.75 841.5 L .000008862 841.5 Z " fill-rule="evenodd"/>
</clipPath>
<g clip-path="url(#cp333)">
<text xml:space="preserve" transform="matrix(1 0 -0 1 0 841.5)" font-size="11.25" font-family="ArialNarrow" font-weight="bold"><tspan y="-369.8" x="323.95 330.7 335.9425 339.6775 344.1775 350.1625 355.41627 360.67 365.9125">warehouse</tspan></text>
</g>
</g>
<clipPath id="cp334">
<path transform="matrix(1,0,0,-1,0,841.5)" d="M -.000061035 841.5 L 594.75 841.5 L 594.75 .00012207 L -.000061035 .00012207 " fill-rule="evenodd"/>
</clipPath>
<g clip-path="url(#cp334)">
<path transform="matrix(1,0,0,-1,0,841.5)" stroke-width="1.5" stroke-linecap="round" stroke-linejoin="round" fill="none" stroke="#000000" d="M 277.89 450.77 L 319.01 450.6 "/>
</g>
<clipPath id="cp335">
<path transform="matrix(1,0,0,-1,0,841.5)" d="M -.000061035 841.5 L 594.75 841.5 L 594.75 .00012207 L -.000061035 .00012207 " fill-rule="evenodd"/>
</clipPath>
<g clip-path="url(#cp335)">
<path transform="matrix(1,0,0,-1,0,841.5)" d="M 318.02 454.62 L 330.06 450.55 L 317.99 446.58 L 318.02 454.62 Z " fill-rule="evenodd"/>
</g>
<path transform="matrix(1,0,0,-1,0,841.5)" stroke-width="1.5" stroke-linecap="round" stroke-linejoin="round" fill="none" stroke="#000000" d="M 287.18 379.86 L 328.7 379.86 "/>
<path transform="matrix(1,0,0,-1,0,841.5)" d="M 288.18 375.84 L 276.12 379.86 L 288.18 383.88 L 288.18 375.84 Z " fill-rule="evenodd"/>
<path transform="matrix(1,0,0,-1,0,841.5)" stroke-width="1.5" stroke-linecap="round" stroke-linejoin="round" fill="none" stroke="#000000" d="M 276.71 309.23 L 317.65 309.23 "/>
<path transform="matrix(1,0,0,-1,0,841.5)" d="M 316.64 313.25 L 328.7 309.23 L 316.64 305.21 L 316.64 313.25 Z " fill-rule="evenodd"/>
<path transform="matrix(1,0,0,-1,0,841.5)" stroke-width="1.5" stroke-linecap="round" stroke-linejoin="round" fill="none" stroke="#000000" d="M 212.23 309.78 L 247.18 309.78 "/>
<path transform="matrix(1,0,0,-1,0,841.5)" d="M 213.24 305.76 L 201.18 309.78 L 213.24 313.8 L 213.24 305.76 Z " fill-rule="evenodd"/>
<path transform="matrix(1,0,0,-1,0,841.5)" stroke-width="1.5" stroke-linecap="round" stroke-linejoin="round" fill="none" stroke="#000000" d="M 190.48 451.49 L 236.12 451.49 "/>
<path transform="matrix(1,0,0,-1,0,841.5)" d="M 235.12 455.51 L 247.18 451.49 L 235.12 447.47 L 235.12 455.51 Z " fill-rule="evenodd"/>
<path transform="matrix(1,0,0,-1,0,841.5)" d="M 161.84 438.22 L 212.864 438.22 L 212.864 461.914 L 161.84 461.914 Z " fill="#ffffff" fill-rule="evenodd"/>
<g id="Layer-1" data-name="P">
<clipPath id="cp336">
<path transform="matrix(1,0,0,-1,0,841.5)" d="M .000008862 0 L 594.75 0 L 594.75 841.5 L .000008862 841.5 Z " fill-rule="evenodd"/>
</clipPath>
<g clip-path="url(#cp336)">
<text xml:space="preserve" transform="matrix(1 0 -0 1 0 841.5)" font-size="11.275" font-family="ArialNarrow" font-weight="bold"><tspan y="-453.03" x="166.05 171.30416 177.31372 180.31287 185.55574 190.80989 196.05277 201.29564 205.79438">purchase </tspan></text>
</g>
</g>
<g id="Layer-1" data-name="P">
<clipPath id="cp337">
<path transform="matrix(1,0,0,-1,0,841.5)" d="M .000008862 0 L 594.75 0 L 594.75 841.5 L .000008862 841.5 Z " fill-rule="evenodd"/>
</clipPath>
<g clip-path="url(#cp337)">
<text xml:space="preserve" transform="matrix(1 0 -0 1 0 841.5)" font-size="11.25" font-family="ArialNarrow" font-weight="bold"><tspan y="-439.8" x="166.05 171.30374 175.03874 180.29248 185.53499 189.26999">orders</tspan></text>
</g>
</g>
<path transform="matrix(1,0,0,-1,0,841.5)" d="M 161.84 297.57 L 201.17499 297.57 L 201.17499 322.717 L 161.84 322.717 Z " fill="#ffffff" fill-rule="evenodd"/>
<g id="Layer-1" data-name="P">
<clipPath id="cp338">
<path transform="matrix(1,0,0,-1,0,841.5)" d="M .000008862 0 L 594.75 0 L 594.75 841.5 L .000008862 841.5 Z " fill-rule="evenodd"/>
</clipPath>
<g clip-path="url(#cp338)">
<text xml:space="preserve" transform="matrix(1 0 -0 1 0 841.5)" font-size="11.25" font-family="ArialNarrow" font-weight="bold"><tspan y="-312.98" x="166.05 174.31876 178.81876 184.06127">mess</tspan></text>
</g>
</g>
<g id="Layer-1" data-name="P">
<clipPath id="cp339">
<path transform="matrix(1,0,0,-1,0,841.5)" d="M .000008862 0 L 594.75 0 L 594.75 841.5 L .000008862 841.5 Z " fill-rule="evenodd"/>
</clipPath>
<g clip-path="url(#cp339)">
<text xml:space="preserve" transform="matrix(1 0 -0 1 0 841.5)" font-size="11.25" font-family="ArialNarrow" font-weight="bold"><tspan y="-312.98" x="189.15">-</tspan></text>
</g>
</g>
<g id="Layer-1" data-name="P">
<clipPath id="cp340">
<path transform="matrix(1,0,0,-1,0,841.5)" d="M .000008862 0 L 594.75 0 L 594.75 841.5 L .000008862 841.5 Z " fill-rule="evenodd"/>
</clipPath>
<g clip-path="url(#cp340)">
<text xml:space="preserve" transform="matrix(1 0 -0 1 0 841.5)" font-size="11.275" font-family="ArialNarrow" font-weight="bold"><tspan y="-299.78" x="166.05 171.29288 176.54703 181.7899">ages</tspan></text>
</g>
</g>
<path transform="matrix(1,0,0,-1,0,841.5)" d="M 330.06 438.72 L 376.123 438.72 L 376.123 463.867 L 330.06 463.867 Z " fill="#ffffff" fill-rule="evenodd"/>
<g id="Layer-1" data-name="P">
<clipPath id="cp341">
<path transform="matrix(1,0,0,-1,0,841.5)" d="M .000008862 0 L 594.75 0 L 594.75 841.5 L .000008862 841.5 Z " fill-rule="evenodd"/>
</clipPath>
<g clip-path="url(#cp341)">
<text xml:space="preserve" transform="matrix(1 0 -0 1 0 841.5)" font-size="11.25" font-family="ArialNarrow" font-weight="bold"><tspan y="-454.25" x="337.48 342.7225 347.97627 353.23 359.21504 361.46504 363.71504 368.95753 372.6925">supplier </tspan></text>
</g>
</g>
<g id="Layer-1" data-name="P">
<clipPath id="cp342">
<path transform="matrix(1,0,0,-1,0,841.5)" d="M .000008862 0 L 594.75 0 L 594.75 841.5 L .000008862 841.5 Z " fill-rule="evenodd"/>
</clipPath>
<g clip-path="url(#cp342)">
<text xml:space="preserve" transform="matrix(1 0 -0 1 0 841.5)" font-size="11.275" font-family="ArialNarrow" font-weight="bold"><tspan y="-441.05" x="344.5 349.75416 353.49745 358.7516 363.99446 367.73774">orders</tspan></text>
</g>
</g>
<clipPath id="cp343">
<path transform="matrix(1,0,0,-1,0,841.5)" d="M -.000030518 841.5 L 594.75 841.5 L 594.75 .00012207 L -.000030518 .00012207 " fill-rule="evenodd"/>
</clipPath>
<g clip-path="url(#cp343)">
<path transform="matrix(1,0,0,-1,0,841.5)" stroke-width="1.5" stroke-linecap="round" stroke-linejoin="round" fill="none" stroke="#000000" d="M 138.5 448.4 L 149.23 448.59 "/>
</g>
<clipPath id="cp344">
<path transform="matrix(1,0,0,-1,0,841.5)" d="M -.000030518 841.5 L 594.75 841.5 L 594.75 .00012207 L -.000030518 .00012207 " fill-rule="evenodd"/>
</clipPath>
<g clip-path="url(#cp344)">
<path transform="matrix(1,0,0,-1,0,841.5)" d="M 148.16 452.59 L 160.28 448.78 L 148.29 444.55 L 148.16 452.59 Z " fill-rule="evenodd"/>
</g>
<path transform="matrix(1,0,0,-1,0,841.5)" stroke-width="1.5" stroke-linecap="round" stroke-linejoin="round" fill="none" stroke="#000000" d="M 151.32 307.16 L 161.81 307.16 "/>
<path transform="matrix(1,0,0,-1,0,841.5)" d="M 152.32 303.14 L 140.26 307.16 L 152.32 311.18 L 152.32 303.14 Z " fill-rule="evenodd"/>
<path transform="matrix(1,0,0,-1,0,841.5)" stroke-width=".75" stroke-linecap="round" stroke-linejoin="round" fill="none" stroke="#000000" d="M 397.21 226.91 L 425.556 226.91 L 425.556 326.831 L 397.21 326.831 Z "/>
<g id="Layer-1" data-name="P">
<clipPath id="cp345">
<path transform="matrix(1,0,0,-1,0,841.5)" d="M .000008862 0 L 594.75 0 L 594.75 841.5 L .000008862 841.5 Z " fill-rule="evenodd"/>
</clipPath>
<g clip-path="url(#cp345)">
<text xml:space="preserve" transform="matrix(1 0 -0 1 0 841.5)" font-size="11.275" font-family="ArialNarrow" font-weight="bold" font-style="italic"><tspan y="-285.75" x="397.47 400.46916 404.21244 408.71116 411.69905 416.9532 422.20735 425.20649">freight </tspan></text>
</g>
</g>
<g id="Layer-1" data-name="P">
<clipPath id="cp346">
<path transform="matrix(1,0,0,-1,0,841.5)" d="M .000008862 0 L 594.75 0 L 594.75 841.5 L .000008862 841.5 Z " fill-rule="evenodd"/>
</clipPath>
<g clip-path="url(#cp346)">
<text xml:space="preserve" transform="matrix(1 0 -0 1 0 841.5)" font-size="11.25" font-family="ArialNarrow" font-weight="bold" font-style="italic"><tspan y="-272.53" x="388.17 391.17378 396.45005 400.18504 406.95753 412.22254 415.95753 421.2338 426.4988 429.50257">forwarders</tspan></text>
</g>
</g>
<path transform="matrix(1,0,0,-1,0,841.5)" stroke-width="1.5" stroke-linecap="round" stroke-linejoin="round" fill="none" stroke="#000000" d="M 151.32 236.73 L 257.9 236.73 "/>
<path transform="matrix(1,0,0,-1,0,841.5)" d="M 152.32 232.71 L 140.26 236.73 L 152.32 240.75 L 152.32 232.71 Z " fill-rule="evenodd"/>
<path transform="matrix(1,0,0,-1,0,841.5)" d="M 233.93 225.76 L 296.507 225.76 L 296.507 250.907 L 233.93 250.907 Z " fill="#ffffff" fill-rule="evenodd"/>
<g id="Layer-1" data-name="P">
<clipPath id="cp347">
<path transform="matrix(1,0,0,-1,0,841.5)" d="M .000008862 0 L 594.75 0 L 594.75 841.5 L .000008862 841.5 Z " fill-rule="evenodd"/>
</clipPath>
<g clip-path="url(#cp347)">
<text xml:space="preserve" transform="matrix(1 0 -0 1 0 841.5)" font-size="11.275" font-family="ArialNarrow" font-weight="bold"><tspan y="-234.5" x="244.73 249.98415 255.22702 257.48204 260.4699 264.96864 270.2115 273.95478 276.20979 281.45265">deliveries</tspan></text>
</g>
</g>
<path transform="matrix(1,0,0,-1,0,841.5)" stroke-width="1.5" stroke-linecap="round" stroke-linejoin="round" fill="none" stroke="#000000" d="M 310.64 236.73 L 397.21 236.73 "/>
<path transform="matrix(1,0,0,-1,0,841.5)" d="M 311.64 232.71 L 299.58 236.73 L 311.64 240.75 L 311.64 232.71 Z " fill-rule="evenodd"/>
<path transform="matrix(1,0,0,-1,0,841.5)" stroke-width="1.5" stroke-linecap="round" stroke-linejoin="round" fill="none" stroke="#000000" d="M 369.7 308.61 L 386.44 308.61 "/>
<path transform="matrix(1,0,0,-1,0,841.5)" d="M 385.44 312.63 L 397.5 308.61 L 385.44 304.59 L 385.44 312.63 Z " fill-rule="evenodd"/>
<path transform="matrix(1,0,0,-1,0,841.5)" stroke-width=".75" stroke-linecap="round" stroke-linejoin="round" fill="none" stroke="#000000" d="M 393.77 369.08 L 422.116 369.08 L 422.116 464.041 L 393.77 464.041 Z "/>
<g id="Layer-1" data-name="P">
<clipPath id="cp348">
<path transform="matrix(1,0,0,-1,0,841.5)" d="M .000008862 0 L 594.75 0 L 594.75 841.5 L .000008862 841.5 Z " fill-rule="evenodd"/>
</clipPath>
<g clip-path="url(#cp348)">
<text xml:space="preserve" transform="matrix(1 0 -0 1 0 841.5)" font-size="11.25" font-family="ArialNarrow" font-weight="bold" font-style="italic"><tspan y="-417.45" x="390.65 395.8925 401.14625 406.4 412.385 414.635 416.885 422.1275">supplier</tspan></text>
</g>
</g>
<path transform="matrix(1,0,0,-1,0,841.5)" stroke-width="1.5" stroke-linecap="round" stroke-linejoin="round" fill="none" stroke="#000000" d="M 363.7 451.2 L 382.71 451.2 "/>
<path transform="matrix(1,0,0,-1,0,841.5)" d="M 381.71 455.22 L 393.77 451.2 L 381.71 447.18 L 381.71 455.22 Z " fill-rule="evenodd"/>
<path transform="matrix(1,0,0,-1,0,841.5)" stroke-width="1.5" stroke-linecap="round" stroke-linejoin="round" fill="none" stroke="#000000" d="M 380.97 380.05 L 394.03 380.05 "/>
<path transform="matrix(1,0,0,-1,0,841.5)" d="M 381.98 376.03 L 369.92 380.05 L 381.98 384.07 L 381.98 376.03 Z " fill-rule="evenodd"/>
<path transform="matrix(1,0,0,-1,0,841.5)" stroke-width=".75" stroke-linecap="round" stroke-linejoin="round" fill="none" stroke="#000000" d="M 246.85 290.73 L 275.196 290.73 L 275.196 461.45 L 246.85 461.45 Z "/>
<g id="Layer-1" data-name="P">
<clipPath id="cp349">
<path transform="matrix(1,0,0,-1,0,841.5)" d="M .000008862 0 L 594.75 0 L 594.75 841.5 L .000008862 841.5 Z " fill-rule="evenodd"/>
</clipPath>
<g clip-path="url(#cp349)">
<text xml:space="preserve" transform="matrix(1 0 -0 1 0 841.5)" font-size="11.275" font-family="ArialNarrow" font-weight="bold" font-style="italic"><tspan y="-409.9" x="245.25 248.9933 253.49204 256.49119 261.73405 263.98905 266.97694 271.47566">retailer</tspan></text>
</g>
</g>
<path transform="matrix(1,0,0,-1,0,841.5)" d="M 111.92 220.58 L 140.26599 220.58 L 140.26599 462.64 L 111.92 462.64 Z " fill="#ffffff" fill-rule="evenodd"/>
<path transform="matrix(1,0,0,-1,0,841.5)" stroke-width=".75" stroke-linecap="round" stroke-linejoin="round" fill="none" stroke="#000000" d="M 111.92 220.58 L 140.26599 220.58 L 140.26599 462.64 L 111.92 462.64 Z "/>
<clipPath id="cp350">
<path transform="matrix(1,0,0,-1,0,841.5)" d="M -.000015259 841.5 L 594.75 841.5 L 594.75 .00024414 L -.000022888 .00018311 " fill-rule="evenodd"/>
</clipPath>
<g clip-path="url(#cp350)">
<path transform="matrix(1,0,0,-1,0,841.5)" stroke-width="1.5" stroke-linecap="round" stroke-linejoin="round" fill="none" stroke="#000000" d="M 96.331 234.95 L 111.04 235.22 "/>
</g>
<clipPath id="cp351">
<path transform="matrix(1,0,0,-1,0,841.5)" d="M -.000015259 841.5 L 594.75 841.5 L 594.75 .00024414 L -.000022888 .00018311 " fill-rule="evenodd"/>
</clipPath>
<g clip-path="url(#cp351)">
<path transform="matrix(1,0,0,-1,0,841.5)" d="M 97.412 230.95 L 85.278 234.74 L 97.26 238.98 L 97.412 230.95 Z " fill-rule="evenodd"/>
</g>
<clipPath id="cp352">
<path transform="matrix(1,0,0,-1,0,841.5)" d="M -.000022888 841.5 L 594.75 841.5 L 594.75 .00012207 L -.000030518 .000061035 " fill-rule="evenodd"/>
</clipPath>
<g clip-path="url(#cp352)">
<path transform="matrix(1,0,0,-1,0,841.5)" stroke-width="1.5" stroke-linecap="round" stroke-linejoin="round" fill="none" stroke="#000000" d="M 89.546 448.68 L 100.6 448.69 "/>
</g>
<clipPath id="cp353">
<path transform="matrix(1,0,0,-1,0,841.5)" d="M -.000022888 841.5 L 594.75 841.5 L 594.75 .00012207 L -.000030518 .000061035 " fill-rule="evenodd"/>
</clipPath>
<g clip-path="url(#cp353)">
<path transform="matrix(1,0,0,-1,0,841.5)" d="M 99.594 452.71 L 111.66 448.7 L 99.601 444.67 L 99.594 452.71 Z " fill-rule="evenodd"/>
</g>
<path transform="matrix(1,0,0,-1,0,841.5)" d="M 28.585 437.43 L 88.679 437.43 L 88.679 461.124 L 28.585 461.124 Z " fill="#ffffff" fill-rule="evenodd"/>
<g id="Layer-1" data-name="P">
<clipPath id="cp354">
<path transform="matrix(1,0,0,-1,0,841.5)" d="M .000008862 0 L 594.75 0 L 594.75 841.5 L .000008862 841.5 Z " fill-rule="evenodd"/>
</clipPath>
<g clip-path="url(#cp354)">
<text xml:space="preserve" transform="matrix(1 0 -0 1 0 841.5)" font-size="11.25" font-family="ArialNarrow" font-weight="bold"><tspan y="-452.23" x="45.15 50.40375 54.138753 59.3925 64.635 68.37 73.62376 78.87751 84.86251">orderung </tspan></text>
</g>
</g>
<g id="Layer-1" data-name="P">
<clipPath id="cp355">
<path transform="matrix(1,0,0,-1,0,841.5)" d="M .000008862 0 L 594.75 0 L 594.75 841.5 L .000008862 841.5 Z " fill-rule="evenodd"/>
</clipPath>
<g clip-path="url(#cp355)">
<text xml:space="preserve" transform="matrix(1 0 -0 1 0 841.5)" font-size="11.25" font-family="ArialNarrow" font-weight="bold"><tspan y="-439.02" x="39.125 44.3675 49.62125 54.86375 57.8675 63.12125 71.356258 75.856258 79.591259">customers</tspan></text>
</g>
</g>
<path transform="matrix(1,0,0,-1,0,841.5)" d="M 34.255 222.65 L 85.279 222.65 L 85.279 247.797 L 34.255 247.797 Z " fill="#ffffff" fill-rule="evenodd"/>
<g id="Layer-1" data-name="P">
<clipPath id="cp356">
<path transform="matrix(1,0,0,-1,0,841.5)" d="M .000008862 0 L 594.75 0 L 594.75 841.5 L .000008862 841.5 Z " fill-rule="evenodd"/>
</clipPath>
<g clip-path="url(#cp356)">
<text xml:space="preserve" transform="matrix(1 0 -0 1 0 841.5)" font-size="11.25" font-family="ArialNarrow" font-weight="bold"><tspan y="-244.6" x="42.225 47.4675 51.9675 57.21 62.4525 67.70625 70.71001 75.95251 81.20626">accepted </tspan></text>
</g>
</g>
<g id="Layer-1" data-name="P">
<clipPath id="cp357">
<path transform="matrix(1,0,0,-1,0,841.5)" d="M .000008862 0 L 594.75 0 L 594.75 841.5 L .000008862 841.5 Z " fill-rule="evenodd"/>
</clipPath>
<g clip-path="url(#cp357)">
<text xml:space="preserve" transform="matrix(1 0 -0 1 0 841.5)" font-size="11.25" font-family="ArialNarrow" font-weight="bold"><tspan y="-231.38" x="52.25 57.52625 62.79125 68.05625 71.082508 76.3475 78.62 81.635">overall </tspan></text>
</g>
</g>
<g id="Layer-1" data-name="P">
<clipPath id="cp358">
<path transform="matrix(1,0,0,-1,0,841.5)" d="M .000008862 0 L 594.75 0 L 594.75 841.5 L .000008862 841.5 Z " fill-rule="evenodd"/>
</clipPath>
<g clip-path="url(#cp358)">
<text xml:space="preserve" transform="matrix(1 0 -0 1 0 841.5)" font-size="11.25" font-family="ArialNarrow" font-weight="bold"><tspan y="-218.18" x="47.25 52.50375 57.74625 59.99625 62.98875 67.488758 72.731258 76.466259">delivery</tspan></text>
</g>
</g>
<path transform="matrix(1,0,0,-1,0,841.5)" d="M 111.92 220.58 L 140.26599 220.58 L 140.26599 462.64 L 111.92 462.64 Z " fill="#ffffff" fill-rule="evenodd"/>
<path transform="matrix(1,0,0,-1,0,841.5)" stroke-width=".75" stroke-linecap="round" stroke-linejoin="round" fill="none" stroke="#000000" d="M 111.92 220.58 L 140.26599 220.58 L 140.26599 462.64 L 111.92 462.64 Z "/>
<clipPath id="cp359">
<path transform="matrix(1,0,0,-1,0,841.5)" d="M -.000015259 841.5 L 594.75 841.5 L 594.75 .00024414 L -.000022888 .00018311 " fill-rule="evenodd"/>
</clipPath>
<g clip-path="url(#cp359)">
<path transform="matrix(1,0,0,-1,0,841.5)" stroke-width="1.5" stroke-linecap="round" stroke-linejoin="round" fill="none" stroke="#000000" d="M 96.331 234.95 L 111.04 235.22 "/>
</g>
<clipPath id="cp360">
<path transform="matrix(1,0,0,-1,0,841.5)" d="M -.000015259 841.5 L 594.75 841.5 L 594.75 .00024414 L -.000022888 .00018311 " fill-rule="evenodd"/>
</clipPath>
<g clip-path="url(#cp360)">
<path transform="matrix(1,0,0,-1,0,841.5)" d="M 97.412 230.95 L 85.278 234.74 L 97.26 238.98 L 97.412 230.95 Z " fill-rule="evenodd"/>
</g>
<clipPath id="cp361">
<path transform="matrix(1,0,0,-1,0,841.5)" d="M -.000022888 841.5 L 594.75 841.5 L 594.75 .00012207 L -.000030518 .000061035 " fill-rule="evenodd"/>
</clipPath>
<g clip-path="url(#cp361)">
<path transform="matrix(1,0,0,-1,0,841.5)" stroke-width="1.5" stroke-linecap="round" stroke-linejoin="round" fill="none" stroke="#000000" d="M 89.546 448.68 L 100.6 448.69 "/>
</g>
<clipPath id="cp362">
<path transform="matrix(1,0,0,-1,0,841.5)" d="M -.000022888 841.5 L 594.75 841.5 L 594.75 .00012207 L -.000030518 .000061035 " fill-rule="evenodd"/>
</clipPath>
<g clip-path="url(#cp362)">
<path transform="matrix(1,0,0,-1,0,841.5)" d="M 99.594 452.71 L 111.66 448.7 L 99.601 444.67 L 99.594 452.71 Z " fill-rule="evenodd"/>
</g>
<path transform="matrix(1,0,0,-1,0,841.5)" d="M 28.585 437.43 L 88.679 437.43 L 88.679 461.124 L 28.585 461.124 Z " fill="#ffffff" fill-rule="evenodd"/>
<g id="Layer-1" data-name="P">
<clipPath id="cp363">
<path transform="matrix(1,0,0,-1,0,841.5)" d="M .000008862 0 L 594.75 0 L 594.75 841.5 L .000008862 841.5 Z " fill-rule="evenodd"/>
</clipPath>
<g clip-path="url(#cp363)">
<text xml:space="preserve" transform="matrix(1 0 -0 1 0 841.5)" font-size="11.25" font-family="ArialNarrow" font-weight="bold"><tspan y="-452.23" x="45.15 50.40375 54.138753 59.3925 64.635 68.37 73.62376 78.87751 84.86251">orderung </tspan></text>
</g>
</g>
<g id="Layer-1" data-name="P">
<clipPath id="cp364">
<path transform="matrix(1,0,0,-1,0,841.5)" d="M .000008862 0 L 594.75 0 L 594.75 841.5 L .000008862 841.5 Z " fill-rule="evenodd"/>
</clipPath>
<g clip-path="url(#cp364)">
<text xml:space="preserve" transform="matrix(1 0 -0 1 0 841.5)" font-size="11.25" font-family="ArialNarrow" font-weight="bold"><tspan y="-439.02" x="39.125 44.3675 49.62125 54.86375 57.8675 63.12125 71.356258 75.856258 79.591259">customers</tspan></text>
</g>
</g>
<path transform="matrix(1,0,0,-1,0,841.5)" d="M 34.255 222.65 L 85.279 222.65 L 85.279 247.797 L 34.255 247.797 Z " fill="#ffffff" fill-rule="evenodd"/>
<g id="Layer-1" data-name="P">
<clipPath id="cp365">
<path transform="matrix(1,0,0,-1,0,841.5)" d="M .000008862 0 L 594.75 0 L 594.75 841.5 L .000008862 841.5 Z " fill-rule="evenodd"/>
</clipPath>
<g clip-path="url(#cp365)">
<text xml:space="preserve" transform="matrix(1 0 -0 1 0 841.5)" font-size="11.25" font-family="ArialNarrow" font-weight="bold"><tspan y="-244.6" x="42.225 47.4675 51.9675 57.21 62.4525 67.70625 70.71001 75.95251 81.20626">accepted </tspan></text>
</g>
</g>
<g id="Layer-1" data-name="P">
<clipPath id="cp366">
<path transform="matrix(1,0,0,-1,0,841.5)" d="M .000008862 0 L 594.75 0 L 594.75 841.5 L .000008862 841.5 Z " fill-rule="evenodd"/>
</clipPath>
<g clip-path="url(#cp366)">
<text xml:space="preserve" transform="matrix(1 0 -0 1 0 841.5)" font-size="11.25" font-family="ArialNarrow" font-weight="bold"><tspan y="-231.38" x="52.25 57.52625 62.79125 68.05625 71.082508 76.3475 78.62 81.635">overall </tspan></text>
</g>
</g>
<g id="Layer-1" data-name="P">
<clipPath id="cp367">
<path transform="matrix(1,0,0,-1,0,841.5)" d="M .000008862 0 L 594.75 0 L 594.75 841.5 L .000008862 841.5 Z " fill-rule="evenodd"/>
</clipPath>
<g clip-path="url(#cp367)">
<text xml:space="preserve" transform="matrix(1 0 -0 1 0 841.5)" font-size="11.25" font-family="ArialNarrow" font-weight="bold"><tspan y="-218.18" x="47.25 52.50375 57.74625 59.99625 62.98875 67.488758 72.731258 76.466259">delivery</tspan></text>
</g>
</g>
<g id="Layer-1" data-name="P">
<clipPath id="cp368">
<path transform="matrix(1,0,0,-1,0,841.5)" d="M .000008862 0 L 594.75 0 L 594.75 841.5 L .000008862 841.5 Z " fill-rule="evenodd"/>
</clipPath>
<g clip-path="url(#cp368)">
<text xml:space="preserve" transform="matrix(1 0 -0 1 0 841.5)" font-size="11.25" font-family="ArialNarrow" font-weight="bold" font-style="italic"><tspan y="-389.85" x="102.52 107.784999 113.06125 118.32625 121.33 126.606258 134.87502 139.39752 143.16626">customers</tspan></text>
</g>
</g>
</g>
</g>
</svg>
