<?xml version="1.0" encoding="UTF-8" standalone="no"?>
<!DOCTYPE svg PUBLIC "-//W3C//DTD SVG 1.1//EN" "http://www.w3.org/Graphics/SVG/1.1/DTD/svg11.dtd">
<svg xmlns="http://www.w3.org/2000/svg" xmlns:xlink="http://www.w3.org/1999/xlink" version="1.1" width="594.75pt" height="841.5pt" viewBox="0 0 594.75 841.5">
<g enable-background="new">
<g>
<path transform="matrix(1,0,0,-1,0,841.5)" stroke-width="1.5" stroke-linecap="round" stroke-linejoin="round" fill="none" stroke="#000000" d="M 157.05 777.2 L 170.93 777.2 "/>
<path transform="matrix(1,0,0,-1,0,841.5)" d="M 169.93 781.22 L 181.99 777.2 L 169.93 773.18 L 169.93 781.22 Z " fill-rule="evenodd"/>
<path transform="matrix(1,0,0,-1,0,841.5)" stroke-width="1.5" stroke-linecap="round" stroke-linejoin="round" fill="none" stroke="#000000" d="M 168.1 706.32 L 213.74 706.32 "/>
<path transform="matrix(1,0,0,-1,0,841.5)" d="M 169.11 702.3 L 157.05 706.32 L 169.11 710.34 L 169.11 702.3 Z " fill-rule="evenodd"/>
<path transform="matrix(1,0,0,-1,0,841.5)" stroke-width="1.5" stroke-linecap="round" stroke-linejoin="round" fill="none" stroke="#000000" d="M 151.09 635.45 L 184.69 635.45 "/>
<path transform="matrix(1,0,0,-1,0,841.5)" d="M 183.68 639.47 L 195.74 635.45 L 183.68 631.43 L 183.68 639.47 Z " fill-rule="evenodd"/>
<path transform="matrix(1,0,0,-1,0,841.5)" stroke-width="1.5" stroke-linecap="round" stroke-linejoin="round" fill="none" stroke="#000000" d="M 105.45 635.45 L 128.7 635.45 "/>
<path transform="matrix(1,0,0,-1,0,841.5)" d="M 106.45 631.43 L 94.394 635.45 L 106.45 639.47 L 106.45 631.43 Z " fill-rule="evenodd"/>
<path transform="matrix(1,0,0,-1,0,841.5)" stroke-width="1.5" stroke-linecap="round" stroke-linejoin="round" fill="none" stroke="#000000" d="M 72.008 777.16 L 117.65 777.16 "/>
<path transform="matrix(1,0,0,-1,0,841.5)" d="M 116.64 781.19 L 128.7 777.16 L 116.64 773.15 L 116.64 781.19 Z " fill-rule="evenodd"/>
<path transform="matrix(1,0,0,-1,0,841.5)" d="M 128.7 620.5 L 157.04599 620.5 L 157.04599 791.22 L 128.7 791.22 Z " fill="#ffffff" fill-rule="evenodd"/>
<path transform="matrix(1,0,0,-1,0,841.5)" stroke-width=".75" stroke-linecap="round" stroke-linejoin="round" fill="none" stroke="#000000" d="M 128.7 620.5 L 157.04599 620.5 L 157.04599 791.22 L 128.7 791.22 Z "/>
<path transform="matrix(1,0,0,-1,0,841.5)" d="M 181.99 764.82 L 247.465 764.82 L 247.465 789.967 L 181.99 789.967 Z " fill="#ffffff" fill-rule="evenodd"/>
<g id="Layer-1" data-name="P">
<clipPath id="cp41">
<path transform="matrix(1,0,0,-1,0,841.5)" d="M .000008862 0 L 594.75 0 L 594.75 841.5 L .000008862 841.5 Z " fill-rule="evenodd"/>
</clipPath>
<g clip-path="url(#cp41)">
<text xml:space="preserve" transform="matrix(1 0 -0 1 0 841.5)" font-size="11.25" font-family="ArialNarrow" font-weight="bold"><tspan y="-780.63" x="200.6 204.36875 208.89125 214.91 220.18625 225.45125 229.97376 233 238.265 243.54125">requested </tspan></text>
</g>
</g>
<g id="Layer-1" data-name="P">
<clipPath id="cp42">
<path transform="matrix(1,0,0,-1,0,841.5)" d="M .000008862 0 L 594.75 0 L 594.75 841.5 L .000008862 841.5 Z " fill-rule="evenodd"/>
</clipPath>
<g clip-path="url(#cp42)">
<text xml:space="preserve" transform="matrix(1 0 -0 1 0 841.5)" font-size="11.25" font-family="ArialNarrow" font-weight="bold"><tspan y="-767.42" x="190.05 193.81874 198.34125 203.60625 208.87125 211.89749 217.16249 222.42749 225.45374 227.72624 233.00249 239.02124">reservations</tspan></text>
</g>
</g>
<path transform="matrix(1,0,0,-1,0,841.5)" d="M 173.27 695.94 L 247.46701 695.94 L 247.46701 717.449 L 173.27 717.449 Z " fill="#ffffff" fill-rule="evenodd"/>
<g id="Layer-1" data-name="P">
<clipPath id="cp43">
<path transform="matrix(1,0,0,-1,0,841.5)" d="M .000008862 0 L 594.75 0 L 594.75 841.5 L .000008862 841.5 Z " fill-rule="evenodd"/>
</clipPath>
<g clip-path="url(#cp43)">
<text xml:space="preserve" transform="matrix(1 0 -0 1 0 841.5)" font-size="11.25" font-family="ArialNarrow" font-weight="bold"><tspan y="-709.88" x="210.65 215.92624 219.66124 224.92624 230.20249 233.20623 238.47122 243.74747">granted </tspan></text>
</g>
</g>
<g id="Layer-1" data-name="P">
<clipPath id="cp44">
<path transform="matrix(1,0,0,-1,0,841.5)" d="M .000008862 0 L 594.75 0 L 594.75 841.5 L .000008862 841.5 Z " fill-rule="evenodd"/>
</clipPath>
<g clip-path="url(#cp44)">
<text xml:space="preserve" transform="matrix(1 0 -0 1 0 841.5)" font-size="11.275" font-family="ArialNarrow" font-weight="bold"><tspan y="-696.67" x="190.05 193.81586 198.33713 203.60256 208.86798 211.88968 217.1551 222.42053 225.44223 227.71977 232.99648 239.00605">reservations</tspan></text>
</g>
</g>
<g id="Layer-1" data-name="P">
<clipPath id="cp45">
<path transform="matrix(1,0,0,-1,0,841.5)" d="M .000008862 0 L 594.75 0 L 594.75 841.5 L .000008862 841.5 Z " fill-rule="evenodd"/>
</clipPath>
<g clip-path="url(#cp45)">
<text xml:space="preserve" transform="matrix(1 0 -0 1 0 841.5)" font-size="12.025" font-family="ArialNarrow" font-weight="bold" font-style="italic"><tspan y="-739.05" x="130.47 136.49452 140.22226 146.24678 151.47766 155.96298">order </tspan></text>
</g>
</g>
<g id="Layer-1" data-name="P">
<clipPath id="cp46">
<path transform="matrix(1,0,0,-1,0,841.5)" d="M .000008862 0 L 594.75 0 L 594.75 841.5 L .000008862 841.5 Z " fill-rule="evenodd"/>
</clipPath>
<g clip-path="url(#cp46)">
<text xml:space="preserve" transform="matrix(1 0 -0 1 0 841.5)" font-size="12" font-family="ArialNarrow" font-weight="bold" font-style="italic"><tspan y="-724.63" x="112.68 121.668 126.912 132.924 138.15599 144.16799 150.14398 158.39998 164.38799 170.39998">management</tspan></text>
</g>
</g>
<path transform="matrix(1,0,0,-1,0,841.5)" d="M 42.371 764.96 L 94.755 764.96 L 94.755 788.65408 L 42.371 788.65408 Z " fill="#ffffff" fill-rule="evenodd"/>
<g id="Layer-1" data-name="P">
<clipPath id="cp47">
<path transform="matrix(1,0,0,-1,0,841.5)" d="M .000008862 0 L 594.75 0 L 594.75 841.5 L .000008862 841.5 Z " fill-rule="evenodd"/>
</clipPath>
<g clip-path="url(#cp47)">
<text xml:space="preserve" transform="matrix(1 0 -0 1 0 841.5)" font-size="11.25" font-family="ArialNarrow" font-weight="bold"><tspan y="-780.05" x="46.425 51.67875 57.6975 60.70125 65.94375 71.1975 76.44 81.6825 86.1825">purchase </tspan></text>
</g>
</g>
<g id="Layer-1" data-name="P">
<clipPath id="cp48">
<path transform="matrix(1,0,0,-1,0,841.5)" d="M .000008862 0 L 594.75 0 L 594.75 841.5 L .000008862 841.5 Z " fill-rule="evenodd"/>
</clipPath>
<g clip-path="url(#cp48)">
<text xml:space="preserve" transform="matrix(1 0 -0 1 0 841.5)" font-size="11.275" font-family="ArialNarrow" font-weight="bold"><tspan y="-766.85" x="46.425 51.67915 55.42245 60.6766 65.91948 69.66278">orders</tspan></text>
</g>
</g>
<path transform="matrix(1,0,0,-1,0,841.5)" d="M 195.74 622.8 L 234.129 622.8 L 234.129 647.94699 L 195.74 647.94699 Z " fill="#ffffff" fill-rule="evenodd"/>
<g id="Layer-1" data-name="P">
<clipPath id="cp49">
<path transform="matrix(1,0,0,-1,0,841.5)" d="M .000008862 0 L 594.75 0 L 594.75 841.5 L .000008862 841.5 Z " fill-rule="evenodd"/>
</clipPath>
<g clip-path="url(#cp49)">
<text xml:space="preserve" transform="matrix(1 0 -0 1 0 841.5)" font-size="11.275" font-family="ArialNarrow" font-weight="bold"><tspan y="-638.5" x="200 205.25415 210.49703 214.24033 218.73906 223.98194">parcel</tspan></text>
</g>
</g>
<g id="Layer-1" data-name="P">
<clipPath id="cp50">
<path transform="matrix(1,0,0,-1,0,841.5)" d="M .000008862 0 L 594.75 0 L 594.75 841.5 L .000008862 841.5 Z " fill-rule="evenodd"/>
</clipPath>
<g clip-path="url(#cp50)">
<text xml:space="preserve" transform="matrix(1 0 -0 1 0 841.5)" font-size="11.25" font-family="ArialNarrow" font-weight="bold"><tspan y="-625.28" x="200 205.25374 208.98874 214.24248 219.48499 223.21999">orders</tspan></text>
</g>
</g>
<path transform="matrix(1,0,0,-1,0,841.5)" d="M 42.371 623.6 L 94.755 623.6 L 94.755 648.74697 L 42.371 648.74697 Z " fill="#ffffff" fill-rule="evenodd"/>
<g id="Layer-1" data-name="P">
<clipPath id="cp51">
<path transform="matrix(1,0,0,-1,0,841.5)" d="M .000008862 0 L 594.75 0 L 594.75 841.5 L .000008862 841.5 Z " fill-rule="evenodd"/>
</clipPath>
<g clip-path="url(#cp51)">
<text xml:space="preserve" transform="matrix(1 0 -0 1 0 841.5)" font-size="11.25" font-family="ArialNarrow" font-weight="bold"><tspan y="-632.67" x="46.425 54.693754 59.193754 64.43626 69.67876 74.17876 80.19751 84.69751">messages</tspan></text>
</g>
</g>
</g>
</g>
</svg>
