<?xml version="1.0" encoding="UTF-8" standalone="no"?>
<!DOCTYPE svg PUBLIC "-//W3C//DTD SVG 1.1//EN" "http://www.w3.org/Graphics/SVG/1.1/DTD/svg11.dtd">
<svg xmlns="http://www.w3.org/2000/svg" xmlns:xlink="http://www.w3.org/1999/xlink" version="1.1" width="594.75pt" height="841.5pt" viewBox="0 0 594.75 841.5">
<g enable-background="new">
<g>
<path transform="matrix(1,0,0,-1,0,841.5)" stroke-width="1.5" stroke-linecap="round" stroke-linejoin="round" fill="none" stroke="#000000" d="M 244.03 514.76 L 278.97 514.76 "/>
<path transform="matrix(1,0,0,-1,0,841.5)" d="M 245.03 510.74 L 232.97 514.76 L 245.03 518.78 L 245.03 510.74 Z " fill-rule="evenodd"/>
<path transform="matrix(1,0,0,-1,0,841.5)" stroke-width="1.5" stroke-linecap="round" stroke-linejoin="round" fill="none" stroke="#000000" d="M 222.27 588.7 L 267.91 588.7 "/>
<path transform="matrix(1,0,0,-1,0,841.5)" d="M 266.91 592.72 L 278.97 588.7 L 266.91 584.68 L 266.91 592.72 Z " fill-rule="evenodd"/>
<path transform="matrix(1,0,0,-1,0,841.5)" d="M 193.64 575.42 L 244.664 575.42 L 244.664 599.114 L 193.64 599.114 Z " fill="#ffffff" fill-rule="evenodd"/>
<g id="Layer-1" data-name="P">
<clipPath id="cp369">
<path transform="matrix(1,0,0,-1,0,841.5)" d="M .000008862 0 L 594.75 0 L 594.75 841.5 L .000008862 841.5 Z " fill-rule="evenodd"/>
</clipPath>
<g clip-path="url(#cp369)">
<text xml:space="preserve" transform="matrix(1 0 -0 1 0 841.5)" font-size="11.25" font-family="ArialNarrow" font-weight="bold"><tspan y="-590.35" x="197.9 203.15373 209.13874 212.14247 217.38498 222.63872 227.88123 233.12374 237.62374">purchase </tspan></text>
</g>
</g>
<g id="Layer-1" data-name="P">
<clipPath id="cp370">
<path transform="matrix(1,0,0,-1,0,841.5)" d="M .000008862 0 L 594.75 0 L 594.75 841.5 L .000008862 841.5 Z " fill-rule="evenodd"/>
</clipPath>
<g clip-path="url(#cp370)">
<text xml:space="preserve" transform="matrix(1 0 -0 1 0 841.5)" font-size="11.275" font-family="ArialNarrow" font-weight="bold"><tspan y="-577.15" x="197.9 203.15415 206.89745 212.1516 217.39447 221.13777">orders</tspan></text>
</g>
</g>
<path transform="matrix(1,0,0,-1,0,841.5)" d="M 193.64 502.56 L 232.975 502.56 L 232.975 527.707 L 193.64 527.707 Z " fill="#ffffff" fill-rule="evenodd"/>
<g id="Layer-1" data-name="P">
<clipPath id="cp371">
<path transform="matrix(1,0,0,-1,0,841.5)" d="M .000008862 0 L 594.75 0 L 594.75 841.5 L .000008862 841.5 Z " fill-rule="evenodd"/>
</clipPath>
<g clip-path="url(#cp371)">
<text xml:space="preserve" transform="matrix(1 0 -0 1 0 841.5)" font-size="11.275" font-family="ArialNarrow" font-weight="bold"><tspan y="-518.15" x="197.9 206.11948 210.65203 215.8949">mess</tspan></text>
</g>
</g>
<g id="Layer-1" data-name="P">
<clipPath id="cp372">
<path transform="matrix(1,0,0,-1,0,841.5)" d="M .000008862 0 L 594.75 0 L 594.75 841.5 L .000008862 841.5 Z " fill-rule="evenodd"/>
</clipPath>
<g clip-path="url(#cp372)">
<text xml:space="preserve" transform="matrix(1 0 -0 1 0 841.5)" font-size="11.275" font-family="ArialNarrow" font-weight="bold"><tspan y="-518.15" x="220.98">-</tspan></text>
</g>
</g>
<g id="Layer-1" data-name="P">
<clipPath id="cp373">
<path transform="matrix(1,0,0,-1,0,841.5)" d="M .000008862 0 L 594.75 0 L 594.75 841.5 L .000008862 841.5 Z " fill-rule="evenodd"/>
</clipPath>
<g clip-path="url(#cp373)">
<text xml:space="preserve" transform="matrix(1 0 -0 1 0 841.5)" font-size="11.25" font-family="ArialNarrow" font-weight="bold"><tspan y="-504.93" x="197.9 203.1425 208.39624 213.63875">ages</tspan></text>
</g>
</g>
<clipPath id="cp374">
<path transform="matrix(1,0,0,-1,0,841.5)" d="M -.000030518 841.5 L 594.75 841.5 L 594.75 .00018311 L -.000045776 .00012207 " fill-rule="evenodd"/>
</clipPath>
<g clip-path="url(#cp374)">
<path transform="matrix(1,0,0,-1,0,841.5)" stroke-width="1.5" stroke-linecap="round" stroke-linejoin="round" fill="none" stroke="#000000" d="M 170.29 585.61 L 181.02 585.79 "/>
</g>
<clipPath id="cp375">
<path transform="matrix(1,0,0,-1,0,841.5)" d="M -.000030518 841.5 L 594.75 841.5 L 594.75 .00018311 L -.000045776 .00012207 " fill-rule="evenodd"/>
</clipPath>
<g clip-path="url(#cp375)">
<path transform="matrix(1,0,0,-1,0,841.5)" d="M 179.95 589.8 L 192.08 585.99 L 180.09 581.76 L 179.95 589.8 Z " fill-rule="evenodd"/>
</g>
<path transform="matrix(1,0,0,-1,0,841.5)" stroke-width="1.5" stroke-linecap="round" stroke-linejoin="round" fill="none" stroke="#000000" d="M 183.11 512.15 L 193.61 512.15 "/>
<path transform="matrix(1,0,0,-1,0,841.5)" d="M 184.11 508.13 L 172.05 512.15 L 184.11 516.17 L 184.11 508.13 Z " fill-rule="evenodd"/>
<path transform="matrix(1,0,0,-1,0,841.5)" d="M 193.31 434.53 L 255.887 434.53 L 255.887 459.677 L 193.31 459.677 Z " fill="#ffffff" fill-rule="evenodd"/>
<g id="Layer-1" data-name="P">
<clipPath id="cp376">
<path transform="matrix(1,0,0,-1,0,841.5)" d="M .000008862 0 L 594.75 0 L 594.75 841.5 L .000008862 841.5 Z " fill-rule="evenodd"/>
</clipPath>
<g clip-path="url(#cp376)">
<text xml:space="preserve" transform="matrix(1 0 -0 1 0 841.5)" font-size="11.25" font-family="ArialNarrow" font-weight="bold"><tspan y="-443.45" x="204.05 209.30374 214.54625 216.79625 219.78876 224.28876 229.53127 233.26627 235.51627 240.75878">deliveries</tspan></text>
</g>
</g>
<path transform="matrix(1,0,0,-1,0,841.5)" stroke-width="1.5" stroke-linecap="round" stroke-linejoin="round" fill="none" stroke="#000000" d="M 259.91 448.67 L 278.64 448.67 "/>
<path transform="matrix(1,0,0,-1,0,841.5)" d="M 260.91 444.65 L 248.85 448.67 L 260.91 452.69 L 260.91 444.65 Z " fill-rule="evenodd"/>
<path transform="matrix(1,0,0,-1,0,841.5)" stroke-width=".75" stroke-linecap="round" stroke-linejoin="round" fill="none" stroke="#000000" d="M 278.64 427.94 L 306.98603 427.94 L 306.98603 598.66006 L 278.64 598.66006 Z "/>
<path transform="matrix(1,0,0,-1,0,841.5)" d="M 143.71 429.13 L 172.056 429.13 L 172.056 599.85 L 143.71 599.85 Z " fill="#ffffff" fill-rule="evenodd"/>
<path transform="matrix(1,0,0,-1,0,841.5)" stroke-width=".75" stroke-linecap="round" stroke-linejoin="round" fill="none" stroke="#000000" d="M 143.71 429.13 L 172.056 429.13 L 172.056 599.85 L 143.71 599.85 Z "/>
<clipPath id="cp377">
<path transform="matrix(1,0,0,-1,0,841.5)" d="M -.000007629 841.5 L 594.75 841.5 L 594.75 .00012207 L -.000015259 .00012207 " fill-rule="evenodd"/>
</clipPath>
<g clip-path="url(#cp377)">
<path transform="matrix(1,0,0,-1,0,841.5)" stroke-width="1.5" stroke-linecap="round" stroke-linejoin="round" fill="none" stroke="#000000" d="M 128.73 448.06 L 143.43 448.33 "/>
</g>
<clipPath id="cp378">
<path transform="matrix(1,0,0,-1,0,841.5)" d="M -.000007629 841.5 L 594.75 841.5 L 594.75 .00012207 L -.000015259 .00012207 " fill-rule="evenodd"/>
</clipPath>
<g clip-path="url(#cp378)">
<path transform="matrix(1,0,0,-1,0,841.5)" d="M 129.81 444.06 L 117.67 447.85 L 129.66 452.1 L 129.81 444.06 Z " fill-rule="evenodd"/>
</g>
<clipPath id="cp379">
<path transform="matrix(1,0,0,-1,0,841.5)" d="M -.000022888 841.5 L 594.75 841.5 L 594.75 .00018311 L -.000022888 .00012207 " fill-rule="evenodd"/>
</clipPath>
<g clip-path="url(#cp379)">
<path transform="matrix(1,0,0,-1,0,841.5)" stroke-width="1.5" stroke-linecap="round" stroke-linejoin="round" fill="none" stroke="#000000" d="M 121.34 585.89 L 132.4 585.9 "/>
</g>
<clipPath id="cp380">
<path transform="matrix(1,0,0,-1,0,841.5)" d="M -.000022888 841.5 L 594.75 841.5 L 594.75 .00018311 L -.000022888 .00012207 " fill-rule="evenodd"/>
</clipPath>
<g clip-path="url(#cp380)">
<path transform="matrix(1,0,0,-1,0,841.5)" d="M 131.39 589.92 L 143.45 585.91 L 131.39 581.88 L 131.39 589.92 Z " fill-rule="evenodd"/>
</g>
<path transform="matrix(1,0,0,-1,0,841.5)" d="M 60.378 574.64 L 120.472 574.64 L 120.472 598.334 L 60.378 598.334 Z " fill="#ffffff" fill-rule="evenodd"/>
<g id="Layer-1" data-name="P">
<clipPath id="cp381">
<path transform="matrix(1,0,0,-1,0,841.5)" d="M .000008862 0 L 594.75 0 L 594.75 841.5 L .000008862 841.5 Z " fill-rule="evenodd"/>
</clipPath>
<g clip-path="url(#cp381)">
<text xml:space="preserve" transform="matrix(1 0 -0 1 0 841.5)" font-size="11.275" font-family="ArialNarrow" font-weight="bold"><tspan y="-589.58" x="76.975 82.25169 86.01755 91.29424 96.55967 100.32552 105.60222 110.878917 116.88849">orderung </tspan></text>
</g>
</g>
<g id="Layer-1" data-name="P">
<clipPath id="cp382">
<path transform="matrix(1,0,0,-1,0,841.5)" d="M .000008862 0 L 594.75 0 L 594.75 841.5 L .000008862 841.5 Z " fill-rule="evenodd"/>
</clipPath>
<g clip-path="url(#cp382)">
<text xml:space="preserve" transform="matrix(1 0 -0 1 0 841.5)" font-size="11.25" font-family="ArialNarrow" font-weight="bold"><tspan y="-576.35" x="70.95 76.1925 81.44625 86.68875 89.692508 94.94626 103.18126 107.68126 111.41626">customers</tspan></text>
</g>
</g>
<path transform="matrix(1,0,0,-1,0,841.5)" d="M 66.65 435.76 L 117.673999 435.76 L 117.673999 460.907 L 66.65 460.907 Z " fill="#ffffff" fill-rule="evenodd"/>
<g id="Layer-1" data-name="P">
<clipPath id="cp383">
<path transform="matrix(1,0,0,-1,0,841.5)" d="M .000008862 0 L 594.75 0 L 594.75 841.5 L .000008862 841.5 Z " fill-rule="evenodd"/>
</clipPath>
<g clip-path="url(#cp383)">
<text xml:space="preserve" transform="matrix(1 0 -0 1 0 841.5)" font-size="11.25" font-family="ArialNarrow" font-weight="bold"><tspan y="-457.9" x="74.65 79.915 84.4375 89.7025 94.9675 100.24375 103.270008 108.535 113.81126">accepted </tspan></text>
</g>
</g>
<g id="Layer-1" data-name="P">
<clipPath id="cp384">
<path transform="matrix(1,0,0,-1,0,841.5)" d="M .000008862 0 L 594.75 0 L 594.75 841.5 L .000008862 841.5 Z " fill-rule="evenodd"/>
</clipPath>
<g clip-path="url(#cp384)">
<text xml:space="preserve" transform="matrix(1 0 -0 1 0 841.5)" font-size="11.25" font-family="ArialNarrow" font-weight="bold"><tspan y="-444.67" x="84.7 89.95375 95.19625 100.43875 103.442508 108.685009 110.935009 113.927509">overall </tspan></text>
</g>
</g>
<g id="Layer-1" data-name="P">
<clipPath id="cp385">
<path transform="matrix(1,0,0,-1,0,841.5)" d="M .000008862 0 L 594.75 0 L 594.75 841.5 L .000008862 841.5 Z " fill-rule="evenodd"/>
</clipPath>
<g clip-path="url(#cp385)">
<text xml:space="preserve" transform="matrix(1 0 -0 1 0 841.5)" font-size="11.25" font-family="ArialNarrow" font-weight="bold"><tspan y="-431.47" x="79.675 84.92876 90.17126 92.42126 95.41376 99.91376 105.15626 108.89126">delivery</tspan></text>
</g>
</g>
<g id="Layer-1" data-name="P">
<clipPath id="cp386">
<path transform="matrix(1,0,0,-1,0,841.5)" d="M .000008862 0 L 594.75 0 L 594.75 841.5 L .000008862 841.5 Z " fill-rule="evenodd"/>
</clipPath>
<g clip-path="url(#cp386)">
<text xml:space="preserve" transform="matrix(1 0 -0 1 0 841.5)" font-size="11.25" font-family="ArialNarrow" font-weight="bold" font-style="italic"><tspan y="-550.4" x="134.38 139.62252 144.87625 150.11876 153.1225 158.37624 166.61124 171.11124 174.84624">customers</tspan></text>
</g>
</g>
<path transform="matrix(1,0,0,-1,0,841.5)" d="M 253.34 525.85 L 333.192 525.85 L 333.192 579.35598 L 253.34 579.35598 Z " fill="#ffffff" fill-rule="evenodd"/>
<g id="Layer-1" data-name="P">
<clipPath id="cp387">
<path transform="matrix(1,0,0,-1,0,841.5)" d="M .000008862 0 L 594.75 0 L 594.75 841.5 L .000008862 841.5 Z " fill-rule="evenodd"/>
</clipPath>
<g clip-path="url(#cp387)">
<text xml:space="preserve" transform="matrix(1 0 -0 1 0 841.5)" font-size="11.25" font-family="ArialNarrow" font-weight="bold" font-style="italic"><tspan y="-566.2" x="271.73 274.73377 276.98377 280.71876 285.96125 288.965 293.465 296.4575 298.7075 303.94999 306.95375 309.94624">[ retailer  </tspan></text>
</g>
</g>
<clipPath id="cp388">
<path transform="matrix(1,0,0,-1,0,841.5)" d="M .000008862 0 L 594.75 0 L 594.75 841.5 L .000008862 841.5 Z " fill-rule="evenodd"/>
</clipPath>
<g clip-path="url(#cp388)">
<text xml:space="preserve" transform="matrix(1 0 -0 1 0 841.5)" font-size="11.25" font-family="ArialNarrow" font-weight="bold" font-style="italic"><tspan y="-566.2" x="312.4 315.39976">&#x2022; </tspan></text>
</g>
<g id="Layer-1" data-name="P">
<clipPath id="cp389">
<path transform="matrix(1,0,0,-1,0,841.5)" d="M .000008862 0 L 594.75 0 L 594.75 841.5 L .000008862 841.5 Z " fill-rule="evenodd"/>
</clipPath>
<g clip-path="url(#cp389)">
<text xml:space="preserve" transform="matrix(1 0 -0 1 0 841.5)" font-size="11.275" font-family="ArialNarrow" font-weight="bold" font-style="italic"><tspan y="-554.33" x="273.23 278.49543 283.77214 289.04884 295.0584 297.33598 299.61354 304.87895 308.64479">supplier </tspan></text>
</g>
</g>
<clipPath id="cp390">
<path transform="matrix(1,0,0,-1,0,841.5)" d="M .000008862 0 L 594.75 0 L 594.75 841.5 L .000008862 841.5 Z " fill-rule="evenodd"/>
</clipPath>
<g clip-path="url(#cp390)">
<text xml:space="preserve" transform="matrix(1 0 -0 1 0 841.5)" font-size="11.275" font-family="ArialNarrow" font-weight="bold" font-style="italic"><tspan y="-554.33" x="310.88 313.87916 316.86705">&#x2022;  </tspan></text>
</g>
<g id="Layer-1" data-name="P">
<clipPath id="cp391">
<path transform="matrix(1,0,0,-1,0,841.5)" d="M .000008862 0 L 594.75 0 L 594.75 841.5 L .000008862 841.5 Z " fill-rule="evenodd"/>
</clipPath>
<g clip-path="url(#cp391)">
<text xml:space="preserve" transform="matrix(1 0 -0 1 0 841.5)" font-size="11.25" font-family="ArialNarrow" font-weight="bold" font-style="italic"><tspan y="-542.42" x="279.6 282.60377 286.33876 290.83876 293.83125 299.085 304.33876 307.3425">freight </tspan></text>
</g>
</g>
<g id="Layer-1" data-name="P">
<clipPath id="cp392">
<path transform="matrix(1,0,0,-1,0,841.5)" d="M .000008862 0 L 594.75 0 L 594.75 841.5 L .000008862 841.5 Z " fill-rule="evenodd"/>
</clipPath>
<g clip-path="url(#cp392)">
<text xml:space="preserve" transform="matrix(1 0 -0 1 0 841.5)" font-size="11.25" font-family="ArialNarrow" font-weight="bold" font-style="italic"><tspan y="-529.72" x="267.55 270.55375 275.8075 279.54249 286.29249 291.53498 295.26997 300.5237 305.7662 308.76997 314.01246 316.26246 319.99748">forwarders ] </tspan></text>
</g>
</g>
<path transform="matrix(1,0,0,-1,0,841.5)" stroke-width="1.5" stroke-linecap="round" stroke-linejoin="round" fill="none" stroke="#000000" d="M 183.11 448.33 L 200.13 448.33 "/>
<path transform="matrix(1,0,0,-1,0,841.5)" d="M 184.11 444.31 L 172.05 448.33 L 184.11 452.35 L 184.11 444.31 Z " fill-rule="evenodd"/>
</g>
</g>
</svg>
