<?xml version="1.0" encoding="UTF-8" standalone="no"?>
<!DOCTYPE svg PUBLIC "-//W3C//DTD SVG 1.1//EN" "http://www.w3.org/Graphics/SVG/1.1/DTD/svg11.dtd">
<svg xmlns="http://www.w3.org/2000/svg" xmlns:xlink="http://www.w3.org/1999/xlink" version="1.1" width="594.75pt" height="841.5pt" viewBox="0 0 594.75 841.5">
<g enable-background="new">
<g>
<path transform="matrix(1,0,0,-1,0,841.5)" stroke-width=".75" stroke-linecap="round" stroke-linejoin="round" fill="none" stroke="#000000" d="M 409.24 198.53 L 437.586 198.53 L 437.586 440.59 L 409.24 440.59 Z "/>
<g id="Layer-1" data-name="P">
<clipPath id="cp516">
<path transform="matrix(1,0,0,-1,0,841.5)" d="M .000008862 0 L 594.75 0 L 594.75 841.5 L .000008862 841.5 Z " fill-rule="evenodd"/>
</clipPath>
<g clip-path="url(#cp516)">
<text xml:space="preserve" transform="matrix(1 0 -0 1 0 841.5)" font-size="11.275" font-family="ArialNarrow" font-weight="bold" font-style="italic"><tspan y="-405.05" x="404.27 407.26914 409.52415 414.767 420.02116 426.00819 431.26234 433.51734 436.50523 441.00395 444.74723">[ supplier </tspan></text>
</g>
</g>
<clipPath id="cp517">
<path transform="matrix(1,0,0,-1,0,841.5)" d="M .000008862 0 L 594.75 0 L 594.75 841.5 L .000008862 841.5 Z " fill-rule="evenodd"/>
</clipPath>
<g clip-path="url(#cp517)">
<text xml:space="preserve" transform="matrix(1 0 -0 1 0 841.5)" font-size="11.25" font-family="ArialNarrow" font-weight="bold" font-style="italic"><tspan y="-391.82" x="407.72 410.71977">&#x2022; </tspan></text>
</g>
<g id="Layer-1" data-name="P">
<clipPath id="cp518">
<path transform="matrix(1,0,0,-1,0,841.5)" d="M .000008862 0 L 594.75 0 L 594.75 841.5 L .000008862 841.5 Z " fill-rule="evenodd"/>
</clipPath>
<g clip-path="url(#cp518)">
<text xml:space="preserve" transform="matrix(1 0 -0 1 0 841.5)" font-size="11.25" font-family="ArialNarrow" font-weight="bold" font-style="italic"><tspan y="-391.82" x="413.4 416.40376 420.13874 424.63874 427.63124 432.88499 438.13874 441.1425">freight </tspan></text>
</g>
</g>
<g id="Layer-1" data-name="P">
<clipPath id="cp519">
<path transform="matrix(1,0,0,-1,0,841.5)" d="M .000008862 0 L 594.75 0 L 594.75 841.5 L .000008862 841.5 Z " fill-rule="evenodd"/>
</clipPath>
<g clip-path="url(#cp519)">
<text xml:space="preserve" transform="matrix(1 0 -0 1 0 841.5)" font-size="11.275" font-family="ArialNarrow" font-weight="bold" font-style="italic"><tspan y="-378.63" x="409.3 412.29914 417.55329 421.29658 428.0503 433.29316">forwar</tspan></text>
</g>
</g>
<g id="Layer-1" data-name="P">
<clipPath id="cp520">
<path transform="matrix(1,0,0,-1,0,841.5)" d="M .000008862 0 L 594.75 0 L 594.75 841.5 L .000008862 841.5 Z " fill-rule="evenodd"/>
</clipPath>
<g clip-path="url(#cp520)">
<text xml:space="preserve" transform="matrix(1 0 -0 1 0 841.5)" font-size="11.275" font-family="ArialNarrow" font-weight="bold" font-style="italic"><tspan y="-378.63" x="436.9">-</tspan></text>
</g>
</g>
<g id="Layer-1" data-name="P">
<clipPath id="cp521">
<path transform="matrix(1,0,0,-1,0,841.5)" d="M .000008862 0 L 594.75 0 L 594.75 841.5 L .000008862 841.5 Z " fill-rule="evenodd"/>
</clipPath>
<g clip-path="url(#cp521)">
<text xml:space="preserve" transform="matrix(1 0 -0 1 0 841.5)" font-size="11.25" font-family="ArialNarrow" font-weight="bold" font-style="italic"><tspan y="-365.4" x="412.3 417.55375 422.79624 426.53123 431.03123 434.0237">ders ]</tspan></text>
</g>
</g>
<path transform="matrix(1,0,0,-1,0,841.5)" stroke-width="1.5" stroke-linecap="round" stroke-linejoin="round" fill="none" stroke="#000000" d="M 317.3 356.21 L 345.92 356.21 "/>
<path transform="matrix(1,0,0,-1,0,841.5)" d="M 318.3 352.19 L 306.24 356.21 L 318.3 360.23 L 318.3 352.19 Z " fill-rule="evenodd"/>
<g id="Layer-1" data-name="P">
<clipPath id="cp522">
<path transform="matrix(1,0,0,-1,0,841.5)" d="M .000008862 0 L 594.75 0 L 594.75 841.5 L .000008862 841.5 Z " fill-rule="evenodd"/>
</clipPath>
<g clip-path="url(#cp522)">
<text xml:space="preserve" transform="matrix(1 0 -0 1 0 841.5)" font-size="11.25" font-family="ArialNarrow" font-weight="bold" font-style="italic"><tspan y="-332.13" x="280.55 287.3 292.54249 296.27748">ware</tspan></text>
</g>
</g>
<g id="Layer-1" data-name="P">
<clipPath id="cp523">
<path transform="matrix(1,0,0,-1,0,841.5)" d="M .000008862 0 L 594.75 0 L 594.75 841.5 L .000008862 841.5 Z " fill-rule="evenodd"/>
</clipPath>
<g clip-path="url(#cp523)">
<text xml:space="preserve" transform="matrix(1 0 -0 1 0 841.5)" font-size="11.25" font-family="ArialNarrow" font-weight="bold" font-style="italic"><tspan y="-332.13" x="301.15">-</tspan></text>
</g>
</g>
<g id="Layer-1" data-name="P">
<clipPath id="cp524">
<path transform="matrix(1,0,0,-1,0,841.5)" d="M .000008862 0 L 594.75 0 L 594.75 841.5 L .000008862 841.5 Z " fill-rule="evenodd"/>
</clipPath>
<g clip-path="url(#cp524)">
<text xml:space="preserve" transform="matrix(1 0 -0 1 0 841.5)" font-size="11.25" font-family="ArialNarrow" font-weight="bold" font-style="italic"><tspan y="-332.13" x="304.15"> </tspan></text>
</g>
</g>
<g id="Layer-1" data-name="P">
<clipPath id="cp525">
<path transform="matrix(1,0,0,-1,0,841.5)" d="M .000008862 0 L 594.75 0 L 594.75 841.5 L .000008862 841.5 Z " fill-rule="evenodd"/>
</clipPath>
<g clip-path="url(#cp525)">
<text xml:space="preserve" transform="matrix(1 0 -0 1 0 841.5)" font-size="11.275" font-family="ArialNarrow" font-weight="bold" font-style="italic"><tspan y="-318.92" x="279.05 284.30415 290.29118 295.54533 300.78819">house</tspan></text>
</g>
</g>
<path transform="matrix(1,0,0,-1,0,841.5)" stroke-width=".75" stroke-linecap="round" stroke-linejoin="round" fill="none" stroke="#000000" d="M 148.11 199.24 L 176.456 199.24 L 176.456 441.3 L 148.11 441.3 Z "/>
<g id="Layer-1" data-name="P">
<clipPath id="cp526">
<path transform="matrix(1,0,0,-1,0,841.5)" d="M .000008862 0 L 594.75 0 L 594.75 841.5 L .000008862 841.5 Z " fill-rule="evenodd"/>
</clipPath>
<g clip-path="url(#cp526)">
<text xml:space="preserve" transform="matrix(1 0 -0 1 0 841.5)" font-size="11.25" font-family="ArialNarrow" font-weight="bold" font-style="italic"><tspan y="-415.72" x="136.95 139.95374 142.20374 147.46874 152.74498 158.00998 161.01372 166.28997 174.55872 179.82372 182.82746 188.09246">[ customers </tspan></text>
</g>
</g>
<clipPath id="cp527">
<path transform="matrix(1,0,0,-1,0,841.5)" d="M .000008862 0 L 594.75 0 L 594.75 841.5 L .000008862 841.5 Z " fill-rule="evenodd"/>
</clipPath>
<g clip-path="url(#cp527)">
<text xml:space="preserve" transform="matrix(1 0 -0 1 0 841.5)" font-size="11.25" font-family="ArialNarrow" font-weight="bold" font-style="italic"><tspan y="-415.72" x="190.65 193.67475">&#x2022; </tspan></text>
</g>
<g id="Layer-1" data-name="P">
<clipPath id="cp528">
<path transform="matrix(1,0,0,-1,0,841.5)" d="M .000008862 0 L 594.75 0 L 594.75 841.5 L .000008862 841.5 Z " fill-rule="evenodd"/>
</clipPath>
<g clip-path="url(#cp528)">
<text xml:space="preserve" transform="matrix(1 0 -0 1 0 841.5)" font-size="11.25" font-family="ArialNarrow" font-weight="bold" font-style="italic"><tspan y="-402.5" x="153.85 159.10375 162.83875 168.09249 173.33499 177.06999">order </tspan></text>
</g>
</g>
<g id="Layer-1" data-name="P">
<clipPath id="cp529">
<path transform="matrix(1,0,0,-1,0,841.5)" d="M .000008862 0 L 594.75 0 L 594.75 841.5 L .000008862 841.5 Z " fill-rule="evenodd"/>
</clipPath>
<g clip-path="url(#cp529)">
<text xml:space="preserve" transform="matrix(1 0 -0 1 0 841.5)" font-size="11.25" font-family="ArialNarrow" font-weight="bold" font-style="italic"><tspan y="-389.3" x="134.7 142.935 147.435 153.42 157.92 163.905 168.405 176.64 181.8825 187.13625 190.13999">management </tspan></text>
</g>
</g>
<clipPath id="cp530">
<path transform="matrix(1,0,0,-1,0,841.5)" d="M .000008862 0 L 594.75 0 L 594.75 841.5 L .000008862 841.5 Z " fill-rule="evenodd"/>
</clipPath>
<g clip-path="url(#cp530)">
<text xml:space="preserve" transform="matrix(1 0 -0 1 0 841.5)" font-size="11.25" font-family="ArialNarrow" font-weight="bold" font-style="italic"><tspan y="-389.3" x="192.93 195.92975">&#x2022; </tspan></text>
</g>
<g id="Layer-1" data-name="P">
<clipPath id="cp531">
<path transform="matrix(1,0,0,-1,0,841.5)" d="M .000008862 0 L 594.75 0 L 594.75 841.5 L .000008862 841.5 Z " fill-rule="evenodd"/>
</clipPath>
<g clip-path="url(#cp531)">
<text xml:space="preserve" transform="matrix(1 0 -0 1 0 841.5)" font-size="11.275" font-family="ArialNarrow" font-weight="bold" font-style="italic"><tspan y="-376.1" x="145.08 147.33499 153.32202 157.82076 163.06363 168.31778 171.31694 177.30397 180.30312 185.54599">inventory </tspan></text>
</g>
</g>
<g id="Layer-1" data-name="P">
<clipPath id="cp532">
<path transform="matrix(1,0,0,-1,0,841.5)" d="M .000008862 0 L 594.75 0 L 594.75 841.5 L .000008862 841.5 Z " fill-rule="evenodd"/>
</clipPath>
<g clip-path="url(#cp532)">
<text xml:space="preserve" transform="matrix(1 0 -0 1 0 841.5)" font-size="11.25" font-family="ArialNarrow" font-weight="bold" font-style="italic"><tspan y="-362.88" x="134.78 143.015 147.515 153.5 158 163.985 168.485 176.72 181.96251 187.21625 190.21999 193.2125">management ]</tspan></text>
</g>
</g>
<path transform="matrix(1,0,0,-1,0,841.5)" stroke-width=".75" stroke-linecap="round" stroke-linejoin="round" fill="none" stroke="#000000" d="M 277.98 271.04 L 306.157 271.04 L 306.157 370.961 L 277.98 370.961 Z "/>
<path transform="matrix(1,0,0,-1,0,841.5)" d="M 255.4 415.25 L 320.597 415.25 L 320.597 440.397 L 255.4 440.397 Z " fill="#ffffff" fill-rule="evenodd"/>
<g id="Layer-1" data-name="P">
<clipPath id="cp533">
<path transform="matrix(1,0,0,-1,0,841.5)" d="M .000008862 0 L 594.75 0 L 594.75 841.5 L .000008862 841.5 Z " fill-rule="evenodd"/>
</clipPath>
<g clip-path="url(#cp533)">
<text xml:space="preserve" transform="matrix(1 0 -0 1 0 841.5)" font-size="11.25" font-family="ArialNarrow" font-weight="bold"><tspan y="-430.75" x="273.8 279.065 284.34129 289.61756 295.63633 297.9088 303.17384">supply </tspan></text>
</g>
</g>
<g id="Layer-1" data-name="P">
<clipPath id="cp534">
<path transform="matrix(1,0,0,-1,0,841.5)" d="M .000008862 0 L 594.75 0 L 594.75 841.5 L .000008862 841.5 Z " fill-rule="evenodd"/>
</clipPath>
<g clip-path="url(#cp534)">
<text xml:space="preserve" transform="matrix(1 0 -0 1 0 841.5)" font-size="11.25" font-family="ArialNarrow" font-weight="bold"><tspan y="-417.55" x="274.33 279.58375 283.31874 288.57249 293.81498 297.54997">orders</tspan></text>
</g>
</g>
<path transform="matrix(1,0,0,-1,0,841.5)" d="M 330.52 346.04 L 387.496 346.04 L 387.496 367.549 L 330.52 367.549 Z " fill="#ffffff" fill-rule="evenodd"/>
<g id="Layer-1" data-name="P">
<clipPath id="cp535">
<path transform="matrix(1,0,0,-1,0,841.5)" d="M .000008862 0 L 594.75 0 L 594.75 841.5 L .000008862 841.5 Z " fill-rule="evenodd"/>
</clipPath>
<g clip-path="url(#cp535)">
<text xml:space="preserve" transform="matrix(1 0 -0 1 0 841.5)" font-size="11.275" font-family="ArialNarrow" font-weight="bold"><tspan y="-359.68" x="340.4 345.65415 351.64118 356.89533 362.14949 367.39234 369.64735 372.64649 378.6335">goods to </tspan></text>
</g>
</g>
<g id="Layer-1" data-name="P">
<clipPath id="cp536">
<path transform="matrix(1,0,0,-1,0,841.5)" d="M .000008862 0 L 594.75 0 L 594.75 841.5 L .000008862 841.5 Z " fill-rule="evenodd"/>
</clipPath>
<g clip-path="url(#cp536)">
<text xml:space="preserve" transform="matrix(1 0 -0 1 0 841.5)" font-size="11.25" font-family="ArialNarrow" font-weight="bold"><tspan y="-346.45" x="335.88 342.63 347.8725 351.60749 356.10749 362.0925 367.34626 372.6 377.8425">warehouse</tspan></text>
</g>
</g>
<path transform="matrix(1,0,0,-1,0,841.5)" d="M 209.02 328.84 L 258.98103 328.84 L 258.98103 385.499 L 209.02 385.499 Z " fill="#ffffff" fill-rule="evenodd"/>
<g id="Layer-1" data-name="P">
<clipPath id="cp537">
<path transform="matrix(1,0,0,-1,0,841.5)" d="M .000008862 0 L 594.75 0 L 594.75 841.5 L .000008862 841.5 Z " fill-rule="evenodd"/>
</clipPath>
<g clip-path="url(#cp537)">
<text xml:space="preserve" transform="matrix(1 0 -0 1 0 841.5)" font-size="11.25" font-family="ArialNarrow" font-weight="bold"><tspan y="-366.65" x="216.22 221.46251 225.96251 231.20502 236.45876 242.44376">acknow</tspan></text>
</g>
</g>
<g id="Layer-1" data-name="P">
<clipPath id="cp538">
<path transform="matrix(1,0,0,-1,0,841.5)" d="M .000008862 0 L 594.75 0 L 594.75 841.5 L .000008862 841.5 Z " fill-rule="evenodd"/>
</clipPath>
<g clip-path="url(#cp538)">
<text xml:space="preserve" transform="matrix(1 0 -0 1 0 841.5)" font-size="11.25" font-family="ArialNarrow" font-weight="bold"><tspan y="-366.65" x="249.35">-</tspan></text>
</g>
</g>
<g id="Layer-1" data-name="P">
<clipPath id="cp539">
<path transform="matrix(1,0,0,-1,0,841.5)" d="M .000008862 0 L 594.75 0 L 594.75 841.5 L .000008862 841.5 Z " fill-rule="evenodd"/>
</clipPath>
<g clip-path="url(#cp539)">
<text xml:space="preserve" transform="matrix(1 0 -0 1 0 841.5)" font-size="11.275" font-family="ArialNarrow" font-weight="bold"><tspan y="-353.45" x="219.75 222.00499 227.24787 232.50202 238.48905 242.98778 248.97481">ledged </tspan></text>
</g>
</g>
<g id="Layer-1" data-name="P">
<clipPath id="cp540">
<path transform="matrix(1,0,0,-1,0,841.5)" d="M .000008862 0 L 594.75 0 L 594.75 841.5 L .000008862 841.5 Z " fill-rule="evenodd"/>
</clipPath>
<g clip-path="url(#cp540)">
<text xml:space="preserve" transform="matrix(1 0 -0 1 0 841.5)" font-size="11.25" font-family="ArialNarrow" font-weight="bold"><tspan y="-340.22" x="216.98 220.715 225.215 230.4575 235.70001 237.95001 243.20375 246.20749">receipts</tspan></text>
</g>
</g>
<path transform="matrix(1,0,0,-1,0,841.5)" d="M 330.52 272.95 L 389.447 272.95 L 389.447 298.09703 L 330.52 298.09703 Z " fill="#ffffff" fill-rule="evenodd"/>
<g id="Layer-1" data-name="P">
<clipPath id="cp541">
<path transform="matrix(1,0,0,-1,0,841.5)" d="M .000008862 0 L 594.75 0 L 594.75 841.5 L .000008862 841.5 Z " fill-rule="evenodd"/>
</clipPath>
<g clip-path="url(#cp541)">
<text xml:space="preserve" transform="matrix(1 0 -0 1 0 841.5)" font-size="11.275" font-family="ArialNarrow" font-weight="bold"><tspan y="-288.35" x="340.88 343.87916 349.1333 352.1212 355.12034 358.11949 363.36235 365.61735 371.60438 376.85853 379.85768">to freight </tspan></text>
</g>
</g>
<g id="Layer-1" data-name="P">
<clipPath id="cp542">
<path transform="matrix(1,0,0,-1,0,841.5)" d="M .000008862 0 L 594.75 0 L 594.75 841.5 L .000008862 841.5 Z " fill-rule="evenodd"/>
</clipPath>
<g clip-path="url(#cp542)">
<text xml:space="preserve" transform="matrix(1 0 -0 1 0 841.5)" font-size="11.25" font-family="ArialNarrow" font-weight="bold"><tspan y="-275.13" x="337.1 340.10377 345.3575 349.0925 355.8425 361.085 364.81999 370.07374 375.31623 378.31999">forwarders</tspan></text>
</g>
</g>
<path transform="matrix(1,0,0,-1,0,841.5)" d="M 205.16 272.41 L 251.223 272.41 L 251.223 297.557 L 205.16 297.557 Z " fill="#ffffff" fill-rule="evenodd"/>
<g id="Layer-1" data-name="P">
<clipPath id="cp543">
<path transform="matrix(1,0,0,-1,0,841.5)" d="M .000008862 0 L 594.75 0 L 594.75 841.5 L .000008862 841.5 Z " fill-rule="evenodd"/>
</clipPath>
<g clip-path="url(#cp543)">
<text xml:space="preserve" transform="matrix(1 0 -0 1 0 841.5)" font-size="11.25" font-family="ArialNarrow" font-weight="bold"><tspan y="-287.8" x="215.17 220.42374 225.66625 229.40125 233.90125 239.14376 241.39376">parcel </tspan></text>
</g>
</g>
<g id="Layer-1" data-name="P">
<clipPath id="cp544">
<path transform="matrix(1,0,0,-1,0,841.5)" d="M .000008862 0 L 594.75 0 L 594.75 841.5 L .000008862 841.5 Z " fill-rule="evenodd"/>
</clipPath>
<g clip-path="url(#cp544)">
<text xml:space="preserve" transform="matrix(1 0 -0 1 0 841.5)" font-size="11.275" font-family="ArialNarrow" font-weight="bold"><tspan y="-274.6" x="214.43 219.68415 223.42745 228.6816 233.92447 237.66777">orders</tspan></text>
</g>
</g>
<path transform="matrix(1,0,0,-1,0,841.5)" d="M 252.57 202.89 L 328.539 202.89 L 328.539 228.037 L 252.57 228.037 Z " fill="#ffffff" fill-rule="evenodd"/>
<g id="Layer-1" data-name="P">
<clipPath id="cp545">
<path transform="matrix(1,0,0,-1,0,841.5)" d="M .000008862 0 L 594.75 0 L 594.75 841.5 L .000008862 841.5 Z " fill-rule="evenodd"/>
</clipPath>
<g clip-path="url(#cp545)">
<text xml:space="preserve" transform="matrix(1 0 -0 1 0 841.5)" font-size="11.275" font-family="ArialNarrow" font-weight="bold"><tspan y="-211.63" x="273.85 279.10417 284.34703 286.60203 289.5899 294.08863 299.33149 303.07478">delivery</tspan></text>
</g>
</g>
<path transform="matrix(1,0,0,-1,0,841.5)" stroke-width="1.5" stroke-linecap="round" stroke-linejoin="round" fill="none" stroke="#000000" d="M 307.84 427.75 L 398.18 427.75 "/>
<path transform="matrix(1,0,0,-1,0,841.5)" d="M 397.18 431.77 L 409.24 427.75 L 397.18 423.73 L 397.18 431.77 Z " fill-rule="evenodd"/>
<path transform="matrix(1,0,0,-1,0,841.5)" stroke-width="1.5" stroke-linecap="round" stroke-linejoin="round" fill="none" stroke="#000000" d="M 176.26 427.75 L 255.87 427.75 "/>
<path transform="matrix(1,0,0,-1,0,841.5)" d="M 254.87 431.77 L 266.93 427.75 L 254.87 423.73 L 254.87 431.77 Z " fill-rule="evenodd"/>
<path transform="matrix(1,0,0,-1,0,841.5)" stroke-width="1.5" stroke-linecap="round" stroke-linejoin="round" fill="none" stroke="#000000" d="M 187.51 356.75 L 213.39 356.75 "/>
<path transform="matrix(1,0,0,-1,0,841.5)" d="M 188.52 352.73 L 176.46 356.75 L 188.52 360.77 L 188.52 352.73 Z " fill-rule="evenodd"/>
<path transform="matrix(1,0,0,-1,0,841.5)" stroke-width="1.5" stroke-linecap="round" stroke-linejoin="round" fill="none" stroke="#000000" d="M 262.2 356.7 L 277.98 356.7 "/>
<path transform="matrix(1,0,0,-1,0,841.5)" d="M 263.21 352.68 L 251.15 356.7 L 263.21 360.72 L 263.21 352.68 Z " fill-rule="evenodd"/>
<path transform="matrix(1,0,0,-1,0,841.5)" stroke-width="1.5" stroke-linecap="round" stroke-linejoin="round" fill="none" stroke="#000000" d="M 390.85 356.61 L 409.5 356.61 "/>
<path transform="matrix(1,0,0,-1,0,841.5)" d="M 391.85 352.59 L 379.79 356.61 L 391.85 360.63 L 391.85 352.59 Z " fill-rule="evenodd"/>
<path transform="matrix(1,0,0,-1,0,841.5)" stroke-width="1.5" stroke-linecap="round" stroke-linejoin="round" fill="none" stroke="#000000" d="M 245.48 284.74 L 266.92 284.74 "/>
<path transform="matrix(1,0,0,-1,0,841.5)" d="M 265.92 288.76 L 277.98 284.74 L 265.92 280.72 L 265.92 288.76 Z " fill-rule="evenodd"/>
<path transform="matrix(1,0,0,-1,0,841.5)" stroke-width="1.5" stroke-linecap="round" stroke-linejoin="round" fill="none" stroke="#000000" d="M 176.76 284.74 L 198.2 284.74 "/>
<path transform="matrix(1,0,0,-1,0,841.5)" d="M 197.2 288.76 L 209.26 284.74 L 197.2 280.72 L 197.2 288.76 Z " fill-rule="evenodd"/>
<path transform="matrix(1,0,0,-1,0,841.5)" stroke-width="1.5" stroke-linecap="round" stroke-linejoin="round" fill="none" stroke="#000000" d="M 306.83 285.59 L 334.09 285.59 "/>
<path transform="matrix(1,0,0,-1,0,841.5)" d="M 333.08 289.61 L 345.14 285.59 L 333.08 281.57 L 333.08 289.61 Z " fill-rule="evenodd"/>
<clipPath id="cp546">
<path transform="matrix(1,0,0,-1,0,841.5)" d="M -.000061035 841.5 L 594.75 841.5 L 594.75 .000061035 L -.000061035 .000061035 " fill-rule="evenodd"/>
</clipPath>
<g clip-path="url(#cp546)">
<path transform="matrix(1,0,0,-1,0,841.5)" stroke-width="1.5" stroke-linecap="round" stroke-linejoin="round" fill="none" stroke="#000000" d="M 375.87 285.63 L 398.39 285.68 "/>
</g>
<clipPath id="cp547">
<path transform="matrix(1,0,0,-1,0,841.5)" d="M -.000061035 841.5 L 594.75 841.5 L 594.75 .000061035 L -.000061035 .000061035 " fill-rule="evenodd"/>
</clipPath>
<g clip-path="url(#cp547)">
<path transform="matrix(1,0,0,-1,0,841.5)" d="M 397.37 289.69 L 409.44 285.7 L 397.39 281.65 L 397.37 289.69 Z " fill-rule="evenodd"/>
</g>
<path transform="matrix(1,0,0,-1,0,841.5)" stroke-width="1.5" stroke-linecap="round" stroke-linejoin="round" fill="none" stroke="#000000" d="M 324.57 215.89 L 409.24 215.89 "/>
<path transform="matrix(1,0,0,-1,0,841.5)" d="M 325.57 211.87 L 313.51 215.89 L 325.57 219.91 L 325.57 211.87 Z " fill-rule="evenodd"/>
<path transform="matrix(1,0,0,-1,0,841.5)" stroke-width="1.5" stroke-linecap="round" stroke-linejoin="round" fill="none" stroke="#000000" d="M 187.51 215.52 L 265.09 215.52 "/>
<path transform="matrix(1,0,0,-1,0,841.5)" d="M 188.52 211.5 L 176.46 215.52 L 188.52 219.54 L 188.52 211.5 Z " fill-rule="evenodd"/>
</g>
</g>
</svg>
