<?xml version="1.0" encoding="UTF-8" standalone="no"?>
<!DOCTYPE svg PUBLIC "-//W3C//DTD SVG 1.1//EN" "http://www.w3.org/Graphics/SVG/1.1/DTD/svg11.dtd">
<svg xmlns="http://www.w3.org/2000/svg" xmlns:xlink="http://www.w3.org/1999/xlink" version="1.1" width="594.75pt" height="841.5pt" viewBox="0 0 594.75 841.5">
<g enable-background="new">
<g>
<path transform="matrix(1,0,0,-1,0,841.5)" d="M 474.24 155.79 L 532.239 155.79 L 532.239 180.937 L 474.24 180.937 Z " fill="#ffffff" fill-rule="evenodd"/>
<g id="Layer-1" data-name="P">
<clipPath id="cp116">
<path transform="matrix(1,0,0,-1,0,841.5)" d="M .000008862 0 L 594.75 0 L 594.75 841.5 L .000008862 841.5 Z " fill-rule="evenodd"/>
</clipPath>
<g clip-path="url(#cp116)">
<text xml:space="preserve" transform="matrix(1 0 -0 1 0 841.5)" font-size="11.25" font-family="ArialNarrow" font-weight="bold"><tspan y="-171.07" x="489.77 492.77375 498.0275 501.02 504.02375 507.0275 512.26998 514.51998 520.50497 525.75869 528.7624">to freight </tspan></text>
</g>
</g>
<g id="Layer-1" data-name="P">
<clipPath id="cp117">
<path transform="matrix(1,0,0,-1,0,841.5)" d="M .000008862 0 L 594.75 0 L 594.75 841.5 L .000008862 841.5 Z " fill-rule="evenodd"/>
</clipPath>
<g clip-path="url(#cp117)">
<text xml:space="preserve" transform="matrix(1 0 -0 1 0 841.5)" font-size="11.275" font-family="ArialNarrow" font-weight="bold"><tspan y="-157.88" x="482.23 485.22917 490.50587 494.24916 501.02543 506.29084 510.03413 515.31088 520.5763 523.57546">forwarders</tspan></text>
</g>
</g>
<path transform="matrix(1,0,0,-1,0,841.5)" d="M 479.2 228.25 L 534.365 228.25 L 534.365 249.759 L 479.2 249.759 Z " fill="#ffffff" fill-rule="evenodd"/>
<g id="Layer-1" data-name="P">
<clipPath id="cp118">
<path transform="matrix(1,0,0,-1,0,841.5)" d="M .000008862 0 L 594.75 0 L 594.75 841.5 L .000008862 841.5 Z " fill-rule="evenodd"/>
</clipPath>
<g clip-path="url(#cp118)">
<text xml:space="preserve" transform="matrix(1 0 -0 1 0 841.5)" font-size="11.25" font-family="ArialNarrow" font-weight="bold"><tspan y="-241.78" x="492.9 498.17628 504.19505 509.4713 514.74758 520.0126 522.2626 525.2663 531.28506">goods to </tspan></text>
</g>
</g>
<g id="Layer-1" data-name="P">
<clipPath id="cp119">
<path transform="matrix(1,0,0,-1,0,841.5)" d="M .000008862 0 L 594.75 0 L 594.75 841.5 L .000008862 841.5 Z " fill-rule="evenodd"/>
</clipPath>
<g clip-path="url(#cp119)">
<text xml:space="preserve" transform="matrix(1 0 -0 1 0 841.5)" font-size="11.275" font-family="ArialNarrow" font-weight="bold"><tspan y="-228.58" x="483.85 490.60374 495.8466 499.58988 504.0886 510.07563 515.3298 520.5839 525.82687">warehouse</tspan></text>
</g>
</g>
<clipPath id="cp120">
<path transform="matrix(1,0,0,-1,0,841.5)" d="M -.000091553 841.5 L 594.75 841.5 L 594.75 .00012207 L -.000091553 .00012207 " fill-rule="evenodd"/>
</clipPath>
<g clip-path="url(#cp120)">
<path transform="matrix(1,0,0,-1,0,841.5)" stroke-width="1.5" stroke-linecap="round" stroke-linejoin="round" fill="none" stroke="#000000" d="M 290.08 310.28 L 478.72 309.48 "/>
</g>
<clipPath id="cp121">
<path transform="matrix(1,0,0,-1,0,841.5)" d="M -.000091553 841.5 L 594.75 841.5 L 594.75 .00012207 L -.000091553 .00012207 " fill-rule="evenodd"/>
</clipPath>
<g clip-path="url(#cp121)">
<path transform="matrix(1,0,0,-1,0,841.5)" d="M 477.73 313.51 L 489.77 309.44 L 477.69 305.47 L 477.73 313.51 Z " fill-rule="evenodd"/>
</g>
<path transform="matrix(1,0,0,-1,0,841.5)" stroke-width="1.5" stroke-linecap="round" stroke-linejoin="round" fill="none" stroke="#000000" d="M 446.88 238.74 L 488.41 238.74 "/>
<path transform="matrix(1,0,0,-1,0,841.5)" d="M 447.89 234.72 L 435.83 238.74 L 447.89 242.76 L 447.89 234.72 Z " fill-rule="evenodd"/>
<path transform="matrix(1,0,0,-1,0,841.5)" stroke-width="1.5" stroke-linecap="round" stroke-linejoin="round" fill="none" stroke="#000000" d="M 436.42 168.12 L 477.35 168.12 "/>
<path transform="matrix(1,0,0,-1,0,841.5)" d="M 476.35 172.14 L 488.41 168.12 L 476.35 164.1 L 476.35 172.14 Z " fill-rule="evenodd"/>
<g id="Layer-1" data-name="P">
<clipPath id="cp122">
<path transform="matrix(1,0,0,-1,0,841.5)" d="M .000008862 0 L 594.75 0 L 594.75 841.5 L .000008862 841.5 Z " fill-rule="evenodd"/>
</clipPath>
<g clip-path="url(#cp122)">
<text xml:space="preserve" transform="matrix(1 0 -0 1 0 841.5)" font-size="12.025" font-family="ArialNarrow" font-weight="bold" font-style="italic"><tspan y="-220.88" x="408.82 416.3236 422.31205 426.06385">ware</tspan></text>
</g>
</g>
<g id="Layer-1" data-name="P">
<clipPath id="cp123">
<path transform="matrix(1,0,0,-1,0,841.5)" d="M .000008862 0 L 594.75 0 L 594.75 841.5 L .000008862 841.5 Z " fill-rule="evenodd"/>
</clipPath>
<g clip-path="url(#cp123)">
<text xml:space="preserve" transform="matrix(1 0 -0 1 0 841.5)" font-size="12.025" font-family="ArialNarrow" font-weight="bold" font-style="italic"><tspan y="-220.88" x="431.27">-</tspan></text>
</g>
</g>
<g id="Layer-1" data-name="P">
<clipPath id="cp124">
<path transform="matrix(1,0,0,-1,0,841.5)" d="M .000008862 0 L 594.75 0 L 594.75 841.5 L .000008862 841.5 Z " fill-rule="evenodd"/>
</clipPath>
<g clip-path="url(#cp124)">
<text xml:space="preserve" transform="matrix(1 0 -0 1 0 841.5)" font-size="12.025" font-family="ArialNarrow" font-weight="bold" font-style="italic"><tspan y="-220.88" x="434.55"> </tspan></text>
</g>
</g>
<g id="Layer-1" data-name="P">
<clipPath id="cp125">
<path transform="matrix(1,0,0,-1,0,841.5)" d="M .000008862 0 L 594.75 0 L 594.75 841.5 L .000008862 841.5 Z " fill-rule="evenodd"/>
</clipPath>
<g clip-path="url(#cp125)">
<text xml:space="preserve" transform="matrix(1 0 -0 1 0 841.5)" font-size="12" font-family="ArialNarrow" font-weight="bold" font-style="italic"><tspan y="-206.45" x="407.17 413.182 419.194 425.22999 430.50999">house</tspan></text>
</g>
</g>
<path transform="matrix(1,0,0,-1,0,841.5)" stroke-width="1.5" stroke-linecap="round" stroke-linejoin="round" fill="none" stroke="#000000" d="M 221.95 310.36 L 249.6 310.36 "/>
<path transform="matrix(1,0,0,-1,0,841.5)" d="M 248.59 314.38 L 260.65 310.36 L 248.59 306.34 L 248.59 314.38 Z " fill-rule="evenodd"/>
<path transform="matrix(1,0,0,-1,0,841.5)" stroke-width="1.5" stroke-linecap="round" stroke-linejoin="round" fill="none" stroke="#000000" d="M 245.76 239.48 L 260.65 239.48 "/>
<path transform="matrix(1,0,0,-1,0,841.5)" d="M 246.76 235.46 L 234.7 239.48 L 246.76 243.5 L 246.76 235.46 Z " fill-rule="evenodd"/>
<path transform="matrix(1,0,0,-1,0,841.5)" stroke-width=".75" stroke-linecap="round" stroke-linejoin="round" fill="none" stroke="#000000" d="M 261.73 223.91 L 290.07603 223.91 L 290.07603 323.831 L 261.73 323.831 Z "/>
<g id="Layer-1" data-name="P">
<clipPath id="cp126">
<path transform="matrix(1,0,0,-1,0,841.5)" d="M .000008862 0 L 594.75 0 L 594.75 841.5 L .000008862 841.5 Z " fill-rule="evenodd"/>
</clipPath>
<g clip-path="url(#cp126)">
<text xml:space="preserve" transform="matrix(1 0 -0 1 0 841.5)" font-size="12.025" font-family="ArialNarrow" font-weight="bold" font-style="italic"><tspan y="-285.9" x="252.68 255.66219 261.6867 266.91758 272.1725 278.19703 281.91276 287.9373 291.66505 296.91996">inventory </tspan></text>
</g>
</g>
<g id="Layer-1" data-name="P">
<clipPath id="cp127">
<path transform="matrix(1,0,0,-1,0,841.5)" d="M .000008862 0 L 594.75 0 L 594.75 841.5 L .000008862 841.5 Z " fill-rule="evenodd"/>
</clipPath>
<g clip-path="url(#cp127)">
<text xml:space="preserve" transform="matrix(1 0 -0 1 0 841.5)" font-size="12" font-family="ArialNarrow" font-weight="bold" font-style="italic"><tspan y="-271.47" x="244.48 253.468 258.712 264.724 269.956 275.968 281.944 290.19999 296.188 302.19999">management</tspan></text>
</g>
</g>
<path transform="matrix(1,0,0,-1,0,841.5)" stroke-width="1.5" stroke-linecap="round" stroke-linejoin="round" fill="none" stroke="#000000" d="M 142.87 310.41 L 165.54 310.41 "/>
<path transform="matrix(1,0,0,-1,0,841.5)" d="M 164.54 314.43 L 176.6 310.41 L 164.54 306.39 L 164.54 314.43 Z " fill-rule="evenodd"/>
<path transform="matrix(1,0,0,-1,0,841.5)" stroke-width="1.5" stroke-linecap="round" stroke-linejoin="round" fill="none" stroke="#000000" d="M 153.93 239.53 L 173.76 239.53 "/>
<path transform="matrix(1,0,0,-1,0,841.5)" d="M 154.93 235.51 L 142.87 239.53 L 154.93 243.55 L 154.93 235.51 Z " fill-rule="evenodd"/>
<path transform="matrix(1,0,0,-1,0,841.5)" stroke-width="1.5" stroke-linecap="round" stroke-linejoin="round" fill="none" stroke="#000000" d="M 289.98 168.12 L 396.51 168.12 "/>
<path transform="matrix(1,0,0,-1,0,841.5)" d="M 395.51 172.14 L 407.57 168.12 L 395.51 164.1 L 395.51 172.14 Z " fill-rule="evenodd"/>
<path transform="matrix(1,0,0,-1,0,841.5)" stroke-width="1.5" stroke-linecap="round" stroke-linejoin="round" fill="none" stroke="#000000" d="M 79.587 168.66 L 114.53 168.66 "/>
<path transform="matrix(1,0,0,-1,0,841.5)" d="M 80.592 164.64 L 68.532 168.66 L 80.592 172.68 L 80.592 164.64 Z " fill-rule="evenodd"/>
<path transform="matrix(1,0,0,-1,0,841.5)" stroke-width="1.5" stroke-linecap="round" stroke-linejoin="round" fill="none" stroke="#000000" d="M 57.835 310.38 L 103.47 310.38 "/>
<path transform="matrix(1,0,0,-1,0,841.5)" d="M 102.47 314.4 L 114.53 310.38 L 102.47 306.36 L 102.47 314.4 Z " fill-rule="evenodd"/>
<path transform="matrix(1,0,0,-1,0,841.5)" stroke-width=".75" stroke-linecap="round" stroke-linejoin="round" fill="none" stroke="#000000" d="M 114.53 153.71 L 142.876 153.71 L 142.876 324.43 L 114.53 324.43 Z "/>
<g id="Layer-1" data-name="P">
<clipPath id="cp128">
<path transform="matrix(1,0,0,-1,0,841.5)" d="M .000008862 0 L 594.75 0 L 594.75 841.5 L .000008862 841.5 Z " fill-rule="evenodd"/>
</clipPath>
<g clip-path="url(#cp128)">
<text xml:space="preserve" transform="matrix(1 0 -0 1 0 841.5)" font-size="11.25" font-family="ArialNarrow" font-weight="bold"><tspan y="-313.42" x="179.75 183.485 187.985 193.97 199.22374 204.46625 208.96625 211.96999 217.2125 222.46623">requested </tspan></text>
</g>
</g>
<g id="Layer-1" data-name="P">
<clipPath id="cp129">
<path transform="matrix(1,0,0,-1,0,841.5)" d="M .000008862 0 L 594.75 0 L 594.75 841.5 L .000008862 841.5 Z " fill-rule="evenodd"/>
</clipPath>
<g clip-path="url(#cp129)">
<text xml:space="preserve" transform="matrix(1 0 -0 1 0 841.5)" font-size="11.25" font-family="ArialNarrow" font-weight="bold"><tspan y="-300.22" x="174.47 178.205 182.705 187.94751 193.19002 196.19376 201.43627 206.67877 209.68251 211.93251 217.18625 223.17125">reservations</tspan></text>
</g>
</g>
<g id="Layer-1" data-name="P">
<clipPath id="cp130">
<path transform="matrix(1,0,0,-1,0,841.5)" d="M .000008862 0 L 594.75 0 L 594.75 841.5 L .000008862 841.5 Z " fill-rule="evenodd"/>
</clipPath>
<g clip-path="url(#cp130)">
<text xml:space="preserve" transform="matrix(1 0 -0 1 0 841.5)" font-size="11.25" font-family="ArialNarrow" font-weight="bold"><tspan y="-242.67" x="186.63 191.88375 195.61875 200.86125 206.11499 209.11873 214.36124 219.61498">granted </tspan></text>
</g>
</g>
<g id="Layer-1" data-name="P">
<clipPath id="cp131">
<path transform="matrix(1,0,0,-1,0,841.5)" d="M .000008862 0 L 594.75 0 L 594.75 841.5 L .000008862 841.5 Z " fill-rule="evenodd"/>
</clipPath>
<g clip-path="url(#cp131)">
<text xml:space="preserve" transform="matrix(1 0 -0 1 0 841.5)" font-size="11.275" font-family="ArialNarrow" font-weight="bold"><tspan y="-229.47" x="178.83 182.5733 187.09458 192.36 197.62543 200.62458 205.89 208.88916 211.14415 217.15372 222.43042">reservtions</tspan></text>
</g>
</g>
<g id="Layer-1" data-name="P">
<clipPath id="cp132">
<path transform="matrix(1,0,0,-1,0,841.5)" d="M .000008862 0 L 594.75 0 L 594.75 841.5 L .000008862 841.5 Z " fill-rule="evenodd"/>
</clipPath>
<g clip-path="url(#cp132)">
<text xml:space="preserve" transform="matrix(1 0 -0 1 0 841.5)" font-size="12.025" font-family="ArialNarrow" font-weight="bold" font-style="italic"><tspan y="-271.85" x="116.27 122.294528 126.02228 132.0468 137.27768 141.763">order </tspan></text>
</g>
</g>
<g id="Layer-1" data-name="P">
<clipPath id="cp133">
<path transform="matrix(1,0,0,-1,0,841.5)" d="M .000008862 0 L 594.75 0 L 594.75 841.5 L .000008862 841.5 Z " fill-rule="evenodd"/>
</clipPath>
<g clip-path="url(#cp133)">
<text xml:space="preserve" transform="matrix(1 0 -0 1 0 841.5)" font-size="12" font-family="ArialNarrow" font-weight="bold" font-style="italic"><tspan y="-257.42" x="98.475 107.487 112.731 118.743007 123.975009 129.987 135.963 144.243 150.231 156.243">management</tspan></text>
</g>
</g>
<path transform="matrix(1,0,0,-1,0,841.5)" stroke-width=".75" stroke-linecap="round" stroke-linejoin="round" fill="none" stroke="#000000" d="M 91.559 139.85 L 460.059 139.85 L 460.059 337.29 L 91.559 337.29 Z "/>
<g id="Layer-1" data-name="P">
<clipPath id="cp134">
<path transform="matrix(1,0,0,-1,0,841.5)" d="M .000008862 0 L 594.75 0 L 594.75 841.5 L .000008862 841.5 Z " fill-rule="evenodd"/>
</clipPath>
<g clip-path="url(#cp134)">
<text xml:space="preserve" transform="matrix(1 0 -0 1 0 841.5)" font-size="12" font-family="ArialNarrow" font-weight="bold" font-style="italic"><tspan y="-322.53" x="404.2 407.944 413.18803 416.932 422.176 425.164 427.408 433.396">retailer</tspan></text>
</g>
</g>
<path transform="matrix(1,0,0,-1,0,841.5)" stroke-width=".75" stroke-linecap="round" stroke-linejoin="round" fill="none" stroke="#000000" d="M 407.57 153.57 L 435.747 153.57 L 435.747 253.491 L 407.57 253.491 Z "/>
<path transform="matrix(1,0,0,-1,0,841.5)" stroke-width="1.5" stroke-linecap="round" stroke-linejoin="round" fill="none" stroke="#000000" d="M 388.91 239.23 L 407.76 239.23 "/>
<path transform="matrix(1,0,0,-1,0,841.5)" d="M 389.92 235.21 L 377.86 239.23 L 389.92 243.25 L 389.92 235.21 Z " fill-rule="evenodd"/>
<path transform="matrix(1,0,0,-1,0,841.5)" stroke-width="1.5" stroke-linecap="round" stroke-linejoin="round" fill="none" stroke="#000000" d="M 301.04 239.28 L 329.67 239.28 "/>
<path transform="matrix(1,0,0,-1,0,841.5)" d="M 302.04 235.26 L 289.98 239.28 L 302.04 243.3 L 302.04 235.26 Z " fill-rule="evenodd"/>
<path transform="matrix(1,0,0,-1,0,841.5)" d="M 29.197 297.1 L 80.221 297.1 L 80.221 320.794 L 29.197 320.794 Z " fill="#ffffff" fill-rule="evenodd"/>
<g id="Layer-1" data-name="P">
<clipPath id="cp135">
<path transform="matrix(1,0,0,-1,0,841.5)" d="M .000008862 0 L 594.75 0 L 594.75 841.5 L .000008862 841.5 Z " fill-rule="evenodd"/>
</clipPath>
<g clip-path="url(#cp135)">
<text xml:space="preserve" transform="matrix(1 0 -0 1 0 841.5)" font-size="11.25" font-family="ArialNarrow" font-weight="bold"><tspan y="-311.78" x="33.25 38.50375 44.48875 47.4925 52.735 57.98875 63.23125 68.473758 72.973758">purchase </tspan></text>
</g>
</g>
<g id="Layer-1" data-name="P">
<clipPath id="cp136">
<path transform="matrix(1,0,0,-1,0,841.5)" d="M .000008862 0 L 594.75 0 L 594.75 841.5 L .000008862 841.5 Z " fill-rule="evenodd"/>
</clipPath>
<g clip-path="url(#cp136)">
<text xml:space="preserve" transform="matrix(1 0 -0 1 0 841.5)" font-size="11.275" font-family="ArialNarrow" font-weight="bold"><tspan y="-298.58" x="33.25 38.504148 42.247449 47.5016 52.744474 56.487775">orders</tspan></text>
</g>
</g>
<path transform="matrix(1,0,0,-1,0,841.5)" d="M 29.197 156.46 L 68.532 156.46 L 68.532 181.60701 L 29.197 181.60701 Z " fill="#ffffff" fill-rule="evenodd"/>
<g id="Layer-1" data-name="P">
<clipPath id="cp137">
<path transform="matrix(1,0,0,-1,0,841.5)" d="M .000008862 0 L 594.75 0 L 594.75 841.5 L .000008862 841.5 Z " fill-rule="evenodd"/>
</clipPath>
<g clip-path="url(#cp137)">
<text xml:space="preserve" transform="matrix(1 0 -0 1 0 841.5)" font-size="11.275" font-family="ArialNarrow" font-weight="bold"><tspan y="-171.75" x="33.25 41.469476 46.002027 51.2449">mess</tspan></text>
</g>
</g>
<g id="Layer-1" data-name="P">
<clipPath id="cp138">
<path transform="matrix(1,0,0,-1,0,841.5)" d="M .000008862 0 L 594.75 0 L 594.75 841.5 L .000008862 841.5 Z " fill-rule="evenodd"/>
</clipPath>
<g clip-path="url(#cp138)">
<text xml:space="preserve" transform="matrix(1 0 -0 1 0 841.5)" font-size="11.275" font-family="ArialNarrow" font-weight="bold"><tspan y="-171.75" x="56.35">-</tspan></text>
</g>
</g>
<g id="Layer-1" data-name="P">
<clipPath id="cp139">
<path transform="matrix(1,0,0,-1,0,841.5)" d="M .000008862 0 L 594.75 0 L 594.75 841.5 L .000008862 841.5 Z " fill-rule="evenodd"/>
</clipPath>
<g clip-path="url(#cp139)">
<text xml:space="preserve" transform="matrix(1 0 -0 1 0 841.5)" font-size="11.25" font-family="ArialNarrow" font-weight="bold"><tspan y="-158.53" x="33.25 38.4925 43.74625 48.98875">ages</tspan></text>
</g>
</g>
<path transform="matrix(1,0,0,-1,0,841.5)" d="M 261.43 155.79 L 307.49299 155.79 L 307.49299 180.937 L 261.43 180.937 Z " fill="#ffffff" fill-rule="evenodd"/>
<g id="Layer-1" data-name="P">
<clipPath id="cp140">
<path transform="matrix(1,0,0,-1,0,841.5)" d="M .000008862 0 L 594.75 0 L 594.75 841.5 L .000008862 841.5 Z " fill-rule="evenodd"/>
</clipPath>
<g clip-path="url(#cp140)">
<text xml:space="preserve" transform="matrix(1 0 -0 1 0 841.5)" font-size="11.25" font-family="ArialNarrow" font-weight="bold"><tspan y="-171.07" x="271.52 276.77375 282.01625 285.75123 290.25123 295.4937 297.7437">parcel </tspan></text>
</g>
</g>
<g id="Layer-1" data-name="P">
<clipPath id="cp141">
<path transform="matrix(1,0,0,-1,0,841.5)" d="M .000008862 0 L 594.75 0 L 594.75 841.5 L .000008862 841.5 Z " fill-rule="evenodd"/>
</clipPath>
<g clip-path="url(#cp141)">
<text xml:space="preserve" transform="matrix(1 0 -0 1 0 841.5)" font-size="11.275" font-family="ArialNarrow" font-weight="bold"><tspan y="-157.88" x="270.77 276.02415 279.76744 285.02159 290.26445 294.00773">orders</tspan></text>
</g>
</g>
<g id="Layer-1" data-name="P">
<clipPath id="cp142">
<path transform="matrix(1,0,0,-1,0,841.5)" d="M .000008862 0 L 594.75 0 L 594.75 841.5 L .000008862 841.5 Z " fill-rule="evenodd"/>
</clipPath>
<g clip-path="url(#cp142)">
<text xml:space="preserve" transform="matrix(1 0 -0 1 0 841.5)" font-size="11.25" font-family="ArialNarrow" font-weight="bold"><tspan y="-238.83" x="322.15 327.415 331.9375 337.2025 342.4788 348.49757 355.27006 357.52006 362.78507 368.80384 374.0801 379.34513 384.6214">acknowledged </tspan></text>
</g>
</g>
<g id="Layer-1" data-name="P">
<clipPath id="cp143">
<path transform="matrix(1,0,0,-1,0,841.5)" d="M .000008862 0 L 594.75 0 L 594.75 841.5 L .000008862 841.5 Z " fill-rule="evenodd"/>
</clipPath>
<g clip-path="url(#cp143)">
<text xml:space="preserve" transform="matrix(1 0 -0 1 0 841.5)" font-size="11.275" font-family="ArialNarrow" font-weight="bold"><tspan y="-225.63" x="335.95 339.71586 344.23713 349.50254 354.76795 357.0455 362.3222 365.3439">receipts</tspan></text>
</g>
</g>
<path transform="matrix(1,0,0,-1,0,841.5)" d="M 489.77 297.61 L 535.833 297.61 L 535.833 322.757 L 489.77 322.757 Z " fill="#ffffff" fill-rule="evenodd"/>
<g id="Layer-1" data-name="P">
<clipPath id="cp144">
<path transform="matrix(1,0,0,-1,0,841.5)" d="M .000008862 0 L 594.75 0 L 594.75 841.5 L .000008862 841.5 Z " fill-rule="evenodd"/>
</clipPath>
<g clip-path="url(#cp144)">
<text xml:space="preserve" transform="matrix(1 0 -0 1 0 841.5)" font-size="11.275" font-family="ArialNarrow" font-weight="bold"><tspan y="-313.03" x="497.38 502.62287 507.877 513.13119 519.1182 521.3732 523.62826 528.87118 532.61447">supplier </tspan></text>
</g>
</g>
<g id="Layer-1" data-name="P">
<clipPath id="cp145">
<path transform="matrix(1,0,0,-1,0,841.5)" d="M .000008862 0 L 594.75 0 L 594.75 841.5 L .000008862 841.5 Z " fill-rule="evenodd"/>
</clipPath>
<g clip-path="url(#cp145)">
<text xml:space="preserve" transform="matrix(1 0 -0 1 0 841.5)" font-size="11.25" font-family="ArialNarrow" font-weight="bold"><tspan y="-299.8" x="504.4 509.65376 513.38876 518.64248 523.88497 527.61996">orders</tspan></text>
</g>
</g>
<path transform="matrix(1,0,0,-1,0,841.5)" stroke-width="1.5" stroke-linecap="round" stroke-linejoin="round" fill="none" stroke="#000000" d="M 142.87 167.7 L 253.42 167.7 "/>
<path transform="matrix(1,0,0,-1,0,841.5)" d="M 252.41 171.72 L 264.47 167.7 L 252.41 163.68 L 252.41 171.72 Z " fill-rule="evenodd"/>
</g>
</g>
</svg>
