<?xml version="1.0" encoding="UTF-8" standalone="no"?>
<!DOCTYPE svg PUBLIC "-//W3C//DTD SVG 1.1//EN" "http://www.w3.org/Graphics/SVG/1.1/DTD/svg11.dtd">
<svg xmlns="http://www.w3.org/2000/svg" xmlns:xlink="http://www.w3.org/1999/xlink" version="1.1" width="594.75pt" height="841.5pt" viewBox="0 0 594.75 841.5">
<g enable-background="new">
<g>
<path transform="matrix(1,0,0,-1,0,841.5)" stroke-width="1.5" stroke-linecap="round" stroke-linejoin="round" fill="none" stroke="#000000" d="M 460.45 470.84 L 475.28 470.84 "/>
<path transform="matrix(1,0,0,-1,0,841.5)" d="M 474.28 474.86 L 486.34 470.84 L 474.28 466.82 L 474.28 474.86 Z " fill-rule="evenodd"/>
<path transform="matrix(1,0,0,-1,0,841.5)" stroke-width="1.5" stroke-linecap="round" stroke-linejoin="round" fill="none" stroke="#000000" d="M 374.38 471.24 L 420.02 471.24 "/>
<path transform="matrix(1,0,0,-1,0,841.5)" d="M 419.01 475.26 L 431.07 471.24 L 419.01 467.22 L 419.01 475.26 Z " fill-rule="evenodd"/>
<path transform="matrix(1,0,0,-1,0,841.5)" stroke-width="1.5" stroke-linecap="round" stroke-linejoin="round" fill="none" stroke="#000000" d="M 470.91 526.88 L 484.11 526.88 "/>
<path transform="matrix(1,0,0,-1,0,841.5)" d="M 471.92 522.86 L 459.86 526.88 L 471.92 530.9 L 471.92 522.86 Z " fill-rule="evenodd"/>
<path transform="matrix(1,0,0,-1,0,841.5)" d="M 431.51 456.91 L 459.85603 456.91 L 459.85603 542.543 L 431.51 542.543 Z " fill="#ffffff" fill-rule="evenodd"/>
<path transform="matrix(1,0,0,-1,0,841.5)" stroke-width=".75" stroke-linecap="round" stroke-linejoin="round" fill="none" stroke="#000000" d="M 431.51 456.91 L 459.85603 456.91 L 459.85603 542.543 L 431.51 542.543 Z "/>
<g id="Layer-1" data-name="P">
<clipPath id="cp62">
<path transform="matrix(1,0,0,-1,0,841.5)" d="M .000008862 0 L 594.75 0 L 594.75 841.5 L .000008862 841.5 Z " fill-rule="evenodd"/>
</clipPath>
<g clip-path="url(#cp62)">
<text xml:space="preserve" transform="matrix(1 0 -0 1 0 841.5)" font-size="12" font-family="ArialNarrow" font-weight="bold" font-style="italic"><tspan y="-510.4" x="432.47 439.97 445.958 449.702">ware</tspan></text>
</g>
</g>
<g id="Layer-1" data-name="P">
<clipPath id="cp63">
<path transform="matrix(1,0,0,-1,0,841.5)" d="M .000008862 0 L 594.75 0 L 594.75 841.5 L .000008862 841.5 Z " fill-rule="evenodd"/>
</clipPath>
<g clip-path="url(#cp63)">
<text xml:space="preserve" transform="matrix(1 0 -0 1 0 841.5)" font-size="12" font-family="ArialNarrow" font-weight="bold" font-style="italic"><tspan y="-510.4" x="454.92">-</tspan></text>
</g>
</g>
<g id="Layer-1" data-name="P">
<clipPath id="cp64">
<path transform="matrix(1,0,0,-1,0,841.5)" d="M .000008862 0 L 594.75 0 L 594.75 841.5 L .000008862 841.5 Z " fill-rule="evenodd"/>
</clipPath>
<g clip-path="url(#cp64)">
<text xml:space="preserve" transform="matrix(1 0 -0 1 0 841.5)" font-size="12" font-family="ArialNarrow" font-weight="bold" font-style="italic"><tspan y="-510.4" x="458.2"> </tspan></text>
</g>
</g>
<g id="Layer-1" data-name="P">
<clipPath id="cp65">
<path transform="matrix(1,0,0,-1,0,841.5)" d="M .000008862 0 L 594.75 0 L 594.75 841.5 L .000008862 841.5 Z " fill-rule="evenodd"/>
</clipPath>
<g clip-path="url(#cp65)">
<text xml:space="preserve" transform="matrix(1 0 -0 1 0 841.5)" font-size="12.025" font-family="ArialNarrow" font-weight="bold" font-style="italic"><tspan y="-496" x="430.83 436.85453 442.87907 448.9036 454.1585">house</tspan></text>
</g>
</g>
<path transform="matrix(1,0,0,-1,0,841.5)" d="M 340.16 508.1 L 411.979 508.1 L 411.979 541.549 L 340.16 541.549 Z " fill="#ffffff" fill-rule="evenodd"/>
<g id="Layer-1" data-name="P">
<clipPath id="cp66">
<path transform="matrix(1,0,0,-1,0,841.5)" d="M .000008862 0 L 594.75 0 L 594.75 841.5 L .000008862 841.5 Z " fill-rule="evenodd"/>
</clipPath>
<g clip-path="url(#cp66)">
<text xml:space="preserve" transform="matrix(1 0 -0 1 0 841.5)" font-size="11.275" font-family="ArialNarrow" font-weight="bold"><tspan y="-527.85" x="344.6 349.84288 354.34159 359.58445 364.8386 370.82563 377.57936 379.83436 385.0772 391.06425 396.3184 401.56126 406.8154">acknowledged </tspan></text>
</g>
</g>
<g id="Layer-1" data-name="P">
<clipPath id="cp67">
<path transform="matrix(1,0,0,-1,0,841.5)" d="M .000008862 0 L 594.75 0 L 594.75 841.5 L .000008862 841.5 Z " fill-rule="evenodd"/>
</clipPath>
<g clip-path="url(#cp67)">
<text xml:space="preserve" transform="matrix(1 0 -0 1 0 841.5)" font-size="11.25" font-family="ArialNarrow" font-weight="bold"><tspan y="-514.63" x="344.6 348.335 352.835 358.07749 363.31999 365.56999 370.82374 373.82749">receipts</tspan></text>
</g>
</g>
<path transform="matrix(1,0,0,-1,0,841.5)" d="M 351.85 459.23 L 389.409 459.23 L 389.409 484.377 L 351.85 484.377 Z " fill="#ffffff" fill-rule="evenodd"/>
<g id="Layer-1" data-name="P">
<clipPath id="cp68">
<path transform="matrix(1,0,0,-1,0,841.5)" d="M .000008862 0 L 594.75 0 L 594.75 841.5 L .000008862 841.5 Z " fill-rule="evenodd"/>
</clipPath>
<g clip-path="url(#cp68)">
<text xml:space="preserve" transform="matrix(1 0 -0 1 0 841.5)" font-size="11.25" font-family="ArialNarrow" font-weight="bold"><tspan y="-474.77" x="359.27 364.54627 369.81129 373.58003 378.1025 383.36753">parcel</tspan></text>
</g>
</g>
<g id="Layer-1" data-name="P">
<clipPath id="cp69">
<path transform="matrix(1,0,0,-1,0,841.5)" d="M .000008862 0 L 594.75 0 L 594.75 841.5 L .000008862 841.5 Z " fill-rule="evenodd"/>
</clipPath>
<g clip-path="url(#cp69)">
<text xml:space="preserve" transform="matrix(1 0 -0 1 0 841.5)" font-size="11.25" font-family="ArialNarrow" font-weight="bold"><tspan y="-461.57" x="357.8 363.05375 366.78874 372.04249 377.28498 381.01997">orders</tspan></text>
</g>
</g>
<g id="Layer-1" data-name="P">
<clipPath id="cp70">
<path transform="matrix(1,0,0,-1,0,841.5)" d="M .000008862 0 L 594.75 0 L 594.75 841.5 L .000008862 841.5 Z " fill-rule="evenodd"/>
</clipPath>
<g clip-path="url(#cp70)">
<text xml:space="preserve" transform="matrix(1 0 -0 1 0 841.5)" font-size="11.275" font-family="ArialNarrow" font-weight="bold"><tspan y="-530.47" x="493.45 498.70417 504.6912 509.94535 515.19949 520.4424 522.6974 525.69656 531.6836">goods to </tspan></text>
</g>
</g>
<g id="Layer-1" data-name="P">
<clipPath id="cp71">
<path transform="matrix(1,0,0,-1,0,841.5)" d="M .000008862 0 L 594.75 0 L 594.75 841.5 L .000008862 841.5 Z " fill-rule="evenodd"/>
</clipPath>
<g clip-path="url(#cp71)">
<text xml:space="preserve" transform="matrix(1 0 -0 1 0 841.5)" font-size="11.25" font-family="ArialNarrow" font-weight="bold"><tspan y="-517.25" x="484.4 491.15 496.3925 500.12748 504.62748 510.6125 515.8662 521.11996 526.3624">warehouse</tspan></text>
</g>
</g>
<path transform="matrix(1,0,0,-1,0,841.5)" d="M 483.12 458.53 L 542.047 458.53 L 542.047 483.677 L 483.12 483.677 Z " fill="#ffffff" fill-rule="evenodd"/>
<g id="Layer-1" data-name="P">
<clipPath id="cp72">
<path transform="matrix(1,0,0,-1,0,841.5)" d="M .000008862 0 L 594.75 0 L 594.75 841.5 L .000008862 841.5 Z " fill-rule="evenodd"/>
</clipPath>
<g clip-path="url(#cp72)">
<text xml:space="preserve" transform="matrix(1 0 -0 1 0 841.5)" font-size="11.25" font-family="ArialNarrow" font-weight="bold"><tspan y="-474.07" x="487.75 490.75376 496.0075 499 502.00376 505.0075 510.25 515.5037 521.4887 524.49246">to freght </tspan></text>
</g>
</g>
<g id="Layer-1" data-name="P">
<clipPath id="cp73">
<path transform="matrix(1,0,0,-1,0,841.5)" d="M .000008862 0 L 594.75 0 L 594.75 841.5 L .000008862 841.5 Z " fill-rule="evenodd"/>
</clipPath>
<g clip-path="url(#cp73)">
<text xml:space="preserve" transform="matrix(1 0 -0 1 0 841.5)" font-size="11.275" font-family="ArialNarrow" font-weight="bold"><tspan y="-460.88" x="487.75 490.74916 496.0033 499.74659 506.5003 511.74317 515.48648 520.7406 525.9835 528.98269">forwarders</tspan></text>
</g>
</g>
<path transform="matrix(1,0,0,-1,0,841.5)" stroke-width="1.5" stroke-linecap="round" stroke-linejoin="round" fill="none" stroke="#000000" d="M 417.91 526.96 L 432.05 526.96 "/>
<path transform="matrix(1,0,0,-1,0,841.5)" d="M 418.92 522.94 L 406.86 526.96 L 418.92 530.98 L 418.92 522.94 Z " fill-rule="evenodd"/>
</g>
</g>
</svg>
