<?xml version="1.0" encoding="UTF-8" standalone="no"?>
<svg
   xmlns:dc="http://purl.org/dc/elements/1.1/"
   xmlns:cc="http://creativecommons.org/ns#"
   xmlns:rdf="http://www.w3.org/1999/02/22-rdf-syntax-ns#"
   xmlns:svg="http://www.w3.org/2000/svg"
   xmlns="http://www.w3.org/2000/svg"
   xmlns:sodipodi="http://sodipodi.sourceforge.net/DTD/sodipodi-0.dtd"
   xmlns:inkscape="http://www.inkscape.org/namespaces/inkscape"
   version="1.1"
   width="402.81262pt"
   height="257.56201pt"
   viewBox="0 0 402.81262 257.56201"
   id="svgObjID"
   sodipodi:docname="engl. Teil_I_II-2-17.svg"
   inkscape:version="1.0.1 (3bc2e813f5, 2020-09-07)">
  <metadata
     id="metadata506">
    <rdf:RDF>
      <cc:Work
         rdf:about="">
        <dc:format>image/svg+xml</dc:format>
        <dc:type
           rdf:resource="http://purl.org/dc/dcmitype/StillImage" />
      </cc:Work>
    </rdf:RDF>
  </metadata>
  <defs
     id="defs504" />
  <sodipodi:namedview
     pagecolor="#ffffff"
     bordercolor="#666666"
     borderopacity="1"
     objecttolerance="10"
     gridtolerance="10"
     guidetolerance="10"
     inkscape:pageopacity="0"
     inkscape:pageshadow="2"
     inkscape:window-width="1920"
     inkscape:window-height="1018"
     id="namedview502"
     showgrid="false"
     inkscape:zoom="1.5151515"
     inkscape:cx="221.62136"
     inkscape:cy="177.82756"
     inkscape:window-x="-6"
     inkscape:window-y="-6"
     inkscape:window-maximized="1"
     inkscape:current-layer="svg500" />
  <g
     enable-background="new"
     id="svgObjID"
     transform="translate(-28.585,-377.633)">
    <g
       id="g496">
      <path
         transform="matrix(1,0,0,-1,0,841.5)"
         d="m 314.53,296.91 h 57.999 v 25.147 H 314.53 Z"
         fill="#ffffff"
         fill-rule="evenodd"
         id="path2" />
      <g
         id="Layer-1"
         data-name="P">
        <clipPath
           id="cp414">
          <path
             transform="matrix(1,0,0,-1,0,841.5)"
             d="M 8.862e-6,0 H 594.75 V 841.5 H 8.862e-6 Z"
             fill-rule="evenodd"
             id="path4" />
        </clipPath>
        <g
           clip-path="url(#cp414)"
           id="g11">
          <text
             xml:space="preserve"
             transform="translate(0,841.5)"
             font-size="11.275px"
             font-family="ArialNarrow"
             font-weight="bold"
             id="text9"><tspan
               y="-312.32999"
               x="329.88 332.87915 338.1333 341.12119 344.12033 347.11948 352.36234 354.61734 360.60437 365.85852 368.85767"
               id="tspan7">to freight </tspan></text>
        </g>
      </g>
      <g
         id="g23"
         data-name="P">
        <clipPath
           id="cp415">
          <path
             transform="matrix(1,0,0,-1,0,841.5)"
             d="M 8.862e-6,0 H 594.75 V 841.5 H 8.862e-6 Z"
             fill-rule="evenodd"
             id="path14" />
        </clipPath>
        <g
           clip-path="url(#cp415)"
           id="g21">
          <text
             xml:space="preserve"
             transform="translate(0,841.5)"
             font-size="11.25px"
             font-family="ArialNarrow"
             font-weight="bold"
             id="text19"><tspan
               y="-299.10001"
               x="322.32999 325.33374 330.58749 334.32248 341.07248 346.31497 350.04996 355.30371 360.5462 363.54996"
               id="tspan17">forwarders</tspan></text>
        </g>
      </g>
      <path
         transform="matrix(1,0,0,-1,0,841.5)"
         d="m 319.49,369.36 h 55.165 v 21.509 H 319.49 Z"
         fill="#ffffff"
         fill-rule="evenodd"
         id="path25" />
      <g
         id="g36"
         data-name="P">
        <clipPath
           id="cp416">
          <path
             transform="matrix(1,0,0,-1,0,841.5)"
             d="M 8.862e-6,0 H 594.75 V 841.5 H 8.862e-6 Z"
             fill-rule="evenodd"
             id="path27" />
        </clipPath>
        <g
           clip-path="url(#cp416)"
           id="g34">
          <text
             xml:space="preserve"
             transform="translate(0,841.5)"
             font-size="11.275px"
             font-family="ArialNarrow"
             font-weight="bold"
             id="text32"><tspan
               y="-383.03"
               x="333 338.25415 344.24118 349.49533 354.74948 359.99234 362.24734 365.24649 371.23352"
               id="tspan30">goods to </tspan></text>
        </g>
      </g>
      <g
         id="g47"
         data-name="P">
        <clipPath
           id="cp417">
          <path
             transform="matrix(1,0,0,-1,0,841.5)"
             d="M 8.862e-6,0 H 594.75 V 841.5 H 8.862e-6 Z"
             fill-rule="evenodd"
             id="path38" />
        </clipPath>
        <g
           clip-path="url(#cp417)"
           id="g45">
          <text
             xml:space="preserve"
             transform="translate(0,841.5)"
             font-size="11.25px"
             font-family="ArialNarrow"
             font-weight="bold"
             id="text43"><tspan
               y="-369.79999"
               x="323.95001 330.70001 335.9425 339.67749 344.17749 350.16251 355.41626 360.67001 365.91251"
               id="tspan41">warehouse</tspan></text>
        </g>
      </g>
      <clipPath
         id="cp418">
        <path
           transform="matrix(1,0,0,-1,0,841.5)"
           d="M -6.1035e-5,841.5 H 594.75 V 1.2207e-4 H -6.1035e-5"
           fill-rule="evenodd"
           id="path49" />
      </clipPath>
      <g
         clip-path="url(#cp418)"
         id="g54">
        <path
           transform="matrix(1,0,0,-1,0,841.5)"
           stroke-width="1.5"
           stroke-linecap="round"
           stroke-linejoin="round"
           fill="none"
           stroke="#000000"
           d="m 277.89,450.77 41.12,-0.17"
           id="path52" />
      </g>
      <clipPath
         id="cp419">
        <path
           transform="matrix(1,0,0,-1,0,841.5)"
           d="M -6.1035e-5,841.5 H 594.75 V 1.2207e-4 H -6.1035e-5"
           fill-rule="evenodd"
           id="path56" />
      </clipPath>
      <g
         clip-path="url(#cp419)"
         id="g61">
        <path
           transform="matrix(1,0,0,-1,0,841.5)"
           d="m 318.02,454.62 12.04,-4.07 -12.07,-3.97 z"
           fill-rule="evenodd"
           id="path59" />
      </g>
      <path
         transform="matrix(1,0,0,-1,0,841.5)"
         stroke-width="1.5"
         stroke-linecap="round"
         stroke-linejoin="round"
         fill="none"
         stroke="#000000"
         d="M 287.18,379.86 H 328.7"
         id="path63" />
      <path
         transform="matrix(1,0,0,-1,0,841.5)"
         d="m 288.18,375.84 -12.06,4.02 12.06,4.02 z"
         fill-rule="evenodd"
         id="path65" />
      <path
         transform="matrix(1,0,0,-1,0,841.5)"
         stroke-width="1.5"
         stroke-linecap="round"
         stroke-linejoin="round"
         fill="none"
         stroke="#000000"
         d="m 276.71,309.23 h 40.94"
         id="path67" />
      <path
         transform="matrix(1,0,0,-1,0,841.5)"
         d="m 316.64,313.25 12.06,-4.02 -12.06,-4.02 z"
         fill-rule="evenodd"
         id="path69" />
      <path
         transform="matrix(1,0,0,-1,0,841.5)"
         stroke-width="1.5"
         stroke-linecap="round"
         stroke-linejoin="round"
         fill="none"
         stroke="#000000"
         d="m 212.23,309.78 h 34.95"
         id="path71" />
      <path
         transform="matrix(1,0,0,-1,0,841.5)"
         d="m 213.24,305.76 -12.06,4.02 12.06,4.02 z"
         fill-rule="evenodd"
         id="path73" />
      <path
         transform="matrix(1,0,0,-1,0,841.5)"
         stroke-width="1.5"
         stroke-linecap="round"
         stroke-linejoin="round"
         fill="none"
         stroke="#000000"
         d="m 190.48,451.49 h 45.64"
         id="path75" />
      <path
         transform="matrix(1,0,0,-1,0,841.5)"
         d="m 235.12,455.51 12.06,-4.02 -12.06,-4.02 z"
         fill-rule="evenodd"
         id="path77" />
      <path
         transform="matrix(1,0,0,-1,0,841.5)"
         d="m 161.84,438.22 h 51.024 v 23.694 H 161.84 Z"
         fill="#ffffff"
         fill-rule="evenodd"
         id="path79" />
      <g
         id="g90"
         data-name="P">
        <clipPath
           id="cp420">
          <path
             transform="matrix(1,0,0,-1,0,841.5)"
             d="M 8.862e-6,0 H 594.75 V 841.5 H 8.862e-6 Z"
             fill-rule="evenodd"
             id="path81" />
        </clipPath>
        <g
           clip-path="url(#cp420)"
           id="g88">
          <text
             xml:space="preserve"
             transform="translate(0,841.5)"
             font-size="11.275px"
             font-family="ArialNarrow"
             font-weight="bold"
             id="text86"><tspan
               y="-453.03"
               x="166.05 171.30415 177.31372 180.31287 185.55574 190.80989 196.05276 201.29564 205.79437"
               id="tspan84">purchase </tspan></text>
        </g>
      </g>
      <g
         id="g101"
         data-name="P">
        <clipPath
           id="cp421">
          <path
             transform="matrix(1,0,0,-1,0,841.5)"
             d="M 8.862e-6,0 H 594.75 V 841.5 H 8.862e-6 Z"
             fill-rule="evenodd"
             id="path92" />
        </clipPath>
        <g
           clip-path="url(#cp421)"
           id="g99">
          <text
             xml:space="preserve"
             transform="translate(0,841.5)"
             font-size="11.25px"
             font-family="ArialNarrow"
             font-weight="bold"
             id="text97"><tspan
               y="-439.79999"
               x="166.05 171.30374 175.03874 180.29248 185.53499 189.26999"
               id="tspan95">orders</tspan></text>
        </g>
      </g>
      <path
         transform="matrix(1,0,0,-1,0,841.5)"
         d="m 161.84,297.57 h 39.33499 v 25.147 H 161.84 Z"
         fill="#ffffff"
         fill-rule="evenodd"
         id="path103" />
      <g
         id="g114"
         data-name="P">
        <clipPath
           id="cp422">
          <path
             transform="matrix(1,0,0,-1,0,841.5)"
             d="M 8.862e-6,0 H 594.75 V 841.5 H 8.862e-6 Z"
             fill-rule="evenodd"
             id="path105" />
        </clipPath>
        <g
           clip-path="url(#cp422)"
           id="g112">
          <text
             xml:space="preserve"
             transform="translate(0,841.5)"
             font-size="11.25px"
             font-family="ArialNarrow"
             font-weight="bold"
             id="text110"><tspan
               y="-312.98001"
               x="166.05 174.31876 178.81876 184.06126"
               id="tspan108">mess</tspan></text>
        </g>
      </g>
      <g
         id="g125"
         data-name="P">
        <clipPath
           id="cp423">
          <path
             transform="matrix(1,0,0,-1,0,841.5)"
             d="M 8.862e-6,0 H 594.75 V 841.5 H 8.862e-6 Z"
             fill-rule="evenodd"
             id="path116" />
        </clipPath>
        <g
           clip-path="url(#cp423)"
           id="g123">
          <text
             xml:space="preserve"
             transform="translate(0,841.5)"
             font-size="11.25px"
             font-family="ArialNarrow"
             font-weight="bold"
             id="text121"><tspan
               y="-312.98001"
               x="189.14999"
               id="tspan119">-</tspan></text>
        </g>
      </g>
      <g
         id="g136"
         data-name="P">
        <clipPath
           id="cp424">
          <path
             transform="matrix(1,0,0,-1,0,841.5)"
             d="M 8.862e-6,0 H 594.75 V 841.5 H 8.862e-6 Z"
             fill-rule="evenodd"
             id="path127" />
        </clipPath>
        <g
           clip-path="url(#cp424)"
           id="g134">
          <text
             xml:space="preserve"
             transform="translate(0,841.5)"
             font-size="11.275px"
             font-family="ArialNarrow"
             font-weight="bold"
             id="text132"><tspan
               y="-299.78"
               x="166.05 171.29288 176.54703 181.7899"
               id="tspan130">ages</tspan></text>
        </g>
      </g>
      <path
         transform="matrix(1,0,0,-1,0,841.5)"
         d="m 330.06,438.72 h 46.063 v 25.147 H 330.06 Z"
         fill="#ffffff"
         fill-rule="evenodd"
         id="path138" />
      <g
         id="g149"
         data-name="P">
        <clipPath
           id="cp425">
          <path
             transform="matrix(1,0,0,-1,0,841.5)"
             d="M 8.862e-6,0 H 594.75 V 841.5 H 8.862e-6 Z"
             fill-rule="evenodd"
             id="path140" />
        </clipPath>
        <g
           clip-path="url(#cp425)"
           id="g147">
          <text
             xml:space="preserve"
             transform="translate(0,841.5)"
             font-size="11.25px"
             font-family="ArialNarrow"
             font-weight="bold"
             id="text145"><tspan
               y="-454.25"
               x="337.48001 342.7225 347.97626 353.23001 359.21503 361.46503 363.71503 368.95752 372.6925"
               id="tspan143">supplier </tspan></text>
        </g>
      </g>
      <g
         id="g160"
         data-name="P">
        <clipPath
           id="cp426">
          <path
             transform="matrix(1,0,0,-1,0,841.5)"
             d="M 8.862e-6,0 H 594.75 V 841.5 H 8.862e-6 Z"
             fill-rule="evenodd"
             id="path151" />
        </clipPath>
        <g
           clip-path="url(#cp426)"
           id="g158">
          <text
             xml:space="preserve"
             transform="translate(0,841.5)"
             font-size="11.275px"
             font-family="ArialNarrow"
             font-weight="bold"
             id="text156"><tspan
               y="-441.04999"
               x="344.5 349.75415 353.49744 358.75159 363.99445 367.73773"
               id="tspan154">orders</tspan></text>
        </g>
      </g>
      <clipPath
         id="cp427">
        <path
           transform="matrix(1,0,0,-1,0,841.5)"
           d="M -3.0518e-5,841.5 H 594.75 V 1.2207e-4 H -3.0518e-5"
           fill-rule="evenodd"
           id="path162" />
      </clipPath>
      <g
         clip-path="url(#cp427)"
         id="g167">
        <path
           transform="matrix(1,0,0,-1,0,841.5)"
           stroke-width="1.5"
           stroke-linecap="round"
           stroke-linejoin="round"
           fill="none"
           stroke="#000000"
           d="m 138.5,448.4 10.73,0.19"
           id="path165" />
      </g>
      <clipPath
         id="cp428">
        <path
           transform="matrix(1,0,0,-1,0,841.5)"
           d="M -3.0518e-5,841.5 H 594.75 V 1.2207e-4 H -3.0518e-5"
           fill-rule="evenodd"
           id="path169" />
      </clipPath>
      <g
         clip-path="url(#cp428)"
         id="g174">
        <path
           transform="matrix(1,0,0,-1,0,841.5)"
           d="m 148.16,452.59 12.12,-3.81 -11.99,-4.23 z"
           fill-rule="evenodd"
           id="path172" />
      </g>
      <path
         transform="matrix(1,0,0,-1,0,841.5)"
         stroke-width="1.5"
         stroke-linecap="round"
         stroke-linejoin="round"
         fill="none"
         stroke="#000000"
         d="m 151.32,307.16 h 10.49"
         id="path176" />
      <path
         transform="matrix(1,0,0,-1,0,841.5)"
         d="m 152.32,303.14 -12.06,4.02 12.06,4.02 z"
         fill-rule="evenodd"
         id="path178" />
      <path
         transform="matrix(1,0,0,-1,0,841.5)"
         stroke-width="1.5"
         stroke-linecap="round"
         stroke-linejoin="round"
         fill="none"
         stroke="#000000"
         d="M 151.32,236.73 H 257.9"
         id="path180" />
      <path
         transform="matrix(1,0,0,-1,0,841.5)"
         d="m 152.32,232.71 -12.06,4.02 12.06,4.02 z"
         fill-rule="evenodd"
         id="path182" />
      <path
         transform="matrix(1,0,0,-1,0,841.5)"
         d="m 233.93,225.76 h 62.577 v 25.147 H 233.93 Z"
         fill="#ffffff"
         fill-rule="evenodd"
         id="path184" />
      <g
         id="g195"
         data-name="P">
        <clipPath
           id="cp429">
          <path
             transform="matrix(1,0,0,-1,0,841.5)"
             d="M 8.862e-6,0 H 594.75 V 841.5 H 8.862e-6 Z"
             fill-rule="evenodd"
             id="path186" />
        </clipPath>
        <g
           clip-path="url(#cp429)"
           id="g193">
          <text
             xml:space="preserve"
             transform="translate(0,841.5)"
             font-size="11.275px"
             font-family="ArialNarrow"
             font-weight="bold"
             id="text191"><tspan
               y="-234.5"
               x="244.73 249.98415 255.22702 257.48203 260.46991 264.96863 270.21149 273.95477 276.20978 281.45264"
               id="tspan189">deliveries</tspan></text>
        </g>
      </g>
      <path
         transform="matrix(1,0,0,-1,0,841.5)"
         stroke-width="1.5"
         stroke-linecap="round"
         stroke-linejoin="round"
         fill="none"
         stroke="#000000"
         d="m 310.64,236.73 h 86.57"
         id="path197" />
      <path
         transform="matrix(1,0,0,-1,0,841.5)"
         d="m 311.64,232.71 -12.06,4.02 12.06,4.02 z"
         fill-rule="evenodd"
         id="path199" />
      <path
         transform="matrix(1,0,0,-1,0,841.5)"
         stroke-width="1.5"
         stroke-linecap="round"
         stroke-linejoin="round"
         fill="none"
         stroke="#000000"
         d="m 369.7,308.61 h 16.74"
         id="path201" />
      <path
         transform="matrix(1,0,0,-1,0,841.5)"
         d="m 385.44,312.63 12.06,-4.02 -12.06,-4.02 z"
         fill-rule="evenodd"
         id="path203" />
      <path
         transform="matrix(1,0,0,-1,0,841.5)"
         stroke-width="1.5"
         stroke-linecap="round"
         stroke-linejoin="round"
         fill="none"
         stroke="#000000"
         d="m 363.7,451.2 h 19.01"
         id="path205" />
      <path
         transform="matrix(1,0,0,-1,0,841.5)"
         d="m 381.71,455.22 12.06,-4.02 -12.06,-4.02 z"
         fill-rule="evenodd"
         id="path207" />
      <path
         transform="matrix(1,0,0,-1,0,841.5)"
         stroke-width="1.5"
         stroke-linecap="round"
         stroke-linejoin="round"
         fill="none"
         stroke="#000000"
         d="m 380.97,380.05 h 13.06"
         id="path209" />
      <path
         transform="matrix(1,0,0,-1,0,841.5)"
         d="m 381.98,376.03 -12.06,4.02 12.06,4.02 z"
         fill-rule="evenodd"
         id="path211" />
      <path
         transform="matrix(1,0,0,-1,0,841.5)"
         stroke-width="0.75"
         stroke-linecap="round"
         stroke-linejoin="round"
         fill="none"
         stroke="#000000"
         d="m 246.85,290.73 h 28.346 V 461.45 H 246.85 Z"
         id="path213" />
      <g
         id="g224"
         data-name="P">
        <clipPath
           id="cp430">
          <path
             transform="matrix(1,0,0,-1,0,841.5)"
             d="M 8.862e-6,0 H 594.75 V 841.5 H 8.862e-6 Z"
             fill-rule="evenodd"
             id="path215" />
        </clipPath>
        <g
           clip-path="url(#cp430)"
           id="g222">
          <text
             xml:space="preserve"
             transform="translate(0,841.5)"
             font-size="11.275px"
             font-family="ArialNarrow"
             font-weight="bold"
             font-style="italic"
             id="text220"><tspan
               y="-409.89999"
               x="245.25 248.9933 253.49203 256.49118 261.73404 263.98904 266.97693 271.47565"
               id="tspan218">retailer</tspan></text>
        </g>
      </g>
      <path
         transform="matrix(1,0,0,-1,0,841.5)"
         d="m 111.92,220.58 h 28.34599 V 462.64 H 111.92 Z"
         fill="#ffffff"
         fill-rule="evenodd"
         id="path226" />
      <path
         transform="matrix(1,0,0,-1,0,841.5)"
         stroke-width="0.75"
         stroke-linecap="round"
         stroke-linejoin="round"
         fill="none"
         stroke="#000000"
         d="m 111.92,220.58 h 28.34599 V 462.64 H 111.92 Z"
         id="path228" />
      <clipPath
         id="cp431">
        <path
           transform="matrix(1,0,0,-1,0,841.5)"
           d="M -1.5259e-5,841.5 H 594.75 V 2.4414e-4 L -2.2888e-5,1.8311e-4"
           fill-rule="evenodd"
           id="path230" />
      </clipPath>
      <g
         clip-path="url(#cp431)"
         id="g235">
        <path
           transform="matrix(1,0,0,-1,0,841.5)"
           stroke-width="1.5"
           stroke-linecap="round"
           stroke-linejoin="round"
           fill="none"
           stroke="#000000"
           d="m 96.331,234.95 14.709,0.27"
           id="path233" />
      </g>
      <clipPath
         id="cp432">
        <path
           transform="matrix(1,0,0,-1,0,841.5)"
           d="M -1.5259e-5,841.5 H 594.75 V 2.4414e-4 L -2.2888e-5,1.8311e-4"
           fill-rule="evenodd"
           id="path237" />
      </clipPath>
      <g
         clip-path="url(#cp432)"
         id="g242">
        <path
           transform="matrix(1,0,0,-1,0,841.5)"
           d="m 97.412,230.95 -12.134,3.79 11.982,4.24 z"
           fill-rule="evenodd"
           id="path240" />
      </g>
      <clipPath
         id="cp433">
        <path
           transform="matrix(1,0,0,-1,0,841.5)"
           d="M -2.2888e-5,841.5 H 594.75 V 1.2207e-4 L -3.0518e-5,6.1035e-5"
           fill-rule="evenodd"
           id="path244" />
      </clipPath>
      <g
         clip-path="url(#cp433)"
         id="g249">
        <path
           transform="matrix(1,0,0,-1,0,841.5)"
           stroke-width="1.5"
           stroke-linecap="round"
           stroke-linejoin="round"
           fill="none"
           stroke="#000000"
           d="m 89.546,448.68 11.054,0.01"
           id="path247" />
      </g>
      <clipPath
         id="cp434">
        <path
           transform="matrix(1,0,0,-1,0,841.5)"
           d="M -2.2888e-5,841.5 H 594.75 V 1.2207e-4 L -3.0518e-5,6.1035e-5"
           fill-rule="evenodd"
           id="path251" />
      </clipPath>
      <g
         clip-path="url(#cp434)"
         id="g256">
        <path
           transform="matrix(1,0,0,-1,0,841.5)"
           d="M 99.594,452.71 111.66,448.7 99.601,444.67 Z"
           fill-rule="evenodd"
           id="path254" />
      </g>
      <path
         transform="matrix(1,0,0,-1,0,841.5)"
         d="m 28.585,437.43 h 60.094 v 23.694 H 28.585 Z"
         fill="#ffffff"
         fill-rule="evenodd"
         id="path258" />
      <g
         id="g269"
         data-name="P">
        <clipPath
           id="cp435">
          <path
             transform="matrix(1,0,0,-1,0,841.5)"
             d="M 8.862e-6,0 H 594.75 V 841.5 H 8.862e-6 Z"
             fill-rule="evenodd"
             id="path260" />
        </clipPath>
        <g
           clip-path="url(#cp435)"
           id="g267">
          <text
             xml:space="preserve"
             transform="translate(0,841.5)"
             font-size="11.25px"
             font-family="ArialNarrow"
             font-weight="bold"
             id="text265"><tspan
               y="-452.23001"
               x="45.150002 50.403751 54.138752 59.392502 64.635002 68.370003 73.623756 78.87751 84.862511"
               id="tspan263">orderung </tspan></text>
        </g>
      </g>
      <g
         id="g280"
         data-name="P">
        <clipPath
           id="cp436">
          <path
             transform="matrix(1,0,0,-1,0,841.5)"
             d="M 8.862e-6,0 H 594.75 V 841.5 H 8.862e-6 Z"
             fill-rule="evenodd"
             id="path271" />
        </clipPath>
        <g
           clip-path="url(#cp436)"
           id="g278">
          <text
             xml:space="preserve"
             transform="translate(0,841.5)"
             font-size="11.25px"
             font-family="ArialNarrow"
             font-weight="bold"
             id="text276"><tspan
               y="-439.01999"
               x="39.125 44.3675 49.62125 54.86375 57.8675 63.12125 71.356255 75.856255 79.591255"
               id="tspan274">customers</tspan></text>
        </g>
      </g>
      <path
         transform="matrix(1,0,0,-1,0,841.5)"
         d="m 34.255,222.65 h 51.024 v 25.147 H 34.255 Z"
         fill="#ffffff"
         fill-rule="evenodd"
         id="path282" />
      <g
         id="g293"
         data-name="P">
        <clipPath
           id="cp437">
          <path
             transform="matrix(1,0,0,-1,0,841.5)"
             d="M 8.862e-6,0 H 594.75 V 841.5 H 8.862e-6 Z"
             fill-rule="evenodd"
             id="path284" />
        </clipPath>
        <g
           clip-path="url(#cp437)"
           id="g291">
          <text
             xml:space="preserve"
             transform="translate(0,841.5)"
             font-size="11.25px"
             font-family="ArialNarrow"
             font-weight="bold"
             id="text289"><tspan
               y="-244.60001"
               x="42.224998 47.467499 51.967499 57.209999 62.452499 67.706253 70.710007 75.952507 81.206261"
               id="tspan287">accepted </tspan></text>
        </g>
      </g>
      <g
         id="g304"
         data-name="P">
        <clipPath
           id="cp438">
          <path
             transform="matrix(1,0,0,-1,0,841.5)"
             d="M 8.862e-6,0 H 594.75 V 841.5 H 8.862e-6 Z"
             fill-rule="evenodd"
             id="path295" />
        </clipPath>
        <g
           clip-path="url(#cp438)"
           id="g302">
          <text
             xml:space="preserve"
             transform="translate(0,841.5)"
             font-size="11.25px"
             font-family="ArialNarrow"
             font-weight="bold"
             id="text300"><tspan
               y="-231.38"
               x="52.25 57.526249 62.791248 68.056252 71.082504 76.347504 78.620003 81.635002"
               id="tspan298">overall </tspan></text>
        </g>
      </g>
      <g
         id="g315"
         data-name="P">
        <clipPath
           id="cp439">
          <path
             transform="matrix(1,0,0,-1,0,841.5)"
             d="M 8.862e-6,0 H 594.75 V 841.5 H 8.862e-6 Z"
             fill-rule="evenodd"
             id="path306" />
        </clipPath>
        <g
           clip-path="url(#cp439)"
           id="g313">
          <text
             xml:space="preserve"
             transform="translate(0,841.5)"
             font-size="11.25px"
             font-family="ArialNarrow"
             font-weight="bold"
             id="text311"><tspan
               y="-218.17999"
               x="47.25 52.50375 57.74625 59.99625 62.98875 67.488754 72.731255 76.466255"
               id="tspan309">delivery</tspan></text>
        </g>
      </g>
      <path
         transform="matrix(1,0,0,-1,0,841.5)"
         d="m 111.92,220.58 h 28.34599 V 462.64 H 111.92 Z"
         fill="#ffffff"
         fill-rule="evenodd"
         id="path317" />
      <path
         transform="matrix(1,0,0,-1,0,841.5)"
         stroke-width="0.75"
         stroke-linecap="round"
         stroke-linejoin="round"
         fill="none"
         stroke="#000000"
         d="m 111.92,220.58 h 28.34599 V 462.64 H 111.92 Z"
         id="path319" />
      <clipPath
         id="cp440">
        <path
           transform="matrix(1,0,0,-1,0,841.5)"
           d="M -1.5259e-5,841.5 H 594.75 V 2.4414e-4 L -2.2888e-5,1.8311e-4"
           fill-rule="evenodd"
           id="path321" />
      </clipPath>
      <g
         clip-path="url(#cp440)"
         id="g326">
        <path
           transform="matrix(1,0,0,-1,0,841.5)"
           stroke-width="1.5"
           stroke-linecap="round"
           stroke-linejoin="round"
           fill="none"
           stroke="#000000"
           d="m 96.331,234.95 14.709,0.27"
           id="path324" />
      </g>
      <clipPath
         id="cp441">
        <path
           transform="matrix(1,0,0,-1,0,841.5)"
           d="M -1.5259e-5,841.5 H 594.75 V 2.4414e-4 L -2.2888e-5,1.8311e-4"
           fill-rule="evenodd"
           id="path328" />
      </clipPath>
      <g
         clip-path="url(#cp441)"
         id="g333">
        <path
           transform="matrix(1,0,0,-1,0,841.5)"
           d="m 97.412,230.95 -12.134,3.79 11.982,4.24 z"
           fill-rule="evenodd"
           id="path331" />
      </g>
      <clipPath
         id="cp442">
        <path
           transform="matrix(1,0,0,-1,0,841.5)"
           d="M -2.2888e-5,841.5 H 594.75 V 1.2207e-4 L -3.0518e-5,6.1035e-5"
           fill-rule="evenodd"
           id="path335" />
      </clipPath>
      <g
         clip-path="url(#cp442)"
         id="g340">
        <path
           transform="matrix(1,0,0,-1,0,841.5)"
           stroke-width="1.5"
           stroke-linecap="round"
           stroke-linejoin="round"
           fill="none"
           stroke="#000000"
           d="m 89.546,448.68 11.054,0.01"
           id="path338" />
      </g>
      <clipPath
         id="cp443">
        <path
           transform="matrix(1,0,0,-1,0,841.5)"
           d="M -2.2888e-5,841.5 H 594.75 V 1.2207e-4 L -3.0518e-5,6.1035e-5"
           fill-rule="evenodd"
           id="path342" />
      </clipPath>
      <g
         clip-path="url(#cp443)"
         id="g347">
        <path
           transform="matrix(1,0,0,-1,0,841.5)"
           d="M 99.594,452.71 111.66,448.7 99.601,444.67 Z"
           fill-rule="evenodd"
           id="path345" />
      </g>
      <path
         transform="matrix(1,0,0,-1,0,841.5)"
         d="m 28.585,437.43 h 60.094 v 23.694 H 28.585 Z"
         fill="#ffffff"
         fill-rule="evenodd"
         id="path349" />
      <g
         id="g360"
         data-name="P">
        <clipPath
           id="cp444">
          <path
             transform="matrix(1,0,0,-1,0,841.5)"
             d="M 8.862e-6,0 H 594.75 V 841.5 H 8.862e-6 Z"
             fill-rule="evenodd"
             id="path351" />
        </clipPath>
        <g
           clip-path="url(#cp444)"
           id="g358">
          <text
             xml:space="preserve"
             transform="translate(0,841.5)"
             font-size="11.25px"
             font-family="ArialNarrow"
             font-weight="bold"
             id="text356"><tspan
               y="-452.23001"
               x="45.150002 50.403751 54.138752 59.392502 64.635002 68.370003 73.623756 78.87751 84.862511"
               id="tspan354">orderung </tspan></text>
        </g>
      </g>
      <g
         id="g371"
         data-name="P">
        <clipPath
           id="cp445">
          <path
             transform="matrix(1,0,0,-1,0,841.5)"
             d="M 8.862e-6,0 H 594.75 V 841.5 H 8.862e-6 Z"
             fill-rule="evenodd"
             id="path362" />
        </clipPath>
        <g
           clip-path="url(#cp445)"
           id="g369">
          <text
             xml:space="preserve"
             transform="translate(0,841.5)"
             font-size="11.25px"
             font-family="ArialNarrow"
             font-weight="bold"
             id="text367"><tspan
               y="-439.01999"
               x="39.125 44.3675 49.62125 54.86375 57.8675 63.12125 71.356255 75.856255 79.591255"
               id="tspan365">customers</tspan></text>
        </g>
      </g>
      <path
         transform="matrix(1,0,0,-1,0,841.5)"
         d="m 34.255,222.65 h 51.024 v 25.147 H 34.255 Z"
         fill="#ffffff"
         fill-rule="evenodd"
         id="path373" />
      <g
         id="g384"
         data-name="P">
        <clipPath
           id="cp446">
          <path
             transform="matrix(1,0,0,-1,0,841.5)"
             d="M 8.862e-6,0 H 594.75 V 841.5 H 8.862e-6 Z"
             fill-rule="evenodd"
             id="path375" />
        </clipPath>
        <g
           clip-path="url(#cp446)"
           id="g382">
          <text
             xml:space="preserve"
             transform="translate(0,841.5)"
             font-size="11.25px"
             font-family="ArialNarrow"
             font-weight="bold"
             id="text380"><tspan
               y="-244.60001"
               x="42.224998 47.467499 51.967499 57.209999 62.452499 67.706253 70.710007 75.952507 81.206261"
               id="tspan378">accepted </tspan></text>
        </g>
      </g>
      <g
         id="g395"
         data-name="P">
        <clipPath
           id="cp447">
          <path
             transform="matrix(1,0,0,-1,0,841.5)"
             d="M 8.862e-6,0 H 594.75 V 841.5 H 8.862e-6 Z"
             fill-rule="evenodd"
             id="path386" />
        </clipPath>
        <g
           clip-path="url(#cp447)"
           id="g393">
          <text
             xml:space="preserve"
             transform="translate(0,841.5)"
             font-size="11.25px"
             font-family="ArialNarrow"
             font-weight="bold"
             id="text391"><tspan
               y="-231.38"
               x="52.25 57.526249 62.791248 68.056252 71.082504 76.347504 78.620003 81.635002"
               id="tspan389">overall </tspan></text>
        </g>
      </g>
      <g
         id="g406"
         data-name="P">
        <clipPath
           id="cp448">
          <path
             transform="matrix(1,0,0,-1,0,841.5)"
             d="M 8.862e-6,0 H 594.75 V 841.5 H 8.862e-6 Z"
             fill-rule="evenodd"
             id="path397" />
        </clipPath>
        <g
           clip-path="url(#cp448)"
           id="g404">
          <text
             xml:space="preserve"
             transform="translate(0,841.5)"
             font-size="11.25px"
             font-family="ArialNarrow"
             font-weight="bold"
             id="text402"><tspan
               y="-218.17999"
               x="47.25 52.50375 57.74625 59.99625 62.98875 67.488754 72.731255 76.466255"
               id="tspan400">delivery</tspan></text>
        </g>
      </g>
      <g
         id="g417"
         data-name="P">
        <clipPath
           id="cp449">
          <path
             transform="matrix(1,0,0,-1,0,841.5)"
             d="M 8.862e-6,0 H 594.75 V 841.5 H 8.862e-6 Z"
             fill-rule="evenodd"
             id="path408" />
        </clipPath>
        <g
           clip-path="url(#cp449)"
           id="g415">
          <text
             xml:space="preserve"
             transform="translate(0,841.5)"
             font-size="11.25px"
             font-family="ArialNarrow"
             font-weight="bold"
             font-style="italic"
             id="text413"><tspan
               y="-389.85001"
               x="102.52 107.785 113.06125 118.32625 121.33 126.60625 134.87502 139.39752 143.16626"
               id="tspan411">customers</tspan></text>
        </g>
      </g>
      <path
         transform="matrix(1,0,0,-1,0,841.5)"
         stroke-width="0.75"
         stroke-linecap="round"
         stroke-linejoin="round"
         fill="none"
         stroke="#000000"
         d="m 394.64,206.68 h 28.34603 V 461.8 H 394.64 Z"
         id="path419" />
      <g
         id="g430"
         data-name="P">
        <clipPath
           id="cp450">
          <path
             transform="matrix(1,0,0,-1,0,841.5)"
             d="M 8.862e-6,0 H 594.75 V 841.5 H 8.862e-6 Z"
             fill-rule="evenodd"
             id="path421" />
        </clipPath>
        <g
           clip-path="url(#cp450)"
           id="g428">
          <text
             xml:space="preserve"
             transform="translate(0,841.5)"
             font-size="11.25px"
             font-family="ArialNarrow"
             font-weight="bold"
             font-style="italic"
             id="text426"><tspan
               y="-354.70001"
               x="390.07999 393.10623 395.37872 400.64374 405.92001 411.93878 417.21506 419.48755 422.50256 427.02505 430.79379"
               id="tspan424">[ supplier </tspan></text>
        </g>
      </g>
      <clipPath
         id="cp451">
        <path
           transform="matrix(1,0,0,-1,0,841.5)"
           d="M 8.862e-6,0 H 594.75 V 841.5 H 8.862e-6 Z"
           fill-rule="evenodd"
           id="path432" />
      </clipPath>
      <g
         clip-path="url(#cp451)"
         id="g439">
        <text
           xml:space="preserve"
           transform="translate(0,841.5)"
           font-size="11.275px"
           font-family="Calibri"
           id="text437"><tspan
             y="-341.25"
             x="392.38 397.62994"
             id="tspan435">• </tspan></text>
      </g>
      <g
         id="g450"
         data-name="P">
        <clipPath
           id="cp452">
          <path
             transform="matrix(1,0,0,-1,0,841.5)"
             d="M 8.862e-6,0 H 594.75 V 841.5 H 8.862e-6 Z"
             fill-rule="evenodd"
             id="path441" />
        </clipPath>
        <g
           clip-path="url(#cp452)"
           id="g448">
          <text
             xml:space="preserve"
             transform="translate(0,841.5)"
             font-size="11.275px"
             font-family="ArialNarrow"
             font-weight="bold"
             font-style="italic"
             id="text446"><tspan
               y="-341.25"
               x="400.35001 403.34915 407.09244 411.59116 414.57904 419.83319 425.08734 428.08649"
               id="tspan444">freight </tspan></text>
        </g>
      </g>
      <g
         id="g461"
         data-name="P">
        <clipPath
           id="cp453">
          <path
             transform="matrix(1,0,0,-1,0,841.5)"
             d="M 8.862e-6,0 H 594.75 V 841.5 H 8.862e-6 Z"
             fill-rule="evenodd"
             id="path452" />
        </clipPath>
        <g
           clip-path="url(#cp453)"
           id="g459">
          <text
             xml:space="preserve"
             transform="translate(0,841.5)"
             font-size="11.275px"
             font-family="ArialNarrow"
             font-weight="bold"
             font-style="italic"
             id="text457"><tspan
               y="-327.95001"
               x="395.10001 398.09915 403.37585 407.14169 413.91797 419.18338"
               id="tspan455">forwar</tspan></text>
        </g>
      </g>
      <g
         id="g472"
         data-name="P">
        <clipPath
           id="cp454">
          <path
             transform="matrix(1,0,0,-1,0,841.5)"
             d="M 8.862e-6,0 H 594.75 V 841.5 H 8.862e-6 Z"
             fill-rule="evenodd"
             id="path463" />
        </clipPath>
        <g
           clip-path="url(#cp454)"
           id="g470">
          <text
             xml:space="preserve"
             transform="translate(0,841.5)"
             font-size="11.275px"
             font-family="ArialNarrow"
             font-weight="bold"
             font-style="italic"
             id="text468"><tspan
               y="-327.95001"
               x="422.70001"
               id="tspan466">-</tspan></text>
        </g>
      </g>
      <g
         id="g483"
         data-name="P">
        <clipPath
           id="cp455">
          <path
             transform="matrix(1,0,0,-1,0,841.5)"
             d="M 8.862e-6,0 H 594.75 V 841.5 H 8.862e-6 Z"
             fill-rule="evenodd"
             id="path474" />
        </clipPath>
        <g
           clip-path="url(#cp455)"
           id="g481">
          <text
             xml:space="preserve"
             transform="translate(0,841.5)"
             font-size="11.25px"
             font-family="ArialNarrow"
             font-weight="bold"
             font-style="italic"
             id="text479"><tspan
               y="-314.72"
               x="398.13 403.38376 408.62625 412.36124 416.86124"
               id="tspan477">ders </tspan></text>
        </g>
      </g>
      <g
         id="g494"
         data-name="P">
        <clipPath
           id="cp456">
          <path
             transform="matrix(1,0,0,-1,0,841.5)"
             d="M 8.862e-6,0 H 594.75 V 841.5 H 8.862e-6 Z"
             fill-rule="evenodd"
             id="path485" />
        </clipPath>
        <g
           clip-path="url(#cp456)"
           id="g492">
          <text
             xml:space="preserve"
             transform="translate(0,841.5)"
             font-size="11.25px"
             font-family="ArialNarrow"
             font-weight="bold"
             font-style="italic"
             id="text490"><tspan
               y="-314.72"
               x="419.70001"
               id="tspan488">]</tspan></text>
        </g>
      </g>
    </g>
  </g>
</svg>
