<?xml version="1.0" encoding="UTF-8" standalone="no"?>
<!DOCTYPE svg PUBLIC "-//W3C//DTD SVG 1.1//EN" "http://www.w3.org/Graphics/SVG/1.1/DTD/svg11.dtd">
<svg xmlns="http://www.w3.org/2000/svg" xmlns:xlink="http://www.w3.org/1999/xlink" version="1.1" width="594.75pt" height="841.5pt" viewBox="0 0 594.75 841.5">
<g enable-background="new">
<g>
<path transform="matrix(1,0,0,-1,0,841.5)" stroke-width="1.5" stroke-linecap="round" stroke-linejoin="round" fill="none" stroke="#000000" d="M 306.51 778.32 L 352.15 778.32 "/>
<path transform="matrix(1,0,0,-1,0,841.5)" d="M 351.14 782.34 L 363.2 778.32 L 351.14 774.3 L 351.14 782.34 Z " fill-rule="evenodd"/>
<path transform="matrix(1,0,0,-1,0,841.5)" stroke-width="1.5" stroke-linecap="round" stroke-linejoin="round" fill="none" stroke="#000000" d="M 345.06 707.44 L 363.2 707.44 "/>
<path transform="matrix(1,0,0,-1,0,841.5)" d="M 346.07 703.42 L 334.01 707.44 L 346.07 711.46 L 346.07 703.42 Z " fill-rule="evenodd"/>
<path transform="matrix(1,0,0,-1,0,841.5)" stroke-width=".75" stroke-linecap="round" stroke-linejoin="round" fill="none" stroke="#000000" d="M 364.28 679.09 L 392.626 679.09 L 392.626 792.39 L 364.28 792.39 Z "/>
<g id="Layer-1" data-name="P">
<clipPath id="cp74">
<path transform="matrix(1,0,0,-1,0,841.5)" d="M .000008862 0 L 594.75 0 L 594.75 841.5 L .000008862 841.5 Z " fill-rule="evenodd"/>
</clipPath>
<g clip-path="url(#cp74)">
<text xml:space="preserve" transform="matrix(1 0 -0 1 0 841.5)" font-size="12.025" font-family="ArialNarrow" font-weight="bold" font-style="italic"><tspan y="-754.28" x="355.35 358.3683 364.39283 369.67179 374.95075 380.97529 384.7391 390.76365 394.5395 399.81846">inventory </tspan></text>
</g>
</g>
<g id="Layer-1" data-name="P">
<clipPath id="cp75">
<path transform="matrix(1,0,0,-1,0,841.5)" d="M .000008862 0 L 594.75 0 L 594.75 841.5 L .000008862 841.5 Z " fill-rule="evenodd"/>
</clipPath>
<g clip-path="url(#cp75)">
<text xml:space="preserve" transform="matrix(1 0 -0 1 0 841.5)" font-size="12" font-family="ArialNarrow" font-weight="bold" font-style="italic"><tspan y="-739.85" x="347.15 356.13798 361.382 367.39399 372.62599 378.63798 384.61399 392.86997 398.85798 404.86997">management</tspan></text>
</g>
</g>
<path transform="matrix(1,0,0,-1,0,841.5)" stroke-width="1.5" stroke-linecap="round" stroke-linejoin="round" fill="none" stroke="#000000" d="M 393.36 778.24 L 426.77 778.24 "/>
<path transform="matrix(1,0,0,-1,0,841.5)" d="M 425.76 782.26 L 437.82 778.24 L 425.76 774.22 L 425.76 782.26 Z " fill-rule="evenodd"/>
<path transform="matrix(1,0,0,-1,0,841.5)" stroke-width="1.5" stroke-linecap="round" stroke-linejoin="round" fill="none" stroke="#000000" d="M 404.41 707.36 L 426.27 707.36 "/>
<path transform="matrix(1,0,0,-1,0,841.5)" d="M 405.42 703.34 L 393.36 707.36 L 405.42 711.38 L 405.42 703.34 Z " fill-rule="evenodd"/>
<path transform="matrix(1,0,0,-1,0,841.5)" stroke-width="1.5" stroke-linecap="round" stroke-linejoin="round" fill="none" stroke="#000000" d="M 245.43 778.37 L 264.76 778.37 "/>
<path transform="matrix(1,0,0,-1,0,841.5)" d="M 263.75 782.39 L 275.81 778.37 L 263.75 774.35 L 263.75 782.39 Z " fill-rule="evenodd"/>
<path transform="matrix(1,0,0,-1,0,841.5)" stroke-width="1.5" stroke-linecap="round" stroke-linejoin="round" fill="none" stroke="#000000" d="M 256.48 707.49 L 270.09 707.49 "/>
<path transform="matrix(1,0,0,-1,0,841.5)" d="M 257.49 703.47 L 245.43 707.49 L 257.49 711.51 L 257.49 703.47 Z " fill-rule="evenodd"/>
<path transform="matrix(1,0,0,-1,0,841.5)" stroke-width="1.5" stroke-linecap="round" stroke-linejoin="round" fill="none" stroke="#000000" d="M 245.43 636.62 L 432.98 636.62 "/>
<path transform="matrix(1,0,0,-1,0,841.5)" d="M 431.98 640.64 L 444.04 636.62 L 431.98 632.6 L 431.98 640.64 Z " fill-rule="evenodd"/>
<path transform="matrix(1,0,0,-1,0,841.5)" stroke-width="1.5" stroke-linecap="round" stroke-linejoin="round" fill="none" stroke="#000000" d="M 176.6 778.34 L 206.02 778.34 "/>
<path transform="matrix(1,0,0,-1,0,841.5)" d="M 205.02 782.36 L 217.08 778.34 L 205.02 774.32 L 205.02 782.36 Z " fill-rule="evenodd"/>
<path transform="matrix(1,0,0,-1,0,841.5)" stroke-width=".75" stroke-linecap="round" stroke-linejoin="round" fill="none" stroke="#000000" d="M 217.08 621.67 L 245.426 621.67 L 245.426 792.39 L 217.08 792.39 Z "/>
<path transform="matrix(1,0,0,-1,0,841.5)" d="M 275.81 765.99 L 339.296 765.99 L 339.296 791.13699 L 275.81 791.13699 Z " fill="#ffffff" fill-rule="evenodd"/>
<g id="Layer-1" data-name="P">
<clipPath id="cp76">
<path transform="matrix(1,0,0,-1,0,841.5)" d="M .000008862 0 L 594.75 0 L 594.75 841.5 L .000008862 841.5 Z " fill-rule="evenodd"/>
</clipPath>
<g clip-path="url(#cp76)">
<text xml:space="preserve" transform="matrix(1 0 -0 1 0 841.5)" font-size="11.25" font-family="ArialNarrow" font-weight="bold"><tspan y="-781.8" x="286.38 290.115 294.615 300.6 305.85377 311.09626 315.59626 318.6 323.8425 329.09626">requested </tspan></text>
</g>
</g>
<g id="Layer-1" data-name="P">
<clipPath id="cp77">
<path transform="matrix(1,0,0,-1,0,841.5)" d="M .000008862 0 L 594.75 0 L 594.75 841.5 L .000008862 841.5 Z " fill-rule="evenodd"/>
</clipPath>
<g clip-path="url(#cp77)">
<text xml:space="preserve" transform="matrix(1 0 -0 1 0 841.5)" font-size="11.275" font-family="ArialNarrow" font-weight="bold"><tspan y="-768.6" x="281.1 284.8433 289.342 294.58488 299.82774 302.82688 308.06974 313.3126 316.31175 318.56675 323.8209 329.80793">reservations</tspan></text>
</g>
</g>
<g id="Layer-1" data-name="P">
<clipPath id="cp78">
<path transform="matrix(1,0,0,-1,0,841.5)" d="M .000008862 0 L 594.75 0 L 594.75 841.5 L .000008862 841.5 Z " fill-rule="evenodd"/>
</clipPath>
<g clip-path="url(#cp78)">
<text xml:space="preserve" transform="matrix(1 0 -0 1 0 841.5)" font-size="11.25" font-family="ArialNarrow" font-weight="bold"><tspan y="-711.05" x="288.27 293.52375 297.25874 302.50123 307.75498 310.75874 316.00123 321.25498">granted </tspan></text>
</g>
</g>
<g id="Layer-1" data-name="P">
<clipPath id="cp79">
<path transform="matrix(1,0,0,-1,0,841.5)" d="M .000008862 0 L 594.75 0 L 594.75 841.5 L .000008862 841.5 Z " fill-rule="evenodd"/>
</clipPath>
<g clip-path="url(#cp79)">
<text xml:space="preserve" transform="matrix(1 0 -0 1 0 841.5)" font-size="11.275" font-family="ArialNarrow" font-weight="bold"><tspan y="-697.85" x="277.98 281.7233 286.22203 291.46488 296.70774 299.70689 304.94975 310.1926 313.19175 315.44676 320.7009 326.68794">reservations</tspan></text>
</g>
</g>
<g id="Layer-1" data-name="P">
<clipPath id="cp80">
<path transform="matrix(1,0,0,-1,0,841.5)" d="M .000008862 0 L 594.75 0 L 594.75 841.5 L .000008862 841.5 Z " fill-rule="evenodd"/>
</clipPath>
<g clip-path="url(#cp80)">
<text xml:space="preserve" transform="matrix(1 0 -0 1 0 841.5)" font-size="12.025" font-family="ArialNarrow" font-weight="bold" font-style="italic"><tspan y="-740.22" x="218.95 224.97452 228.72632 234.75084 240.02982 244.53919">order </tspan></text>
</g>
</g>
<g id="Layer-1" data-name="P">
<clipPath id="cp81">
<path transform="matrix(1,0,0,-1,0,841.5)" d="M .000008862 0 L 594.75 0 L 594.75 841.5 L .000008862 841.5 Z " fill-rule="evenodd"/>
</clipPath>
<g clip-path="url(#cp81)">
<text xml:space="preserve" transform="matrix(1 0 -0 1 0 841.5)" font-size="12" font-family="ArialNarrow" font-weight="bold" font-style="italic"><tspan y="-725.8" x="201.15 210.162 215.442 221.454 226.746 232.758 238.782 247.062 253.07399 259.086">management</tspan></text>
</g>
</g>
<path transform="matrix(1,0,0,-1,0,841.5)" stroke-width=".75" stroke-linecap="round" stroke-linejoin="round" fill="none" stroke="#000000" d="M 190.77 607.81 L 413.57 607.81 L 413.57 805.25 L 190.77 805.25 Z "/>
<g id="Layer-1" data-name="P">
<clipPath id="cp82">
<path transform="matrix(1,0,0,-1,0,841.5)" d="M .000008862 0 L 594.75 0 L 594.75 841.5 L .000008862 841.5 Z " fill-rule="evenodd"/>
</clipPath>
<g clip-path="url(#cp82)">
<text xml:space="preserve" transform="matrix(1 0 -0 1 0 841.5)" font-size="11.275" font-family="ArialNarrow" font-weight="bold"><tspan y="-781.83" x="138.25 143.50415 149.51372 152.51287 157.75574 163.00989 168.25276 173.49564 177.99437">purchase </tspan></text>
</g>
</g>
<g id="Layer-1" data-name="P">
<clipPath id="cp83">
<path transform="matrix(1,0,0,-1,0,841.5)" d="M .000008862 0 L 594.75 0 L 594.75 841.5 L .000008862 841.5 Z " fill-rule="evenodd"/>
</clipPath>
<g clip-path="url(#cp83)">
<text xml:space="preserve" transform="matrix(1 0 -0 1 0 841.5)" font-size="11.25" font-family="ArialNarrow" font-weight="bold"><tspan y="-768.6" x="138.25 143.50374 147.23874 152.49248 157.73499 161.46999">orders</tspan></text>
</g>
</g>
<path transform="matrix(1,0,0,-1,0,841.5)" d="M 129.93 624.27 L 169.61499 624.27 L 169.61499 649.417 L 129.93 649.417 Z " fill="#ffffff" fill-rule="evenodd"/>
<g id="Layer-1" data-name="P">
<clipPath id="cp84">
<path transform="matrix(1,0,0,-1,0,841.5)" d="M .000008862 0 L 594.75 0 L 594.75 841.5 L .000008862 841.5 Z " fill-rule="evenodd"/>
</clipPath>
<g clip-path="url(#cp84)">
<text xml:space="preserve" transform="matrix(1 0 -0 1 0 841.5)" font-size="11.25" font-family="ArialNarrow" font-weight="bold"><tspan y="-639.95" x="136.93 145.165 149.665 154.9075">mess</tspan></text>
</g>
</g>
<g id="Layer-1" data-name="P">
<clipPath id="cp85">
<path transform="matrix(1,0,0,-1,0,841.5)" d="M .000008862 0 L 594.75 0 L 594.75 841.5 L .000008862 841.5 Z " fill-rule="evenodd"/>
</clipPath>
<g clip-path="url(#cp85)">
<text xml:space="preserve" transform="matrix(1 0 -0 1 0 841.5)" font-size="11.25" font-family="ArialNarrow" font-weight="bold"><tspan y="-639.95" x="160.02">-</tspan></text>
</g>
</g>
<g id="Layer-1" data-name="P">
<clipPath id="cp86">
<path transform="matrix(1,0,0,-1,0,841.5)" d="M .000008862 0 L 594.75 0 L 594.75 841.5 L .000008862 841.5 Z " fill-rule="evenodd"/>
</clipPath>
<g clip-path="url(#cp86)">
<text xml:space="preserve" transform="matrix(1 0 -0 1 0 841.5)" font-size="11.25" font-family="ArialNarrow" font-weight="bold"><tspan y="-626.75" x="139.68 144.9225 150.17624 155.41875">ages</tspan></text>
</g>
</g>
<path transform="matrix(1,0,0,-1,0,841.5)" d="M 437.82 766.13 L 483.883 766.13 L 483.883 791.277 L 437.82 791.277 Z " fill="#ffffff" fill-rule="evenodd"/>
<g id="Layer-1" data-name="P">
<clipPath id="cp87">
<path transform="matrix(1,0,0,-1,0,841.5)" d="M .000008862 0 L 594.75 0 L 594.75 841.5 L .000008862 841.5 Z " fill-rule="evenodd"/>
</clipPath>
<g clip-path="url(#cp87)">
<text xml:space="preserve" transform="matrix(1 0 -0 1 0 841.5)" font-size="11.25" font-family="ArialNarrow" font-weight="bold"><tspan y="-781.95" x="451.38 456.64503 461.9213 467.19758 473.21635 475.46635 480.73136">supply </tspan></text>
</g>
</g>
<g id="Layer-1" data-name="P">
<clipPath id="cp88">
<path transform="matrix(1,0,0,-1,0,841.5)" d="M .000008862 0 L 594.75 0 L 594.75 841.5 L .000008862 841.5 Z " fill-rule="evenodd"/>
</clipPath>
<g clip-path="url(#cp88)">
<text xml:space="preserve" transform="matrix(1 0 -0 1 0 841.5)" font-size="11.275" font-family="ArialNarrow" font-weight="bold"><tspan y="-768.75" x="452.4 457.65415 461.39744 466.65159 471.89445 475.63774">orders</tspan></text>
</g>
</g>
<g id="Layer-1" data-name="P">
<clipPath id="cp89">
<path transform="matrix(1,0,0,-1,0,841.5)" d="M .000008862 0 L 594.75 0 L 594.75 841.5 L .000008862 841.5 Z " fill-rule="evenodd"/>
</clipPath>
<g clip-path="url(#cp89)">
<text xml:space="preserve" transform="matrix(1 0 -0 1 0 841.5)" font-size="11.25" font-family="ArialNarrow" font-weight="bold"><tspan y="-711.05" x="422.77 428.035 432.5575 437.8225 443.0988 449.11756 455.89006 458.14006 463.40507 469.42384 474.7001 479.96513 485.2414">acknowledged </tspan></text>
</g>
</g>
<g id="Layer-1" data-name="P">
<clipPath id="cp90">
<path transform="matrix(1,0,0,-1,0,841.5)" d="M .000008862 0 L 594.75 0 L 594.75 841.5 L .000008862 841.5 Z " fill-rule="evenodd"/>
</clipPath>
<g clip-path="url(#cp90)">
<text xml:space="preserve" transform="matrix(1 0 -0 1 0 841.5)" font-size="11.275" font-family="ArialNarrow" font-weight="bold"><tspan y="-697.85" x="450.38 454.14585 458.6671 463.93254 469.19795 471.4755 476.7522 479.7739">receipts</tspan></text>
</g>
</g>
<path transform="matrix(1,0,0,-1,0,841.5)" d="M 444.04 624.27 L 483.725 624.27 L 483.725 649.417 L 444.04 649.417 Z " fill="#ffffff" fill-rule="evenodd"/>
<g id="Layer-1" data-name="P">
<clipPath id="cp91">
<path transform="matrix(1,0,0,-1,0,841.5)" d="M .000008862 0 L 594.75 0 L 594.75 841.5 L .000008862 841.5 Z " fill-rule="evenodd"/>
</clipPath>
<g clip-path="url(#cp91)">
<text xml:space="preserve" transform="matrix(1 0 -0 1 0 841.5)" font-size="11.25" font-family="ArialNarrow" font-weight="bold"><tspan y="-639.95" x="453.72 458.97377 464.21626 467.95124 472.45124 477.69374">parcel</tspan></text>
</g>
</g>
<g id="Layer-1" data-name="P">
<clipPath id="cp92">
<path transform="matrix(1,0,0,-1,0,841.5)" d="M .000008862 0 L 594.75 0 L 594.75 841.5 L .000008862 841.5 Z " fill-rule="evenodd"/>
</clipPath>
<g clip-path="url(#cp92)">
<text xml:space="preserve" transform="matrix(1 0 -0 1 0 841.5)" font-size="11.25" font-family="ArialNarrow" font-weight="bold"><tspan y="-626.75" x="452.23 457.48377 461.21876 466.4725 471.715 475.44999">orders</tspan></text>
</g>
</g>
<path transform="matrix(1,0,0,-1,0,841.5)" stroke-width="1.5" stroke-linecap="round" stroke-linejoin="round" fill="none" stroke="#000000" d="M 177.73 636.62 L 217.08 636.62 "/>
<path transform="matrix(1,0,0,-1,0,841.5)" d="M 178.74 632.6 L 166.68 636.62 L 178.74 640.64 L 178.74 632.6 Z " fill-rule="evenodd"/>
</g>
</g>
</svg>
