<?xml version="1.0" encoding="UTF-8" standalone="no"?>
<!DOCTYPE svg PUBLIC "-//W3C//DTD SVG 1.1//EN" "http://www.w3.org/Graphics/SVG/1.1/DTD/svg11.dtd">
<svg xmlns="http://www.w3.org/2000/svg" xmlns:xlink="http://www.w3.org/1999/xlink" version="1.1" width="594.75pt" height="841.5pt" viewBox="0 0 594.75 841.5">
<g enable-background="new">
<g>
<clipPath id="cp234">
<path transform="matrix(1,0,0,-1,0,841.5)" d="M .000007629 841.5 L 594.75 841.5 L 594.75 .000061035 L .000045776 .000061035 " fill-rule="evenodd"/>
</clipPath>
<g clip-path="url(#cp234)">
<path transform="matrix(1,0,0,-1,0,841.5)" stroke-width="1.5" stroke-linecap="round" stroke-linejoin="round" fill="none" stroke="#000000" d="M 111.74 709.7 L 88.135 693.06 "/>
</g>
<clipPath id="cp235">
<path transform="matrix(1,0,0,-1,0,841.5)" d="M .000007629 841.5 L 594.75 841.5 L 594.75 .000061035 L .000045776 .000061035 " fill-rule="evenodd"/>
</clipPath>
<g clip-path="url(#cp235)">
<path transform="matrix(1,0,0,-1,0,841.5)" d="M 108.6 712.41 L 120.77 716.07 L 113.23 705.83 L 108.6 712.41 Z " fill-rule="evenodd"/>
</g>
<clipPath id="cp236">
<path transform="matrix(1,0,0,-1,0,841.5)" d="M .000007629 841.5 L 594.75 841.5 L 594.75 .000061035 L .000045776 .000061035 " fill-rule="evenodd"/>
</clipPath>
<g clip-path="url(#cp236)">
<path transform="matrix(1,0,0,-1,0,841.5)" d="M 91.834 689.87 L 77.48 685.55 L 86.372 697.62 L 91.834 689.87 Z " fill-rule="evenodd"/>
</g>
<clipPath id="cp237">
<path transform="matrix(1,0,0,-1,0,841.5)" d="M -.000022888 841.5 L 594.75 841.5 L 594.75 .00024414 L .000007629 .00018311 " fill-rule="evenodd"/>
</clipPath>
<g clip-path="url(#cp237)">
<path transform="matrix(1,0,0,-1,0,841.5)" stroke-width="1.5" stroke-linecap="round" stroke-linejoin="round" fill="none" stroke="#000000" d="M 67.265 750.93 L 97.924 730.42 "/>
</g>
<clipPath id="cp238">
<path transform="matrix(1,0,0,-1,0,841.5)" d="M -.000022888 841.5 L 594.75 841.5 L 594.75 .00024414 L .000007629 .00018311 " fill-rule="evenodd"/>
</clipPath>
<g clip-path="url(#cp238)">
<path transform="matrix(1,0,0,-1,0,841.5)" d="M 99.575 735.02 L 108.76 723.17 L 94.304 727.14 L 99.575 735.02 Z " fill-rule="evenodd"/>
</g>
<path transform="matrix(1,0,0,-1,0,841.5)" d="M 109.28 703.15 L 169.896 703.15 L 169.896 729.9 L 109.28 729.9 Z " fill="#ffffff" fill-rule="evenodd"/>
<path transform="matrix(1,0,0,-1,0,841.5)" stroke-width="2" stroke-linecap="round" stroke-linejoin="round" fill="none" stroke="#000000" d="M 109.28 703.15 L 169.896 703.15 L 169.896 729.9 L 109.28 729.9 Z "/>
<g id="Layer-1" data-name="P">
<clipPath id="cp239">
<path transform="matrix(1,0,0,-1,0,841.5)" d="M .000008862 0 L 594.75 0 L 594.75 841.5 L .000008862 841.5 Z " fill-rule="evenodd"/>
</clipPath>
<g clip-path="url(#cp239)">
<text xml:space="preserve" transform="matrix(1 0 -0 1 0 841.5)" font-size="9" font-family="ArialNarrow" font-style="italic"><tspan y="-713.7" x="139.77"> </tspan></text>
</g>
</g>
<path transform="matrix(1,0,0,-1,0,841.5)" d="M 94.14 756.13 C 94.14 763.52 80.219 769.51 63.046 769.51 C 45.873 769.51 31.952 763.52 31.952 756.13 C 31.952 748.75 45.873 742.76 63.046 742.76 C 80.219 742.76 94.14 748.75 94.14 756.13 Z " fill="#ffffff" fill-rule="evenodd"/>
<path transform="matrix(1,0,0,-1,0,841.5)" stroke-width="1.5" stroke-linecap="round" stroke-linejoin="round" fill="none" stroke="#000000" d="M 94.14 756.13 C 94.14 763.52 80.219 769.51 63.046 769.51 C 45.873 769.51 31.952 763.52 31.952 756.13 C 31.952 748.75 45.873 742.76 63.046 742.76 C 80.219 742.76 94.14 748.75 94.14 756.13 Z "/>
<g id="Layer-1" data-name="P">
<clipPath id="cp240">
<path transform="matrix(1,0,0,-1,0,841.5)" d="M .000008862 0 L 594.75 0 L 594.75 841.5 L .000008862 841.5 Z " fill-rule="evenodd"/>
</clipPath>
<g clip-path="url(#cp240)">
<text xml:space="preserve" transform="matrix(1 0 -0 1 0 841.5)" font-size="9" font-family="ArialNarrow" font-style="italic"><tspan y="-758.75" x="41.775 45.519 49.272 53.763 57.516 59.757 61.26 63.500997 67.254 70.242 73.994998 78.486 80.736">suppl. orders</tspan></text>
</g>
</g>
<g id="Layer-1" data-name="P">
<clipPath id="cp241">
<path transform="matrix(1,0,0,-1,0,841.5)" d="M .000008862 0 L 594.75 0 L 594.75 841.5 L .000008862 841.5 Z " fill-rule="evenodd"/>
</clipPath>
<g clip-path="url(#cp241)">
<text xml:space="preserve" transform="matrix(1 0 -0 1 0 841.5)" font-size="9" font-family="ArialNarrow" font-weight="bold"><tspan y="-758.75" x="84.475"> </tspan></text>
</g>
</g>
<g id="Layer-1" data-name="P">
<clipPath id="cp242">
<path transform="matrix(1,0,0,-1,0,841.5)" d="M .000008862 0 L 594.75 0 L 594.75 841.5 L .000008862 841.5 Z " fill-rule="evenodd"/>
</clipPath>
<g clip-path="url(#cp242)">
<text xml:space="preserve" transform="matrix(1 0 -0 1 0 841.5)" font-size="9" font-family="ArialNarrow" font-weight="bold"><tspan y="-747.92" x="47.5 49.75 53.512 58.021 61.81 64.798 67.795 70.036 72.27701 76.04801">("hat", 2)</tspan></text>
</g>
</g>
<path transform="matrix(1,0,0,-1,0,841.5)" d="M 96.206 669.56 C 96.206 679.11 82.284 686.86 65.111 686.86 C 47.939 686.86 34.017 679.11 34.017 669.56 C 34.017 660.01 47.939 652.27 65.111 652.27 C 82.284 652.27 96.206 660.01 96.206 669.56 Z " fill="#ffffff" fill-rule="evenodd"/>
<path transform="matrix(1,0,0,-1,0,841.5)" stroke-width="1.5" stroke-linecap="round" stroke-linejoin="round" fill="none" stroke="#000000" d="M 96.206 669.56 C 96.206 679.11 82.284 686.86 65.111 686.86 C 47.939 686.86 34.017 679.11 34.017 669.56 C 34.017 660.01 47.939 652.27 65.111 652.27 C 82.284 652.27 96.206 660.01 96.206 669.56 Z "/>
<g id="Layer-1" data-name="P">
<clipPath id="cp243">
<path transform="matrix(1,0,0,-1,0,841.5)" d="M .000008862 0 L 594.75 0 L 594.75 841.5 L .000008862 841.5 Z " fill-rule="evenodd"/>
</clipPath>
<g clip-path="url(#cp243)">
<text xml:space="preserve" transform="matrix(1 0 -0 1 0 841.5)" font-size="9.025" font-family="ArialNarrow" font-style="italic"><tspan y="-677.53" x="51.025 54.779405 59.273859 63.02826 67.52271 71.26809 73.50629 75.00444 79.49889">goods to </tspan></text>
</g>
</g>
<g id="Layer-1" data-name="P">
<clipPath id="cp244">
<path transform="matrix(1,0,0,-1,0,841.5)" d="M .000008862 0 L 594.75 0 L 594.75 841.5 L .000008862 841.5 Z " fill-rule="evenodd"/>
</clipPath>
<g clip-path="url(#cp244)">
<text xml:space="preserve" transform="matrix(1 0 -0 1 0 841.5)" font-size="9" font-family="ArialNarrow" font-style="italic"><tspan y="-666.7" x="47.125 52.371999 56.863 59.113 62.865999 67.357 71.11 75.601009 79.34501">warehouse</tspan></text>
</g>
</g>
<g id="Layer-1" data-name="P">
<clipPath id="cp245">
<path transform="matrix(1,0,0,-1,0,841.5)" d="M .000008862 0 L 594.75 0 L 594.75 841.5 L .000008862 841.5 Z " fill-rule="evenodd"/>
</clipPath>
<g clip-path="url(#cp245)">
<text xml:space="preserve" transform="matrix(1 0 -0 1 0 841.5)" font-size="9" font-family="ArialNarrow" font-weight="bold"><tspan y="-655.9" x="49.175 52.163 56.671998 60.461 63.448999 64.951999 67.193 71.702 76.238 78.488">{hat, hat}</tspan></text>
</g>
</g>
<g id="Layer-1" data-name="P">
<clipPath id="cp246">
<path transform="matrix(1,0,0,-1,0,841.5)" d="M .000008862 0 L 594.75 0 L 594.75 841.5 L .000008862 841.5 Z " fill-rule="evenodd"/>
</clipPath>
<g clip-path="url(#cp246)">
<text xml:space="preserve" transform="matrix(1 0 -0 1 0 841.5)" font-size="11.25" font-family="ArialNarrow" font-weight="bold"><tspan y="-693.3" x="107.22 112.485 117.76125 126.03 131.30625 133.55625 136.54875 141.07126 144.06377 149.34001 153.10875 158.385 163.65 167.41873 171.94124 177.95999">compile ordered </tspan></text>
</g>
</g>
<g id="Layer-1" data-name="P">
<clipPath id="cp247">
<path transform="matrix(1,0,0,-1,0,841.5)" d="M .000008862 0 L 594.75 0 L 594.75 841.5 L .000008862 841.5 Z " fill-rule="evenodd"/>
</clipPath>
<g clip-path="url(#cp247)">
<text xml:space="preserve" transform="matrix(1 0 -0 1 0 841.5)" font-size="11.25" font-family="ArialNarrow" font-weight="bold"><tspan y="-680.08" x="150.4 155.67624 161.69499 166.97124 172.24748">goods</tspan></text>
</g>
</g>
</g>
</g>
</svg>
