<?xml version="1.0" encoding="UTF-8" standalone="no"?>
<!DOCTYPE svg PUBLIC "-//W3C//DTD SVG 1.1//EN" "http://www.w3.org/Graphics/SVG/1.1/DTD/svg11.dtd">
<svg xmlns="http://www.w3.org/2000/svg" xmlns:xlink="http://www.w3.org/1999/xlink" version="1.1" width="594.75pt" height="841.5pt" viewBox="0 0 594.75 841.5">
<g enable-background="new">
<g>
<clipPath id="cp554">
<path transform="matrix(1,0,0,-1,0,841.5)" d="M .000015259 841.5 L 594.75 841.5 L 594.75 .00012207 L .000015259 .00012207 " fill-rule="evenodd"/>
</clipPath>
<g clip-path="url(#cp554)">
<path transform="matrix(1,0,0,-1,0,841.5)" stroke-width="1.5" stroke-linecap="round" stroke-linejoin="round" fill="none" stroke="#000000" d="M 170.14 388.43 L 170.14 350.67 "/>
</g>
<clipPath id="cp555">
<path transform="matrix(1,0,0,-1,0,841.5)" d="M .000015259 841.5 L 594.75 841.5 L 594.75 .00012207 L .000015259 .00012207 " fill-rule="evenodd"/>
</clipPath>
<g clip-path="url(#cp555)">
<path transform="matrix(1,0,0,-1,0,841.5)" d="M 174.88 351.85 L 170.14 337.63 L 165.4 351.85 L 174.88 351.85 Z " fill-rule="evenodd"/>
</g>
<g id="Layer-1" data-name="P">
<clipPath id="cp556">
<path transform="matrix(1,0,0,-1,0,841.5)" d="M .000008862 0 L 594.75 0 L 594.75 841.5 L .000008862 841.5 Z " fill-rule="evenodd"/>
</clipPath>
<g clip-path="url(#cp556)">
<text xml:space="preserve" transform="matrix(1 0 -0 1 0 841.5)" font-size="11.25" font-family="ArialNarrow" font-weight="bold"><tspan y="-361.15" x="145.77 148.77375 154.01625 156.26625 158.51625 164.5125">(k, X)</tspan></text>
</g>
</g>
<path transform="matrix(1,0,0,-1,0,841.5)" stroke-width="1.5" stroke-linecap="round" stroke-linejoin="round" fill="none" stroke="#000000" d="M 412.71 329.61 L 344.67 329.61 "/>
<path transform="matrix(1,0,0,-1,0,841.5)" d="M 345.86 324.87 L 331.64 329.61 L 345.86 334.35 L 345.86 324.87 Z " fill-rule="evenodd"/>
<path transform="matrix(1,0,0,-1,0,841.5)" stroke-width="1.5" stroke-linecap="round" stroke-linejoin="round" fill="none" stroke="#000000" d="M 479.31 329.61 L 439.82 329.61 "/>
<path transform="matrix(1,0,0,-1,0,841.5)" d="M 441 324.87 L 426.78 329.61 L 441 334.35 L 441 324.87 Z " fill-rule="evenodd"/>
<clipPath id="cp557">
<path transform="matrix(1,0,0,-1,0,841.5)" d="M -.000030518 841.5 L 594.75 841.5 L 594.75 -.000061035 L -.000030518 -.000061035 " fill-rule="evenodd"/>
</clipPath>
<g clip-path="url(#cp557)">
<path transform="matrix(1,0,0,-1,0,841.5)" stroke-width="1.5" stroke-linecap="round" stroke-linejoin="round" fill="none" stroke="#000000" d="M 265.98 329.57 L 201.86 329.91 "/>
</g>
<clipPath id="cp558">
<path transform="matrix(1,0,0,-1,0,841.5)" d="M -.000030518 841.5 L 594.75 841.5 L 594.75 -.000061035 L -.000030518 -.000061035 " fill-rule="evenodd"/>
</clipPath>
<g clip-path="url(#cp558)">
<path transform="matrix(1,0,0,-1,0,841.5)" d="M 203.02 325.17 L 188.83 329.98 L 203.07 334.65 L 203.02 325.17 Z " fill-rule="evenodd"/>
</g>
<path transform="matrix(1,0,0,-1,0,841.5)" d="M 392.87 322.33 L 426.787 322.33 L 426.787 337 L 392.87 337 Z " fill="#ffffff" fill-rule="evenodd"/>
<path transform="matrix(1,0,0,-1,0,841.5)" stroke-width="2" stroke-linecap="round" stroke-linejoin="round" fill="none" stroke="#000000" d="M 392.87 322.33 L 426.787 322.33 L 426.787 337 L 392.87 337 Z "/>
<g id="Layer-1" data-name="P">
<clipPath id="cp559">
<path transform="matrix(1,0,0,-1,0,841.5)" d="M .000008862 0 L 594.75 0 L 594.75 841.5 L .000008862 841.5 Z " fill-rule="evenodd"/>
</clipPath>
<g clip-path="url(#cp559)">
<text xml:space="preserve" transform="matrix(1 0 -0 1 0 841.5)" font-size="11.275" font-family="ArialNarrow" font-weight="bold"><tspan y="-326.75" x="410.35"> </tspan></text>
</g>
</g>
<clipPath id="cp560">
<path transform="matrix(1,0,0,-1,0,841.5)" d="M -.000030518 841.5 L 594.75 841.5 L 594.75 -.00012207 L -.000030518 -.000061035 " fill-rule="evenodd"/>
</clipPath>
<g clip-path="url(#cp560)">
<path transform="matrix(1,0,0,-1,0,841.5)" stroke-width="1.5" stroke-linecap="round" stroke-linejoin="round" fill="none" stroke="#000000" d="M 156.06 329.83 L 123.22 329.9 "/>
</g>
<clipPath id="cp561">
<path transform="matrix(1,0,0,-1,0,841.5)" d="M -.000030518 841.5 L 594.75 841.5 L 594.75 -.00012207 L -.000030518 -.000061035 " fill-rule="evenodd"/>
</clipPath>
<g clip-path="url(#cp561)">
<path transform="matrix(1,0,0,-1,0,841.5)" d="M 124.4 325.16 L 110.19 329.93 L 124.42 334.64 L 124.4 325.16 Z " fill-rule="evenodd"/>
</g>
<g id="Layer-1" data-name="P">
<clipPath id="cp562">
<path transform="matrix(1,0,0,-1,0,841.5)" d="M .000008862 0 L 594.75 0 L 594.75 841.5 L .000008862 841.5 Z " fill-rule="evenodd"/>
</clipPath>
<g clip-path="url(#cp562)">
<text xml:space="preserve" transform="matrix(1 0 -0 1 0 841.5)" font-size="9" font-family="ArialNarrow" font-weight="bold"><tspan y="-319.65" x="128.5 130.75 135.241 136.744 138.985 144.223 145.72602">(k, X')</tspan></text>
</g>
</g>
<path transform="matrix(1,0,0,-1,0,841.5)" d="M 556.98 329.94 C 556.98 339.97 539.65 348.11 518.27 348.11 C 496.89 348.11 479.55 339.97 479.55 329.94 C 479.55 319.9 496.89 311.77 518.27 311.77 C 539.65 311.77 556.98 319.9 556.98 329.94 Z " fill="#ffffff" fill-rule="evenodd"/>
<path transform="matrix(1,0,0,-1,0,841.5)" stroke-width="1.5" stroke-linecap="round" stroke-linejoin="round" fill="none" stroke="#000000" d="M 556.98 329.94 C 556.98 339.97 539.65 348.11 518.27 348.11 C 496.89 348.11 479.55 339.97 479.55 329.94 C 479.55 319.9 496.89 311.77 518.27 311.77 C 539.65 311.77 556.98 319.9 556.98 329.94 Z "/>
<g id="Layer-1" data-name="P">
<clipPath id="cp563">
<path transform="matrix(1,0,0,-1,0,841.5)" d="M .000008862 0 L 594.75 0 L 594.75 841.5 L .000008862 841.5 Z " fill-rule="evenodd"/>
</clipPath>
<g clip-path="url(#cp563)">
<text xml:space="preserve" transform="matrix(1 0 -0 1 0 841.5)" font-size="9.025" font-family="ArialNarrow" font-weight="bold"><tspan y="-337.6" x="518.92"> </tspan></text>
</g>
</g>
<path transform="matrix(1,0,0,-1,0,841.5)" d="M 331.52 329.97 C 331.52 341.33 314.18 350.55 292.8 350.55 C 271.42 350.55 254.09 341.33 254.09 329.97 C 254.09 318.6 271.42 309.39 292.8 309.39 C 314.18 309.39 331.52 318.6 331.52 329.97 Z " fill="#ffffff" fill-rule="evenodd"/>
<path transform="matrix(1,0,0,-1,0,841.5)" stroke-width="1.5" stroke-linecap="round" stroke-linejoin="round" fill="none" stroke="#000000" d="M 331.52 329.97 C 331.52 341.33 314.18 350.55 292.8 350.55 C 271.42 350.55 254.09 341.33 254.09 329.97 C 254.09 318.6 271.42 309.39 292.8 309.39 C 314.18 309.39 331.52 318.6 331.52 329.97 Z "/>
<g id="Layer-1" data-name="P">
<clipPath id="cp564">
<path transform="matrix(1,0,0,-1,0,841.5)" d="M .000008862 0 L 594.75 0 L 594.75 841.5 L .000008862 841.5 Z " fill-rule="evenodd"/>
</clipPath>
<g clip-path="url(#cp564)">
<text xml:space="preserve" transform="matrix(1 0 -0 1 0 841.5)" font-size="8.25" font-family="ArialNarrow" font-weight="bold"><tspan y="-338.52" x="273.48 275.73228 280.22853 282.48078 286.24278 287.72779 289.9718 293.7338 297.47105 301.2248 304.9868 308.74879 310.9763 312.4778">(Ute, shoes), </tspan></text>
</g>
</g>
<g id="Layer-1" data-name="P">
<clipPath id="cp565">
<path transform="matrix(1,0,0,-1,0,841.5)" d="M .000008862 0 L 594.75 0 L 594.75 841.5 L .000008862 841.5 Z " fill-rule="evenodd"/>
</clipPath>
<g clip-path="url(#cp565)">
<text xml:space="preserve" transform="matrix(1 0 -0 1 0 841.5)" font-size="8.275" font-family="ArialNarrow" font-weight="bold"><tspan y="-331.33" x="273.48 275.73908 280.2324 282.49147 286.23176 287.72953 289.97206 293.74546 297.4692 301.2178 304.9912 308.71498 310.97404">(Ute, shoes),</tspan></text>
</g>
</g>
<g id="Layer-1" data-name="P">
<clipPath id="cp566">
<path transform="matrix(1,0,0,-1,0,841.5)" d="M .000008862 0 L 594.75 0 L 594.75 841.5 L .000008862 841.5 Z " fill-rule="evenodd"/>
</clipPath>
<g clip-path="url(#cp566)">
<text xml:space="preserve" transform="matrix(1 0 -0 1 0 841.5)" font-size="8.275" font-family="ArialNarrow" font-weight="bold"><tspan y="-324.13" x="278.02"> </tspan></text>
</g>
</g>
<g id="Layer-1" data-name="P">
<clipPath id="cp567">
<path transform="matrix(1,0,0,-1,0,841.5)" d="M .000008862 0 L 594.75 0 L 594.75 841.5 L .000008862 841.5 Z " fill-rule="evenodd"/>
</clipPath>
<g clip-path="url(#cp567)">
<text xml:space="preserve" transform="matrix(1 0 -0 1 0 841.5)" font-size="8.275" font-family="ArialNarrow" font-weight="bold"><tspan y="-324.13" x="279.85 282.10908 286.65205 288.9111 292.6845 294.19883 296.46617 300.23957 304.01298 306.27204">(Ute, hat)</tspan></text>
</g>
</g>
<g id="Layer-1" data-name="P">
<clipPath id="cp568">
<path transform="matrix(1,0,0,-1,0,841.5)" d="M .000008862 0 L 594.75 0 L 594.75 841.5 L .000008862 841.5 Z " fill-rule="evenodd"/>
</clipPath>
<g clip-path="url(#cp568)">
<text xml:space="preserve" transform="matrix(1 0 -0 1 0 841.5)" font-size="8.25" font-family="ArialNarrow" font-weight="bold"><tspan y="-316.9" x="278.95 281.20228 285.69853 287.95079 291.71278 293.19779 295.4418 299.19557 302.95756 305.2098 307.46208">(Ute, hat) </tspan></text>
</g>
</g>
<path transform="matrix(1,0,0,-1,0,841.5)" d="M 208.93 400.23 C 208.93 410.26 191.6 418.4 170.22 418.4 C 148.83 418.4 131.5 410.26 131.5 400.23 C 131.5 390.19 148.83 382.06 170.22 382.06 C 191.6 382.06 208.93 390.19 208.93 400.23 Z " fill="#ffffff" fill-rule="evenodd"/>
<path transform="matrix(1,0,0,-1,0,841.5)" stroke-width="1.5" stroke-linecap="round" stroke-linejoin="round" fill="none" stroke="#000000" d="M 208.93 400.23 C 208.93 410.26 191.6 418.4 170.22 418.4 C 148.83 418.4 131.5 410.26 131.5 400.23 C 131.5 390.19 148.83 382.06 170.22 382.06 C 191.6 382.06 208.93 390.19 208.93 400.23 Z "/>
<g id="Layer-1" data-name="P">
<clipPath id="cp569">
<path transform="matrix(1,0,0,-1,0,841.5)" d="M .000008862 0 L 594.75 0 L 594.75 841.5 L .000008862 841.5 Z " fill-rule="evenodd"/>
</clipPath>
<g clip-path="url(#cp569)">
<text xml:space="preserve" transform="matrix(1 0 -0 1 0 841.5)" font-size="9.025" font-family="ArialNarrow" font-weight="bold"><tspan y="-397.83" x="140.05 142.29723 147.54978 150.53705 154.29146">(Ute,</tspan></text>
</g>
</g>
<g id="Layer-1" data-name="Span">
<clipPath id="cp570">
<path transform="matrix(1,0,0,-1,0,841.5)" d="M .000008862 0 L 594.75 0 L 594.75 841.5 L .000008862 841.5 Z " fill-rule="evenodd"/>
</clipPath>
<g clip-path="url(#cp570)">
<text xml:space="preserve" transform="matrix(1 0 -0 1 0 841.5)" font-size="9.025" font-family="ArialNarrow" font-weight="bold"><tspan y="-397.83" x="156.47"> </tspan></text>
</g>
</g>
<g id="Layer-1" data-name="P">
<clipPath id="cp571">
<path transform="matrix(1,0,0,-1,0,841.5)" d="M .000008862 0 L 594.75 0 L 594.75 841.5 L .000008862 841.5 Z " fill-rule="evenodd"/>
</clipPath>
<g clip-path="url(#cp571)">
<text xml:space="preserve" transform="matrix(1 0 -0 1 0 841.5)" font-size="9.025" font-family="ArialNarrow" font-weight="bold"><tspan y="-397.83" x="158.53 161.51728 166.0388 169.76613 172.00432 174.24251 178.76404 182.49137 184.72956 186.96775 191.48928">{p1, p2, p2</tspan></text>
</g>
</g>
<g id="Layer-1" data-name="P">
<clipPath id="cp572">
<path transform="matrix(1,0,0,-1,0,841.5)" d="M .000008862 0 L 594.75 0 L 594.75 841.5 L .000008862 841.5 Z " fill-rule="evenodd"/>
</clipPath>
<g clip-path="url(#cp572)">
<text xml:space="preserve" transform="matrix(1 0 -0 1 0 841.5)" font-size="9.025" font-family="ArialNarrow" font-weight="bold"><tspan y="-397.83" x="195.48 198.50498">})</tspan></text>
</g>
</g>
<path transform="matrix(1,0,0,-1,0,841.5)" d="M 109.71 330.5 C 109.71 340.53 92.376 348.67 70.995 348.67 C 49.614 348.67 32.282 340.53 32.282 330.5 C 32.282 320.46 49.614 312.33 70.995 312.33 C 92.376 312.33 109.71 320.46 109.71 330.5 Z " fill="#ffffff" fill-rule="evenodd"/>
<path transform="matrix(1,0,0,-1,0,841.5)" stroke-width="1.5" stroke-linecap="round" stroke-linejoin="round" fill="none" stroke="#000000" d="M 109.71 330.5 C 109.71 340.53 92.376 348.67 70.995 348.67 C 49.614 348.67 32.282 340.53 32.282 330.5 C 32.282 320.46 49.614 312.33 70.995 312.33 C 92.376 312.33 109.71 320.46 109.71 330.5 Z "/>
<g id="Layer-1" data-name="P">
<clipPath id="cp573">
<path transform="matrix(1,0,0,-1,0,841.5)" d="M .000008862 0 L 594.75 0 L 594.75 841.5 L .000008862 841.5 Z " fill-rule="evenodd"/>
</clipPath>
<g clip-path="url(#cp573)">
<text xml:space="preserve" transform="matrix(1 0 -0 1 0 841.5)" font-size="9" font-family="ArialNarrow" font-weight="bold"><tspan y="-328.03" x="71.075"> </tspan></text>
</g>
</g>
<path transform="matrix(1,0,0,-1,0,841.5)" d="M 151.18 322.08 L 188.784 322.08 L 188.784 336.75 L 151.18 336.75 Z " fill="#ffffff" fill-rule="evenodd"/>
<path transform="matrix(1,0,0,-1,0,841.5)" stroke-width="2" stroke-linecap="round" stroke-linejoin="round" fill="none" stroke="#000000" d="M 151.18 322.08 L 188.784 322.08 L 188.784 336.75 L 151.18 336.75 Z "/>
<g id="Layer-1" data-name="P">
<clipPath id="cp574">
<path transform="matrix(1,0,0,-1,0,841.5)" d="M .000008862 0 L 594.75 0 L 594.75 841.5 L .000008862 841.5 Z " fill-rule="evenodd"/>
</clipPath>
<g clip-path="url(#cp574)">
<text xml:space="preserve" transform="matrix(1 0 -0 1 0 841.5)" font-size="9.025" font-family="ArialNarrow" font-weight="bold"><tspan y="-326.95" x="155.68"> </tspan></text>
</g>
</g>
<g id="Layer-1" data-name="P">
<clipPath id="cp575">
<path transform="matrix(1,0,0,-1,0,841.5)" d="M .000008862 0 L 594.75 0 L 594.75 841.5 L .000008862 841.5 Z " fill-rule="evenodd"/>
</clipPath>
<g clip-path="url(#cp575)">
<text xml:space="preserve" transform="matrix(1 0 -0 1 0 841.5)" font-size="9.025" font-family="ArialNarrow" font-weight="bold"><tspan y="-326.95" x="157.72 162.96353 164.46169 166.69988 170.45429 172.69248 174.9397 177.92697 182.4485 184.67768">X' = f(Z) </tspan></text>
</g>
</g>
<g id="Layer-1" data-name="P">
<clipPath id="cp576">
<path transform="matrix(1,0,0,-1,0,841.5)" d="M .000008862 0 L 594.75 0 L 594.75 841.5 L .000008862 841.5 Z " fill-rule="evenodd"/>
</clipPath>
<g clip-path="url(#cp576)">
<text xml:space="preserve" transform="matrix(1 0 -0 1 0 841.5)" font-size="9.75" font-family="ArialNarrow" font-weight="bold"><tspan y="-315.65" x="452.38 455.37327 459.868 462.091 464.36274 468.86726">(k, Z)</tspan></text>
</g>
</g>
<g id="Layer-1" data-name="P">
<clipPath id="cp577">
<path transform="matrix(1,0,0,-1,0,841.5)" d="M .000008862 0 L 594.75 0 L 594.75 841.5 L .000008862 841.5 Z " fill-rule="evenodd"/>
</clipPath>
<g clip-path="url(#cp577)">
<text xml:space="preserve" transform="matrix(1 0 -0 1 0 841.5)" font-size="9.775" font-family="ArialNarrow" font-weight="bold"><tspan y="-316.58" x="347.28 351.79606 354.06385 361.5808 363.8584 367.62178 372.13783 375.1583">elm({k} </tspan></text>
</g>
</g>
<g id="Layer-1" data-name="P">
<clipPath id="cp578">
<path transform="matrix(1,0,0,-1,0,841.5)" d="M .000008862 0 L 594.75 0 L 594.75 841.5 L .000008862 841.5 Z " fill-rule="evenodd"/>
</clipPath>
<g clip-path="url(#cp578)">
<text xml:space="preserve" transform="matrix(1 0 -0 1 0 841.5)" font-size="9.775" font-family="SymbolMT"><tspan y="-316.58" x="377.4 382.65049">&#xf0b4; </tspan></text>
</g>
</g>
<g id="Layer-1" data-name="P">
<clipPath id="cp579">
<path transform="matrix(1,0,0,-1,0,841.5)" d="M .000008862 0 L 594.75 0 L 594.75 841.5 L .000008862 841.5 Z " fill-rule="evenodd"/>
</clipPath>
<g clip-path="url(#cp579)">
<text xml:space="preserve" transform="matrix(1 0 -0 1 0 841.5)" font-size="9.775" font-family="ArialNarrow" font-weight="bold"><tspan y="-316.58" x="385.4">Z</tspan></text>
</g>
</g>
<g id="Layer-1" data-name="P">
<clipPath id="cp580">
<path transform="matrix(1,0,0,-1,0,841.5)" d="M .000008862 0 L 594.75 0 L 594.75 841.5 L .000008862 841.5 Z " fill-rule="evenodd"/>
</clipPath>
<g clip-path="url(#cp580)">
<text xml:space="preserve" transform="matrix(1 0 -0 1 0 841.5)" font-size="9.775" font-family="ArialNarrow"><tspan y="-316.58" x="390.42">)</tspan></text>
</g>
</g>
<g id="Layer-1" data-name="P">
<clipPath id="cp581">
<path transform="matrix(1,0,0,-1,0,841.5)" d="M .000008862 0 L 594.75 0 L 594.75 841.5 L .000008862 841.5 Z " fill-rule="evenodd"/>
</clipPath>
<g clip-path="url(#cp581)">
<text xml:space="preserve" transform="matrix(1 0 -0 1 0 841.5)" font-size="9.775" font-family="ArialNarrow" font-weight="bold"><tspan y="-317.48" x="207.08 211.56673 213.79543 221.30263 223.55089 227.29471 231.78144 234.78237">elm({k} </tspan></text>
</g>
</g>
<g id="Layer-1" data-name="P">
<clipPath id="cp582">
<path transform="matrix(1,0,0,-1,0,841.5)" d="M .000008862 0 L 594.75 0 L 594.75 841.5 L .000008862 841.5 Z " fill-rule="evenodd"/>
</clipPath>
<g clip-path="url(#cp582)">
<text xml:space="preserve" transform="matrix(1 0 -0 1 0 841.5)" font-size="9.775" font-family="SymbolMT"><tspan y="-317.48" x="237.18 242.45497">&#xf0b4; </tspan></text>
</g>
</g>
<g id="Layer-1" data-name="P">
<clipPath id="cp583">
<path transform="matrix(1,0,0,-1,0,841.5)" d="M .000008862 0 L 594.75 0 L 594.75 841.5 L .000008862 841.5 Z " fill-rule="evenodd"/>
</clipPath>
<g clip-path="url(#cp583)">
<text xml:space="preserve" transform="matrix(1 0 -0 1 0 841.5)" font-size="9.775" font-family="ArialNarrow" font-weight="bold"><tspan y="-317.48" x="245.18">Z</tspan></text>
</g>
</g>
<g id="Layer-1" data-name="P">
<clipPath id="cp584">
<path transform="matrix(1,0,0,-1,0,841.5)" d="M .000008862 0 L 594.75 0 L 594.75 841.5 L .000008862 841.5 Z " fill-rule="evenodd"/>
</clipPath>
<g clip-path="url(#cp584)">
<text xml:space="preserve" transform="matrix(1 0 -0 1 0 841.5)" font-size="9.775" font-family="ArialNarrow"><tspan y="-317.48" x="250.2">)</tspan></text>
</g>
</g>
<g id="Layer-1" data-name="P">
<clipPath id="cp585">
<path transform="matrix(1,0,0,-1,0,841.5)" d="M .000008862 0 L 594.75 0 L 594.75 841.5 L .000008862 841.5 Z " fill-rule="evenodd"/>
</clipPath>
<g clip-path="url(#cp585)">
<text xml:space="preserve" transform="matrix(1 0 -0 1 0 841.5)" font-size="11.25" font-family="ArialNarrow" font-weight="bold"><tspan y="-420.02" x="88.2 93.465 97.987499 104.00625 108.52875 113.79375 116.7975 122.0625 127.33875">expected </tspan></text>
</g>
</g>
<g id="Layer-1" data-name="P">
<clipPath id="cp586">
<path transform="matrix(1,0,0,-1,0,841.5)" d="M .000008862 0 L 594.75 0 L 594.75 841.5 L .000008862 841.5 Z " fill-rule="evenodd"/>
</clipPath>
<g clip-path="url(#cp586)">
<text xml:space="preserve" transform="matrix(1 0 -0 1 0 841.5)" font-size="11.25" font-family="ArialNarrow" font-weight="bold"><tspan y="-410.13" x="93.225 98.47875 103.72125 105.97125 108.96375 113.46375 118.70625 122.44125">delivery</tspan></text>
</g>
</g>
<g id="Layer-1" data-name="P">
<clipPath id="cp587">
<path transform="matrix(1,0,0,-1,0,841.5)" d="M .000008862 0 L 594.75 0 L 594.75 841.5 L .000008862 841.5 Z " fill-rule="evenodd"/>
</clipPath>
<g clip-path="url(#cp587)">
<text xml:space="preserve" transform="matrix(1 0 -0 1 0 841.5)" font-size="11.25" font-family="ArialNarrow" font-weight="bold"><tspan y="-355.42" x="482.4 487.65376 492.89625 496.63124 499.63499 501.88499 507.12748 509.37748 511.62748 517.6125 522.1125 525.105 527.355 532.5975 537.83999 540.8437 543.8362 548.3362">partial deliveries</tspan></text>
</g>
</g>
<g id="Layer-1" data-name="P">
<clipPath id="cp588">
<path transform="matrix(1,0,0,-1,0,841.5)" d="M .000008862 0 L 594.75 0 L 594.75 841.5 L .000008862 841.5 Z " fill-rule="evenodd"/>
</clipPath>
<g clip-path="url(#cp588)">
<text xml:space="preserve" transform="matrix(1 0 -0 1 0 841.5)" font-size="11.275" font-family="ArialNarrow" font-weight="bold"><tspan y="-356.63" x="253.13 258.38417 263.627 265.88203 268.8699 273.36863 278.61149 282.35478 286.8535 292.8405 295.09553 301.08256 306.3367 311.59086 317.57789">delivered goods</tspan></text>
</g>
</g>
<g id="Layer-1" data-name="P">
<clipPath id="cp589">
<path transform="matrix(1,0,0,-1,0,841.5)" d="M .000008862 0 L 594.75 0 L 594.75 841.5 L .000008862 841.5 Z " fill-rule="evenodd"/>
</clipPath>
<g clip-path="url(#cp589)">
<text xml:space="preserve" transform="matrix(1 0 -0 1 0 841.5)" font-size="11.25" font-family="ArialNarrow" font-weight="bold"><tspan y="-374.73" x="47.675 52.9175 57.4175 62.66 67.902507 73.15626 76.16001 81.40251 86.656269">accepted </tspan></text>
</g>
</g>
<g id="Layer-1" data-name="P">
<clipPath id="cp590">
<path transform="matrix(1,0,0,-1,0,841.5)" d="M .000008862 0 L 594.75 0 L 594.75 841.5 L .000008862 841.5 Z " fill-rule="evenodd"/>
</clipPath>
<g clip-path="url(#cp590)">
<text xml:space="preserve" transform="matrix(1 0 -0 1 0 841.5)" font-size="11.275" font-family="ArialNarrow" font-weight="bold"><tspan y="-364.82" x="57.7 62.95415 68.19703 73.43991 76.439067 81.681949 83.93695 86.92483">overall </tspan></text>
</g>
</g>
<g id="Layer-1" data-name="P">
<clipPath id="cp591">
<path transform="matrix(1,0,0,-1,0,841.5)" d="M .000008862 0 L 594.75 0 L 594.75 841.5 L .000008862 841.5 Z " fill-rule="evenodd"/>
</clipPath>
<g clip-path="url(#cp591)">
<text xml:space="preserve" transform="matrix(1 0 -0 1 0 841.5)" font-size="11.25" font-family="ArialNarrow" font-weight="bold"><tspan y="-354.9" x="45.15 50.40375 55.64625 57.89625 60.888753 65.388759 70.631259 74.36626 76.61626 81.85876">deliveries</tspan></text>
</g>
</g>
<g id="Layer-1" data-name="P">
<clipPath id="cp592">
<path transform="matrix(1,0,0,-1,0,841.5)" d="M .000008862 0 L 594.75 0 L 594.75 841.5 L .000008862 841.5 Z " fill-rule="evenodd"/>
</clipPath>
<g clip-path="url(#cp592)">
<text xml:space="preserve" transform="matrix(1 0 -0 1 0 841.5)" font-size="11.25" font-family="ArialNarrow" font-weight="bold"><tspan y="-304.15" x="129.4 134.6425 139.1425 144.38501 149.62752 154.88126 157.885 160.135 166.12 170.62 175.8625 179.5975 184.84001 187.09001 189.34001">accept overall </tspan></text>
</g>
</g>
<g id="Layer-1" data-name="P">
<clipPath id="cp593">
<path transform="matrix(1,0,0,-1,0,841.5)" d="M .000008862 0 L 594.75 0 L 594.75 841.5 L .000008862 841.5 Z " fill-rule="evenodd"/>
</clipPath>
<g clip-path="url(#cp593)">
<text xml:space="preserve" transform="matrix(1 0 -0 1 0 841.5)" font-size="11.275" font-family="ArialNarrow" font-weight="bold"><tspan y="-294.25" x="155.5 160.7767 166.04213 168.29712 171.28499 175.80626 181.07169 184.83754 189.35881">delivery </tspan></text>
</g>
</g>
<g id="Layer-1" data-name="P">
<clipPath id="cp594">
<path transform="matrix(1,0,0,-1,0,841.5)" d="M .000008862 0 L 594.75 0 L 594.75 841.5 L .000008862 841.5 Z " fill-rule="evenodd"/>
</clipPath>
<g clip-path="url(#cp594)">
<text xml:space="preserve" transform="matrix(1 0 -0 1 0 841.5)" font-size="11.25" font-family="ArialNarrow" font-weight="bold"><tspan y="-309.1" x="399.38 404.6225 409.1225 414.365 419.60749 424.86125 427.865">accept </tspan></text>
</g>
</g>
<g id="Layer-1" data-name="P">
<clipPath id="cp595">
<path transform="matrix(1,0,0,-1,0,841.5)" d="M .000008862 0 L 594.75 0 L 594.75 841.5 L .000008862 841.5 Z " fill-rule="evenodd"/>
</clipPath>
<g clip-path="url(#cp595)">
<text xml:space="preserve" transform="matrix(1 0 -0 1 0 841.5)" font-size="11.275" font-family="ArialNarrow" font-weight="bold"><tspan y="-299.2" x="400.88 406.13417 411.377 415.1203 418.11946 420.37446 425.6173 427.8723">partial </tspan></text>
</g>
</g>
<g id="Layer-1" data-name="P">
<clipPath id="cp596">
<path transform="matrix(1,0,0,-1,0,841.5)" d="M .000008862 0 L 594.75 0 L 594.75 841.5 L .000008862 841.5 Z " fill-rule="evenodd"/>
</clipPath>
<g clip-path="url(#cp596)">
<text xml:space="preserve" transform="matrix(1 0 -0 1 0 841.5)" font-size="11.275" font-family="ArialNarrow" font-weight="bold"><tspan y="-289.3" x="386.3 391.55415 396.797 399.052 402.0399 406.5386 411.78147 415.52476 417.77976 423.0226">deliveries</tspan></text>
</g>
</g>
</g>
</g>
</svg>
