<?xml version="1.0" encoding="UTF-8" standalone="no"?>
<!DOCTYPE svg PUBLIC "-//W3C//DTD SVG 1.1//EN" "http://www.w3.org/Graphics/SVG/1.1/DTD/svg11.dtd">
<svg xmlns="http://www.w3.org/2000/svg" xmlns:xlink="http://www.w3.org/1999/xlink" version="1.1" width="594.75pt" height="841.5pt" viewBox="0 0 594.75 841.5">
<g enable-background="new">
<g>
<clipPath id="cp123">
<path transform="matrix(1,0,0,-1,0,841.5)" d="M .000015259 841.5 L 594.75 841.5 L 594.75 .00018311 L .000015259 .00018311 " fill-rule="evenodd"/>
</clipPath>
<g clip-path="url(#cp123)">
<path transform="matrix(1,0,0,-1,0,841.5)" stroke-width="1.5" stroke-linecap="round" stroke-linejoin="round" fill="none" stroke="#000000" d="M 146.1 753.32 L 146.1 702.83 "/>
</g>
<clipPath id="cp124">
<path transform="matrix(1,0,0,-1,0,841.5)" d="M .000015259 841.5 L 594.75 841.5 L 594.75 .00018311 L .000015259 .00018311 " fill-rule="evenodd"/>
</clipPath>
<g clip-path="url(#cp124)">
<path transform="matrix(1,0,0,-1,0,841.5)" d="M 150.84 704.02 L 146.1 689.8 L 141.36 704.02 L 150.84 704.02 Z " fill-rule="evenodd"/>
</g>
<path transform="matrix(1,0,0,-1,0,841.5)" stroke-width="1.5" stroke-linecap="round" stroke-linejoin="round" fill="none" stroke="#000000" d="M 132.38 752.63 L 210.84 752.63 "/>
<path transform="matrix(1,0,0,-1,0,841.5)" d="M 209.66 757.36 L 223.88 752.63 L 209.66 747.89 L 209.66 757.36 Z " fill-rule="evenodd"/>
<path transform="matrix(1,0,0,-1,0,841.5)" stroke-width="1.5" stroke-linecap="round" stroke-linejoin="round" fill="none" stroke="#000000" d="M 40.666 751.58 L 103.2 751.58 "/>
<path transform="matrix(1,0,0,-1,0,841.5)" d="M 102.01 756.32 L 116.23 751.58 L 102.01 746.84 L 102.01 756.32 Z " fill-rule="evenodd"/>
<path transform="matrix(1,0,0,-1,0,841.5)" d="M 116.48 725.85 L 175.729 725.85 L 175.729 779.141 L 116.48 779.141 Z " fill="#ffffff" fill-rule="evenodd"/>
<path transform="matrix(1,0,0,-1,0,841.5)" stroke-width="2" stroke-linecap="round" stroke-linejoin="round" fill="none" stroke="#000000" d="M 116.48 725.85 L 175.729 725.85 L 175.729 779.141 L 116.48 779.141 Z "/>
<g id="Layer-1" data-name="P">
<clipPath id="cp125">
<path transform="matrix(1,0,0,-1,0,841.5)" d="M .000008862 0 L 594.75 0 L 594.75 841.5 L .000008862 841.5 Z " fill-rule="evenodd"/>
</clipPath>
<g clip-path="url(#cp125)">
<text xml:space="preserve" transform="matrix(1 0 -0 1 0 841.5)" font-size="9" font-family="ArialNarrow" font-weight="bold"><tspan y="-765.92" x="125.15 130.397 132.647 137.138 139.379 143.132 147.641 152.15001 158.87302 161.11402 163.36402 167.11702">Ute submits </tspan></text>
</g>
</g>
<g id="Layer-1" data-name="P">
<clipPath id="cp126">
<path transform="matrix(1,0,0,-1,0,841.5)" d="M .000008862 0 L 594.75 0 L 594.75 841.5 L .000008862 841.5 Z " fill-rule="evenodd"/>
</clipPath>
<g clip-path="url(#cp126)">
<text xml:space="preserve" transform="matrix(1 0 -0 1 0 841.5)" font-size="9.025" font-family="ArialNarrow" font-weight="bold"><tspan y="-755.13" x="129.88 134.40154 138.87795 141.86524 145.61965 150.14118 154.60855 158.36296 162.8574">purchase </tspan></text>
</g>
</g>
<g id="Layer-1" data-name="P">
<clipPath id="cp127">
<path transform="matrix(1,0,0,-1,0,841.5)" d="M .000008862 0 L 594.75 0 L 594.75 841.5 L .000008862 841.5 Z " fill-rule="evenodd"/>
</clipPath>
<g clip-path="url(#cp127)">
<text xml:space="preserve" transform="matrix(1 0 -0 1 0 841.5)" font-size="9" font-family="ArialNarrow" font-weight="bold"><tspan y="-744.3" x="136.85 141.35901 144.33802 148.84702 152.59102 155.57903">order </tspan></text>
</g>
</g>
<g id="Layer-1" data-name="Span">
<clipPath id="cp128">
<path transform="matrix(1,0,0,-1,0,841.5)" d="M .000008862 0 L 594.75 0 L 594.75 841.5 L .000008862 841.5 Z " fill-rule="evenodd"/>
</clipPath>
<g clip-path="url(#cp128)">
<text xml:space="preserve" transform="matrix(1 0 -0 1 0 841.5)" font-size="9" font-family="ArialNarrow" font-weight="bold"><tspan y="-733.5" x="125.35"> </tspan></text>
</g>
</g>
<g id="Layer-1" data-name="P">
<clipPath id="cp129">
<path transform="matrix(1,0,0,-1,0,841.5)" d="M .000008862 0 L 594.75 0 L 594.75 841.5 L .000008862 841.5 Z " fill-rule="evenodd"/>
</clipPath>
<g clip-path="url(#cp129)">
<text xml:space="preserve" transform="matrix(1 0 -0 1 0 841.5)" font-size="9" font-family="ArialNarrow" font-weight="bold"><tspan y="-733.5" x="127.4 130.388 134.897 138.641 140.882 143.123 147.632 151.376 153.617 155.858 160.367">{p1, p2, p2</tspan></text>
</g>
</g>
<g id="Layer-1" data-name="P">
<clipPath id="cp130">
<path transform="matrix(1,0,0,-1,0,841.5)" d="M .000008862 0 L 594.75 0 L 594.75 841.5 L .000008862 841.5 Z " fill-rule="evenodd"/>
</clipPath>
<g clip-path="url(#cp130)">
<text xml:space="preserve" transform="matrix(1 0 -0 1 0 841.5)" font-size="9" font-family="ArialNarrow" font-weight="bold"><tspan y="-733.5" x="164.38 167.38">} </tspan></text>
</g>
</g>
<path transform="matrix(1,0,0,-1,0,841.5)" d="M 279.11 752.89 C 279.11 764.96 266.74 774.74 251.49 774.74 C 236.24 774.74 223.88 764.96 223.88 752.89 C 223.88 740.82 236.24 731.04 251.49 731.04 C 266.74 731.04 279.11 740.82 279.11 752.89 Z " fill="#ffffff" fill-rule="evenodd"/>
<path transform="matrix(1,0,0,-1,0,841.5)" stroke-width="1.5" stroke-linecap="round" stroke-linejoin="round" fill="none" stroke="#000000" d="M 279.11 752.89 C 279.11 764.96 266.74 774.74 251.49 774.74 C 236.24 774.74 223.88 764.96 223.88 752.89 C 223.88 740.82 236.24 731.04 251.49 731.04 C 266.74 731.04 279.11 740.82 279.11 752.89 Z "/>
<g id="Layer-1" data-name="P">
<clipPath id="cp131">
<path transform="matrix(1,0,0,-1,0,841.5)" d="M .000008862 0 L 594.75 0 L 594.75 841.5 L .000008862 841.5 Z " fill-rule="evenodd"/>
</clipPath>
<g clip-path="url(#cp131)">
<text xml:space="preserve" transform="matrix(1 0 -0 1 0 841.5)" font-size="9" font-family="ArialNarrow" font-style="italic"><tspan y="-762.58" x="236.6 240.37102 244.88903 247.16603 250.92804 255.44605 259.21705 262.97904 266.75004">purchase </tspan></text>
</g>
</g>
<g id="Layer-1" data-name="P">
<clipPath id="cp132">
<path transform="matrix(1,0,0,-1,0,841.5)" d="M .000008862 0 L 594.75 0 L 594.75 841.5 L .000008862 841.5 Z " fill-rule="evenodd"/>
</clipPath>
<g clip-path="url(#cp132)">
<text xml:space="preserve" transform="matrix(1 0 -0 1 0 841.5)" font-size="9.025" font-family="ArialNarrow" font-style="italic"><tspan y="-751.75" x="233.95 237.7044 240.69168 244.44609 248.94054">order</tspan></text>
</g>
</g>
<g id="Layer-1" data-name="P">
<clipPath id="cp133">
<path transform="matrix(1,0,0,-1,0,841.5)" d="M .000008862 0 L 594.75 0 L 594.75 841.5 L .000008862 841.5 Z " fill-rule="evenodd"/>
</clipPath>
<g clip-path="url(#cp133)">
<text xml:space="preserve" transform="matrix(1 0 -0 1 0 841.5)" font-size="9.025" font-family="ArialNarrow" font-weight="bold"><tspan y="-751.75" x="251.2"> </tspan></text>
</g>
</g>
<g id="Layer-1" data-name="P">
<clipPath id="cp134">
<path transform="matrix(1,0,0,-1,0,841.5)" d="M .000008862 0 L 594.75 0 L 594.75 841.5 L .000008862 841.5 Z " fill-rule="evenodd"/>
</clipPath>
<g clip-path="url(#cp134)">
<text xml:space="preserve" transform="matrix(1 0 -0 1 0 841.5)" font-size="9.025" font-family="ArialNarrow" font-weight="bold"><tspan y="-751.75" x="253.25 255.49723 260.7498 263.73707 267.49147">(Ute,</tspan></text>
</g>
</g>
<g id="Layer-1" data-name="Span">
<clipPath id="cp135">
<path transform="matrix(1,0,0,-1,0,841.5)" d="M .000008862 0 L 594.75 0 L 594.75 841.5 L .000008862 841.5 Z " fill-rule="evenodd"/>
</clipPath>
<g clip-path="url(#cp135)">
<text xml:space="preserve" transform="matrix(1 0 -0 1 0 841.5)" font-size="9.025" font-family="ArialNarrow" font-weight="bold"><tspan y="-751.75" x="269.67"> </tspan></text>
</g>
</g>
<g id="Layer-1" data-name="P">
<clipPath id="cp136">
<path transform="matrix(1,0,0,-1,0,841.5)" d="M .000008862 0 L 594.75 0 L 594.75 841.5 L .000008862 841.5 Z " fill-rule="evenodd"/>
</clipPath>
<g clip-path="url(#cp136)">
<text xml:space="preserve" transform="matrix(1 0 -0 1 0 841.5)" font-size="9" font-family="ArialNarrow" font-weight="bold"><tspan y="-740.92" x="230.68 233.668 238.177 241.921 244.162 246.403 250.912 254.656 256.897 259.138 263.647">{p1, p2, p2</tspan></text>
</g>
</g>
<g id="Layer-1" data-name="P">
<clipPath id="cp137">
<path transform="matrix(1,0,0,-1,0,841.5)" d="M .000008862 0 L 594.75 0 L 594.75 841.5 L .000008862 841.5 Z " fill-rule="evenodd"/>
</clipPath>
<g clip-path="url(#cp137)">
<text xml:space="preserve" transform="matrix(1 0 -0 1 0 841.5)" font-size="9" font-family="ArialNarrow" font-weight="bold"><tspan y="-740.92" x="267.63 270.63">})</tspan></text>
</g>
</g>
<path transform="matrix(1,0,0,-1,0,841.5)" d="M 186.29 667.15 C 186.29 679.22 168.2 689.01 145.9 689.01 C 123.59 689.01 105.5 679.22 105.5 667.15 C 105.5 655.08 123.59 645.3 145.9 645.3 C 168.2 645.3 186.29 655.08 186.29 667.15 Z " fill="#ffffff" fill-rule="evenodd"/>
<path transform="matrix(1,0,0,-1,0,841.5)" stroke-width="1.5" stroke-linecap="round" stroke-linejoin="round" fill="none" stroke="#000000" d="M 186.29 667.15 C 186.29 679.22 168.2 689.01 145.9 689.01 C 123.59 689.01 105.5 679.22 105.5 667.15 C 105.5 655.08 123.59 645.3 145.9 645.3 C 168.2 645.3 186.29 655.08 186.29 667.15 Z "/>
<g id="Layer-1" data-name="P">
<clipPath id="cp138">
<path transform="matrix(1,0,0,-1,0,841.5)" d="M .000008862 0 L 594.75 0 L 594.75 841.5 L .000008862 841.5 Z " fill-rule="evenodd"/>
</clipPath>
<g clip-path="url(#cp138)">
<text xml:space="preserve" transform="matrix(1 0 -0 1 0 841.5)" font-size="9.025" font-family="ArialNarrow" font-style="italic"><tspan y="-676.75" x="124.52 128.2744 130.51259 132.75078 136.50519 139.49246 143.24687 147.74132 149.98854 152.22673 155.9721 159.72652 164.22097">p. order copy</tspan></text>
</g>
</g>
<g id="Layer-1" data-name="P">
<clipPath id="cp139">
<path transform="matrix(1,0,0,-1,0,841.5)" d="M .000008862 0 L 594.75 0 L 594.75 841.5 L .000008862 841.5 Z " fill-rule="evenodd"/>
</clipPath>
<g clip-path="url(#cp139)">
<text xml:space="preserve" transform="matrix(1 0 -0 1 0 841.5)" font-size="9" font-family="ArialNarrow" font-weight="bold"><tspan y="-665.92" x="115.7 117.95 123.197 126.185 129.938">(Ute,</tspan></text>
</g>
</g>
<g id="Layer-1" data-name="Span">
<clipPath id="cp140">
<path transform="matrix(1,0,0,-1,0,841.5)" d="M .000008862 0 L 594.75 0 L 594.75 841.5 L .000008862 841.5 Z " fill-rule="evenodd"/>
</clipPath>
<g clip-path="url(#cp140)">
<text xml:space="preserve" transform="matrix(1 0 -0 1 0 841.5)" font-size="9" font-family="ArialNarrow" font-weight="bold"><tspan y="-665.92" x="132.13"> </tspan></text>
</g>
</g>
<g id="Layer-1" data-name="P">
<clipPath id="cp141">
<path transform="matrix(1,0,0,-1,0,841.5)" d="M .000008862 0 L 594.75 0 L 594.75 841.5 L .000008862 841.5 Z " fill-rule="evenodd"/>
</clipPath>
<g clip-path="url(#cp141)">
<text xml:space="preserve" transform="matrix(1 0 -0 1 0 841.5)" font-size="9" font-family="ArialNarrow" font-weight="bold"><tspan y="-665.92" x="134.18 137.168 141.677 145.421 147.662 149.903 154.412 158.156 160.397 162.638 167.147">{p1, p2, p2</tspan></text>
</g>
</g>
<g id="Layer-1" data-name="P">
<clipPath id="cp142">
<path transform="matrix(1,0,0,-1,0,841.5)" d="M .000008862 0 L 594.75 0 L 594.75 841.5 L .000008862 841.5 Z " fill-rule="evenodd"/>
</clipPath>
<g clip-path="url(#cp142)">
<text xml:space="preserve" transform="matrix(1 0 -0 1 0 841.5)" font-size="9" font-family="ArialNarrow" font-weight="bold"><tspan y="-665.92" x="171.13 174.13">})</tspan></text>
</g>
</g>
<path transform="matrix(1,0,0,-1,0,841.5)" d="M 83.966 752.09 C 83.966 764.16 71.602 773.95 56.351 773.95 C 41.099 773.95 28.736 764.16 28.736 752.09 C 28.736 740.02 41.099 730.24 56.351 730.24 C 71.602 730.24 83.966 740.02 83.966 752.09 Z " fill="#ffffff" fill-rule="evenodd"/>
<path transform="matrix(1,0,0,-1,0,841.5)" stroke-width="1.5" stroke-linecap="round" stroke-linejoin="round" fill="none" stroke="#000000" d="M 83.966 752.09 C 83.966 764.16 71.602 773.95 56.351 773.95 C 41.099 773.95 28.736 764.16 28.736 752.09 C 28.736 740.02 41.099 730.24 56.351 730.24 C 71.602 730.24 83.966 740.02 83.966 752.09 Z "/>
<g id="Layer-1" data-name="P">
<clipPath id="cp143">
<path transform="matrix(1,0,0,-1,0,841.5)" d="M .000008862 0 L 594.75 0 L 594.75 841.5 L .000008862 841.5 Z " fill-rule="evenodd"/>
</clipPath>
<g clip-path="url(#cp143)">
<text xml:space="preserve" transform="matrix(1 0 -0 1 0 841.5)" font-size="9" font-family="ArialNarrow" font-style="italic"><tspan y="-760.13" x="42.875 46.628 49.615999 53.368997 57.859998 60.109998 61.613 66.104 69.856998">ordering </tspan></text>
</g>
</g>
<g id="Layer-1" data-name="P">
<clipPath id="cp144">
<path transform="matrix(1,0,0,-1,0,841.5)" d="M .000008862 0 L 594.75 0 L 594.75 841.5 L .000008862 841.5 Z " fill-rule="evenodd"/>
</clipPath>
<g clip-path="url(#cp144)">
<text xml:space="preserve" transform="matrix(1 0 -0 1 0 841.5)" font-size="9" font-family="ArialNarrow" font-style="italic"><tspan y="-749.3" x="41.225 44.968999 48.721998 52.465997 54.706998 59.197999 65.201007 68.95401 71.20401">customer </tspan></text>
</g>
</g>
<g id="Layer-1" data-name="P">
<clipPath id="cp145">
<path transform="matrix(1,0,0,-1,0,841.5)" d="M .000008862 0 L 594.75 0 L 594.75 841.5 L .000008862 841.5 Z " fill-rule="evenodd"/>
</clipPath>
<g clip-path="url(#cp145)">
<text xml:space="preserve" transform="matrix(1 0 -0 1 0 841.5)" font-size="9" font-family="ArialNarrow" font-weight="bold"><tspan y="-738.5" x="50.475 55.721998 57.971998">Ute</tspan></text>
</g>
</g>
<clipPath id="cp146">
<path transform="matrix(1,0,0,-1,0,841.5)" d="M .000015259 841.5 L 594.75 841.5 L 594.75 .00018311 L .000015259 .00018311 " fill-rule="evenodd"/>
</clipPath>
<g clip-path="url(#cp146)">
<path transform="matrix(1,0,0,-1,0,841.5)" stroke-width="1.5" stroke-linecap="round" stroke-linejoin="round" fill="none" stroke="#000000" d="M 146.78 561.35 L 146.78 511.56 "/>
</g>
<clipPath id="cp147">
<path transform="matrix(1,0,0,-1,0,841.5)" d="M .000015259 841.5 L 594.75 841.5 L 594.75 .00018311 L .000015259 .00018311 " fill-rule="evenodd"/>
</clipPath>
<g clip-path="url(#cp147)">
<path transform="matrix(1,0,0,-1,0,841.5)" d="M 151.52 512.75 L 146.78 498.53 L 142.04 512.75 L 151.52 512.75 Z " fill-rule="evenodd"/>
</g>
<path transform="matrix(1,0,0,-1,0,841.5)" stroke-width="1.5" stroke-linecap="round" stroke-linejoin="round" fill="none" stroke="#000000" d="M 133.05 561.35 L 211.52 561.35 "/>
<path transform="matrix(1,0,0,-1,0,841.5)" d="M 210.33 566.09 L 224.55 561.35 L 210.33 556.61 L 210.33 566.09 Z " fill-rule="evenodd"/>
<path transform="matrix(1,0,0,-1,0,841.5)" stroke-width="1.5" stroke-linecap="round" stroke-linejoin="round" fill="none" stroke="#000000" d="M 41.339 560.31 L 103.87 560.31 "/>
<path transform="matrix(1,0,0,-1,0,841.5)" d="M 102.68 565.05 L 116.9 560.31 L 102.68 555.57 L 102.68 565.05 Z " fill-rule="evenodd"/>
<path transform="matrix(1,0,0,-1,0,841.5)" d="M 117.15 538.82 L 176.399 538.82 L 176.399 582.527 L 117.15 582.527 Z " fill="#ffffff" fill-rule="evenodd"/>
<path transform="matrix(1,0,0,-1,0,841.5)" stroke-width="2" stroke-linecap="round" stroke-linejoin="round" fill="none" stroke="#000000" d="M 117.15 538.82 L 176.399 538.82 L 176.399 582.527 L 117.15 582.527 Z "/>
<g id="Layer-1" data-name="P">
<clipPath id="cp148">
<path transform="matrix(1,0,0,-1,0,841.5)" d="M .000008862 0 L 594.75 0 L 594.75 841.5 L .000008862 841.5 Z " fill-rule="evenodd"/>
</clipPath>
<g clip-path="url(#cp148)">
<text xml:space="preserve" transform="matrix(1 0 -0 1 0 841.5)" font-size="9" font-family="ArialNarrow" font-weight="bold"><tspan y="-568.53" x="125.82 131.067 133.317 137.808 140.049 143.802 148.311 152.82 159.54302 161.78401 164.03401 167.78702">Ute submits </tspan></text>
</g>
</g>
<g id="Layer-1" data-name="P">
<clipPath id="cp149">
<path transform="matrix(1,0,0,-1,0,841.5)" d="M .000008862 0 L 594.75 0 L 594.75 841.5 L .000008862 841.5 Z " fill-rule="evenodd"/>
</clipPath>
<g clip-path="url(#cp149)">
<text xml:space="preserve" transform="matrix(1 0 -0 1 0 841.5)" font-size="9" font-family="ArialNarrow" font-weight="bold"><tspan y="-557.72" x="137.52 142.029 145.00801 149.51702 153.26102">order</tspan></text>
</g>
</g>
<g id="Layer-1" data-name="P">
<clipPath id="cp150">
<path transform="matrix(1,0,0,-1,0,841.5)" d="M .000008862 0 L 594.75 0 L 594.75 841.5 L .000008862 841.5 Z " fill-rule="evenodd"/>
</clipPath>
<g clip-path="url(#cp150)">
<text xml:space="preserve" transform="matrix(1 0 -0 1 0 841.5)" font-size="9" font-family="ArialNarrow" font-weight="bold" font-style="italic"><tspan y="-557.72" x="156.4"> </tspan></text>
</g>
</g>
<g id="Layer-1" data-name="Span">
<clipPath id="cp151">
<path transform="matrix(1,0,0,-1,0,841.5)" d="M .000008862 0 L 594.75 0 L 594.75 841.5 L .000008862 841.5 Z " fill-rule="evenodd"/>
</clipPath>
<g clip-path="url(#cp151)">
<text xml:space="preserve" transform="matrix(1 0 -0 1 0 841.5)" font-size="9" font-family="ArialNarrow" font-weight="bold"><tspan y="-546.9" x="138.75"> </tspan></text>
</g>
</g>
<g id="Layer-1" data-name="P">
<clipPath id="cp152">
<path transform="matrix(1,0,0,-1,0,841.5)" d="M .000008862 0 L 594.75 0 L 594.75 841.5 L .000008862 841.5 Z " fill-rule="evenodd"/>
</clipPath>
<g clip-path="url(#cp152)">
<text xml:space="preserve" transform="matrix(1 0 -0 1 0 841.5)" font-size="9" font-family="ArialNarrow" font-weight="bold"><tspan y="-546.9" x="140.8 143.78801 148.29701">{p2</tspan></text>
</g>
</g>
<g id="Layer-1" data-name="P">
<clipPath id="cp153">
<path transform="matrix(1,0,0,-1,0,841.5)" d="M .000008862 0 L 594.75 0 L 594.75 841.5 L .000008862 841.5 Z " fill-rule="evenodd"/>
</clipPath>
<g clip-path="url(#cp153)">
<text xml:space="preserve" transform="matrix(1 0 -0 1 0 841.5)" font-size="9" font-family="ArialNarrow" font-weight="bold"><tspan y="-546.9" x="152.3 155.3">} </tspan></text>
</g>
</g>
<path transform="matrix(1,0,0,-1,0,841.5)" d="M 279.78 561.62 C 279.78 573.69 267.42 583.47 252.16 583.47 C 236.91 583.47 224.55 573.69 224.55 561.62 C 224.55 549.55 236.91 539.76 252.16 539.76 C 267.42 539.76 279.78 549.55 279.78 561.62 Z " fill="#ffffff" fill-rule="evenodd"/>
<path transform="matrix(1,0,0,-1,0,841.5)" stroke-width="1.5" stroke-linecap="round" stroke-linejoin="round" fill="none" stroke="#000000" d="M 279.78 561.62 C 279.78 573.69 267.42 583.47 252.16 583.47 C 236.91 583.47 224.55 573.69 224.55 561.62 C 224.55 549.55 236.91 539.76 252.16 539.76 C 267.42 539.76 279.78 549.55 279.78 561.62 Z "/>
<g id="Layer-1" data-name="P">
<clipPath id="cp154">
<path transform="matrix(1,0,0,-1,0,841.5)" d="M .000008862 0 L 594.75 0 L 594.75 841.5 L .000008862 841.5 Z " fill-rule="evenodd"/>
</clipPath>
<g clip-path="url(#cp154)">
<text xml:space="preserve" transform="matrix(1 0 -0 1 0 841.5)" font-size="9" font-family="ArialNarrow" font-style="italic"><tspan y="-571.13" x="236.47 240.214 243.96701 248.45801 254.46102 255.964 258.205 260.44599 264.19898 268.68998">submitted </tspan></text>
</g>
</g>
<g id="Layer-1" data-name="P">
<clipPath id="cp155">
<path transform="matrix(1,0,0,-1,0,841.5)" d="M .000008862 0 L 594.75 0 L 594.75 841.5 L .000008862 841.5 Z " fill-rule="evenodd"/>
</clipPath>
<g clip-path="url(#cp155)">
<text xml:space="preserve" transform="matrix(1 0 -0 1 0 841.5)" font-size="9" font-family="ArialNarrow" font-style="italic"><tspan y="-560.3" x="234.63 238.38301 241.37102 245.12403 249.61502 251.86502">order </tspan></text>
</g>
</g>
<g id="Layer-1" data-name="P">
<clipPath id="cp156">
<path transform="matrix(1,0,0,-1,0,841.5)" d="M .000008862 0 L 594.75 0 L 594.75 841.5 L .000008862 841.5 Z " fill-rule="evenodd"/>
</clipPath>
<g clip-path="url(#cp156)">
<text xml:space="preserve" transform="matrix(1 0 -0 1 0 841.5)" font-size="9" font-family="ArialNarrow" font-weight="bold"><tspan y="-560.3" x="253.92 256.16999 261.417 264.405 268.158">(Ute,</tspan></text>
</g>
</g>
<g id="Layer-1" data-name="Span">
<clipPath id="cp157">
<path transform="matrix(1,0,0,-1,0,841.5)" d="M .000008862 0 L 594.75 0 L 594.75 841.5 L .000008862 841.5 Z " fill-rule="evenodd"/>
</clipPath>
<g clip-path="url(#cp157)">
<text xml:space="preserve" transform="matrix(1 0 -0 1 0 841.5)" font-size="9" font-family="ArialNarrow" font-weight="bold"><tspan y="-560.3" x="270.35"> </tspan></text>
</g>
</g>
<g id="Layer-1" data-name="P">
<clipPath id="cp158">
<path transform="matrix(1,0,0,-1,0,841.5)" d="M .000008862 0 L 594.75 0 L 594.75 841.5 L .000008862 841.5 Z " fill-rule="evenodd"/>
</clipPath>
<g clip-path="url(#cp158)">
<text xml:space="preserve" transform="matrix(1 0 -0 1 0 841.5)" font-size="9.025" font-family="ArialNarrow" font-weight="bold"><tspan y="-549.5" x="244.08 247.06729 251.58882">{p2</tspan></text>
</g>
</g>
<g id="Layer-1" data-name="P">
<clipPath id="cp159">
<path transform="matrix(1,0,0,-1,0,841.5)" d="M .000008862 0 L 594.75 0 L 594.75 841.5 L .000008862 841.5 Z " fill-rule="evenodd"/>
</clipPath>
<g clip-path="url(#cp159)">
<text xml:space="preserve" transform="matrix(1 0 -0 1 0 841.5)" font-size="9.025" font-family="ArialNarrow" font-weight="bold"><tspan y="-549.5" x="255.58 258.58">})</tspan></text>
</g>
</g>
<path transform="matrix(1,0,0,-1,0,841.5)" d="M 186.96 481.15 C 186.96 490.31 168.88 497.73 146.57 497.73 C 124.26 497.73 106.17 490.31 106.17 481.15 C 106.17 471.99 124.26 464.57 146.57 464.57 C 168.88 464.57 186.96 471.99 186.96 481.15 Z " fill="#ffffff" fill-rule="evenodd"/>
<path transform="matrix(1,0,0,-1,0,841.5)" stroke-width="1.5" stroke-linecap="round" stroke-linejoin="round" fill="none" stroke="#000000" d="M 186.96 481.15 C 186.96 490.31 168.88 497.73 146.57 497.73 C 124.26 497.73 106.17 490.31 106.17 481.15 C 106.17 471.99 124.26 464.57 146.57 464.57 C 168.88 464.57 186.96 471.99 186.96 481.15 Z "/>
<g id="Layer-1" data-name="P">
<clipPath id="cp160">
<path transform="matrix(1,0,0,-1,0,841.5)" d="M .000008862 0 L 594.75 0 L 594.75 841.5 L .000008862 841.5 Z " fill-rule="evenodd"/>
</clipPath>
<g clip-path="url(#cp160)">
<text xml:space="preserve" transform="matrix(1 0 -0 1 0 841.5)" font-size="9" font-family="ArialNarrow" font-style="italic"><tspan y="-485.3" x="127.45 131.194 134.947 139.438 143.182 145.423 149.17601 151.42601 155.917 159.67002 161.92002">copy orders</tspan></text>
</g>
</g>
<g id="Layer-1" data-name="P">
<clipPath id="cp161">
<path transform="matrix(1,0,0,-1,0,841.5)" d="M .000008862 0 L 594.75 0 L 594.75 841.5 L .000008862 841.5 Z " fill-rule="evenodd"/>
</clipPath>
<g clip-path="url(#cp161)">
<text xml:space="preserve" transform="matrix(1 0 -0 1 0 841.5)" font-size="9" font-family="ArialNarrow" font-weight="bold"><tspan y="-474.48" x="129.1 131.35 136.59702 139.58502 143.33803">(Ute,</tspan></text>
</g>
</g>
<g id="Layer-1" data-name="Span">
<clipPath id="cp162">
<path transform="matrix(1,0,0,-1,0,841.5)" d="M .000008862 0 L 594.75 0 L 594.75 841.5 L .000008862 841.5 Z " fill-rule="evenodd"/>
</clipPath>
<g clip-path="url(#cp162)">
<text xml:space="preserve" transform="matrix(1 0 -0 1 0 841.5)" font-size="9" font-family="ArialNarrow" font-weight="bold"><tspan y="-474.48" x="145.53"> </tspan></text>
</g>
</g>
<g id="Layer-1" data-name="P">
<clipPath id="cp163">
<path transform="matrix(1,0,0,-1,0,841.5)" d="M .000008862 0 L 594.75 0 L 594.75 841.5 L .000008862 841.5 Z " fill-rule="evenodd"/>
</clipPath>
<g clip-path="url(#cp163)">
<text xml:space="preserve" transform="matrix(1 0 -0 1 0 841.5)" font-size="9" font-family="ArialNarrow" font-weight="bold"><tspan y="-474.48" x="147.58 150.56801 155.07701">{p2</tspan></text>
</g>
</g>
<g id="Layer-1" data-name="P">
<clipPath id="cp164">
<path transform="matrix(1,0,0,-1,0,841.5)" d="M .000008862 0 L 594.75 0 L 594.75 841.5 L .000008862 841.5 Z " fill-rule="evenodd"/>
</clipPath>
<g clip-path="url(#cp164)">
<text xml:space="preserve" transform="matrix(1 0 -0 1 0 841.5)" font-size="9" font-family="ArialNarrow" font-weight="bold"><tspan y="-474.48" x="159.08 162.08">})</tspan></text>
</g>
</g>
<g id="Layer-1" data-name="P">
<clipPath id="cp165">
<path transform="matrix(1,0,0,-1,0,841.5)" d="M .000008862 0 L 594.75 0 L 594.75 841.5 L .000008862 841.5 Z " fill-rule="evenodd"/>
</clipPath>
<g clip-path="url(#cp165)">
<text xml:space="preserve" transform="matrix(1 0 -0 1 0 841.5)" font-size="12" font-family="ArialNarrow" font-style="italic"><tspan y="-525.03" x="114.93">u</tspan></text>
</g>
</g>
<path transform="matrix(1,0,0,-1,0,841.5)" d="M 84.638 560.82 C 84.638 572.89 72.275 582.67 57.024 582.67 C 41.772 582.67 29.409 572.89 29.409 560.82 C 29.409 548.75 41.772 538.97 57.024 538.97 C 72.275 538.97 84.638 548.75 84.638 560.82 Z " fill="#ffffff" fill-rule="evenodd"/>
<path transform="matrix(1,0,0,-1,0,841.5)" stroke-width="1.5" stroke-linecap="round" stroke-linejoin="round" fill="none" stroke="#000000" d="M 84.638 560.82 C 84.638 572.89 72.275 582.67 57.024 582.67 C 41.772 582.67 29.409 572.89 29.409 560.82 C 29.409 548.75 41.772 538.97 57.024 538.97 C 72.275 538.97 84.638 548.75 84.638 560.82 Z "/>
<g id="Layer-1" data-name="P">
<clipPath id="cp166">
<path transform="matrix(1,0,0,-1,0,841.5)" d="M .000008862 0 L 594.75 0 L 594.75 841.5 L .000008862 841.5 Z " fill-rule="evenodd"/>
</clipPath>
<g clip-path="url(#cp166)">
<text xml:space="preserve" transform="matrix(1 0 -0 1 0 841.5)" font-size="9" font-family="ArialNarrow" font-style="italic"><tspan y="-568.67" x="43.55 47.302999 50.290998 54.043996 58.534997 60.784997 62.288 66.779 70.532">ordering </tspan></text>
</g>
</g>
<g id="Layer-1" data-name="P">
<clipPath id="cp167">
<path transform="matrix(1,0,0,-1,0,841.5)" d="M .000008862 0 L 594.75 0 L 594.75 841.5 L .000008862 841.5 Z " fill-rule="evenodd"/>
</clipPath>
<g clip-path="url(#cp167)">
<text xml:space="preserve" transform="matrix(1 0 -0 1 0 841.5)" font-size="9" font-family="ArialNarrow" font-style="italic"><tspan y="-557.88" x="40.05 43.794 47.546998 51.290998 53.531995 58.022996 64.026 67.77901 70.02901 73.77301">customers </tspan></text>
</g>
</g>
<g id="Layer-1" data-name="P">
<clipPath id="cp168">
<path transform="matrix(1,0,0,-1,0,841.5)" d="M .000008862 0 L 594.75 0 L 594.75 841.5 L .000008862 841.5 Z " fill-rule="evenodd"/>
</clipPath>
<g clip-path="url(#cp168)">
<text xml:space="preserve" transform="matrix(1 0 -0 1 0 841.5)" font-size="9" font-family="ArialNarrow" font-weight="bold"><tspan y="-547.05" x="51.15 56.397 58.647">Ute</tspan></text>
</g>
</g>
<clipPath id="cp169">
<path transform="matrix(1,0,0,-1,0,841.5)" d="M .000015259 841.5 L 594.75 841.5 L 594.75 .00012207 L .000015259 .00012207 " fill-rule="evenodd"/>
</clipPath>
<g clip-path="url(#cp169)">
<path transform="matrix(1,0,0,-1,0,841.5)" stroke-width="1.5" stroke-linecap="round" stroke-linejoin="round" fill="none" stroke="#000000" d="M 146.78 377.1 L 146.78 327.31 "/>
</g>
<clipPath id="cp170">
<path transform="matrix(1,0,0,-1,0,841.5)" d="M .000015259 841.5 L 594.75 841.5 L 594.75 .00012207 L .000015259 .00012207 " fill-rule="evenodd"/>
</clipPath>
<g clip-path="url(#cp170)">
<path transform="matrix(1,0,0,-1,0,841.5)" d="M 151.52 328.49 L 146.78 314.27 L 142.04 328.49 L 151.52 328.49 Z " fill-rule="evenodd"/>
</g>
<path transform="matrix(1,0,0,-1,0,841.5)" stroke-width="1.5" stroke-linecap="round" stroke-linejoin="round" fill="none" stroke="#000000" d="M 133.05 377.1 L 211.52 377.1 "/>
<path transform="matrix(1,0,0,-1,0,841.5)" d="M 210.33 381.84 L 224.55 377.1 L 210.33 372.36 L 210.33 381.84 Z " fill-rule="evenodd"/>
<path transform="matrix(1,0,0,-1,0,841.5)" stroke-width="1.5" stroke-linecap="round" stroke-linejoin="round" fill="none" stroke="#000000" d="M 41.339 376.06 L 103.87 376.06 "/>
<path transform="matrix(1,0,0,-1,0,841.5)" d="M 102.68 380.8 L 116.9 376.06 L 102.68 371.32 L 102.68 380.8 Z " fill-rule="evenodd"/>
<path transform="matrix(1,0,0,-1,0,841.5)" d="M 117.15 354.56 L 176.399 354.56 L 176.399 398.267 L 117.15 398.267 Z " fill="#ffffff" fill-rule="evenodd"/>
<path transform="matrix(1,0,0,-1,0,841.5)" stroke-width="2" stroke-linecap="round" stroke-linejoin="round" fill="none" stroke="#000000" d="M 117.15 354.56 L 176.399 354.56 L 176.399 398.267 L 117.15 398.267 Z "/>
<g id="Layer-1" data-name="P">
<clipPath id="cp171">
<path transform="matrix(1,0,0,-1,0,841.5)" d="M .000008862 0 L 594.75 0 L 594.75 841.5 L .000008862 841.5 Z " fill-rule="evenodd"/>
</clipPath>
<g clip-path="url(#cp171)">
<text xml:space="preserve" transform="matrix(1 0 -0 1 0 841.5)" font-size="9.025" font-family="ArialNarrow" font-weight="bold"><tspan y="-384.13" x="124.57 130.5987 135.11119 138.88364 141.12183 144.89427 149.4158 153.93733 160.70609 162.94428 165.1915 169.704">Max submits </tspan></text>
</g>
</g>
<g id="Layer-1" data-name="P">
<clipPath id="cp172">
<path transform="matrix(1,0,0,-1,0,841.5)" d="M .000008862 0 L 594.75 0 L 594.75 841.5 L .000008862 841.5 Z " fill-rule="evenodd"/>
</clipPath>
<g clip-path="url(#cp172)">
<text xml:space="preserve" transform="matrix(1 0 -0 1 0 841.5)" font-size="9" font-family="ArialNarrow" font-weight="bold"><tspan y="-373.3" x="137.52 142.029 145.00801 149.51702 153.26102 156.24903">order </tspan></text>
</g>
</g>
<g id="Layer-1" data-name="Span">
<clipPath id="cp173">
<path transform="matrix(1,0,0,-1,0,841.5)" d="M .000008862 0 L 594.75 0 L 594.75 841.5 L .000008862 841.5 Z " fill-rule="evenodd"/>
</clipPath>
<g clip-path="url(#cp173)">
<text xml:space="preserve" transform="matrix(1 0 -0 1 0 841.5)" font-size="9" font-family="ArialNarrow" font-weight="bold"><tspan y="-362.5" x="138.75"> </tspan></text>
</g>
</g>
<g id="Layer-1" data-name="P">
<clipPath id="cp174">
<path transform="matrix(1,0,0,-1,0,841.5)" d="M .000008862 0 L 594.75 0 L 594.75 841.5 L .000008862 841.5 Z " fill-rule="evenodd"/>
</clipPath>
<g clip-path="url(#cp174)">
<text xml:space="preserve" transform="matrix(1 0 -0 1 0 841.5)" font-size="9" font-family="ArialNarrow" font-weight="bold"><tspan y="-362.5" x="140.8 143.78801 148.29701">{p1</tspan></text>
</g>
</g>
<g id="Layer-1" data-name="P">
<clipPath id="cp175">
<path transform="matrix(1,0,0,-1,0,841.5)" d="M .000008862 0 L 594.75 0 L 594.75 841.5 L .000008862 841.5 Z " fill-rule="evenodd"/>
</clipPath>
<g clip-path="url(#cp175)">
<text xml:space="preserve" transform="matrix(1 0 -0 1 0 841.5)" font-size="9" font-family="ArialNarrow" font-weight="bold"><tspan y="-362.5" x="152.3 155.3">} </tspan></text>
</g>
</g>
<path transform="matrix(1,0,0,-1,0,841.5)" d="M 279.78 377.37 C 279.78 389.43 267.42 399.22 252.16 399.22 C 236.91 399.22 224.55 389.43 224.55 377.37 C 224.55 365.3 236.91 355.51 252.16 355.51 C 267.42 355.51 279.78 365.3 279.78 377.37 Z " fill="#ffffff" fill-rule="evenodd"/>
<path transform="matrix(1,0,0,-1,0,841.5)" stroke-width="1.5" stroke-linecap="round" stroke-linejoin="round" fill="none" stroke="#000000" d="M 279.78 377.37 C 279.78 389.43 267.42 399.22 252.16 399.22 C 236.91 399.22 224.55 389.43 224.55 377.37 C 224.55 365.3 236.91 355.51 252.16 355.51 C 267.42 355.51 279.78 365.3 279.78 377.37 Z "/>
<g id="Layer-1" data-name="P">
<clipPath id="cp176">
<path transform="matrix(1,0,0,-1,0,841.5)" d="M .000008862 0 L 594.75 0 L 594.75 841.5 L .000008862 841.5 Z " fill-rule="evenodd"/>
</clipPath>
<g clip-path="url(#cp176)">
<text xml:space="preserve" transform="matrix(1 0 -0 1 0 841.5)" font-size="9.025" font-family="ArialNarrow" font-style="italic"><tspan y="-386.73" x="236.47 240.21538 243.96979 248.46424 254.46587 255.96404 258.20225 260.44047 264.19486 268.6893">submitted </tspan></text>
</g>
</g>
<g id="Layer-1" data-name="P">
<clipPath id="cp177">
<path transform="matrix(1,0,0,-1,0,841.5)" d="M .000008862 0 L 594.75 0 L 594.75 841.5 L .000008862 841.5 Z " fill-rule="evenodd"/>
</clipPath>
<g clip-path="url(#cp177)">
<text xml:space="preserve" transform="matrix(1 0 -0 1 0 841.5)" font-size="9.025" font-family="ArialNarrow" font-style="italic"><tspan y="-375.9" x="233.4 237.1544 240.14168 243.89609 248.39054">order</tspan></text>
</g>
</g>
<g id="Layer-1" data-name="P">
<clipPath id="cp178">
<path transform="matrix(1,0,0,-1,0,841.5)" d="M .000008862 0 L 594.75 0 L 594.75 841.5 L .000008862 841.5 Z " fill-rule="evenodd"/>
</clipPath>
<g clip-path="url(#cp178)">
<text xml:space="preserve" transform="matrix(1 0 -0 1 0 841.5)" font-size="9.025" font-family="ArialNarrow" font-weight="bold"><tspan y="-375.9" x="250.65"> </tspan></text>
</g>
</g>
<g id="Layer-1" data-name="P">
<clipPath id="cp179">
<path transform="matrix(1,0,0,-1,0,841.5)" d="M .000008862 0 L 594.75 0 L 594.75 841.5 L .000008862 841.5 Z " fill-rule="evenodd"/>
</clipPath>
<g clip-path="url(#cp179)">
<text xml:space="preserve" transform="matrix(1 0 -0 1 0 841.5)" font-size="9.025" font-family="ArialNarrow" font-weight="bold"><tspan y="-375.9" x="252.7 254.94722 260.94886 265.4433 269.1977">(Max,</tspan></text>
</g>
</g>
<g id="Layer-1" data-name="Span">
<clipPath id="cp180">
<path transform="matrix(1,0,0,-1,0,841.5)" d="M .000008862 0 L 594.75 0 L 594.75 841.5 L .000008862 841.5 Z " fill-rule="evenodd"/>
</clipPath>
<g clip-path="url(#cp180)">
<text xml:space="preserve" transform="matrix(1 0 -0 1 0 841.5)" font-size="9.025" font-family="ArialNarrow" font-weight="bold"><tspan y="-375.9" x="271.57"> </tspan></text>
</g>
</g>
<g id="Layer-1" data-name="P">
<clipPath id="cp181">
<path transform="matrix(1,0,0,-1,0,841.5)" d="M .000008862 0 L 594.75 0 L 594.75 841.5 L .000008862 841.5 Z " fill-rule="evenodd"/>
</clipPath>
<g clip-path="url(#cp181)">
<text xml:space="preserve" transform="matrix(1 0 -0 1 0 841.5)" font-size="9" font-family="ArialNarrow" font-weight="bold"><tspan y="-365.08" x="244.08 247.06801 251.57701">{p1</tspan></text>
</g>
</g>
<g id="Layer-1" data-name="P">
<clipPath id="cp182">
<path transform="matrix(1,0,0,-1,0,841.5)" d="M .000008862 0 L 594.75 0 L 594.75 841.5 L .000008862 841.5 Z " fill-rule="evenodd"/>
</clipPath>
<g clip-path="url(#cp182)">
<text xml:space="preserve" transform="matrix(1 0 -0 1 0 841.5)" font-size="9" font-family="ArialNarrow" font-weight="bold"><tspan y="-365.08" x="255.58 258.58003">})</tspan></text>
</g>
</g>
<path transform="matrix(1,0,0,-1,0,841.5)" d="M 186.96 296.9 C 186.96 306.06 168.88 313.48 146.57 313.48 C 124.26 313.48 106.17 306.06 106.17 296.9 C 106.17 287.74 124.26 280.32 146.57 280.32 C 168.88 280.32 186.96 287.74 186.96 296.9 Z " fill="#ffffff" fill-rule="evenodd"/>
<path transform="matrix(1,0,0,-1,0,841.5)" stroke-width="1.5" stroke-linecap="round" stroke-linejoin="round" fill="none" stroke="#000000" d="M 186.96 296.9 C 186.96 306.06 168.88 313.48 146.57 313.48 C 124.26 313.48 106.17 306.06 106.17 296.9 C 106.17 287.74 124.26 280.32 146.57 280.32 C 168.88 280.32 186.96 287.74 186.96 296.9 Z "/>
<g id="Layer-1" data-name="P">
<clipPath id="cp183">
<path transform="matrix(1,0,0,-1,0,841.5)" d="M .000008862 0 L 594.75 0 L 594.75 841.5 L .000008862 841.5 Z " fill-rule="evenodd"/>
</clipPath>
<g clip-path="url(#cp183)">
<text xml:space="preserve" transform="matrix(1 0 -0 1 0 841.5)" font-size="9" font-family="ArialNarrow" font-style="italic"><tspan y="-300.88" x="127.45 131.194 134.947 139.438 143.182 145.423 149.17601 151.42601 155.917 159.67002 161.92002">copy orders</tspan></text>
</g>
</g>
<g id="Layer-1" data-name="P">
<clipPath id="cp184">
<path transform="matrix(1,0,0,-1,0,841.5)" d="M .000008862 0 L 594.75 0 L 594.75 841.5 L .000008862 841.5 Z " fill-rule="evenodd"/>
</clipPath>
<g clip-path="url(#cp184)">
<text xml:space="preserve" transform="matrix(1 0 -0 1 0 841.5)" font-size="9" font-family="ArialNarrow" font-weight="bold"><tspan y="-300.88" x="166.05"> </tspan></text>
</g>
</g>
<g id="Layer-1" data-name="P">
<clipPath id="cp185">
<path transform="matrix(1,0,0,-1,0,841.5)" d="M .000008862 0 L 594.75 0 L 594.75 841.5 L .000008862 841.5 Z " fill-rule="evenodd"/>
</clipPath>
<g clip-path="url(#cp185)">
<text xml:space="preserve" transform="matrix(1 0 -0 1 0 841.5)" font-size="9" font-family="ArialNarrow" font-weight="bold"><tspan y="-290.08" x="127.87 130.12 136.123 140.614 144.367 146.608">(Max, </tspan></text>
</g>
</g>
<g id="Layer-1" data-name="P">
<clipPath id="cp186">
<path transform="matrix(1,0,0,-1,0,841.5)" d="M .000008862 0 L 594.75 0 L 594.75 841.5 L .000008862 841.5 Z " fill-rule="evenodd"/>
</clipPath>
<g clip-path="url(#cp186)">
<text xml:space="preserve" transform="matrix(1 0 -0 1 0 841.5)" font-size="9" font-family="ArialNarrow" font-weight="bold"><tspan y="-290.08" x="148.8 151.815 156.324">{p1</tspan></text>
</g>
</g>
<g id="Layer-1" data-name="P">
<clipPath id="cp187">
<path transform="matrix(1,0,0,-1,0,841.5)" d="M .000008862 0 L 594.75 0 L 594.75 841.5 L .000008862 841.5 Z " fill-rule="evenodd"/>
</clipPath>
<g clip-path="url(#cp187)">
<text xml:space="preserve" transform="matrix(1 0 -0 1 0 841.5)" font-size="9" font-family="ArialNarrow" font-weight="bold"><tspan y="-290.08" x="160.3 163.325">})</tspan></text>
</g>
</g>
<g id="Layer-1" data-name="P">
<clipPath id="cp188">
<path transform="matrix(1,0,0,-1,0,841.5)" d="M .000008862 0 L 594.75 0 L 594.75 841.5 L .000008862 841.5 Z " fill-rule="evenodd"/>
</clipPath>
<g clip-path="url(#cp188)">
<text xml:space="preserve" transform="matrix(1 0 -0 1 0 841.5)" font-size="12" font-family="ArialNarrow" font-style="italic"><tspan y="-340.6" x="115.23">v</tspan></text>
</g>
</g>
<path transform="matrix(1,0,0,-1,0,841.5)" d="M 84.638 376.57 C 84.638 388.64 72.275 398.42 57.024 398.42 C 41.772 398.42 29.409 388.64 29.409 376.57 C 29.409 364.5 41.772 354.71 57.024 354.71 C 72.275 354.71 84.638 364.5 84.638 376.57 Z " fill="#ffffff" fill-rule="evenodd"/>
<path transform="matrix(1,0,0,-1,0,841.5)" stroke-width="1.5" stroke-linecap="round" stroke-linejoin="round" fill="none" stroke="#000000" d="M 84.638 376.57 C 84.638 388.64 72.275 398.42 57.024 398.42 C 41.772 398.42 29.409 388.64 29.409 376.57 C 29.409 364.5 41.772 354.71 57.024 354.71 C 72.275 354.71 84.638 364.5 84.638 376.57 Z "/>
<g id="Layer-1" data-name="P">
<clipPath id="cp189">
<path transform="matrix(1,0,0,-1,0,841.5)" d="M .000008862 0 L 594.75 0 L 594.75 841.5 L .000008862 841.5 Z " fill-rule="evenodd"/>
</clipPath>
<g clip-path="url(#cp189)">
<text xml:space="preserve" transform="matrix(1 0 -0 1 0 841.5)" font-size="9.025" font-family="ArialNarrow" font-style="italic"><tspan y="-384.28" x="43.55 47.304399 50.29167 54.046075 58.540529 60.787755 62.285905 66.78036 70.53476">ordering </tspan></text>
</g>
</g>
<g id="Layer-1" data-name="P">
<clipPath id="cp190">
<path transform="matrix(1,0,0,-1,0,841.5)" d="M .000008862 0 L 594.75 0 L 594.75 841.5 L .000008862 841.5 Z " fill-rule="evenodd"/>
</clipPath>
<g clip-path="url(#cp190)">
<text xml:space="preserve" transform="matrix(1 0 -0 1 0 841.5)" font-size="9" font-family="ArialNarrow" font-style="italic"><tspan y="-373.45" x="40.05 43.794 47.546998 51.290998 53.531995 58.022996 64.026 67.77901 70.02901 73.77301">customers </tspan></text>
</g>
</g>
<g id="Layer-1" data-name="P">
<clipPath id="cp191">
<path transform="matrix(1,0,0,-1,0,841.5)" d="M .000008862 0 L 594.75 0 L 594.75 841.5 L .000008862 841.5 Z " fill-rule="evenodd"/>
</clipPath>
<g clip-path="url(#cp191)">
<text xml:space="preserve" transform="matrix(1 0 -0 1 0 841.5)" font-size="9" font-family="ArialNarrow" font-weight="bold"><tspan y="-362.65" x="49.9 55.921 60.439004">Max</tspan></text>
</g>
</g>
<clipPath id="cp192">
<path transform="matrix(1,0,0,-1,0,841.5)" d="M .000030518 841.5 L 594.75 841.5 L 594.75 .00018311 L .000030518 .00018311 " fill-rule="evenodd"/>
</clipPath>
<g clip-path="url(#cp192)">
<path transform="matrix(1,0,0,-1,0,841.5)" stroke-width="1.5" stroke-linecap="round" stroke-linejoin="round" fill="none" stroke="#000000" d="M 303.09 779.14 L 303.09 270.48 "/>
</g>
</g>
</g>
</svg>
