<?xml version="1.0" encoding="UTF-8" standalone="no"?>
<!DOCTYPE svg PUBLIC "-//W3C//DTD SVG 1.1//EN" "http://www.w3.org/Graphics/SVG/1.1/DTD/svg11.dtd">
<svg xmlns="http://www.w3.org/2000/svg" xmlns:xlink="http://www.w3.org/1999/xlink" version="1.1" width="594.75pt" height="841.5pt" viewBox="0 0 594.75 841.5">
<g enable-background="new">
<g>
<g id="Layer-1" data-name="P">
<clipPath id="cp23">
<path transform="matrix(1,0,0,-1,0,841.5)" d="M .000008862 0 L 594.75 0 L 594.75 841.5 L .000008862 841.5 Z " fill-rule="evenodd"/>
</clipPath>
<g clip-path="url(#cp23)">
<text xml:space="preserve" transform="matrix(1 0 -0 1 0 841.5)" font-size="9.025" font-family="ArialNarrow" font-weight="bold"><tspan y="-582.38" x="119.2 121.44722 126.71782 129.7051 133.4595">(Ute,</tspan></text>
</g>
</g>
<g id="Layer-1" data-name="Span">
<clipPath id="cp24">
<path transform="matrix(1,0,0,-1,0,841.5)" d="M .000008862 0 L 594.75 0 L 594.75 841.5 L .000008862 841.5 Z " fill-rule="evenodd"/>
</clipPath>
<g clip-path="url(#cp24)">
<text xml:space="preserve" transform="matrix(1 0 -0 1 0 841.5)" font-size="9.025" font-family="ArialNarrow" font-weight="bold"><tspan y="-582.38" x="135.63"> </tspan></text>
</g>
</g>
<g id="Layer-1" data-name="P">
<clipPath id="cp25">
<path transform="matrix(1,0,0,-1,0,841.5)" d="M .000008862 0 L 594.75 0 L 594.75 841.5 L .000008862 841.5 Z " fill-rule="evenodd"/>
</clipPath>
<g clip-path="url(#cp25)">
<text xml:space="preserve" transform="matrix(1 0 -0 1 0 841.5)" font-size="9.025" font-family="ArialNarrow" font-weight="bold"><tspan y="-582.38" x="137.68 140.66727 145.1888 148.91613 151.15431 153.3925 157.91403 161.64136 163.87955 166.11774 170.63927">{p1, p2, p2</tspan></text>
</g>
</g>
<g id="Layer-1" data-name="P">
<clipPath id="cp26">
<path transform="matrix(1,0,0,-1,0,841.5)" d="M .000008862 0 L 594.75 0 L 594.75 841.5 L .000008862 841.5 Z " fill-rule="evenodd"/>
</clipPath>
<g clip-path="url(#cp26)">
<text xml:space="preserve" transform="matrix(1 0 -0 1 0 841.5)" font-size="9.025" font-family="ArialNarrow" font-weight="bold"><tspan y="-582.38" x="174.65 177.64997">})</tspan></text>
</g>
</g>
<g id="Layer-1" data-name="P">
<clipPath id="cp27">
<path transform="matrix(1,0,0,-1,0,841.5)" d="M .000008862 0 L 594.75 0 L 594.75 841.5 L .000008862 841.5 Z " fill-rule="evenodd"/>
</clipPath>
<g clip-path="url(#cp27)">
<text xml:space="preserve" transform="matrix(1 0 -0 1 0 841.5)" font-size="9" font-family="ArialNarrow" font-weight="bold"><tspan y="-579.85" x="55.625 60.899 63.176">Ute</tspan></text>
</g>
</g>
<clipPath id="cp28">
<path transform="matrix(1,0,0,-1,0,841.5)" d="M .000007629 841.5 L 594.75 841.5 L 594.75 .00030518 L .000015259 .00024414 " fill-rule="evenodd"/>
</clipPath>
<g clip-path="url(#cp28)">
<path transform="matrix(1,0,0,-1,0,841.5)" stroke-width="1.5" stroke-linecap="round" stroke-linejoin="round" fill="none" stroke="#000000" d="M 99.917 579.09 L 100.12 544.35 "/>
</g>
<clipPath id="cp29">
<path transform="matrix(1,0,0,-1,0,841.5)" d="M .000007629 841.5 L 594.75 841.5 L 594.75 .00030518 L .000015259 .00024414 " fill-rule="evenodd"/>
</clipPath>
<g clip-path="url(#cp29)">
<path transform="matrix(1,0,0,-1,0,841.5)" d="M 104.85 545.57 L 100.19 531.32 L 95.369 545.51 L 104.85 545.57 Z " fill-rule="evenodd"/>
</g>
<path transform="matrix(1,0,0,-1,0,841.5)" stroke-width="1.5" stroke-linecap="round" stroke-linejoin="round" fill="none" stroke="#000000" d="M 86.461 578.28 L 182.84 578.28 "/>
<path transform="matrix(1,0,0,-1,0,841.5)" d="M 181.66 583.02 L 195.88 578.28 L 181.66 573.54 L 181.66 583.02 Z " fill-rule="evenodd"/>
<clipPath id="cp30">
<path transform="matrix(1,0,0,-1,0,841.5)" d="M -.000003815 841.5 L 594.75 841.5 L 594.75 .00024414 L -.000007629 .00018311 " fill-rule="evenodd"/>
</clipPath>
<g clip-path="url(#cp30)">
<path transform="matrix(1,0,0,-1,0,841.5)" stroke-width="1.5" stroke-linecap="round" stroke-linejoin="round" fill="none" stroke="#000000" d="M 37.578 576.61 L 71.718 577.07 "/>
</g>
<clipPath id="cp31">
<path transform="matrix(1,0,0,-1,0,841.5)" d="M -.000003815 841.5 L 594.75 841.5 L 594.75 .00024414 L -.000007629 .00018311 " fill-rule="evenodd"/>
</clipPath>
<g clip-path="url(#cp31)">
<path transform="matrix(1,0,0,-1,0,841.5)" d="M 70.47 581.79 L 84.751 577.24 L 70.596 572.31 L 70.47 581.79 Z " fill-rule="evenodd"/>
</g>
<path transform="matrix(1,0,0,-1,0,841.5)" d="M 84.751 567.55 L 115.082 567.55 L 115.082 589.925 L 84.751 589.925 Z " fill="#ffffff" fill-rule="evenodd"/>
<path transform="matrix(1,0,0,-1,0,841.5)" stroke-width="2" stroke-linecap="round" stroke-linejoin="round" fill="none" stroke="#000000" d="M 84.751 567.55 L 115.082 567.55 L 115.082 589.925 L 84.751 589.925 Z "/>
<g id="Layer-1" data-name="P">
<clipPath id="cp32">
<path transform="matrix(1,0,0,-1,0,841.5)" d="M .000008862 0 L 594.75 0 L 594.75 841.5 L .000008862 841.5 Z " fill-rule="evenodd"/>
</clipPath>
<g clip-path="url(#cp32)">
<text xml:space="preserve" transform="matrix(1 0 -0 1 0 841.5)" font-size="9" font-family="ArialNarrow" font-weight="bold" font-style="italic"><tspan y="-575.8" x="100.05"> </tspan></text>
</g>
</g>
<path transform="matrix(1,0,0,-1,0,841.5)" d="M 140.37 519.34 C 140.37 525.52 122.29 530.53 99.981 530.53 C 77.672 530.53 59.587 525.52 59.587 519.34 C 59.587 513.16 77.672 508.15 99.981 508.15 C 122.29 508.15 140.37 513.16 140.37 519.34 Z " fill="#ffffff" fill-rule="evenodd"/>
<path transform="matrix(1,0,0,-1,0,841.5)" stroke-width="1.5" stroke-linecap="round" stroke-linejoin="round" fill="none" stroke="#000000" d="M 140.37 519.34 C 140.37 525.52 122.29 530.53 99.981 530.53 C 77.672 530.53 59.587 525.52 59.587 519.34 C 59.587 513.16 77.672 508.15 99.981 508.15 C 122.29 508.15 140.37 513.16 140.37 519.34 Z "/>
<g id="Layer-1" data-name="P">
<clipPath id="cp33">
<path transform="matrix(1,0,0,-1,0,841.5)" d="M .000008862 0 L 594.75 0 L 594.75 841.5 L .000008862 841.5 Z " fill-rule="evenodd"/>
</clipPath>
<g clip-path="url(#cp33)">
<text xml:space="preserve" transform="matrix(1 0 -0 1 0 841.5)" font-size="9" font-family="ArialNarrow" font-weight="bold"><tspan y="-516.35" x="100.1"> </tspan></text>
</g>
</g>
<path transform="matrix(1,0,0,-1,0,841.5)" d="M 50.473 576.74 C 50.473 582.38 44.7 586.95 37.578 586.95 C 30.457 586.95 24.683 582.38 24.683 576.74 C 24.683 571.11 30.457 566.54 37.578 566.54 C 44.7 566.54 50.473 571.11 50.473 576.74 Z " fill="#ffffff" fill-rule="evenodd"/>
<path transform="matrix(1,0,0,-1,0,841.5)" stroke-width="1.5" stroke-linecap="round" stroke-linejoin="round" fill="none" stroke="#000000" d="M 50.473 576.74 C 50.473 582.38 44.7 586.95 37.578 586.95 C 30.457 586.95 24.683 582.38 24.683 576.74 C 24.683 571.11 30.457 566.54 37.578 566.54 C 44.7 566.54 50.473 571.11 50.473 576.74 Z "/>
<g id="Layer-1" data-name="P">
<clipPath id="cp34">
<path transform="matrix(1,0,0,-1,0,841.5)" d="M .000008862 0 L 594.75 0 L 594.75 841.5 L .000008862 841.5 Z " fill-rule="evenodd"/>
</clipPath>
<g clip-path="url(#cp34)">
<text xml:space="preserve" transform="matrix(1 0 -0 1 0 841.5)" font-size="9" font-family="ArialNarrow" font-weight="bold"><tspan y="-573.8" x="31.675 36.921998 39.171998">Ute</tspan></text>
</g>
</g>
<g id="Layer-1" data-name="P">
<clipPath id="cp35">
<path transform="matrix(1,0,0,-1,0,841.5)" d="M .000008862 0 L 594.75 0 L 594.75 841.5 L .000008862 841.5 Z " fill-rule="evenodd"/>
</clipPath>
<g clip-path="url(#cp35)">
<text xml:space="preserve" transform="matrix(1 0 -0 1 0 841.5)" font-size="9" font-family="ArialNarrow" font-weight="bold"><tspan y="-602.58" x="23.075 27.584002 30.563002 35.072004 38.816 41.804 44.045003 48.554">ordering</tspan></text>
</g>
</g>
<g id="Layer-1" data-name="P">
<clipPath id="cp36">
<path transform="matrix(1,0,0,-1,0,841.5)" d="M .000008862 0 L 594.75 0 L 594.75 841.5 L .000008862 841.5 Z " fill-rule="evenodd"/>
</clipPath>
<g clip-path="url(#cp36)">
<text xml:space="preserve" transform="matrix(1 0 -0 1 0 841.5)" font-size="9" font-family="ArialNarrow" font-weight="bold"><tspan y="-592.45" x="23.075 26.828001 31.337002 35.819 38.069 42.578 49.31 53.063 56.051 60.542">customers </tspan></text>
</g>
</g>
<g id="Layer-1" data-name="P">
<clipPath id="cp37">
<path transform="matrix(1,0,0,-1,0,841.5)" d="M .000008862 0 L 594.75 0 L 594.75 841.5 L .000008862 841.5 Z " fill-rule="evenodd"/>
</clipPath>
<g clip-path="url(#cp37)">
<text xml:space="preserve" transform="matrix(1 0 -0 1 0 841.5)" font-size="9" font-family="ArialNarrow" font-weight="bold"><tspan y="-597.88" x="193.25 197.759 202.268 205.238 208.99102 213.50002 217.98203 221.73503 226.22603 227.72904 232.96704 235.21704 239.72605 244.20806 247.19606">purchase orders</tspan></text>
</g>
</g>
<g id="Layer-1" data-name="P">
<clipPath id="cp38">
<path transform="matrix(1,0,0,-1,0,841.5)" d="M .000008862 0 L 594.75 0 L 594.75 841.5 L .000008862 841.5 Z " fill-rule="evenodd"/>
</clipPath>
<g clip-path="url(#cp38)">
<text xml:space="preserve" transform="matrix(1 0 -0 1 0 841.5)" font-size="9" font-family="ArialNarrow" font-weight="bold"><tspan y="-520.3" x="150.48 154.989 159.498 162.468 166.22101 170.73001 175.21202 178.96503 183.45603">purchase </tspan></text>
</g>
</g>
<g id="Layer-1" data-name="P">
<clipPath id="cp39">
<path transform="matrix(1,0,0,-1,0,841.5)" d="M .000008862 0 L 594.75 0 L 594.75 841.5 L .000008862 841.5 Z " fill-rule="evenodd"/>
</clipPath>
<g clip-path="url(#cp39)">
<text xml:space="preserve" transform="matrix(1 0 -0 1 0 841.5)" font-size="9" font-family="ArialNarrow" font-weight="bold"><tspan y="-510.17" x="138.98 143.489 146.468 150.977 154.72101 157.70902 159.95001 163.70302 168.21202 172.72103 174.94403 179.43503">order copies</tspan></text>
</g>
</g>
<path transform="matrix(1,0,0,-1,0,841.5)" d="M 255.12 578.4 C 255.12 586.97 241.85 593.92 225.49 593.92 C 209.13 593.92 195.87 586.97 195.87 578.4 C 195.87 569.82 209.13 562.87 225.49 562.87 C 241.85 562.87 255.12 569.82 255.12 578.4 Z " fill="#ffffff" fill-rule="evenodd"/>
<path transform="matrix(1,0,0,-1,0,841.5)" stroke-width="1.5" stroke-linecap="round" stroke-linejoin="round" fill="none" stroke="#000000" d="M 255.12 578.4 C 255.12 586.97 241.85 593.92 225.49 593.92 C 209.13 593.92 195.87 586.97 195.87 578.4 C 195.87 569.82 209.13 562.87 225.49 562.87 C 241.85 562.87 255.12 569.82 255.12 578.4 Z "/>
<g id="Layer-1" data-name="P">
<clipPath id="cp40">
<path transform="matrix(1,0,0,-1,0,841.5)" d="M .000008862 0 L 594.75 0 L 594.75 841.5 L .000008862 841.5 Z " fill-rule="evenodd"/>
</clipPath>
<g clip-path="url(#cp40)">
<text xml:space="preserve" transform="matrix(1 0 -0 1 0 841.5)" font-size="9" font-family="ArialNarrow" font-weight="bold"><tspan y="-575.45" x="225.77"> </tspan></text>
</g>
</g>
<g id="Layer-1" data-name="P">
<clipPath id="cp41">
<path transform="matrix(1,0,0,-1,0,841.5)" d="M .000008862 0 L 594.75 0 L 594.75 841.5 L .000008862 841.5 Z " fill-rule="evenodd"/>
</clipPath>
<g clip-path="url(#cp41)">
<text xml:space="preserve" transform="matrix(1 0 -0 1 0 841.5)" font-size="9" font-family="ArialNarrow" font-weight="bold"><tspan y="-552.47" x="105.9 108.15 113.397 116.385 120.138">(Ute,</tspan></text>
</g>
</g>
<g id="Layer-1" data-name="Span">
<clipPath id="cp42">
<path transform="matrix(1,0,0,-1,0,841.5)" d="M .000008862 0 L 594.75 0 L 594.75 841.5 L .000008862 841.5 Z " fill-rule="evenodd"/>
</clipPath>
<g clip-path="url(#cp42)">
<text xml:space="preserve" transform="matrix(1 0 -0 1 0 841.5)" font-size="9" font-family="ArialNarrow" font-weight="bold"><tspan y="-552.47" x="122.3"> </tspan></text>
</g>
</g>
<g id="Layer-1" data-name="P">
<clipPath id="cp43">
<path transform="matrix(1,0,0,-1,0,841.5)" d="M .000008862 0 L 594.75 0 L 594.75 841.5 L .000008862 841.5 Z " fill-rule="evenodd"/>
</clipPath>
<g clip-path="url(#cp43)">
<text xml:space="preserve" transform="matrix(1 0 -0 1 0 841.5)" font-size="9" font-family="ArialNarrow" font-weight="bold"><tspan y="-552.47" x="124.37 127.358 131.867 135.61101 137.852 140.093 144.602 148.34601 150.587 152.828 157.337">{p1, p2, p2</tspan></text>
</g>
</g>
<g id="Layer-1" data-name="P">
<clipPath id="cp44">
<path transform="matrix(1,0,0,-1,0,841.5)" d="M .000008862 0 L 594.75 0 L 594.75 841.5 L .000008862 841.5 Z " fill-rule="evenodd"/>
</clipPath>
<g clip-path="url(#cp44)">
<text xml:space="preserve" transform="matrix(1 0 -0 1 0 841.5)" font-size="9" font-family="ArialNarrow" font-weight="bold"><tspan y="-552.47" x="161.33 164.33">})</tspan></text>
</g>
</g>
<g id="Layer-1" data-name="P">
<clipPath id="cp45">
<path transform="matrix(1,0,0,-1,0,841.5)" d="M .000008862 0 L 594.75 0 L 594.75 841.5 L .000008862 841.5 Z " fill-rule="evenodd"/>
</clipPath>
<g clip-path="url(#cp45)">
<text xml:space="preserve" transform="matrix(1 0 -0 1 0 841.5)" font-size="9" font-family="ArialNarrow" font-weight="bold"><tspan y="-604.85" x="91.4 95.153 99.662 104.171009 110.894008 113.13501 115.38501">submit </tspan></text>
</g>
</g>
<g id="Layer-1" data-name="P">
<clipPath id="cp46">
<path transform="matrix(1,0,0,-1,0,841.5)" d="M .000008862 0 L 594.75 0 L 594.75 841.5 L .000008862 841.5 Z " fill-rule="evenodd"/>
</clipPath>
<g clip-path="url(#cp46)">
<text xml:space="preserve" transform="matrix(1 0 -0 1 0 841.5)" font-size="9" font-family="ArialNarrow" font-weight="bold"><tspan y="-594.72" x="76.6 81.109 85.618007 88.588008 92.341 96.850009 101.33201 105.08501 109.57601 111.07901 116.31701 118.56701 123.07601 127.55801">purchase order</tspan></text>
</g>
</g>
</g>
</g>
</svg>
