<?xml version="1.0" encoding="UTF-8" standalone="no"?>
<!DOCTYPE svg PUBLIC "-//W3C//DTD SVG 1.1//EN" "http://www.w3.org/Graphics/SVG/1.1/DTD/svg11.dtd">
<svg xmlns="http://www.w3.org/2000/svg" xmlns:xlink="http://www.w3.org/1999/xlink" version="1.1" width="594.75pt" height="841.5pt" viewBox="0 0 594.75 841.5">
<g enable-background="new">
<g>
<path transform="matrix(1,0,0,-1,0,841.5)" stroke-width="1.5" stroke-linecap="round" stroke-linejoin="round" fill="none" stroke="#000000" d="M 257.96 540.36 L 199.63 540.36 "/>
<path transform="matrix(1,0,0,-1,0,841.5)" d="M 200.81 535.62 L 186.59 540.36 L 200.81 545.1 L 200.81 535.62 Z " fill-rule="evenodd"/>
<clipPath id="cp214">
<path transform="matrix(1,0,0,-1,0,841.5)" d="M .000015259 841.5 L 594.75 841.5 L 594.75 .00018311 L .000015259 .00018311 " fill-rule="evenodd"/>
</clipPath>
<g clip-path="url(#cp214)">
<path transform="matrix(1,0,0,-1,0,841.5)" stroke-width="1.5" stroke-linecap="round" stroke-linejoin="round" fill="none" stroke="#000000" d="M 172.42 583.97 L 172.42 562.87 "/>
</g>
<clipPath id="cp215">
<path transform="matrix(1,0,0,-1,0,841.5)" d="M .000015259 841.5 L 594.75 841.5 L 594.75 .00018311 L .000015259 .00018311 " fill-rule="evenodd"/>
</clipPath>
<g clip-path="url(#cp215)">
<path transform="matrix(1,0,0,-1,0,841.5)" d="M 177.16 564.06 L 172.42 549.84 L 167.68 564.06 L 177.16 564.06 Z " fill-rule="evenodd"/>
</g>
<path transform="matrix(1,0,0,-1,0,841.5)" d="M 212.25 597.51 C 212.25 604.98 194.88 611.04 173.45 611.04 C 152.02 611.04 134.65 604.98 134.65 597.51 C 134.65 590.03 152.02 583.97 173.45 583.97 C 194.88 583.97 212.25 590.03 212.25 597.51 Z " fill="#ffffff" fill-rule="evenodd"/>
<path transform="matrix(1,0,0,-1,0,841.5)" stroke-width="1.5" stroke-linecap="round" stroke-linejoin="round" fill="none" stroke="#000000" d="M 212.25 597.51 C 212.25 604.98 194.88 611.04 173.45 611.04 C 152.02 611.04 134.65 604.98 134.65 597.51 C 134.65 590.03 152.02 583.97 173.45 583.97 C 194.88 583.97 212.25 590.03 212.25 597.51 Z "/>
<g id="Layer-1" data-name="P">
<clipPath id="cp216">
<path transform="matrix(1,0,0,-1,0,841.5)" d="M .000008862 0 L 594.75 0 L 594.75 841.5 L .000008862 841.5 Z " fill-rule="evenodd"/>
</clipPath>
<g clip-path="url(#cp216)">
<text xml:space="preserve" transform="matrix(1 0 -0 1 0 841.5)" font-size="9.75" font-family="ArialNarrow" font-weight="bold"><tspan y="-600.3" x="164.55 167.54325 173.52974 175.78199 180.27674 182.49974">(Ute, </tspan></text>
</g>
</g>
<g id="Layer-1" data-name="P">
<clipPath id="cp217">
<path transform="matrix(1,0,0,-1,0,841.5)" d="M .000008862 0 L 594.75 0 L 594.75 841.5 L .000008862 841.5 Z " fill-rule="evenodd"/>
</clipPath>
<g clip-path="url(#cp217)">
<text xml:space="preserve" transform="matrix(1 0 -0 1 0 841.5)" font-size="9.75" font-family="ArialNarrow" font-weight="bold"><tspan y="-588.28" x="150.18 153.18299 158.41873 162.91349 165.13649 167.40825 172.644 177.13875 179.36176 181.63352 186.86927 191.36402 194.367">{p1, p2, p2})</tspan></text>
</g>
</g>
<g id="Layer-1" data-name="P">
<clipPath id="cp218">
<path transform="matrix(1,0,0,-1,0,841.5)" d="M .000008862 0 L 594.75 0 L 594.75 841.5 L .000008862 841.5 Z " fill-rule="evenodd"/>
</clipPath>
<g clip-path="url(#cp218)">
<text xml:space="preserve" transform="matrix(1 0 -0 1 0 841.5)" font-size="11.25" font-family="ArialNarrow" font-weight="bold"><tspan y="-547.33" x="123.8 127.535 132.035 137.27751 142.52002 144.77002 150.01253 154.51253">receive </tspan></text>
</g>
</g>
<g id="Layer-1" data-name="P">
<clipPath id="cp219">
<path transform="matrix(1,0,0,-1,0,841.5)" d="M .000008862 0 L 594.75 0 L 594.75 841.5 L .000008862 841.5 Z " fill-rule="evenodd"/>
</clipPath>
<g clip-path="url(#cp219)">
<text xml:space="preserve" transform="matrix(1 0 -0 1 0 841.5)" font-size="11.275" font-family="ArialNarrow" font-weight="bold"><tspan y="-534.13" x="111.25 119.51457 124.03585 129.30127 134.5667 139.08797 145.09754 149.6188">messages</tspan></text>
</g>
</g>
<g id="Layer-1" data-name="P">
<clipPath id="cp220">
<path transform="matrix(1,0,0,-1,0,841.5)" d="M .000008862 0 L 594.75 0 L 594.75 841.5 L .000008862 841.5 Z " fill-rule="evenodd"/>
</clipPath>
<g clip-path="url(#cp220)">
<text xml:space="preserve" transform="matrix(1 0 -0 1 0 841.5)" font-size="11.25" font-family="ArialNarrow" font-weight="bold"><tspan y="-595.9" x="216.75 222.00374 227.98874 230.99248 236.23499 241.48873 246.73123 251.97374 256.47373 259.46623 264.71998 268.45497 273.7087 278.9512 282.6862">purchase order </tspan></text>
</g>
</g>
<g id="Layer-1" data-name="P">
<clipPath id="cp221">
<path transform="matrix(1,0,0,-1,0,841.5)" d="M .000008862 0 L 594.75 0 L 594.75 841.5 L .000008862 841.5 Z " fill-rule="evenodd"/>
</clipPath>
<g clip-path="url(#cp221)">
<text xml:space="preserve" transform="matrix(1 0 -0 1 0 841.5)" font-size="11.25" font-family="ArialNarrow" font-weight="bold"><tspan y="-582.7" x="216.75 221.99251 227.24625 232.49999 235.4925 239.9925">copies</tspan></text>
</g>
</g>
<clipPath id="cp222">
<path transform="matrix(1,0,0,-1,0,841.5)" d="M 0 841.5 L 594.75 841.5 L 594.75 .00018311 L 0 .00012207 " fill-rule="evenodd"/>
</clipPath>
<g clip-path="url(#cp222)">
<path transform="matrix(1,0,0,-1,0,841.5)" stroke-width="1.5" stroke-linecap="round" stroke-linejoin="round" fill="none" stroke="#000000" d="M 172.8 536.38 L 173.41 507.1 "/>
</g>
<clipPath id="cp223">
<path transform="matrix(1,0,0,-1,0,841.5)" d="M 0 841.5 L 594.75 841.5 L 594.75 .00018311 L 0 .00012207 " fill-rule="evenodd"/>
</clipPath>
<g clip-path="url(#cp223)">
<path transform="matrix(1,0,0,-1,0,841.5)" d="M 178.12 508.38 L 173.68 494.07 L 168.64 508.19 L 178.12 508.38 Z " fill-rule="evenodd"/>
</g>
<path transform="matrix(1,0,0,-1,0,841.5)" d="M 159.02 535.17 L 186.59201 535.17 L 186.59201 549.83999 L 159.02 549.83999 Z " fill="#ffffff" fill-rule="evenodd"/>
<path transform="matrix(1,0,0,-1,0,841.5)" stroke-width="2" stroke-linecap="round" stroke-linejoin="round" fill="none" stroke="#000000" d="M 159.02 535.17 L 186.59201 535.17 L 186.59201 549.83999 L 159.02 549.83999 Z "/>
<g id="Layer-1" data-name="P">
<clipPath id="cp224">
<path transform="matrix(1,0,0,-1,0,841.5)" d="M .000008862 0 L 594.75 0 L 594.75 841.5 L .000008862 841.5 Z " fill-rule="evenodd"/>
</clipPath>
<g clip-path="url(#cp224)">
<text xml:space="preserve" transform="matrix(1 0 -0 1 0 841.5)" font-size="11.275" font-family="ArialNarrow" font-weight="bold"><tspan y="-538.95" x="173.03"> </tspan></text>
</g>
</g>
<g id="Layer-1" data-name="P">
<clipPath id="cp225">
<path transform="matrix(1,0,0,-1,0,841.5)" d="M .000008862 0 L 594.75 0 L 594.75 841.5 L .000008862 841.5 Z " fill-rule="evenodd"/>
</clipPath>
<g clip-path="url(#cp225)">
<text xml:space="preserve" transform="matrix(1 0 -0 1 0 841.5)" font-size="11.25" font-family="ArialNarrow" font-weight="bold"><tspan y="-514.88" x="147.05 150.05374 155.29625 157.54625 159.79625 165.7925">(k, X)</tspan></text>
</g>
</g>
<path transform="matrix(1,0,0,-1,0,841.5)" d="M 186.73 486.75 C 186.73 490.8 180.44 494.09 172.69 494.09 C 164.94 494.09 158.65 490.8 158.65 486.75 C 158.65 482.7 164.94 479.42 172.69 479.42 C 180.44 479.42 186.73 482.7 186.73 486.75 Z " fill="#ffffff" fill-rule="evenodd"/>
<path transform="matrix(1,0,0,-1,0,841.5)" stroke-width="1.5" stroke-linecap="round" stroke-linejoin="round" fill="none" stroke="#000000" d="M 186.73 486.75 C 186.73 490.8 180.44 494.09 172.69 494.09 C 164.94 494.09 158.65 490.8 158.65 486.75 C 158.65 482.7 164.94 479.42 172.69 479.42 C 180.44 479.42 186.73 482.7 186.73 486.75 Z "/>
<g id="Layer-1" data-name="P">
<clipPath id="cp226">
<path transform="matrix(1,0,0,-1,0,841.5)" d="M .000008862 0 L 594.75 0 L 594.75 841.5 L .000008862 841.5 Z " fill-rule="evenodd"/>
</clipPath>
<g clip-path="url(#cp226)">
<text xml:space="preserve" transform="matrix(1 0 -0 1 0 841.5)" font-size="11.25" font-family="ArialNarrow"><tspan y="-483.13" x="172.9"> </tspan></text>
</g>
</g>
<g id="Layer-1" data-name="P">
<clipPath id="cp227">
<path transform="matrix(1,0,0,-1,0,841.5)" d="M .000008862 0 L 594.75 0 L 594.75 841.5 L .000008862 841.5 Z " fill-rule="evenodd"/>
</clipPath>
<g clip-path="url(#cp227)">
<text xml:space="preserve" transform="matrix(1 0 -0 1 0 841.5)" font-size="11.275" font-family="ArialNarrow" font-weight="bold"><tspan y="-569.22" x="145.6 148.59917 153.84204 156.09703 158.35202 164.37287">(k, X)</tspan></text>
</g>
</g>
<g id="Layer-1" data-name="P">
<clipPath id="cp228">
<path transform="matrix(1,0,0,-1,0,841.5)" d="M .000008862 0 L 594.75 0 L 594.75 841.5 L .000008862 841.5 Z " fill-rule="evenodd"/>
</clipPath>
<g clip-path="url(#cp228)">
<text xml:space="preserve" transform="matrix(1 0 -0 1 0 841.5)" font-size="11.25" font-family="ArialNarrow" font-weight="bold"><tspan y="-512.2" x="272.35 280.61878 285.11878 290.36128 295.60377 300.10377 306.12254 310.62254">messages</tspan></text>
</g>
</g>
<g id="Layer-1" data-name="P">
<clipPath id="cp229">
<path transform="matrix(1,0,0,-1,0,841.5)" d="M .000008862 0 L 594.75 0 L 594.75 841.5 L .000008862 841.5 Z " fill-rule="evenodd"/>
</clipPath>
<g clip-path="url(#cp229)">
<text xml:space="preserve" transform="matrix(1 0 -0 1 0 841.5)" font-size="11.275" font-family="ArialNarrow" font-weight="bold"><tspan y="-527.43" x="210.83 213.82917 219.07204 221.32703 223.58202 229.5803 232.56818 234.82317 240.07732">(k, X, d)</tspan></text>
</g>
</g>
<g id="Layer-1" data-name="P">
<clipPath id="cp230">
<path transform="matrix(1,0,0,-1,0,841.5)" d="M .000008862 0 L 594.75 0 L 594.75 841.5 L .000008862 841.5 Z " fill-rule="evenodd"/>
</clipPath>
<g clip-path="url(#cp230)">
<text xml:space="preserve" transform="matrix(1 0 -0 1 0 841.5)" font-size="11.25" font-family="ArialNarrow" font-weight="bold"><tspan y="-490.58" x="114.9 120.1425 124.6425 130.6275 135.1275 140.37001 143.37375 148.61626 153.87">expected </tspan></text>
</g>
</g>
<g id="Layer-1" data-name="P">
<clipPath id="cp231">
<path transform="matrix(1,0,0,-1,0,841.5)" d="M .000008862 0 L 594.75 0 L 594.75 841.5 L .000008862 841.5 Z " fill-rule="evenodd"/>
</clipPath>
<g clip-path="url(#cp231)">
<text xml:space="preserve" transform="matrix(1 0 -0 1 0 841.5)" font-size="11.25" font-family="ArialNarrow" font-weight="bold"><tspan y="-477.38" x="119.9 125.176258 130.44126 132.71376 135.72876 140.25127 145.51627 149.285">delivery</tspan></text>
</g>
</g>
<path transform="matrix(1,0,0,-1,0,841.5)" d="M 336.44 540.53 C 336.44 548 319.07 554.06 297.64 554.06 C 276.21 554.06 258.84 548 258.84 540.53 C 258.84 533.05 276.21 526.99 297.64 526.99 C 319.07 526.99 336.44 533.05 336.44 540.53 Z " fill="#ffffff" fill-rule="evenodd"/>
<path transform="matrix(1,0,0,-1,0,841.5)" stroke-width="1.5" stroke-linecap="round" stroke-linejoin="round" fill="none" stroke="#000000" d="M 336.44 540.53 C 336.44 548 319.07 554.06 297.64 554.06 C 276.21 554.06 258.84 548 258.84 540.53 C 258.84 533.05 276.21 526.99 297.64 526.99 C 319.07 526.99 336.44 533.05 336.44 540.53 Z "/>
<g id="Layer-1" data-name="P">
<clipPath id="cp232">
<path transform="matrix(1,0,0,-1,0,841.5)" d="M .000008862 0 L 594.75 0 L 594.75 841.5 L .000008862 841.5 Z " fill-rule="evenodd"/>
</clipPath>
<g clip-path="url(#cp232)">
<text xml:space="preserve" transform="matrix(1 0 -0 1 0 841.5)" font-size="9.75" font-family="ArialNarrow" font-weight="bold"><tspan y="-540.8" x="264.48 267.47328 273.489 275.74128 280.23603 282.459 284.73075 288.47477 292.97926 297.474 299.697 301.96873 307.20448 311.69923 313.9222 316.19395 321.4297 325.92445 328.92747 331.15046">(Ute, {p1, p2, p2}, </tspan></text>
</g>
</g>
<g id="Layer-1" data-name="P">
<clipPath id="cp233">
<path transform="matrix(1,0,0,-1,0,841.5)" d="M .000008862 0 L 594.75 0 L 594.75 841.5 L .000008862 841.5 Z " fill-rule="evenodd"/>
</clipPath>
<g clip-path="url(#cp233)">
<text xml:space="preserve" transform="matrix(1 0 -0 1 0 841.5)" font-size="9.775" font-family="ArialNarrow" font-weight="bold"><tspan y="-528.8" x="286.38 290.86674 295.35346 297.58216 302.0982 306.58494">12/24)</tspan></text>
</g>
</g>
</g>
</g>
</svg>
