<?xml version="1.0" encoding="UTF-8" standalone="no"?>
<!DOCTYPE svg PUBLIC "-//W3C//DTD SVG 1.1//EN" "http://www.w3.org/Graphics/SVG/1.1/DTD/svg11.dtd">
<svg xmlns="http://www.w3.org/2000/svg" xmlns:xlink="http://www.w3.org/1999/xlink" version="1.1" width="594.75pt" height="841.5pt" viewBox="0 0 594.75 841.5">
<g enable-background="new">
<g>
<clipPath id="cp285">
<path transform="matrix(1,0,0,-1,0,841.5)" d="M -.000030518 841.5 L 594.75 841.5 L 594.75 .000061035 L -.000030518 .000061035 " fill-rule="evenodd"/>
</clipPath>
<g clip-path="url(#cp285)">
<path transform="matrix(1,0,0,-1,0,841.5)" d="M 472.62 759.13 C 457.15 759.13 444.61 756.87 444.61 754.09 C 444.61 751.3 457.15 749.04 472.62 749.04 C 488.08 749.04 500.62 751.3 500.62 754.09 C 500.62 756.87 488.08 759.13 472.62 759.13 Z " fill="#ffffff" fill-rule="evenodd"/>
</g>
<clipPath id="cp286">
<path transform="matrix(1,0,0,-1,0,841.5)" d="M -.000030518 841.5 L 594.75 841.5 L 594.75 .000061035 L -.000030518 .000061035 " fill-rule="evenodd"/>
</clipPath>
<g clip-path="url(#cp286)">
<path transform="matrix(1,0,0,-1,0,841.5)" stroke-width="1.5" stroke-linecap="round" stroke-linejoin="round" fill="none" stroke="#000000" d="M 472.62 759.13 C 457.15 759.13 444.61 756.87 444.61 754.09 C 444.61 751.3 457.15 749.04 472.62 749.04 C 488.08 749.04 500.62 751.3 500.62 754.09 C 500.62 756.87 488.08 759.13 472.62 759.13 Z "/>
</g>
<clipPath id="cp287">
<path transform="matrix(1,0,0,-1,0,841.5)" d="M -.000061035 841.5 L 594.75 841.5 L 594.75 .00018311 L -.000030518 .00018311 " fill-rule="evenodd"/>
</clipPath>
<g clip-path="url(#cp287)">
<path transform="matrix(1,0,0,-1,0,841.5)" stroke-width="1.5" stroke-linecap="round" stroke-linejoin="round" fill="none" stroke="#000000" d="M 357.81 764.62 L 406.3 757.64 "/>
</g>
<clipPath id="cp288">
<path transform="matrix(1,0,0,-1,0,841.5)" d="M -.000061035 841.5 L 594.75 841.5 L 594.75 .00018311 L -.000030518 .00018311 " fill-rule="evenodd"/>
</clipPath>
<g clip-path="url(#cp288)">
<path transform="matrix(1,0,0,-1,0,841.5)" d="M 405.8 762.5 L 414.51 756.46 L 404.45 753.12 L 405.8 762.5 Z " fill-rule="evenodd"/>
</g>
<clipPath id="cp289">
<path transform="matrix(1,0,0,-1,0,841.5)" d="M 0 841.5 L 594.75 841.5 L 594.75 -.000061035 L .000030518 0 " fill-rule="evenodd"/>
</clipPath>
<g clip-path="url(#cp289)">
<path transform="matrix(1,0,0,-1,0,841.5)" stroke-width="1.5" stroke-linecap="round" stroke-linejoin="round" fill="none" stroke="#000000" d="M 428.68 753.84 L 366.92 711.67 "/>
</g>
<clipPath id="cp290">
<path transform="matrix(1,0,0,-1,0,841.5)" d="M 0 841.5 L 594.75 841.5 L 594.75 -.000061035 L .000030518 0 " fill-rule="evenodd"/>
</clipPath>
<g clip-path="url(#cp290)">
<path transform="matrix(1,0,0,-1,0,841.5)" d="M 370.02 708.92 L 357.79 705.44 L 365.48 715.56 L 370.02 708.92 Z " fill-rule="evenodd"/>
</g>
<g id="Layer-1" data-name="P">
<clipPath id="cp291">
<path transform="matrix(1,0,0,-1,0,841.5)" d="M .000008862 0 L 594.75 0 L 594.75 841.5 L .000008862 841.5 Z " fill-rule="evenodd"/>
</clipPath>
<g clip-path="url(#cp291)">
<text xml:space="preserve" transform="matrix(1 0 -0 1 0 841.5)" font-size="9.025" font-family="ArialNarrow" font-weight="bold"><tspan y="-787.2" x="407.93 412.4515 415.42073 419.1751 423.69664 426.66587 428.16404 431.1513 435.64576 439.40016 443.8946 446.1418 450.63627 452.87449">grant reserv. </tspan></text>
</g>
</g>
<g id="Layer-1" data-name="P">
<clipPath id="cp292">
<path transform="matrix(1,0,0,-1,0,841.5)" d="M .000008862 0 L 594.75 0 L 594.75 841.5 L .000008862 841.5 Z " fill-rule="evenodd"/>
</clipPath>
<g clip-path="url(#cp292)">
<text xml:space="preserve" transform="matrix(1 0 -0 1 0 841.5)" font-size="9" font-family="ArialNarrow" font-weight="bold"><tspan y="-776.38" x="409.97 414.479 416.77403 419.04203 423.55104 426.584 431.09303 435.62904 440.13804 443.92704 446.94206 450.71305">of products </tspan></text>
</g>
</g>
<g id="Layer-1" data-name="P">
<clipPath id="cp293">
<path transform="matrix(1,0,0,-1,0,841.5)" d="M .000008862 0 L 594.75 0 L 594.75 841.5 L .000008862 841.5 Z " fill-rule="evenodd"/>
</clipPath>
<g clip-path="url(#cp293)">
<text xml:space="preserve" transform="matrix(1 0 -0 1 0 841.5)" font-size="9" font-family="ArialNarrow" font-weight="bold"><tspan y="-765.58" x="416.35 418.591 423.1 424.594 429.085 431.335 435.844 440.326">in stock</tspan></text>
</g>
</g>
<clipPath id="cp294">
<path transform="matrix(1,0,0,-1,0,841.5)" d="M -.000061035 841.5 L 594.75 841.5 L 594.75 -.00012207 L -.000030518 -.000061035 " fill-rule="evenodd"/>
</clipPath>
<g clip-path="url(#cp294)">
<path transform="matrix(1,0,0,-1,0,841.5)" stroke-width="1.5" stroke-linecap="round" stroke-linejoin="round" fill="none" stroke="#000000" d="M 457.83 758.52 L 449.97 756.64 "/>
</g>
<clipPath id="cp295">
<path transform="matrix(1,0,0,-1,0,841.5)" d="M -.000061035 841.5 L 594.75 841.5 L 594.75 -.00012207 L -.000030518 -.000061035 " fill-rule="evenodd"/>
</clipPath>
<g clip-path="url(#cp295)">
<path transform="matrix(1,0,0,-1,0,841.5)" d="M 462.63 755.54 L 449.97 756.64 L 460.76 763.35 L 462.63 755.54 Z " fill-rule="evenodd"/>
</g>
<path transform="matrix(1,0,0,-1,0,841.5)" d="M 414.51 746.75 L 450.85603 746.75 L 450.85603 761.42 L 414.51 761.42 Z " fill="#ffffff" fill-rule="evenodd"/>
<path transform="matrix(1,0,0,-1,0,841.5)" stroke-width="2" stroke-linecap="round" stroke-linejoin="round" fill="none" stroke="#000000" d="M 414.51 746.75 L 450.85603 746.75 L 450.85603 761.42 L 414.51 761.42 Z "/>
<g id="Layer-1" data-name="P">
<clipPath id="cp296">
<path transform="matrix(1,0,0,-1,0,841.5)" d="M .000008862 0 L 594.75 0 L 594.75 841.5 L .000008862 841.5 Z " fill-rule="evenodd"/>
</clipPath>
<g clip-path="url(#cp296)">
<text xml:space="preserve" transform="matrix(1 0 -0 1 0 841.5)" font-size="11.25" font-family="ArialNarrow" font-weight="bold"><tspan y="-750.7" x="421.3 429.57496">m </tspan></text>
</g>
</g>
<g id="Layer-1" data-name="P">
<clipPath id="cp297">
<path transform="matrix(1,0,0,-1,0,841.5)" d="M .000008862 0 L 594.75 0 L 594.75 841.5 L .000008862 841.5 Z " fill-rule="evenodd"/>
</clipPath>
<g clip-path="url(#cp297)">
<text xml:space="preserve" transform="matrix(1 0 -0 1 0 841.5)" font-size="11.25" font-family="ArialNarrow" font-weight="bold"><tspan y="-750.7" x="431.85">&#x003e;</tspan></text>
</g>
</g>
<g id="Layer-1" data-name="P">
<clipPath id="cp298">
<path transform="matrix(1,0,0,-1,0,841.5)" d="M .000008862 0 L 594.75 0 L 594.75 841.5 L .000008862 841.5 Z " fill-rule="evenodd"/>
</clipPath>
<g clip-path="url(#cp298)">
<text xml:space="preserve" transform="matrix(1 0 -0 1 0 841.5)" font-size="11.25" font-family="ArialNarrow" font-weight="bold"><tspan y="-750.7" x="437.13"> </tspan></text>
</g>
</g>
<g id="Layer-1" data-name="P">
<clipPath id="cp299">
<path transform="matrix(1,0,0,-1,0,841.5)" d="M .000008862 0 L 594.75 0 L 594.75 841.5 L .000008862 841.5 Z " fill-rule="evenodd"/>
</clipPath>
<g clip-path="url(#cp299)">
<text xml:space="preserve" transform="matrix(1 0 -0 1 0 841.5)" font-size="11.25" font-family="ArialNarrow" font-weight="bold"><tspan y="-750.7" x="439.63">n</tspan></text>
</g>
</g>
<path transform="matrix(1,0,0,-1,0,841.5)" stroke-width=".80557" stroke-linecap="butt" stroke-miterlimit="2" stroke-linejoin="miter" fill="none" stroke="#000000" d="M 431.3 749.62 L 436.57 749.62 "/>
<g id="Layer-1" data-name="P">
<clipPath id="cp300">
<path transform="matrix(1,0,0,-1,0,841.5)" d="M .000008862 0 L 594.75 0 L 594.75 841.5 L .000008862 841.5 Z " fill-rule="evenodd"/>
</clipPath>
<g clip-path="url(#cp300)">
<text xml:space="preserve" transform="matrix(1 0 -0 1 0 841.5)" font-size="11.25" font-family="ArialNarrow" font-weight="bold"><tspan y="-750.13" x="379.35 382.35377 387.59626 389.84626 395.1">(x,n)</tspan></text>
</g>
</g>
<g id="Layer-1" data-name="P">
<clipPath id="cp301">
<path transform="matrix(1,0,0,-1,0,841.5)" d="M .000008862 0 L 594.75 0 L 594.75 841.5 L .000008862 841.5 Z " fill-rule="evenodd"/>
</clipPath>
<g clip-path="url(#cp301)">
<text xml:space="preserve" transform="matrix(1 0 -0 1 0 841.5)" font-size="11.25" font-family="ArialNarrow" font-weight="bold"><tspan y="-762.33" x="463.55 466.57624 471.84126 474.11375 482.3825">(x,m)</tspan></text>
</g>
</g>
<g id="Layer-1" data-name="P">
<clipPath id="cp302">
<path transform="matrix(1,0,0,-1,0,841.5)" d="M .000008862 0 L 594.75 0 L 594.75 841.5 L .000008862 841.5 Z " fill-rule="evenodd"/>
</clipPath>
<g clip-path="url(#cp302)">
<text xml:space="preserve" transform="matrix(1 0 -0 1 0 841.5)" font-size="11.25" font-family="ArialNarrow" font-weight="bold"><tspan y="-733.95" x="454.48 457.48377 462.72627 464.97627">(x,m</tspan></text>
</g>
</g>
<g id="Layer-1" data-name="P">
<clipPath id="cp303">
<path transform="matrix(1,0,0,-1,0,841.5)" d="M .000008862 0 L 594.75 0 L 594.75 841.5 L .000008862 841.5 Z " fill-rule="evenodd"/>
</clipPath>
<g clip-path="url(#cp303)">
<text xml:space="preserve" transform="matrix(1 0 -0 1 0 841.5)" font-size="11.25" font-family="ArialNarrow" font-weight="bold"><tspan y="-733.95" x="473.05">-</tspan></text>
</g>
</g>
<g id="Layer-1" data-name="P">
<clipPath id="cp304">
<path transform="matrix(1,0,0,-1,0,841.5)" d="M .000008862 0 L 594.75 0 L 594.75 841.5 L .000008862 841.5 Z " fill-rule="evenodd"/>
</clipPath>
<g clip-path="url(#cp304)">
<text xml:space="preserve" transform="matrix(1 0 -0 1 0 841.5)" font-size="11.25" font-family="ArialNarrow" font-weight="bold"><tspan y="-733.95" x="476.05 481.30024">n)</tspan></text>
</g>
</g>
<g id="Layer-1" data-name="P">
<clipPath id="cp305">
<path transform="matrix(1,0,0,-1,0,841.5)" d="M .000008862 0 L 594.75 0 L 594.75 841.5 L .000008862 841.5 Z " fill-rule="evenodd"/>
</clipPath>
<g clip-path="url(#cp305)">
<text xml:space="preserve" transform="matrix(1 0 -0 1 0 841.5)" font-size="11.275" font-family="ArialNarrow" font-weight="bold"><tspan y="-710.25" x="387.32 390.3417 395.60713 397.88468 403.16139">(x,n)</tspan></text>
</g>
</g>
<g id="Layer-1" data-name="P">
<clipPath id="cp306">
<path transform="matrix(1,0,0,-1,0,841.5)" d="M .000008862 0 L 594.75 0 L 594.75 841.5 L .000008862 841.5 Z " fill-rule="evenodd"/>
</clipPath>
<g clip-path="url(#cp306)">
<text xml:space="preserve" transform="matrix(1 0 -0 1 0 841.5)" font-size="11.275" font-family="ArialNarrow" font-weight="bold"><tspan y="-775.3" x="277.6 281.3433 285.86457 291.87416 297.15086 299.40586">requ. </tspan></text>
</g>
</g>
<g id="Layer-1" data-name="P">
<clipPath id="cp307">
<path transform="matrix(1,0,0,-1,0,841.5)" d="M .000008862 0 L 594.75 0 L 594.75 841.5 L .000008862 841.5 Z " fill-rule="evenodd"/>
</clipPath>
<g clip-path="url(#cp307)">
<text xml:space="preserve" transform="matrix(1 0 -0 1 0 841.5)" font-size="11.25" font-family="ArialNarrow" font-weight="bold"><tspan y="-762.08" x="270.05 273.81874 278.34123 283.60624 288.87126 291.8975 297.1625">reserv.</tspan></text>
</g>
</g>
<g id="Layer-1" data-name="P">
<clipPath id="cp308">
<path transform="matrix(1,0,0,-1,0,841.5)" d="M .000008862 0 L 594.75 0 L 594.75 841.5 L .000008862 841.5 Z " fill-rule="evenodd"/>
</clipPath>
<g clip-path="url(#cp308)">
<text xml:space="preserve" transform="matrix(1 0 -0 1 0 841.5)" font-size="11.25" font-family="ArialNarrow" font-weight="bold"><tspan y="-698.3" x="265.45 270.70378 274.43876 279.68125 284.935 287.93876 293.18125 298.435">granted </tspan></text>
</g>
</g>
<g id="Layer-1" data-name="P">
<clipPath id="cp309">
<path transform="matrix(1,0,0,-1,0,841.5)" d="M .000008862 0 L 594.75 0 L 594.75 841.5 L .000008862 841.5 Z " fill-rule="evenodd"/>
</clipPath>
<g clip-path="url(#cp309)">
<text xml:space="preserve" transform="matrix(1 0 -0 1 0 841.5)" font-size="11.275" font-family="ArialNarrow" font-weight="bold"><tspan y="-685.1" x="265.45 269.1933 273.69203 278.93489 284.17774 287.17689 292.41975">reserv.</tspan></text>
</g>
</g>
<g id="Layer-1" data-name="P">
<clipPath id="cp310">
<path transform="matrix(1,0,0,-1,0,841.5)" d="M .000008862 0 L 594.75 0 L 594.75 841.5 L .000008862 841.5 Z " fill-rule="evenodd"/>
</clipPath>
<g clip-path="url(#cp310)">
<text xml:space="preserve" transform="matrix(1 0 -0 1 0 841.5)" font-size="11.275" font-family="ArialNarrow" font-weight="bold"><tspan y="-726.42" x="507.13 512.40676 517.6722 520.69387 525.9593 531.236 536.50149 541.02279">database</tspan></text>
</g>
</g>
<path transform="matrix(1,0,0,-1,0,841.5)" d="M 362.79 769.25 C 362.79 776.64 348.86 782.63 331.69 782.63 C 314.52 782.63 300.6 776.64 300.6 769.25 C 300.6 761.87 314.52 755.88 331.69 755.88 C 348.86 755.88 362.79 761.87 362.79 769.25 Z " fill="#ffffff" fill-rule="evenodd"/>
<path transform="matrix(1,0,0,-1,0,841.5)" stroke-width="1.5" stroke-linecap="round" stroke-linejoin="round" fill="none" stroke="#000000" d="M 362.79 769.25 C 362.79 776.64 348.86 782.63 331.69 782.63 C 314.52 782.63 300.6 776.64 300.6 769.25 C 300.6 761.87 314.52 755.88 331.69 755.88 C 348.86 755.88 362.79 761.87 362.79 769.25 Z "/>
<g id="Layer-1" data-name="P">
<clipPath id="cp311">
<path transform="matrix(1,0,0,-1,0,841.5)" d="M .000008862 0 L 594.75 0 L 594.75 841.5 L .000008862 841.5 Z " fill-rule="evenodd"/>
</clipPath>
<g clip-path="url(#cp311)">
<text xml:space="preserve" transform="matrix(1 0 -0 1 0 841.5)" font-size="9.025" font-family="ArialNarrow" font-weight="bold"><tspan y="-766.5" x="311.35 313.59724 317.36064 321.13307 325.65458 330.1761 334.6976 338.47004 342.23344 344.47166 346.70988 350.4823">("shoes", 2)</tspan></text>
</g>
</g>
<path transform="matrix(1,0,0,-1,0,841.5)" d="M 365.44 693.3 C 365.44 700.69 351.52 706.68 334.35 706.68 C 317.18 706.68 303.25 700.69 303.25 693.3 C 303.25 685.91 317.18 679.93 334.35 679.93 C 351.52 679.93 365.44 685.91 365.44 693.3 Z " fill="#ffffff" fill-rule="evenodd"/>
<path transform="matrix(1,0,0,-1,0,841.5)" stroke-width="1.5" stroke-linecap="round" stroke-linejoin="round" fill="none" stroke="#000000" d="M 365.44 693.3 C 365.44 700.69 351.52 706.68 334.35 706.68 C 317.18 706.68 303.25 700.69 303.25 693.3 C 303.25 685.91 317.18 679.93 334.35 679.93 C 351.52 679.93 365.44 685.91 365.44 693.3 Z "/>
<g id="Layer-1" data-name="P">
<clipPath id="cp312">
<path transform="matrix(1,0,0,-1,0,841.5)" d="M .000008862 0 L 594.75 0 L 594.75 841.5 L .000008862 841.5 Z " fill-rule="evenodd"/>
</clipPath>
<g clip-path="url(#cp312)">
<text xml:space="preserve" transform="matrix(1 0 -0 1 0 841.5)" font-size="9.025" font-family="ArialNarrow" font-weight="bold"><tspan y="-690.47" x="334.78"> </tspan></text>
</g>
</g>
<path transform="matrix(1,0,0,-1,0,841.5)" stroke-width="6" stroke-linecap="round" stroke-linejoin="round" fill="none" stroke="#000000" d="M 270.5 628.9 L 377.43 628.9 "/>
<path transform="matrix(1,0,0,-1,0,841.5)" d="M 390.33 628.9 L 373.29 620.38 C 375.97 625.74 375.97 632.06 373.29 637.42 L 390.33 628.9 Z " fill-rule="evenodd"/>
<clipPath id="cp313">
<path transform="matrix(1,0,0,-1,0,841.5)" d="M -.000030518 841.5 L 594.75 841.5 L 594.75 0 L -.000030518 0 " fill-rule="evenodd"/>
</clipPath>
<g clip-path="url(#cp313)">
<path transform="matrix(1,0,0,-1,0,841.5)" d="M 475.64 539.48 C 460.17 539.48 447.63 537.23 447.63 534.44 C 447.63 531.66 460.17 529.4 475.64 529.4 C 491.1 529.4 503.64 531.66 503.64 534.44 C 503.64 537.23 491.1 539.48 475.64 539.48 Z " fill="#ffffff" fill-rule="evenodd"/>
</g>
<clipPath id="cp314">
<path transform="matrix(1,0,0,-1,0,841.5)" d="M -.000030518 841.5 L 594.75 841.5 L 594.75 0 L -.000030518 0 " fill-rule="evenodd"/>
</clipPath>
<g clip-path="url(#cp314)">
<path transform="matrix(1,0,0,-1,0,841.5)" stroke-width="1.5" stroke-linecap="round" stroke-linejoin="round" fill="none" stroke="#000000" d="M 475.64 539.48 C 460.17 539.48 447.63 537.23 447.63 534.44 C 447.63 531.66 460.17 529.4 475.64 529.4 C 491.1 529.4 503.64 531.66 503.64 534.44 C 503.64 537.23 491.1 539.48 475.64 539.48 Z "/>
</g>
<clipPath id="cp315">
<path transform="matrix(1,0,0,-1,0,841.5)" d="M -.000030518 841.5 L 594.75 841.5 L 594.75 .00018311 L -.000061035 .00018311 " fill-rule="evenodd"/>
</clipPath>
<g clip-path="url(#cp315)">
<path transform="matrix(1,0,0,-1,0,841.5)" stroke-width="1.5" stroke-linecap="round" stroke-linejoin="round" fill="none" stroke="#000000" d="M 360.83 544.98 L 409.32 538 "/>
</g>
<clipPath id="cp316">
<path transform="matrix(1,0,0,-1,0,841.5)" d="M -.000030518 841.5 L 594.75 841.5 L 594.75 .00018311 L -.000061035 .00018311 " fill-rule="evenodd"/>
</clipPath>
<g clip-path="url(#cp316)">
<path transform="matrix(1,0,0,-1,0,841.5)" d="M 408.82 542.86 L 417.53 536.81 L 407.47 533.47 L 408.82 542.86 Z " fill-rule="evenodd"/>
</g>
<clipPath id="cp317">
<path transform="matrix(1,0,0,-1,0,841.5)" d="M -.000061035 841.5 L 594.75 841.5 L 594.75 0 L 0 0 " fill-rule="evenodd"/>
</clipPath>
<g clip-path="url(#cp317)">
<path transform="matrix(1,0,0,-1,0,841.5)" stroke-width="1.5" stroke-linecap="round" stroke-linejoin="round" fill="none" stroke="#000000" d="M 431.7 534.19 L 369.94 492.02 "/>
</g>
<clipPath id="cp318">
<path transform="matrix(1,0,0,-1,0,841.5)" d="M -.000061035 841.5 L 594.75 841.5 L 594.75 0 L 0 0 " fill-rule="evenodd"/>
</clipPath>
<g clip-path="url(#cp318)">
<path transform="matrix(1,0,0,-1,0,841.5)" d="M 373.03 489.27 L 360.81 485.79 L 368.5 495.91 L 373.03 489.27 Z " fill-rule="evenodd"/>
</g>
<clipPath id="cp319">
<path transform="matrix(1,0,0,-1,0,841.5)" d="M -.000091553 841.5 L 594.75 841.5 L 594.75 -.00018311 L -.000030518 -.00012207 " fill-rule="evenodd"/>
</clipPath>
<g clip-path="url(#cp319)">
<path transform="matrix(1,0,0,-1,0,841.5)" stroke-width="1.5" stroke-linecap="round" stroke-linejoin="round" fill="none" stroke="#000000" d="M 460.85 538.87 L 452.99 536.99 "/>
</g>
<clipPath id="cp320">
<path transform="matrix(1,0,0,-1,0,841.5)" d="M -.000091553 841.5 L 594.75 841.5 L 594.75 -.00018311 L -.000030518 -.00012207 " fill-rule="evenodd"/>
</clipPath>
<g clip-path="url(#cp320)">
<path transform="matrix(1,0,0,-1,0,841.5)" d="M 465.65 535.89 L 452.99 536.99 L 463.78 543.71 L 465.65 535.89 Z " fill-rule="evenodd"/>
</g>
<path transform="matrix(1,0,0,-1,0,841.5)" d="M 417.53 527.11 L 453.876 527.11 L 453.876 541.77999 L 417.53 541.77999 Z " fill="#ffffff" fill-rule="evenodd"/>
<path transform="matrix(1,0,0,-1,0,841.5)" stroke-width="2" stroke-linecap="round" stroke-linejoin="round" fill="none" stroke="#000000" d="M 417.53 527.11 L 453.876 527.11 L 453.876 541.77999 L 417.53 541.77999 Z "/>
<g id="Layer-1" data-name="P">
<clipPath id="cp321">
<path transform="matrix(1,0,0,-1,0,841.5)" d="M .000008862 0 L 594.75 0 L 594.75 841.5 L .000008862 841.5 Z " fill-rule="evenodd"/>
</clipPath>
<g clip-path="url(#cp321)">
<text xml:space="preserve" transform="matrix(1 0 -0 1 0 841.5)" font-size="11.275" font-family="ArialNarrow" font-weight="bold"><tspan y="-530.88" x="424.32 432.59498">m </tspan></text>
</g>
</g>
<g id="Layer-1" data-name="P">
<clipPath id="cp322">
<path transform="matrix(1,0,0,-1,0,841.5)" d="M .000008862 0 L 594.75 0 L 594.75 841.5 L .000008862 841.5 Z " fill-rule="evenodd"/>
</clipPath>
<g clip-path="url(#cp322)">
<text xml:space="preserve" transform="matrix(1 0 -0 1 0 841.5)" font-size="11.275" font-family="ArialNarrow" font-weight="bold"><tspan y="-530.88" x="434.88">&#x003e;</tspan></text>
</g>
</g>
<g id="Layer-1" data-name="P">
<clipPath id="cp323">
<path transform="matrix(1,0,0,-1,0,841.5)" d="M .000008862 0 L 594.75 0 L 594.75 841.5 L .000008862 841.5 Z " fill-rule="evenodd"/>
</clipPath>
<g clip-path="url(#cp323)">
<text xml:space="preserve" transform="matrix(1 0 -0 1 0 841.5)" font-size="11.275" font-family="ArialNarrow" font-weight="bold"><tspan y="-530.88" x="440.15"> </tspan></text>
</g>
</g>
<g id="Layer-1" data-name="P">
<clipPath id="cp324">
<path transform="matrix(1,0,0,-1,0,841.5)" d="M .000008862 0 L 594.75 0 L 594.75 841.5 L .000008862 841.5 Z " fill-rule="evenodd"/>
</clipPath>
<g clip-path="url(#cp324)">
<text xml:space="preserve" transform="matrix(1 0 -0 1 0 841.5)" font-size="11.275" font-family="ArialNarrow" font-weight="bold"><tspan y="-530.88" x="442.65">n</tspan></text>
</g>
</g>
<path transform="matrix(1,0,0,-1,0,841.5)" stroke-width=".80557" stroke-linecap="butt" stroke-miterlimit="2" stroke-linejoin="miter" fill="none" stroke="#000000" d="M 434.32 529.97 L 439.59 529.97 "/>
<g id="Layer-1" data-name="P">
<clipPath id="cp325">
<path transform="matrix(1,0,0,-1,0,841.5)" d="M .000008862 0 L 594.75 0 L 594.75 841.5 L .000008862 841.5 Z " fill-rule="evenodd"/>
</clipPath>
<g clip-path="url(#cp325)">
<text xml:space="preserve" transform="matrix(1 0 -0 1 0 841.5)" font-size="11.275" font-family="ArialNarrow" font-weight="bold"><tspan y="-530.3" x="382.38 385.37916 390.622 392.877 398.13117">(x,n)</tspan></text>
</g>
</g>
<g id="Layer-1" data-name="P">
<clipPath id="cp326">
<path transform="matrix(1,0,0,-1,0,841.5)" d="M .000008862 0 L 594.75 0 L 594.75 841.5 L .000008862 841.5 Z " fill-rule="evenodd"/>
</clipPath>
<g clip-path="url(#cp326)">
<text xml:space="preserve" transform="matrix(1 0 -0 1 0 841.5)" font-size="11.275" font-family="ArialNarrow" font-weight="bold"><tspan y="-542.5" x="466.58 469.57914 474.84455 477.09956 485.36415">(x,m)</tspan></text>
</g>
</g>
<g id="Layer-1" data-name="P">
<clipPath id="cp327">
<path transform="matrix(1,0,0,-1,0,841.5)" d="M .000008862 0 L 594.75 0 L 594.75 841.5 L .000008862 841.5 Z " fill-rule="evenodd"/>
</clipPath>
<g clip-path="url(#cp327)">
<text xml:space="preserve" transform="matrix(1 0 -0 1 0 841.5)" font-size="11.25" font-family="ArialNarrow" font-weight="bold"><tspan y="-519.8" x="457.5 460.50376 465.74626 467.99626">(x,m</tspan></text>
</g>
</g>
<g id="Layer-1" data-name="P">
<clipPath id="cp328">
<path transform="matrix(1,0,0,-1,0,841.5)" d="M .000008862 0 L 594.75 0 L 594.75 841.5 L .000008862 841.5 Z " fill-rule="evenodd"/>
</clipPath>
<g clip-path="url(#cp328)">
<text xml:space="preserve" transform="matrix(1 0 -0 1 0 841.5)" font-size="11.25" font-family="ArialNarrow" font-weight="bold"><tspan y="-519.8" x="476.07">-</tspan></text>
</g>
</g>
<g id="Layer-1" data-name="P">
<clipPath id="cp329">
<path transform="matrix(1,0,0,-1,0,841.5)" d="M .000008862 0 L 594.75 0 L 594.75 841.5 L .000008862 841.5 Z " fill-rule="evenodd"/>
</clipPath>
<g clip-path="url(#cp329)">
<text xml:space="preserve" transform="matrix(1 0 -0 1 0 841.5)" font-size="11.25" font-family="ArialNarrow" font-weight="bold"><tspan y="-519.8" x="479.08 484.33024">n)</tspan></text>
</g>
</g>
<clipPath id="cp330">
<path transform="matrix(1,0,0,-1,0,841.5)" d="M -.000030518 841.5 L 594.75 841.5 L 594.75 .00012207 L -.000091553 .00012207 " fill-rule="evenodd"/>
</clipPath>
<g clip-path="url(#cp330)">
<path transform="matrix(1,0,0,-1,0,841.5)" stroke-width="1.5" stroke-linecap="round" stroke-linejoin="round" fill="none" stroke="#000000" d="M 489.58 529.73 L 495.02 531.58 "/>
</g>
<clipPath id="cp331">
<path transform="matrix(1,0,0,-1,0,841.5)" d="M -.000030518 841.5 L 594.75 841.5 L 594.75 .00012207 L -.000091553 .00012207 " fill-rule="evenodd"/>
</clipPath>
<g clip-path="url(#cp331)">
<path transform="matrix(1,0,0,-1,0,841.5)" d="M 482.3 531.5 L 495.02 531.58 L 484.89 523.89 L 482.3 531.5 Z " fill-rule="evenodd"/>
</g>
<g id="Layer-1" data-name="P">
<clipPath id="cp332">
<path transform="matrix(1,0,0,-1,0,841.5)" d="M .000008862 0 L 594.75 0 L 594.75 841.5 L .000008862 841.5 Z " fill-rule="evenodd"/>
</clipPath>
<g clip-path="url(#cp332)">
<text xml:space="preserve" transform="matrix(1 0 -0 1 0 841.5)" font-size="11.25" font-family="ArialNarrow" font-weight="bold"><tspan y="-490.4" x="390.35 393.35377 398.61878 400.86878 406.14506">(x,n)</tspan></text>
</g>
</g>
<path transform="matrix(1,0,0,-1,0,841.5)" d="M 365.8 549.61 C 365.8 557 351.88 562.98 334.71 562.98 C 317.54 562.98 303.62 557 303.62 549.61 C 303.62 542.22 317.54 536.23 334.71 536.23 C 351.88 536.23 365.8 542.22 365.8 549.61 Z " fill="#ffffff" fill-rule="evenodd"/>
<path transform="matrix(1,0,0,-1,0,841.5)" stroke-width="1.5" stroke-linecap="round" stroke-linejoin="round" fill="none" stroke="#000000" d="M 365.8 549.61 C 365.8 557 351.88 562.98 334.71 562.98 C 317.54 562.98 303.62 557 303.62 549.61 C 303.62 542.22 317.54 536.23 334.71 536.23 C 351.88 536.23 365.8 542.22 365.8 549.61 Z "/>
<g id="Layer-1" data-name="P">
<clipPath id="cp333">
<path transform="matrix(1,0,0,-1,0,841.5)" d="M .000008862 0 L 594.75 0 L 594.75 841.5 L .000008862 841.5 Z " fill-rule="evenodd"/>
</clipPath>
<g clip-path="url(#cp333)">
<text xml:space="preserve" transform="matrix(1 0 -0 1 0 841.5)" font-size="9" font-family="ArialNarrow" font-weight="bold"><tspan y="-546.65" x="335.13"> </tspan></text>
</g>
</g>
<path transform="matrix(1,0,0,-1,0,841.5)" d="M 368.46 473.65 C 368.46 481.04 354.54 487.03 337.37 487.03 C 320.19 487.03 306.27 481.04 306.27 473.65 C 306.27 466.27 320.19 460.28 337.37 460.28 C 354.54 460.28 368.46 466.27 368.46 473.65 Z " fill="#ffffff" fill-rule="evenodd"/>
<path transform="matrix(1,0,0,-1,0,841.5)" stroke-width="1.5" stroke-linecap="round" stroke-linejoin="round" fill="none" stroke="#000000" d="M 368.46 473.65 C 368.46 481.04 354.54 487.03 337.37 487.03 C 320.19 487.03 306.27 481.04 306.27 473.65 C 306.27 466.27 320.19 460.28 337.37 460.28 C 354.54 460.28 368.46 466.27 368.46 473.65 Z "/>
<g id="Layer-1" data-name="P">
<clipPath id="cp334">
<path transform="matrix(1,0,0,-1,0,841.5)" d="M .000008862 0 L 594.75 0 L 594.75 841.5 L .000008862 841.5 Z " fill-rule="evenodd"/>
</clipPath>
<g clip-path="url(#cp334)">
<text xml:space="preserve" transform="matrix(1 0 -0 1 0 841.5)" font-size="9" font-family="ArialNarrow" font-weight="bold"><tspan y="-470.63" x="317.05 319.3 323.044 326.797 331.306 335.815 340.288 344.041 347.785 350.026 352.267 356.02">("shoes", 2)</tspan></text>
</g>
</g>
<path transform="matrix(1,0,0,-1,0,841.5)" d="M 557.57 531.94 C 557.57 539.33 543.65 545.32 526.48 545.32 C 509.31 545.32 495.39 539.33 495.39 531.94 C 495.39 524.56 509.31 518.57 526.48 518.57 C 543.65 518.57 557.57 524.56 557.57 531.94 Z " fill="#ffffff" fill-rule="evenodd"/>
<path transform="matrix(1,0,0,-1,0,841.5)" stroke-width="1.5" stroke-linecap="round" stroke-linejoin="round" fill="none" stroke="#000000" d="M 557.57 531.94 C 557.57 539.33 543.65 545.32 526.48 545.32 C 509.31 545.32 495.39 539.33 495.39 531.94 C 495.39 524.56 509.31 518.57 526.48 518.57 C 543.65 518.57 557.57 524.56 557.57 531.94 Z "/>
<g id="Layer-1" data-name="P">
<clipPath id="cp335">
<path transform="matrix(1,0,0,-1,0,841.5)" d="M .000008862 0 L 594.75 0 L 594.75 841.5 L .000008862 841.5 Z " fill-rule="evenodd"/>
</clipPath>
<g clip-path="url(#cp335)">
<text xml:space="preserve" transform="matrix(1 0 -0 1 0 841.5)" font-size="9.025" font-family="ArialNarrow" font-weight="bold"><tspan y="-528.97" x="506.4 508.64723 512.39266 516.14706 520.6686 525.145 529.63949 533.39389 537.1393 539.37747 541.6156 545.37">("shoes", 1)</tspan></text>
</g>
</g>
<g id="Layer-1" data-name="P">
<clipPath id="cp336">
<path transform="matrix(1,0,0,-1,0,841.5)" d="M .000008862 0 L 594.75 0 L 594.75 841.5 L .000008862 841.5 Z " fill-rule="evenodd"/>
</clipPath>
<g clip-path="url(#cp336)">
<text xml:space="preserve" transform="matrix(1 0 -0 1 0 841.5)" font-size="9" font-family="ArialNarrow" font-weight="bold"><tspan y="-636.45" x="281.38 285.133 287.374 291.865 294.106 297.103 301.594 306.103 310.612 314.34703 318.838 321.83503 324.07603 326.31703 330.82603 335.308 339.061 341.302">x = "shoes", n=2, </tspan></text>
</g>
</g>
<g id="Layer-1" data-name="P">
<clipPath id="cp337">
<path transform="matrix(1,0,0,-1,0,841.5)" d="M .000008862 0 L 594.75 0 L 594.75 841.5 L .000008862 841.5 Z " fill-rule="evenodd"/>
</clipPath>
<g clip-path="url(#cp337)">
<text xml:space="preserve" transform="matrix(1 0 -0 1 0 841.5)" font-size="9" font-family="ArialNarrow" font-weight="bold"><tspan y="-636.45" x="343.45"> </tspan></text>
</g>
</g>
<g id="Layer-1" data-name="P">
<clipPath id="cp338">
<path transform="matrix(1,0,0,-1,0,841.5)" d="M .000008862 0 L 594.75 0 L 594.75 841.5 L .000008862 841.5 Z " fill-rule="evenodd"/>
</clipPath>
<g clip-path="url(#cp338)">
<text xml:space="preserve" transform="matrix(1 0 -0 1 0 841.5)" font-size="9" font-family="ArialNarrow" font-weight="bold"><tspan y="-636.45" x="345.5 352.241 355.994">m=3</tspan></text>
</g>
</g>
<g id="Layer-1" data-name="P">
<clipPath id="cp339">
<path transform="matrix(1,0,0,-1,0,841.5)" d="M .000008862 0 L 594.75 0 L 594.75 841.5 L .000008862 841.5 Z " fill-rule="evenodd"/>
</clipPath>
<g clip-path="url(#cp339)">
<text xml:space="preserve" transform="matrix(1 0 -0 1 0 841.5)" font-size="11.25" font-family="ArialNarrow" font-weight="bold"><tspan y="-554.72" x="280.73 284.465 288.965 294.95 300.20378 302.45378">requ. </tspan></text>
</g>
</g>
<g id="Layer-1" data-name="P">
<clipPath id="cp340">
<path transform="matrix(1,0,0,-1,0,841.5)" d="M .000008862 0 L 594.75 0 L 594.75 841.5 L .000008862 841.5 Z " fill-rule="evenodd"/>
</clipPath>
<g clip-path="url(#cp340)">
<text xml:space="preserve" transform="matrix(1 0 -0 1 0 841.5)" font-size="11.275" font-family="ArialNarrow" font-weight="bold"><tspan y="-541.53" x="273.17 276.93586 281.45713 286.72254 291.98796 294.9871 300.2525">reserv.</tspan></text>
</g>
</g>
<g id="Layer-1" data-name="P">
<clipPath id="cp341">
<path transform="matrix(1,0,0,-1,0,841.5)" d="M .000008862 0 L 594.75 0 L 594.75 841.5 L .000008862 841.5 Z " fill-rule="evenodd"/>
</clipPath>
<g clip-path="url(#cp341)">
<text xml:space="preserve" transform="matrix(1 0 -0 1 0 841.5)" font-size="11.275" font-family="ArialNarrow" font-weight="bold"><tspan y="-505.85" x="510.15 515.4267 520.69216 523.6913 528.9567 534.23348 539.4989 544.0202">database</tspan></text>
</g>
</g>
<clipPath id="cp342">
<path transform="matrix(1,0,0,-1,0,841.5)" d="M 0 841.5 L 594.75 841.5 L 594.75 .00024414 L -.00012207 .00024414 " fill-rule="evenodd"/>
</clipPath>
<g clip-path="url(#cp342)">
<path transform="matrix(1,0,0,-1,0,841.5)" stroke-width="1.5" stroke-linecap="round" stroke-linejoin="round" fill="none" stroke="#000000" d="M 488.02 750.46 L 493.46 752.31 "/>
</g>
<clipPath id="cp343">
<path transform="matrix(1,0,0,-1,0,841.5)" d="M 0 841.5 L 594.75 841.5 L 594.75 .00024414 L -.00012207 .00024414 " fill-rule="evenodd"/>
</clipPath>
<g clip-path="url(#cp343)">
<path transform="matrix(1,0,0,-1,0,841.5)" d="M 480.75 752.24 L 493.46 752.31 L 483.33 744.63 L 480.75 752.24 Z " fill-rule="evenodd"/>
</g>
<path transform="matrix(1,0,0,-1,0,841.5)" d="M 554.56 751.59 C 554.56 758.98 540.63 764.96 523.46 764.96 C 506.29 764.96 492.37 758.98 492.37 751.59 C 492.37 744.2 506.29 738.21 523.46 738.21 C 540.63 738.21 554.56 744.2 554.56 751.59 Z " fill="#ffffff" fill-rule="evenodd"/>
<path transform="matrix(1,0,0,-1,0,841.5)" stroke-width="1.5" stroke-linecap="round" stroke-linejoin="round" fill="none" stroke="#000000" d="M 554.56 751.59 C 554.56 758.98 540.63 764.96 523.46 764.96 C 506.29 764.96 492.37 758.98 492.37 751.59 C 492.37 744.2 506.29 738.21 523.46 738.21 C 540.63 738.21 554.56 744.2 554.56 751.59 Z "/>
<g id="Layer-1" data-name="P">
<clipPath id="cp344">
<path transform="matrix(1,0,0,-1,0,841.5)" d="M .000008862 0 L 594.75 0 L 594.75 841.5 L .000008862 841.5 Z " fill-rule="evenodd"/>
</clipPath>
<g clip-path="url(#cp344)">
<text xml:space="preserve" transform="matrix(1 0 -0 1 0 841.5)" font-size="9" font-family="ArialNarrow" font-weight="bold"><tspan y="-748.8" x="503.38 505.63 509.37403 513.127 517.636 522.14498 526.618 530.371 534.1149 536.35598 538.597 542.35">("shoes", 3)</tspan></text>
</g>
</g>
<clipPath id="cp345">
<path transform="matrix(1,0,0,-1,0,841.5)" d="M .000015259 841.5 L 594.75 841.5 L 594.75 .00018311 L .000015259 .00018311 " fill-rule="evenodd"/>
</clipPath>
<g clip-path="url(#cp345)">
<path transform="matrix(1,0,0,-1,0,841.5)" stroke-width="1.5" stroke-linecap="round" stroke-linejoin="round" fill="none" stroke="#000000" d="M 248.6 791.61 L 248.6 444.78 "/>
</g>
<g id="Layer-1" data-name="P">
<clipPath id="cp346">
<path transform="matrix(1,0,0,-1,0,841.5)" d="M .000008862 0 L 594.75 0 L 594.75 841.5 L .000008862 841.5 Z " fill-rule="evenodd"/>
</clipPath>
<g clip-path="url(#cp346)">
<text xml:space="preserve" transform="matrix(1 0 -0 1 0 841.5)" font-size="9.025" font-family="ArialNarrow" font-weight="bold"><tspan y="-565.9" x="409.03 413.5515 416.52073 420.27513 424.79664 427.76588 429.26405 432.2513 436.74577 440.50016 444.9946 447.24183 451.73628 453.9745">grant reserv. </tspan></text>
</g>
</g>
<g id="Layer-1" data-name="P">
<clipPath id="cp347">
<path transform="matrix(1,0,0,-1,0,841.5)" d="M .000008862 0 L 594.75 0 L 594.75 841.5 L .000008862 841.5 Z " fill-rule="evenodd"/>
</clipPath>
<g clip-path="url(#cp347)">
<text xml:space="preserve" transform="matrix(1 0 -0 1 0 841.5)" font-size="9" font-family="ArialNarrow" font-weight="bold"><tspan y="-555.07" x="411.1 415.609 417.85 420.091 424.6 427.579 432.088 436.59703 441.079 444.832 447.82 451.573">of products </tspan></text>
</g>
</g>
<g id="Layer-1" data-name="P">
<clipPath id="cp348">
<path transform="matrix(1,0,0,-1,0,841.5)" d="M .000008862 0 L 594.75 0 L 594.75 841.5 L .000008862 841.5 Z " fill-rule="evenodd"/>
</clipPath>
<g clip-path="url(#cp348)">
<text xml:space="preserve" transform="matrix(1 0 -0 1 0 841.5)" font-size="9" font-family="ArialNarrow" font-weight="bold"><tspan y="-544.28" x="417.45 419.691 424.2 425.694 430.185 432.435 436.944 441.426">in stock</tspan></text>
</g>
</g>
<g id="Layer-1" data-name="P">
<clipPath id="cp349">
<path transform="matrix(1,0,0,-1,0,841.5)" d="M .000008862 0 L 594.75 0 L 594.75 841.5 L .000008862 841.5 Z " fill-rule="evenodd"/>
</clipPath>
<g clip-path="url(#cp349)">
<text xml:space="preserve" transform="matrix(1 0 -0 1 0 841.5)" font-size="11.275" font-family="ArialNarrow" font-weight="bold"><tspan y="-480.85" x="274.13 279.38417 283.12745 288.3703 293.62446 296.6236 301.86647 307.1206">granted </tspan></text>
</g>
</g>
<g id="Layer-1" data-name="P">
<clipPath id="cp350">
<path transform="matrix(1,0,0,-1,0,841.5)" d="M .000008862 0 L 594.75 0 L 594.75 841.5 L .000008862 841.5 Z " fill-rule="evenodd"/>
</clipPath>
<g clip-path="url(#cp350)">
<text xml:space="preserve" transform="matrix(1 0 -0 1 0 841.5)" font-size="11.25" font-family="ArialNarrow" font-weight="bold"><tspan y="-467.63" x="274.13 277.865 282.365 287.60749 292.84999 295.85374 301.09623">reserv.</tspan></text>
</g>
</g>
</g>
</g>
</svg>
