<?xml version="1.0" encoding="UTF-8" standalone="no"?>
<!DOCTYPE svg PUBLIC "-//W3C//DTD SVG 1.1//EN" "http://www.w3.org/Graphics/SVG/1.1/DTD/svg11.dtd">
<svg xmlns="http://www.w3.org/2000/svg" xmlns:xlink="http://www.w3.org/1999/xlink" version="1.1" width="594.75pt" height="841.5pt" viewBox="0 0 594.75 841.5">
<g enable-background="new">
<g>
<g id="Layer-1" data-name="P">
<clipPath id="cp77">
<path transform="matrix(1,0,0,-1,0,841.5)" d="M .000008862 0 L 594.75 0 L 594.75 841.5 L .000008862 841.5 Z " fill-rule="evenodd"/>
</clipPath>
<g clip-path="url(#cp77)">
<text xml:space="preserve" transform="matrix(1 0 -0 1 0 841.5)" font-size="12" font-family="ArialNarrow" font-weight="bold"><tspan y="-351.2" x="153.6 156.6 162.58802 164.832 167.81999 174.56398">(k, X)</tspan></text>
</g>
</g>
<g id="Layer-1" data-name="P">
<clipPath id="cp78">
<path transform="matrix(1,0,0,-1,0,841.5)" d="M .000008862 0 L 594.75 0 L 594.75 841.5 L .000008862 841.5 Z " fill-rule="evenodd"/>
</clipPath>
<g clip-path="url(#cp78)">
<text xml:space="preserve" transform="matrix(1 0 -0 1 0 841.5)" font-size="12.025" font-family="ArialNarrow" font-weight="bold"><tspan y="-347.8" x="63.55">k</tspan></text>
</g>
</g>
<clipPath id="cp79">
<path transform="matrix(1,0,0,-1,0,841.5)" d="M .000007629 841.5 L 594.75 841.5 L 594.75 .00012207 L .000007629 .00012207 " fill-rule="evenodd"/>
</clipPath>
<g clip-path="url(#cp79)">
<path transform="matrix(1,0,0,-1,0,841.5)" stroke-width="1.5" stroke-linecap="round" stroke-linejoin="round" fill="none" stroke="#000000" d="M 117.01 346.43 L 117.01 296.64 "/>
</g>
<clipPath id="cp80">
<path transform="matrix(1,0,0,-1,0,841.5)" d="M .000007629 841.5 L 594.75 841.5 L 594.75 .00012207 L .000007629 .00012207 " fill-rule="evenodd"/>
</clipPath>
<g clip-path="url(#cp80)">
<path transform="matrix(1,0,0,-1,0,841.5)" d="M 121.75 297.83 L 117.01 283.61 L 112.27 297.83 L 121.75 297.83 Z " fill-rule="evenodd"/>
</g>
<path transform="matrix(1,0,0,-1,0,841.5)" stroke-width="1.5" stroke-linecap="round" stroke-linejoin="round" fill="none" stroke="#000000" d="M 103.28 346.43 L 181.75 346.43 "/>
<path transform="matrix(1,0,0,-1,0,841.5)" d="M 180.57 351.17 L 194.79 346.43 L 180.57 341.69 L 180.57 351.17 Z " fill-rule="evenodd"/>
<path transform="matrix(1,0,0,-1,0,841.5)" stroke-width="1.5" stroke-linecap="round" stroke-linejoin="round" fill="none" stroke="#000000" d="M 43.087 345.39 L 74.106 345.39 "/>
<path transform="matrix(1,0,0,-1,0,841.5)" d="M 72.921 350.13 L 87.141 345.39 L 72.921 340.65 L 72.921 350.13 Z " fill-rule="evenodd"/>
<path transform="matrix(1,0,0,-1,0,841.5)" d="M 87.389 323.9 L 146.638 323.9 L 146.638 367.607 L 87.389 367.607 Z " fill="#ffffff" fill-rule="evenodd"/>
<path transform="matrix(1,0,0,-1,0,841.5)" stroke-width="2" stroke-linecap="round" stroke-linejoin="round" fill="none" stroke="#000000" d="M 87.389 323.9 L 146.638 323.9 L 146.638 367.607 L 87.389 367.607 Z "/>
<g id="Layer-1" data-name="P">
<clipPath id="cp81">
<path transform="matrix(1,0,0,-1,0,841.5)" d="M .000008862 0 L 594.75 0 L 594.75 841.5 L .000008862 841.5 Z " fill-rule="evenodd"/>
</clipPath>
<g clip-path="url(#cp81)">
<text xml:space="preserve" transform="matrix(1 0 -0 1 0 841.5)" font-size="9" font-family="ArialNarrow" font-weight="bold" font-style="italic"><tspan y="-352.75" x="103.93 107.683 109.924 114.415 116.656009 121.90301 124.15301 128.644 130.147">k = Ute, </tspan></text>
</g>
</g>
<g id="Layer-1" data-name="P">
<clipPath id="cp82">
<path transform="matrix(1,0,0,-1,0,841.5)" d="M .000008862 0 L 594.75 0 L 594.75 841.5 L .000008862 841.5 Z " fill-rule="evenodd"/>
</clipPath>
<g clip-path="url(#cp82)">
<text xml:space="preserve" transform="matrix(1 0 -0 1 0 841.5)" font-size="9" font-family="ArialNarrow" font-weight="bold"><tspan y="-342.83" x="111.52 116.757999 118.260997 122.75199">X = </tspan></text>
</g>
</g>
<g id="Layer-1" data-name="P">
<clipPath id="cp83">
<path transform="matrix(1,0,0,-1,0,841.5)" d="M .000008862 0 L 594.75 0 L 594.75 841.5 L .000008862 841.5 Z " fill-rule="evenodd"/>
</clipPath>
<g clip-path="url(#cp83)">
<text xml:space="preserve" transform="matrix(1 0 -0 1 0 841.5)" font-size="9" font-family="ArialNarrow" font-weight="bold"><tspan y="-332.92" x="97.25 100.238 104.747 108.491 110.732 112.97301 117.48201 121.22601 123.46702 125.70802 130.21703">{p1, p2, p2</tspan></text>
</g>
</g>
<g id="Layer-1" data-name="P">
<clipPath id="cp84">
<path transform="matrix(1,0,0,-1,0,841.5)" d="M .000008862 0 L 594.75 0 L 594.75 841.5 L .000008862 841.5 Z " fill-rule="evenodd"/>
</clipPath>
<g clip-path="url(#cp84)">
<text xml:space="preserve" transform="matrix(1 0 -0 1 0 841.5)" font-size="9" font-family="ArialNarrow" font-weight="bold"><tspan y="-332.92" x="134.2 137.2">} </tspan></text>
</g>
</g>
<path transform="matrix(1,0,0,-1,0,841.5)" d="M 157.2 272.61 C 157.2 278.25 139.11 282.81 116.8 282.81 C 94.496 282.81 76.411 278.25 76.411 272.61 C 76.411 266.97 94.496 262.4 116.8 262.4 C 139.11 262.4 157.2 266.97 157.2 272.61 Z " fill="#ffffff" fill-rule="evenodd"/>
<path transform="matrix(1,0,0,-1,0,841.5)" stroke-width="1.5" stroke-linecap="round" stroke-linejoin="round" fill="none" stroke="#000000" d="M 157.2 272.61 C 157.2 278.25 139.11 282.81 116.8 282.81 C 94.496 282.81 76.411 278.25 76.411 272.61 C 76.411 266.97 94.496 262.4 116.8 262.4 C 139.11 262.4 157.2 266.97 157.2 272.61 Z "/>
<g id="Layer-1" data-name="P">
<clipPath id="cp85">
<path transform="matrix(1,0,0,-1,0,841.5)" d="M .000008862 0 L 594.75 0 L 594.75 841.5 L .000008862 841.5 Z " fill-rule="evenodd"/>
</clipPath>
<g clip-path="url(#cp85)">
<text xml:space="preserve" transform="matrix(1 0 -0 1 0 841.5)" font-size="9.025" font-family="ArialNarrow" font-weight="bold" font-style="italic"><tspan y="-272.25" x="116.95"> </tspan></text>
</g>
</g>
<g id="Layer-1" data-name="P">
<clipPath id="cp86">
<path transform="matrix(1,0,0,-1,0,841.5)" d="M .000008862 0 L 594.75 0 L 594.75 841.5 L .000008862 841.5 Z " fill-rule="evenodd"/>
</clipPath>
<g clip-path="url(#cp86)">
<text xml:space="preserve" transform="matrix(1 0 -0 1 0 841.5)" font-size="12.025" font-family="ArialNarrow" font-weight="bold"><tspan y="-306.85" x="120.15 123.144229 129.13268 131.38135 134.36354 141.09755">(k, X)</tspan></text>
</g>
</g>
<path transform="matrix(1,0,0,-1,0,841.5)" d="M 253.42 346.19 C 253.42 355.35 240.16 362.78 223.8 362.78 C 207.43 362.78 194.17 355.35 194.17 346.19 C 194.17 337.04 207.43 329.61 223.8 329.61 C 240.16 329.61 253.42 337.04 253.42 346.19 Z " fill="#ffffff" fill-rule="evenodd"/>
<path transform="matrix(1,0,0,-1,0,841.5)" stroke-width="1.5" stroke-linecap="round" stroke-linejoin="round" fill="none" stroke="#000000" d="M 253.42 346.19 C 253.42 355.35 240.16 362.78 223.8 362.78 C 207.43 362.78 194.17 355.35 194.17 346.19 C 194.17 337.04 207.43 329.61 223.8 329.61 C 240.16 329.61 253.42 337.04 253.42 346.19 Z "/>
<g id="Layer-1" data-name="P">
<clipPath id="cp87">
<path transform="matrix(1,0,0,-1,0,841.5)" d="M .000008862 0 L 594.75 0 L 594.75 841.5 L .000008862 841.5 Z " fill-rule="evenodd"/>
</clipPath>
<g clip-path="url(#cp87)">
<text xml:space="preserve" transform="matrix(1 0 -0 1 0 841.5)" font-size="9.025" font-family="ArialNarrow" font-weight="bold"><tspan y="-335.2" x="224.08"> </tspan></text>
</g>
</g>
<path transform="matrix(1,0,0,-1,0,841.5)" d="M 54.703 344.89 C 54.703 350.53 48.93 355.1 41.808 355.1 C 34.687 355.1 28.913 350.53 28.913 344.89 C 28.913 339.26 34.687 334.69 41.808 334.69 C 48.93 334.69 54.703 339.26 54.703 344.89 Z " fill="#ffffff" fill-rule="evenodd"/>
<path transform="matrix(1,0,0,-1,0,841.5)" stroke-width="1.5" stroke-linecap="round" stroke-linejoin="round" fill="none" stroke="#000000" d="M 54.703 344.89 C 54.703 350.53 48.93 355.1 41.808 355.1 C 34.687 355.1 28.913 350.53 28.913 344.89 C 28.913 339.26 34.687 334.69 41.808 334.69 C 48.93 334.69 54.703 339.26 54.703 344.89 Z "/>
<g id="Layer-1" data-name="P">
<clipPath id="cp88">
<path transform="matrix(1,0,0,-1,0,841.5)" d="M .000008862 0 L 594.75 0 L 594.75 841.5 L .000008862 841.5 Z " fill-rule="evenodd"/>
</clipPath>
<g clip-path="url(#cp88)">
<text xml:space="preserve" transform="matrix(1 0 -0 1 0 841.5)" font-size="9" font-family="ArialNarrow" font-weight="bold"><tspan y="-342.42" x="35.9 41.174 43.451">Ute</tspan></text>
</g>
</g>
<g id="Layer-1" data-name="P">
<clipPath id="cp89">
<path transform="matrix(1,0,0,-1,0,841.5)" d="M .000008862 0 L 594.75 0 L 594.75 841.5 L .000008862 841.5 Z " fill-rule="evenodd"/>
</clipPath>
<g clip-path="url(#cp89)">
<text xml:space="preserve" transform="matrix(1 0 -0 1 0 841.5)" font-size="9" font-family="ArialNarrow" font-weight="bold"><tspan y="-371.08" x="27.875 32.384 35.363 39.871999 43.615999 46.603998 48.844999 53.353998 57.862997">ordering </tspan></text>
</g>
</g>
<g id="Layer-1" data-name="P">
<clipPath id="cp90">
<path transform="matrix(1,0,0,-1,0,841.5)" d="M .000008862 0 L 594.75 0 L 594.75 841.5 L .000008862 841.5 Z " fill-rule="evenodd"/>
</clipPath>
<g clip-path="url(#cp90)">
<text xml:space="preserve" transform="matrix(1 0 -0 1 0 841.5)" font-size="9.025" font-family="ArialNarrow" font-weight="bold"><tspan y="-360.95" x="27.875 31.6294 36.150926 40.6183 42.86553 47.387056 54.11068 57.86508 60.852357 65.34681">customers </tspan></text>
</g>
</g>
<g id="Layer-1" data-name="P">
<clipPath id="cp91">
<path transform="matrix(1,0,0,-1,0,841.5)" d="M .000008862 0 L 594.75 0 L 594.75 841.5 L .000008862 841.5 Z " fill-rule="evenodd"/>
</clipPath>
<g clip-path="url(#cp91)">
<text xml:space="preserve" transform="matrix(1 0 -0 1 0 841.5)" font-size="9.025" font-family="ArialNarrow" font-weight="bold"><tspan y="-368.98" x="199.08 203.60153 208.07794 211.06522 214.81963 219.34116 223.80854 227.56295 232.05739 233.55553 238.79906 241.0463 245.56783 250.0352 253.02249">purchase orders</tspan></text>
</g>
</g>
<g id="Layer-1" data-name="P">
<clipPath id="cp92">
<path transform="matrix(1,0,0,-1,0,841.5)" d="M .000008862 0 L 594.75 0 L 594.75 841.5 L .000008862 841.5 Z " fill-rule="evenodd"/>
</clipPath>
<g clip-path="url(#cp92)">
<text xml:space="preserve" transform="matrix(1 0 -0 1 0 841.5)" font-size="9" font-family="ArialNarrow" font-weight="bold"><tspan y="-275.47" x="170.05 174.559 179.06801 182.03801 185.79102 190.30002 194.78203 198.53504 203.02603">purchase </tspan></text>
</g>
</g>
<g id="Layer-1" data-name="P">
<clipPath id="cp93">
<path transform="matrix(1,0,0,-1,0,841.5)" d="M .000008862 0 L 594.75 0 L 594.75 841.5 L .000008862 841.5 Z " fill-rule="evenodd"/>
</clipPath>
<g clip-path="url(#cp93)">
<text xml:space="preserve" transform="matrix(1 0 -0 1 0 841.5)" font-size="9" font-family="ArialNarrow" font-weight="bold"><tspan y="-265.35" x="158.55 163.059 166.03801 170.54701 174.29102 177.27902 179.52002 183.27303 187.78203 192.29103 194.51404 199.00504">order copies</tspan></text>
</g>
</g>
<g id="Layer-1" data-name="P">
<clipPath id="cp94">
<path transform="matrix(1,0,0,-1,0,841.5)" d="M .000008862 0 L 594.75 0 L 594.75 841.5 L .000008862 841.5 Z " fill-rule="evenodd"/>
</clipPath>
<g clip-path="url(#cp94)">
<text xml:space="preserve" transform="matrix(1 0 -0 1 0 841.5)" font-size="9" font-family="ArialNarrow" font-weight="bold"><tspan y="-384.4" x="97.225 100.978 105.487 110.023 116.791 119.032009 121.282009">submit </tspan></text>
</g>
</g>
<g id="Layer-1" data-name="P">
<clipPath id="cp95">
<path transform="matrix(1,0,0,-1,0,841.5)" d="M .000008862 0 L 594.75 0 L 594.75 841.5 L .000008862 841.5 Z " fill-rule="evenodd"/>
</clipPath>
<g clip-path="url(#cp95)">
<text xml:space="preserve" transform="matrix(1 0 -0 1 0 841.5)" font-size="9" font-family="ArialNarrow" font-weight="bold"><tspan y="-374.28" x="82.45 86.959 91.468 94.438 98.19101 102.70001 107.182018 110.93501 115.42602 116.929019 122.167018 124.417018 128.92601 133.40802">purchase order</tspan></text>
</g>
</g>
</g>
</g>
</svg>
