<?xml version="1.0" encoding="UTF-8" standalone="no"?>
<!DOCTYPE svg PUBLIC "-//W3C//DTD SVG 1.1//EN" "http://www.w3.org/Graphics/SVG/1.1/DTD/svg11.dtd">
<svg xmlns="http://www.w3.org/2000/svg" xmlns:xlink="http://www.w3.org/1999/xlink" version="1.1" width="594.75pt" height="841.5pt" viewBox="0 0 594.75 841.5">
<g enable-background="new">
<g>
<clipPath id="cp264">
<path transform="matrix(1,0,0,-1,0,841.5)" d="M -.000015259 841.5 L 594.75 841.5 L 594.75 .00024414 L .000022888 .00024414 " fill-rule="evenodd"/>
</clipPath>
<g clip-path="url(#cp264)">
<path transform="matrix(1,0,0,-1,0,841.5)" stroke-width="1.5" stroke-linecap="round" stroke-linejoin="round" fill="none" stroke="#000000" d="M 64.937 681.74 L 121.51 650.42 "/>
</g>
<clipPath id="cp265">
<path transform="matrix(1,0,0,-1,0,841.5)" d="M -.000015259 841.5 L 594.75 841.5 L 594.75 .00024414 L .000022888 .00024414 " fill-rule="evenodd"/>
</clipPath>
<g clip-path="url(#cp265)">
<path transform="matrix(1,0,0,-1,0,841.5)" d="M 122.77 655.14 L 132.91 644.1 L 118.17 646.84 L 122.77 655.14 Z " fill-rule="evenodd"/>
</g>
<clipPath id="cp266">
<path transform="matrix(1,0,0,-1,0,841.5)" d="M 0 841.5 L 594.75 841.5 L 594.75 0 L 0 0 " fill-rule="evenodd"/>
</clipPath>
<g clip-path="url(#cp266)">
<path transform="matrix(1,0,0,-1,0,841.5)" stroke-width="1.5" stroke-linecap="round" stroke-linejoin="round" fill="none" stroke="#000000" d="M 162.8 624.64 L 95.303 586.21 "/>
</g>
<clipPath id="cp267">
<path transform="matrix(1,0,0,-1,0,841.5)" d="M 0 841.5 L 594.75 841.5 L 594.75 0 L 0 0 " fill-rule="evenodd"/>
</clipPath>
<g clip-path="url(#cp267)">
<path transform="matrix(1,0,0,-1,0,841.5)" d="M 98.678 582.68 L 83.976 579.76 L 93.988 590.91 L 98.678 582.68 Z " fill-rule="evenodd"/>
</g>
<path transform="matrix(1,0,0,-1,0,841.5)" d="M 96.031 681.91 C 96.031 689.3 82.11 695.29 64.937 695.29 C 47.764 695.29 33.843 689.3 33.843 681.91 C 33.843 674.53 47.764 668.54 64.937 668.54 C 82.11 668.54 96.031 674.53 96.031 681.91 Z " fill="#ffffff" fill-rule="evenodd"/>
<path transform="matrix(1,0,0,-1,0,841.5)" stroke-width="1.5" stroke-linecap="round" stroke-linejoin="round" fill="none" stroke="#000000" d="M 96.031 681.91 C 96.031 689.3 82.11 695.29 64.937 695.29 C 47.764 695.29 33.843 689.3 33.843 681.91 C 33.843 674.53 47.764 668.54 64.937 668.54 C 82.11 668.54 96.031 674.53 96.031 681.91 Z "/>
<g id="Layer-1" data-name="P">
<clipPath id="cp268">
<path transform="matrix(1,0,0,-1,0,841.5)" d="M .000008862 0 L 594.75 0 L 594.75 841.5 L .000008862 841.5 Z " fill-rule="evenodd"/>
</clipPath>
<g clip-path="url(#cp268)">
<text xml:space="preserve" transform="matrix(1 0 -0 1 0 841.5)" font-size="9.025" font-family="ArialNarrow" font-style="italic"><tspan y="-684.47" x="49.4 51.6743 56.186803 59.95925 64.471759 65.96991 68.23518 70.50948 75.02199 78.78541">requ. res.</tspan></text>
</g>
</g>
<g id="Layer-1" data-name="P">
<clipPath id="cp269">
<path transform="matrix(1,0,0,-1,0,841.5)" d="M .000008862 0 L 594.75 0 L 594.75 841.5 L .000008862 841.5 Z " fill-rule="evenodd"/>
</clipPath>
<g clip-path="url(#cp269)">
<text xml:space="preserve" transform="matrix(1 0 -0 1 0 841.5)" font-size="9.025" font-family="ArialNarrow" font-weight="bold"><tspan y="-684.47" x="80.625"> </tspan></text>
</g>
</g>
<g id="Layer-1" data-name="P">
<clipPath id="cp270">
<path transform="matrix(1,0,0,-1,0,841.5)" d="M .000008862 0 L 594.75 0 L 594.75 841.5 L .000008862 841.5 Z " fill-rule="evenodd"/>
</clipPath>
<g clip-path="url(#cp270)">
<text xml:space="preserve" transform="matrix(1 0 -0 1 0 841.5)" font-size="9" font-family="ArialNarrow" font-weight="bold"><tspan y="-673.65" x="44.275 46.525 50.269 54.022 58.531 63.039999 67.513 71.26601 75.01 77.25101 79.49201 83.24501">("shoes", 2)</tspan></text>
</g>
</g>
<path transform="matrix(1,0,0,-1,0,841.5)" d="M 96.031 568.79 C 96.031 576.18 82.11 582.17 64.937 582.17 C 47.764 582.17 33.843 576.18 33.843 568.79 C 33.843 561.4 47.764 555.42 64.937 555.42 C 82.11 555.42 96.031 561.4 96.031 568.79 Z " fill="#ffffff" fill-rule="evenodd"/>
<path transform="matrix(1,0,0,-1,0,841.5)" stroke-width="1.5" stroke-linecap="round" stroke-linejoin="round" fill="none" stroke="#000000" d="M 96.031 568.79 C 96.031 576.18 82.11 582.17 64.937 582.17 C 47.764 582.17 33.843 576.18 33.843 568.79 C 33.843 561.4 47.764 555.42 64.937 555.42 C 82.11 555.42 96.031 561.4 96.031 568.79 Z "/>
<g id="Layer-1" data-name="P">
<clipPath id="cp271">
<path transform="matrix(1,0,0,-1,0,841.5)" d="M .000008862 0 L 594.75 0 L 594.75 841.5 L .000008862 841.5 Z " fill-rule="evenodd"/>
</clipPath>
<g clip-path="url(#cp271)">
<text xml:space="preserve" transform="matrix(1 0 -0 1 0 841.5)" font-size="9" font-family="ArialNarrow" font-style="italic"><tspan y="-571.25" x="43.45 47.203 50.947 54.690999 59.209 62.961999 68.236 70.477 71.979999 74.221 76.471 80.989 84.733">acknowl. res.</tspan></text>
</g>
</g>
<g id="Layer-1" data-name="P">
<clipPath id="cp272">
<path transform="matrix(1,0,0,-1,0,841.5)" d="M .000008862 0 L 594.75 0 L 594.75 841.5 L .000008862 841.5 Z " fill-rule="evenodd"/>
</clipPath>
<g clip-path="url(#cp272)">
<text xml:space="preserve" transform="matrix(1 0 -0 1 0 841.5)" font-size="9" font-family="ArialNarrow" font-weight="bold"><tspan y="-571.25" x="86.575"> </tspan></text>
</g>
</g>
<g id="Layer-1" data-name="P">
<clipPath id="cp273">
<path transform="matrix(1,0,0,-1,0,841.5)" d="M .000008862 0 L 594.75 0 L 594.75 841.5 L .000008862 841.5 Z " fill-rule="evenodd"/>
</clipPath>
<g clip-path="url(#cp273)">
<text xml:space="preserve" transform="matrix(1 0 -0 1 0 841.5)" font-size="9" font-family="ArialNarrow" font-weight="bold"><tspan y="-560.42" x="44.275 46.525 50.269 54.022 58.531 63.039999 67.513 71.26601 75.01 77.25101 79.49201 83.24501">("shoes", 2)</tspan></text>
</g>
</g>
<path transform="matrix(1,0,0,-1,0,841.5)" d="M 128.8 610.42 L 196.805 610.42 L 196.805 644.102 L 128.8 644.102 Z " fill="#ffffff" fill-rule="evenodd"/>
<path transform="matrix(1,0,0,-1,0,841.5)" stroke-width="2" stroke-linecap="round" stroke-linejoin="round" fill="none" stroke="#000000" d="M 128.8 610.42 L 196.805 610.42 L 196.805 644.102 L 128.8 644.102 Z "/>
<g id="Layer-1" data-name="P">
<clipPath id="cp274">
<path transform="matrix(1,0,0,-1,0,841.5)" d="M .000008862 0 L 594.75 0 L 594.75 841.5 L .000008862 841.5 Z " fill-rule="evenodd"/>
</clipPath>
<g clip-path="url(#cp274)">
<text xml:space="preserve" transform="matrix(1 0 -0 1 0 841.5)" font-size="9" font-family="ArialNarrow" font-weight="bold"><tspan y="-629.78" x="139.8 143.55301 148.044 151.79701 156.30602 160.81502 166.79102 169.03202 172.78502 177.29402 181.80303 186.27603">acknowledge </tspan></text>
</g>
</g>
<g id="Layer-1" data-name="P">
<clipPath id="cp275">
<path transform="matrix(1,0,0,-1,0,841.5)" d="M .000008862 0 L 594.75 0 L 594.75 841.5 L .000008862 841.5 Z " fill-rule="evenodd"/>
</clipPath>
<g clip-path="url(#cp275)">
<text xml:space="preserve" transform="matrix(1 0 -0 1 0 841.5)" font-size="9.025" font-family="ArialNarrow" font-weight="bold"><tspan y="-618.97" x="143.1 146.08728 149.84169 154.33614 158.09055 161.07782 165.57227 169.32668 171.5739 173.81209 178.33362">reservation</tspan></text>
</g>
</g>
<clipPath id="cp276">
<path transform="matrix(1,0,0,-1,0,841.5)" d="M .000015259 841.5 L 594.75 841.5 L 594.75 .00018311 L .000015259 .00018311 " fill-rule="evenodd"/>
</clipPath>
<g clip-path="url(#cp276)">
<path transform="matrix(1,0,0,-1,0,841.5)" stroke-width="1.5" stroke-linecap="round" stroke-linejoin="round" fill="none" stroke="#000000" d="M 163.11 693.54 L 163.11 657.14 "/>
</g>
<clipPath id="cp277">
<path transform="matrix(1,0,0,-1,0,841.5)" d="M .000015259 841.5 L 594.75 841.5 L 594.75 .00018311 L .000015259 .00018311 " fill-rule="evenodd"/>
</clipPath>
<g clip-path="url(#cp277)">
<path transform="matrix(1,0,0,-1,0,841.5)" d="M 167.85 658.32 L 163.11 644.1 L 158.37 658.32 L 167.85 658.32 Z " fill-rule="evenodd"/>
</g>
<path transform="matrix(1,0,0,-1,0,841.5)" d="M 193.82 541.64 C 193.82 549.03 179.9 555.02 162.72 555.02 C 145.55 555.02 131.63 549.03 131.63 541.64 C 131.63 534.26 145.55 528.27 162.72 528.27 C 179.9 528.27 193.82 534.26 193.82 541.64 Z " fill="#ffffff" fill-rule="evenodd"/>
<path transform="matrix(1,0,0,-1,0,841.5)" stroke-width="1.5" stroke-linecap="round" stroke-linejoin="round" fill="none" stroke="#000000" d="M 193.82 541.64 C 193.82 549.03 179.9 555.02 162.72 555.02 C 145.55 555.02 131.63 549.03 131.63 541.64 C 131.63 534.26 145.55 528.27 162.72 528.27 C 179.9 528.27 193.82 534.26 193.82 541.64 Z "/>
<g id="Layer-1" data-name="P">
<clipPath id="cp278">
<path transform="matrix(1,0,0,-1,0,841.5)" d="M .000008862 0 L 594.75 0 L 594.75 841.5 L .000008862 841.5 Z " fill-rule="evenodd"/>
</clipPath>
<g clip-path="url(#cp278)">
<text xml:space="preserve" transform="matrix(1 0 -0 1 0 841.5)" font-size="9" font-family="ArialNarrow" font-style="italic"><tspan y="-544.08" x="147.73 151.483 155.974 158.215 161.968 166.459 170.212 173.95601">database</tspan></text>
</g>
</g>
<g id="Layer-1" data-name="P">
<clipPath id="cp279">
<path transform="matrix(1,0,0,-1,0,841.5)" d="M .000008862 0 L 594.75 0 L 594.75 841.5 L .000008862 841.5 Z " fill-rule="evenodd"/>
</clipPath>
<g clip-path="url(#cp279)">
<text xml:space="preserve" transform="matrix(1 0 -0 1 0 841.5)" font-size="9" font-family="ArialNarrow" font-weight="bold"><tspan y="-544.08" x="178.13"> </tspan></text>
</g>
</g>
<g id="Layer-1" data-name="P">
<clipPath id="cp280">
<path transform="matrix(1,0,0,-1,0,841.5)" d="M .000008862 0 L 594.75 0 L 594.75 841.5 L .000008862 841.5 Z " fill-rule="evenodd"/>
</clipPath>
<g clip-path="url(#cp280)">
<text xml:space="preserve" transform="matrix(1 0 -0 1 0 841.5)" font-size="9" font-family="ArialNarrow" font-weight="bold"><tspan y="-533.25" x="142.18 144.43 148.174 151.927 156.436 160.945 165.41802 169.17102 172.91503 175.15602 177.39702 181.15003">("shoes", 1)</tspan></text>
</g>
</g>
<path transform="matrix(1,0,0,-1,0,841.5)" d="M 194.02 709.07 C 194.02 716.46 180.1 722.44 162.93 722.44 C 145.76 722.44 131.83 716.46 131.83 709.07 C 131.83 701.68 145.76 695.69 162.93 695.69 C 180.1 695.69 194.02 701.68 194.02 709.07 Z " fill="#ffffff" fill-rule="evenodd"/>
<path transform="matrix(1,0,0,-1,0,841.5)" stroke-width="1.5" stroke-linecap="round" stroke-linejoin="round" fill="none" stroke="#000000" d="M 194.02 709.07 C 194.02 716.46 180.1 722.44 162.93 722.44 C 145.76 722.44 131.83 716.46 131.83 709.07 C 131.83 701.68 145.76 695.69 162.93 695.69 C 180.1 695.69 194.02 701.68 194.02 709.07 Z "/>
<g id="Layer-1" data-name="P">
<clipPath id="cp281">
<path transform="matrix(1,0,0,-1,0,841.5)" d="M .000008862 0 L 594.75 0 L 594.75 841.5 L .000008862 841.5 Z " fill-rule="evenodd"/>
</clipPath>
<g clip-path="url(#cp281)">
<text xml:space="preserve" transform="matrix(1 0 -0 1 0 841.5)" font-size="9" font-family="ArialNarrow" font-style="italic"><tspan y="-711.65" x="147.93 151.683 156.201 158.442 162.195 166.71302 170.46602 174.21002">database</tspan></text>
</g>
</g>
<g id="Layer-1" data-name="P">
<clipPath id="cp282">
<path transform="matrix(1,0,0,-1,0,841.5)" d="M .000008862 0 L 594.75 0 L 594.75 841.5 L .000008862 841.5 Z " fill-rule="evenodd"/>
</clipPath>
<g clip-path="url(#cp282)">
<text xml:space="preserve" transform="matrix(1 0 -0 1 0 841.5)" font-size="9" font-family="ArialNarrow" font-weight="bold"><tspan y="-700.85" x="142.38 144.63 148.37401 152.12702 156.63602 161.14502 165.61803 169.37104 173.11504 175.35604 177.59703 181.35004">("shoes", 3)</tspan></text>
</g>
</g>
<clipPath id="cp283">
<path transform="matrix(1,0,0,-1,0,841.5)" d="M .000015259 841.5 L 594.75 841.5 L 594.75 .00018311 L .000015259 .00018311 " fill-rule="evenodd"/>
</clipPath>
<g clip-path="url(#cp283)">
<path transform="matrix(1,0,0,-1,0,841.5)" stroke-width="1.5" stroke-linecap="round" stroke-linejoin="round" fill="none" stroke="#000000" d="M 162.72 610.52 L 162.72 567.88 "/>
</g>
<clipPath id="cp284">
<path transform="matrix(1,0,0,-1,0,841.5)" d="M .000015259 841.5 L 594.75 841.5 L 594.75 .00018311 L .000015259 .00018311 " fill-rule="evenodd"/>
</clipPath>
<g clip-path="url(#cp284)">
<path transform="matrix(1,0,0,-1,0,841.5)" d="M 167.46 569.06 L 162.72 554.84 L 157.98 569.06 L 167.46 569.06 Z " fill-rule="evenodd"/>
</g>
</g>
</g>
</svg>
