<?xml version="1.0" encoding="UTF-8" standalone="no"?>
<!DOCTYPE svg PUBLIC "-//W3C//DTD SVG 1.1//EN" "http://www.w3.org/Graphics/SVG/1.1/DTD/svg11.dtd">
<svg xmlns="http://www.w3.org/2000/svg" xmlns:xlink="http://www.w3.org/1999/xlink" version="1.1" width="594.75pt" height="841.5pt" viewBox="0 0 594.75 841.5">
<g enable-background="new">
<g>
<g id="Layer-1" data-name="P">
<clipPath id="cp193">
<path transform="matrix(1,0,0,-1,0,841.5)" d="M .000008862 0 L 594.75 0 L 594.75 841.5 L .000008862 841.5 Z " fill-rule="evenodd"/>
</clipPath>
<g clip-path="url(#cp193)">
<text xml:space="preserve" transform="matrix(1 0 -0 1 0 841.5)" font-size="12.025" font-family="ArialNarrow" font-weight="bold"><tspan y="-566.25" x="471.3 474.29423 480.28266 482.53135 485.51356 492.24754">(k, X)</tspan></text>
</g>
</g>
<g id="Layer-1" data-name="P">
<clipPath id="cp194">
<path transform="matrix(1,0,0,-1,0,841.5)" d="M .000008862 0 L 594.75 0 L 594.75 841.5 L .000008862 841.5 Z " fill-rule="evenodd"/>
</clipPath>
<g clip-path="url(#cp194)">
<text xml:space="preserve" transform="matrix(1 0 -0 1 0 841.5)" font-size="12" font-family="ArialNarrow" font-weight="bold"><tspan y="-562.83" x="384">k</tspan></text>
</g>
</g>
<clipPath id="cp195">
<path transform="matrix(1,0,0,-1,0,841.5)" d="M .000030518 841.5 L 594.75 841.5 L 594.75 .00012207 L .000030518 .00012207 " fill-rule="evenodd"/>
</clipPath>
<g clip-path="url(#cp195)">
<path transform="matrix(1,0,0,-1,0,841.5)" stroke-width="1.5" stroke-linecap="round" stroke-linejoin="round" fill="none" stroke="#000000" d="M 437.04 561.28 L 437.04 511.49 "/>
</g>
<clipPath id="cp196">
<path transform="matrix(1,0,0,-1,0,841.5)" d="M .000030518 841.5 L 594.75 841.5 L 594.75 .00012207 L .000030518 .00012207 " fill-rule="evenodd"/>
</clipPath>
<g clip-path="url(#cp196)">
<path transform="matrix(1,0,0,-1,0,841.5)" d="M 441.78 512.67 L 437.04 498.45 L 432.3 512.67 L 441.78 512.67 Z " fill-rule="evenodd"/>
</g>
<path transform="matrix(1,0,0,-1,0,841.5)" stroke-width="1.5" stroke-linecap="round" stroke-linejoin="round" fill="none" stroke="#000000" d="M 423.32 561.28 L 501.78 561.28 "/>
<path transform="matrix(1,0,0,-1,0,841.5)" d="M 500.6 566.02 L 514.82 561.28 L 500.6 556.54 L 500.6 566.02 Z " fill-rule="evenodd"/>
<path transform="matrix(1,0,0,-1,0,841.5)" stroke-width="1.5" stroke-linecap="round" stroke-linejoin="round" fill="none" stroke="#000000" d="M 331.61 560.23 L 394.14 560.23 "/>
<path transform="matrix(1,0,0,-1,0,841.5)" d="M 392.95 564.97 L 407.17 560.23 L 392.95 555.49 L 392.95 564.97 Z " fill-rule="evenodd"/>
<path transform="matrix(1,0,0,-1,0,841.5)" d="M 407.42 538.74 L 466.669 538.74 L 466.669 582.447 L 407.42 582.447 Z " fill="#ffffff" fill-rule="evenodd"/>
<path transform="matrix(1,0,0,-1,0,841.5)" stroke-width="2" stroke-linecap="round" stroke-linejoin="round" fill="none" stroke="#000000" d="M 407.42 538.74 L 466.669 538.74 L 466.669 582.447 L 407.42 582.447 Z "/>
<g id="Layer-1" data-name="P">
<clipPath id="cp197">
<path transform="matrix(1,0,0,-1,0,841.5)" d="M .000008862 0 L 594.75 0 L 594.75 841.5 L .000008862 841.5 Z " fill-rule="evenodd"/>
</clipPath>
<g clip-path="url(#cp197)">
<text xml:space="preserve" transform="matrix(1 0 -0 1 0 841.5)" font-size="9" font-family="ArialNarrow" font-weight="bold"><tspan y="-570.47" x="415.32 417.57 422.061 423.564 428.055 430.296 435.543 437.793 442.284 444.525 446.02799 451.266 453.507 455.00999 459.51899">(k = Ute, X in </tspan></text>
</g>
</g>
<g id="Layer-1" data-name="P">
<clipPath id="cp198">
<path transform="matrix(1,0,0,-1,0,841.5)" d="M .000008862 0 L 594.75 0 L 594.75 841.5 L .000008862 841.5 Z " fill-rule="evenodd"/>
</clipPath>
<g clip-path="url(#cp198)">
<text xml:space="preserve" transform="matrix(1 0 -0 1 0 841.5)" font-size="9" font-family="ArialNarrow" font-weight="bold"><tspan y="-562.38" x="415.23 418.21803 421.20603 425.71504 429.45906 431.70005 433.94105 438.45005 442.19407 444.43507 446.67607 451.18507">{{p1, p2, p2</tspan></text>
</g>
</g>
<g id="Layer-1" data-name="P">
<clipPath id="cp199">
<path transform="matrix(1,0,0,-1,0,841.5)" d="M .000008862 0 L 594.75 0 L 594.75 841.5 L .000008862 841.5 Z " fill-rule="evenodd"/>
</clipPath>
<g clip-path="url(#cp199)">
<text xml:space="preserve" transform="matrix(1 0 -0 1 0 841.5)" font-size="9" font-family="ArialNarrow" font-weight="bold"><tspan y="-562.38" x="455.05 458.038 460.279">}, </tspan></text>
</g>
</g>
<g id="Layer-1" data-name="P">
<clipPath id="cp200">
<path transform="matrix(1,0,0,-1,0,841.5)" d="M .000008862 0 L 594.75 0 L 594.75 841.5 L .000008862 841.5 Z " fill-rule="evenodd"/>
</clipPath>
<g clip-path="url(#cp200)">
<text xml:space="preserve" transform="matrix(1 0 -0 1 0 841.5)" font-size="9.025" font-family="ArialNarrow" font-weight="bold"><tspan y="-554.28" x="416.75 419.76435 424.28587 428.06733 431.08168 434.096 436.37034 438.63563 443.15715 446.1805 448.4458 452.21824 454.48353 458.996">{p2}}) or k = </tspan></text>
</g>
</g>
<g id="Layer-1" data-name="P">
<clipPath id="cp201">
<path transform="matrix(1,0,0,-1,0,841.5)" d="M .000008862 0 L 594.75 0 L 594.75 841.5 L .000008862 841.5 Z " fill-rule="evenodd"/>
</clipPath>
<g clip-path="url(#cp201)">
<text xml:space="preserve" transform="matrix(1 0 -0 1 0 841.5)" font-size="9" font-family="ArialNarrow" font-weight="bold"><tspan y="-546.15" x="414.5 420.503 424.994 428.74699 430.98799 433.22898 437.72898 439.96998 444.46098 445.96397 448.95198 453.46098 457.94297 460.93098 462.43397">Max, X = {p1}  </tspan></text>
</g>
</g>
<path transform="matrix(1,0,0,-1,0,841.5)" d="M 570.05 561.54 C 570.05 573.61 557.68 583.39 542.43 583.39 C 527.18 583.39 514.82 573.61 514.82 561.54 C 514.82 549.47 527.18 539.69 542.43 539.69 C 557.68 539.69 570.05 549.47 570.05 561.54 Z " fill="#ffffff" fill-rule="evenodd"/>
<path transform="matrix(1,0,0,-1,0,841.5)" stroke-width="1.5" stroke-linecap="round" stroke-linejoin="round" fill="none" stroke="#000000" d="M 570.05 561.54 C 570.05 573.61 557.68 583.39 542.43 583.39 C 527.18 583.39 514.82 573.61 514.82 561.54 C 514.82 549.47 527.18 539.69 542.43 539.69 C 557.68 539.69 570.05 549.47 570.05 561.54 Z "/>
<g id="Layer-1" data-name="P">
<clipPath id="cp202">
<path transform="matrix(1,0,0,-1,0,841.5)" d="M .000008862 0 L 594.75 0 L 594.75 841.5 L .000008862 841.5 Z " fill-rule="evenodd"/>
</clipPath>
<g clip-path="url(#cp202)">
<text xml:space="preserve" transform="matrix(1 0 -0 1 0 841.5)" font-size="9" font-family="ArialNarrow" font-weight="bold"><tspan y="-573.07" x="543.13"> </tspan></text>
</g>
</g>
<path transform="matrix(1,0,0,-1,0,841.5)" d="M 477.23 481.07 C 477.23 490.23 459.14 497.66 436.84 497.66 C 414.53 497.66 396.44 490.23 396.44 481.07 C 396.44 471.92 414.53 464.49 436.84 464.49 C 459.14 464.49 477.23 471.92 477.23 481.07 Z " fill="#ffffff" fill-rule="evenodd"/>
<path transform="matrix(1,0,0,-1,0,841.5)" stroke-width="1.5" stroke-linecap="round" stroke-linejoin="round" fill="none" stroke="#000000" d="M 477.23 481.07 C 477.23 490.23 459.14 497.66 436.84 497.66 C 414.53 497.66 396.44 490.23 396.44 481.07 C 396.44 471.92 414.53 464.49 436.84 464.49 C 459.14 464.49 477.23 471.92 477.23 481.07 Z "/>
<g id="Layer-1" data-name="P">
<clipPath id="cp203">
<path transform="matrix(1,0,0,-1,0,841.5)" d="M .000008862 0 L 594.75 0 L 594.75 841.5 L .000008862 841.5 Z " fill-rule="evenodd"/>
</clipPath>
<g clip-path="url(#cp203)">
<text xml:space="preserve" transform="matrix(1 0 -0 1 0 841.5)" font-size="9" font-family="ArialNarrow" font-weight="bold"><tspan y="-487.27" x="437.4"> </tspan></text>
</g>
</g>
<path transform="matrix(1,0,0,-1,0,841.5)" d="M 374.91 560.74 C 374.91 572.81 362.54 582.6 347.29 582.6 C 332.04 582.6 319.68 572.81 319.68 560.74 C 319.68 548.67 332.04 538.89 347.29 538.89 C 362.54 538.89 374.91 548.67 374.91 560.74 Z " fill="#ffffff" fill-rule="evenodd"/>
<path transform="matrix(1,0,0,-1,0,841.5)" stroke-width="1.5" stroke-linecap="round" stroke-linejoin="round" fill="none" stroke="#000000" d="M 374.91 560.74 C 374.91 572.81 362.54 582.6 347.29 582.6 C 332.04 582.6 319.68 572.81 319.68 560.74 C 319.68 548.67 332.04 538.89 347.29 538.89 C 362.54 538.89 374.91 548.67 374.91 560.74 Z "/>
<g id="Layer-1" data-name="P">
<clipPath id="cp204">
<path transform="matrix(1,0,0,-1,0,841.5)" d="M .000008862 0 L 594.75 0 L 594.75 841.5 L .000008862 841.5 Z " fill-rule="evenodd"/>
</clipPath>
<g clip-path="url(#cp204)">
<text xml:space="preserve" transform="matrix(1 0 -0 1 0 841.5)" font-size="9" font-family="ArialNarrow" font-weight="bold"><tspan y="-562.53" x="341.77 347.044 349.294">Ute</tspan></text>
</g>
</g>
<g id="Layer-1" data-name="P">
<clipPath id="cp205">
<path transform="matrix(1,0,0,-1,0,841.5)" d="M .000008862 0 L 594.75 0 L 594.75 841.5 L .000008862 841.5 Z " fill-rule="evenodd"/>
</clipPath>
<g clip-path="url(#cp205)">
<text xml:space="preserve" transform="matrix(1 0 -0 1 0 841.5)" font-size="9.025" font-family="ArialNarrow" font-weight="bold"><tspan y="-554.42" x="340.55 346.5516 351.04606">Max</tspan></text>
</g>
</g>
<g id="Layer-1" data-name="P">
<clipPath id="cp206">
<path transform="matrix(1,0,0,-1,0,841.5)" d="M .000008862 0 L 594.75 0 L 594.75 841.5 L .000008862 841.5 Z " fill-rule="evenodd"/>
</clipPath>
<g clip-path="url(#cp206)">
<text xml:space="preserve" transform="matrix(1 0 -0 1 0 841.5)" font-size="12" font-family="ArialNarrow" font-weight="bold"><tspan y="-521.88" x="438.25 441.25 447.23799 449.48197 452.46998 459.21397">(k, X)</tspan></text>
</g>
</g>
<g id="Layer-1" data-name="P">
<clipPath id="cp207">
<path transform="matrix(1,0,0,-1,0,841.5)" d="M .000008862 0 L 594.75 0 L 594.75 841.5 L .000008862 841.5 Z " fill-rule="evenodd"/>
</clipPath>
<g clip-path="url(#cp207)">
<text xml:space="preserve" transform="matrix(1 0 -0 1 0 841.5)" font-size="9" font-family="ArialNarrow" font-weight="bold"><tspan y="-598.85" x="333.02 337.529 340.56199 345.07099 348.86 351.875 354.143 358.652 363.18803">ordering </tspan></text>
</g>
</g>
<g id="Layer-1" data-name="P">
<clipPath id="cp208">
<path transform="matrix(1,0,0,-1,0,841.5)" d="M .000008862 0 L 594.75 0 L 594.75 841.5 L .000008862 841.5 Z " fill-rule="evenodd"/>
</clipPath>
<g clip-path="url(#cp208)">
<text xml:space="preserve" transform="matrix(1 0 -0 1 0 841.5)" font-size="9.025" font-family="ArialNarrow" font-weight="bold"><tspan y="-588.72" x="333.02 336.79243 341.31394 345.83546 348.10978 352.6313 359.40003 363.17247 366.1868 370.69929">customers </tspan></text>
</g>
</g>
<g id="Layer-1" data-name="P">
<clipPath id="cp209">
<path transform="matrix(1,0,0,-1,0,841.5)" d="M .000008862 0 L 594.75 0 L 594.75 841.5 L .000008862 841.5 Z " fill-rule="evenodd"/>
</clipPath>
<g clip-path="url(#cp209)">
<text xml:space="preserve" transform="matrix(1 0 -0 1 0 841.5)" font-size="9.025" font-family="ArialNarrow" font-weight="bold"><tspan y="-591.97" x="508.85 513.3715 517.89309 520.91647 524.6889 529.21047 533.732 537.50448 542.01699 543.5422 548.8038 551.07809 555.5996 560.12118 563.1355">purchase orders</tspan></text>
</g>
</g>
<g id="Layer-1" data-name="P">
<clipPath id="cp210">
<path transform="matrix(1,0,0,-1,0,841.5)" d="M .000008862 0 L 594.75 0 L 594.75 841.5 L .000008862 841.5 Z " fill-rule="evenodd"/>
</clipPath>
<g clip-path="url(#cp210)">
<text xml:space="preserve" transform="matrix(1 0 -0 1 0 841.5)" font-size="9" font-family="ArialNarrow" font-weight="bold"><tspan y="-478.88" x="488.65 493.159 497.668 500.638 504.391 508.9 513.38198 517.13497 521.626">purchase </tspan></text>
</g>
</g>
<g id="Layer-1" data-name="P">
<clipPath id="cp211">
<path transform="matrix(1,0,0,-1,0,841.5)" d="M .000008862 0 L 594.75 0 L 594.75 841.5 L .000008862 841.5 Z " fill-rule="evenodd"/>
</clipPath>
<g clip-path="url(#cp211)">
<text xml:space="preserve" transform="matrix(1 0 -0 1 0 841.5)" font-size="9" font-family="ArialNarrow" font-weight="bold"><tspan y="-468.75" x="477.15 481.659 484.638 489.147 492.89103 495.87904 498.12004 501.87303 506.38203 510.89103 513.114 517.60507">order copies</tspan></text>
</g>
</g>
<g id="Layer-1" data-name="P">
<clipPath id="cp212">
<path transform="matrix(1,0,0,-1,0,841.5)" d="M .000008862 0 L 594.75 0 L 594.75 841.5 L .000008862 841.5 Z " fill-rule="evenodd"/>
</clipPath>
<g clip-path="url(#cp212)">
<text xml:space="preserve" transform="matrix(1 0 -0 1 0 841.5)" font-size="9" font-family="ArialNarrow" font-weight="bold"><tspan y="-598.05" x="422.63 426.383 430.892 435.401 442.124 444.365 446.615">submit </tspan></text>
</g>
</g>
<g id="Layer-1" data-name="P">
<clipPath id="cp213">
<path transform="matrix(1,0,0,-1,0,841.5)" d="M .000008862 0 L 594.75 0 L 594.75 841.5 L .000008862 841.5 Z " fill-rule="evenodd"/>
</clipPath>
<g clip-path="url(#cp213)">
<text xml:space="preserve" transform="matrix(1 0 -0 1 0 841.5)" font-size="9.025" font-family="ArialNarrow" font-weight="bold"><tspan y="-587.92" x="407.83 412.3515 416.87303 419.8964 423.66883 428.19035 432.71186 436.48429 440.99678 442.522 447.78358 450.05787 454.57939 459.1009">purchase order</tspan></text>
</g>
</g>
</g>
</g>
</svg>
