<?xml version="1.0" encoding="UTF-8" standalone="no"?>
<!DOCTYPE svg PUBLIC "-//W3C//DTD SVG 1.1//EN" "http://www.w3.org/Graphics/SVG/1.1/DTD/svg11.dtd">
<svg xmlns="http://www.w3.org/2000/svg" xmlns:xlink="http://www.w3.org/1999/xlink" version="1.1" width="594.75pt" height="841.5pt" viewBox="0 0 594.75 841.5">
<g enable-background="new">
<g>
<clipPath id="cp351">
<path transform="matrix(1,0,0,-1,0,841.5)" d="M -.000030518 841.5 L 594.75 841.5 L 594.75 .00024414 L -.000015259 .00018311 " fill-rule="evenodd"/>
</clipPath>
<g clip-path="url(#cp351)">
<path transform="matrix(1,0,0,-1,0,841.5)" stroke-width="1.5" stroke-linecap="round" stroke-linejoin="round" fill="none" stroke="#000000" d="M 190.1 761.91 L 297.94 734.8 "/>
</g>
<clipPath id="cp352">
<path transform="matrix(1,0,0,-1,0,841.5)" d="M -.000030518 841.5 L 594.75 841.5 L 594.75 .00024414 L -.000015259 .00018311 " fill-rule="evenodd"/>
</clipPath>
<g clip-path="url(#cp352)">
<path transform="matrix(1,0,0,-1,0,841.5)" d="M 297.95 739.69 L 310.58 731.63 L 295.64 730.5 L 297.95 739.69 Z " fill-rule="evenodd"/>
</g>
<clipPath id="cp353">
<path transform="matrix(1,0,0,-1,0,841.5)" d="M -.000015259 841.5 L 594.75 841.5 L 594.75 .00024414 L 0 .00018311 " fill-rule="evenodd"/>
</clipPath>
<g clip-path="url(#cp353)">
<path transform="matrix(1,0,0,-1,0,841.5)" stroke-width="1.5" stroke-linecap="round" stroke-linejoin="round" fill="none" stroke="#000000" d="M 190.1 761.91 L 297.11 708.09 "/>
</g>
<clipPath id="cp354">
<path transform="matrix(1,0,0,-1,0,841.5)" d="M -.000015259 841.5 L 594.75 841.5 L 594.75 .00024414 L 0 .00018311 " fill-rule="evenodd"/>
</clipPath>
<g clip-path="url(#cp354)">
<path transform="matrix(1,0,0,-1,0,841.5)" d="M 298.18 712.86 L 308.75 702.23 L 293.92 704.39 L 298.18 712.86 Z " fill-rule="evenodd"/>
</g>
<clipPath id="cp355">
<path transform="matrix(1,0,0,-1,0,841.5)" d="M -.000030518 841.5 L 594.75 841.5 L 594.75 .00018311 L -.000045776 .00012207 " fill-rule="evenodd"/>
</clipPath>
<g clip-path="url(#cp355)">
<path transform="matrix(1,0,0,-1,0,841.5)" stroke-width="1.5" stroke-linecap="round" stroke-linejoin="round" fill="none" stroke="#000000" d="M 190.1 761.91 L 307.19 679.38 "/>
</g>
<clipPath id="cp356">
<path transform="matrix(1,0,0,-1,0,841.5)" d="M -.000030518 841.5 L 594.75 841.5 L 594.75 .00018311 L -.000045776 .00012207 " fill-rule="evenodd"/>
</clipPath>
<g clip-path="url(#cp356)">
<path transform="matrix(1,0,0,-1,0,841.5)" d="M 308.96 683.94 L 317.85 671.87 L 303.5 676.19 L 308.96 683.94 Z " fill-rule="evenodd"/>
</g>
<clipPath id="cp357">
<path transform="matrix(1,0,0,-1,0,841.5)" d="M .000015259 841.5 L 594.75 841.5 L 594.75 .00024414 L .000015259 .00018311 " fill-rule="evenodd"/>
</clipPath>
<g clip-path="url(#cp357)">
<path transform="matrix(1,0,0,-1,0,841.5)" stroke-width="1.5" stroke-linecap="round" stroke-linejoin="round" fill="none" stroke="#000000" d="M 190.1 761.91 L 190.42 694.44 "/>
</g>
<clipPath id="cp358">
<path transform="matrix(1,0,0,-1,0,841.5)" d="M .000015259 841.5 L 594.75 841.5 L 594.75 .00024414 L .000015259 .00018311 " fill-rule="evenodd"/>
</clipPath>
<g clip-path="url(#cp358)">
<path transform="matrix(1,0,0,-1,0,841.5)" d="M 195.16 695.65 L 190.48 681.41 L 185.68 695.61 L 195.16 695.65 Z " fill-rule="evenodd"/>
</g>
<clipPath id="cp359">
<path transform="matrix(1,0,0,-1,0,841.5)" d="M -.000015259 841.5 L 594.75 841.5 L 594.75 .00030518 L -.000015259 .00024414 " fill-rule="evenodd"/>
</clipPath>
<g clip-path="url(#cp359)">
<path transform="matrix(1,0,0,-1,0,841.5)" stroke-width="1.5" stroke-linecap="round" stroke-linejoin="round" fill="none" stroke="#000000" d="M 66.323 761.67 L 128.36 761.28 "/>
</g>
<clipPath id="cp360">
<path transform="matrix(1,0,0,-1,0,841.5)" d="M -.000015259 841.5 L 594.75 841.5 L 594.75 .00030518 L -.000015259 .00024414 " fill-rule="evenodd"/>
</clipPath>
<g clip-path="url(#cp360)">
<path transform="matrix(1,0,0,-1,0,841.5)" d="M 127.2 766.02 L 141.39 761.19 L 127.14 756.54 L 127.2 766.02 Z " fill-rule="evenodd"/>
</g>
<clipPath id="cp361">
<path transform="matrix(1,0,0,-1,0,841.5)" d="M -.000030518 841.5 L 594.75 841.5 L 594.75 .00018311 L -.000030518 .00018311 " fill-rule="evenodd"/>
</clipPath>
<g clip-path="url(#cp361)">
<path transform="matrix(1,0,0,-1,0,841.5)" stroke-width="1.5" stroke-linecap="round" stroke-linejoin="round" fill="none" stroke="#000000" d="M 193.42 764.73 L 343.65 776.23 "/>
</g>
<clipPath id="cp362">
<path transform="matrix(1,0,0,-1,0,841.5)" d="M -.000030518 841.5 L 594.75 841.5 L 594.75 .00018311 L -.000015259 .00018311 " fill-rule="evenodd"/>
</clipPath>
<g clip-path="url(#cp362)">
<path transform="matrix(1,0,0,-1,0,841.5)" stroke-width="1.5" stroke-linecap="round" stroke-linejoin="round" fill="none" stroke="#000000" d="M 194.83 762.46 L 340.17 744.01 "/>
</g>
<clipPath id="cp363">
<path transform="matrix(1,0,0,-1,0,841.5)" d="M -.000061035 841.5 L 594.75 841.5 L 594.75 .00030518 L -.000061035 .00018311 " fill-rule="evenodd"/>
</clipPath>
<g clip-path="url(#cp363)">
<path transform="matrix(1,0,0,-1,0,841.5)" stroke-width="1.5" stroke-linecap="round" stroke-linejoin="round" fill="none" stroke="#000000" d="M 340.17 744 L 369.09 743.83 "/>
</g>
<clipPath id="cp364">
<path transform="matrix(1,0,0,-1,0,841.5)" d="M -.000061035 841.5 L 594.75 841.5 L 594.75 .00030518 L -.000061035 .00018311 " fill-rule="evenodd"/>
</clipPath>
<g clip-path="url(#cp364)">
<path transform="matrix(1,0,0,-1,0,841.5)" d="M 367.93 748.58 L 382.13 743.75 L 367.88 739.1 L 367.93 748.58 Z " fill-rule="evenodd"/>
</g>
<clipPath id="cp365">
<path transform="matrix(1,0,0,-1,0,841.5)" d="M -.000030518 841.5 L 594.75 841.5 L 594.75 .000061035 L -.000045776 0 " fill-rule="evenodd"/>
</clipPath>
<g clip-path="url(#cp365)">
<path transform="matrix(1,0,0,-1,0,841.5)" stroke-width="1.5" stroke-linecap="round" stroke-linejoin="round" fill="none" stroke="#000000" d="M 180.71 761.57 L 368.98 760.37 "/>
</g>
<clipPath id="cp366">
<path transform="matrix(1,0,0,-1,0,841.5)" d="M -.000030518 841.5 L 594.75 841.5 L 594.75 .000061035 L -.000045776 0 " fill-rule="evenodd"/>
</clipPath>
<g clip-path="url(#cp366)">
<path transform="matrix(1,0,0,-1,0,841.5)" d="M 367.83 765.12 L 382.02 760.29 L 367.77 755.64 L 367.83 765.12 Z " fill-rule="evenodd"/>
</g>
<clipPath id="cp367">
<path transform="matrix(1,0,0,-1,0,841.5)" d="M -.000030518 841.5 L 594.75 841.5 L 594.75 .00018311 L -.000030518 .00012207 " fill-rule="evenodd"/>
</clipPath>
<g clip-path="url(#cp367)">
<path transform="matrix(1,0,0,-1,0,841.5)" stroke-width="1.5" stroke-linecap="round" stroke-linejoin="round" fill="none" stroke="#000000" d="M 343.65 776.23 L 369.29 776.06 "/>
</g>
<clipPath id="cp368">
<path transform="matrix(1,0,0,-1,0,841.5)" d="M -.000030518 841.5 L 594.75 841.5 L 594.75 .00018311 L -.000030518 .00012207 " fill-rule="evenodd"/>
</clipPath>
<g clip-path="url(#cp368)">
<path transform="matrix(1,0,0,-1,0,841.5)" d="M 368.13 780.81 L 382.32 775.97 L 368.07 771.33 L 368.13 780.81 Z " fill-rule="evenodd"/>
</g>
<path transform="matrix(1,0,0,-1,0,841.5)" d="M 109.13 761.63 C 109.13 770.79 91.049 778.21 68.74 778.21 C 46.431 778.21 28.346 770.79 28.346 761.63 C 28.346 752.47 46.431 745.05 68.74 745.05 C 91.049 745.05 109.13 752.47 109.13 761.63 Z " fill="#ffffff" fill-rule="evenodd"/>
<path transform="matrix(1,0,0,-1,0,841.5)" stroke-width="1.5" stroke-linecap="round" stroke-linejoin="round" fill="none" stroke="#000000" d="M 109.13 761.63 C 109.13 770.79 91.049 778.21 68.74 778.21 C 46.431 778.21 28.346 770.79 28.346 761.63 C 28.346 752.47 46.431 745.05 68.74 745.05 C 91.049 745.05 109.13 752.47 109.13 761.63 Z "/>
<g id="Layer-1" data-name="P">
<clipPath id="cp369">
<path transform="matrix(1,0,0,-1,0,841.5)" d="M .000008862 0 L 594.75 0 L 594.75 841.5 L .000008862 841.5 Z " fill-rule="evenodd"/>
</clipPath>
<g clip-path="url(#cp369)">
<text xml:space="preserve" transform="matrix(1 0 -0 1 0 841.5)" font-size="9" font-family="ArialNarrow" font-style="italic"><tspan y="-766.05" x="47.55 51.302999 55.794 58.044 61.788 66.279 67.782 70.023 74.514 76.764 80.517 85.008 87.258">purch. order </tspan></text>
</g>
</g>
<g id="Layer-1" data-name="P">
<clipPath id="cp370">
<path transform="matrix(1,0,0,-1,0,841.5)" d="M .000008862 0 L 594.75 0 L 594.75 841.5 L .000008862 841.5 Z " fill-rule="evenodd"/>
</clipPath>
<g clip-path="url(#cp370)">
<text xml:space="preserve" transform="matrix(1 0 -0 1 0 841.5)" font-size="9" font-family="ArialNarrow" font-weight="bold"><tspan y="-755.22" x="38.45 40.7 45.947 48.934999 52.687997">(Ute,</tspan></text>
</g>
</g>
<g id="Layer-1" data-name="Span">
<clipPath id="cp371">
<path transform="matrix(1,0,0,-1,0,841.5)" d="M .000008862 0 L 594.75 0 L 594.75 841.5 L .000008862 841.5 Z " fill-rule="evenodd"/>
</clipPath>
<g clip-path="url(#cp371)">
<text xml:space="preserve" transform="matrix(1 0 -0 1 0 841.5)" font-size="9" font-family="ArialNarrow" font-weight="bold"><tspan y="-755.22" x="54.85"> </tspan></text>
</g>
</g>
<g id="Layer-1" data-name="P">
<clipPath id="cp372">
<path transform="matrix(1,0,0,-1,0,841.5)" d="M .000008862 0 L 594.75 0 L 594.75 841.5 L .000008862 841.5 Z " fill-rule="evenodd"/>
</clipPath>
<g clip-path="url(#cp372)">
<text xml:space="preserve" transform="matrix(1 0 -0 1 0 841.5)" font-size="9" font-family="ArialNarrow" font-weight="bold"><tspan y="-755.22" x="56.925 59.913 64.422 68.166 70.407009 72.64801 77.15701 80.90102 83.14202 85.383029 89.89203">{p1, p2, p2</tspan></text>
</g>
</g>
<g id="Layer-1" data-name="P">
<clipPath id="cp373">
<path transform="matrix(1,0,0,-1,0,841.5)" d="M .000008862 0 L 594.75 0 L 594.75 841.5 L .000008862 841.5 Z " fill-rule="evenodd"/>
</clipPath>
<g clip-path="url(#cp373)">
<text xml:space="preserve" transform="matrix(1 0 -0 1 0 841.5)" font-size="9" font-family="ArialNarrow" font-weight="bold"><tspan y="-755.22" x="93.875 96.875">})</tspan></text>
</g>
</g>
<path transform="matrix(1,0,0,-1,0,841.5)" d="M 141.38 744.81 L 238.828 744.81 L 238.828 777.975 L 141.38 777.975 Z " fill="#ffffff" fill-rule="evenodd"/>
<path transform="matrix(1,0,0,-1,0,841.5)" stroke-width="2" stroke-linecap="round" stroke-linejoin="round" fill="none" stroke="#000000" d="M 141.38 744.81 L 238.828 744.81 L 238.828 777.975 L 141.38 777.975 Z "/>
<g id="Layer-1" data-name="P">
<clipPath id="cp374">
<path transform="matrix(1,0,0,-1,0,841.5)" d="M .000008862 0 L 594.75 0 L 594.75 841.5 L .000008862 841.5 Z " fill-rule="evenodd"/>
</clipPath>
<g clip-path="url(#cp374)">
<text xml:space="preserve" transform="matrix(1 0 -0 1 0 841.5)" font-size="9" font-family="ArialNarrow" font-weight="bold"><tspan y="-764.03" x="168.15 172.659 174.94499 178.716 183.23401 187.00502 191.52303 195.29404 202.06204 206.57105 208.85704 212.62805">disassemble </tspan></text>
</g>
</g>
<g id="Layer-1" data-name="P">
<clipPath id="cp375">
<path transform="matrix(1,0,0,-1,0,841.5)" d="M .000008862 0 L 594.75 0 L 594.75 841.5 L .000008862 841.5 Z " fill-rule="evenodd"/>
</clipPath>
<g clip-path="url(#cp375)">
<text xml:space="preserve" transform="matrix(1 0 -0 1 0 841.5)" font-size="9.025" font-family="ArialNarrow" font-weight="bold"><tspan y="-753.22" x="163.45 167.97153 172.44794 175.43521 179.18962 183.71115 188.17853 191.93294 196.42739 197.92552 203.16905 205.41629 209.93782 214.4052">purchase order</tspan></text>
</g>
</g>
<path transform="matrix(1,0,0,-1,0,841.5)" d="M 442.45 777.12 C 442.45 780.39 428.53 783.04 411.35 783.04 C 394.18 783.04 380.26 780.39 380.26 777.12 C 380.26 773.86 394.18 771.21 411.35 771.21 C 428.53 771.21 442.45 773.86 442.45 777.12 Z " fill="#ffffff" fill-rule="evenodd"/>
<path transform="matrix(1,0,0,-1,0,841.5)" stroke-width="1.5" stroke-linecap="round" stroke-linejoin="round" fill="none" stroke="#000000" d="M 442.45 777.12 C 442.45 780.39 428.53 783.04 411.35 783.04 C 394.18 783.04 380.26 780.39 380.26 777.12 C 380.26 773.86 394.18 771.21 411.35 771.21 C 428.53 771.21 442.45 773.86 442.45 777.12 Z "/>
<g id="Layer-1" data-name="P">
<clipPath id="cp376">
<path transform="matrix(1,0,0,-1,0,841.5)" d="M .000008862 0 L 594.75 0 L 594.75 841.5 L .000008862 841.5 Z " fill-rule="evenodd"/>
</clipPath>
<g clip-path="url(#cp376)">
<text xml:space="preserve" transform="matrix(1 0 -0 1 0 841.5)" font-size="9" font-family="ArialNarrow" font-style="italic"><tspan y="-774.35" x="386 388.25 392.741 396.494 400.985 404.73799 408.48197 410.72297 412.96397 414.46696 417.45497 421.20796 424.95195">request. res.</tspan></text>
</g>
</g>
<g id="Layer-1" data-name="P">
<clipPath id="cp377">
<path transform="matrix(1,0,0,-1,0,841.5)" d="M .000008862 0 L 594.75 0 L 594.75 841.5 L .000008862 841.5 Z " fill-rule="evenodd"/>
</clipPath>
<g clip-path="url(#cp377)">
<text xml:space="preserve" transform="matrix(1 0 -0 1 0 841.5)" font-size="9" font-family="ArialNarrow" font-weight="bold"><tspan y="-774.35" x="427.08"> </tspan></text>
</g>
</g>
<g id="Layer-1" data-name="P">
<clipPath id="cp378">
<path transform="matrix(1,0,0,-1,0,841.5)" d="M .000008862 0 L 594.75 0 L 594.75 841.5 L .000008862 841.5 Z " fill-rule="evenodd"/>
</clipPath>
<g clip-path="url(#cp378)">
<text xml:space="preserve" transform="matrix(1 0 -0 1 0 841.5)" font-size="9" font-family="ArialNarrow" font-weight="bold"><tspan y="-774.35" x="429.13 433.63">p1</tspan></text>
</g>
</g>
<path transform="matrix(1,0,0,-1,0,841.5)" d="M 231.4 664.83 C 231.4 673.99 213.32 681.41 191.01 681.41 C 168.7 681.41 150.61 673.99 150.61 664.83 C 150.61 655.67 168.7 648.25 191.01 648.25 C 213.32 648.25 231.4 655.67 231.4 664.83 Z " fill="#ffffff" fill-rule="evenodd"/>
<path transform="matrix(1,0,0,-1,0,841.5)" stroke-width="1.5" stroke-linecap="round" stroke-linejoin="round" fill="none" stroke="#000000" d="M 231.4 664.83 C 231.4 673.99 213.32 681.41 191.01 681.41 C 168.7 681.41 150.61 673.99 150.61 664.83 C 150.61 655.67 168.7 648.25 191.01 648.25 C 213.32 648.25 231.4 655.67 231.4 664.83 Z "/>
<g id="Layer-1" data-name="P">
<clipPath id="cp379">
<path transform="matrix(1,0,0,-1,0,841.5)" d="M .000008862 0 L 594.75 0 L 594.75 841.5 L .000008862 841.5 Z " fill-rule="evenodd"/>
</clipPath>
<g clip-path="url(#cp379)">
<text xml:space="preserve" transform="matrix(1 0 -0 1 0 841.5)" font-size="9.025" font-family="ArialNarrow" font-style="italic"><tspan y="-669.15" x="169.68 173.45244 175.69063 177.92882 181.70127 184.68854 188.46099 192.97348 195.2207 197.4589 201.22232 204.99477 209.50727">p. order copy</tspan></text>
</g>
</g>
<g id="Layer-1" data-name="P">
<clipPath id="cp380">
<path transform="matrix(1,0,0,-1,0,841.5)" d="M .000008862 0 L 594.75 0 L 594.75 841.5 L .000008862 841.5 Z " fill-rule="evenodd"/>
</clipPath>
<g clip-path="url(#cp380)">
<text xml:space="preserve" transform="matrix(1 0 -0 1 0 841.5)" font-size="9.025" font-family="ArialNarrow" font-weight="bold"><tspan y="-669.15" x="212.83"> </tspan></text>
</g>
</g>
<g id="Layer-1" data-name="P">
<clipPath id="cp381">
<path transform="matrix(1,0,0,-1,0,841.5)" d="M .000008862 0 L 594.75 0 L 594.75 841.5 L .000008862 841.5 Z " fill-rule="evenodd"/>
</clipPath>
<g clip-path="url(#cp381)">
<text xml:space="preserve" transform="matrix(1 0 -0 1 0 841.5)" font-size="9" font-family="ArialNarrow" font-weight="bold"><tspan y="-658.33" x="160.88 163.13 168.37702 171.36502 175.11803">(Ute,</tspan></text>
</g>
</g>
<g id="Layer-1" data-name="Span">
<clipPath id="cp382">
<path transform="matrix(1,0,0,-1,0,841.5)" d="M .000008862 0 L 594.75 0 L 594.75 841.5 L .000008862 841.5 Z " fill-rule="evenodd"/>
</clipPath>
<g clip-path="url(#cp382)">
<text xml:space="preserve" transform="matrix(1 0 -0 1 0 841.5)" font-size="9" font-family="ArialNarrow" font-weight="bold"><tspan y="-658.33" x="177.27"> </tspan></text>
</g>
</g>
<g id="Layer-1" data-name="P">
<clipPath id="cp383">
<path transform="matrix(1,0,0,-1,0,841.5)" d="M .000008862 0 L 594.75 0 L 594.75 841.5 L .000008862 841.5 Z " fill-rule="evenodd"/>
</clipPath>
<g clip-path="url(#cp383)">
<text xml:space="preserve" transform="matrix(1 0 -0 1 0 841.5)" font-size="9" font-family="ArialNarrow" font-weight="bold"><tspan y="-658.33" x="179.35 182.33802 186.84702 190.59102 192.83202 195.07302 199.58202 203.32602 205.56702 207.80802 212.31702">{p1, p2, p2</tspan></text>
</g>
</g>
<g id="Layer-1" data-name="P">
<clipPath id="cp384">
<path transform="matrix(1,0,0,-1,0,841.5)" d="M .000008862 0 L 594.75 0 L 594.75 841.5 L .000008862 841.5 Z " fill-rule="evenodd"/>
</clipPath>
<g clip-path="url(#cp384)">
<text xml:space="preserve" transform="matrix(1 0 -0 1 0 841.5)" font-size="9" font-family="ArialNarrow" font-weight="bold"><tspan y="-658.33" x="216.3 219.3">})</tspan></text>
</g>
</g>
<path transform="matrix(1,0,0,-1,0,841.5)" d="M 442.45 760.29 C 442.45 763.56 428.53 766.2 411.35 766.2 C 394.18 766.2 380.26 763.56 380.26 760.29 C 380.26 757.02 394.18 754.37 411.35 754.37 C 428.53 754.37 442.45 757.02 442.45 760.29 Z " fill="#ffffff" fill-rule="evenodd"/>
<path transform="matrix(1,0,0,-1,0,841.5)" stroke-width="1.5" stroke-linecap="round" stroke-linejoin="round" fill="none" stroke="#000000" d="M 442.45 760.29 C 442.45 763.56 428.53 766.2 411.35 766.2 C 394.18 766.2 380.26 763.56 380.26 760.29 C 380.26 757.02 394.18 754.37 411.35 754.37 C 428.53 754.37 442.45 757.02 442.45 760.29 Z "/>
<g id="Layer-1" data-name="P">
<clipPath id="cp385">
<path transform="matrix(1,0,0,-1,0,841.5)" d="M .000008862 0 L 594.75 0 L 594.75 841.5 L .000008862 841.5 Z " fill-rule="evenodd"/>
</clipPath>
<g clip-path="url(#cp385)">
<text xml:space="preserve" transform="matrix(1 0 -0 1 0 841.5)" font-size="9" font-family="ArialNarrow" font-style="italic"><tspan y="-757.5" x="386 388.25 392.741 396.494 400.985 404.73799 408.48197 410.72297 412.96397 414.46696 417.45497 421.20796 424.95195">request. res.</tspan></text>
</g>
</g>
<g id="Layer-1" data-name="P">
<clipPath id="cp386">
<path transform="matrix(1,0,0,-1,0,841.5)" d="M .000008862 0 L 594.75 0 L 594.75 841.5 L .000008862 841.5 Z " fill-rule="evenodd"/>
</clipPath>
<g clip-path="url(#cp386)">
<text xml:space="preserve" transform="matrix(1 0 -0 1 0 841.5)" font-size="9" font-family="ArialNarrow" font-weight="bold"><tspan y="-757.5" x="427.08"> </tspan></text>
</g>
</g>
<g id="Layer-1" data-name="P">
<clipPath id="cp387">
<path transform="matrix(1,0,0,-1,0,841.5)" d="M .000008862 0 L 594.75 0 L 594.75 841.5 L .000008862 841.5 Z " fill-rule="evenodd"/>
</clipPath>
<g clip-path="url(#cp387)">
<text xml:space="preserve" transform="matrix(1 0 -0 1 0 841.5)" font-size="9" font-family="ArialNarrow" font-weight="bold"><tspan y="-757.5" x="429.13 433.63">p2</tspan></text>
</g>
</g>
<path transform="matrix(1,0,0,-1,0,841.5)" d="M 442.45 743.45 C 442.45 746.72 428.53 749.37 411.35 749.37 C 394.18 749.37 380.26 746.72 380.26 743.45 C 380.26 740.19 394.18 737.54 411.35 737.54 C 428.53 737.54 442.45 740.19 442.45 743.45 Z " fill="#ffffff" fill-rule="evenodd"/>
<path transform="matrix(1,0,0,-1,0,841.5)" stroke-width="1.5" stroke-linecap="round" stroke-linejoin="round" fill="none" stroke="#000000" d="M 442.45 743.45 C 442.45 746.72 428.53 749.37 411.35 749.37 C 394.18 749.37 380.26 746.72 380.26 743.45 C 380.26 740.19 394.18 737.54 411.35 737.54 C 428.53 737.54 442.45 740.19 442.45 743.45 Z "/>
<g id="Layer-1" data-name="P">
<clipPath id="cp388">
<path transform="matrix(1,0,0,-1,0,841.5)" d="M .000008862 0 L 594.75 0 L 594.75 841.5 L .000008862 841.5 Z " fill-rule="evenodd"/>
</clipPath>
<g clip-path="url(#cp388)">
<text xml:space="preserve" transform="matrix(1 0 -0 1 0 841.5)" font-size="9" font-family="ArialNarrow" font-style="italic"><tspan y="-740.65" x="384.98 387.23 391.721 395.474 399.965 403.718 407.46199 409.70298 411.94398 413.44697 416.43498 420.18797 423.93196 426.17295">request. res..</tspan></text>
</g>
</g>
<g id="Layer-1" data-name="P">
<clipPath id="cp389">
<path transform="matrix(1,0,0,-1,0,841.5)" d="M .000008862 0 L 594.75 0 L 594.75 841.5 L .000008862 841.5 Z " fill-rule="evenodd"/>
</clipPath>
<g clip-path="url(#cp389)">
<text xml:space="preserve" transform="matrix(1 0 -0 1 0 841.5)" font-size="9" font-family="ArialNarrow" font-weight="bold"><tspan y="-740.65" x="428.1"> </tspan></text>
</g>
</g>
<g id="Layer-1" data-name="P">
<clipPath id="cp390">
<path transform="matrix(1,0,0,-1,0,841.5)" d="M .000008862 0 L 594.75 0 L 594.75 841.5 L .000008862 841.5 Z " fill-rule="evenodd"/>
</clipPath>
<g clip-path="url(#cp390)">
<text xml:space="preserve" transform="matrix(1 0 -0 1 0 841.5)" font-size="9" font-family="ArialNarrow" font-weight="bold"><tspan y="-740.65" x="430.15 434.675">p2</tspan></text>
</g>
</g>
<path transform="matrix(1,0,0,-1,0,841.5)" d="M 358.37 726.44 C 358.37 733.79 347.23 739.74 333.49 739.74 C 319.75 739.74 308.61 733.79 308.61 726.44 C 308.61 719.1 319.75 713.15 333.49 713.15 C 347.23 713.15 358.37 719.1 358.37 726.44 Z " fill="#ffffff" fill-rule="evenodd"/>
<path transform="matrix(1,0,0,-1,0,841.5)" stroke-width="1.5" stroke-linecap="round" stroke-linejoin="round" fill="none" stroke="#000000" d="M 358.37 726.44 C 358.37 733.79 347.23 739.74 333.49 739.74 C 319.75 739.74 308.61 733.79 308.61 726.44 C 308.61 719.1 319.75 713.15 333.49 713.15 C 347.23 713.15 358.37 719.1 358.37 726.44 Z "/>
<g id="Layer-1" data-name="P">
<clipPath id="cp391">
<path transform="matrix(1,0,0,-1,0,841.5)" d="M .000008862 0 L 594.75 0 L 594.75 841.5 L .000008862 841.5 Z " fill-rule="evenodd"/>
</clipPath>
<g clip-path="url(#cp391)">
<text xml:space="preserve" transform="matrix(1 0 -0 1 0 841.5)" font-size="9" font-family="ArialNarrow" font-style="italic"><tspan y="-730.55" x="331.45">A</tspan></text>
</g>
</g>
<g id="Layer-1" data-name="P">
<clipPath id="cp392">
<path transform="matrix(1,0,0,-1,0,841.5)" d="M .000008862 0 L 594.75 0 L 594.75 841.5 L .000008862 841.5 Z " fill-rule="evenodd"/>
</clipPath>
<g clip-path="url(#cp392)">
<text xml:space="preserve" transform="matrix(1 0 -0 1 0 841.5)" font-size="9" font-family="ArialNarrow"><tspan y="-730.55" x="336.38"> </tspan></text>
</g>
</g>
<g id="Layer-1" data-name="P">
<clipPath id="cp393">
<path transform="matrix(1,0,0,-1,0,841.5)" d="M .000008862 0 L 594.75 0 L 594.75 841.5 L .000008862 841.5 Z " fill-rule="evenodd"/>
</clipPath>
<g clip-path="url(#cp393)">
<text xml:space="preserve" transform="matrix(1 0 -0 1 0 841.5)" font-size="9.025" font-family="ArialNarrow" font-weight="bold"><tspan y="-719.75" x="319.13 321.40434 326.67494 329.6893 333.46174 335.72703 337.9923 342.51383 346.2953">(Ute, p1)</tspan></text>
</g>
</g>
<path transform="matrix(1,0,0,-1,0,841.5)" d="M 358.37 696.34 C 358.37 703.68 347.23 709.63 333.49 709.63 C 319.75 709.63 308.61 703.68 308.61 696.34 C 308.61 688.99 319.75 683.04 333.49 683.04 C 347.23 683.04 358.37 688.99 358.37 696.34 Z " fill="#ffffff" fill-rule="evenodd"/>
<path transform="matrix(1,0,0,-1,0,841.5)" stroke-width="1.5" stroke-linecap="round" stroke-linejoin="round" fill="none" stroke="#000000" d="M 358.37 696.34 C 358.37 703.68 347.23 709.63 333.49 709.63 C 319.75 709.63 308.61 703.68 308.61 696.34 C 308.61 688.99 319.75 683.04 333.49 683.04 C 347.23 683.04 358.37 688.99 358.37 696.34 Z "/>
<g id="Layer-1" data-name="P">
<clipPath id="cp394">
<path transform="matrix(1,0,0,-1,0,841.5)" d="M .000008862 0 L 594.75 0 L 594.75 841.5 L .000008862 841.5 Z " fill-rule="evenodd"/>
</clipPath>
<g clip-path="url(#cp394)">
<text xml:space="preserve" transform="matrix(1 0 -0 1 0 841.5)" font-size="9" font-family="ArialNarrow" font-style="italic"><tspan y="-700.42" x="330.43 335.68">A.</tspan></text>
</g>
</g>
<g id="Layer-1" data-name="P">
<clipPath id="cp395">
<path transform="matrix(1,0,0,-1,0,841.5)" d="M .000008862 0 L 594.75 0 L 594.75 841.5 L .000008862 841.5 Z " fill-rule="evenodd"/>
</clipPath>
<g clip-path="url(#cp395)">
<text xml:space="preserve" transform="matrix(1 0 -0 1 0 841.5)" font-size="9" font-family="ArialNarrow"><tspan y="-700.42" x="337.4"> </tspan></text>
</g>
</g>
<g id="Layer-1" data-name="P">
<clipPath id="cp396">
<path transform="matrix(1,0,0,-1,0,841.5)" d="M .000008862 0 L 594.75 0 L 594.75 841.5 L .000008862 841.5 Z " fill-rule="evenodd"/>
</clipPath>
<g clip-path="url(#cp396)">
<text xml:space="preserve" transform="matrix(1 0 -0 1 0 841.5)" font-size="9" font-family="ArialNarrow" font-weight="bold"><tspan y="-689.6" x="319.13 321.407 326.68104 329.69606 333.46705 335.73506 338.00306 342.51206 346.30107">(Ute, p1)</tspan></text>
</g>
</g>
<path transform="matrix(1,0,0,-1,0,841.5)" d="M 358.37 661.54 C 358.37 668.88 347.23 674.83 333.49 674.83 C 319.75 674.83 308.61 668.88 308.61 661.54 C 308.61 654.2 319.75 648.25 333.49 648.25 C 347.23 648.25 358.37 654.2 358.37 661.54 Z " fill="#ffffff" fill-rule="evenodd"/>
<path transform="matrix(1,0,0,-1,0,841.5)" stroke-width="1.5" stroke-linecap="round" stroke-linejoin="round" fill="none" stroke="#000000" d="M 358.37 661.54 C 358.37 668.88 347.23 674.83 333.49 674.83 C 319.75 674.83 308.61 668.88 308.61 661.54 C 308.61 654.2 319.75 648.25 333.49 648.25 C 347.23 648.25 358.37 654.2 358.37 661.54 Z "/>
<g id="Layer-1" data-name="P">
<clipPath id="cp397">
<path transform="matrix(1,0,0,-1,0,841.5)" d="M .000008862 0 L 594.75 0 L 594.75 841.5 L .000008862 841.5 Z " fill-rule="evenodd"/>
</clipPath>
<g clip-path="url(#cp397)">
<text xml:space="preserve" transform="matrix(1 0 -0 1 0 841.5)" font-size="9" font-family="ArialNarrow" font-style="italic"><tspan y="-665.6" x="331.45">A</tspan></text>
</g>
</g>
<g id="Layer-1" data-name="P">
<clipPath id="cp398">
<path transform="matrix(1,0,0,-1,0,841.5)" d="M .000008862 0 L 594.75 0 L 594.75 841.5 L .000008862 841.5 Z " fill-rule="evenodd"/>
</clipPath>
<g clip-path="url(#cp398)">
<text xml:space="preserve" transform="matrix(1 0 -0 1 0 841.5)" font-size="9" font-family="ArialNarrow"><tspan y="-665.6" x="336.38"> </tspan></text>
</g>
</g>
<g id="Layer-1" data-name="P">
<clipPath id="cp399">
<path transform="matrix(1,0,0,-1,0,841.5)" d="M .000008862 0 L 594.75 0 L 594.75 841.5 L .000008862 841.5 Z " fill-rule="evenodd"/>
</clipPath>
<g clip-path="url(#cp399)">
<text xml:space="preserve" transform="matrix(1 0 -0 1 0 841.5)" font-size="9" font-family="ArialNarrow" font-weight="bold"><tspan y="-654.78" x="319.13 321.407 326.68104 329.69606 333.46705 335.73506 338.00306 342.51206 346.30107">(Ute, p1)</tspan></text>
</g>
</g>
</g>
</g>
</svg>
