<?xml version="1.0" encoding="UTF-8" standalone="no"?>
<!DOCTYPE svg PUBLIC "-//W3C//DTD SVG 1.1//EN" "http://www.w3.org/Graphics/SVG/1.1/DTD/svg11.dtd">
<svg xmlns="http://www.w3.org/2000/svg" xmlns:xlink="http://www.w3.org/1999/xlink" version="1.1" width="594.75pt" height="841.5pt" viewBox="0 0 594.75 841.5">
<g enable-background="new">
<g>
<clipPath id="cp400">
<path transform="matrix(1,0,0,-1,0,841.5)" d="M -.000030518 841.5 L 594.75 841.5 L 594.75 .00024414 L -.000015259 .00018311 " fill-rule="evenodd"/>
</clipPath>
<g clip-path="url(#cp400)">
<path transform="matrix(1,0,0,-1,0,841.5)" stroke-width="1.5" stroke-linecap="round" stroke-linejoin="round" fill="none" stroke="#000000" d="M 243.07 520.7 L 314.98 471.66 "/>
</g>
<clipPath id="cp401">
<path transform="matrix(1,0,0,-1,0,841.5)" d="M -.000030518 841.5 L 594.75 841.5 L 594.75 .00024414 L -.000015259 .00018311 " fill-rule="evenodd"/>
</clipPath>
<g clip-path="url(#cp401)">
<path transform="matrix(1,0,0,-1,0,841.5)" d="M 316.41 475.55 L 324.11 465.43 L 311.88 468.9 L 316.41 475.55 Z " fill-rule="evenodd"/>
</g>
<clipPath id="cp402">
<path transform="matrix(1,0,0,-1,0,841.5)" d="M .000015259 841.5 L 594.75 841.5 L 594.75 .00012207 L .000015259 .00012207 " fill-rule="evenodd"/>
</clipPath>
<g clip-path="url(#cp402)">
<path transform="matrix(1,0,0,-1,0,841.5)" stroke-width="1.5" stroke-linecap="round" stroke-linejoin="round" fill="none" stroke="#000000" d="M 243.69 525.03 L 243.69 468.13 "/>
</g>
<clipPath id="cp403">
<path transform="matrix(1,0,0,-1,0,841.5)" d="M .000015259 841.5 L 594.75 841.5 L 594.75 .00012207 L .000015259 .00012207 " fill-rule="evenodd"/>
</clipPath>
<g clip-path="url(#cp403)">
<path transform="matrix(1,0,0,-1,0,841.5)" d="M 247.71 469.14 L 243.69 457.08 L 239.67 469.14 L 247.71 469.14 Z " fill-rule="evenodd"/>
</g>
<path transform="matrix(1,0,0,-1,0,841.5)" stroke-width="1.5" stroke-linecap="round" stroke-linejoin="round" fill="none" stroke="#000000" d="M 258.58 520.62 L 320.21 520.62 "/>
<path transform="matrix(1,0,0,-1,0,841.5)" d="M 319.2 524.64 L 331.26 520.62 L 319.2 516.6 L 319.2 524.64 Z " fill-rule="evenodd"/>
<path transform="matrix(1,0,0,-1,0,841.5)" d="M 229.29 513.14 L 256.862 513.14 L 256.862 527.81 L 229.29 527.81 Z " fill="#ffffff" fill-rule="evenodd"/>
<path transform="matrix(1,0,0,-1,0,841.5)" stroke-width="2" stroke-linecap="round" stroke-linejoin="round" fill="none" stroke="#000000" d="M 229.29 513.14 L 256.862 513.14 L 256.862 527.81 L 229.29 527.81 Z "/>
<g id="Layer-1" data-name="P">
<clipPath id="cp404">
<path transform="matrix(1,0,0,-1,0,841.5)" d="M .000008862 0 L 594.75 0 L 594.75 841.5 L .000008862 841.5 Z " fill-rule="evenodd"/>
</clipPath>
<g clip-path="url(#cp404)">
<text xml:space="preserve" transform="matrix(1 0 -0 1 0 841.5)" font-size="12" font-family="ArialNarrow" font-weight="bold"><tspan y="-517.47" x="243.38"> </tspan></text>
</g>
</g>
<g id="Layer-1" data-name="P">
<clipPath id="cp405">
<path transform="matrix(1,0,0,-1,0,841.5)" d="M .000008862 0 L 594.75 0 L 594.75 841.5 L .000008862 841.5 Z " fill-rule="evenodd"/>
</clipPath>
<g clip-path="url(#cp405)">
<text xml:space="preserve" transform="matrix(1 0 -0 1 0 841.5)" font-size="9.025" font-family="ArialNarrow" font-weight="bold"><tspan y="-489.55" x="182.93 185.17722 190.42977 193.41704 197.17145">(Ute,</tspan></text>
</g>
</g>
<g id="Layer-1" data-name="Span">
<clipPath id="cp406">
<path transform="matrix(1,0,0,-1,0,841.5)" d="M .000008862 0 L 594.75 0 L 594.75 841.5 L .000008862 841.5 Z " fill-rule="evenodd"/>
</clipPath>
<g clip-path="url(#cp406)">
<text xml:space="preserve" transform="matrix(1 0 -0 1 0 841.5)" font-size="9.025" font-family="ArialNarrow" font-weight="bold"><tspan y="-489.55" x="199.35"> </tspan></text>
</g>
</g>
<g id="Layer-1" data-name="P">
<clipPath id="cp407">
<path transform="matrix(1,0,0,-1,0,841.5)" d="M .000008862 0 L 594.75 0 L 594.75 841.5 L .000008862 841.5 Z " fill-rule="evenodd"/>
</clipPath>
<g clip-path="url(#cp407)">
<text xml:space="preserve" transform="matrix(1 0 -0 1 0 841.5)" font-size="9.025" font-family="ArialNarrow" font-weight="bold"><tspan y="-489.55" x="201.4 204.38727 208.9088 212.63613 214.87432 217.1125 221.63404 225.36136 227.59955 229.83774 234.35927">{p1, p2, p2</tspan></text>
</g>
</g>
<g id="Layer-1" data-name="P">
<clipPath id="cp408">
<path transform="matrix(1,0,0,-1,0,841.5)" d="M .000008862 0 L 594.75 0 L 594.75 841.5 L .000008862 841.5 Z " fill-rule="evenodd"/>
</clipPath>
<g clip-path="url(#cp408)">
<text xml:space="preserve" transform="matrix(1 0 -0 1 0 841.5)" font-size="9.025" font-family="ArialNarrow" font-weight="bold"><tspan y="-489.55" x="238.35 241.37499">})</tspan></text>
</g>
</g>
<clipPath id="cp409">
<path transform="matrix(1,0,0,-1,0,841.5)" d="M -.000007629 841.5 L 594.75 841.5 L 594.75 .00024414 L -.000015259 .00024414 " fill-rule="evenodd"/>
</clipPath>
<g clip-path="url(#cp409)">
<path transform="matrix(1,0,0,-1,0,841.5)" stroke-width="1.5" stroke-linecap="round" stroke-linejoin="round" fill="none" stroke="#000000" d="M 115.4 521.19 L 218.23 520.67 "/>
</g>
<clipPath id="cp410">
<path transform="matrix(1,0,0,-1,0,841.5)" d="M -.000007629 841.5 L 594.75 841.5 L 594.75 .00024414 L -.000015259 .00024414 " fill-rule="evenodd"/>
</clipPath>
<g clip-path="url(#cp410)">
<path transform="matrix(1,0,0,-1,0,841.5)" d="M 217.25 524.7 L 229.29 520.62 L 217.21 516.66 L 217.25 524.7 Z " fill-rule="evenodd"/>
</g>
<g id="Layer-1" data-name="P">
<clipPath id="cp411">
<path transform="matrix(1,0,0,-1,0,841.5)" d="M .000008862 0 L 594.75 0 L 594.75 841.5 L .000008862 841.5 Z " fill-rule="evenodd"/>
</clipPath>
<g clip-path="url(#cp411)">
<text xml:space="preserve" transform="matrix(1 0 -0 1 0 841.5)" font-size="9" font-family="ArialNarrow" font-weight="bold"><tspan y="-525" x="155.45 157.7 162.947 165.93502 169.68802">(Ute,</tspan></text>
</g>
</g>
<g id="Layer-1" data-name="Span">
<clipPath id="cp412">
<path transform="matrix(1,0,0,-1,0,841.5)" d="M .000008862 0 L 594.75 0 L 594.75 841.5 L .000008862 841.5 Z " fill-rule="evenodd"/>
</clipPath>
<g clip-path="url(#cp412)">
<text xml:space="preserve" transform="matrix(1 0 -0 1 0 841.5)" font-size="9" font-family="ArialNarrow" font-weight="bold"><tspan y="-525" x="171.88"> </tspan></text>
</g>
</g>
<g id="Layer-1" data-name="P">
<clipPath id="cp413">
<path transform="matrix(1,0,0,-1,0,841.5)" d="M .000008862 0 L 594.75 0 L 594.75 841.5 L .000008862 841.5 Z " fill-rule="evenodd"/>
</clipPath>
<g clip-path="url(#cp413)">
<text xml:space="preserve" transform="matrix(1 0 -0 1 0 841.5)" font-size="9" font-family="ArialNarrow" font-weight="bold"><tspan y="-525" x="173.93 176.918 181.427 185.171 187.412 189.653 194.162 197.906 200.147 202.388 206.897">{p1, p2, p2</tspan></text>
</g>
</g>
<g id="Layer-1" data-name="P">
<clipPath id="cp414">
<path transform="matrix(1,0,0,-1,0,841.5)" d="M .000008862 0 L 594.75 0 L 594.75 841.5 L .000008862 841.5 Z " fill-rule="evenodd"/>
</clipPath>
<g clip-path="url(#cp414)">
<text xml:space="preserve" transform="matrix(1 0 -0 1 0 841.5)" font-size="9" font-family="ArialNarrow" font-weight="bold"><tspan y="-525" x="210.9 213.9">})</tspan></text>
</g>
</g>
<g id="Layer-1" data-name="P">
<clipPath id="cp415">
<path transform="matrix(1,0,0,-1,0,841.5)" d="M .000008862 0 L 594.75 0 L 594.75 841.5 L .000008862 841.5 Z " fill-rule="evenodd"/>
</clipPath>
<g clip-path="url(#cp415)">
<text xml:space="preserve" transform="matrix(1 0 -0 1 0 841.5)" font-size="11.275" font-family="ArialNarrow" font-weight="bold"><tspan y="-501.85" x="88.95 94.20415 100.19117 103.19032 108.433208 113.687358 118.93024 124.17312 128.67185">purchase </tspan></text>
</g>
</g>
<g id="Layer-1" data-name="P">
<clipPath id="cp416">
<path transform="matrix(1,0,0,-1,0,841.5)" d="M .000008862 0 L 594.75 0 L 594.75 841.5 L .000008862 841.5 Z " fill-rule="evenodd"/>
</clipPath>
<g clip-path="url(#cp416)">
<text xml:space="preserve" transform="matrix(1 0 -0 1 0 841.5)" font-size="11.25" font-family="ArialNarrow" font-weight="bold"><tspan y="-491.92" x="101 106.25375 109.988758 115.24251 120.48501 124.22001">orders</tspan></text>
</g>
</g>
<g id="Layer-1" data-name="P">
<clipPath id="cp417">
<path transform="matrix(1,0,0,-1,0,841.5)" d="M .000008862 0 L 594.75 0 L 594.75 841.5 L .000008862 841.5 Z " fill-rule="evenodd"/>
</clipPath>
<g clip-path="url(#cp417)">
<text xml:space="preserve" transform="matrix(1 0 -0 1 0 841.5)" font-size="11.275" font-family="ArialNarrow" font-weight="bold"><tspan y="-500.73" x="352.98 356.7233 361.24458 367.25416 372.53086 377.79627 382.31755 385.31669 390.5821 395.8588">requested </tspan></text>
</g>
</g>
<g id="Layer-1" data-name="P">
<clipPath id="cp418">
<path transform="matrix(1,0,0,-1,0,841.5)" d="M .000008862 0 L 594.75 0 L 594.75 841.5 L .000008862 841.5 Z " fill-rule="evenodd"/>
</clipPath>
<g clip-path="url(#cp418)">
<text xml:space="preserve" transform="matrix(1 0 -0 1 0 841.5)" font-size="11.25" font-family="ArialNarrow" font-weight="bold"><tspan y="-490.8" x="347.45 351.185 355.685 360.9275 366.16999 369.17375 374.41624 379.65873 382.66249 384.91249 390.16624">reservation</tspan></text>
</g>
</g>
<g id="Layer-1" data-name="P">
<clipPath id="cp419">
<path transform="matrix(1,0,0,-1,0,841.5)" d="M .000008862 0 L 594.75 0 L 594.75 841.5 L .000008862 841.5 Z " fill-rule="evenodd"/>
</clipPath>
<g clip-path="url(#cp419)">
<text xml:space="preserve" transform="matrix(1 0 -0 1 0 841.5)" font-size="9" font-family="ArialNarrow" font-weight="bold"><tspan y="-539.95" x="224.33 228.839 231.071 234.824 239.315 243.06801 247.559 251.31201 258.053 262.562 264.794 268.547">disassemble </tspan></text>
</g>
</g>
<g id="Layer-1" data-name="P">
<clipPath id="cp420">
<path transform="matrix(1,0,0,-1,0,841.5)" d="M .000008862 0 L 594.75 0 L 594.75 841.5 L .000008862 841.5 Z " fill-rule="evenodd"/>
</clipPath>
<g clip-path="url(#cp420)">
<text xml:space="preserve" transform="matrix(1 0 -0 1 0 841.5)" font-size="9.025" font-family="ArialNarrow" font-weight="bold"><tspan y="-531.85" x="230.7 235.22153 237.44167 238.9398 243.46134 246.43056 250.95209 255.41947 258.40675">p. orders</tspan></text>
</g>
</g>
<g id="Layer-1" data-name="P">
<clipPath id="cp421">
<path transform="matrix(1,0,0,-1,0,841.5)" d="M .000008862 0 L 594.75 0 L 594.75 841.5 L .000008862 841.5 Z " fill-rule="evenodd"/>
</clipPath>
<g clip-path="url(#cp421)">
<text xml:space="preserve" transform="matrix(1 0 -0 1 0 841.5)" font-size="9" font-family="ArialNarrow" font-weight="bold"><tspan y="-493.73" x="276.95 279.22703 284.50105 287.51606 291.28706 293.55506">(Ute, </tspan></text>
</g>
</g>
<g id="Layer-1" data-name="P">
<clipPath id="cp422">
<path transform="matrix(1,0,0,-1,0,841.5)" d="M .000008862 0 L 594.75 0 L 594.75 841.5 L .000008862 841.5 Z " fill-rule="evenodd"/>
</clipPath>
<g clip-path="url(#cp422)">
<text xml:space="preserve" transform="matrix(1 0 -0 1 0 841.5)" font-size="9" font-family="ArialNarrow" font-weight="bold"><tspan y="-493.73" x="295.43 299.939 303.701 306.689 308.192">p1), </tspan></text>
</g>
</g>
<g id="Layer-1" data-name="P">
<clipPath id="cp423">
<path transform="matrix(1,0,0,-1,0,841.5)" d="M .000008862 0 L 594.75 0 L 594.75 841.5 L .000008862 841.5 Z " fill-rule="evenodd"/>
</clipPath>
<g clip-path="url(#cp423)">
<text xml:space="preserve" transform="matrix(1 0 -0 1 0 841.5)" font-size="9" font-family="ArialNarrow" font-weight="bold"><tspan y="-485.63" x="276.95 279.22703 284.50105 287.51606 291.28706 293.55506 295.82307 300.33207 304.12107 306.39808 308.66609">(Ute, p2), </tspan></text>
</g>
</g>
<g id="Layer-1" data-name="P">
<clipPath id="cp424">
<path transform="matrix(1,0,0,-1,0,841.5)" d="M .000008862 0 L 594.75 0 L 594.75 841.5 L .000008862 841.5 Z " fill-rule="evenodd"/>
</clipPath>
<g clip-path="url(#cp424)">
<text xml:space="preserve" transform="matrix(1 0 -0 1 0 841.5)" font-size="9" font-family="ArialNarrow" font-weight="bold"><tspan y="-475.5" x="278 280.25 285.497 288.48503 292.238 294.479 296.72 301.229">(Ute, p2</tspan></text>
</g>
</g>
<g id="Layer-1" data-name="P">
<clipPath id="cp425">
<path transform="matrix(1,0,0,-1,0,841.5)" d="M .000008862 0 L 594.75 0 L 594.75 841.5 L .000008862 841.5 Z " fill-rule="evenodd"/>
</clipPath>
<g clip-path="url(#cp425)">
<text xml:space="preserve" transform="matrix(1 0 -0 1 0 841.5)" font-size="9" font-family="ArialNarrow" font-weight="bold"><tspan y="-475.5" x="305.07">)</tspan></text>
</g>
</g>
<g id="Layer-1" data-name="P">
<clipPath id="cp426">
<path transform="matrix(1,0,0,-1,0,841.5)" d="M .000008862 0 L 594.75 0 L 594.75 841.5 L .000008862 841.5 Z " fill-rule="evenodd"/>
</clipPath>
<g clip-path="url(#cp426)">
<text xml:space="preserve" transform="matrix(1 0 -0 1 0 841.5)" font-size="9.025" font-family="ArialNarrow" font-weight="bold"><tspan y="-454.92" x="170.33 174.85153 177.82076 181.57517 186.0967 190.56407 194.31848 198.81293">prchase </tspan></text>
</g>
</g>
<g id="Layer-1" data-name="P">
<clipPath id="cp427">
<path transform="matrix(1,0,0,-1,0,841.5)" d="M .000008862 0 L 594.75 0 L 594.75 841.5 L .000008862 841.5 Z " fill-rule="evenodd"/>
</clipPath>
<g clip-path="url(#cp427)">
<text xml:space="preserve" transform="matrix(1 0 -0 1 0 841.5)" font-size="9.025" font-family="ArialNarrow" font-weight="bold"><tspan y="-446.82" x="175.05 179.57154 182.54076 187.06229 190.78961 193.77689">order </tspan></text>
</g>
</g>
<g id="Layer-1" data-name="P">
<clipPath id="cp428">
<path transform="matrix(1,0,0,-1,0,841.5)" d="M .000008862 0 L 594.75 0 L 594.75 841.5 L .000008862 841.5 Z " fill-rule="evenodd"/>
</clipPath>
<g clip-path="url(#cp428)">
<text xml:space="preserve" transform="matrix(1 0 -0 1 0 841.5)" font-size="9" font-family="ArialNarrow" font-weight="bold"><tspan y="-438.7" x="172.77 176.52301 181.03202 185.54102 187.76403 192.25502">copies</tspan></text>
</g>
</g>
<path transform="matrix(1,0,0,-1,0,841.5)" d="M 151.27 521.33 C 151.27 526.96 135.21 531.53 115.4 531.53 C 95.588 531.53 79.528 526.96 79.528 521.33 C 79.528 515.69 95.588 511.12 115.4 511.12 C 135.21 511.12 151.27 515.69 151.27 521.33 Z " fill="#ffffff" fill-rule="evenodd"/>
<path transform="matrix(1,0,0,-1,0,841.5)" stroke-width="1.5" stroke-linecap="round" stroke-linejoin="round" fill="none" stroke="#000000" d="M 151.27 521.33 C 151.27 526.96 135.21 531.53 115.4 531.53 C 95.588 531.53 79.528 526.96 79.528 521.33 C 79.528 515.69 95.588 511.12 115.4 511.12 C 135.21 511.12 151.27 515.69 151.27 521.33 Z "/>
<g id="Layer-1" data-name="P">
<clipPath id="cp429">
<path transform="matrix(1,0,0,-1,0,841.5)" d="M .000008862 0 L 594.75 0 L 594.75 841.5 L .000008862 841.5 Z " fill-rule="evenodd"/>
</clipPath>
<g clip-path="url(#cp429)">
<text xml:space="preserve" transform="matrix(1 0 -0 1 0 841.5)" font-size="9.025" font-family="ArialNarrow" font-weight="bold"><tspan y="-519.03" x="85.15 87.4243 92.6949 95.70924 99.4817">(Ute,</tspan></text>
</g>
</g>
<g id="Layer-1" data-name="Span">
<clipPath id="cp430">
<path transform="matrix(1,0,0,-1,0,841.5)" d="M .000008862 0 L 594.75 0 L 594.75 841.5 L .000008862 841.5 Z " fill-rule="evenodd"/>
</clipPath>
<g clip-path="url(#cp430)">
<text xml:space="preserve" transform="matrix(1 0 -0 1 0 841.5)" font-size="9.025" font-family="ArialNarrow" font-weight="bold"><tspan y="-519.03" x="101.57"> </tspan></text>
</g>
</g>
<g id="Layer-1" data-name="P">
<clipPath id="cp431">
<path transform="matrix(1,0,0,-1,0,841.5)" d="M .000008862 0 L 594.75 0 L 594.75 841.5 L .000008862 841.5 Z " fill-rule="evenodd"/>
</clipPath>
<g clip-path="url(#cp431)">
<text xml:space="preserve" transform="matrix(1 0 -0 1 0 841.5)" font-size="9.025" font-family="ArialNarrow" font-weight="bold"><tspan y="-519.03" x="103.62 106.60728 111.1288 114.91028 117.148479 119.38667 123.908199 127.68967 129.92786 132.16605 136.68758">{p1, p2, p2</tspan></text>
</g>
</g>
<g id="Layer-1" data-name="P">
<clipPath id="cp432">
<path transform="matrix(1,0,0,-1,0,841.5)" d="M .000008862 0 L 594.75 0 L 594.75 841.5 L .000008862 841.5 Z " fill-rule="evenodd"/>
</clipPath>
<g clip-path="url(#cp432)">
<text xml:space="preserve" transform="matrix(1 0 -0 1 0 841.5)" font-size="9.025" font-family="ArialNarrow" font-weight="bold"><tspan y="-519.03" x="140.6 143.59998">})</tspan></text>
</g>
</g>
<path transform="matrix(1,0,0,-1,0,841.5)" d="M 394.26 520.66 C 394.26 523.92 380.33 526.57 363.16 526.57 C 345.99 526.57 332.07 523.92 332.07 520.66 C 332.07 517.39 345.99 514.74 363.16 514.74 C 380.33 514.74 394.26 517.39 394.26 520.66 Z " fill="#ffffff" fill-rule="evenodd"/>
<path transform="matrix(1,0,0,-1,0,841.5)" stroke-width="1.5" stroke-linecap="round" stroke-linejoin="round" fill="none" stroke="#000000" d="M 394.26 520.66 C 394.26 523.92 380.33 526.57 363.16 526.57 C 345.99 526.57 332.07 523.92 332.07 520.66 C 332.07 517.39 345.99 514.74 363.16 514.74 C 380.33 514.74 394.26 517.39 394.26 520.66 Z "/>
<g id="Layer-1" data-name="P">
<clipPath id="cp433">
<path transform="matrix(1,0,0,-1,0,841.5)" d="M .000008862 0 L 594.75 0 L 594.75 841.5 L .000008862 841.5 Z " fill-rule="evenodd"/>
</clipPath>
<g clip-path="url(#cp433)">
<text xml:space="preserve" transform="matrix(1 0 -0 1 0 841.5)" font-size="9" font-family="ArialNarrow" font-weight="bold"><tspan y="-518.35" x="363.63"> </tspan></text>
</g>
</g>
<path transform="matrix(1,0,0,-1,0,841.5)" d="M 363.12 450.37 C 363.12 461.17 352.46 469.93 339.31 469.93 C 326.16 469.93 315.5 461.17 315.5 450.37 C 315.5 439.56 326.16 430.8 339.31 430.8 C 352.46 430.8 363.12 439.56 363.12 450.37 Z " fill="#ffffff" fill-rule="evenodd"/>
<path transform="matrix(1,0,0,-1,0,841.5)" stroke-width="1.5" stroke-linecap="round" stroke-linejoin="round" fill="none" stroke="#000000" d="M 363.12 450.37 C 363.12 461.17 352.46 469.93 339.31 469.93 C 326.16 469.93 315.5 461.17 315.5 450.37 C 315.5 439.56 326.16 430.8 339.31 430.8 C 352.46 430.8 363.12 439.56 363.12 450.37 Z "/>
<g id="Layer-1" data-name="P">
<clipPath id="cp434">
<path transform="matrix(1,0,0,-1,0,841.5)" d="M .000008862 0 L 594.75 0 L 594.75 841.5 L .000008862 841.5 Z " fill-rule="evenodd"/>
</clipPath>
<g clip-path="url(#cp434)">
<text xml:space="preserve" transform="matrix(1 0 -0 1 0 841.5)" font-size="9" font-family="ArialNarrow" font-weight="bold"><tspan y="-436.48" x="339.75"> </tspan></text>
</g>
</g>
<path transform="matrix(1,0,0,-1,0,841.5)" d="M 283.82 445.23 C 283.82 450.87 265.74 455.44 243.43 455.44 C 221.12 455.44 203.04 450.87 203.04 445.23 C 203.04 439.59 221.12 435.03 243.43 435.03 C 265.74 435.03 283.82 439.59 283.82 445.23 Z " fill="#ffffff" fill-rule="evenodd"/>
<path transform="matrix(1,0,0,-1,0,841.5)" stroke-width="1.5" stroke-linecap="round" stroke-linejoin="round" fill="none" stroke="#000000" d="M 283.82 445.23 C 283.82 450.87 265.74 455.44 243.43 455.44 C 221.12 455.44 203.04 450.87 203.04 445.23 C 203.04 439.59 221.12 435.03 243.43 435.03 C 265.74 435.03 283.82 439.59 283.82 445.23 Z "/>
<g id="Layer-1" data-name="P">
<clipPath id="cp435">
<path transform="matrix(1,0,0,-1,0,841.5)" d="M .000008862 0 L 594.75 0 L 594.75 841.5 L .000008862 841.5 Z " fill-rule="evenodd"/>
</clipPath>
<g clip-path="url(#cp435)">
<text xml:space="preserve" transform="matrix(1 0 -0 1 0 841.5)" font-size="9" font-family="ArialNarrow" font-weight="bold"><tspan y="-445" x="243.75"> </tspan></text>
</g>
</g>
<g id="Layer-1" data-name="P">
<clipPath id="cp436">
<path transform="matrix(1,0,0,-1,0,841.5)" d="M .000008862 0 L 594.75 0 L 594.75 841.5 L .000008862 841.5 Z " fill-rule="evenodd"/>
</clipPath>
<g clip-path="url(#cp436)">
<text xml:space="preserve" transform="matrix(1 0 -0 1 0 841.5)" font-size="9.025" font-family="ArialNarrow" font-weight="bold"><tspan y="-527.85" x="273.88 278.40153 282.12886 284.36708 286.6053 291.1268 294.85414 297.09236 299.33058 303.85209">p1, p2, p2</tspan></text>
</g>
</g>
<g id="Layer-1" data-name="P">
<clipPath id="cp437">
<path transform="matrix(1,0,0,-1,0,841.5)" d="M .000008862 0 L 594.75 0 L 594.75 841.5 L .000008862 841.5 Z " fill-rule="evenodd"/>
</clipPath>
<g clip-path="url(#cp437)">
<text xml:space="preserve" transform="matrix(1 0 -0 1 0 841.5)" font-size="9.75" font-family="ArialNarrow" font-style="italic"><tspan y="-434.67" x="366.22">A</tspan></text>
</g>
</g>
</g>
</g>
</svg>
