<?xml version="1.0" encoding="UTF-8" standalone="no"?>
<!DOCTYPE svg PUBLIC "-//W3C//DTD SVG 1.1//EN" "http://www.w3.org/Graphics/SVG/1.1/DTD/svg11.dtd">
<svg xmlns="http://www.w3.org/2000/svg" xmlns:xlink="http://www.w3.org/1999/xlink" version="1.1" width="594.75pt" height="841.5pt" viewBox="0 0 594.75 841.5">
<g enable-background="new">
<g>
<clipPath id="cp248">
<path transform="matrix(1,0,0,-1,0,841.5)" d="M 0 841.5 L 594.75 841.5 L 594.75 .000061035 L .000061035 .000061035 " fill-rule="evenodd"/>
</clipPath>
<g clip-path="url(#cp248)">
<path transform="matrix(1,0,0,-1,0,841.5)" stroke-width="1.5" stroke-linecap="round" stroke-linejoin="round" fill="none" stroke="#000000" d="M 396.21 716.48 L 359.69 690.75 "/>
</g>
<clipPath id="cp249">
<path transform="matrix(1,0,0,-1,0,841.5)" d="M 0 841.5 L 594.75 841.5 L 594.75 .000061035 L .000061035 .000061035 " fill-rule="evenodd"/>
</clipPath>
<g clip-path="url(#cp249)">
<path transform="matrix(1,0,0,-1,0,841.5)" d="M 363.39 687.56 L 352.91 685.97 L 357.93 695.3 L 363.39 687.56 Z " fill-rule="evenodd"/>
</g>
<clipPath id="cp250">
<path transform="matrix(1,0,0,-1,0,841.5)" d="M -.000061035 841.5 L 594.75 841.5 L 594.75 .00018311 L 0 .00018311 " fill-rule="evenodd"/>
</clipPath>
<g clip-path="url(#cp250)">
<path transform="matrix(1,0,0,-1,0,841.5)" stroke-width="1.5" stroke-linecap="round" stroke-linejoin="round" fill="none" stroke="#000000" d="M 342.7 751.35 L 377.3 728.2 "/>
</g>
<clipPath id="cp251">
<path transform="matrix(1,0,0,-1,0,841.5)" d="M -.000061035 841.5 L 594.75 841.5 L 594.75 .00018311 L 0 .00018311 " fill-rule="evenodd"/>
</clipPath>
<g clip-path="url(#cp251)">
<path transform="matrix(1,0,0,-1,0,841.5)" d="M 378.95 732.8 L 384.19 723.59 L 373.68 724.92 L 378.95 732.8 Z " fill-rule="evenodd"/>
</g>
<path transform="matrix(1,0,0,-1,0,841.5)" d="M 380.98 708.92 L 411.441 708.92 L 411.441 723.58999 L 380.98 723.58999 Z " fill="#ffffff" fill-rule="evenodd"/>
<path transform="matrix(1,0,0,-1,0,841.5)" stroke-width="2" stroke-linecap="round" stroke-linejoin="round" fill="none" stroke="#000000" d="M 380.98 708.92 L 411.441 708.92 L 411.441 723.58999 L 380.98 723.58999 Z "/>
<g id="Layer-1" data-name="P">
<clipPath id="cp252">
<path transform="matrix(1,0,0,-1,0,841.5)" d="M .000008862 0 L 594.75 0 L 594.75 841.5 L .000008862 841.5 Z " fill-rule="evenodd"/>
</clipPath>
<g clip-path="url(#cp252)">
<text xml:space="preserve" transform="matrix(1 0 -0 1 0 841.5)" font-size="12.025" font-family="ArialNarrow" font-weight="bold"><tspan y="-712.55" x="396.7"> </tspan></text>
</g>
</g>
<path transform="matrix(1,0,0,-1,0,841.5)" d="M 358.21 751.44 C 358.21 755.49 351.27 758.78 342.7 758.78 C 334.13 758.78 327.19 755.49 327.19 751.44 C 327.19 747.39 334.13 744.11 342.7 744.11 C 351.27 744.11 358.21 747.39 358.21 751.44 Z " fill="#ffffff" fill-rule="evenodd"/>
<path transform="matrix(1,0,0,-1,0,841.5)" stroke-width="1.5" stroke-linecap="round" stroke-linejoin="round" fill="none" stroke="#000000" d="M 358.21 751.44 C 358.21 755.49 351.27 758.78 342.7 758.78 C 334.13 758.78 327.19 755.49 327.19 751.44 C 327.19 747.39 334.13 744.11 342.7 744.11 C 351.27 744.11 358.21 747.39 358.21 751.44 Z "/>
<path transform="matrix(1,0,0,-1,0,841.5)" d="M 358.51 680.33 C 358.51 684.38 351.57 687.66 343.01 687.66 C 334.44 687.66 327.5 684.38 327.5 680.33 C 327.5 676.27 334.44 672.99 343.01 672.99 C 351.57 672.99 358.51 676.27 358.51 680.33 Z " fill="#ffffff" fill-rule="evenodd"/>
<path transform="matrix(1,0,0,-1,0,841.5)" stroke-width="1.5" stroke-linecap="round" stroke-linejoin="round" fill="none" stroke="#000000" d="M 358.51 680.33 C 358.51 684.38 351.57 687.66 343.01 687.66 C 334.44 687.66 327.5 684.38 327.5 680.33 C 327.5 676.27 334.44 672.99 343.01 672.99 C 351.57 672.99 358.51 676.27 358.51 680.33 Z "/>
<g id="Layer-1" data-name="P">
<clipPath id="cp253">
<path transform="matrix(1,0,0,-1,0,841.5)" d="M .000008862 0 L 594.75 0 L 594.75 841.5 L .000008862 841.5 Z " fill-rule="evenodd"/>
</clipPath>
<g clip-path="url(#cp253)">
<text xml:space="preserve" transform="matrix(1 0 -0 1 0 841.5)" font-size="11.275" font-family="ArialNarrow" font-weight="bold"><tspan y="-655.5" x="315.65 320.90415 326.89118 332.14533 337.39949 342.64234 344.89735 347.89649 353.8835">goods to </tspan></text>
</g>
</g>
<g id="Layer-1" data-name="P">
<clipPath id="cp254">
<path transform="matrix(1,0,0,-1,0,841.5)" d="M .000008862 0 L 594.75 0 L 594.75 841.5 L .000008862 841.5 Z " fill-rule="evenodd"/>
</clipPath>
<g clip-path="url(#cp254)">
<text xml:space="preserve" transform="matrix(1 0 -0 1 0 841.5)" font-size="11.25" font-family="ArialNarrow" font-weight="bold"><tspan y="-642.28" x="315.65 322.4 327.6425 331.37748 335.87748 341.8625 347.11625 352.37 357.6125">warehouse</tspan></text>
</g>
</g>
<g id="Layer-1" data-name="P">
<clipPath id="cp255">
<path transform="matrix(1,0,0,-1,0,841.5)" d="M .000008862 0 L 594.75 0 L 594.75 841.5 L .000008862 841.5 Z " fill-rule="evenodd"/>
</clipPath>
<g clip-path="url(#cp255)">
<text xml:space="preserve" transform="matrix(1 0 -0 1 0 841.5)" font-size="12.025" font-family="ArialNarrow" font-weight="bold"><tspan y="-736.7" x="372.03 375.02424 378.764 381.75825 389.2859 393.02568 395.27436 401.2989">(f(w),p)</tspan></text>
</g>
</g>
<g id="Layer-1" data-name="P">
<clipPath id="cp256">
<path transform="matrix(1,0,0,-1,0,841.5)" d="M .000008862 0 L 594.75 0 L 594.75 841.5 L .000008862 841.5 Z " fill-rule="evenodd"/>
</clipPath>
<g clip-path="url(#cp256)">
<text xml:space="preserve" transform="matrix(1 0 -0 1 0 841.5)" font-size="11.25" font-family="ArialNarrow" font-weight="bold"><tspan y="-778.13" x="307.08 312.32249 317.57624 322.83 328.815 331.065 336.3075">supply </tspan></text>
</g>
</g>
<g id="Layer-1" data-name="P">
<clipPath id="cp257">
<path transform="matrix(1,0,0,-1,0,841.5)" d="M .000008862 0 L 594.75 0 L 594.75 841.5 L .000008862 841.5 Z " fill-rule="evenodd"/>
</clipPath>
<g clip-path="url(#cp257)">
<text xml:space="preserve" transform="matrix(1 0 -0 1 0 841.5)" font-size="11.275" font-family="ArialNarrow" font-weight="bold"><tspan y="-764.92" x="307.08 312.33415 316.07743 321.33158 326.57444 330.31773">orders</tspan></text>
</g>
</g>
<g id="Layer-1" data-name="P">
<clipPath id="cp258">
<path transform="matrix(1,0,0,-1,0,841.5)" d="M .000008862 0 L 594.75 0 L 594.75 841.5 L .000008862 841.5 Z " fill-rule="evenodd"/>
</clipPath>
<g clip-path="url(#cp258)">
<text xml:space="preserve" transform="matrix(1 0 -0 1 0 841.5)" font-size="12" font-family="ArialNarrow" font-weight="bold"><tspan y="-704.55" x="351.1">p</tspan></text>
</g>
</g>
<clipPath id="cp259">
<path transform="matrix(1,0,0,-1,0,841.5)" d="M .000008862 0 L 594.75 0 L 594.75 841.5 L .000008862 841.5 Z " fill-rule="evenodd"/>
</clipPath>
<g clip-path="url(#cp259)">
<text xml:space="preserve" transform="matrix(1 0 -0 1 0 841.5)" font-size="12" font-family="ArialNarrow" font-weight="bold"><tspan y="-704.55" x="357.13 360.88">&#x2022;[</tspan></text>
</g>
<g id="Layer-1" data-name="P">
<clipPath id="cp260">
<path transform="matrix(1,0,0,-1,0,841.5)" d="M .000008862 0 L 594.75 0 L 594.75 841.5 L .000008862 841.5 Z " fill-rule="evenodd"/>
</clipPath>
<g clip-path="url(#cp260)">
<text xml:space="preserve" transform="matrix(1 0 -0 1 0 841.5)" font-size="12" font-family="ArialNarrow" font-weight="bold"><tspan y="-704.55" x="363.85 371.375">w]</tspan></text>
</g>
</g>
<g id="Layer-1" data-name="P">
<clipPath id="cp261">
<path transform="matrix(1,0,0,-1,0,841.5)" d="M .000008862 0 L 594.75 0 L 594.75 841.5 L .000008862 841.5 Z " fill-rule="evenodd"/>
</clipPath>
<g clip-path="url(#cp261)">
<text xml:space="preserve" transform="matrix(1 0 -0 1 0 841.5)" font-size="11.25" font-family="ArialNarrow" font-weight="bold"><tspan y="-726.05" x="419.95 425.21504 430.4913 438.76008 444.03636 446.30885 449.32386 453.84635">compile </tspan></text>
</g>
</g>
<g id="Layer-1" data-name="P">
<clipPath id="cp262">
<path transform="matrix(1,0,0,-1,0,841.5)" d="M .000008862 0 L 594.75 0 L 594.75 841.5 L .000008862 841.5 Z " fill-rule="evenodd"/>
</clipPath>
<g clip-path="url(#cp262)">
<text xml:space="preserve" transform="matrix(1 0 -0 1 0 841.5)" font-size="11.275" font-family="ArialNarrow" font-weight="bold"><tspan y="-712.85" x="420.48 425.73417 429.47746 434.7316 439.97447 443.71775 448.21647 454.2035">ordered </tspan></text>
</g>
</g>
<g id="Layer-1" data-name="P">
<clipPath id="cp263">
<path transform="matrix(1,0,0,-1,0,841.5)" d="M .000008862 0 L 594.75 0 L 594.75 841.5 L .000008862 841.5 Z " fill-rule="evenodd"/>
</clipPath>
<g clip-path="url(#cp263)">
<text xml:space="preserve" transform="matrix(1 0 -0 1 0 841.5)" font-size="11.25" font-family="ArialNarrow" font-weight="bold"><tspan y="-699.63" x="427 432.25376 438.23878 443.49253 448.74629">goods</tspan></text>
</g>
</g>
</g>
</g>
</svg>
