<?xml version="1.0" encoding="UTF-8" standalone="no"?>
<!DOCTYPE svg PUBLIC "-//W3C//DTD SVG 1.1//EN" "http://www.w3.org/Graphics/SVG/1.1/DTD/svg11.dtd">
<svg xmlns="http://www.w3.org/2000/svg" xmlns:xlink="http://www.w3.org/1999/xlink" version="1.1" width="594.75pt" height="841.5pt" viewBox="0 0 594.75 841.5">
<g enable-background="new">
<g>
<g id="Layer-1" data-name="P">
<clipPath id="cp96">
<path transform="matrix(1,0,0,-1,0,841.5)" d="M .000008862 0 L 594.75 0 L 594.75 841.5 L .000008862 841.5 Z " fill-rule="evenodd"/>
</clipPath>
<g clip-path="url(#cp96)">
<text xml:space="preserve" transform="matrix(1 0 -0 1 0 841.5)" font-size="12" font-family="ArialNarrow" font-weight="bold"><tspan y="-351.2" x="477.15 480.15 486.16203 488.406 491.394 498.16203">(k, X)</tspan></text>
</g>
</g>
<g id="Layer-1" data-name="P">
<clipPath id="cp97">
<path transform="matrix(1,0,0,-1,0,841.5)" d="M .000008862 0 L 594.75 0 L 594.75 841.5 L .000008862 841.5 Z " fill-rule="evenodd"/>
</clipPath>
<g clip-path="url(#cp97)">
<text xml:space="preserve" transform="matrix(1 0 -0 1 0 841.5)" font-size="12.025" font-family="ArialNarrow" font-weight="bold"><tspan y="-347.8" x="387.13">k</tspan></text>
</g>
</g>
<clipPath id="cp98">
<path transform="matrix(1,0,0,-1,0,841.5)" d="M .000030518 841.5 L 594.75 841.5 L 594.75 .00012207 L .000030518 .00012207 " fill-rule="evenodd"/>
</clipPath>
<g clip-path="url(#cp98)">
<path transform="matrix(1,0,0,-1,0,841.5)" stroke-width="1.5" stroke-linecap="round" stroke-linejoin="round" fill="none" stroke="#000000" d="M 440.16 346.43 L 440.16 296.64 "/>
</g>
<clipPath id="cp99">
<path transform="matrix(1,0,0,-1,0,841.5)" d="M .000030518 841.5 L 594.75 841.5 L 594.75 .00012207 L .000030518 .00012207 " fill-rule="evenodd"/>
</clipPath>
<g clip-path="url(#cp99)">
<path transform="matrix(1,0,0,-1,0,841.5)" d="M 444.9 297.83 L 440.16 283.61 L 435.42 297.83 L 444.9 297.83 Z " fill-rule="evenodd"/>
</g>
<path transform="matrix(1,0,0,-1,0,841.5)" stroke-width="1.5" stroke-linecap="round" stroke-linejoin="round" fill="none" stroke="#000000" d="M 426.43 346.43 L 504.9 346.43 "/>
<path transform="matrix(1,0,0,-1,0,841.5)" d="M 503.72 351.17 L 517.94 346.43 L 503.72 341.69 L 503.72 351.17 Z " fill-rule="evenodd"/>
<clipPath id="cp100">
<path transform="matrix(1,0,0,-1,0,841.5)" d="M -.000030518 841.5 L 594.75 841.5 L 594.75 .00024414 L -.000061035 .00018311 " fill-rule="evenodd"/>
</clipPath>
<g clip-path="url(#cp100)">
<path transform="matrix(1,0,0,-1,0,841.5)" stroke-width="1.5" stroke-linecap="round" stroke-linejoin="round" fill="none" stroke="#000000" d="M 362.83 344.76 L 397.26 345.22 "/>
</g>
<clipPath id="cp101">
<path transform="matrix(1,0,0,-1,0,841.5)" d="M -.000030518 841.5 L 594.75 841.5 L 594.75 .00024414 L -.000061035 .00018311 " fill-rule="evenodd"/>
</clipPath>
<g clip-path="url(#cp101)">
<path transform="matrix(1,0,0,-1,0,841.5)" d="M 396.01 349.94 L 410.29 345.39 L 396.13 340.46 L 396.01 349.94 Z " fill-rule="evenodd"/>
</g>
<path transform="matrix(1,0,0,-1,0,841.5)" d="M 410.54 323.9 L 469.789 323.9 L 469.789 367.607 L 410.54 367.607 Z " fill="#ffffff" fill-rule="evenodd"/>
<path transform="matrix(1,0,0,-1,0,841.5)" stroke-width="2" stroke-linecap="round" stroke-linejoin="round" fill="none" stroke="#000000" d="M 410.54 323.9 L 469.789 323.9 L 469.789 367.607 L 410.54 367.607 Z "/>
<g id="Layer-1" data-name="P">
<clipPath id="cp102">
<path transform="matrix(1,0,0,-1,0,841.5)" d="M .000008862 0 L 594.75 0 L 594.75 841.5 L .000008862 841.5 Z " fill-rule="evenodd"/>
</clipPath>
<g clip-path="url(#cp102)">
<text xml:space="preserve" transform="matrix(1 0 -0 1 0 841.5)" font-size="9.025" font-family="ArialNarrow" font-weight="bold" font-style="italic"><tspan y="-351.4" x="427.48 431.2344 433.47264 437.96708 440.2053 445.45787 447.70509 452.19953">k = Ute,</tspan></text>
</g>
</g>
<g id="Layer-1" data-name="P">
<clipPath id="cp103">
<path transform="matrix(1,0,0,-1,0,841.5)" d="M .000008862 0 L 594.75 0 L 594.75 841.5 L .000008862 841.5 Z " fill-rule="evenodd"/>
</clipPath>
<g clip-path="url(#cp103)">
<text xml:space="preserve" transform="matrix(1 0 -0 1 0 841.5)" font-size="9.025" font-family="ArialNarrow" font-weight="bold" font-style="italic"><tspan y="-343.3" x="434.05"> </tspan></text>
</g>
</g>
<g id="Layer-1" data-name="P">
<clipPath id="cp104">
<path transform="matrix(1,0,0,-1,0,841.5)" d="M .000008862 0 L 594.75 0 L 594.75 841.5 L .000008862 841.5 Z " fill-rule="evenodd"/>
</clipPath>
<g clip-path="url(#cp104)">
<text xml:space="preserve" transform="matrix(1 0 -0 1 0 841.5)" font-size="9.025" font-family="ArialNarrow" font-weight="bold"><tspan y="-343.3" x="436.1 441.34355 442.8417 447.33616">X = </tspan></text>
</g>
</g>
<g id="Layer-1" data-name="P">
<clipPath id="cp105">
<path transform="matrix(1,0,0,-1,0,841.5)" d="M .000008862 0 L 594.75 0 L 594.75 841.5 L .000008862 841.5 Z " fill-rule="evenodd"/>
</clipPath>
<g clip-path="url(#cp105)">
<text xml:space="preserve" transform="matrix(1 0 -0 1 0 841.5)" font-size="9" font-family="ArialNarrow" font-weight="bold"><tspan y="-335.17" x="420.8 423.788 428.297 432.04103 434.282 436.523 441.032 444.77604 447.01704 449.25804 453.76704">{p1, p2, p2</tspan></text>
</g>
</g>
<g id="Layer-1" data-name="P">
<clipPath id="cp106">
<path transform="matrix(1,0,0,-1,0,841.5)" d="M .000008862 0 L 594.75 0 L 594.75 841.5 L .000008862 841.5 Z " fill-rule="evenodd"/>
</clipPath>
<g clip-path="url(#cp106)">
<text xml:space="preserve" transform="matrix(1 0 -0 1 0 841.5)" font-size="9" font-family="ArialNarrow" font-weight="bold"><tspan y="-335.17" x="457.77 460.77">} </tspan></text>
</g>
</g>
<path transform="matrix(1,0,0,-1,0,841.5)" d="M 480.35 272.61 C 480.35 278.25 462.26 282.81 439.95 282.81 C 417.65 282.81 399.56 278.25 399.56 272.61 C 399.56 266.97 417.65 262.4 439.95 262.4 C 462.26 262.4 480.35 266.97 480.35 272.61 Z " fill="#ffffff" fill-rule="evenodd"/>
<path transform="matrix(1,0,0,-1,0,841.5)" stroke-width="1.5" stroke-linecap="round" stroke-linejoin="round" fill="none" stroke="#000000" d="M 480.35 272.61 C 480.35 278.25 462.26 282.81 439.95 282.81 C 417.65 282.81 399.56 278.25 399.56 272.61 C 399.56 266.97 417.65 262.4 439.95 262.4 C 462.26 262.4 480.35 266.97 480.35 272.61 Z "/>
<g id="Layer-1" data-name="P">
<clipPath id="cp107">
<path transform="matrix(1,0,0,-1,0,841.5)" d="M .000008862 0 L 594.75 0 L 594.75 841.5 L .000008862 841.5 Z " fill-rule="evenodd"/>
</clipPath>
<g clip-path="url(#cp107)">
<text xml:space="preserve" transform="matrix(1 0 -0 1 0 841.5)" font-size="9" font-family="ArialNarrow" font-weight="bold"><tspan y="-270.08" x="411.35 413.6 418.87403 421.86204 425.63304">(Ute,</tspan></text>
</g>
</g>
<g id="Layer-1" data-name="Span">
<clipPath id="cp108">
<path transform="matrix(1,0,0,-1,0,841.5)" d="M .000008862 0 L 594.75 0 L 594.75 841.5 L .000008862 841.5 Z " fill-rule="evenodd"/>
</clipPath>
<g clip-path="url(#cp108)">
<text xml:space="preserve" transform="matrix(1 0 -0 1 0 841.5)" font-size="9" font-family="ArialNarrow" font-weight="bold"><tspan y="-270.08" x="427.77"> </tspan></text>
</g>
</g>
<g id="Layer-1" data-name="P">
<clipPath id="cp109">
<path transform="matrix(1,0,0,-1,0,841.5)" d="M .000008862 0 L 594.75 0 L 594.75 841.5 L .000008862 841.5 Z " fill-rule="evenodd"/>
</clipPath>
<g clip-path="url(#cp109)">
<text xml:space="preserve" transform="matrix(1 0 -0 1 0 841.5)" font-size="9" font-family="ArialNarrow" font-weight="bold"><tspan y="-270.08" x="429.83 432.818 437.327 441.071 443.312 445.553 450.062 453.80604 456.04704 458.28804 462.79704">{p1, p2, p2</tspan></text>
</g>
</g>
<g id="Layer-1" data-name="P">
<clipPath id="cp110">
<path transform="matrix(1,0,0,-1,0,841.5)" d="M .000008862 0 L 594.75 0 L 594.75 841.5 L .000008862 841.5 Z " fill-rule="evenodd"/>
</clipPath>
<g clip-path="url(#cp110)">
<text xml:space="preserve" transform="matrix(1 0 -0 1 0 841.5)" font-size="9" font-family="ArialNarrow" font-weight="bold"><tspan y="-270.08" x="466.8">}</tspan></text>
</g>
</g>
<g id="Layer-1" data-name="P">
<clipPath id="cp111">
<path transform="matrix(1,0,0,-1,0,841.5)" d="M .000008862 0 L 594.75 0 L 594.75 841.5 L .000008862 841.5 Z " fill-rule="evenodd"/>
</clipPath>
<g clip-path="url(#cp111)">
<text xml:space="preserve" transform="matrix(1 0 -0 1 0 841.5)" font-size="12.025" font-family="ArialNarrow" font-weight="bold"><tspan y="-306.85" x="443.7 446.69425 452.68269 454.93138 457.91358 464.64756">(k, X)</tspan></text>
</g>
</g>
<path transform="matrix(1,0,0,-1,0,841.5)" d="M 577.07 346.45 C 577.07 355.61 563.8 363.03 547.44 363.03 C 531.08 363.03 517.82 355.61 517.82 346.45 C 517.82 337.29 531.08 329.87 547.44 329.87 C 563.8 329.87 577.07 337.29 577.07 346.45 Z " fill="#ffffff" fill-rule="evenodd"/>
<path transform="matrix(1,0,0,-1,0,841.5)" stroke-width="1.5" stroke-linecap="round" stroke-linejoin="round" fill="none" stroke="#000000" d="M 577.07 346.45 C 577.07 355.61 563.8 363.03 547.44 363.03 C 531.08 363.03 517.82 355.61 517.82 346.45 C 517.82 337.29 531.08 329.87 547.44 329.87 C 563.8 329.87 577.07 337.29 577.07 346.45 Z "/>
<g id="Layer-1" data-name="P">
<clipPath id="cp112">
<path transform="matrix(1,0,0,-1,0,841.5)" d="M .000008862 0 L 594.75 0 L 594.75 841.5 L .000008862 841.5 Z " fill-rule="evenodd"/>
</clipPath>
<g clip-path="url(#cp112)">
<text xml:space="preserve" transform="matrix(1 0 -0 1 0 841.5)" font-size="9.025" font-family="ArialNarrow" font-weight="bold"><tspan y="-348.05" x="539.92 542.1672 547.4197 550.4069 554.1613">(Ute,</tspan></text>
</g>
</g>
<g id="Layer-1" data-name="Span">
<clipPath id="cp113">
<path transform="matrix(1,0,0,-1,0,841.5)" d="M .000008862 0 L 594.75 0 L 594.75 841.5 L .000008862 841.5 Z " fill-rule="evenodd"/>
</clipPath>
<g clip-path="url(#cp113)">
<text xml:space="preserve" transform="matrix(1 0 -0 1 0 841.5)" font-size="9.025" font-family="ArialNarrow" font-weight="bold"><tspan y="-348.05" x="556.35"> </tspan></text>
</g>
</g>
<g id="Layer-1" data-name="P">
<clipPath id="cp114">
<path transform="matrix(1,0,0,-1,0,841.5)" d="M .000008862 0 L 594.75 0 L 594.75 841.5 L .000008862 841.5 Z " fill-rule="evenodd"/>
</clipPath>
<g clip-path="url(#cp114)">
<text xml:space="preserve" transform="matrix(1 0 -0 1 0 841.5)" font-size="9" font-family="ArialNarrow" font-weight="bold"><tspan y="-339.92" x="527 529.988 534.49697 538.24099 540.482 542.723 547.232 550.976 553.21707 555.45809 559.96707">{p1, p2, p2</tspan></text>
</g>
</g>
<g id="Layer-1" data-name="P">
<clipPath id="cp115">
<path transform="matrix(1,0,0,-1,0,841.5)" d="M .000008862 0 L 594.75 0 L 594.75 841.5 L .000008862 841.5 Z " fill-rule="evenodd"/>
</clipPath>
<g clip-path="url(#cp115)">
<text xml:space="preserve" transform="matrix(1 0 -0 1 0 841.5)" font-size="9" font-family="ArialNarrow" font-weight="bold"><tspan y="-339.92" x="563.95 566.95">})</tspan></text>
</g>
</g>
<path transform="matrix(1,0,0,-1,0,841.5)" d="M 375.73 344.89 C 375.73 350.53 369.96 355.1 362.83 355.1 C 355.71 355.1 349.94 350.53 349.94 344.89 C 349.94 339.26 355.71 334.69 362.83 334.69 C 369.96 334.69 375.73 339.26 375.73 344.89 Z " fill="#ffffff" fill-rule="evenodd"/>
<path transform="matrix(1,0,0,-1,0,841.5)" stroke-width="1.5" stroke-linecap="round" stroke-linejoin="round" fill="none" stroke="#000000" d="M 375.73 344.89 C 375.73 350.53 369.96 355.1 362.83 355.1 C 355.71 355.1 349.94 350.53 349.94 344.89 C 349.94 339.26 355.71 334.69 362.83 334.69 C 369.96 334.69 375.73 339.26 375.73 344.89 Z "/>
<g id="Layer-1" data-name="P">
<clipPath id="cp116">
<path transform="matrix(1,0,0,-1,0,841.5)" d="M .000008862 0 L 594.75 0 L 594.75 841.5 L .000008862 841.5 Z " fill-rule="evenodd"/>
</clipPath>
<g clip-path="url(#cp116)">
<text xml:space="preserve" transform="matrix(1 0 -0 1 0 841.5)" font-size="9.025" font-family="ArialNarrow" font-weight="bold"><tspan y="-369.98" x="350.92 355.44154 358.41075 362.93226 366.65959 369.64686 371.88508 376.4066 380.88298">ordering </tspan></text>
</g>
</g>
<g id="Layer-1" data-name="P">
<clipPath id="cp117">
<path transform="matrix(1,0,0,-1,0,841.5)" d="M .000008862 0 L 594.75 0 L 594.75 841.5 L .000008862 841.5 Z " fill-rule="evenodd"/>
</clipPath>
<g clip-path="url(#cp117)">
<text xml:space="preserve" transform="matrix(1 0 -0 1 0 841.5)" font-size="9" font-family="ArialNarrow" font-weight="bold"><tspan y="-359.83" x="350.92 354.673 359.182 363.664 365.914 370.423 377.155 380.908 383.896 388.387">customers </tspan></text>
</g>
</g>
<g id="Layer-1" data-name="P">
<clipPath id="cp118">
<path transform="matrix(1,0,0,-1,0,841.5)" d="M .000008862 0 L 594.75 0 L 594.75 841.5 L .000008862 841.5 Z " fill-rule="evenodd"/>
</clipPath>
<g clip-path="url(#cp118)">
<text xml:space="preserve" transform="matrix(1 0 -0 1 0 841.5)" font-size="9" font-family="ArialNarrow" font-weight="bold"><tspan y="-367.85" x="522.13 526.639 531.14797 534.1179 537.8709 542.3799 546.8619 550.61489 555.1059 556.6089 561.84689 564.09689 568.60586 573.0878 576.0758">purchase orders</tspan></text>
</g>
</g>
<g id="Layer-1" data-name="P">
<clipPath id="cp119">
<path transform="matrix(1,0,0,-1,0,841.5)" d="M .000008862 0 L 594.75 0 L 594.75 841.5 L .000008862 841.5 Z " fill-rule="evenodd"/>
</clipPath>
<g clip-path="url(#cp119)">
<text xml:space="preserve" transform="matrix(1 0 -0 1 0 841.5)" font-size="9.025" font-family="ArialNarrow" font-weight="bold"><tspan y="-282" x="499.05 503.5715 508.04789 511.03517 514.78958 519.3111 523.7785 527.5329 532.02737">purchase </tspan></text>
</g>
</g>
<g id="Layer-1" data-name="P">
<clipPath id="cp120">
<path transform="matrix(1,0,0,-1,0,841.5)" d="M .000008862 0 L 594.75 0 L 594.75 841.5 L .000008862 841.5 Z " fill-rule="evenodd"/>
</clipPath>
<g clip-path="url(#cp120)">
<text xml:space="preserve" transform="matrix(1 0 -0 1 0 841.5)" font-size="9" font-family="ArialNarrow" font-weight="bold"><tspan y="-271.85" x="487.55 492.059 495.065 499.574 503.336 506.324 508.565 512.318 516.82699 521.3629 523.60397 528.12197">order copies</tspan></text>
</g>
</g>
<g id="Layer-1" data-name="P">
<clipPath id="cp121">
<path transform="matrix(1,0,0,-1,0,841.5)" d="M .000008862 0 L 594.75 0 L 594.75 841.5 L .000008862 841.5 Z " fill-rule="evenodd"/>
</clipPath>
<g clip-path="url(#cp121)">
<text xml:space="preserve" transform="matrix(1 0 -0 1 0 841.5)" font-size="9" font-family="ArialNarrow" font-weight="bold"><tspan y="-383.3" x="424.98 428.733 433.242 437.751 444.474 446.715 448.965">submit </tspan></text>
</g>
</g>
<g id="Layer-1" data-name="P">
<clipPath id="cp122">
<path transform="matrix(1,0,0,-1,0,841.5)" d="M .000008862 0 L 594.75 0 L 594.75 841.5 L .000008862 841.5 Z " fill-rule="evenodd"/>
</clipPath>
<g clip-path="url(#cp122)">
<text xml:space="preserve" transform="matrix(1 0 -0 1 0 841.5)" font-size="9.025" font-family="ArialNarrow" font-weight="bold"><tspan y="-373.18" x="409.18 413.7015 418.1779 421.16517 424.91957 429.44108 433.90846 437.66285 442.1573 443.65547 445.89369 450.4152 453.3844 457.9059 462.3733">purchase  order</tspan></text>
</g>
</g>
</g>
</g>
</svg>
