<?xml version="1.0" encoding="UTF-8" standalone="no"?>
<!DOCTYPE svg PUBLIC "-//W3C//DTD SVG 1.1//EN" "http://www.w3.org/Graphics/SVG/1.1/DTD/svg11.dtd">
<svg xmlns="http://www.w3.org/2000/svg" xmlns:xlink="http://www.w3.org/1999/xlink" version="1.1" width="594.75pt" height="841.5pt" viewBox="0 0 594.75 841.5">
<g enable-background="new">
<g>
<clipPath id="cp597">
<path transform="matrix(1,0,0,-1,0,841.5)" d="M .000015259 841.5 L 594.75 841.5 L 594.75 .00012207 L .000015259 .00012207 " fill-rule="evenodd"/>
</clipPath>
<g clip-path="url(#cp597)">
<path transform="matrix(1,0,0,-1,0,841.5)" stroke-width="1.5" stroke-linecap="round" stroke-linejoin="round" fill="none" stroke="#000000" d="M 169.82 188.08 L 169.82 150.32 "/>
</g>
<clipPath id="cp598">
<path transform="matrix(1,0,0,-1,0,841.5)" d="M .000015259 841.5 L 594.75 841.5 L 594.75 .00012207 L .000015259 .00012207 " fill-rule="evenodd"/>
</clipPath>
<g clip-path="url(#cp598)">
<path transform="matrix(1,0,0,-1,0,841.5)" d="M 174.56 151.5 L 169.82 137.28 L 165.08 151.5 L 174.56 151.5 Z " fill-rule="evenodd"/>
</g>
<g id="Layer-1" data-name="P">
<clipPath id="cp599">
<path transform="matrix(1,0,0,-1,0,841.5)" d="M .000008862 0 L 594.75 0 L 594.75 841.5 L .000008862 841.5 Z " fill-rule="evenodd"/>
</clipPath>
<g clip-path="url(#cp599)">
<text xml:space="preserve" transform="matrix(1 0 -0 1 0 841.5)" font-size="11.25" font-family="ArialNarrow" font-weight="bold"><tspan y="-160.63" x="145.45 148.45374 153.69625 155.94625 158.19625 164.19249">(k, X)</tspan></text>
</g>
</g>
<path transform="matrix(1,0,0,-1,0,841.5)" stroke-width="1.5" stroke-linecap="round" stroke-linejoin="round" fill="none" stroke="#000000" d="M 412.38 129.26 L 344.34 129.26 "/>
<path transform="matrix(1,0,0,-1,0,841.5)" d="M 345.53 124.52 L 331.31 129.26 L 345.53 134 L 345.53 124.52 Z " fill-rule="evenodd"/>
<path transform="matrix(1,0,0,-1,0,841.5)" stroke-width="1.5" stroke-linecap="round" stroke-linejoin="round" fill="none" stroke="#000000" d="M 478.99 129.26 L 439.49 129.26 "/>
<path transform="matrix(1,0,0,-1,0,841.5)" d="M 440.67 124.52 L 426.45 129.26 L 440.67 134 L 440.67 124.52 Z " fill-rule="evenodd"/>
<clipPath id="cp600">
<path transform="matrix(1,0,0,-1,0,841.5)" d="M -.000061035 841.5 L 594.75 841.5 L 594.75 -.00012207 L -.000061035 -.000061035 " fill-rule="evenodd"/>
</clipPath>
<g clip-path="url(#cp600)">
<path transform="matrix(1,0,0,-1,0,841.5)" stroke-width="1.5" stroke-linecap="round" stroke-linejoin="round" fill="none" stroke="#000000" d="M 265.66 129.23 L 201.54 129.57 "/>
</g>
<clipPath id="cp601">
<path transform="matrix(1,0,0,-1,0,841.5)" d="M -.000061035 841.5 L 594.75 841.5 L 594.75 -.00012207 L -.000061035 -.000061035 " fill-rule="evenodd"/>
</clipPath>
<g clip-path="url(#cp601)">
<path transform="matrix(1,0,0,-1,0,841.5)" d="M 202.7 124.82 L 188.5 129.64 L 202.75 134.3 L 202.7 124.82 Z " fill-rule="evenodd"/>
</g>
<path transform="matrix(1,0,0,-1,0,841.5)" d="M 392.54 121.99 L 426.457 121.99 L 426.457 136.66 L 392.54 136.66 Z " fill="#ffffff" fill-rule="evenodd"/>
<path transform="matrix(1,0,0,-1,0,841.5)" stroke-width="2" stroke-linecap="round" stroke-linejoin="round" fill="none" stroke="#000000" d="M 392.54 121.99 L 426.457 121.99 L 426.457 136.66 L 392.54 136.66 Z "/>
<g id="Layer-1" data-name="P">
<clipPath id="cp602">
<path transform="matrix(1,0,0,-1,0,841.5)" d="M .000008862 0 L 594.75 0 L 594.75 841.5 L .000008862 841.5 Z " fill-rule="evenodd"/>
</clipPath>
<g clip-path="url(#cp602)">
<text xml:space="preserve" transform="matrix(1 0 -0 1 0 841.5)" font-size="11.275" font-family="ArialNarrow" font-weight="bold"><tspan y="-126.23" x="410.03"> </tspan></text>
</g>
</g>
<clipPath id="cp603">
<path transform="matrix(1,0,0,-1,0,841.5)" d="M -.000015259 841.5 L 594.75 841.5 L 594.75 -.00012207 L -.000015259 0 " fill-rule="evenodd"/>
</clipPath>
<g clip-path="url(#cp603)">
<path transform="matrix(1,0,0,-1,0,841.5)" stroke-width="1.5" stroke-linecap="round" stroke-linejoin="round" fill="none" stroke="#000000" d="M 155.73 129.48 L 122.89 129.55 "/>
</g>
<clipPath id="cp604">
<path transform="matrix(1,0,0,-1,0,841.5)" d="M -.000015259 841.5 L 594.75 841.5 L 594.75 -.00012207 L -.000015259 0 " fill-rule="evenodd"/>
</clipPath>
<g clip-path="url(#cp604)">
<path transform="matrix(1,0,0,-1,0,841.5)" d="M 124.07 124.81 L 109.86 129.58 L 124.09 134.29 L 124.07 124.81 Z " fill-rule="evenodd"/>
</g>
<g id="Layer-1" data-name="P">
<clipPath id="cp605">
<path transform="matrix(1,0,0,-1,0,841.5)" d="M .000008862 0 L 594.75 0 L 594.75 841.5 L .000008862 841.5 Z " fill-rule="evenodd"/>
</clipPath>
<g clip-path="url(#cp605)">
<text xml:space="preserve" transform="matrix(1 0 -0 1 0 841.5)" font-size="9" font-family="ArialNarrow" font-weight="bold"><tspan y="-119.12" x="128.18 130.43 134.92099 136.424 138.665 143.903 145.406">(k, X')</tspan></text>
</g>
</g>
<path transform="matrix(1,0,0,-1,0,841.5)" d="M 556.65 129.59 C 556.65 139.62 539.32 147.76 517.94 147.76 C 496.56 147.76 479.23 139.62 479.23 129.59 C 479.23 119.55 496.56 111.42 517.94 111.42 C 539.32 111.42 556.65 119.55 556.65 129.59 Z " fill="#ffffff" fill-rule="evenodd"/>
<path transform="matrix(1,0,0,-1,0,841.5)" stroke-width="1.5" stroke-linecap="round" stroke-linejoin="round" fill="none" stroke="#000000" d="M 556.65 129.59 C 556.65 139.62 539.32 147.76 517.94 147.76 C 496.56 147.76 479.23 139.62 479.23 129.59 C 479.23 119.55 496.56 111.42 517.94 111.42 C 539.32 111.42 556.65 119.55 556.65 129.59 Z "/>
<path transform="matrix(1,0,0,-1,0,841.5)" d="M 331.19 129.62 C 331.19 140.99 313.86 150.2 292.47 150.2 C 271.09 150.2 253.76 140.99 253.76 129.62 C 253.76 118.26 271.09 109.04 292.47 109.04 C 313.86 109.04 331.19 118.26 331.19 129.62 Z " fill="#ffffff" fill-rule="evenodd"/>
<path transform="matrix(1,0,0,-1,0,841.5)" stroke-width="1.5" stroke-linecap="round" stroke-linejoin="round" fill="none" stroke="#000000" d="M 331.19 129.62 C 331.19 140.99 313.86 150.2 292.47 150.2 C 271.09 150.2 253.76 140.99 253.76 129.62 C 253.76 118.26 271.09 109.04 292.47 109.04 C 313.86 109.04 331.19 118.26 331.19 129.62 Z "/>
<g id="Layer-1" data-name="P">
<clipPath id="cp606">
<path transform="matrix(1,0,0,-1,0,841.5)" d="M .000008862 0 L 594.75 0 L 594.75 841.5 L .000008862 841.5 Z " fill-rule="evenodd"/>
</clipPath>
<g clip-path="url(#cp606)">
<text xml:space="preserve" transform="matrix(1 0 -0 1 0 841.5)" font-size="8.275" font-family="ArialNarrow" font-weight="bold"><tspan y="-127.2" x="292.85"> </tspan></text>
</g>
</g>
<path transform="matrix(1,0,0,-1,0,841.5)" d="M 208.6 199.88 C 208.6 209.92 191.27 218.05 169.89 218.05 C 148.51 218.05 131.17 209.92 131.17 199.88 C 131.17 189.85 148.51 181.71 169.89 181.71 C 191.27 181.71 208.6 189.85 208.6 199.88 Z " fill="#ffffff" fill-rule="evenodd"/>
<path transform="matrix(1,0,0,-1,0,841.5)" stroke-width="1.5" stroke-linecap="round" stroke-linejoin="round" fill="none" stroke="#000000" d="M 208.6 199.88 C 208.6 209.92 191.27 218.05 169.89 218.05 C 148.51 218.05 131.17 209.92 131.17 199.88 C 131.17 189.85 148.51 181.71 169.89 181.71 C 191.27 181.71 208.6 189.85 208.6 199.88 Z "/>
<g id="Layer-1" data-name="P">
<clipPath id="cp607">
<path transform="matrix(1,0,0,-1,0,841.5)" d="M .000008862 0 L 594.75 0 L 594.75 841.5 L .000008862 841.5 Z " fill-rule="evenodd"/>
</clipPath>
<g clip-path="url(#cp607)">
<text xml:space="preserve" transform="matrix(1 0 -0 1 0 841.5)" font-size="9.025" font-family="ArialNarrow" font-weight="bold"><tspan y="-197.3" x="170.1"> </tspan></text>
</g>
</g>
<path transform="matrix(1,0,0,-1,0,841.5)" d="M 109.38 130.15 C 109.38 140.18 92.047 148.32 70.667 148.32 C 49.286 148.32 31.953 140.18 31.953 130.15 C 31.953 120.12 49.286 111.98 70.667 111.98 C 92.047 111.98 109.38 120.12 109.38 130.15 Z " fill="#ffffff" fill-rule="evenodd"/>
<path transform="matrix(1,0,0,-1,0,841.5)" stroke-width="1.5" stroke-linecap="round" stroke-linejoin="round" fill="none" stroke="#000000" d="M 109.38 130.15 C 109.38 140.18 92.047 148.32 70.667 148.32 C 49.286 148.32 31.953 140.18 31.953 130.15 C 31.953 120.12 49.286 111.98 70.667 111.98 C 92.047 111.98 109.38 120.12 109.38 130.15 Z "/>
<g id="Layer-1" data-name="P">
<clipPath id="cp608">
<path transform="matrix(1,0,0,-1,0,841.5)" d="M .000008862 0 L 594.75 0 L 594.75 841.5 L .000008862 841.5 Z " fill-rule="evenodd"/>
</clipPath>
<g clip-path="url(#cp608)">
<text xml:space="preserve" transform="matrix(1 0 -0 1 0 841.5)" font-size="9" font-family="ArialNarrow" font-weight="bold"><tspan y="-131.55" x="48.375 50.625 55.871999 58.859998 62.612997 64.854 67.095 69.345 73.836009 78.34501 82.85401 86.589008 91.08001 93.321018">(Ute, {shoes, </tspan></text>
</g>
</g>
<g id="Layer-1" data-name="P">
<clipPath id="cp609">
<path transform="matrix(1,0,0,-1,0,841.5)" d="M .000008862 0 L 594.75 0 L 594.75 841.5 L .000008862 841.5 Z " fill-rule="evenodd"/>
</clipPath>
<g clip-path="url(#cp609)">
<text xml:space="preserve" transform="matrix(1 0 -0 1 0 841.5)" font-size="9.025" font-family="ArialNarrow" font-weight="bold"><tspan y="-123.45" x="42.225 45.9794 50.500928 54.97733 59.47178 63.22618 65.46438 67.702579 72.2241 75.95142 78.9387 80.43685 82.67505 87.19657 91.66395 93.91117 96.898448">shoes, hat, hat})</tspan></text>
</g>
</g>
<path transform="matrix(1,0,0,-1,0,841.5)" d="M 150.85 121.74 L 188.45401 121.74 L 188.45401 136.41 L 150.85 136.41 Z " fill="#ffffff" fill-rule="evenodd"/>
<path transform="matrix(1,0,0,-1,0,841.5)" stroke-width="2" stroke-linecap="round" stroke-linejoin="round" fill="none" stroke="#000000" d="M 150.85 121.74 L 188.45401 121.74 L 188.45401 136.41 L 150.85 136.41 Z "/>
<g id="Layer-1" data-name="P">
<clipPath id="cp610">
<path transform="matrix(1,0,0,-1,0,841.5)" d="M .000008862 0 L 594.75 0 L 594.75 841.5 L .000008862 841.5 Z " fill-rule="evenodd"/>
</clipPath>
<g clip-path="url(#cp610)">
<text xml:space="preserve" transform="matrix(1 0 -0 1 0 841.5)" font-size="9.025" font-family="ArialNarrow" font-weight="bold"><tspan y="-126.43" x="155.35"> </tspan></text>
</g>
</g>
<g id="Layer-1" data-name="P">
<clipPath id="cp611">
<path transform="matrix(1,0,0,-1,0,841.5)" d="M .000008862 0 L 594.75 0 L 594.75 841.5 L .000008862 841.5 Z " fill-rule="evenodd"/>
</clipPath>
<g clip-path="url(#cp611)">
<text xml:space="preserve" transform="matrix(1 0 -0 1 0 841.5)" font-size="9.025" font-family="ArialNarrow" font-weight="bold"><tspan y="-126.43" x="157.4 162.64353 164.14168 166.37987 170.13428 172.37247 174.61969 177.60697 182.1285 184.35767">X' = f(Z) </tspan></text>
</g>
</g>
<g id="Layer-1" data-name="P">
<clipPath id="cp612">
<path transform="matrix(1,0,0,-1,0,841.5)" d="M .000008862 0 L 594.75 0 L 594.75 841.5 L .000008862 841.5 Z " fill-rule="evenodd"/>
</clipPath>
<g clip-path="url(#cp612)">
<text xml:space="preserve" transform="matrix(1 0 -0 1 0 841.5)" font-size="9.775" font-family="ArialNarrow" font-weight="bold"><tspan y="-114.22" x="452.38 455.37117 459.85789 462.08659 464.3446 468.8411">(k, Z)</tspan></text>
</g>
</g>
<g id="Layer-1" data-name="P">
<clipPath id="cp613">
<path transform="matrix(1,0,0,-1,0,841.5)" d="M .000008862 0 L 594.75 0 L 594.75 841.5 L .000008862 841.5 Z " fill-rule="evenodd"/>
</clipPath>
<g clip-path="url(#cp613)">
<text xml:space="preserve" transform="matrix(1 0 -0 1 0 841.5)" font-size="9.75" font-family="ArialNarrow" font-weight="bold"><tspan y="-115.12" x="347.28 351.79426 354.05625 361.5735 363.8452 367.60874 372.123 375.1455">elm({k} </tspan></text>
</g>
</g>
<g id="Layer-1" data-name="P">
<clipPath id="cp614">
<path transform="matrix(1,0,0,-1,0,841.5)" d="M .000008862 0 L 594.75 0 L 594.75 841.5 L .000008862 841.5 Z " fill-rule="evenodd"/>
</clipPath>
<g clip-path="url(#cp614)">
<text xml:space="preserve" transform="matrix(1 0 -0 1 0 841.5)" font-size="9.75" font-family="SymbolMT"><tspan y="-115.12" x="377.4 382.64976">&#xf0b4; </tspan></text>
</g>
</g>
<g id="Layer-1" data-name="P">
<clipPath id="cp615">
<path transform="matrix(1,0,0,-1,0,841.5)" d="M .000008862 0 L 594.75 0 L 594.75 841.5 L .000008862 841.5 Z " fill-rule="evenodd"/>
</clipPath>
<g clip-path="url(#cp615)">
<text xml:space="preserve" transform="matrix(1 0 -0 1 0 841.5)" font-size="9.75" font-family="ArialNarrow" font-weight="bold"><tspan y="-115.12" x="385.4">Z</tspan></text>
</g>
</g>
<g id="Layer-1" data-name="P">
<clipPath id="cp616">
<path transform="matrix(1,0,0,-1,0,841.5)" d="M .000008862 0 L 594.75 0 L 594.75 841.5 L .000008862 841.5 Z " fill-rule="evenodd"/>
</clipPath>
<g clip-path="url(#cp616)">
<text xml:space="preserve" transform="matrix(1 0 -0 1 0 841.5)" font-size="9.75" font-family="ArialNarrow"><tspan y="-115.12" x="390.42">)</tspan></text>
</g>
</g>
<g id="Layer-1" data-name="P">
<clipPath id="cp617">
<path transform="matrix(1,0,0,-1,0,841.5)" d="M .000008862 0 L 594.75 0 L 594.75 841.5 L .000008862 841.5 Z " fill-rule="evenodd"/>
</clipPath>
<g clip-path="url(#cp617)">
<text xml:space="preserve" transform="matrix(1 0 -0 1 0 841.5)" font-size="9.75" font-family="ArialNarrow" font-weight="bold"><tspan y="-116.03" x="207.08 211.57476 213.79776 221.31502 223.56726 227.31125 231.806 234.80899">elm({k} </tspan></text>
</g>
</g>
<g id="Layer-1" data-name="P">
<clipPath id="cp618">
<path transform="matrix(1,0,0,-1,0,841.5)" d="M .000008862 0 L 594.75 0 L 594.75 841.5 L .000008862 841.5 Z " fill-rule="evenodd"/>
</clipPath>
<g clip-path="url(#cp618)">
<text xml:space="preserve" transform="matrix(1 0 -0 1 0 841.5)" font-size="9.75" font-family="SymbolMT"><tspan y="-116.03" x="237.18 242.45505">&#xf0b4; </tspan></text>
</g>
</g>
<g id="Layer-1" data-name="P">
<clipPath id="cp619">
<path transform="matrix(1,0,0,-1,0,841.5)" d="M .000008862 0 L 594.75 0 L 594.75 841.5 L .000008862 841.5 Z " fill-rule="evenodd"/>
</clipPath>
<g clip-path="url(#cp619)">
<text xml:space="preserve" transform="matrix(1 0 -0 1 0 841.5)" font-size="9.75" font-family="ArialNarrow" font-weight="bold"><tspan y="-116.03" x="245.18">Z</tspan></text>
</g>
</g>
<g id="Layer-1" data-name="P">
<clipPath id="cp620">
<path transform="matrix(1,0,0,-1,0,841.5)" d="M .000008862 0 L 594.75 0 L 594.75 841.5 L .000008862 841.5 Z " fill-rule="evenodd"/>
</clipPath>
<g clip-path="url(#cp620)">
<text xml:space="preserve" transform="matrix(1 0 -0 1 0 841.5)" font-size="9.75" font-family="ArialNarrow"><tspan y="-116.03" x="250.2">)</tspan></text>
</g>
</g>
<g id="Layer-1" data-name="P">
<clipPath id="cp621">
<path transform="matrix(1,0,0,-1,0,841.5)" d="M .000008862 0 L 594.75 0 L 594.75 841.5 L .000008862 841.5 Z " fill-rule="evenodd"/>
</clipPath>
<g clip-path="url(#cp621)">
<text xml:space="preserve" transform="matrix(1 0 -0 1 0 841.5)" font-size="11.275" font-family="ArialNarrow" font-weight="bold"><tspan y="-211.78" x="85.325 90.56788 95.066608 101.05363 105.55235 110.795238 113.79438 119.03726 124.29141">expected </tspan></text>
</g>
</g>
<g id="Layer-1" data-name="P">
<clipPath id="cp622">
<path transform="matrix(1,0,0,-1,0,841.5)" d="M .000008862 0 L 594.75 0 L 594.75 841.5 L .000008862 841.5 Z " fill-rule="evenodd"/>
</clipPath>
<g clip-path="url(#cp622)">
<text xml:space="preserve" transform="matrix(1 0 -0 1 0 841.5)" font-size="11.275" font-family="ArialNarrow" font-weight="bold"><tspan y="-201.88" x="90.325 95.60169 100.86712 103.14467 106.1551 110.67638 115.9418 119.70766">delivery</tspan></text>
</g>
</g>
<g id="Layer-1" data-name="P">
<clipPath id="cp623">
<path transform="matrix(1,0,0,-1,0,841.5)" d="M .000008862 0 L 594.75 0 L 594.75 841.5 L .000008862 841.5 Z " fill-rule="evenodd"/>
</clipPath>
<g clip-path="url(#cp623)">
<text xml:space="preserve" transform="matrix(1 0 -0 1 0 841.5)" font-size="11.25" font-family="ArialNarrow" font-weight="bold"><tspan y="-152.77" x="479.9 485.15376 490.39625 494.13124 497.13499 499.38499 504.62748 506.87748 509.12748 515.14627 519.64627 522.63876 524.88876 530.1312 532.3812 537.6237 541.3587 543.6087 548.8512">partial delivieries</tspan></text>
</g>
</g>
<g id="Layer-1" data-name="P">
<clipPath id="cp624">
<path transform="matrix(1,0,0,-1,0,841.5)" d="M .000008862 0 L 594.75 0 L 594.75 841.5 L .000008862 841.5 Z " fill-rule="evenodd"/>
</clipPath>
<g clip-path="url(#cp624)">
<text xml:space="preserve" transform="matrix(1 0 -0 1 0 841.5)" font-size="11.25" font-family="ArialNarrow" font-weight="bold"><tspan y="-153.95" x="253.13 258.38377 263.62626 265.87626 268.86875 273.36875 278.61125 282.34623 286.84623 292.83125 295.08125 301.06626 306.32 311.57377 317.55879">delivered goods</tspan></text>
</g>
</g>
<g id="Layer-1" data-name="P">
<clipPath id="cp625">
<path transform="matrix(1,0,0,-1,0,841.5)" d="M .000008862 0 L 594.75 0 L 594.75 841.5 L .000008862 841.5 Z " fill-rule="evenodd"/>
</clipPath>
<g clip-path="url(#cp625)">
<text xml:space="preserve" transform="matrix(1 0 -0 1 0 841.5)" font-size="11.25" font-family="ArialNarrow" font-weight="bold"><tspan y="-163.35" x="38.725 43.989999 48.5125 53.7775 59.0425 64.31875 67.345 72.61 77.88625 80.15875 86.177509 91.442508 95.965007 99.73376 104.99876 107.271259 109.543758">accepted overall </tspan></text>
</g>
</g>
<g id="Layer-1" data-name="P">
<clipPath id="cp626">
<path transform="matrix(1,0,0,-1,0,841.5)" d="M .000008862 0 L 594.75 0 L 594.75 841.5 L .000008862 841.5 Z " fill-rule="evenodd"/>
</clipPath>
<g clip-path="url(#cp626)">
<text xml:space="preserve" transform="matrix(1 0 -0 1 0 841.5)" font-size="11.275" font-family="ArialNarrow" font-weight="bold"><tspan y="-153.45" x="67.85 73.10415 78.34703 80.602039 83.58991 88.08864 93.33152 97.07482 99.32983 104.57271">deliveries</tspan></text>
</g>
</g>
<g id="Layer-1" data-name="P">
<clipPath id="cp627">
<path transform="matrix(1,0,0,-1,0,841.5)" d="M .000008862 0 L 594.75 0 L 594.75 841.5 L .000008862 841.5 Z " fill-rule="evenodd"/>
</clipPath>
<g clip-path="url(#cp627)">
<text xml:space="preserve" transform="matrix(1 0 -0 1 0 841.5)" font-size="11.25" font-family="ArialNarrow" font-weight="bold"><tspan y="-101.5" x="129.4 134.6425 139.1425 144.38501 149.62752 154.88126 157.885 160.135 166.12 170.62 175.8625 179.5975 184.84001 187.09001 189.34001">accept overall </tspan></text>
</g>
</g>
<g id="Layer-1" data-name="P">
<clipPath id="cp628">
<path transform="matrix(1,0,0,-1,0,841.5)" d="M .000008862 0 L 594.75 0 L 594.75 841.5 L .000008862 841.5 Z " fill-rule="evenodd"/>
</clipPath>
<g clip-path="url(#cp628)">
<text xml:space="preserve" transform="matrix(1 0 -0 1 0 841.5)" font-size="11.275" font-family="ArialNarrow" font-weight="bold"><tspan y="-91.6" x="155.5 160.7767 166.04213 168.29712 171.28499 175.80626 181.07169 184.83754 189.35881">delivery </tspan></text>
</g>
</g>
<g id="Layer-1" data-name="P">
<clipPath id="cp629">
<path transform="matrix(1,0,0,-1,0,841.5)" d="M .000008862 0 L 594.75 0 L 594.75 841.5 L .000008862 841.5 Z " fill-rule="evenodd"/>
</clipPath>
<g clip-path="url(#cp629)">
<text xml:space="preserve" transform="matrix(1 0 -0 1 0 841.5)" font-size="11.25" font-family="ArialNarrow" font-weight="bold"><tspan y="-101.5" x="386.4 391.6425 396.1425 401.38499 406.62748 411.88124 414.88499 417.13499 423.12 427.62 431.35499 434.35874 437.35124 441.85124 444.84373">accept partial </tspan></text>
</g>
</g>
<g id="Layer-1" data-name="P">
<clipPath id="cp630">
<path transform="matrix(1,0,0,-1,0,841.5)" d="M .000008862 0 L 594.75 0 L 594.75 841.5 L .000008862 841.5 Z " fill-rule="evenodd"/>
</clipPath>
<g clip-path="url(#cp630)">
<text xml:space="preserve" transform="matrix(1 0 -0 1 0 841.5)" font-size="11.275" font-family="ArialNarrow" font-weight="bold"><tspan y="-91.6" x="410.48 415.7567 421.02214 423.27714 426.265 430.7863 436.0517 439.79499">delivery</tspan></text>
</g>
</g>
</g>
</g>
</svg>
