<?xml version="1.0" encoding="UTF-8" standalone="no"?>
<!DOCTYPE svg PUBLIC "-//W3C//DTD SVG 1.1//EN" "http://www.w3.org/Graphics/SVG/1.1/DTD/svg11.dtd">
<svg xmlns="http://www.w3.org/2000/svg" xmlns:xlink="http://www.w3.org/1999/xlink" version="1.1" width="594.75pt" height="841.5pt" viewBox="0 0 594.75 841.5">
<g enable-background="new">
<g>
<g id="Layer-1" data-name="P">
<clipPath id="cp297">
<path transform="matrix(1,0,0,-1,0,841.5)" d="M .000008862 0 L 594.75 0 L 594.75 841.5 L .000008862 841.5 Z " fill-rule="evenodd"/>
</clipPath>
<g clip-path="url(#cp297)">
<text xml:space="preserve" transform="matrix(1 0 -0 1 0 841.5)" font-size="11.25" font-family="ArialNarrow"><tspan y="-667.8" x="384.33 388.83 394.07249 401.59873 406.09873 411.34123 415.84123 418.07997 420.32997 422.5687 427.0687 432.3112 435.30369">composition e</tspan></text>
</g>
</g>
<clipPath id="cp298">
<path transform="matrix(1,0,0,-1,0,841.5)" d="M .000008862 0 L 594.75 0 L 594.75 841.5 L .000008862 841.5 Z " fill-rule="evenodd"/>
</clipPath>
<g clip-path="url(#cp298)">
<text xml:space="preserve" transform="matrix(1 0 -0 1 0 841.5)" font-size="12" font-family="ArialNarrow"><tspan y="-667.8" x="440.05">&#x2022;</tspan></text>
</g>
<g id="Layer-1" data-name="P">
<clipPath id="cp299">
<path transform="matrix(1,0,0,-1,0,841.5)" d="M .000008862 0 L 594.75 0 L 594.75 841.5 L .000008862 841.5 Z " fill-rule="evenodd"/>
</clipPath>
<g clip-path="url(#cp299)">
<text xml:space="preserve" transform="matrix(1 0 -0 1 0 841.5)" font-size="12" font-family="ArialNarrow"><tspan y="-667.8" x="443.5">f</tspan></text>
</g>
</g>
<g id="Layer-1" data-name="P">
<clipPath id="cp300">
<path transform="matrix(1,0,0,-1,0,841.5)" d="M .000008862 0 L 594.75 0 L 594.75 841.5 L .000008862 841.5 Z " fill-rule="evenodd"/>
</clipPath>
<g clip-path="url(#cp300)">
<text xml:space="preserve" transform="matrix(1 0 -0 1 0 841.5)" font-size="11.25" font-family="ArialNarrow"><tspan y="-667.8" x="446.25"> </tspan></text>
</g>
</g>
<g id="Layer-1" data-name="P">
<clipPath id="cp301">
<path transform="matrix(1,0,0,-1,0,841.5)" d="M .000008862 0 L 594.75 0 L 594.75 841.5 L .000008862 841.5 Z " fill-rule="evenodd"/>
</clipPath>
<g clip-path="url(#cp301)">
<text xml:space="preserve" transform="matrix(1 0 -0 1 0 841.5)" font-size="11.25" font-family="ArialNarrow"><tspan y="-667.8" x="448.77 454.01249 456.26249 458.51249 461.50498 466.00498 471.24748 473.49748 476.48997 482.4862 487.7287 490.7212 495.2212 499.7212 504.96369 510.20619 512.4562 516.9562 519.2062 524.44869 526.69869 531.9524">of the two events e = </tspan></text>
</g>
</g>
<g id="Layer-1" data-name="P">
<clipPath id="cp302">
<path transform="matrix(1,0,0,-1,0,841.5)" d="M .000008862 0 L 594.75 0 L 594.75 841.5 L .000008862 841.5 Z " fill-rule="evenodd"/>
</clipPath>
<g clip-path="url(#cp302)">
<text xml:space="preserve" transform="matrix(1 0 -0 1 0 841.5)" font-size="11.25" font-family="ArialNarrow" font-weight="bold"><tspan y="-667.8" x="534.9 541.63876 544.64248 549.14248">Ute </tspan></text>
</g>
</g>
<g id="Layer-1" data-name="P">
<clipPath id="cp303">
<path transform="matrix(1,0,0,-1,0,841.5)" d="M .000008862 0 L 594.75 0 L 594.75 841.5 L .000008862 841.5 Z " fill-rule="evenodd"/>
</clipPath>
<g clip-path="url(#cp303)">
<text xml:space="preserve" transform="matrix(1 0 -0 1 0 841.5)" font-size="11.275" font-family="ArialNarrow" font-weight="bold"><tspan y="-654.3" x="384.33 389.57286 394.827 400.08116 408.34574 410.60075 413.59989 418.84275 421.09776 427.10734 432.36149 436.10478 441.34764 446.60179 451.84465 456.34336 461.5862 463.84123 469.8508 472.84996 478.85954 483.35826 487.10154">submits purchase order </tspan></text>
</g>
</g>
<g id="Layer-1" data-name="Span">
<clipPath id="cp304">
<path transform="matrix(1,0,0,-1,0,841.5)" d="M .000008862 0 L 594.75 0 L 594.75 841.5 L .000008862 841.5 Z " fill-rule="evenodd"/>
</clipPath>
<g clip-path="url(#cp304)">
<text xml:space="preserve" transform="matrix(1 0 -0 1 0 841.5)" font-size="11.275" font-family="ArialNarrow" font-weight="bold"><tspan y="-654.3" x="489.72"> </tspan></text>
</g>
</g>
<g id="Layer-1" data-name="P">
<clipPath id="cp305">
<path transform="matrix(1,0,0,-1,0,841.5)" d="M .000008862 0 L 594.75 0 L 594.75 841.5 L .000008862 841.5 Z " fill-rule="evenodd"/>
</clipPath>
<g clip-path="url(#cp305)">
<text xml:space="preserve" transform="matrix(1 0 -0 1 0 841.5)" font-size="11.275" font-family="ArialNarrow" font-weight="bold"><tspan y="-654.3" x="492.25 495.9933 501.24745 506.4903 508.7453 511.0003 516.98739 521.4861 524.47396 526.72897 531.9831">{p1, p2, p2</tspan></text>
</g>
</g>
<g id="Layer-1" data-name="P">
<clipPath id="cp306">
<path transform="matrix(1,0,0,-1,0,841.5)" d="M .000008862 0 L 594.75 0 L 594.75 841.5 L .000008862 841.5 Z " fill-rule="evenodd"/>
</clipPath>
<g clip-path="url(#cp306)">
<text xml:space="preserve" transform="matrix(1 0 -0 1 0 841.5)" font-size="11.275" font-family="ArialNarrow" font-weight="bold"><tspan y="-654.3" x="537.42 541.1697">} </tspan></text>
</g>
</g>
<g id="Layer-1" data-name="P">
<clipPath id="cp307">
<path transform="matrix(1,0,0,-1,0,841.5)" d="M .000008862 0 L 594.75 0 L 594.75 841.5 L .000008862 841.5 Z " fill-rule="evenodd"/>
</clipPath>
<g clip-path="url(#cp307)">
<text xml:space="preserve" transform="matrix(1 0 -0 1 0 841.5)" font-size="11.25" font-family="ArialNarrow"><tspan y="-641.05" x="384.33 389.57249 394.07249">and</tspan></text>
</g>
</g>
<g id="Layer-1" data-name="P">
<clipPath id="cp308">
<path transform="matrix(1,0,0,-1,0,841.5)" d="M .000008862 0 L 594.75 0 L 594.75 841.5 L .000008862 841.5 Z " fill-rule="evenodd"/>
</clipPath>
<g clip-path="url(#cp308)">
<text xml:space="preserve" transform="matrix(1 0 -0 1 0 841.5)" font-size="11.25" font-family="ArialNarrow"><tspan y="-641.05" x="399.4"> </tspan></text>
</g>
</g>
<g id="Layer-1" data-name="P">
<clipPath id="cp309">
<path transform="matrix(1,0,0,-1,0,841.5)" d="M .000008862 0 L 594.75 0 L 594.75 841.5 L .000008862 841.5 Z " fill-rule="evenodd"/>
</clipPath>
<g clip-path="url(#cp309)">
<text xml:space="preserve" transform="matrix(1 0 -0 1 0 841.5)" font-size="11.25" font-family="ArialNarrow"><tspan y="-641.05" x="401.9 404.1725 407.1875 412.46379">f = </tspan></text>
</g>
</g>
<g id="Layer-1" data-name="P">
<clipPath id="cp310">
<path transform="matrix(1,0,0,-1,0,841.5)" d="M .000008862 0 L 594.75 0 L 594.75 841.5 L .000008862 841.5 Z " fill-rule="evenodd"/>
</clipPath>
<g clip-path="url(#cp310)">
<text xml:space="preserve" transform="matrix(1 0 -0 1 0 841.5)" font-size="11.25" font-family="ArialNarrow" font-weight="bold" font-style="italic"><tspan y="-641.05" x="414.73 421.46876 424.4725 428.9725 431.965 434.96876 440.21125 445.45375 449.95375 452.94624 457.44624 462.68873 467.9312 470.1812 478.41624 483.65873 488.15873 493.4012 498.6437 503.89747">Ute receives message</tspan></text>
</g>
</g>
<g id="Layer-1" data-name="P">
<clipPath id="cp311">
<path transform="matrix(1,0,0,-1,0,841.5)" d="M .000008862 0 L 594.75 0 L 594.75 841.5 L .000008862 841.5 Z " fill-rule="evenodd"/>
</clipPath>
<g clip-path="url(#cp311)">
<text xml:space="preserve" transform="matrix(1 0 -0 1 0 841.5)" font-size="11.25" font-family="ArialNarrow" font-style="italic"><tspan y="-641.05" x="509.13"> </tspan></text>
</g>
</g>
<g id="Layer-1" data-name="P">
<clipPath id="cp312">
<path transform="matrix(1,0,0,-1,0,841.5)" d="M .000008862 0 L 594.75 0 L 594.75 841.5 L .000008862 841.5 Z " fill-rule="evenodd"/>
</clipPath>
<g clip-path="url(#cp312)">
<text xml:space="preserve" transform="matrix(1 0 -0 1 0 841.5)" font-size="11.25" font-family="ArialNarrow"><tspan y="-641.05" x="511.63 516.8725 521.3725">by </tspan></text>
</g>
</g>
<g id="Layer-1" data-name="P">
<clipPath id="cp313">
<path transform="matrix(1,0,0,-1,0,841.5)" d="M .000008862 0 L 594.75 0 L 594.75 841.5 L .000008862 841.5 Z " fill-rule="evenodd"/>
</clipPath>
<g clip-path="url(#cp313)">
<text xml:space="preserve" transform="matrix(1 0 -0 1 0 841.5)" font-size="11.275" font-family="ArialNarrow"><tspan y="-627.85" x="384.33 391.85044 397.0933 400.09245 404.59117 406.8349 412.07777 416.57649 419.56437 421.81938 427.06224 432.30509 434.5601 436.8151 443.5801 448.82298 451.07798 453.32173 457.82044 462.31916 467.562 469.80577 472.06077 476.55949 478.81449 484.05735 486.31236 491.5552 496.05393 498.30894 500.55268 505.79554 510.29426 515.5372 517.7809 523.0238 527.5225">merging the two local states labeled </tspan></text>
</g>
</g>
<g id="Layer-1" data-name="P">
<clipPath id="cp314">
<path transform="matrix(1,0,0,-1,0,841.5)" d="M .000008862 0 L 594.75 0 L 594.75 841.5 L .000008862 841.5 Z " fill-rule="evenodd"/>
</clipPath>
<g clip-path="url(#cp314)">
<text xml:space="preserve" transform="matrix(1 0 -0 1 0 841.5)" font-size="11.25" font-family="ArialNarrow" font-style="italic"><tspan y="-614.6" x="384.33 389.57249 394.07249 397.07624 400.06874 401.56498 406.80747 409.0462 411.2962 416.5387 419.54246 424.04246 429.28495 432.2887 435.2812 439.7812 444.2812 449.52369 451.76243 456.26243 460.76243">partial order copies </tspan></text>
</g>
</g>
<g id="Layer-1" data-name="P">
<clipPath id="cp315">
<path transform="matrix(1,0,0,-1,0,841.5)" d="M .000008862 0 L 594.75 0 L 594.75 841.5 L .000008862 841.5 Z " fill-rule="evenodd"/>
</clipPath>
<g clip-path="url(#cp315)">
<text xml:space="preserve" transform="matrix(1 0 -0 1 0 841.5)" font-size="11.25" font-family="ArialNarrow" font-style="italic"><tspan y="-614.6" x="463.65"> </tspan></text>
</g>
</g>
<g id="Layer-1" data-name="P">
<clipPath id="cp316">
<path transform="matrix(1,0,0,-1,0,841.5)" d="M .000008862 0 L 594.75 0 L 594.75 841.5 L .000008862 841.5 Z " fill-rule="evenodd"/>
</clipPath>
<g clip-path="url(#cp316)">
<text xml:space="preserve" transform="matrix(1 0 -0 1 0 841.5)" font-size="11.25" font-family="ArialNarrow" font-weight="bold"><tspan y="-614.6" x="466.17 469.17378 475.9125 478.91627 483.41627 486.40876">(Ute, </tspan></text>
</g>
</g>
<g id="Layer-1" data-name="P">
<clipPath id="cp317">
<path transform="matrix(1,0,0,-1,0,841.5)" d="M .000008862 0 L 594.75 0 L 594.75 841.5 L .000008862 841.5 Z " fill-rule="evenodd"/>
</clipPath>
<g clip-path="url(#cp317)">
<text xml:space="preserve" transform="matrix(1 0 -0 1 0 841.5)" font-size="11.25" font-family="ArialNarrow" font-weight="bold"><tspan y="-614.6" x="488.75 492.485 497.73875 502.98124 505.23124 507.48124 513.46627 517.96627 520.95877 523.20877 528.46249">{p1, p2, p2</tspan></text>
</g>
</g>
<g id="Layer-1" data-name="P">
<clipPath id="cp318">
<path transform="matrix(1,0,0,-1,0,841.5)" d="M .000008862 0 L 594.75 0 L 594.75 841.5 L .000008862 841.5 Z " fill-rule="evenodd"/>
</clipPath>
<g clip-path="url(#cp318)">
<text xml:space="preserve" transform="matrix(1 0 -0 1 0 841.5)" font-size="11.25" font-family="ArialNarrow" font-weight="bold"><tspan y="-614.6" x="533.92 537.66976">})</tspan></text>
</g>
</g>
<g id="Layer-1" data-name="P">
<clipPath id="cp319">
<path transform="matrix(1,0,0,-1,0,841.5)" d="M .000008862 0 L 594.75 0 L 594.75 841.5 L .000008862 841.5 Z " fill-rule="evenodd"/>
</clipPath>
<g clip-path="url(#cp319)">
<text xml:space="preserve" transform="matrix(1 0 -0 1 0 841.5)" font-size="11.25" font-family="ArialNarrow" font-style="italic"><tspan y="-614.6" x="540.45">.</tspan></text>
</g>
</g>
<clipPath id="cp320">
<path transform="matrix(1,0,0,-1,0,841.5)" d="M 0 841.5 L 594.75 841.5 L 594.75 .00024414 L .000030518 .00024414 " fill-rule="evenodd"/>
</clipPath>
<g clip-path="url(#cp320)">
<path transform="matrix(1,0,0,-1,0,841.5)" stroke-width="1.5" stroke-linecap="round" stroke-linejoin="round" fill="none" stroke="#000000" d="M 206.88 685.9 L 206.81 670.77 "/>
</g>
<clipPath id="cp321">
<path transform="matrix(1,0,0,-1,0,841.5)" d="M 0 841.5 L 594.75 841.5 L 594.75 .00024414 L .000030518 .00024414 " fill-rule="evenodd"/>
</clipPath>
<g clip-path="url(#cp321)">
<path transform="matrix(1,0,0,-1,0,841.5)" d="M 211.55 671.93 L 206.75 657.73 L 202.07 671.98 L 211.55 671.93 Z " fill-rule="evenodd"/>
</g>
<path transform="matrix(1,0,0,-1,0,841.5)" stroke-width="1.5" stroke-linecap="round" stroke-linejoin="round" fill="none" stroke="#000000" d="M 224.14 699.08 L 274.43 699.08 "/>
<path transform="matrix(1,0,0,-1,0,841.5)" d="M 273.24 703.82 L 287.46 699.08 L 273.24 694.34 L 273.24 703.82 Z " fill-rule="evenodd"/>
<path transform="matrix(1,0,0,-1,0,841.5)" stroke-width="1.5" stroke-linecap="round" stroke-linejoin="round" fill="none" stroke="#000000" d="M 78.236 699.24 L 149.89 699.24 "/>
<path transform="matrix(1,0,0,-1,0,841.5)" d="M 148.71 703.98 L 162.93 699.24 L 148.71 694.5 L 148.71 703.98 Z " fill-rule="evenodd"/>
<path transform="matrix(1,0,0,-1,0,841.5)" d="M 118.63 699.45 C 118.63 708.61 100.55 716.04 78.236 716.04 C 55.927 716.04 37.843 708.61 37.843 699.45 C 37.843 690.3 55.927 682.87 78.236 682.87 C 100.55 682.87 118.63 690.3 118.63 699.45 Z " fill="#ffffff" fill-rule="evenodd"/>
<path transform="matrix(1,0,0,-1,0,841.5)" stroke-width="1.5" stroke-linecap="round" stroke-linejoin="round" fill="none" stroke="#000000" d="M 118.63 699.45 C 118.63 708.61 100.55 716.04 78.236 716.04 C 55.927 716.04 37.843 708.61 37.843 699.45 C 37.843 690.3 55.927 682.87 78.236 682.87 C 100.55 682.87 118.63 690.3 118.63 699.45 Z "/>
<g id="Layer-1" data-name="P">
<clipPath id="cp322">
<path transform="matrix(1,0,0,-1,0,841.5)" d="M .000008862 0 L 594.75 0 L 594.75 841.5 L .000008862 841.5 Z " fill-rule="evenodd"/>
</clipPath>
<g clip-path="url(#cp322)">
<text xml:space="preserve" transform="matrix(1 0 -0 1 0 841.5)" font-size="9" font-family="ArialNarrow" font-style="italic"><tspan y="-700.25" x="46.7 50.471 53.486 57.257 61.775 64.052 65.555 70.073 73.844 76.11201 79.87401 83.64501 87.40701 89.67502 93.44602 100.21403 103.98502 106.262027">ordering customers</tspan></text>
</g>
</g>
<g id="Layer-1" data-name="P">
<clipPath id="cp323">
<path transform="matrix(1,0,0,-1,0,841.5)" d="M .000008862 0 L 594.75 0 L 594.75 841.5 L .000008862 841.5 Z " fill-rule="evenodd"/>
</clipPath>
<g clip-path="url(#cp323)">
<text xml:space="preserve" transform="matrix(1 0 -0 1 0 841.5)" font-size="9" font-family="ArialNarrow" font-weight="bold"><tspan y="-689.42" x="72.375 77.649 79.926">Ute</tspan></text>
</g>
</g>
<path transform="matrix(1,0,0,-1,0,841.5)" d="M 368.23 699.56 C 368.23 708.72 350.15 716.15 327.84 716.15 C 305.53 716.15 287.45 708.72 287.45 699.56 C 287.45 690.4 305.53 682.98 327.84 682.98 C 350.15 682.98 368.23 690.4 368.23 699.56 Z " fill="#ffffff" fill-rule="evenodd"/>
<path transform="matrix(1,0,0,-1,0,841.5)" stroke-width="1.5" stroke-linecap="round" stroke-linejoin="round" fill="none" stroke="#000000" d="M 368.23 699.56 C 368.23 708.72 350.15 716.15 327.84 716.15 C 305.53 716.15 287.45 708.72 287.45 699.56 C 287.45 690.4 305.53 682.98 327.84 682.98 C 350.15 682.98 368.23 690.4 368.23 699.56 Z "/>
<g id="Layer-1" data-name="P">
<clipPath id="cp324">
<path transform="matrix(1,0,0,-1,0,841.5)" d="M .000008862 0 L 594.75 0 L 594.75 841.5 L .000008862 841.5 Z " fill-rule="evenodd"/>
</clipPath>
<g clip-path="url(#cp324)">
<text xml:space="preserve" transform="matrix(1 0 -0 1 0 841.5)" font-size="9" font-family="ArialNarrow" font-style="italic"><tspan y="-703.9" x="301.55 305.32099 309.839 312.089 315.85099 320.369 324.13999 327.90199 331.67298 333.91398 338.43199 340.68199 344.45298 348.97099 351.22099">purchase orders</tspan></text>
</g>
</g>
<g id="Layer-1" data-name="P">
<clipPath id="cp325">
<path transform="matrix(1,0,0,-1,0,841.5)" d="M .000008862 0 L 594.75 0 L 594.75 841.5 L .000008862 841.5 Z " fill-rule="evenodd"/>
</clipPath>
<g clip-path="url(#cp325)">
<text xml:space="preserve" transform="matrix(1 0 -0 1 0 841.5)" font-size="9.025" font-family="ArialNarrow" font-weight="bold"><tspan y="-693.1" x="297.88 300.12724 305.3798 308.36708 312.12147">(Ute,</tspan></text>
</g>
</g>
<g id="Layer-1" data-name="Span">
<clipPath id="cp326">
<path transform="matrix(1,0,0,-1,0,841.5)" d="M .000008862 0 L 594.75 0 L 594.75 841.5 L .000008862 841.5 Z " fill-rule="evenodd"/>
</clipPath>
<g clip-path="url(#cp326)">
<text xml:space="preserve" transform="matrix(1 0 -0 1 0 841.5)" font-size="9.025" font-family="ArialNarrow" font-weight="bold"><tspan y="-693.1" x="314.3"> </tspan></text>
</g>
</g>
<g id="Layer-1" data-name="P">
<clipPath id="cp327">
<path transform="matrix(1,0,0,-1,0,841.5)" d="M .000008862 0 L 594.75 0 L 594.75 841.5 L .000008862 841.5 Z " fill-rule="evenodd"/>
</clipPath>
<g clip-path="url(#cp327)">
<text xml:space="preserve" transform="matrix(1 0 -0 1 0 841.5)" font-size="9.025" font-family="ArialNarrow" font-weight="bold"><tspan y="-693.1" x="316.35 319.33729 323.8588 327.58613 329.82435 332.06257 336.58409 340.3114 342.54963 344.78785 349.30937">{p1, p2, p2</tspan></text>
</g>
</g>
<g id="Layer-1" data-name="P">
<clipPath id="cp328">
<path transform="matrix(1,0,0,-1,0,841.5)" d="M .000008862 0 L 594.75 0 L 594.75 841.5 L .000008862 841.5 Z " fill-rule="evenodd"/>
</clipPath>
<g clip-path="url(#cp328)">
<text xml:space="preserve" transform="matrix(1 0 -0 1 0 841.5)" font-size="9.025" font-family="ArialNarrow" font-weight="bold"><tspan y="-693.1" x="353.3 356.32496">})</tspan></text>
</g>
</g>
<path transform="matrix(1,0,0,-1,0,841.5)" d="M 162.93 685.55 L 248.704 685.55 L 248.704 714.07199 L 162.93 714.07199 Z " fill="#ffffff" fill-rule="evenodd"/>
<path transform="matrix(1,0,0,-1,0,841.5)" stroke-width="2" stroke-linecap="round" stroke-linejoin="round" fill="none" stroke="#000000" d="M 162.93 685.55 L 248.704 685.55 L 248.704 714.07199 L 162.93 714.07199 Z "/>
<g id="Layer-1" data-name="P">
<clipPath id="cp329">
<path transform="matrix(1,0,0,-1,0,841.5)" d="M .000008862 0 L 594.75 0 L 594.75 841.5 L .000008862 841.5 Z " fill-rule="evenodd"/>
</clipPath>
<g clip-path="url(#cp329)">
<text xml:space="preserve" transform="matrix(1 0 -0 1 0 841.5)" font-size="9" font-family="ArialNarrow" font-weight="bold"><tspan y="-702.38" x="167.48 172.727 174.977 179.468 181.709 185.462 189.97101 194.48001 201.20302 203.44402 205.69402 209.44702 211.68802 216.19702 220.70603 223.67603 227.42903 231.93804 236.42005 240.17305 244.66405">Ute submits purchase </tspan></text>
</g>
</g>
<g id="Layer-1" data-name="P">
<clipPath id="cp330">
<path transform="matrix(1,0,0,-1,0,841.5)" d="M .000008862 0 L 594.75 0 L 594.75 841.5 L .000008862 841.5 Z " fill-rule="evenodd"/>
</clipPath>
<g clip-path="url(#cp330)">
<text xml:space="preserve" transform="matrix(1 0 -0 1 0 841.5)" font-size="9" font-family="ArialNarrow" font-weight="bold"><tspan y="-691.58" x="174.65 179.159 182.165 186.674 190.463 193.451">order </tspan></text>
</g>
</g>
<g id="Layer-1" data-name="Span">
<clipPath id="cp331">
<path transform="matrix(1,0,0,-1,0,841.5)" d="M .000008862 0 L 594.75 0 L 594.75 841.5 L .000008862 841.5 Z " fill-rule="evenodd"/>
</clipPath>
<g clip-path="url(#cp331)">
<text xml:space="preserve" transform="matrix(1 0 -0 1 0 841.5)" font-size="9" font-family="ArialNarrow" font-weight="bold"><tspan y="-691.58" x="195.6"> </tspan></text>
</g>
</g>
<g id="Layer-1" data-name="P">
<clipPath id="cp332">
<path transform="matrix(1,0,0,-1,0,841.5)" d="M .000008862 0 L 594.75 0 L 594.75 841.5 L .000008862 841.5 Z " fill-rule="evenodd"/>
</clipPath>
<g clip-path="url(#cp332)">
<text xml:space="preserve" transform="matrix(1 0 -0 1 0 841.5)" font-size="9" font-family="ArialNarrow" font-weight="bold"><tspan y="-691.58" x="197.65 200.638 205.147 208.891 211.132 213.373 217.882 221.626 223.867 226.108 230.617">{p1, p2, p2</tspan></text>
</g>
</g>
<g id="Layer-1" data-name="P">
<clipPath id="cp333">
<path transform="matrix(1,0,0,-1,0,841.5)" d="M .000008862 0 L 594.75 0 L 594.75 841.5 L .000008862 841.5 Z " fill-rule="evenodd"/>
</clipPath>
<g clip-path="url(#cp333)">
<text xml:space="preserve" transform="matrix(1 0 -0 1 0 841.5)" font-size="9" font-family="ArialNarrow" font-weight="bold"><tspan y="-691.58" x="234.63">}</tspan></text>
</g>
</g>
<g id="Layer-1" data-name="P">
<clipPath id="cp334">
<path transform="matrix(1,0,0,-1,0,841.5)" d="M .000008862 0 L 594.75 0 L 594.75 841.5 L .000008862 841.5 Z " fill-rule="evenodd"/>
</clipPath>
<g clip-path="url(#cp334)">
<text xml:space="preserve" transform="matrix(1 0 -0 1 0 841.5)" font-size="12" font-family="ArialNarrow" font-style="italic"><tspan y="-675.17" x="162.55">a</tspan></text>
</g>
</g>
<g id="Layer-1" data-name="P">
<clipPath id="cp335">
<path transform="matrix(1,0,0,-1,0,841.5)" d="M .000008862 0 L 594.75 0 L 594.75 841.5 L .000008862 841.5 Z " fill-rule="evenodd"/>
</clipPath>
<g clip-path="url(#cp335)">
<text xml:space="preserve" transform="matrix(1 0 -0 1 0 841.5)" font-size="12" font-family="ArialNarrow" font-style="italic"><tspan y="-676.17" x="110.68">A</tspan></text>
</g>
</g>
<g id="Layer-1" data-name="P">
<clipPath id="cp336">
<path transform="matrix(1,0,0,-1,0,841.5)" d="M .000008862 0 L 594.75 0 L 594.75 841.5 L .000008862 841.5 Z " fill-rule="evenodd"/>
</clipPath>
<g clip-path="url(#cp336)">
<text xml:space="preserve" transform="matrix(1 0 -0 1 0 841.5)" font-size="12" font-family="ArialNarrow" font-style="italic"><tspan y="-676.17" x="290.63">B</tspan></text>
</g>
</g>
<clipPath id="cp337">
<path transform="matrix(1,0,0,-1,0,841.5)" d="M .000015259 841.5 L 594.75 841.5 L 594.75 .00030518 L .000030518 .00024414 " fill-rule="evenodd"/>
</clipPath>
<g clip-path="url(#cp337)">
<path transform="matrix(1,0,0,-1,0,841.5)" stroke-width="1.5" stroke-linecap="round" stroke-linejoin="round" fill="none" stroke="#000000" d="M 206.18 575.29 L 206.26 556.13 "/>
</g>
<clipPath id="cp338">
<path transform="matrix(1,0,0,-1,0,841.5)" d="M .000015259 841.5 L 594.75 841.5 L 594.75 .00030518 L .000030518 .00024414 " fill-rule="evenodd"/>
</clipPath>
<g clip-path="url(#cp338)">
<path transform="matrix(1,0,0,-1,0,841.5)" d="M 211 557.34 L 206.32 543.1 L 201.52 557.3 L 211 557.34 Z " fill-rule="evenodd"/>
</g>
<clipPath id="cp339">
<path transform="matrix(1,0,0,-1,0,841.5)" d="M -.000030518 841.5 L 594.75 841.5 L 594.75 -.00012207 L 0 -.000061035 " fill-rule="evenodd"/>
</clipPath>
<g clip-path="url(#cp339)">
<path transform="matrix(1,0,0,-1,0,841.5)" stroke-width="1.5" stroke-linecap="round" stroke-linejoin="round" fill="none" stroke="#000000" d="M 328.11 583.68 L 262.1 583.88 "/>
</g>
<clipPath id="cp340">
<path transform="matrix(1,0,0,-1,0,841.5)" d="M -.000030518 841.5 L 594.75 841.5 L 594.75 -.00012207 L 0 -.000061035 " fill-rule="evenodd"/>
</clipPath>
<g clip-path="url(#cp340)">
<path transform="matrix(1,0,0,-1,0,841.5)" d="M 263.27 579.13 L 249.06 583.92 L 263.3 588.61 L 263.27 579.13 Z " fill-rule="evenodd"/>
</g>
<clipPath id="cp341">
<path transform="matrix(1,0,0,-1,0,841.5)" d="M .000015259 841.5 L 594.75 841.5 L 594.75 .00018311 L .000015259 .00018311 " fill-rule="evenodd"/>
</clipPath>
<g clip-path="url(#cp341)">
<path transform="matrix(1,0,0,-1,0,841.5)" stroke-width="1.5" stroke-linecap="round" stroke-linejoin="round" fill="none" stroke="#000000" d="M 206.76 640.36 L 206.76 611.15 "/>
</g>
<clipPath id="cp342">
<path transform="matrix(1,0,0,-1,0,841.5)" d="M .000015259 841.5 L 594.75 841.5 L 594.75 .00018311 L .000015259 .00018311 " fill-rule="evenodd"/>
</clipPath>
<g clip-path="url(#cp342)">
<path transform="matrix(1,0,0,-1,0,841.5)" d="M 211.5 612.33 L 206.76 598.11 L 202.02 612.33 L 211.5 612.33 Z " fill-rule="evenodd"/>
</g>
<path transform="matrix(1,0,0,-1,0,841.5)" d="M 247.15 640.58 C 247.15 649.73 229.07 657.16 206.76 657.16 C 184.45 657.16 166.36 649.73 166.36 640.58 C 166.36 631.42 184.45 623.99 206.76 623.99 C 229.07 623.99 247.15 631.42 247.15 640.58 Z " fill="#ffffff" fill-rule="evenodd"/>
<path transform="matrix(1,0,0,-1,0,841.5)" stroke-width="1.5" stroke-linecap="round" stroke-linejoin="round" fill="none" stroke="#000000" d="M 247.15 640.58 C 247.15 649.73 229.07 657.16 206.76 657.16 C 184.45 657.16 166.36 649.73 166.36 640.58 C 166.36 631.42 184.45 623.99 206.76 623.99 C 229.07 623.99 247.15 631.42 247.15 640.58 Z "/>
<g id="Layer-1" data-name="P">
<clipPath id="cp343">
<path transform="matrix(1,0,0,-1,0,841.5)" d="M .000008862 0 L 594.75 0 L 594.75 841.5 L .000008862 841.5 Z " fill-rule="evenodd"/>
</clipPath>
<g clip-path="url(#cp343)">
<text xml:space="preserve" transform="matrix(1 0 -0 1 0 841.5)" font-size="9" font-family="ArialNarrow" font-style="italic"><tspan y="-644.88" x="182.58 186.33301 188.574 190.815 194.56801 197.55602 201.30902 205.80002 208.05002 210.29102 214.03502 217.78803 222.27902 223.78203 227.53504 231.27904">p. order copies </tspan></text>
</g>
</g>
<g id="Layer-1" data-name="P">
<clipPath id="cp344">
<path transform="matrix(1,0,0,-1,0,841.5)" d="M .000008862 0 L 594.75 0 L 594.75 841.5 L .000008862 841.5 Z " fill-rule="evenodd"/>
</clipPath>
<g clip-path="url(#cp344)">
<text xml:space="preserve" transform="matrix(1 0 -0 1 0 841.5)" font-size="9" font-family="ArialNarrow" font-weight="bold"><tspan y="-634.08" x="176.63 178.90702 184.18102 187.19602 190.96703">(Ute,</tspan></text>
</g>
</g>
<g id="Layer-1" data-name="Span">
<clipPath id="cp345">
<path transform="matrix(1,0,0,-1,0,841.5)" d="M .000008862 0 L 594.75 0 L 594.75 841.5 L .000008862 841.5 Z " fill-rule="evenodd"/>
</clipPath>
<g clip-path="url(#cp345)">
<text xml:space="preserve" transform="matrix(1 0 -0 1 0 841.5)" font-size="9" font-family="ArialNarrow" font-weight="bold"><tspan y="-634.08" x="193.05"> </tspan></text>
</g>
</g>
<g id="Layer-1" data-name="P">
<clipPath id="cp346">
<path transform="matrix(1,0,0,-1,0,841.5)" d="M .000008862 0 L 594.75 0 L 594.75 841.5 L .000008862 841.5 Z " fill-rule="evenodd"/>
</clipPath>
<g clip-path="url(#cp346)">
<text xml:space="preserve" transform="matrix(1 0 -0 1 0 841.5)" font-size="9" font-family="ArialNarrow" font-weight="bold"><tspan y="-634.08" x="195.1 198.08802 202.59702 206.38602 208.62702 210.86801 215.37702 219.16602 221.40702 223.64801 228.15702">{p1, p2, p2</tspan></text>
</g>
</g>
<g id="Layer-1" data-name="P">
<clipPath id="cp347">
<path transform="matrix(1,0,0,-1,0,841.5)" d="M .000008862 0 L 594.75 0 L 594.75 841.5 L .000008862 841.5 Z " fill-rule="evenodd"/>
</clipPath>
<g clip-path="url(#cp347)">
<text xml:space="preserve" transform="matrix(1 0 -0 1 0 841.5)" font-size="9" font-family="ArialNarrow" font-weight="bold"><tspan y="-634.08" x="232.08 235.08">})</tspan></text>
</g>
</g>
<path transform="matrix(1,0,0,-1,0,841.5)" d="M 368.5 583.93 C 368.5 594.49 350.42 603.06 328.11 603.06 C 305.8 603.06 287.72 594.49 287.72 583.93 C 287.72 573.36 305.8 564.79 328.11 564.79 C 350.42 564.79 368.5 573.36 368.5 583.93 Z " fill="#ffffff" fill-rule="evenodd"/>
<path transform="matrix(1,0,0,-1,0,841.5)" stroke-width="1.5" stroke-linecap="round" stroke-linejoin="round" fill="none" stroke="#000000" d="M 368.5 583.93 C 368.5 594.49 350.42 603.06 328.11 603.06 C 305.8 603.06 287.72 594.49 287.72 583.93 C 287.72 573.36 305.8 564.79 328.11 564.79 C 350.42 564.79 368.5 573.36 368.5 583.93 Z "/>
<g id="Layer-1" data-name="P">
<clipPath id="cp348">
<path transform="matrix(1,0,0,-1,0,841.5)" d="M .000008862 0 L 594.75 0 L 594.75 841.5 L .000008862 841.5 Z " fill-rule="evenodd"/>
</clipPath>
<g clip-path="url(#cp348)">
<text xml:space="preserve" transform="matrix(1 0 -0 1 0 841.5)" font-size="9.025" font-family="ArialNarrow" font-style="italic"><tspan y="-590.75" x="311.67 317.6987 322.21119 325.9746 329.73805 333.51048 337.2829 341.79539">messages</tspan></text>
</g>
</g>
<g id="Layer-1" data-name="P">
<clipPath id="cp349">
<path transform="matrix(1,0,0,-1,0,841.5)" d="M .000008862 0 L 594.75 0 L 594.75 841.5 L .000008862 841.5 Z " fill-rule="evenodd"/>
</clipPath>
<g clip-path="url(#cp349)">
<text xml:space="preserve" transform="matrix(1 0 -0 1 0 841.5)" font-size="9" font-family="ArialNarrow" font-weight="bold"><tspan y="-579.92" x="295.88 298.157 301.17204 306.44606 308.72306 312.49406">((Ute,</tspan></text>
</g>
</g>
<g id="Layer-1" data-name="Span">
<clipPath id="cp350">
<path transform="matrix(1,0,0,-1,0,841.5)" d="M .000008862 0 L 594.75 0 L 594.75 841.5 L .000008862 841.5 Z " fill-rule="evenodd"/>
</clipPath>
<g clip-path="url(#cp350)">
<text xml:space="preserve" transform="matrix(1 0 -0 1 0 841.5)" font-size="9" font-family="ArialNarrow" font-weight="bold"><tspan y="-579.92" x="314.75"> </tspan></text>
</g>
</g>
<g id="Layer-1" data-name="P">
<clipPath id="cp351">
<path transform="matrix(1,0,0,-1,0,841.5)" d="M .000008862 0 L 594.75 0 L 594.75 841.5 L .000008862 841.5 Z " fill-rule="evenodd"/>
</clipPath>
<g clip-path="url(#cp351)">
<text xml:space="preserve" transform="matrix(1 0 -0 1 0 841.5)" font-size="9" font-family="ArialNarrow" font-weight="bold"><tspan y="-579.92" x="316.83 319.818 324.327 328.071 330.312 332.553 337.062 340.80604 343.04704 345.28804 349.79704">{p1, p2, p2</tspan></text>
</g>
</g>
<g id="Layer-1" data-name="P">
<clipPath id="cp352">
<path transform="matrix(1,0,0,-1,0,841.5)" d="M .000008862 0 L 594.75 0 L 594.75 841.5 L .000008862 841.5 Z " fill-rule="evenodd"/>
</clipPath>
<g clip-path="url(#cp352)">
<text xml:space="preserve" transform="matrix(1 0 -0 1 0 841.5)" font-size="9" font-family="ArialNarrow" font-weight="bold"><tspan y="-579.92" x="353.78 356.768 359.018 361.259">}), </tspan></text>
</g>
</g>
<g id="Layer-1" data-name="P">
<clipPath id="cp353">
<path transform="matrix(1,0,0,-1,0,841.5)" d="M .000008862 0 L 594.75 0 L 594.75 841.5 L .000008862 841.5 Z " fill-rule="evenodd"/>
</clipPath>
<g clip-path="url(#cp353)">
<text xml:space="preserve" transform="matrix(1 0 -0 1 0 841.5)" font-size="9" font-family="ArialNarrow" font-weight="bold"><tspan y="-569.13" x="318.05 321.80299 326.29399 328.53498 332.28797 336.77897">12/24)</tspan></text>
</g>
</g>
<path transform="matrix(1,0,0,-1,0,841.5)" d="M 247.18 526.52 C 247.18 535.68 229.1 543.1 206.79 543.1 C 184.48 543.1 166.39 535.68 166.39 526.52 C 166.39 517.36 184.48 509.94 206.79 509.94 C 229.1 509.94 247.18 517.36 247.18 526.52 Z " fill="#ffffff" fill-rule="evenodd"/>
<path transform="matrix(1,0,0,-1,0,841.5)" stroke-width="1.5" stroke-linecap="round" stroke-linejoin="round" fill="none" stroke="#000000" d="M 247.18 526.52 C 247.18 535.68 229.1 543.1 206.79 543.1 C 184.48 543.1 166.39 535.68 166.39 526.52 C 166.39 517.36 184.48 509.94 206.79 509.94 C 229.1 509.94 247.18 517.36 247.18 526.52 Z "/>
<g id="Layer-1" data-name="P">
<clipPath id="cp354">
<path transform="matrix(1,0,0,-1,0,841.5)" d="M .000008862 0 L 594.75 0 L 594.75 841.5 L .000008862 841.5 Z " fill-rule="evenodd"/>
</clipPath>
<g clip-path="url(#cp354)">
<text xml:space="preserve" transform="matrix(1 0 -0 1 0 841.5)" font-size="9" font-family="ArialNarrow" font-style="italic"><tspan y="-530.7" x="178.3 182.05301 185.79701 190.28801 194.04102 197.78502 200.02602 203.77902 208.27002 210.51102 214.26403 218.75502 220.25803 221.76103 225.50504 229.25804 232.24605">expected delivery</tspan></text>
</g>
</g>
<g id="Layer-1" data-name="P">
<clipPath id="cp355">
<path transform="matrix(1,0,0,-1,0,841.5)" d="M .000008862 0 L 594.75 0 L 594.75 841.5 L .000008862 841.5 Z " fill-rule="evenodd"/>
</clipPath>
<g clip-path="url(#cp355)">
<text xml:space="preserve" transform="matrix(1 0 -0 1 0 841.5)" font-size="9.025" font-family="ArialNarrow" font-weight="bold"><tspan y="-519.9" x="176.68 178.92722 184.17977 187.16704 190.92145">(Ute,</tspan></text>
</g>
</g>
<g id="Layer-1" data-name="Span">
<clipPath id="cp356">
<path transform="matrix(1,0,0,-1,0,841.5)" d="M .000008862 0 L 594.75 0 L 594.75 841.5 L .000008862 841.5 Z " fill-rule="evenodd"/>
</clipPath>
<g clip-path="url(#cp356)">
<text xml:space="preserve" transform="matrix(1 0 -0 1 0 841.5)" font-size="9.025" font-family="ArialNarrow" font-weight="bold"><tspan y="-519.9" x="193.08"> </tspan></text>
</g>
</g>
<g id="Layer-1" data-name="P">
<clipPath id="cp357">
<path transform="matrix(1,0,0,-1,0,841.5)" d="M .000008862 0 L 594.75 0 L 594.75 841.5 L .000008862 841.5 Z " fill-rule="evenodd"/>
</clipPath>
<g clip-path="url(#cp357)">
<text xml:space="preserve" transform="matrix(1 0 -0 1 0 841.5)" font-size="9.025" font-family="ArialNarrow" font-weight="bold"><tspan y="-519.9" x="195.15 198.13727 202.6588 206.38613 208.62432 210.8625 215.38404 219.11136 221.34955 223.58774 228.10927">{p1, p2, p2</tspan></text>
</g>
</g>
<g id="Layer-1" data-name="P">
<clipPath id="cp358">
<path transform="matrix(1,0,0,-1,0,841.5)" d="M .000008862 0 L 594.75 0 L 594.75 841.5 L .000008862 841.5 Z " fill-rule="evenodd"/>
</clipPath>
<g clip-path="url(#cp358)">
<text xml:space="preserve" transform="matrix(1 0 -0 1 0 841.5)" font-size="9.025" font-family="ArialNarrow" font-weight="bold"><tspan y="-519.9" x="232.1 235.09998">})</tspan></text>
</g>
</g>
<path transform="matrix(1,0,0,-1,0,841.5)" d="M 163.29 570.03 L 249.064 570.03 L 249.064 597.064 L 163.29 597.064 Z " fill="#ffffff" fill-rule="evenodd"/>
<path transform="matrix(1,0,0,-1,0,841.5)" stroke-width="2" stroke-linecap="round" stroke-linejoin="round" fill="none" stroke="#000000" d="M 163.29 570.03 L 249.064 570.03 L 249.064 597.064 L 163.29 597.064 Z "/>
<g id="Layer-1" data-name="P">
<clipPath id="cp359">
<path transform="matrix(1,0,0,-1,0,841.5)" d="M .000008862 0 L 594.75 0 L 594.75 841.5 L .000008862 841.5 Z " fill-rule="evenodd"/>
</clipPath>
<g clip-path="url(#cp359)">
<text xml:space="preserve" transform="matrix(1 0 -0 1 0 841.5)" font-size="9.025" font-family="ArialNarrow" font-weight="bold"><tspan y="-580.63" x="167.83 173.08255 175.32978 179.82422 182.06241 184.30963 188.80408 192.55849 197.05294 199.29113 203.04553 207.53998 211.29439 213.53258 219.5342 224.02864 227.78305 232.2775 236.0319 240.55344">Ute receives message</tspan></text>
</g>
</g>
<g id="Layer-1" data-name="P">
<clipPath id="cp360">
<path transform="matrix(1,0,0,-1,0,841.5)" d="M .000008862 0 L 594.75 0 L 594.75 841.5 L .000008862 841.5 Z " fill-rule="evenodd"/>
</clipPath>
<g clip-path="url(#cp360)">
<text xml:space="preserve" transform="matrix(1 0 -0 1 0 841.5)" font-size="12.025" font-family="ArialNarrow" font-style="italic"><tspan y="-556.9" x="161.02">b</tspan></text>
</g>
</g>
<g id="Layer-1" data-name="P">
<clipPath id="cp361">
<path transform="matrix(1,0,0,-1,0,841.5)" d="M .000008862 0 L 594.75 0 L 594.75 841.5 L .000008862 841.5 Z " fill-rule="evenodd"/>
</clipPath>
<g clip-path="url(#cp361)">
<text xml:space="preserve" transform="matrix(1 0 -0 1 0 841.5)" font-size="12" font-family="ArialNarrow" font-style="italic"><tspan y="-617.72" x="165.33">C</tspan></text>
</g>
</g>
<g id="Layer-1" data-name="P">
<clipPath id="cp362">
<path transform="matrix(1,0,0,-1,0,841.5)" d="M .000008862 0 L 594.75 0 L 594.75 841.5 L .000008862 841.5 Z " fill-rule="evenodd"/>
</clipPath>
<g clip-path="url(#cp362)">
<text xml:space="preserve" transform="matrix(1 0 -0 1 0 841.5)" font-size="12" font-family="ArialNarrow" font-style="italic"><tspan y="-566.8" x="281.4">D</tspan></text>
</g>
</g>
<g id="Layer-1" data-name="P">
<clipPath id="cp363">
<path transform="matrix(1,0,0,-1,0,841.5)" d="M .000008862 0 L 594.75 0 L 594.75 841.5 L .000008862 841.5 Z " fill-rule="evenodd"/>
</clipPath>
<g clip-path="url(#cp363)">
<text xml:space="preserve" transform="matrix(1 0 -0 1 0 841.5)" font-size="12.025" font-family="ArialNarrow" font-style="italic"><tspan y="-516.18" x="253.15">E</tspan></text>
</g>
</g>
</g>
</g>
</svg>
