<?xml version="1.0" encoding="UTF-8" standalone="no"?>
<!DOCTYPE svg PUBLIC "-//W3C//DTD SVG 1.1//EN" "http://www.w3.org/Graphics/SVG/1.1/DTD/svg11.dtd">
<svg xmlns="http://www.w3.org/2000/svg" xmlns:xlink="http://www.w3.org/1999/xlink" version="1.1" width="594.75pt" height="841.5pt" viewBox="0 0 594.75 841.5">
<g enable-background="new">
<g>
<g id="Layer-1" data-name="P">
<clipPath id="cp364">
<path transform="matrix(1,0,0,-1,0,841.5)" d="M .000008862 0 L 594.75 0 L 594.75 841.5 L .000008862 841.5 Z " fill-rule="evenodd"/>
</clipPath>
<g clip-path="url(#cp364)">
<text xml:space="preserve" transform="matrix(1 0 -0 1 0 841.5)" font-size="11.275" font-family="ArialNarrow"><tspan y="-250.33" x="96.9 102.8983 105.153308 108.14118 112.63991 115.63905 118.62693 123.125659 127.62438 132.86725 140.36511 142.60884 144.86383 147.8517 149.35128 154.59415 159.83702 162.09201 167.33489 169.58988 174.83275 179.33148 182.33065 186.82938 192.07225 197.31513 201.81386 206.31259 209.30046 213.7992 216.79836 222.04123 227.2841 230.28327 232.53826 235.52613 240.02486 243.01273 250.51059 255.00933 259.50807 264.00679 269.24964 274.4925 278.9912">After submitting a purchase order, a message </tspan></text>
</g>
</g>
<g id="Layer-1" data-name="P">
<clipPath id="cp365">
<path transform="matrix(1,0,0,-1,0,841.5)" d="M .000008862 0 L 594.75 0 L 594.75 841.5 L .000008862 841.5 Z " fill-rule="evenodd"/>
</clipPath>
<g clip-path="url(#cp365)">
<text xml:space="preserve" transform="matrix(1 0 -0 1 0 841.5)" font-size="11.25" font-family="ArialNarrow"><tspan y="-237.1" x="96.9 102.1425 106.6425 111.885 114.135 117.1275 123.12376 128.36626 130.61626 135.85877 141.10128 143.34003 144.83628 149.33628 154.57878 157.58252 159.82128 164.32128 168.82128 171.81378 177.81003 180.04878 182.28754 183.78379 186.77629 191.27629 195.77629 201.0188 206.2613 208.5113 213.75382 218.25382 220.49257 222.73133 227.23133 229.48133 232.48506 237.72757 242.97008 247.47008 251.97008 254.96259 257.2126 262.45509 266.95509">and two deliveries will eventually reach the </tspan></text>
</g>
</g>
<g id="Layer-1" data-name="P">
<clipPath id="cp366">
<path transform="matrix(1,0,0,-1,0,841.5)" d="M .000008862 0 L 594.75 0 L 594.75 841.5 L .000008862 841.5 Z " fill-rule="evenodd"/>
</clipPath>
<g clip-path="url(#cp366)">
<text xml:space="preserve" transform="matrix(1 0 -0 1 0 841.5)" font-size="11.275" font-family="ArialNarrow"><tspan y="-223.9" x="96.9 104.39788 109.64076 114.13949 119.38237 121.62609 126.12482 129.11269 133.61142 135.85515 141.09803 146.3409 150.83963 153.8275 155.32707 158.31494 162.81368 165.06867 168.06783 170.31156 174.81029 180.05316 182.30815 185.29602 186.7956 192.03847 194.29346 199.53633 202.53549 204.79048 210.03336 214.53209 219.77497 222.02996 224.28495 231.0274 234.01528 238.514 241.50188 247.50019 249.74391 251.98764 253.48722 256.4751 260.97383 266.21669 271.45954 275.95826">module along its right interface. Ute will open </tspan></text>
</g>
</g>
<g id="Layer-1" data-name="P">
<clipPath id="cp367">
<path transform="matrix(1,0,0,-1,0,841.5)" d="M .000008862 0 L 594.75 0 L 594.75 841.5 L .000008862 841.5 Z " fill-rule="evenodd"/>
</clipPath>
<g clip-path="url(#cp367)">
<text xml:space="preserve" transform="matrix(1 0 -0 1 0 841.5)" font-size="11.25" font-family="ArialNarrow"><tspan y="-210.67" x="96.9 102.1425 106.6425 109.635 114.135 117.1275 121.6275 126.87 129.87375 132.12375 134.3625 139.60501 141.84377 144.09377 149.33628 153.83628 156.07503 158.31378 162.81378 167.31378 170.31752 172.55628 177.79878 182.29878 184.54878">both partial deliveries. </tspan></text>
</g>
</g>
<g id="Layer-1" data-name="P">
<clipPath id="cp368">
<path transform="matrix(1,0,0,-1,0,841.5)" d="M .000008862 0 L 594.75 0 L 594.75 841.5 L .000008862 841.5 Z " fill-rule="evenodd"/>
</clipPath>
<g clip-path="url(#cp368)">
<text xml:space="preserve" transform="matrix(1 0 -0 1 0 841.5)" font-size="11.25" font-family="ArialNarrow"><tspan y="-249.08" x="313.5 319.49626 321.735 323.985 329.22749 333.72749 338.96998 341.21998 346.46247 351.70497 354.7087 356.9587 359.9512 362.2012 367.4437 371.9437 376.4437 379.4362 383.9362 388.4362 393.67869 395.92869 401.17118 403.4099 407.9099 410.9024 413.1524 419.89115 424.39115 427.38365 431.88365 437.12614 439.36488 442.36863 446.86863 449.11863 454.3611 456.6111 459.6036 464.1036 468.6036 473.8461 479.0886 483.5886 485.8386 491.0811 495.5811 500.82359 503.07359 506.06608 512.0623 517.3048">Altogether, they contain two pairs of shoes and two </tspan></text>
</g>
</g>
<g id="Layer-1" data-name="P">
<clipPath id="cp369">
<path transform="matrix(1,0,0,-1,0,841.5)" d="M .000008862 0 L 594.75 0 L 594.75 841.5 L .000008862 841.5 Z " fill-rule="evenodd"/>
</clipPath>
<g clip-path="url(#cp369)">
<text xml:space="preserve" transform="matrix(1 0 -0 1 0 841.5)" font-size="11.275" font-family="ArialNarrow"><tspan y="-235.88" x="313.5 318.74287 323.24159 326.22947 330.72819 332.9832 335.2382 341.98066 344.23567 349.47853 351.73353 356.97639 361.4751 365.97383 371.21669 376.45954 378.71455 383.21327 385.46827 388.45616 392.95487 398.19773 400.45274 405.6956 410.93846 415.43717 420.68003 425.17875 427.43376 432.6766 437.17533 440.1632 442.4182 447.66108 452.1598 455.14768 459.6464 464.1451 469.38798 474.63084 479.12956 481.38456 486.6274 491.12614 494.114 498.61274 503.11146 508.3543 511.35346 516.5964 518.8401 520.33969">hats. Ute accepts the goods as the expected overall </tspan></text>
</g>
</g>
<g id="Layer-1" data-name="P">
<clipPath id="cp370">
<path transform="matrix(1,0,0,-1,0,841.5)" d="M .000008862 0 L 594.75 0 L 594.75 841.5 L .000008862 841.5 Z " fill-rule="evenodd"/>
</clipPath>
<g clip-path="url(#cp370)">
<text xml:space="preserve" transform="matrix(1 0 -0 1 0 841.5)" font-size="11.25" font-family="ArialNarrow"><tspan y="-222.65" x="313.5 318.7425 323.2425 325.48124 327.71998 332.21998 336.71998 339.72373 344.22373">delivery.</tspan></text>
</g>
</g>
<clipPath id="cp371">
<path transform="matrix(1,0,0,-1,0,841.5)" d="M .000015259 841.5 L 594.75 841.5 L 594.75 .00012207 L .000015259 .00012207 " fill-rule="evenodd"/>
</clipPath>
<g clip-path="url(#cp371)">
<path transform="matrix(1,0,0,-1,0,841.5)" stroke-width="1.5" stroke-linecap="round" stroke-linejoin="round" fill="none" stroke="#000000" d="M 219.07 493.63 L 219.07 470.47 "/>
</g>
<clipPath id="cp372">
<path transform="matrix(1,0,0,-1,0,841.5)" d="M .000015259 841.5 L 594.75 841.5 L 594.75 .00012207 L .000015259 .00012207 " fill-rule="evenodd"/>
</clipPath>
<g clip-path="url(#cp372)">
<path transform="matrix(1,0,0,-1,0,841.5)" d="M 223.81 471.65 L 219.07 457.43 L 214.33 471.65 L 223.81 471.65 Z " fill-rule="evenodd"/>
</g>
<clipPath id="cp373">
<path transform="matrix(1,0,0,-1,0,841.5)" d="M .000015259 841.5 L 594.75 841.5 L 594.75 .000061035 L .000015259 .000061035 " fill-rule="evenodd"/>
</clipPath>
<g clip-path="url(#cp373)">
<path transform="matrix(1,0,0,-1,0,841.5)" stroke-width="1.5" stroke-linecap="round" stroke-linejoin="round" fill="none" stroke="#000000" d="M 219.64 426.06 L 219.64 409.09 "/>
</g>
<clipPath id="cp374">
<path transform="matrix(1,0,0,-1,0,841.5)" d="M .000015259 841.5 L 594.75 841.5 L 594.75 .000061035 L .000015259 .000061035 " fill-rule="evenodd"/>
</clipPath>
<g clip-path="url(#cp374)">
<path transform="matrix(1,0,0,-1,0,841.5)" d="M 224.38 410.27 L 219.64 396.05 L 214.9 410.27 L 224.38 410.27 Z " fill-rule="evenodd"/>
</g>
<clipPath id="cp375">
<path transform="matrix(1,0,0,-1,0,841.5)" d="M -.000061035 841.5 L 594.75 841.5 L 594.75 -.000061035 L -.000061035 -.000061035 " fill-rule="evenodd"/>
</clipPath>
<g clip-path="url(#cp375)">
<path transform="matrix(1,0,0,-1,0,841.5)" stroke-width="1.5" stroke-linecap="round" stroke-linejoin="round" fill="none" stroke="#000000" d="M 515.48 493.07 L 274.85 493.29 "/>
</g>
<clipPath id="cp376">
<path transform="matrix(1,0,0,-1,0,841.5)" d="M -.000061035 841.5 L 594.75 841.5 L 594.75 -.000061035 L -.000061035 -.000061035 " fill-rule="evenodd"/>
</clipPath>
<g clip-path="url(#cp376)">
<path transform="matrix(1,0,0,-1,0,841.5)" d="M 276.04 488.55 L 261.82 493.31 L 276.04 498.03 L 276.04 488.55 Z " fill-rule="evenodd"/>
</g>
<path transform="matrix(1,0,0,-1,0,841.5)" d="M 90.283 285.86 L 515.48306 285.86 L 515.48306 643.03 L 90.283 643.03 Z " fill="#ffff00" fill-opacity=".18824" fill-rule="evenodd"/>
<path transform="matrix(1,0,0,-1,0,841.5)" stroke-width=".75" stroke-linecap="round" stroke-linejoin="round" fill="none" stroke="#000000" d="M 90.283 285.86 L 515.48306 285.86 L 515.48306 643.03 L 90.283 643.03 Z "/>
<clipPath id="cp377">
<path transform="matrix(1,0,0,-1,0,841.5)" d="M -.000091553 841.5 L 594.75 841.5 L 594.75 -.00012207 L -.000091553 -.000061035 " fill-rule="evenodd"/>
</clipPath>
<g clip-path="url(#cp377)">
<path transform="matrix(1,0,0,-1,0,841.5)" stroke-width="1.5" stroke-linecap="round" stroke-linejoin="round" fill="none" stroke="#000000" d="M 332.54 354.2 L 275.34 361.58 "/>
</g>
<clipPath id="cp378">
<path transform="matrix(1,0,0,-1,0,841.5)" d="M -.000091553 841.5 L 594.75 841.5 L 594.75 -.00012207 L -.000091553 -.000061035 " fill-rule="evenodd"/>
</clipPath>
<g clip-path="url(#cp378)">
<path transform="matrix(1,0,0,-1,0,841.5)" d="M 275.91 356.73 L 262.42 363.25 L 277.13 366.13 L 275.91 356.73 Z " fill-rule="evenodd"/>
</g>
<clipPath id="cp379">
<path transform="matrix(1,0,0,-1,0,841.5)" d="M -.000030518 841.5 L 594.75 841.5 L 594.75 -.000061035 L .000030518 -.000061035 " fill-rule="evenodd"/>
</clipPath>
<g clip-path="url(#cp379)">
<path transform="matrix(1,0,0,-1,0,841.5)" stroke-width="1.5" stroke-linecap="round" stroke-linejoin="round" fill="none" stroke="#000000" d="M 426.74 389.52 L 370.31 367.11 "/>
</g>
<clipPath id="cp380">
<path transform="matrix(1,0,0,-1,0,841.5)" d="M -.000030518 841.5 L 594.75 841.5 L 594.75 -.000061035 L .000030518 -.000061035 " fill-rule="evenodd"/>
</clipPath>
<g clip-path="url(#cp380)">
<path transform="matrix(1,0,0,-1,0,841.5)" d="M 373.16 363.14 L 358.2 362.3 L 369.66 371.95 L 373.16 363.14 Z " fill-rule="evenodd"/>
</g>
<path transform="matrix(1,0,0,-1,0,841.5)" d="M 364.5 354.37 C 364.5 361.71 350.19 367.67 332.54 367.67 C 314.88 367.67 300.57 361.71 300.57 354.37 C 300.57 347.03 314.88 341.08 332.54 341.08 C 350.19 341.08 364.5 347.03 364.5 354.37 Z " fill="#ffffff" fill-rule="evenodd"/>
<path transform="matrix(1,0,0,-1,0,841.5)" stroke-width="1.5" stroke-linecap="round" stroke-linejoin="round" fill="none" stroke="#000000" d="M 364.5 354.37 C 364.5 361.71 350.19 367.67 332.54 367.67 C 314.88 367.67 300.57 361.71 300.57 354.37 C 300.57 347.03 314.88 341.08 332.54 341.08 C 350.19 341.08 364.5 347.03 364.5 354.37 Z "/>
<g id="Layer-1" data-name="P">
<clipPath id="cp381">
<path transform="matrix(1,0,0,-1,0,841.5)" d="M .000008862 0 L 594.75 0 L 594.75 841.5 L .000008862 841.5 Z " fill-rule="evenodd"/>
</clipPath>
<g clip-path="url(#cp381)">
<text xml:space="preserve" transform="matrix(1 0 -0 1 0 841.5)" font-size="9" font-family="ArialNarrow" font-style="italic"><tspan y="-358.15" x="315.9 319.65299 324.171 325.67399 327.91499 330.15599 333.90898 338.42698 342.17997 345.93296">del. goods</tspan></text>
</g>
</g>
<g id="Layer-1" data-name="P">
<clipPath id="cp382">
<path transform="matrix(1,0,0,-1,0,841.5)" d="M .000008862 0 L 594.75 0 L 594.75 841.5 L .000008862 841.5 Z " fill-rule="evenodd"/>
</clipPath>
<g clip-path="url(#cp382)">
<text xml:space="preserve" transform="matrix(1 0 -0 1 0 841.5)" font-size="9" font-family="ArialNarrow"><tspan y="-358.15" x="350"> </tspan></text>
</g>
</g>
<g id="Layer-1" data-name="P">
<clipPath id="cp383">
<path transform="matrix(1,0,0,-1,0,841.5)" d="M .000008862 0 L 594.75 0 L 594.75 841.5 L .000008862 841.5 Z " fill-rule="evenodd"/>
</clipPath>
<g clip-path="url(#cp383)">
<text xml:space="preserve" transform="matrix(1 0 -0 1 0 841.5)" font-size="9" font-family="ArialNarrow" font-weight="bold"><tspan y="-347.35" x="316.95 319.2 324.44703 327.43504 331.18803 333.42903">(Ute, </tspan></text>
</g>
</g>
<g id="Layer-1" data-name="P">
<clipPath id="cp384">
<path transform="matrix(1,0,0,-1,0,841.5)" d="M .000008862 0 L 594.75 0 L 594.75 841.5 L .000008862 841.5 Z " fill-rule="evenodd"/>
</clipPath>
<g clip-path="url(#cp384)">
<text xml:space="preserve" transform="matrix(1 0 -0 1 0 841.5)" font-size="9" font-family="ArialNarrow" font-weight="bold"><tspan y="-347.35" x="335.42 339.92903 343.67304">hat</tspan></text>
</g>
</g>
<g id="Layer-1" data-name="P">
<clipPath id="cp385">
<path transform="matrix(1,0,0,-1,0,841.5)" d="M .000008862 0 L 594.75 0 L 594.75 841.5 L .000008862 841.5 Z " fill-rule="evenodd"/>
</clipPath>
<g clip-path="url(#cp385)">
<text xml:space="preserve" transform="matrix(1 0 -0 1 0 841.5)" font-size="9" font-family="ArialNarrow" font-weight="bold"><tspan y="-347.35" x="346.5">)</tspan></text>
</g>
</g>
<clipPath id="cp386">
<path transform="matrix(1,0,0,-1,0,841.5)" d="M -.000091553 841.5 L 594.75 841.5 L 594.75 -.00018311 L -.00012207 -.000061035 " fill-rule="evenodd"/>
</clipPath>
<g clip-path="url(#cp386)">
<path transform="matrix(1,0,0,-1,0,841.5)" stroke-width="1.5" stroke-linecap="round" stroke-linejoin="round" fill="none" stroke="#000000" d="M 332.29 323.54 L 274.7 343.99 "/>
</g>
<clipPath id="cp387">
<path transform="matrix(1,0,0,-1,0,841.5)" d="M -.000091553 841.5 L 594.75 841.5 L 594.75 -.00018311 L -.00012207 -.000061035 " fill-rule="evenodd"/>
</clipPath>
<g clip-path="url(#cp387)">
<path transform="matrix(1,0,0,-1,0,841.5)" d="M 274.23 339.12 L 262.42 348.35 L 277.4 348.06 L 274.23 339.12 Z " fill-rule="evenodd"/>
</g>
<path transform="matrix(1,0,0,-1,0,841.5)" stroke-width="1.5" stroke-linecap="round" stroke-linejoin="round" fill="none" stroke="#000000" d="M 245.44 368.96 L 154.2 368.96 "/>
<path transform="matrix(1,0,0,-1,0,841.5)" d="M 155.38 364.22 L 141.16 368.96 L 155.38 373.7 L 155.38 364.22 Z " fill-rule="evenodd"/>
<clipPath id="cp388">
<path transform="matrix(1,0,0,-1,0,841.5)" d="M 0 841.5 L 594.75 841.5 L 594.75 0 L .000030518 0 " fill-rule="evenodd"/>
</clipPath>
<g clip-path="url(#cp388)">
<path transform="matrix(1,0,0,-1,0,841.5)" stroke-width="1.5" stroke-linecap="round" stroke-linejoin="round" fill="none" stroke="#000000" d="M 332.41 387.98 L 275.28 378.67 "/>
</g>
<clipPath id="cp389">
<path transform="matrix(1,0,0,-1,0,841.5)" d="M 0 841.5 L 594.75 841.5 L 594.75 0 L .000030518 0 " fill-rule="evenodd"/>
</clipPath>
<g clip-path="url(#cp389)">
<path transform="matrix(1,0,0,-1,0,841.5)" d="M 277.21 374.18 L 262.42 376.57 L 275.69 383.54 L 277.21 374.18 Z " fill-rule="evenodd"/>
</g>
<path transform="matrix(1,0,0,-1,0,841.5)" stroke-width="1.5" stroke-linecap="round" stroke-linejoin="round" fill="none" stroke="#000000" d="M 508.62 324.17 L 469.12 324.17 "/>
<path transform="matrix(1,0,0,-1,0,841.5)" d="M 470.31 319.43 L 456.09 324.17 L 470.31 328.91 L 470.31 319.43 Z " fill-rule="evenodd"/>
<clipPath id="cp390">
<path transform="matrix(1,0,0,-1,0,841.5)" d="M -.000091553 841.5 L 594.75 841.5 L 594.75 -.00018311 L -.00012207 -.00018311 " fill-rule="evenodd"/>
</clipPath>
<g clip-path="url(#cp390)">
<path transform="matrix(1,0,0,-1,0,841.5)" stroke-width="1.5" stroke-linecap="round" stroke-linejoin="round" fill="none" stroke="#000000" d="M 426.74 389.52 L 370.18 407.14 "/>
</g>
<clipPath id="cp391">
<path transform="matrix(1,0,0,-1,0,841.5)" d="M -.000091553 841.5 L 594.75 841.5 L 594.75 -.00018311 L -.00012207 -.00018311 " fill-rule="evenodd"/>
</clipPath>
<g clip-path="url(#cp391)">
<path transform="matrix(1,0,0,-1,0,841.5)" d="M 369.9 402.26 L 357.73 411.02 L 372.72 411.32 L 369.9 402.26 Z " fill-rule="evenodd"/>
</g>
<path transform="matrix(1,0,0,-1,0,841.5)" stroke-width="1.5" stroke-linecap="round" stroke-linejoin="round" fill="none" stroke="#000000" d="M 445.1 387.98 L 377.06 387.98 "/>
<path transform="matrix(1,0,0,-1,0,841.5)" d="M 378.25 383.24 L 364.03 387.98 L 378.25 392.72 L 378.25 383.24 Z " fill-rule="evenodd"/>
<path transform="matrix(1,0,0,-1,0,841.5)" stroke-width="1.5" stroke-linecap="round" stroke-linejoin="round" fill="none" stroke="#000000" d="M 508.82 387.98 L 469.33 387.98 "/>
<path transform="matrix(1,0,0,-1,0,841.5)" d="M 470.51 383.24 L 456.29 387.98 L 470.51 392.72 L 470.51 383.24 Z " fill-rule="evenodd"/>
<clipPath id="cp392">
<path transform="matrix(1,0,0,-1,0,841.5)" d="M 0 841.5 L 594.75 841.5 L 594.75 .00018311 L 0 .00018311 " fill-rule="evenodd"/>
</clipPath>
<g clip-path="url(#cp392)">
<path transform="matrix(1,0,0,-1,0,841.5)" stroke-width="1.5" stroke-linecap="round" stroke-linejoin="round" fill="none" stroke="#000000" d="M 219.6 592.31 L 219.53 577.18 "/>
</g>
<clipPath id="cp393">
<path transform="matrix(1,0,0,-1,0,841.5)" d="M 0 841.5 L 594.75 841.5 L 594.75 .00018311 L 0 .00018311 " fill-rule="evenodd"/>
</clipPath>
<g clip-path="url(#cp393)">
<path transform="matrix(1,0,0,-1,0,841.5)" d="M 224.27 578.34 L 219.47 564.15 L 214.79 578.39 L 224.27 578.34 Z " fill-rule="evenodd"/>
</g>
<clipPath id="cp394">
<path transform="matrix(1,0,0,-1,0,841.5)" d="M .000015259 841.5 L 594.75 841.5 L 594.75 .00012207 L .000015259 .00012207 " fill-rule="evenodd"/>
</clipPath>
<g clip-path="url(#cp394)">
<path transform="matrix(1,0,0,-1,0,841.5)" stroke-width="1.5" stroke-linecap="round" stroke-linejoin="round" fill="none" stroke="#000000" d="M 219.51 546.01 L 219.51 516.8 "/>
</g>
<clipPath id="cp395">
<path transform="matrix(1,0,0,-1,0,841.5)" d="M .000015259 841.5 L 594.75 841.5 L 594.75 .00012207 L .000015259 .00012207 " fill-rule="evenodd"/>
</clipPath>
<g clip-path="url(#cp395)">
<path transform="matrix(1,0,0,-1,0,841.5)" d="M 224.25 517.98 L 219.51 503.76 L 214.77 517.98 L 224.25 517.98 Z " fill-rule="evenodd"/>
</g>
<path transform="matrix(1,0,0,-1,0,841.5)" stroke-width="1.5" stroke-linecap="round" stroke-linejoin="round" fill="none" stroke="#000000" d="M 237.04 605.49 L 461.94 605.49 "/>
<path transform="matrix(1,0,0,-1,0,841.5)" d="M 460.76 610.23 L 474.98 605.49 L 460.76 600.75 L 460.76 610.23 Z " fill-rule="evenodd"/>
<clipPath id="cp396">
<path transform="matrix(1,0,0,-1,0,841.5)" d="M -.000061035 841.5 L 594.75 841.5 L 594.75 -.000061035 L -.000030518 -.000061035 " fill-rule="evenodd"/>
</clipPath>
<g clip-path="url(#cp396)">
<path transform="matrix(1,0,0,-1,0,841.5)" stroke-width="1.5" stroke-linecap="round" stroke-linejoin="round" fill="none" stroke="#000000" d="M 332.41 418.96 L 274.47 395.14 "/>
</g>
<clipPath id="cp397">
<path transform="matrix(1,0,0,-1,0,841.5)" d="M -.000061035 841.5 L 594.75 841.5 L 594.75 -.000061035 L -.000030518 -.000061035 " fill-rule="evenodd"/>
</clipPath>
<g clip-path="url(#cp397)">
<path transform="matrix(1,0,0,-1,0,841.5)" d="M 277.37 391.2 L 262.42 390.18 L 273.76 399.97 L 277.37 391.2 Z " fill-rule="evenodd"/>
</g>
<path transform="matrix(1,0,0,-1,0,841.5)" stroke-width="1.5" stroke-linecap="round" stroke-linejoin="round" fill="none" stroke="#000000" d="M 91.134 605.65 L 162.79 605.65 "/>
<path transform="matrix(1,0,0,-1,0,841.5)" d="M 161.6 610.39 L 175.82 605.65 L 161.6 600.91 L 161.6 610.39 Z " fill-rule="evenodd"/>
<path transform="matrix(1,0,0,-1,0,841.5)" d="M 131.53 605.86 C 131.53 615.02 113.44 622.45 91.134 622.45 C 68.825 622.45 50.74 615.02 50.74 605.86 C 50.74 596.71 68.825 589.28 91.134 589.28 C 113.44 589.28 131.53 596.71 131.53 605.86 Z " fill="#ffffff" fill-rule="evenodd"/>
<path transform="matrix(1,0,0,-1,0,841.5)" stroke-width="1.5" stroke-linecap="round" stroke-linejoin="round" fill="none" stroke="#000000" d="M 131.53 605.86 C 131.53 615.02 113.44 622.45 91.134 622.45 C 68.825 622.45 50.74 615.02 50.74 605.86 C 50.74 596.71 68.825 589.28 91.134 589.28 C 113.44 589.28 131.53 596.71 131.53 605.86 Z "/>
<g id="Layer-1" data-name="P">
<clipPath id="cp398">
<path transform="matrix(1,0,0,-1,0,841.5)" d="M .000008862 0 L 594.75 0 L 594.75 841.5 L .000008862 841.5 Z " fill-rule="evenodd"/>
</clipPath>
<g clip-path="url(#cp398)">
<text xml:space="preserve" transform="matrix(1 0 -0 1 0 841.5)" font-size="9" font-family="ArialNarrow" font-style="italic"><tspan y="-606.58" x="61.475 65.228 68.215999 71.968997 76.46 78.71 80.213 84.704 88.457 90.698009 94.44201 98.19501 101.93901 104.180019 107.933017 114.67402 118.42702 120.67702">ordering customer </tspan></text>
</g>
</g>
<g id="Layer-1" data-name="P">
<clipPath id="cp399">
<path transform="matrix(1,0,0,-1,0,841.5)" d="M .000008862 0 L 594.75 0 L 594.75 841.5 L .000008862 841.5 Z " fill-rule="evenodd"/>
</clipPath>
<g clip-path="url(#cp399)">
<text xml:space="preserve" transform="matrix(1 0 -0 1 0 841.5)" font-size="9.025" font-family="ArialNarrow" font-weight="bold"><tspan y="-595.78" x="85.3 90.55255 92.799777">Ute</tspan></text>
</g>
</g>
<path transform="matrix(1,0,0,-1,0,841.5)" d="M 555.75 605.97 C 555.75 615.13 537.66 622.56 515.35 622.56 C 493.04 622.56 474.96 615.13 474.96 605.97 C 474.96 596.82 493.04 589.39 515.35 589.39 C 537.66 589.39 555.75 596.82 555.75 605.97 Z " fill="#ffffff" fill-rule="evenodd"/>
<path transform="matrix(1,0,0,-1,0,841.5)" stroke-width="1.5" stroke-linecap="round" stroke-linejoin="round" fill="none" stroke="#000000" d="M 555.75 605.97 C 555.75 615.13 537.66 622.56 515.35 622.56 C 493.04 622.56 474.96 615.13 474.96 605.97 C 474.96 596.82 493.04 589.39 515.35 589.39 C 537.66 589.39 555.75 596.82 555.75 605.97 Z "/>
<g id="Layer-1" data-name="P">
<clipPath id="cp400">
<path transform="matrix(1,0,0,-1,0,841.5)" d="M .000008862 0 L 594.75 0 L 594.75 841.5 L .000008862 841.5 Z " fill-rule="evenodd"/>
</clipPath>
<g clip-path="url(#cp400)">
<text xml:space="preserve" transform="matrix(1 0 -0 1 0 841.5)" font-size="9" font-family="ArialNarrow" font-style="italic"><tspan y="-610.22" x="491.15 494.90299 499.421 501.671 505.41499 509.93299 513.686 517.43 521.183 523.424 527.942 530.192 533.945 538.463">purchase order</tspan></text>
</g>
</g>
<g id="Layer-1" data-name="P">
<clipPath id="cp401">
<path transform="matrix(1,0,0,-1,0,841.5)" d="M .000008862 0 L 594.75 0 L 594.75 841.5 L .000008862 841.5 Z " fill-rule="evenodd"/>
</clipPath>
<g clip-path="url(#cp401)">
<text xml:space="preserve" transform="matrix(1 0 -0 1 0 841.5)" font-size="9" font-family="ArialNarrow" font-weight="bold"><tspan y="-610.22" x="540.85"> </tspan></text>
</g>
</g>
<g id="Layer-1" data-name="P">
<clipPath id="cp402">
<path transform="matrix(1,0,0,-1,0,841.5)" d="M .000008862 0 L 594.75 0 L 594.75 841.5 L .000008862 841.5 Z " fill-rule="evenodd"/>
</clipPath>
<g clip-path="url(#cp402)">
<text xml:space="preserve" transform="matrix(1 0 -0 1 0 841.5)" font-size="9.025" font-family="ArialNarrow" font-weight="bold"><tspan y="-599.42" x="485.63 487.87724 493.1298 496.11708 499.87147">(Ute,</tspan></text>
</g>
</g>
<g id="Layer-1" data-name="Span">
<clipPath id="cp403">
<path transform="matrix(1,0,0,-1,0,841.5)" d="M .000008862 0 L 594.75 0 L 594.75 841.5 L .000008862 841.5 Z " fill-rule="evenodd"/>
</clipPath>
<g clip-path="url(#cp403)">
<text xml:space="preserve" transform="matrix(1 0 -0 1 0 841.5)" font-size="9.025" font-family="ArialNarrow" font-weight="bold"><tspan y="-599.42" x="502.05"> </tspan></text>
</g>
</g>
<g id="Layer-1" data-name="P">
<clipPath id="cp404">
<path transform="matrix(1,0,0,-1,0,841.5)" d="M .000008862 0 L 594.75 0 L 594.75 841.5 L .000008862 841.5 Z " fill-rule="evenodd"/>
</clipPath>
<g clip-path="url(#cp404)">
<text xml:space="preserve" transform="matrix(1 0 -0 1 0 841.5)" font-size="9.025" font-family="ArialNarrow" font-weight="bold"><tspan y="-599.42" x="504.1 507.08729 511.6088 515.3361 517.5743 519.81246 524.334 528.06137 530.2995 532.53768 537.0592">{p1, p2, p2</tspan></text>
</g>
</g>
<g id="Layer-1" data-name="P">
<clipPath id="cp405">
<path transform="matrix(1,0,0,-1,0,841.5)" d="M .000008862 0 L 594.75 0 L 594.75 841.5 L .000008862 841.5 Z " fill-rule="evenodd"/>
</clipPath>
<g clip-path="url(#cp405)">
<text xml:space="preserve" transform="matrix(1 0 -0 1 0 841.5)" font-size="9.025" font-family="ArialNarrow" font-weight="bold"><tspan y="-599.42" x="541.05 544.07498">})</tspan></text>
</g>
</g>
<path transform="matrix(1,0,0,-1,0,841.5)" d="M 555.87 493.32 C 555.87 503.88 537.79 512.45 515.48 512.45 C 493.17 512.45 475.09 503.88 475.09 493.32 C 475.09 482.75 493.17 474.18 515.48 474.18 C 537.79 474.18 555.87 482.75 555.87 493.32 Z " fill="#ffffff" fill-rule="evenodd"/>
<path transform="matrix(1,0,0,-1,0,841.5)" stroke-width="1.5" stroke-linecap="round" stroke-linejoin="round" fill="none" stroke="#000000" d="M 555.87 493.32 C 555.87 503.88 537.79 512.45 515.48 512.45 C 493.17 512.45 475.09 503.88 475.09 493.32 C 475.09 482.75 493.17 474.18 515.48 474.18 C 537.79 474.18 555.87 482.75 555.87 493.32 Z "/>
<g id="Layer-1" data-name="P">
<clipPath id="cp406">
<path transform="matrix(1,0,0,-1,0,841.5)" d="M .000008862 0 L 594.75 0 L 594.75 841.5 L .000008862 841.5 Z " fill-rule="evenodd"/>
</clipPath>
<g clip-path="url(#cp406)">
<text xml:space="preserve" transform="matrix(1 0 -0 1 0 841.5)" font-size="9" font-family="ArialNarrow" font-style="italic"><tspan y="-500.03" x="501.15 507.15299 511.64399 515.388 519.132 522.885 526.638">message</tspan></text>
</g>
</g>
<g id="Layer-1" data-name="P">
<clipPath id="cp407">
<path transform="matrix(1,0,0,-1,0,841.5)" d="M .000008862 0 L 594.75 0 L 594.75 841.5 L .000008862 841.5 Z " fill-rule="evenodd"/>
</clipPath>
<g clip-path="url(#cp407)">
<text xml:space="preserve" transform="matrix(1 0 -0 1 0 841.5)" font-size="9.025" font-family="ArialNarrow" font-weight="bold"><tspan y="-489.23" x="483.5 485.74723 488.7345 493.98707 496.23429 499.98869">((Ute,</tspan></text>
</g>
</g>
<g id="Layer-1" data-name="Span">
<clipPath id="cp408">
<path transform="matrix(1,0,0,-1,0,841.5)" d="M .000008862 0 L 594.75 0 L 594.75 841.5 L .000008862 841.5 Z " fill-rule="evenodd"/>
</clipPath>
<g clip-path="url(#cp408)">
<text xml:space="preserve" transform="matrix(1 0 -0 1 0 841.5)" font-size="9.025" font-family="ArialNarrow" font-weight="bold"><tspan y="-489.23" x="502.38"> </tspan></text>
</g>
</g>
<g id="Layer-1" data-name="P">
<clipPath id="cp409">
<path transform="matrix(1,0,0,-1,0,841.5)" d="M .000008862 0 L 594.75 0 L 594.75 841.5 L .000008862 841.5 Z " fill-rule="evenodd"/>
</clipPath>
<g clip-path="url(#cp409)">
<text xml:space="preserve" transform="matrix(1 0 -0 1 0 841.5)" font-size="9.025" font-family="ArialNarrow" font-weight="bold"><tspan y="-489.23" x="504.42 507.4073 511.9288 515.6561 517.8943 520.13247 524.654 528.38137 530.6195 532.85769 537.3792">{p1, p2, p2</tspan></text>
</g>
</g>
<g id="Layer-1" data-name="P">
<clipPath id="cp410">
<path transform="matrix(1,0,0,-1,0,841.5)" d="M .000008862 0 L 594.75 0 L 594.75 841.5 L .000008862 841.5 Z " fill-rule="evenodd"/>
</clipPath>
<g clip-path="url(#cp410)">
<text xml:space="preserve" transform="matrix(1 0 -0 1 0 841.5)" font-size="9.025" font-family="ArialNarrow" font-weight="bold"><tspan y="-489.23" x="541.4 544.38729 546.63449 548.8726">}), </tspan></text>
</g>
</g>
<g id="Layer-1" data-name="P">
<clipPath id="cp411">
<path transform="matrix(1,0,0,-1,0,841.5)" d="M .000008862 0 L 594.75 0 L 594.75 841.5 L .000008862 841.5 Z " fill-rule="evenodd"/>
</clipPath>
<g clip-path="url(#cp411)">
<text xml:space="preserve" transform="matrix(1 0 -0 1 0 841.5)" font-size="9" font-family="ArialNarrow" font-weight="bold"><tspan y="-478.4" x="505.65 509.421 513.93899 516.18 519.951 524.469">12/24)</tspan></text>
</g>
</g>
<path transform="matrix(1,0,0,-1,0,841.5)" d="M 141.17 369.67 C 141.17 383.68 118.38 395.04 90.283 395.04 C 62.182 395.04 39.402 383.68 39.402 369.67 C 39.402 355.66 62.182 344.3 90.283 344.3 C 118.38 344.3 141.17 355.66 141.17 369.67 Z " fill="#ffffff" fill-rule="evenodd"/>
<path transform="matrix(1,0,0,-1,0,841.5)" stroke-width="1.5" stroke-linecap="round" stroke-linejoin="round" fill="none" stroke="#000000" d="M 141.17 369.67 C 141.17 383.68 118.38 395.04 90.283 395.04 C 62.182 395.04 39.402 383.68 39.402 369.67 C 39.402 355.66 62.182 344.3 90.283 344.3 C 118.38 344.3 141.17 355.66 141.17 369.67 Z "/>
<g id="Layer-1" data-name="P">
<clipPath id="cp412">
<path transform="matrix(1,0,0,-1,0,841.5)" d="M .000008862 0 L 594.75 0 L 594.75 841.5 L .000008862 841.5 Z " fill-rule="evenodd"/>
</clipPath>
<g clip-path="url(#cp412)">
<text xml:space="preserve" transform="matrix(1 0 -0 1 0 841.5)" font-size="9.025" font-family="ArialNarrow" font-style="italic"><tspan y="-382.55" x="63.5 67.2544 70.99978 74.745159 79.23961 82.99401 85.23221 88.98661 93.481067 95.71926 99.47366 103.21904 107.71349 109.96072 113.71512 115.213268">accepted overall</tspan></text>
</g>
</g>
<g id="Layer-1" data-name="P">
<clipPath id="cp413">
<path transform="matrix(1,0,0,-1,0,841.5)" d="M .000008862 0 L 594.75 0 L 594.75 841.5 L .000008862 841.5 Z " fill-rule="evenodd"/>
</clipPath>
<g clip-path="url(#cp413)">
<text xml:space="preserve" transform="matrix(1 0 -0 1 0 841.5)" font-size="9" font-family="ArialNarrow" font-style="italic"><tspan y="-371.72" x="76.65"> </tspan></text>
</g>
</g>
<g id="Layer-1" data-name="P">
<clipPath id="cp414">
<path transform="matrix(1,0,0,-1,0,841.5)" d="M .000008862 0 L 594.75 0 L 594.75 841.5 L .000008862 841.5 Z " fill-rule="evenodd"/>
</clipPath>
<g clip-path="url(#cp414)">
<text xml:space="preserve" transform="matrix(1 0 -0 1 0 841.5)" font-size="9" font-family="ArialNarrow" font-style="italic"><tspan y="-371.72" x="78.7 82.453 86.94401 88.44701 89.950008 93.69401 98.185009 100.435009 104.17901">delivery </tspan></text>
</g>
</g>
<g id="Layer-1" data-name="P">
<clipPath id="cp415">
<path transform="matrix(1,0,0,-1,0,841.5)" d="M .000008862 0 L 594.75 0 L 594.75 841.5 L .000008862 841.5 Z " fill-rule="evenodd"/>
</clipPath>
<g clip-path="url(#cp415)">
<text xml:space="preserve" transform="matrix(1 0 -0 1 0 841.5)" font-size="9" font-family="ArialNarrow" font-weight="bold"><tspan y="-360.93" x="47.7 49.95 55.197 58.184999 61.937997 64.179 66.420009 68.670009 73.161 77.670009 82.17901 85.914 90.40501 92.64601 94.14901 98.64001 103.14901 107.65801 111.393009 115.88401 118.125019 119.62801 124.13702 128.61902 130.86902 133.11002">(Ute, {shoes, shoes, hat, </tspan></text>
</g>
</g>
<g id="Layer-1" data-name="P">
<clipPath id="cp416">
<path transform="matrix(1,0,0,-1,0,841.5)" d="M .000008862 0 L 594.75 0 L 594.75 841.5 L .000008862 841.5 Z " fill-rule="evenodd"/>
</clipPath>
<g clip-path="url(#cp416)">
<text xml:space="preserve" transform="matrix(1 0 -0 1 0 841.5)" font-size="9" font-family="ArialNarrow" font-weight="bold"><tspan y="-350.1" x="82.2 86.709 90.453 93.441 96.429">hat})</tspan></text>
</g>
</g>
<path transform="matrix(1,0,0,-1,0,841.5)" d="M 398.39 372.42 L 455.083 372.42 L 455.083 405.58503 L 398.39 405.58503 Z " fill="#ffffff" fill-rule="evenodd"/>
<path transform="matrix(1,0,0,-1,0,841.5)" stroke-width="2" stroke-linecap="round" stroke-linejoin="round" fill="none" stroke="#000000" d="M 398.39 372.42 L 455.083 372.42 L 455.083 405.58503 L 398.39 405.58503 Z "/>
<g id="Layer-1" data-name="P">
<clipPath id="cp417">
<path transform="matrix(1,0,0,-1,0,841.5)" d="M .000008862 0 L 594.75 0 L 594.75 841.5 L .000008862 841.5 Z " fill-rule="evenodd"/>
</clipPath>
<g clip-path="url(#cp417)">
<text xml:space="preserve" transform="matrix(1 0 -0 1 0 841.5)" font-size="9" font-family="ArialNarrow" font-weight="bold"><tspan y="-396.7" x="409.42 414.66703 416.91703 421.40803 423.64903 428.15803 432.66703 436.40205 440.91105 445.39305">Ute opens </tspan></text>
</g>
</g>
<g id="Layer-1" data-name="P">
<clipPath id="cp418">
<path transform="matrix(1,0,0,-1,0,841.5)" d="M .000008862 0 L 594.75 0 L 594.75 841.5 L .000008862 841.5 Z " fill-rule="evenodd"/>
</clipPath>
<g clip-path="url(#cp418)">
<text xml:space="preserve" transform="matrix(1 0 -0 1 0 841.5)" font-size="9" font-family="ArialNarrow" font-weight="bold"><tspan y="-385.9" x="416.2 420.709 424.45304 427.44105 430.42906 431.93205 436.42304 438.66404">partial </tspan></text>
</g>
</g>
<g id="Layer-1" data-name="P">
<clipPath id="cp419">
<path transform="matrix(1,0,0,-1,0,841.5)" d="M .000008862 0 L 594.75 0 L 594.75 841.5 L .000008862 841.5 Z " fill-rule="evenodd"/>
</clipPath>
<g clip-path="url(#cp419)">
<text xml:space="preserve" transform="matrix(1 0 -0 1 0 841.5)" font-size="9.025" font-family="ArialNarrow" font-weight="bold"><tspan y="-375.1" x="413.32 417.84153 421.56886 423.80708 426.0453 429.79969 434.29414 437.2814">delivery</tspan></text>
</g>
</g>
<path transform="matrix(1,0,0,-1,0,841.5)" d="M 364.38 419.13 C 364.38 426.47 350.07 432.43 332.41 432.43 C 314.76 432.43 300.45 426.47 300.45 419.13 C 300.45 411.79 314.76 405.84 332.41 405.84 C 350.07 405.84 364.38 411.79 364.38 419.13 Z " fill="#ffffff" fill-rule="evenodd"/>
<path transform="matrix(1,0,0,-1,0,841.5)" stroke-width="1.5" stroke-linecap="round" stroke-linejoin="round" fill="none" stroke="#000000" d="M 364.38 419.13 C 364.38 426.47 350.07 432.43 332.41 432.43 C 314.76 432.43 300.45 426.47 300.45 419.13 C 300.45 411.79 314.76 405.84 332.41 405.84 C 350.07 405.84 364.38 411.79 364.38 419.13 Z "/>
<g id="Layer-1" data-name="P">
<clipPath id="cp420">
<path transform="matrix(1,0,0,-1,0,841.5)" d="M .000008862 0 L 594.75 0 L 594.75 841.5 L .000008862 841.5 Z " fill-rule="evenodd"/>
</clipPath>
<g clip-path="url(#cp420)">
<text xml:space="preserve" transform="matrix(1 0 -0 1 0 841.5)" font-size="9" font-family="ArialNarrow" font-style="italic"><tspan y="-422.98" x="315.78 319.533 324.051 325.554 327.79499 330.03599 333.78898 338.30699 342.05998 345.81297">del. goods</tspan></text>
</g>
</g>
<g id="Layer-1" data-name="P">
<clipPath id="cp421">
<path transform="matrix(1,0,0,-1,0,841.5)" d="M .000008862 0 L 594.75 0 L 594.75 841.5 L .000008862 841.5 Z " fill-rule="evenodd"/>
</clipPath>
<g clip-path="url(#cp421)">
<text xml:space="preserve" transform="matrix(1 0 -0 1 0 841.5)" font-size="9" font-family="ArialNarrow"><tspan y="-422.98" x="349.9"> </tspan></text>
</g>
</g>
<g id="Layer-1" data-name="P">
<clipPath id="cp422">
<path transform="matrix(1,0,0,-1,0,841.5)" d="M .000008862 0 L 594.75 0 L 594.75 841.5 L .000008862 841.5 Z " fill-rule="evenodd"/>
</clipPath>
<g clip-path="url(#cp422)">
<text xml:space="preserve" transform="matrix(1 0 -0 1 0 841.5)" font-size="9.025" font-family="ArialNarrow" font-weight="bold"><tspan y="-412.17" x="311.7 313.94725 319.1998 322.18708 325.94148 328.1797">(Ute, </tspan></text>
</g>
</g>
<g id="Layer-1" data-name="P">
<clipPath id="cp423">
<path transform="matrix(1,0,0,-1,0,841.5)" d="M .000008862 0 L 594.75 0 L 594.75 841.5 L .000008862 841.5 Z " fill-rule="evenodd"/>
</clipPath>
<g clip-path="url(#cp423)">
<text xml:space="preserve" transform="matrix(1 0 -0 1 0 841.5)" font-size="9.025" font-family="ArialNarrow" font-weight="bold"><tspan y="-412.17" x="330.15 333.92243 338.44395 342.96546 347.48698">shoes</tspan></text>
</g>
</g>
<g id="Layer-1" data-name="P">
<clipPath id="cp424">
<path transform="matrix(1,0,0,-1,0,841.5)" d="M .000008862 0 L 594.75 0 L 594.75 841.5 L .000008862 841.5 Z " fill-rule="evenodd"/>
</clipPath>
<g clip-path="url(#cp424)">
<text xml:space="preserve" transform="matrix(1 0 -0 1 0 841.5)" font-size="9.025" font-family="ArialNarrow" font-weight="bold"><tspan y="-412.17" x="351.53">)</tspan></text>
</g>
</g>
<path transform="matrix(1,0,0,-1,0,841.5)" d="M 364.38 388.15 C 364.38 395.49 350.07 401.44 332.41 401.44 C 314.76 401.44 300.45 395.49 300.45 388.15 C 300.45 380.81 314.76 374.85 332.41 374.85 C 350.07 374.85 364.38 380.81 364.38 388.15 Z " fill="#ffffff" fill-rule="evenodd"/>
<path transform="matrix(1,0,0,-1,0,841.5)" stroke-width="1.5" stroke-linecap="round" stroke-linejoin="round" fill="none" stroke="#000000" d="M 364.38 388.15 C 364.38 395.49 350.07 401.44 332.41 401.44 C 314.76 401.44 300.45 395.49 300.45 388.15 C 300.45 380.81 314.76 374.85 332.41 374.85 C 350.07 374.85 364.38 380.81 364.38 388.15 Z "/>
<g id="Layer-1" data-name="P">
<clipPath id="cp425">
<path transform="matrix(1,0,0,-1,0,841.5)" d="M .000008862 0 L 594.75 0 L 594.75 841.5 L .000008862 841.5 Z " fill-rule="evenodd"/>
</clipPath>
<g clip-path="url(#cp425)">
<text xml:space="preserve" transform="matrix(1 0 -0 1 0 841.5)" font-size="9" font-family="ArialNarrow" font-style="italic"><tspan y="-391.95" x="315.78 319.533 324.051 325.554 327.79499 330.03599 333.78898 338.30699 342.05998 345.81297 349.55696">del. goods </tspan></text>
</g>
</g>
<g id="Layer-1" data-name="P">
<clipPath id="cp426">
<path transform="matrix(1,0,0,-1,0,841.5)" d="M .000008862 0 L 594.75 0 L 594.75 841.5 L .000008862 841.5 Z " fill-rule="evenodd"/>
</clipPath>
<g clip-path="url(#cp426)">
<text xml:space="preserve" transform="matrix(1 0 -0 1 0 841.5)" font-size="9" font-family="ArialNarrow" font-weight="bold"><tspan y="-381.15" x="311.7 313.95 319.19703 322.18504 325.93803 328.17903">(Ute, </tspan></text>
</g>
</g>
<g id="Layer-1" data-name="P">
<clipPath id="cp427">
<path transform="matrix(1,0,0,-1,0,841.5)" d="M .000008862 0 L 594.75 0 L 594.75 841.5 L .000008862 841.5 Z " fill-rule="evenodd"/>
</clipPath>
<g clip-path="url(#cp427)">
<text xml:space="preserve" transform="matrix(1 0 -0 1 0 841.5)" font-size="9" font-family="ArialNarrow" font-weight="bold"><tspan y="-381.15" x="330.15 333.921 338.43 342.966 347.484">shoes</tspan></text>
</g>
</g>
<g id="Layer-1" data-name="P">
<clipPath id="cp428">
<path transform="matrix(1,0,0,-1,0,841.5)" d="M .000008862 0 L 594.75 0 L 594.75 841.5 L .000008862 841.5 Z " fill-rule="evenodd"/>
</clipPath>
<g clip-path="url(#cp428)">
<text xml:space="preserve" transform="matrix(1 0 -0 1 0 841.5)" font-size="9" font-family="ArialNarrow" font-weight="bold"><tspan y="-381.15" x="351.53">)</tspan></text>
</g>
</g>
<path transform="matrix(1,0,0,-1,0,841.5)" d="M 364.26 323.71 C 364.26 331.06 349.95 337.01 332.29 337.01 C 314.64 337.01 300.33 331.06 300.33 323.71 C 300.33 316.37 314.64 310.42 332.29 310.42 C 349.95 310.42 364.26 316.37 364.26 323.71 Z " fill="#ffffff" fill-rule="evenodd"/>
<path transform="matrix(1,0,0,-1,0,841.5)" stroke-width="1.5" stroke-linecap="round" stroke-linejoin="round" fill="none" stroke="#000000" d="M 364.26 323.71 C 364.26 331.06 349.95 337.01 332.29 337.01 C 314.64 337.01 300.33 331.06 300.33 323.71 C 300.33 316.37 314.64 310.42 332.29 310.42 C 349.95 310.42 364.26 316.37 364.26 323.71 Z "/>
<g id="Layer-1" data-name="P">
<clipPath id="cp429">
<path transform="matrix(1,0,0,-1,0,841.5)" d="M .000008862 0 L 594.75 0 L 594.75 841.5 L .000008862 841.5 Z " fill-rule="evenodd"/>
</clipPath>
<g clip-path="url(#cp429)">
<text xml:space="preserve" transform="matrix(1 0 -0 1 0 841.5)" font-size="9" font-family="ArialNarrow"><tspan y="-327.48" x="315.65">d</tspan></text>
</g>
</g>
<g id="Layer-1" data-name="P">
<clipPath id="cp430">
<path transform="matrix(1,0,0,-1,0,841.5)" d="M .000008862 0 L 594.75 0 L 594.75 841.5 L .000008862 841.5 Z " fill-rule="evenodd"/>
</clipPath>
<g clip-path="url(#cp430)">
<text xml:space="preserve" transform="matrix(1 0 -0 1 0 841.5)" font-size="9" font-family="ArialNarrow" font-style="italic"><tspan y="-327.48" x="319.77 323.52299 325.76399 327.26698 329.50798 333.99897 337.75196 342.24296 345.99595 349.73994">el. goods </tspan></text>
</g>
</g>
<g id="Layer-1" data-name="P">
<clipPath id="cp431">
<path transform="matrix(1,0,0,-1,0,841.5)" d="M .000008862 0 L 594.75 0 L 594.75 841.5 L .000008862 841.5 Z " fill-rule="evenodd"/>
</clipPath>
<g clip-path="url(#cp431)">
<text xml:space="preserve" transform="matrix(1 0 -0 1 0 841.5)" font-size="9" font-family="ArialNarrow" font-weight="bold"><tspan y="-316.65" x="316.7 318.95 324.22404 327.21205 330.96504 333.20603 335.44703 339.95603 343.71803 345.96803">(Ute, hat)</tspan></text>
</g>
</g>
<path transform="matrix(1,0,0,-1,0,841.5)" stroke-width="1.5" stroke-linecap="round" stroke-linejoin="round" fill="none" stroke="#000000" d="M 427.42 324.17 L 377.5 324.17 "/>
<path transform="matrix(1,0,0,-1,0,841.5)" d="M 378.68 319.43 L 364.46 324.17 L 378.68 328.91 L 378.68 319.43 Z " fill-rule="evenodd"/>
<path transform="matrix(1,0,0,-1,0,841.5)" d="M 545.57 323.13 C 545.57 330.68 532.53 336.81 516.43 336.81 C 500.34 336.81 487.29 330.68 487.29 323.13 C 487.29 315.57 500.34 309.45 516.43 309.45 C 532.53 309.45 545.57 315.57 545.57 323.13 Z " fill="#ffffff" fill-rule="evenodd"/>
<path transform="matrix(1,0,0,-1,0,841.5)" stroke-width="1.5" stroke-linecap="round" stroke-linejoin="round" fill="none" stroke="#000000" d="M 545.57 323.13 C 545.57 330.68 532.53 336.81 516.43 336.81 C 500.34 336.81 487.29 330.68 487.29 323.13 C 487.29 315.57 500.34 309.45 516.43 309.45 C 532.53 309.45 545.57 315.57 545.57 323.13 Z "/>
<g id="Layer-1" data-name="P">
<clipPath id="cp432">
<path transform="matrix(1,0,0,-1,0,841.5)" d="M .000008862 0 L 594.75 0 L 594.75 841.5 L .000008862 841.5 Z " fill-rule="evenodd"/>
</clipPath>
<g clip-path="url(#cp432)">
<text xml:space="preserve" transform="matrix(1 0 -0 1 0 841.5)" font-size="9" font-family="ArialNarrow" font-style="italic"><tspan y="-324.23" x="495.93 499.701 504.219 506.496 508.764 511.032 512.535 517.053 520.824 523.092 524.595 528.357 532.128 534.40499">part. delivery</tspan></text>
</g>
</g>
<g id="Layer-1" data-name="P">
<clipPath id="cp433">
<path transform="matrix(1,0,0,-1,0,841.5)" d="M .000008862 0 L 594.75 0 L 594.75 841.5 L .000008862 841.5 Z " fill-rule="evenodd"/>
</clipPath>
<g clip-path="url(#cp433)">
<text xml:space="preserve" transform="matrix(1 0 -0 1 0 841.5)" font-size="9.025" font-family="ArialNarrow" font-weight="bold"><tspan y="-313.42" x="498.2 500.44725 505.71784 508.7051 512.47756 514.7157 516.95388 519.20108 523.7226 528.24417 530.49136 533.4786">(Ute, {hat})</tspan></text>
</g>
</g>
<path transform="matrix(1,0,0,-1,0,841.5)" d="M 546.48 389.99 C 546.48 402.56 533.19 412.75 516.8 412.75 C 500.42 412.75 487.13 402.56 487.13 389.99 C 487.13 377.42 500.42 367.23 516.8 367.23 C 533.19 367.23 546.48 377.42 546.48 389.99 Z " fill="#ffffff" fill-rule="evenodd"/>
<path transform="matrix(1,0,0,-1,0,841.5)" stroke-width="1.5" stroke-linecap="round" stroke-linejoin="round" fill="none" stroke="#000000" d="M 546.48 389.99 C 546.48 402.56 533.19 412.75 516.8 412.75 C 500.42 412.75 487.13 402.56 487.13 389.99 C 487.13 377.42 500.42 367.23 516.8 367.23 C 533.19 367.23 546.48 377.42 546.48 389.99 Z "/>
<g id="Layer-1" data-name="P">
<clipPath id="cp434">
<path transform="matrix(1,0,0,-1,0,841.5)" d="M .000008862 0 L 594.75 0 L 594.75 841.5 L .000008862 841.5 Z " fill-rule="evenodd"/>
</clipPath>
<g clip-path="url(#cp434)">
<text xml:space="preserve" transform="matrix(1 0 -0 1 0 841.5)" font-size="9.025" font-family="ArialNarrow" font-style="italic"><tspan y="-400.25" x="496.3 500.07243 504.5849 506.83213 509.07035 511.30857 512.8067 517.3192 521.0917 523.3299 524.82809 528.5915 532.36398 534.61117">part. delivery</tspan></text>
</g>
</g>
<g id="Layer-1" data-name="P">
<clipPath id="cp435">
<path transform="matrix(1,0,0,-1,0,841.5)" d="M .000008862 0 L 594.75 0 L 594.75 841.5 L .000008862 841.5 Z " fill-rule="evenodd"/>
</clipPath>
<g clip-path="url(#cp435)">
<text xml:space="preserve" transform="matrix(1 0 -0 1 0 841.5)" font-size="9" font-family="ArialNarrow" font-weight="bold"><tspan y="-389.42" x="495.08 497.33 502.604 505.592 509.363 511.604 513.84506 516.09506 520.61306 525.122 529.65798 533.42898 537.94699 540.188">(Ute, {shoes, </tspan></text>
</g>
</g>
<g id="Layer-1" data-name="P">
<clipPath id="cp436">
<path transform="matrix(1,0,0,-1,0,841.5)" d="M .000008862 0 L 594.75 0 L 594.75 841.5 L .000008862 841.5 Z " fill-rule="evenodd"/>
</clipPath>
<g clip-path="url(#cp436)">
<text xml:space="preserve" transform="matrix(1 0 -0 1 0 841.5)" font-size="9.025" font-family="ArialNarrow" font-weight="bold"><tspan y="-378.63" x="496.52 500.27439 504.7959 509.27229 513.7667 517.5211 519.7593 521.99746 526.519 530.24636 533.2336 536.2208">shoes, hat})</tspan></text>
</g>
</g>
<path transform="matrix(1,0,0,-1,0,841.5)" d="M 259.94 440.85 C 259.94 450.01 241.85 457.43 219.54 457.43 C 197.24 457.43 179.15 450.01 179.15 440.85 C 179.15 431.69 197.24 424.27 219.54 424.27 C 241.85 424.27 259.94 431.69 259.94 440.85 Z " fill="#ffffff" fill-rule="evenodd"/>
<path transform="matrix(1,0,0,-1,0,841.5)" stroke-width="1.5" stroke-linecap="round" stroke-linejoin="round" fill="none" stroke="#000000" d="M 259.94 440.85 C 259.94 450.01 241.85 457.43 219.54 457.43 C 197.24 457.43 179.15 450.01 179.15 440.85 C 179.15 431.69 197.24 424.27 219.54 424.27 C 241.85 424.27 259.94 431.69 259.94 440.85 Z "/>
<g id="Layer-1" data-name="P">
<clipPath id="cp437">
<path transform="matrix(1,0,0,-1,0,841.5)" d="M .000008862 0 L 594.75 0 L 594.75 841.5 L .000008862 841.5 Z " fill-rule="evenodd"/>
</clipPath>
<g clip-path="url(#cp437)">
<text xml:space="preserve" transform="matrix(1 0 -0 1 0 841.5)" font-size="9.025" font-family="ArialNarrow" font-style="italic"><tspan y="-444.97" x="191.08 194.83441 198.57979 203.07424 206.82865 210.57402 212.81221 216.56662 221.06107 223.29926 227.05367 231.54811 233.04627 234.54442 238.2898 242.0442 245.03148">expected delivery</tspan></text>
</g>
</g>
<g id="Layer-1" data-name="P">
<clipPath id="cp438">
<path transform="matrix(1,0,0,-1,0,841.5)" d="M .000008862 0 L 594.75 0 L 594.75 841.5 L .000008862 841.5 Z " fill-rule="evenodd"/>
</clipPath>
<g clip-path="url(#cp438)">
<text xml:space="preserve" transform="matrix(1 0 -0 1 0 841.5)" font-size="9" font-family="ArialNarrow" font-weight="bold"><tspan y="-434.15" x="189.45 191.7 196.947 199.93502 203.68802">(Ute,</tspan></text>
</g>
</g>
<g id="Layer-1" data-name="Span">
<clipPath id="cp439">
<path transform="matrix(1,0,0,-1,0,841.5)" d="M .000008862 0 L 594.75 0 L 594.75 841.5 L .000008862 841.5 Z " fill-rule="evenodd"/>
</clipPath>
<g clip-path="url(#cp439)">
<text xml:space="preserve" transform="matrix(1 0 -0 1 0 841.5)" font-size="9" font-family="ArialNarrow" font-weight="bold"><tspan y="-434.15" x="205.85"> </tspan></text>
</g>
</g>
<g id="Layer-1" data-name="P">
<clipPath id="cp440">
<path transform="matrix(1,0,0,-1,0,841.5)" d="M .000008862 0 L 594.75 0 L 594.75 841.5 L .000008862 841.5 Z " fill-rule="evenodd"/>
</clipPath>
<g clip-path="url(#cp440)">
<text xml:space="preserve" transform="matrix(1 0 -0 1 0 841.5)" font-size="9" font-family="ArialNarrow" font-weight="bold"><tspan y="-434.15" x="207.9 210.915 215.424 219.213 221.481 223.74901 228.25801 232.04701 234.31502 236.58303 241.09203">{p1, p2, p2</tspan></text>
</g>
</g>
<g id="Layer-1" data-name="P">
<clipPath id="cp441">
<path transform="matrix(1,0,0,-1,0,841.5)" d="M .000008862 0 L 594.75 0 L 594.75 841.5 L .000008862 841.5 Z " fill-rule="evenodd"/>
</clipPath>
<g clip-path="url(#cp441)">
<text xml:space="preserve" transform="matrix(1 0 -0 1 0 841.5)" font-size="9" font-family="ArialNarrow" font-weight="bold"><tspan y="-434.15" x="244.88 247.88">})</tspan></text>
</g>
</g>
<path transform="matrix(1,0,0,-1,0,841.5)" d="M 398.71 308.53 L 455.40299 308.53 L 455.40299 341.695 L 398.71 341.695 Z " fill="#ffffff" fill-rule="evenodd"/>
<path transform="matrix(1,0,0,-1,0,841.5)" stroke-width="2" stroke-linecap="round" stroke-linejoin="round" fill="none" stroke="#000000" d="M 398.71 308.53 L 455.40299 308.53 L 455.40299 341.695 L 398.71 341.695 Z "/>
<g id="Layer-1" data-name="P">
<clipPath id="cp442">
<path transform="matrix(1,0,0,-1,0,841.5)" d="M .000008862 0 L 594.75 0 L 594.75 841.5 L .000008862 841.5 Z " fill-rule="evenodd"/>
</clipPath>
<g clip-path="url(#cp442)">
<text xml:space="preserve" transform="matrix(1 0 -0 1 0 841.5)" font-size="9.025" font-family="ArialNarrow" font-weight="bold"><tspan y="-332.77" x="409.73 415.0006 417.27494 421.7874 424.0527 428.57423 433.09574 436.8772 441.3987 445.92024">Ute opens </tspan></text>
</g>
</g>
<g id="Layer-1" data-name="P">
<clipPath id="cp443">
<path transform="matrix(1,0,0,-1,0,841.5)" d="M .000008862 0 L 594.75 0 L 594.75 841.5 L .000008862 841.5 Z " fill-rule="evenodd"/>
</clipPath>
<g clip-path="url(#cp443)">
<text xml:space="preserve" transform="matrix(1 0 -0 1 0 841.5)" font-size="9" font-family="ArialNarrow" font-weight="bold"><tspan y="-321.95" x="416.5 421.009 424.771 427.759 430.747 432.25 436.768 439.009">partial </tspan></text>
</g>
</g>
<g id="Layer-1" data-name="P">
<clipPath id="cp444">
<path transform="matrix(1,0,0,-1,0,841.5)" d="M .000008862 0 L 594.75 0 L 594.75 841.5 L .000008862 841.5 Z " fill-rule="evenodd"/>
</clipPath>
<g clip-path="url(#cp444)">
<text xml:space="preserve" transform="matrix(1 0 -0 1 0 841.5)" font-size="9.025" font-family="ArialNarrow" font-weight="bold"><tspan y="-311.15" x="413.63 418.15153 421.87886 424.11708 426.3553 430.10969 434.60414 437.5914">delivery</tspan></text>
</g>
</g>
<path transform="matrix(1,0,0,-1,0,841.5)" d="M 175.82 591.96 L 270.279 591.96 L 270.279 620.482 L 175.82 620.482 Z " fill="#ffffff" fill-rule="evenodd"/>
<path transform="matrix(1,0,0,-1,0,841.5)" stroke-width="2" stroke-linecap="round" stroke-linejoin="round" fill="none" stroke="#000000" d="M 175.82 591.96 L 270.279 591.96 L 270.279 620.482 L 175.82 620.482 Z "/>
<g id="Layer-1" data-name="P">
<clipPath id="cp445">
<path transform="matrix(1,0,0,-1,0,841.5)" d="M .000008862 0 L 594.75 0 L 594.75 841.5 L .000008862 841.5 Z " fill-rule="evenodd"/>
</clipPath>
<g clip-path="url(#cp445)">
<text xml:space="preserve" transform="matrix(1 0 -0 1 0 841.5)" font-size="9" font-family="ArialNarrow" font-weight="bold"><tspan y="-608.7" x="184.75 189.99701 192.24701 196.738 198.979 202.73201 207.24102 211.75002 218.47303 220.71402 222.96402 226.71703 228.95803 233.46703 237.97603 240.94603 244.69904 249.20804 253.69005 257.44303 261.93403">Ute submits purchase </tspan></text>
</g>
</g>
<g id="Layer-1" data-name="P">
<clipPath id="cp446">
<path transform="matrix(1,0,0,-1,0,841.5)" d="M .000008862 0 L 594.75 0 L 594.75 841.5 L .000008862 841.5 Z " fill-rule="evenodd"/>
</clipPath>
<g clip-path="url(#cp446)">
<text xml:space="preserve" transform="matrix(1 0 -0 1 0 841.5)" font-size="9" font-family="ArialNarrow" font-weight="bold"><tspan y="-597.9" x="192.95 197.459 200.438 204.947 208.69101">order</tspan></text>
</g>
</g>
<g id="Layer-1" data-name="Span">
<clipPath id="cp447">
<path transform="matrix(1,0,0,-1,0,841.5)" d="M .000008862 0 L 594.75 0 L 594.75 841.5 L .000008862 841.5 Z " fill-rule="evenodd"/>
</clipPath>
<g clip-path="url(#cp447)">
<text xml:space="preserve" transform="matrix(1 0 -0 1 0 841.5)" font-size="9" font-family="ArialNarrow" font-weight="bold"><tspan y="-597.9" x="211.83"> </tspan></text>
</g>
</g>
<g id="Layer-1" data-name="P">
<clipPath id="cp448">
<path transform="matrix(1,0,0,-1,0,841.5)" d="M .000008862 0 L 594.75 0 L 594.75 841.5 L .000008862 841.5 Z " fill-rule="evenodd"/>
</clipPath>
<g clip-path="url(#cp448)">
<text xml:space="preserve" transform="matrix(1 0 -0 1 0 841.5)" font-size="9" font-family="ArialNarrow" font-weight="bold"><tspan y="-597.9" x="213.9 216.888 221.397 225.141 227.382 229.623 234.132 237.876 240.117 242.358 246.867">{p1, p2, p2</tspan></text>
</g>
</g>
<g id="Layer-1" data-name="P">
<clipPath id="cp449">
<path transform="matrix(1,0,0,-1,0,841.5)" d="M .000008862 0 L 594.75 0 L 594.75 841.5 L .000008862 841.5 Z " fill-rule="evenodd"/>
</clipPath>
<g clip-path="url(#cp449)">
<text xml:space="preserve" transform="matrix(1 0 -0 1 0 841.5)" font-size="9" font-family="ArialNarrow" font-weight="bold"><tspan y="-597.9" x="250.85">}</tspan></text>
</g>
</g>
<path transform="matrix(1,0,0,-1,0,841.5)" d="M 176.05 483.44 L 261.824 483.44 L 261.824 502.716 L 176.05 502.716 Z " fill="#ffffff" fill-rule="evenodd"/>
<path transform="matrix(1,0,0,-1,0,841.5)" stroke-width="2" stroke-linecap="round" stroke-linejoin="round" fill="none" stroke="#000000" d="M 176.05 483.44 L 261.824 483.44 L 261.824 502.716 L 176.05 502.716 Z "/>
<g id="Layer-1" data-name="P">
<clipPath id="cp450">
<path transform="matrix(1,0,0,-1,0,841.5)" d="M .000008862 0 L 594.75 0 L 594.75 841.5 L .000008862 841.5 Z " fill-rule="evenodd"/>
</clipPath>
<g clip-path="url(#cp450)">
<text xml:space="preserve" transform="matrix(1 0 -0 1 0 841.5)" font-size="9.025" font-family="ArialNarrow" font-weight="bold"><tspan y="-490.08" x="180.6 185.85256 188.09978 192.59423 194.83242 197.07965 201.5741 205.3285 209.82295 212.06114 215.81555 220.31 224.0644 226.3026 232.30422 236.79866 240.55307 245.04752 248.80193 253.32346">Ute receives message</tspan></text>
</g>
</g>
<path transform="matrix(1,0,0,-1,0,841.5)" d="M 176.64 340.41 L 262.414 340.41 L 262.414 395.686 L 176.64 395.686 Z " fill="#ffffff" fill-rule="evenodd"/>
<path transform="matrix(1,0,0,-1,0,841.5)" stroke-width="2" stroke-linecap="round" stroke-linejoin="round" fill="none" stroke="#000000" d="M 176.64 340.41 L 262.414 340.41 L 262.414 395.686 L 176.64 395.686 Z "/>
<g id="Layer-1" data-name="P">
<clipPath id="cp451">
<path transform="matrix(1,0,0,-1,0,841.5)" d="M .000008862 0 L 594.75 0 L 594.75 841.5 L .000008862 841.5 Z " fill-rule="evenodd"/>
</clipPath>
<g clip-path="url(#cp451)">
<text xml:space="preserve" transform="matrix(1 0 -0 1 0 841.5)" font-size="9" font-family="ArialNarrow" font-weight="bold"><tspan y="-370.32" x="199.08 204.32701 206.57701 211.06801 213.309 217.06201 221.55301 225.30602 229.05902 233.56803 236.54703 240.30004">Ute accepts </tspan></text>
</g>
</g>
<g id="Layer-1" data-name="P">
<clipPath id="cp452">
<path transform="matrix(1,0,0,-1,0,841.5)" d="M .000008862 0 L 594.75 0 L 594.75 841.5 L .000008862 841.5 Z " fill-rule="evenodd"/>
</clipPath>
<g clip-path="url(#cp452)">
<text xml:space="preserve" transform="matrix(1 0 -0 1 0 841.5)" font-size="9" font-family="ArialNarrow" font-weight="bold"><tspan y="-359.53" x="191.88 196.389 200.13301 204.62401 207.61202 211.36502 213.60602 215.84702 217.35002 221.85903 226.34104 228.58203 230.08504 234.57604 236.81703 240.57004 243.55805">overall deliviery</tspan></text>
</g>
</g>
<g id="Layer-1" data-name="P">
<clipPath id="cp453">
<path transform="matrix(1,0,0,-1,0,841.5)" d="M .000008862 0 L 594.75 0 L 594.75 841.5 L .000008862 841.5 Z " fill-rule="evenodd"/>
</clipPath>
<g clip-path="url(#cp453)">
<text xml:space="preserve" transform="matrix(1 0 -0 1 0 841.5)" font-size="12" font-family="ArialNarrow" font-style="italic"><tspan y="-581.5" x="175.45">a</tspan></text>
</g>
</g>
<g id="Layer-1" data-name="P">
<clipPath id="cp454">
<path transform="matrix(1,0,0,-1,0,841.5)" d="M .000008862 0 L 594.75 0 L 594.75 841.5 L .000008862 841.5 Z " fill-rule="evenodd"/>
</clipPath>
<g clip-path="url(#cp454)">
<text xml:space="preserve" transform="matrix(1 0 -0 1 0 841.5)" font-size="12" font-family="ArialNarrow" font-style="italic"><tspan y="-471.15" x="173.8">b</tspan></text>
</g>
</g>
<g id="Layer-1" data-name="P">
<clipPath id="cp455">
<path transform="matrix(1,0,0,-1,0,841.5)" d="M .000008862 0 L 594.75 0 L 594.75 841.5 L .000008862 841.5 Z " fill-rule="evenodd"/>
</clipPath>
<g clip-path="url(#cp455)">
<text xml:space="preserve" transform="matrix(1 0 -0 1 0 841.5)" font-size="12" font-family="ArialNarrow" font-style="italic"><tspan y="-359.5" x="401.13">c</tspan></text>
</g>
</g>
<g id="Layer-1" data-name="P">
<clipPath id="cp456">
<path transform="matrix(1,0,0,-1,0,841.5)" d="M .000008862 0 L 594.75 0 L 594.75 841.5 L .000008862 841.5 Z " fill-rule="evenodd"/>
</clipPath>
<g clip-path="url(#cp456)">
<text xml:space="preserve" transform="matrix(1 0 -0 1 0 841.5)" font-size="12.025" font-family="ArialNarrow" font-style="italic"><tspan y="-294.83" x="398.88">d</tspan></text>
</g>
</g>
<g id="Layer-1" data-name="P">
<clipPath id="cp457">
<path transform="matrix(1,0,0,-1,0,841.5)" d="M .000008862 0 L 594.75 0 L 594.75 841.5 L .000008862 841.5 Z " fill-rule="evenodd"/>
</clipPath>
<g clip-path="url(#cp457)">
<text xml:space="preserve" transform="matrix(1 0 -0 1 0 841.5)" font-size="12.025" font-family="ArialNarrow" font-style="italic"><tspan y="-327.17" x="172.8">e</tspan></text>
</g>
</g>
<g id="Layer-1" data-name="P">
<clipPath id="cp458">
<path transform="matrix(1,0,0,-1,0,841.5)" d="M .000008862 0 L 594.75 0 L 594.75 841.5 L .000008862 841.5 Z " fill-rule="evenodd"/>
</clipPath>
<g clip-path="url(#cp458)">
<text xml:space="preserve" transform="matrix(1 0 -0 1 0 841.5)" font-size="12" font-family="ArialNarrow" font-style="italic"><tspan y="-582.5" x="123.57">A</tspan></text>
</g>
</g>
<g id="Layer-1" data-name="P">
<clipPath id="cp459">
<path transform="matrix(1,0,0,-1,0,841.5)" d="M .000008862 0 L 594.75 0 L 594.75 841.5 L .000008862 841.5 Z " fill-rule="evenodd"/>
</clipPath>
<g clip-path="url(#cp459)">
<text xml:space="preserve" transform="matrix(1 0 -0 1 0 841.5)" font-size="12" font-family="ArialNarrow" font-style="italic"><tspan y="-582.5" x="478.38">B</tspan></text>
</g>
</g>
<g id="Layer-1" data-name="P">
<clipPath id="cp460">
<path transform="matrix(1,0,0,-1,0,841.5)" d="M .000008862 0 L 594.75 0 L 594.75 841.5 L .000008862 841.5 Z " fill-rule="evenodd"/>
</clipPath>
<g clip-path="url(#cp460)">
<text xml:space="preserve" transform="matrix(1 0 -0 1 0 841.5)" font-size="12" font-family="ArialNarrow" font-style="italic"><tspan y="-523.3" x="178.1">C</tspan></text>
</g>
</g>
<g id="Layer-1" data-name="P">
<clipPath id="cp461">
<path transform="matrix(1,0,0,-1,0,841.5)" d="M .000008862 0 L 594.75 0 L 594.75 841.5 L .000008862 841.5 Z " fill-rule="evenodd"/>
</clipPath>
<g clip-path="url(#cp461)">
<text xml:space="preserve" transform="matrix(1 0 -0 1 0 841.5)" font-size="12.025" font-family="ArialNarrow" font-style="italic"><tspan y="-476.13" x="469.02">D</tspan></text>
</g>
</g>
<g id="Layer-1" data-name="P">
<clipPath id="cp462">
<path transform="matrix(1,0,0,-1,0,841.5)" d="M .000008862 0 L 594.75 0 L 594.75 841.5 L .000008862 841.5 Z " fill-rule="evenodd"/>
</clipPath>
<g clip-path="url(#cp462)">
<text xml:space="preserve" transform="matrix(1 0 -0 1 0 841.5)" font-size="12" font-family="ArialNarrow" font-style="italic"><tspan y="-416.25" x="178.38">E</tspan></text>
</g>
</g>
<g id="Layer-1" data-name="P">
<clipPath id="cp463">
<path transform="matrix(1,0,0,-1,0,841.5)" d="M .000008862 0 L 594.75 0 L 594.75 841.5 L .000008862 841.5 Z " fill-rule="evenodd"/>
</clipPath>
<g clip-path="url(#cp463)">
<text xml:space="preserve" transform="matrix(1 0 -0 1 0 841.5)" font-size="12" font-family="ArialNarrow" font-style="italic"><tspan y="-415.15" x="291.63">H</tspan></text>
</g>
</g>
<g id="Layer-1" data-name="P">
<clipPath id="cp464">
<path transform="matrix(1,0,0,-1,0,841.5)" d="M .000008862 0 L 594.75 0 L 594.75 841.5 L .000008862 841.5 Z " fill-rule="evenodd"/>
</clipPath>
<g clip-path="url(#cp464)">
<text xml:space="preserve" transform="matrix(1 0 -0 1 0 841.5)" font-size="12.025" font-family="ArialNarrow" font-style="italic"><tspan y="-369.73" x="301.9">I</tspan></text>
</g>
</g>
<g id="Layer-1" data-name="P">
<clipPath id="cp465">
<path transform="matrix(1,0,0,-1,0,841.5)" d="M .000008862 0 L 594.75 0 L 594.75 841.5 L .000008862 841.5 Z " fill-rule="evenodd"/>
</clipPath>
<g clip-path="url(#cp465)">
<text xml:space="preserve" transform="matrix(1 0 -0 1 0 841.5)" font-size="12" font-family="ArialNarrow" font-style="italic"><tspan y="-340.17" x="365.65">J</tspan></text>
</g>
</g>
<g id="Layer-1" data-name="P">
<clipPath id="cp466">
<path transform="matrix(1,0,0,-1,0,841.5)" d="M .000008862 0 L 594.75 0 L 594.75 841.5 L .000008862 841.5 Z " fill-rule="evenodd"/>
</clipPath>
<g clip-path="url(#cp466)">
<text xml:space="preserve" transform="matrix(1 0 -0 1 0 841.5)" font-size="12" font-family="ArialNarrow" font-style="italic"><tspan y="-303.72" x="362.85">K</tspan></text>
</g>
</g>
<g id="Layer-1" data-name="P">
<clipPath id="cp467">
<path transform="matrix(1,0,0,-1,0,841.5)" d="M .000008862 0 L 594.75 0 L 594.75 841.5 L .000008862 841.5 Z " fill-rule="evenodd"/>
</clipPath>
<g clip-path="url(#cp467)">
<text xml:space="preserve" transform="matrix(1 0 -0 1 0 841.5)" font-size="12" font-family="ArialNarrow" font-style="italic"><tspan y="-362.63" x="483.75">F</tspan></text>
</g>
</g>
<g id="Layer-1" data-name="P">
<clipPath id="cp468">
<path transform="matrix(1,0,0,-1,0,841.5)" d="M .000008862 0 L 594.75 0 L 594.75 841.5 L .000008862 841.5 Z " fill-rule="evenodd"/>
</clipPath>
<g clip-path="url(#cp468)">
<text xml:space="preserve" transform="matrix(1 0 -0 1 0 841.5)" font-size="12" font-family="ArialNarrow" font-style="italic"><tspan y="-305.88" x="483.22">G</tspan></text>
</g>
</g>
<g id="Layer-1" data-name="P">
<clipPath id="cp469">
<path transform="matrix(1,0,0,-1,0,841.5)" d="M .000008862 0 L 594.75 0 L 594.75 841.5 L .000008862 841.5 Z " fill-rule="evenodd"/>
</clipPath>
<g clip-path="url(#cp469)">
<text xml:space="preserve" transform="matrix(1 0 -0 1 0 841.5)" font-size="12" font-family="ArialNarrow" font-style="italic"><tspan y="-332.6" x="102.12">L</tspan></text>
</g>
</g>
<g id="Layer-1" data-name="P">
<clipPath id="cp470">
<path transform="matrix(1,0,0,-1,0,841.5)" d="M .000008862 0 L 594.75 0 L 594.75 841.5 L .000008862 841.5 Z " fill-rule="evenodd"/>
</clipPath>
<g clip-path="url(#cp470)">
<text xml:space="preserve" transform="matrix(1 0 -0 1 0 841.5)" font-size="12" font-family="ArialNarrow" font-style="italic"><tspan y="-580.8" x="320.9 323.14399 326.132 331.376 339.60804 344.10804 347.09605">items: </tspan></text>
</g>
</g>
<g id="Layer-1" data-name="P">
<clipPath id="cp471">
<path transform="matrix(1,0,0,-1,0,841.5)" d="M .000008862 0 L 594.75 0 L 594.75 841.5 L .000008862 841.5 Z " fill-rule="evenodd"/>
</clipPath>
<g clip-path="url(#cp471)">
<text xml:space="preserve" transform="matrix(1 0 -0 1 0 841.5)" font-size="12.025" font-family="ArialNarrow" font-weight="bold"><tspan y="-566.4" x="320.9 326.90003">p1</tspan></text>
</g>
</g>
<g id="Layer-1" data-name="P">
<clipPath id="cp472">
<path transform="matrix(1,0,0,-1,0,841.5)" d="M .000008862 0 L 594.75 0 L 594.75 841.5 L .000008862 841.5 Z " fill-rule="evenodd"/>
</clipPath>
<g clip-path="url(#cp472)">
<text xml:space="preserve" transform="matrix(1 0 -0 1 0 841.5)" font-size="12.025" font-family="ArialNarrow"><tspan y="-566.4" x="332.4"> </tspan></text>
</g>
</g>
<g id="Layer-1" data-name="P">
<clipPath id="cp473">
<path transform="matrix(1,0,0,-1,0,841.5)" d="M .000008862 0 L 594.75 0 L 594.75 841.5 L .000008862 841.5 Z " fill-rule="evenodd"/>
</clipPath>
<g clip-path="url(#cp473)">
<text xml:space="preserve" transform="matrix(1 0 -0 1 0 841.5)" font-size="12.025" font-family="ArialNarrow"><tspan y="-566.4" x="335.13 341.14253 343.41526 347.17909 350.20939 355.47633 360.75529 366.03425 372.04676 376.56816 380.33198 383.35026 385.623 391.6355 394.6658 397.68409">= ("shoes", 2), </tspan></text>
</g>
</g>
<g id="Layer-1" data-name="P">
<clipPath id="cp474">
<path transform="matrix(1,0,0,-1,0,841.5)" d="M .000008862 0 L 594.75 0 L 594.75 841.5 L .000008862 841.5 Z " fill-rule="evenodd"/>
</clipPath>
<g clip-path="url(#cp474)">
<text xml:space="preserve" transform="matrix(1 0 -0 1 0 841.5)" font-size="12" font-family="ArialNarrow" font-weight="bold"><tspan y="-551.97" x="320.9 326.9">p2</tspan></text>
</g>
</g>
<g id="Layer-1" data-name="P">
<clipPath id="cp475">
<path transform="matrix(1,0,0,-1,0,841.5)" d="M .000008862 0 L 594.75 0 L 594.75 841.5 L .000008862 841.5 Z " fill-rule="evenodd"/>
</clipPath>
<g clip-path="url(#cp475)">
<text xml:space="preserve" transform="matrix(1 0 -0 1 0 841.5)" font-size="12" font-family="ArialNarrow"><tspan y="-551.97" x="332.4"> </tspan></text>
</g>
</g>
<g id="Layer-1" data-name="P">
<clipPath id="cp476">
<path transform="matrix(1,0,0,-1,0,841.5)" d="M .000008862 0 L 594.75 0 L 594.75 841.5 L .000008862 841.5 Z " fill-rule="evenodd"/>
</clipPath>
<g clip-path="url(#cp476)">
<text xml:space="preserve" transform="matrix(1 0 -0 1 0 841.5)" font-size="12" font-family="ArialNarrow"><tspan y="-551.97" x="335.13 341.142 343.422 347.19 350.21403 356.22605 361.50608 364.51808 367.54209 370.55409 373.56608 378.8461">= ("hat", 1)</tspan></text>
</g>
</g>
<g id="Layer-1" data-name="P">
<clipPath id="cp477">
<path transform="matrix(1,0,0,-1,0,841.5)" d="M .000008862 0 L 594.75 0 L 594.75 841.5 L .000008862 841.5 Z " fill-rule="evenodd"/>
</clipPath>
<g clip-path="url(#cp477)">
<text xml:space="preserve" transform="matrix(1 0 -0 1 0 841.5)" font-size="12.025" font-family="ArialMT"><tspan y="-537.58" x="320.9">&#x200b;</tspan></text>
</g>
</g>
<g id="Layer-1" data-name="P">
<clipPath id="cp478">
<path transform="matrix(1,0,0,-1,0,841.5)" d="M .000008862 0 L 594.75 0 L 594.75 841.5 L .000008862 841.5 Z " fill-rule="evenodd"/>
</clipPath>
<g clip-path="url(#cp478)">
<text xml:space="preserve" transform="matrix(1 0 -0 1 0 841.5)" font-size="12" font-family="ArialNarrow" font-style="italic"><tspan y="-523.15" x="320.9 326.144 329.888 332.132 334.37599 339.62 341.86399 347.108 350.096 352.34 353.84 359.084 362.07203">article list:</tspan></text>
</g>
</g>
<g id="Layer-1" data-name="P">
<clipPath id="cp479">
<path transform="matrix(1,0,0,-1,0,841.5)" d="M .000008862 0 L 594.75 0 L 594.75 841.5 L .000008862 841.5 Z " fill-rule="evenodd"/>
</clipPath>
<g clip-path="url(#cp479)">
<text xml:space="preserve" transform="matrix(1 0 -0 1 0 841.5)" font-size="12.025" font-family="ArialNarrow" font-weight="bold"><tspan y="-508.75" x="320.9 324.6518 330.67634 335.9072 338.8894 341.8716 347.89616 353.127 356.10923 358.3579 364.38246 370.34684">{p1, p2, p2}</tspan></text>
</g>
</g>
<g id="Layer-1" data-name="P">
<clipPath id="cp480">
<path transform="matrix(1,0,0,-1,0,841.5)" d="M .000008862 0 L 594.75 0 L 594.75 841.5 L .000008862 841.5 Z " fill-rule="evenodd"/>
</clipPath>
<g clip-path="url(#cp480)">
<text xml:space="preserve" transform="matrix(1 0 -0 1 0 841.5)" font-size="12" font-family="ArialMT"><tspan y="-494.32" x="320.9">&#x200b;</tspan></text>
</g>
</g>
<path transform="matrix(1,0,0,-1,0,841.5)" d="M 259.91 546.23 C 259.91 555.38 241.82 562.81 219.51 562.81 C 197.21 562.81 179.12 555.38 179.12 546.23 C 179.12 537.07 197.21 529.64 219.51 529.64 C 241.82 529.64 259.91 537.07 259.91 546.23 Z " fill="#ffffff" fill-rule="evenodd"/>
<path transform="matrix(1,0,0,-1,0,841.5)" stroke-width="1.5" stroke-linecap="round" stroke-linejoin="round" fill="none" stroke="#000000" d="M 259.91 546.23 C 259.91 555.38 241.82 562.81 219.51 562.81 C 197.21 562.81 179.12 555.38 179.12 546.23 C 179.12 537.07 197.21 529.64 219.51 529.64 C 241.82 529.64 259.91 537.07 259.91 546.23 Z "/>
<g id="Layer-1" data-name="P">
<clipPath id="cp481">
<path transform="matrix(1,0,0,-1,0,841.5)" d="M .000008862 0 L 594.75 0 L 594.75 841.5 L .000008862 841.5 Z " fill-rule="evenodd"/>
</clipPath>
<g clip-path="url(#cp481)">
<text xml:space="preserve" transform="matrix(1 0 -0 1 0 841.5)" font-size="9" font-family="ArialNarrow" font-style="italic"><tspan y="-550.42" x="198.22 201.973 204.214 206.455 210.20801 213.19602 216.94902 221.44002 223.69002 225.93102 229.67502 233.42803 237.91902">p. order copy</tspan></text>
</g>
</g>
<g id="Layer-1" data-name="P">
<clipPath id="cp482">
<path transform="matrix(1,0,0,-1,0,841.5)" d="M .000008862 0 L 594.75 0 L 594.75 841.5 L .000008862 841.5 Z " fill-rule="evenodd"/>
</clipPath>
<g clip-path="url(#cp482)">
<text xml:space="preserve" transform="matrix(1 0 -0 1 0 841.5)" font-size="9" font-family="ArialNarrow" font-weight="bold"><tspan y="-550.42" x="241.35"> </tspan></text>
</g>
</g>
<g id="Layer-1" data-name="P">
<clipPath id="cp483">
<path transform="matrix(1,0,0,-1,0,841.5)" d="M .000008862 0 L 594.75 0 L 594.75 841.5 L .000008862 841.5 Z " fill-rule="evenodd"/>
</clipPath>
<g clip-path="url(#cp483)">
<text xml:space="preserve" transform="matrix(1 0 -0 1 0 841.5)" font-size="9.025" font-family="ArialNarrow" font-weight="bold"><tspan y="-539.63" x="189.4 191.64722 196.91782 199.90509 203.67754">(Ute,</tspan></text>
</g>
</g>
<g id="Layer-1" data-name="Span">
<clipPath id="cp484">
<path transform="matrix(1,0,0,-1,0,841.5)" d="M .000008862 0 L 594.75 0 L 594.75 841.5 L .000008862 841.5 Z " fill-rule="evenodd"/>
</clipPath>
<g clip-path="url(#cp484)">
<text xml:space="preserve" transform="matrix(1 0 -0 1 0 841.5)" font-size="9.025" font-family="ArialNarrow" font-weight="bold"><tspan y="-539.63" x="205.83"> </tspan></text>
</g>
</g>
<g id="Layer-1" data-name="P">
<clipPath id="cp485">
<path transform="matrix(1,0,0,-1,0,841.5)" d="M .000008862 0 L 594.75 0 L 594.75 841.5 L .000008862 841.5 Z " fill-rule="evenodd"/>
</clipPath>
<g clip-path="url(#cp485)">
<text xml:space="preserve" transform="matrix(1 0 -0 1 0 841.5)" font-size="9.025" font-family="ArialNarrow" font-weight="bold"><tspan y="-539.63" x="207.88 210.86728 215.38881 219.11614 221.35433 223.59252 228.11405 231.84137 234.07956 236.31775 240.83928">{p1, p2, p2</tspan></text>
</g>
</g>
<g id="Layer-1" data-name="P">
<clipPath id="cp486">
<path transform="matrix(1,0,0,-1,0,841.5)" d="M .000008862 0 L 594.75 0 L 594.75 841.5 L .000008862 841.5 Z " fill-rule="evenodd"/>
</clipPath>
<g clip-path="url(#cp486)">
<text xml:space="preserve" transform="matrix(1 0 -0 1 0 841.5)" font-size="9.025" font-family="ArialNarrow" font-weight="bold"><tspan y="-539.63" x="244.85 247.84998">})</tspan></text>
</g>
</g>
</g>
</g>
</svg>
