<?xml version="1.0" encoding="UTF-8" standalone="no"?>
<!DOCTYPE svg PUBLIC "-//W3C//DTD SVG 1.1//EN" "http://www.w3.org/Graphics/SVG/1.1/DTD/svg11.dtd">
<svg xmlns="http://www.w3.org/2000/svg" xmlns:xlink="http://www.w3.org/1999/xlink" version="1.1" width="594.75pt" height="841.5pt" viewBox="0 0 594.75 841.5">
<g enable-background="new">
<g>
<clipPath id="cp194">
<path transform="matrix(1,0,0,-1,0,841.5)" d="M -.000015259 841.5 L 594.75 841.5 L 594.75 .00018311 L .000015259 .00018311 " fill-rule="evenodd"/>
</clipPath>
<g clip-path="url(#cp194)">
<path transform="matrix(1,0,0,-1,0,841.5)" stroke-width="1.5" stroke-linecap="round" stroke-linejoin="round" fill="none" stroke="#000000" d="M 188.38 649.68 L 188.31 634.55 "/>
</g>
<clipPath id="cp195">
<path transform="matrix(1,0,0,-1,0,841.5)" d="M -.000015259 841.5 L 594.75 841.5 L 594.75 .00018311 L .000015259 .00018311 " fill-rule="evenodd"/>
</clipPath>
<g clip-path="url(#cp195)">
<path transform="matrix(1,0,0,-1,0,841.5)" d="M 193.06 635.71 L 188.25 621.51 L 183.58 635.76 L 193.06 635.71 Z " fill-rule="evenodd"/>
</g>
<path transform="matrix(1,0,0,-1,0,841.5)" stroke-width="1.5" stroke-linecap="round" stroke-linejoin="round" fill="none" stroke="#000000" d="M 211.21 662.86 L 261.49 662.86 "/>
<path transform="matrix(1,0,0,-1,0,841.5)" d="M 260.31 667.6 L 274.53 662.86 L 260.31 658.12 L 260.31 667.6 Z " fill-rule="evenodd"/>
<path transform="matrix(1,0,0,-1,0,841.5)" stroke-width="1.5" stroke-linecap="round" stroke-linejoin="round" fill="none" stroke="#000000" d="M 53.6 663.02 L 125.26 663.02 "/>
<path transform="matrix(1,0,0,-1,0,841.5)" d="M 124.07 667.76 L 138.29 663.02 L 124.07 658.28 L 124.07 667.76 Z " fill-rule="evenodd"/>
<path transform="matrix(1,0,0,-1,0,841.5)" d="M 93.994 663.23 C 93.994 672.39 75.909 679.82 53.6 679.82 C 31.292 679.82 13.207 672.39 13.207 663.23 C 13.207 654.07 31.292 646.65 53.6 646.65 C 75.909 646.65 93.994 654.07 93.994 663.23 Z " fill="#ffffff" fill-rule="evenodd"/>
<path transform="matrix(1,0,0,-1,0,841.5)" stroke-width="1.5" stroke-linecap="round" stroke-linejoin="round" fill="none" stroke="#000000" d="M 93.994 663.23 C 93.994 672.39 75.909 679.82 53.6 679.82 C 31.292 679.82 13.207 672.39 13.207 663.23 C 13.207 654.07 31.292 646.65 53.6 646.65 C 75.909 646.65 93.994 654.07 93.994 663.23 Z "/>
<g id="Layer-1" data-name="P">
<clipPath id="cp196">
<path transform="matrix(1,0,0,-1,0,841.5)" d="M .000008862 0 L 594.75 0 L 594.75 841.5 L .000008862 841.5 Z " fill-rule="evenodd"/>
</clipPath>
<g clip-path="url(#cp196)">
<text xml:space="preserve" transform="matrix(1 0 -0 1 0 841.5)" font-size="9" font-family="ArialNarrow" font-style="italic"><tspan y="-664" x="22.05 25.803 28.791 32.544 37.035 39.285 40.788003 45.279005 49.032 51.273 55.017 58.769998 62.513998 64.755 68.507999 75.249 79.002 81.252">ordering customers</tspan></text>
</g>
</g>
<g id="Layer-1" data-name="P">
<clipPath id="cp197">
<path transform="matrix(1,0,0,-1,0,841.5)" d="M .000008862 0 L 594.75 0 L 594.75 841.5 L .000008862 841.5 Z " fill-rule="evenodd"/>
</clipPath>
<g clip-path="url(#cp197)">
<text xml:space="preserve" transform="matrix(1 0 -0 1 0 841.5)" font-size="9" font-family="ArialNarrow" font-weight="bold"><tspan y="-664" x="85.3"> </tspan></text>
</g>
</g>
<g id="Layer-1" data-name="P">
<clipPath id="cp198">
<path transform="matrix(1,0,0,-1,0,841.5)" d="M .000008862 0 L 594.75 0 L 594.75 841.5 L .000008862 841.5 Z " fill-rule="evenodd"/>
</clipPath>
<g clip-path="url(#cp198)">
<text xml:space="preserve" transform="matrix(1 0 -0 1 0 841.5)" font-size="9" font-family="ArialNarrow" font-weight="bold"><tspan y="-653.17" x="47.725 52.971998 55.221998">Ute</tspan></text>
</g>
</g>
<path transform="matrix(1,0,0,-1,0,841.5)" d="M 355.3 663.34 C 355.3 672.5 337.21 679.93 314.9 679.93 C 292.59 679.93 274.51 672.5 274.51 663.34 C 274.51 654.18 292.59 646.76 314.9 646.76 C 337.21 646.76 355.3 654.18 355.3 663.34 Z " fill="#ffffff" fill-rule="evenodd"/>
<path transform="matrix(1,0,0,-1,0,841.5)" stroke-width="1.5" stroke-linecap="round" stroke-linejoin="round" fill="none" stroke="#000000" d="M 355.3 663.34 C 355.3 672.5 337.21 679.93 314.9 679.93 C 292.59 679.93 274.51 672.5 274.51 663.34 C 274.51 654.18 292.59 646.76 314.9 646.76 C 337.21 646.76 355.3 654.18 355.3 663.34 Z "/>
<g id="Layer-1" data-name="P">
<clipPath id="cp199">
<path transform="matrix(1,0,0,-1,0,841.5)" d="M .000008862 0 L 594.75 0 L 594.75 841.5 L .000008862 841.5 Z " fill-rule="evenodd"/>
</clipPath>
<g clip-path="url(#cp199)">
<text xml:space="preserve" transform="matrix(1 0 -0 1 0 841.5)" font-size="9" font-family="ArialNarrow" font-style="italic"><tspan y="-665.88" x="288.6 292.353 296.844 299.094 302.83799 307.32899 311.08198 314.82597 318.57896 320.81996 325.31095 327.56095 331.31394 335.80494 338.05494">purchase orders</tspan></text>
</g>
</g>
<g id="Layer-1" data-name="P">
<clipPath id="cp200">
<path transform="matrix(1,0,0,-1,0,841.5)" d="M .000008862 0 L 594.75 0 L 594.75 841.5 L .000008862 841.5 Z " fill-rule="evenodd"/>
</clipPath>
<g clip-path="url(#cp200)">
<text xml:space="preserve" transform="matrix(1 0 -0 1 0 841.5)" font-size="9.025" font-family="ArialNarrow" font-weight="bold"><tspan y="-655.08" x="284.92 287.16725 292.4198 295.40708 299.16148">(Ute,</tspan></text>
</g>
</g>
<g id="Layer-1" data-name="Span">
<clipPath id="cp201">
<path transform="matrix(1,0,0,-1,0,841.5)" d="M .000008862 0 L 594.75 0 L 594.75 841.5 L .000008862 841.5 Z " fill-rule="evenodd"/>
</clipPath>
<g clip-path="url(#cp201)">
<text xml:space="preserve" transform="matrix(1 0 -0 1 0 841.5)" font-size="9.025" font-family="ArialNarrow" font-weight="bold"><tspan y="-655.08" x="301.33"> </tspan></text>
</g>
</g>
<g id="Layer-1" data-name="P">
<clipPath id="cp202">
<path transform="matrix(1,0,0,-1,0,841.5)" d="M .000008862 0 L 594.75 0 L 594.75 841.5 L .000008862 841.5 Z " fill-rule="evenodd"/>
</clipPath>
<g clip-path="url(#cp202)">
<text xml:space="preserve" transform="matrix(1 0 -0 1 0 841.5)" font-size="9.025" font-family="ArialNarrow" font-weight="bold"><tspan y="-655.08" x="303.4 306.38728 310.90879 314.6361 316.87434 319.11256 323.63407 327.3614 329.5996 331.83784 336.35935">{p1, p2, p2</tspan></text>
</g>
</g>
<g id="Layer-1" data-name="P">
<clipPath id="cp203">
<path transform="matrix(1,0,0,-1,0,841.5)" d="M .000008862 0 L 594.75 0 L 594.75 841.5 L .000008862 841.5 Z " fill-rule="evenodd"/>
</clipPath>
<g clip-path="url(#cp203)">
<text xml:space="preserve" transform="matrix(1 0 -0 1 0 841.5)" font-size="9.025" font-family="ArialNarrow" font-weight="bold"><tspan y="-655.08" x="340.35 343.34999">})</tspan></text>
</g>
</g>
<path transform="matrix(1,0,0,-1,0,841.5)" d="M 228.69 603.59 C 228.69 612.75 210.61 620.18 188.3 620.18 C 165.99 620.18 147.91 612.75 147.91 603.59 C 147.91 594.44 165.99 587.01 188.3 587.01 C 210.61 587.01 228.69 594.44 228.69 603.59 Z " fill="#ffffff" fill-rule="evenodd"/>
<path transform="matrix(1,0,0,-1,0,841.5)" stroke-width="1.5" stroke-linecap="round" stroke-linejoin="round" fill="none" stroke="#000000" d="M 228.69 603.59 C 228.69 612.75 210.61 620.18 188.3 620.18 C 165.99 620.18 147.91 612.75 147.91 603.59 C 147.91 594.44 165.99 587.01 188.3 587.01 C 210.61 587.01 228.69 594.44 228.69 603.59 Z "/>
<g id="Layer-1" data-name="P">
<clipPath id="cp204">
<path transform="matrix(1,0,0,-1,0,841.5)" d="M .000008862 0 L 594.75 0 L 594.75 841.5 L .000008862 841.5 Z " fill-rule="evenodd"/>
</clipPath>
<g clip-path="url(#cp204)">
<text xml:space="preserve" transform="matrix(1 0 -0 1 0 841.5)" font-size="9" font-family="ArialNarrow" font-style="italic"><tspan y="-607.85" x="163.08"> </tspan></text>
</g>
</g>
<g id="Layer-1" data-name="P">
<clipPath id="cp205">
<path transform="matrix(1,0,0,-1,0,841.5)" d="M .000008862 0 L 594.75 0 L 594.75 841.5 L .000008862 841.5 Z " fill-rule="evenodd"/>
</clipPath>
<g clip-path="url(#cp205)">
<text xml:space="preserve" transform="matrix(1 0 -0 1 0 841.5)" font-size="9" font-family="ArialNarrow" font-style="italic"><tspan y="-607.85" x="165.13 168.88301 171.12401 173.365 177.11801 180.10602 183.85903 188.35002 190.60002 192.84102 196.58502 200.33803 204.82903 206.33203 210.08504">p. order copies</tspan></text>
</g>
</g>
<g id="Layer-1" data-name="P">
<clipPath id="cp206">
<path transform="matrix(1,0,0,-1,0,841.5)" d="M .000008862 0 L 594.75 0 L 594.75 841.5 L .000008862 841.5 Z " fill-rule="evenodd"/>
</clipPath>
<g clip-path="url(#cp206)">
<text xml:space="preserve" transform="matrix(1 0 -0 1 0 841.5)" font-size="9" font-family="ArialNarrow" font-weight="bold"><tspan y="-607.85" x="214"> </tspan></text>
</g>
</g>
<g id="Layer-1" data-name="P">
<clipPath id="cp207">
<path transform="matrix(1,0,0,-1,0,841.5)" d="M .000008862 0 L 594.75 0 L 594.75 841.5 L .000008862 841.5 Z " fill-rule="evenodd"/>
</clipPath>
<g clip-path="url(#cp207)">
<text xml:space="preserve" transform="matrix(1 0 -0 1 0 841.5)" font-size="9" font-family="ArialNarrow" font-weight="bold"><tspan y="-597.03" x="158.15 160.4 165.647 168.63501 172.38802">(Ute,</tspan></text>
</g>
</g>
<g id="Layer-1" data-name="Span">
<clipPath id="cp208">
<path transform="matrix(1,0,0,-1,0,841.5)" d="M .000008862 0 L 594.75 0 L 594.75 841.5 L .000008862 841.5 Z " fill-rule="evenodd"/>
</clipPath>
<g clip-path="url(#cp208)">
<text xml:space="preserve" transform="matrix(1 0 -0 1 0 841.5)" font-size="9" font-family="ArialNarrow" font-weight="bold"><tspan y="-597.03" x="174.58"> </tspan></text>
</g>
</g>
<g id="Layer-1" data-name="P">
<clipPath id="cp209">
<path transform="matrix(1,0,0,-1,0,841.5)" d="M .000008862 0 L 594.75 0 L 594.75 841.5 L .000008862 841.5 Z " fill-rule="evenodd"/>
</clipPath>
<g clip-path="url(#cp209)">
<text xml:space="preserve" transform="matrix(1 0 -0 1 0 841.5)" font-size="9" font-family="ArialNarrow" font-weight="bold"><tspan y="-597.03" x="176.63 179.61801 184.12702 187.87102 190.11202 192.35301 196.86202 200.60602 202.84702 205.08802 209.59702">{p1, p2, p2</tspan></text>
</g>
</g>
<g id="Layer-1" data-name="P">
<clipPath id="cp210">
<path transform="matrix(1,0,0,-1,0,841.5)" d="M .000008862 0 L 594.75 0 L 594.75 841.5 L .000008862 841.5 Z " fill-rule="evenodd"/>
</clipPath>
<g clip-path="url(#cp210)">
<text xml:space="preserve" transform="matrix(1 0 -0 1 0 841.5)" font-size="9" font-family="ArialNarrow" font-weight="bold"><tspan y="-597.03" x="213.6 216.6">})</tspan></text>
</g>
</g>
<path transform="matrix(1,0,0,-1,0,841.5)" d="M 138.29 649.33 L 235.762 649.33 L 235.762 677.852 L 138.29 677.852 Z " fill="#ffffff" fill-rule="evenodd"/>
<path transform="matrix(1,0,0,-1,0,841.5)" stroke-width="2" stroke-linecap="round" stroke-linejoin="round" fill="none" stroke="#000000" d="M 138.29 649.33 L 235.762 649.33 L 235.762 677.852 L 138.29 677.852 Z "/>
<g id="Layer-1" data-name="P">
<clipPath id="cp211">
<path transform="matrix(1,0,0,-1,0,841.5)" d="M .000008862 0 L 594.75 0 L 594.75 841.5 L .000008862 841.5 Z " fill-rule="evenodd"/>
</clipPath>
<g clip-path="url(#cp211)">
<text xml:space="preserve" transform="matrix(1 0 -0 1 0 841.5)" font-size="9" font-family="ArialNarrow" font-weight="bold"><tspan y="-666.13" x="148.67 153.917 156.167 160.658 162.899 166.65201 171.16101 175.67002 182.39302 184.63402 186.88402 190.63703 192.87802 197.38703 201.89603 204.86603 208.61904 213.12804 217.61005 221.36305 225.85405">Ute submits purchase </tspan></text>
</g>
</g>
<g id="Layer-1" data-name="P">
<clipPath id="cp212">
<path transform="matrix(1,0,0,-1,0,841.5)" d="M .000008862 0 L 594.75 0 L 594.75 841.5 L .000008862 841.5 Z " fill-rule="evenodd"/>
</clipPath>
<g clip-path="url(#cp212)">
<text xml:space="preserve" transform="matrix(1 0 -0 1 0 841.5)" font-size="9" font-family="ArialNarrow" font-weight="bold"><tspan y="-655.33" x="155.85 160.35901 163.33802 167.84702 171.59102 174.57903">order </tspan></text>
</g>
</g>
<g id="Layer-1" data-name="Span">
<clipPath id="cp213">
<path transform="matrix(1,0,0,-1,0,841.5)" d="M .000008862 0 L 594.75 0 L 594.75 841.5 L .000008862 841.5 Z " fill-rule="evenodd"/>
</clipPath>
<g clip-path="url(#cp213)">
<text xml:space="preserve" transform="matrix(1 0 -0 1 0 841.5)" font-size="9" font-family="ArialNarrow" font-weight="bold"><tspan y="-655.33" x="176.8"> </tspan></text>
</g>
</g>
<g id="Layer-1" data-name="P">
<clipPath id="cp214">
<path transform="matrix(1,0,0,-1,0,841.5)" d="M .000008862 0 L 594.75 0 L 594.75 841.5 L .000008862 841.5 Z " fill-rule="evenodd"/>
</clipPath>
<g clip-path="url(#cp214)">
<text xml:space="preserve" transform="matrix(1 0 -0 1 0 841.5)" font-size="9" font-family="ArialNarrow" font-weight="bold"><tspan y="-655.33" x="178.85 181.83802 186.34702 190.09102 192.33202 194.57302 199.08202 202.82602 205.06702 207.30802 211.81702">{p1, p2, p2</tspan></text>
</g>
</g>
<g id="Layer-1" data-name="P">
<clipPath id="cp215">
<path transform="matrix(1,0,0,-1,0,841.5)" d="M .000008862 0 L 594.75 0 L 594.75 841.5 L .000008862 841.5 Z " fill-rule="evenodd"/>
</clipPath>
<g clip-path="url(#cp215)">
<text xml:space="preserve" transform="matrix(1 0 -0 1 0 841.5)" font-size="9" font-family="ArialNarrow" font-weight="bold"><tspan y="-655.33" x="215.8">}</tspan></text>
</g>
</g>
<g id="Layer-1" data-name="P">
<clipPath id="cp216">
<path transform="matrix(1,0,0,-1,0,841.5)" d="M .000008862 0 L 594.75 0 L 594.75 841.5 L .000008862 841.5 Z " fill-rule="evenodd"/>
</clipPath>
<g clip-path="url(#cp216)">
<text xml:space="preserve" transform="matrix(1 0 -0 1 0 841.5)" font-size="12" font-family="ArialNarrow" font-style="italic"><tspan y="-638.92" x="149.6">a</tspan></text>
</g>
</g>
<g id="Layer-1" data-name="P">
<clipPath id="cp217">
<path transform="matrix(1,0,0,-1,0,841.5)" d="M .000008862 0 L 594.75 0 L 594.75 841.5 L .000008862 841.5 Z " fill-rule="evenodd"/>
</clipPath>
<g clip-path="url(#cp217)">
<text xml:space="preserve" transform="matrix(1 0 -0 1 0 841.5)" font-size="12" font-family="ArialNarrow" font-style="italic"><tspan y="-639.92" x="97.725">A</tspan></text>
</g>
</g>
<g id="Layer-1" data-name="P">
<clipPath id="cp218">
<path transform="matrix(1,0,0,-1,0,841.5)" d="M .000008862 0 L 594.75 0 L 594.75 841.5 L .000008862 841.5 Z " fill-rule="evenodd"/>
</clipPath>
<g clip-path="url(#cp218)">
<text xml:space="preserve" transform="matrix(1 0 -0 1 0 841.5)" font-size="12" font-family="ArialNarrow" font-style="italic"><tspan y="-639.92" x="277.65">B</tspan></text>
</g>
</g>
<g id="Layer-1" data-name="P">
<clipPath id="cp219">
<path transform="matrix(1,0,0,-1,0,841.5)" d="M .000008862 0 L 594.75 0 L 594.75 841.5 L .000008862 841.5 Z " fill-rule="evenodd"/>
</clipPath>
<g clip-path="url(#cp219)">
<text xml:space="preserve" transform="matrix(1 0 -0 1 0 841.5)" font-size="12" font-family="ArialNarrow" font-style="italic"><tspan y="-579.2" x="150.1">C</tspan></text>
</g>
</g>
<g id="Layer-1" data-name="P">
<clipPath id="cp220">
<path transform="matrix(1,0,0,-1,0,841.5)" d="M .000008862 0 L 594.75 0 L 594.75 841.5 L .000008862 841.5 Z " fill-rule="evenodd"/>
</clipPath>
<g clip-path="url(#cp220)">
<text xml:space="preserve" transform="matrix(1 0 -0 1 0 841.5)" font-size="11.275" font-family="ArialNarrow"><tspan y="-665.85" x="372.97 375.225 380.46788 382.7116 384.9666 387.21037 391.70909 393.95283 396.19657 400.69529 402.9503 405.2053 408.19319 412.6919 417.93476 420.92265 425.42137 428.4205 433.66337 438.90623 440.40583 444.90455 450.1474 452.4024 457.64527">Initially, the predicate </tspan></text>
</g>
</g>
<g id="Layer-1" data-name="P">
<clipPath id="cp221">
<path transform="matrix(1,0,0,-1,0,841.5)" d="M .000008862 0 L 594.75 0 L 594.75 841.5 L .000008862 841.5 Z " fill-rule="evenodd"/>
</clipPath>
<g clip-path="url(#cp221)">
<text xml:space="preserve" transform="matrix(1 0 -0 1 0 841.5)" font-size="11.275" font-family="ArialNarrow" font-style="italic"><tspan y="-665.85" x="460.35 465.59288 468.592 473.09074 478.3336 481.33274 483.57649 488.0752 493.31806 495.57307 500.07179 505.31465 509.81336 512.8012 517.2999 524.7978 530.0407 533.03988">ordering customers</tspan></text>
</g>
</g>
<g id="Layer-1" data-name="P">
<clipPath id="cp222">
<path transform="matrix(1,0,0,-1,0,841.5)" d="M .000008862 0 L 594.75 0 L 594.75 841.5 L .000008862 841.5 Z " fill-rule="evenodd"/>
</clipPath>
<g clip-path="url(#cp222)">
<text xml:space="preserve" transform="matrix(1 0 -0 1 0 841.5)" font-size="11.275" font-family="ArialNarrow"><tspan y="-665.85" x="537.65"> </tspan></text>
</g>
</g>
<g id="Layer-1" data-name="P">
<clipPath id="cp223">
<path transform="matrix(1,0,0,-1,0,841.5)" d="M .000008862 0 L 594.75 0 L 594.75 841.5 L .000008862 841.5 Z " fill-rule="evenodd"/>
</clipPath>
<g clip-path="url(#cp223)">
<text xml:space="preserve" transform="matrix(1 0 -0 1 0 841.5)" font-size="11.275" font-family="ArialNarrow"><tspan y="-665.85" x="540.17 545.4129 549.9116 555.15457 557.39828 558.8978 564.14077 568.63949 570.8945 573.8823 578.38107">applies to </tspan></text>
</g>
</g>
<g id="Layer-1" data-name="P">
<clipPath id="cp224">
<path transform="matrix(1,0,0,-1,0,841.5)" d="M .000008862 0 L 594.75 0 L 594.75 841.5 L .000008862 841.5 Z " fill-rule="evenodd"/>
</clipPath>
<g clip-path="url(#cp224)">
<text xml:space="preserve" transform="matrix(1 0 -0 1 0 841.5)" font-size="11.25" font-family="ArialNarrow"><tspan y="-652.6" x="372.97 375.22 380.4625 385.705 387.955 392.455 397.69749 402.19749 404.44749 409.68998 417.19374 422.43623 425.43998">the customer </tspan></text>
</g>
</g>
<g id="Layer-1" data-name="P">
<clipPath id="cp225">
<path transform="matrix(1,0,0,-1,0,841.5)" d="M .000008862 0 L 594.75 0 L 594.75 841.5 L .000008862 841.5 Z " fill-rule="evenodd"/>
</clipPath>
<g clip-path="url(#cp225)">
<text xml:space="preserve" transform="matrix(1 0 -0 1 0 841.5)" font-size="11.25" font-family="ArialNarrow" font-weight="bold"><tspan y="-652.6" x="427.7 434.43876 437.4425">Ute</tspan></text>
</g>
</g>
<g id="Layer-1" data-name="P">
<clipPath id="cp226">
<path transform="matrix(1,0,0,-1,0,841.5)" d="M .000008862 0 L 594.75 0 L 594.75 841.5 L .000008862 841.5 Z " fill-rule="evenodd"/>
</clipPath>
<g clip-path="url(#cp226)">
<text xml:space="preserve" transform="matrix(1 0 -0 1 0 841.5)" font-size="11.25" font-family="ArialNarrow"><tspan y="-652.6" x="442.25 444.5 447.4925 451.9925 457.235 462.47749 464.72749 466.97749 472.21998 477.46247 479.71247 484.95497 487.9587 493.2012 497.7012 499.93995 504.43995 509.68244 511.93244 517.1749 521.6749">, and the predicates </tspan></text>
</g>
</g>
<g id="Layer-1" data-name="P">
<clipPath id="cp227">
<path transform="matrix(1,0,0,-1,0,841.5)" d="M .000008862 0 L 594.75 0 L 594.75 841.5 L .000008862 841.5 Z " fill-rule="evenodd"/>
</clipPath>
<g clip-path="url(#cp227)">
<text xml:space="preserve" transform="matrix(1 0 -0 1 0 841.5)" font-size="11.25" font-family="ArialNarrow" font-style="italic"><tspan y="-652.6" x="524.1 529.365 533.8875 536.89126 541.4137 546.6787 551.9437 556.4662 560.9887">purchase </tspan></text>
</g>
</g>
<g id="Layer-1" data-name="P">
<clipPath id="cp228">
<path transform="matrix(1,0,0,-1,0,841.5)" d="M .000008862 0 L 594.75 0 L 594.75 841.5 L .000008862 841.5 Z " fill-rule="evenodd"/>
</clipPath>
<g clip-path="url(#cp228)">
<text xml:space="preserve" transform="matrix(1 0 -0 1 0 841.5)" font-size="11.25" font-family="ArialNarrow" font-style="italic"><tspan y="-639.35" x="372.97 378.2125 381.21626 385.71626 390.95875 393.9625 398.4625">orders </tspan></text>
</g>
</g>
<g id="Layer-1" data-name="P">
<clipPath id="cp229">
<path transform="matrix(1,0,0,-1,0,841.5)" d="M .000008862 0 L 594.75 0 L 594.75 841.5 L .000008862 841.5 Z " fill-rule="evenodd"/>
</clipPath>
<g clip-path="url(#cp229)">
<text xml:space="preserve" transform="matrix(1 0 -0 1 0 841.5)" font-size="11.25" font-family="ArialNarrow"><tspan y="-639.35" x="401.1 406.3425 410.8425">and</tspan></text>
</g>
</g>
<g id="Layer-1" data-name="P">
<clipPath id="cp230">
<path transform="matrix(1,0,0,-1,0,841.5)" d="M .000008862 0 L 594.75 0 L 594.75 841.5 L .000008862 841.5 Z " fill-rule="evenodd"/>
</clipPath>
<g clip-path="url(#cp230)">
<text xml:space="preserve" transform="matrix(1 0 -0 1 0 841.5)" font-size="11.25" font-family="ArialNarrow" font-style="italic"><tspan y="-639.35" x="416.15"> </tspan></text>
</g>
</g>
<g id="Layer-1" data-name="P">
<clipPath id="cp231">
<path transform="matrix(1,0,0,-1,0,841.5)" d="M .000008862 0 L 594.75 0 L 594.75 841.5 L .000008862 841.5 Z " fill-rule="evenodd"/>
</clipPath>
<g clip-path="url(#cp231)">
<text xml:space="preserve" transform="matrix(1 0 -0 1 0 841.5)" font-size="11.25" font-family="ArialNarrow" font-style="italic"><tspan y="-639.35" x="418.67 423.9125 428.4125 431.41627 435.91627 441.15876 446.40126 450.90126 455.40126 458.39375 463.63624 466.63999 471.13999 476.38249 479.38624 481.63624 486.13624 491.37873 496.62123 498.11747 503.35997">purchase order copies</tspan></text>
</g>
</g>
<g id="Layer-1" data-name="P">
<clipPath id="cp232">
<path transform="matrix(1,0,0,-1,0,841.5)" d="M .000008862 0 L 594.75 0 L 594.75 841.5 L .000008862 841.5 Z " fill-rule="evenodd"/>
</clipPath>
<g clip-path="url(#cp232)">
<text xml:space="preserve" transform="matrix(1 0 -0 1 0 841.5)" font-size="11.25" font-family="ArialNarrow"><tspan y="-639.35" x="508.05"> </tspan></text>
</g>
</g>
<g id="Layer-1" data-name="P">
<clipPath id="cp233">
<path transform="matrix(1,0,0,-1,0,841.5)" d="M .000008862 0 L 594.75 0 L 594.75 841.5 L .000008862 841.5 Z " fill-rule="evenodd"/>
</clipPath>
<g clip-path="url(#cp233)">
<text xml:space="preserve" transform="matrix(1 0 -0 1 0 841.5)" font-size="11.25" font-family="ArialNarrow"><tspan y="-639.35" x="510.55 515.7925 520.2925 525.535 527.7737 532.2737 534.5237 536.7737 542.0162 544.2662 549.50869 554.75119">apply to no </tspan></text>
</g>
</g>
<g id="Layer-1" data-name="P">
<clipPath id="cp234">
<path transform="matrix(1,0,0,-1,0,841.5)" d="M .000008862 0 L 594.75 0 L 594.75 841.5 L .000008862 841.5 Z " fill-rule="evenodd"/>
</clipPath>
<g clip-path="url(#cp234)">
<text xml:space="preserve" transform="matrix(1 0 -0 1 0 841.5)" font-size="11.275" font-family="ArialNarrow"><tspan y="-626.13" x="372.97 378.21287 382.71159 385.71073 390.20945 395.4523 400.69517 405.19389 409.6926 412.68049 417.92335 420.9225 425.4212 430.66407 433.6632 438.16194 440.41694 443.40483 449.4031 451.6581 453.91313 459.15599 462.15513 464.41014 469.65299 474.1517 478.65043 483.89329 486.89244 489.89158 494.3903 499.63316 504.13188 509.37474 511.62974 516.8726 519.1276">purchase orders. After occurrence of </tspan></text>
</g>
</g>
<g id="Layer-1" data-name="P">
<clipPath id="cp235">
<path transform="matrix(1,0,0,-1,0,841.5)" d="M .000008862 0 L 594.75 0 L 594.75 841.5 L .000008862 841.5 Z " fill-rule="evenodd"/>
</clipPath>
<g clip-path="url(#cp235)">
<text xml:space="preserve" transform="matrix(1 0 -0 1 0 841.5)" font-size="11.275" font-family="ArialNarrow" font-style="italic"><tspan y="-626.13" x="522.1 528.8424 531.0974 536.34036 538.59536 543.09408 548.337 552.8357 560.33358 562.5773 564.8323 570.07516">Ute submits </tspan></text>
</g>
</g>
<g id="Layer-1" data-name="P">
<clipPath id="cp236">
<path transform="matrix(1,0,0,-1,0,841.5)" d="M .000008862 0 L 594.75 0 L 594.75 841.5 L .000008862 841.5 Z " fill-rule="evenodd"/>
</clipPath>
<g clip-path="url(#cp236)">
<text xml:space="preserve" transform="matrix(1 0 -0 1 0 841.5)" font-size="11.25" font-family="ArialNarrow" font-style="italic"><tspan y="-612.88" x="372.97 378.2125 382.7125 385.71626 390.21626 395.45875 400.70124 405.20124 409.70124 412.69374 417.93623 420.93998 425.43998 430.68247">purchase order</tspan></text>
</g>
</g>
<g id="Layer-1" data-name="P">
<clipPath id="cp237">
<path transform="matrix(1,0,0,-1,0,841.5)" d="M .000008862 0 L 594.75 0 L 594.75 841.5 L .000008862 841.5 Z " fill-rule="evenodd"/>
</clipPath>
<g clip-path="url(#cp237)">
<text xml:space="preserve" transform="matrix(1 0 -0 1 0 841.5)" font-size="11.25" font-family="ArialNarrow"><tspan y="-612.88" x="433.72"> </tspan></text>
</g>
</g>
<g id="Layer-1" data-name="P">
<clipPath id="cp238">
<path transform="matrix(1,0,0,-1,0,841.5)" d="M .000008862 0 L 594.75 0 L 594.75 841.5 L .000008862 841.5 Z " fill-rule="evenodd"/>
</clipPath>
<g clip-path="url(#cp238)">
<text xml:space="preserve" transform="matrix(1 0 -0 1 0 841.5)" font-size="11.25" font-family="ArialNarrow" font-weight="bold"><tspan y="-612.88" x="436.25"> </tspan></text>
</g>
</g>
<g id="Layer-1" data-name="P">
<clipPath id="cp239">
<path transform="matrix(1,0,0,-1,0,841.5)" d="M .000008862 0 L 594.75 0 L 594.75 841.5 L .000008862 841.5 Z " fill-rule="evenodd"/>
</clipPath>
<g clip-path="url(#cp239)">
<text xml:space="preserve" transform="matrix(1 0 -0 1 0 841.5)" font-size="11.25" font-family="ArialNarrow" font-weight="bold"><tspan y="-612.88" x="438.75 442.485 447.73875 452.98124 455.23124 457.48124 463.46626 467.96626 470.95875 473.20875 478.4625 483.705">{p1, p2, p2}</tspan></text>
</g>
</g>
<g id="Layer-1" data-name="P">
<clipPath id="cp240">
<path transform="matrix(1,0,0,-1,0,841.5)" d="M .000008862 0 L 594.75 0 L 594.75 841.5 L .000008862 841.5 Z " fill-rule="evenodd"/>
</clipPath>
<g clip-path="url(#cp240)">
<text xml:space="preserve" transform="matrix(1 0 -0 1 0 841.5)" font-size="11.25" font-family="ArialNarrow"><tspan y="-612.88" x="487.45 489.7">, </tspan></text>
</g>
</g>
<g id="Layer-1" data-name="P">
<clipPath id="cp241">
<path transform="matrix(1,0,0,-1,0,841.5)" d="M .000008862 0 L 594.75 0 L 594.75 841.5 L .000008862 841.5 Z " fill-rule="evenodd"/>
</clipPath>
<g clip-path="url(#cp241)">
<text xml:space="preserve" transform="matrix(1 0 -0 1 0 841.5)" font-size="11.25" font-family="ArialNarrow" font-weight="bold"><tspan y="-612.88" x="492.48 499.21876 502.2225">Ute</tspan></text>
</g>
</g>
<g id="Layer-1" data-name="P">
<clipPath id="cp242">
<path transform="matrix(1,0,0,-1,0,841.5)" d="M .000008862 0 L 594.75 0 L 594.75 841.5 L .000008862 841.5 Z " fill-rule="evenodd"/>
</clipPath>
<g clip-path="url(#cp242)">
<text xml:space="preserve" transform="matrix(1 0 -0 1 0 841.5)" font-size="11.25" font-family="ArialNarrow"><tspan y="-612.88" x="507"> </tspan></text>
</g>
</g>
<g id="Layer-1" data-name="P">
<clipPath id="cp243">
<path transform="matrix(1,0,0,-1,0,841.5)" d="M .000008862 0 L 594.75 0 L 594.75 841.5 L .000008862 841.5 Z " fill-rule="evenodd"/>
</clipPath>
<g clip-path="url(#cp243)">
<text xml:space="preserve" transform="matrix(1 0 -0 1 0 841.5)" font-size="11.25" font-family="ArialNarrow"><tspan y="-612.88" x="509.52 514.76248 519.26248 522.25497 523.75119 528.99368 534.23617 538.73617 543.97866 546.98239 549.23239 551.47109 555.97109 558.96359 563.46359">no longer is a </tspan></text>
</g>
</g>
<g id="Layer-1" data-name="P">
<clipPath id="cp244">
<path transform="matrix(1,0,0,-1,0,841.5)" d="M .000008862 0 L 594.75 0 L 594.75 841.5 L .000008862 841.5 Z " fill-rule="evenodd"/>
</clipPath>
<g clip-path="url(#cp244)">
<text xml:space="preserve" transform="matrix(1 0 -0 1 0 841.5)" font-size="11.25" font-family="ArialNarrow" font-style="italic"><tspan y="-599.63" x="372.97 377.47 382.7125 387.2125 394.71626 396.955 399.205 402.19749 403.69374 408.93623 414.1787 416.4287 420.9287 426.1712 430.6712 432.9212 438.1637 445.66746 450.90995">submitting customer</tspan></text>
</g>
</g>
<g id="Layer-1" data-name="P">
<clipPath id="cp245">
<path transform="matrix(1,0,0,-1,0,841.5)" d="M .000008862 0 L 594.75 0 L 594.75 841.5 L .000008862 841.5 Z " fill-rule="evenodd"/>
</clipPath>
<g clip-path="url(#cp245)">
<text xml:space="preserve" transform="matrix(1 0 -0 1 0 841.5)" font-size="11.25" font-family="ArialNarrow"><tspan y="-599.63" x="453.8 456.05 459.04249 463.54249 468.78498 474.02748 476.27748 481.51997 486.01997 489.01246 494.25495 496.50495 498.75495 503.99745 509.23994 511.48994 516.7324 519.73617 524.23617 529.47866 531.71737 536.21737 540.71737 543.70986 548.20986 552.70986">, and both the predicates </tspan></text>
</g>
</g>
<g id="Layer-1" data-name="P">
<clipPath id="cp246">
<path transform="matrix(1,0,0,-1,0,841.5)" d="M .000008862 0 L 594.75 0 L 594.75 841.5 L .000008862 841.5 Z " fill-rule="evenodd"/>
</clipPath>
<g clip-path="url(#cp246)">
<text xml:space="preserve" transform="matrix(1 0 -0 1 0 841.5)" font-size="11.25" font-family="ArialNarrow" font-style="italic"><tspan y="-586.38" x="372.97 378.2125 382.7125 385.71626 390.21626 395.45875 400.70124 405.20124 409.70124 412.69374 417.93623 420.93998 425.43998 430.68247 433.68623">purchase orders</tspan></text>
</g>
</g>
<g id="Layer-1" data-name="P">
<clipPath id="cp247">
<path transform="matrix(1,0,0,-1,0,841.5)" d="M .000008862 0 L 594.75 0 L 594.75 841.5 L .000008862 841.5 Z " fill-rule="evenodd"/>
</clipPath>
<g clip-path="url(#cp247)">
<text xml:space="preserve" transform="matrix(1 0 -0 1 0 841.5)" font-size="11.25" font-family="ArialNarrow"><tspan y="-586.38" x="438.25"> </tspan></text>
</g>
</g>
<g id="Layer-1" data-name="P">
<clipPath id="cp248">
<path transform="matrix(1,0,0,-1,0,841.5)" d="M .000008862 0 L 594.75 0 L 594.75 841.5 L .000008862 841.5 Z " fill-rule="evenodd"/>
</clipPath>
<g clip-path="url(#cp248)">
<text xml:space="preserve" transform="matrix(1 0 -0 1 0 841.5)" font-size="11.25" font-family="ArialNarrow"><tspan y="-586.38" x="440.75 446.015 450.5375">and</tspan></text>
</g>
</g>
<g id="Layer-1" data-name="P">
<clipPath id="cp249">
<path transform="matrix(1,0,0,-1,0,841.5)" d="M .000008862 0 L 594.75 0 L 594.75 841.5 L .000008862 841.5 Z " fill-rule="evenodd"/>
</clipPath>
<g clip-path="url(#cp249)">
<text xml:space="preserve" transform="matrix(1 0 -0 1 0 841.5)" font-size="11.25" font-family="ArialNarrow" font-style="italic"><tspan y="-586.38" x="455.82"> </tspan></text>
</g>
</g>
<g id="Layer-1" data-name="P">
<clipPath id="cp250">
<path transform="matrix(1,0,0,-1,0,841.5)" d="M .000008862 0 L 594.75 0 L 594.75 841.5 L .000008862 841.5 Z " fill-rule="evenodd"/>
</clipPath>
<g clip-path="url(#cp250)">
<text xml:space="preserve" transform="matrix(1 0 -0 1 0 841.5)" font-size="11.25" font-family="ArialNarrow" font-style="italic"><tspan y="-586.38" x="458.32 463.58503 468.1075 471.13377 475.65626 480.92127 486.18629 490.70878 495.23127 498.24629 503.5113 506.53755 511.06004 516.325 519.35128 521.6238 526.14627 531.41128 536.6763 538.20626 543.47128 547.9937">purchase order copies </tspan></text>
</g>
</g>
<g id="Layer-1" data-name="P">
<clipPath id="cp251">
<path transform="matrix(1,0,0,-1,0,841.5)" d="M .000008862 0 L 594.75 0 L 594.75 841.5 L .000008862 841.5 Z " fill-rule="evenodd"/>
</clipPath>
<g clip-path="url(#cp251)">
<text xml:space="preserve" transform="matrix(1 0 -0 1 0 841.5)" font-size="11.25" font-family="ArialNarrow"><tspan y="-586.38" x="550.23 555.4725 559.9725 565.21499 567.4537 571.9537">apply </tspan></text>
</g>
</g>
<g id="Layer-1" data-name="P">
<clipPath id="cp252">
<path transform="matrix(1,0,0,-1,0,841.5)" d="M .000008862 0 L 594.75 0 L 594.75 841.5 L .000008862 841.5 Z " fill-rule="evenodd"/>
</clipPath>
<g clip-path="url(#cp252)">
<text xml:space="preserve" transform="matrix(1 0 -0 1 0 841.5)" font-size="11.275" font-family="ArialNarrow"><tspan y="-573.15" x="372.97 375.225 380.46788 382.72288 385.71076 390.20948 395.45234">to the </tspan></text>
</g>
</g>
<g id="Layer-1" data-name="P">
<clipPath id="cp253">
<path transform="matrix(1,0,0,-1,0,841.5)" d="M .000008862 0 L 594.75 0 L 594.75 841.5 L .000008862 841.5 Z " fill-rule="evenodd"/>
</clipPath>
<g clip-path="url(#cp253)">
<text xml:space="preserve" transform="matrix(1 0 -0 1 0 841.5)" font-size="11.275" font-family="ArialNarrow" font-style="italic"><tspan y="-573.15" x="398.1 403.34288 407.84159 410.84074 415.33946 420.5823 425.82518 430.32389 434.8226 437.8105 443.05335 446.0525 450.5512 455.79408">purchase order</tspan></text>
</g>
</g>
<g id="Layer-1" data-name="P">
<clipPath id="cp254">
<path transform="matrix(1,0,0,-1,0,841.5)" d="M .000008862 0 L 594.75 0 L 594.75 841.5 L .000008862 841.5 Z " fill-rule="evenodd"/>
</clipPath>
<g clip-path="url(#cp254)">
<text xml:space="preserve" transform="matrix(1 0 -0 1 0 841.5)" font-size="11.275" font-family="ArialNarrow" font-weight="bold"><tspan y="-573.15" x="458.85"> </tspan></text>
</g>
</g>
<g id="Layer-1" data-name="P">
<clipPath id="cp255">
<path transform="matrix(1,0,0,-1,0,841.5)" d="M .000008862 0 L 594.75 0 L 594.75 841.5 L .000008862 841.5 Z " fill-rule="evenodd"/>
</clipPath>
<g clip-path="url(#cp255)">
<text xml:space="preserve" transform="matrix(1 0 -0 1 0 841.5)" font-size="11.275" font-family="ArialNarrow" font-weight="bold"><tspan y="-573.15" x="461.35 464.34916 471.0916 474.09077 478.58949 481.57737 483.83238 487.57566 492.8298 498.07267 500.32768 502.58268 508.5697 513.8126 516.0676 518.32266 524.3097 528.8084 532.5517">(Ute, {p1, p2, p2})</tspan></text>
</g>
</g>
<g id="Layer-1" data-name="P">
<clipPath id="cp256">
<path transform="matrix(1,0,0,-1,0,841.5)" d="M .000008862 0 L 594.75 0 L 594.75 841.5 L .000008862 841.5 Z " fill-rule="evenodd"/>
</clipPath>
<g clip-path="url(#cp256)">
<text xml:space="preserve" transform="matrix(1 0 -0 1 0 841.5)" font-size="11.275" font-family="ArialNarrow"><tspan y="-573.15" x="535.63 537.885 540.87289 543.12789 545.3829 548.3707 550.62576">.      </tspan></text>
</g>
</g>
</g>
</g>
</svg>
