<?xml version="1.0" encoding="UTF-8" standalone="no"?>
<!DOCTYPE svg PUBLIC "-//W3C//DTD SVG 1.1//EN" "http://www.w3.org/Graphics/SVG/1.1/DTD/svg11.dtd">
<svg xmlns="http://www.w3.org/2000/svg" xmlns:xlink="http://www.w3.org/1999/xlink" version="1.1" width="594.75pt" height="841.5pt" viewBox="0 0 594.75 841.5">
<g enable-background="new">
<g>
<g id="Layer-1" data-name="P">
<clipPath id="cp627">
<path transform="matrix(1,0,0,-1,0,841.5)" d="M .000008862 0 L 594.75 0 L 594.75 841.5 L .000008862 841.5 Z " fill-rule="evenodd"/>
</clipPath>
<g clip-path="url(#cp627)">
<text xml:space="preserve" transform="matrix(1 0 -0 1 0 841.5)" font-size="11.275" font-family="ArialNarrow"><tspan y="-435.08" x="57.625 62.879148 68.122028 73.36491 75.61991 77.86363 82.36236 86.861087 92.103969 97.34685 99.60185 104.844738 107.84388 112.342609 114.59761 122.09549 127.33837 132.58124 137.07997 142.32285 147.56572 155.06359 159.56232 164.80519 167.06018 170.04805 174.54679 179.04552 183.54425 188.78713 194.03 200.77246 202.27204 207.51491 212.75778 217.25652 222.49939 226.99813 229.25312 232.24098 236.73972 241.98259">The inventory management acknowledges the </tspan></text>
</g>
</g>
<g id="Layer-1" data-name="P">
<clipPath id="cp628">
<path transform="matrix(1,0,0,-1,0,841.5)" d="M .000008862 0 L 594.75 0 L 594.75 841.5 L .000008862 841.5 Z " fill-rule="evenodd"/>
</clipPath>
<g clip-path="url(#cp628)">
<text xml:space="preserve" transform="matrix(1 0 -0 1 0 841.5)" font-size="11.25" font-family="ArialNarrow"><tspan y="-421.85" x="57.625 60.62875 65.871257 70.371257 74.871257 77.87501 82.37501 87.61751 89.86751 92.10626 97.34876 101.84876 104.84126 110.08376 112.33376 114.58376 117.57626 123.57252 128.81502 131.06502 136.30753 141.55004 143.04628 146.05002 150.55002 153.54253 158.04253 161.03504 163.28504 167.78504 173.02754 177.52754 182.77005 187.27005 190.26256 194.76256 200.00507 205.24758 207.49758 212.74008 217.24008 222.48259 224.73259 229.9751 235.2176 237.4676 239.7176 242.71012 247.21012 252.45262 257.6951">reservation of two pairs of shoes and one hat, and </tspan></text>
</g>
</g>
<g id="Layer-1" data-name="P">
<clipPath id="cp629">
<path transform="matrix(1,0,0,-1,0,841.5)" d="M .000008862 0 L 594.75 0 L 594.75 841.5 L .000008862 841.5 Z " fill-rule="evenodd"/>
</clipPath>
<g clip-path="url(#cp629)">
<text xml:space="preserve" transform="matrix(1 0 -0 1 0 841.5)" font-size="11.275" font-family="ArialNarrow"><tspan y="-408.65" x="57.625 62.867876 67.3666 72.60948 77.85236 80.10737 85.35025 89.848979 92.10398 94.358989 99.60187 104.84475 107.099758 111.59848 116.84136 119.84051 122.83965 128.08254 132.58127 137.08 142.32288 147.56575 152.06449 154.30821 159.55109 164.04982 167.03769 171.53643 176.7793 179.76717 182.76633 184.2659 189.50878 194.0075 196.2625 198.50623 203.7491 206.00409 208.25908 213.50196 218.74483 220.99982 226.24269 230.74143 233.7293 238.22803 243.4709 248.71378 253.21251 257.71125 260.69914 262.95414 268.94117 273.43989 276.43904">updates the corresponding entries in the database. For </tspan></text>
</g>
</g>
<g id="Layer-1" data-name="P">
<clipPath id="cp630">
<path transform="matrix(1,0,0,-1,0,841.5)" d="M .000008862 0 L 594.75 0 L 594.75 841.5 L .000008862 841.5 Z " fill-rule="evenodd"/>
</clipPath>
<g clip-path="url(#cp630)">
<text xml:space="preserve" transform="matrix(1 0 -0 1 0 841.5)" font-size="11.25" font-family="ArialNarrow"><tspan y="-395.42" x="57.625 59.875 65.1175 70.36 72.61 77.11 82.3525 86.8525 91.3525 96.595 101.8375 104.0875 107.091259 112.333759 117.576259 122.076259 124.31501 127.31876 132.56127 137.06127 140.05377 144.55377 149.79628 152.04628 155.03879 157.28879 159.53879 166.27754 171.52005 173.77005 179.01256 184.25507 186.50507 191.00507 193.25507 198.49758 201.50131 206.74382 208.99382 214.23633 217.24007 221.74007 226.98258 229.98632 235.22882 239.72882 242.72133 247.22133 250.21384 252.46384 254.71384 259.95634 265.19883">the second required hat, two hats are ordered at the </tspan></text>
</g>
</g>
<g id="Layer-1" data-name="P">
<clipPath id="cp631">
<path transform="matrix(1,0,0,-1,0,841.5)" d="M .000008862 0 L 594.75 0 L 594.75 841.5 L .000008862 841.5 Z " fill-rule="evenodd"/>
</clipPath>
<g clip-path="url(#cp631)">
<text xml:space="preserve" transform="matrix(1 0 -0 1 0 841.5)" font-size="11.275" font-family="ArialNarrow"><tspan y="-382.23" x="57.625 62.123727 67.36661 71.86533 77.108219 79.35194 80.85151 86.09439 89.09354 91.34854 94.34769 99.59057 104.83345 110.07633 112.33134 117.57422 122.072948 125.06082 127.31583 129.57082 134.81369 137.81285 140.06784 144.56658 147.55445 152.05318 156.55191 161.05065 164.0498 167.03768 169.29267 175.29096 177.54595 180.53382 185.03255 188.03171 191.01958 193.27457 198.51744 203.76032 206.0153 212.75777 217.2565 220.25566 225.49854 230.74141 235.24015 240.48302 244.98175">supplier (one hat for stock). After the warehouse</tspan></text>
</g>
</g>
<clipPath id="cp632">
<path transform="matrix(1,0,0,-1,0,841.5)" d="M .000008862 0 L 594.75 0 L 594.75 841.5 L .000008862 841.5 Z " fill-rule="evenodd"/>
</clipPath>
<g clip-path="url(#cp632)">
<text xml:space="preserve" transform="matrix(1 0 -0 1 0 841.5)" font-size="11.275" font-family="ArialNarrow"><tspan y="-382.23" x="250.43">&#x2019;</tspan></text>
</g>
<g id="Layer-1" data-name="P">
<clipPath id="cp633">
<path transform="matrix(1,0,0,-1,0,841.5)" d="M .000008862 0 L 594.75 0 L 594.75 841.5 L .000008862 841.5 Z " fill-rule="evenodd"/>
</clipPath>
<g clip-path="url(#cp633)">
<text xml:space="preserve" transform="matrix(1 0 -0 1 0 841.5)" font-size="11.275" font-family="ArialNarrow"><tspan y="-382.23" x="252.43 256.92976">s </tspan></text>
</g>
</g>
<g id="Layer-1" data-name="P">
<clipPath id="cp634">
<path transform="matrix(1,0,0,-1,0,841.5)" d="M .000008862 0 L 594.75 0 L 594.75 841.5 L .000008862 841.5 Z " fill-rule="evenodd"/>
</clipPath>
<g clip-path="url(#cp634)">
<text xml:space="preserve" transform="matrix(1 0 -0 1 0 841.5)" font-size="11.25" font-family="ArialNarrow"><tspan y="-369" x="57.625 62.8675 67.3675 71.8675 76.3675 81.61 88.348758 89.84501 95.08751 100.33001 105.57251 110.07251 117.576259 122.818759 128.06125 130.31125 132.56125 137.80376 140.05376 143.04627 146.05 150.55 155.05 160.29251 162.53127 167.03127 168.52751 173.77002 179.01253 181.26253 183.51253 188.75504 193.99755 196.24755 199.24005 205.2363 210.4788 212.7288 217.97132 220.97505 226.21756 230.71756 233.7213 238.9638 244.20632 246.45632 251.69882 256.19883 259.1913 263.6913 265.9413 268.1913 271.19508 276.43757 283.9413">acknowledgement of receiving the two ordered hats from </tspan></text>
</g>
</g>
<g id="Layer-1" data-name="P">
<clipPath id="cp635">
<path transform="matrix(1,0,0,-1,0,841.5)" d="M .000008862 0 L 594.75 0 L 594.75 841.5 L .000008862 841.5 Z " fill-rule="evenodd"/>
</clipPath>
<g clip-path="url(#cp635)">
<text xml:space="preserve" transform="matrix(1 0 -0 1 0 841.5)" font-size="11.275" font-family="ArialNarrow"><tspan y="-355.8" x="57.625 59.88 65.12288 70.36576 72.620769 77.11949 82.36237 86.8611 92.10398 94.3477 95.847278 101.09016 104.0893 107.07718 109.332187 111.575908 116.07463 120.57336 125.81624 131.05912 133.3141 138.55698 141.55614 146.05487 148.30986 155.80773 161.0506 165.54933 170.7922 176.03508 180.53382 188.77584 193.27457 198.51744 200.77243 203.7603 205.25988 210.50275 212.75774 218.00061 220.99977 228.49764 232.99637 235.25136 240.49423 243.4934 248.73627 253.235 256.23417">the supplier, inventory management informs order </tspan></text>
</g>
</g>
<g id="Layer-1" data-name="P">
<clipPath id="cp636">
<path transform="matrix(1,0,0,-1,0,841.5)" d="M .000008862 0 L 594.75 0 L 594.75 841.5 L .000008862 841.5 Z " fill-rule="evenodd"/>
</clipPath>
<g clip-path="url(#cp636)">
<text xml:space="preserve" transform="matrix(1 0 -0 1 0 841.5)" font-size="11.25" font-family="ArialNarrow"><tspan y="-342.58" x="57.625 65.128749 70.37125 74.87125 80.11375 85.35625 89.85625 97.35999 102.60249 107.84499 110.09499 113.087497">management. </tspan></text>
</g>
</g>
<path transform="matrix(1,0,0,-1,0,841.5)" d="M 326.89 328.72 L 532.08 328.72 L 532.08 778.03 L 326.89 778.03 Z " fill="#92d050" fill-opacity=".18824" fill-rule="evenodd"/>
<path transform="matrix(1,0,0,-1,0,841.5)" stroke-width="1.5" stroke-linecap="round" stroke-linejoin="round" fill="none" stroke="#000000" d="M 429.48 523.62 L 495.42 523.62 "/>
<path transform="matrix(1,0,0,-1,0,841.5)" d="M 494.24 528.36 L 508.46 523.62 L 494.24 518.88 L 494.24 528.36 Z " fill-rule="evenodd"/>
<clipPath id="cp637">
<path transform="matrix(1,0,0,-1,0,841.5)" d="M 0 841.5 L 594.75 841.5 L 594.75 .00018311 L .000030518 .00018311 " fill-rule="evenodd"/>
</clipPath>
<g clip-path="url(#cp637)">
<path transform="matrix(1,0,0,-1,0,841.5)" stroke-width="1.5" stroke-linecap="round" stroke-linejoin="round" fill="none" stroke="#000000" d="M 429.47 416.11 L 429.44 381.16 "/>
</g>
<clipPath id="cp638">
<path transform="matrix(1,0,0,-1,0,841.5)" d="M 0 841.5 L 594.75 841.5 L 594.75 .00018311 L .000030518 .00018311 " fill-rule="evenodd"/>
</clipPath>
<g clip-path="url(#cp638)">
<path transform="matrix(1,0,0,-1,0,841.5)" d="M 434.18 382.34 L 429.42 368.12 L 424.7 382.35 L 434.18 382.34 Z " fill-rule="evenodd"/>
</g>
<clipPath id="cp639">
<path transform="matrix(1,0,0,-1,0,841.5)" d="M 0 841.5 L 594.75 841.5 L 594.75 0 L 0 0 " fill-rule="evenodd"/>
</clipPath>
<g clip-path="url(#cp639)">
<path transform="matrix(1,0,0,-1,0,841.5)" stroke-width="1.5" stroke-linecap="round" stroke-linejoin="round" fill="none" stroke="#000000" d="M 498.92 465.09 L 456.41 433.76 "/>
</g>
<clipPath id="cp640">
<path transform="matrix(1,0,0,-1,0,841.5)" d="M 0 841.5 L 594.75 841.5 L 594.75 0 L 0 0 " fill-rule="evenodd"/>
</clipPath>
<g clip-path="url(#cp640)">
<path transform="matrix(1,0,0,-1,0,841.5)" d="M 460.17 430.64 L 445.91 426.02 L 454.55 438.28 L 460.17 430.64 Z " fill-rule="evenodd"/>
</g>
<clipPath id="cp641">
<path transform="matrix(1,0,0,-1,0,841.5)" d="M -.000061035 841.5 L 594.75 841.5 L 594.75 .00012207 L -.000030518 .00012207 " fill-rule="evenodd"/>
</clipPath>
<g clip-path="url(#cp641)">
<path transform="matrix(1,0,0,-1,0,841.5)" stroke-width="1.5" stroke-linecap="round" stroke-linejoin="round" fill="none" stroke="#000000" d="M 331.25 579.34 L 391.92 545.93 "/>
</g>
<clipPath id="cp642">
<path transform="matrix(1,0,0,-1,0,841.5)" d="M -.000061035 841.5 L 594.75 841.5 L 594.75 .00012207 L -.000030518 .00012207 " fill-rule="evenodd"/>
</clipPath>
<g clip-path="url(#cp642)">
<path transform="matrix(1,0,0,-1,0,841.5)" d="M 393.17 550.65 L 403.34 539.64 L 388.59 542.35 L 393.17 550.65 Z " fill-rule="evenodd"/>
</g>
<clipPath id="cp643">
<path transform="matrix(1,0,0,-1,0,841.5)" d="M -.000030518 841.5 L 594.75 841.5 L 594.75 0 L .000061035 0 " fill-rule="evenodd"/>
</clipPath>
<g clip-path="url(#cp643)">
<path transform="matrix(1,0,0,-1,0,841.5)" stroke-width="1.5" stroke-linecap="round" stroke-linejoin="round" fill="none" stroke="#000000" d="M 429.51 408.42 L 364.84 370.63 "/>
</g>
<clipPath id="cp644">
<path transform="matrix(1,0,0,-1,0,841.5)" d="M -.000030518 841.5 L 594.75 841.5 L 594.75 0 L .000061035 0 " fill-rule="evenodd"/>
</clipPath>
<g clip-path="url(#cp644)">
<path transform="matrix(1,0,0,-1,0,841.5)" d="M 368.26 367.13 L 353.59 364.05 L 363.47 375.32 L 368.26 367.13 Z " fill-rule="evenodd"/>
</g>
<clipPath id="cp645">
<path transform="matrix(1,0,0,-1,0,841.5)" d="M -.000030518 841.5 L 594.75 841.5 L 594.75 .00024414 L 0 .00018311 " fill-rule="evenodd"/>
</clipPath>
<g clip-path="url(#cp645)">
<path transform="matrix(1,0,0,-1,0,841.5)" stroke-width="1.5" stroke-linecap="round" stroke-linejoin="round" fill="none" stroke="#000000" d="M 429.48 523.62 L 472.12 488.86 "/>
</g>
<clipPath id="cp646">
<path transform="matrix(1,0,0,-1,0,841.5)" d="M -.000030518 841.5 L 594.75 841.5 L 594.75 .00024414 L 0 .00018311 " fill-rule="evenodd"/>
</clipPath>
<g clip-path="url(#cp646)">
<path transform="matrix(1,0,0,-1,0,841.5)" d="M 474.19 493.28 L 482.22 480.62 L 468.2 485.94 L 474.19 493.28 Z " fill-rule="evenodd"/>
</g>
<path transform="matrix(1,0,0,-1,0,841.5)" stroke-width="1.5" stroke-linecap="round" stroke-linejoin="round" fill="none" stroke="#000000" d="M 537.39 407.72 L 476.55 407.72 "/>
<path transform="matrix(1,0,0,-1,0,841.5)" d="M 477.74 402.98 L 463.52 407.72 L 477.74 412.46 L 477.74 402.98 Z " fill-rule="evenodd"/>
<path transform="matrix(1,0,0,-1,0,841.5)" d="M 362.34 579.51 C 362.34 586.9 348.42 592.88 331.25 592.88 C 314.08 592.88 300.15 586.9 300.15 579.51 C 300.15 572.12 314.08 566.13 331.25 566.13 C 348.42 566.13 362.34 572.12 362.34 579.51 Z " fill="#ffffff" fill-rule="evenodd"/>
<path transform="matrix(1,0,0,-1,0,841.5)" stroke-width="1.5" stroke-linecap="round" stroke-linejoin="round" fill="none" stroke="#000000" d="M 362.34 579.51 C 362.34 586.9 348.42 592.88 331.25 592.88 C 314.08 592.88 300.15 586.9 300.15 579.51 C 300.15 572.12 314.08 566.13 331.25 566.13 C 348.42 566.13 362.34 572.12 362.34 579.51 Z "/>
<g id="Layer-1" data-name="P">
<clipPath id="cp647">
<path transform="matrix(1,0,0,-1,0,841.5)" d="M .000008862 0 L 594.75 0 L 594.75 841.5 L .000008862 841.5 Z " fill-rule="evenodd"/>
</clipPath>
<g clip-path="url(#cp647)">
<text xml:space="preserve" transform="matrix(1 0 -0 1 0 841.5)" font-size="9" font-family="ArialNarrow" font-style="italic"><tspan y="-581.97" x="311.13 313.38 317.871 321.624 326.115 329.86799 333.61198 335.85298 338.09397 339.59696 342.58497 346.33796 350.08195">request. res.</tspan></text>
</g>
</g>
<g id="Layer-1" data-name="P">
<clipPath id="cp648">
<path transform="matrix(1,0,0,-1,0,841.5)" d="M .000008862 0 L 594.75 0 L 594.75 841.5 L .000008862 841.5 Z " fill-rule="evenodd"/>
</clipPath>
<g clip-path="url(#cp648)">
<text xml:space="preserve" transform="matrix(1 0 -0 1 0 841.5)" font-size="9" font-family="ArialNarrow" font-weight="bold"><tspan y="-581.97" x="352.2"> </tspan></text>
</g>
</g>
<g id="Layer-1" data-name="P">
<clipPath id="cp649">
<path transform="matrix(1,0,0,-1,0,841.5)" d="M .000008862 0 L 594.75 0 L 594.75 841.5 L .000008862 841.5 Z " fill-rule="evenodd"/>
</clipPath>
<g clip-path="url(#cp649)">
<text xml:space="preserve" transform="matrix(1 0 -0 1 0 841.5)" font-size="9" font-family="ArialNarrow" font-weight="bold"><tspan y="-571.15" x="316.05 318.3 322.044 326.553 330.29704 333.28504 336.28205 338.52305 340.76405 344.51704">("hat", 1)</tspan></text>
</g>
</g>
<path transform="matrix(1,0,0,-1,0,841.5)" d="M 571.06 523.8 C 571.06 531.19 557.14 537.18 539.96 537.18 C 522.79 537.18 508.87 531.19 508.87 523.8 C 508.87 516.41 522.79 510.43 539.96 510.43 C 557.14 510.43 571.06 516.41 571.06 523.8 Z " fill="#ffffff" fill-rule="evenodd"/>
<path transform="matrix(1,0,0,-1,0,841.5)" stroke-width="1.5" stroke-linecap="round" stroke-linejoin="round" fill="none" stroke="#000000" d="M 571.06 523.8 C 571.06 531.19 557.14 537.18 539.96 537.18 C 522.79 537.18 508.87 531.19 508.87 523.8 C 508.87 516.41 522.79 510.43 539.96 510.43 C 557.14 510.43 571.06 516.41 571.06 523.8 Z "/>
<g id="Layer-1" data-name="P">
<clipPath id="cp650">
<path transform="matrix(1,0,0,-1,0,841.5)" d="M .000008862 0 L 594.75 0 L 594.75 841.5 L .000008862 841.5 Z " fill-rule="evenodd"/>
</clipPath>
<g clip-path="url(#cp650)">
<text xml:space="preserve" transform="matrix(1 0 -0 1 0 841.5)" font-size="9.025" font-family="ArialNarrow" font-style="italic"><tspan y="-526.22" x="521.13 524.89346 528.6659 533.1784 536.95089 539.2162 540.7414 543.00668 546.7791 549.79348 553.5659 558.0784">suppl. order</tspan></text>
</g>
</g>
<g id="Layer-1" data-name="P">
<clipPath id="cp651">
<path transform="matrix(1,0,0,-1,0,841.5)" d="M .000008862 0 L 594.75 0 L 594.75 841.5 L .000008862 841.5 Z " fill-rule="evenodd"/>
</clipPath>
<g clip-path="url(#cp651)">
<text xml:space="preserve" transform="matrix(1 0 -0 1 0 841.5)" font-size="9.025" font-family="ArialNarrow" font-weight="bold"><tspan y="-526.22" x="560.15"> </tspan></text>
</g>
</g>
<g id="Layer-1" data-name="P">
<clipPath id="cp652">
<path transform="matrix(1,0,0,-1,0,841.5)" d="M .000008862 0 L 594.75 0 L 594.75 841.5 L .000008862 841.5 Z " fill-rule="evenodd"/>
</clipPath>
<g clip-path="url(#cp652)">
<text xml:space="preserve" transform="matrix(1 0 -0 1 0 841.5)" font-size="9" font-family="ArialNarrow" font-weight="bold"><tspan y="-515.4" x="525.03 527.28 531.024 535.53298 539.277 542.26498 545.2619 547.5029 549.74398 553.49697">("hat", 2)</tspan></text>
</g>
</g>
<path transform="matrix(1,0,0,-1,0,841.5)" d="M 395.51 391.11 L 463.515 391.11 L 463.515 424.688 L 395.51 424.688 Z " fill="#ffffff" fill-rule="evenodd"/>
<path transform="matrix(1,0,0,-1,0,841.5)" stroke-width="2" stroke-linecap="round" stroke-linejoin="round" fill="none" stroke="#000000" d="M 395.51 391.11 L 463.515 391.11 L 463.515 424.688 L 395.51 424.688 Z "/>
<g id="Layer-1" data-name="P">
<clipPath id="cp653">
<path transform="matrix(1,0,0,-1,0,841.5)" d="M .000008862 0 L 594.75 0 L 594.75 841.5 L .000008862 841.5 Z " fill-rule="evenodd"/>
</clipPath>
<g clip-path="url(#cp653)">
<text xml:space="preserve" transform="matrix(1 0 -0 1 0 841.5)" font-size="9.025" font-family="ArialNarrow" font-weight="bold"><tspan y="-415.63" x="408.7 413.22154 416.21784 419.99028 424.51179 427.5081 429.00627 431.99354 436.506 440.27845 442.51667 444.75489 449.2764 451.53266">grant res. of </tspan></text>
</g>
</g>
<g id="Layer-1" data-name="P">
<clipPath id="cp654">
<path transform="matrix(1,0,0,-1,0,841.5)" d="M .000008862 0 L 594.75 0 L 594.75 841.5 L .000008862 841.5 Z " fill-rule="evenodd"/>
</clipPath>
<g clip-path="url(#cp654)">
<text xml:space="preserve" transform="matrix(1 0 -0 1 0 841.5)" font-size="9" font-family="ArialNarrow" font-weight="bold"><tspan y="-404.8" x="416.3 420.809 423.788 428.297 432.04103 435.02903 439.52003 444.02903">ordered </tspan></text>
</g>
</g>
<g id="Layer-1" data-name="P">
<clipPath id="cp655">
<path transform="matrix(1,0,0,-1,0,841.5)" d="M .000008862 0 L 594.75 0 L 594.75 841.5 L .000008862 841.5 Z " fill-rule="evenodd"/>
</clipPath>
<g clip-path="url(#cp655)">
<text xml:space="preserve" transform="matrix(1 0 -0 1 0 841.5)" font-size="9" font-family="ArialNarrow" font-weight="bold"><tspan y="-394" x="414.25 418.759 421.738 426.247 430.756 435.238 438.991 441.979">products</tspan></text>
</g>
</g>
<clipPath id="cp656">
<path transform="matrix(1,0,0,-1,0,841.5)" d="M .000030518 841.5 L 594.75 841.5 L 594.75 .00018311 L .000030518 .00018311 " fill-rule="evenodd"/>
</clipPath>
<g clip-path="url(#cp656)">
<path transform="matrix(1,0,0,-1,0,841.5)" stroke-width="1.5" stroke-linecap="round" stroke-linejoin="round" fill="none" stroke="#000000" d="M 429.51 469.17 L 429.48 439.06 "/>
</g>
<clipPath id="cp657">
<path transform="matrix(1,0,0,-1,0,841.5)" d="M .000030518 841.5 L 594.75 841.5 L 594.75 .00018311 L .000030518 .00018311 " fill-rule="evenodd"/>
</clipPath>
<g clip-path="url(#cp657)">
<path transform="matrix(1,0,0,-1,0,841.5)" d="M 434.23 440.24 L 429.47 426.02 L 424.75 440.25 L 434.23 440.24 Z " fill-rule="evenodd"/>
</g>
<path transform="matrix(1,0,0,-1,0,841.5)" d="M 530.01 469.34 C 530.01 476.73 516.09 482.72 498.92 482.72 C 481.75 482.72 467.83 476.73 467.83 469.34 C 467.83 461.95 481.75 455.97 498.92 455.97 C 516.09 455.97 530.01 461.95 530.01 469.34 Z " fill="#ffffff" fill-rule="evenodd"/>
<path transform="matrix(1,0,0,-1,0,841.5)" stroke-width="1.5" stroke-linecap="round" stroke-linejoin="round" fill="none" stroke="#000000" d="M 530.01 469.34 C 530.01 476.73 516.09 482.72 498.92 482.72 C 481.75 482.72 467.83 476.73 467.83 469.34 C 467.83 461.95 481.75 455.97 498.92 455.97 C 516.09 455.97 530.01 461.95 530.01 469.34 Z "/>
<g id="Layer-1" data-name="P">
<clipPath id="cp658">
<path transform="matrix(1,0,0,-1,0,841.5)" d="M .000008862 0 L 594.75 0 L 594.75 841.5 L .000008862 841.5 Z " fill-rule="evenodd"/>
</clipPath>
<g clip-path="url(#cp658)">
<text xml:space="preserve" transform="matrix(1 0 -0 1 0 841.5)" font-size="9" font-family="ArialNarrow" font-style="italic"><tspan y="-471.7" x="478.8 482.57099 487.089 490.86 495.378 496.88099 501.399 502.90199 507.41999 509.66999 514.188 517.959">pendig order</tspan></text>
</g>
</g>
<g id="Layer-1" data-name="P">
<clipPath id="cp659">
<path transform="matrix(1,0,0,-1,0,841.5)" d="M .000008862 0 L 594.75 0 L 594.75 841.5 L .000008862 841.5 Z " fill-rule="evenodd"/>
</clipPath>
<g clip-path="url(#cp659)">
<text xml:space="preserve" transform="matrix(1 0 -0 1 0 841.5)" font-size="9.025" font-family="ArialNarrow" font-weight="bold"><tspan y="-460.9" x="483.92 486.19435 489.95774 494.47926 498.2607 501.2751 504.29847 506.56376 508.82905 512.6015">("hat", 1)</tspan></text>
</g>
</g>
<path transform="matrix(1,0,0,-1,0,841.5)" d="M 460.61 469.34 C 460.61 476.73 446.69 482.72 429.51 482.72 C 412.34 482.72 398.42 476.73 398.42 469.34 C 398.42 461.95 412.34 455.97 429.51 455.97 C 446.69 455.97 460.61 461.95 460.61 469.34 Z " fill="#ffffff" fill-rule="evenodd"/>
<path transform="matrix(1,0,0,-1,0,841.5)" stroke-width="1.5" stroke-linecap="round" stroke-linejoin="round" fill="none" stroke="#000000" d="M 460.61 469.34 C 460.61 476.73 446.69 482.72 429.51 482.72 C 412.34 482.72 398.42 476.73 398.42 469.34 C 398.42 461.95 412.34 455.97 429.51 455.97 C 446.69 455.97 460.61 461.95 460.61 469.34 Z "/>
<g id="Layer-1" data-name="P">
<clipPath id="cp660">
<path transform="matrix(1,0,0,-1,0,841.5)" d="M .000008862 0 L 594.75 0 L 594.75 841.5 L .000008862 841.5 Z " fill-rule="evenodd"/>
</clipPath>
<g clip-path="url(#cp660)">
<text xml:space="preserve" transform="matrix(1 0 -0 1 0 841.5)" font-size="9.025" font-family="ArialNarrow" font-style="italic"><tspan y="-471.72" x="414.85 418.6044 423.09886 425.33708 429.09147 433.5859 437.3403 441.0857 444.8401">database </tspan></text>
</g>
</g>
<g id="Layer-1" data-name="P">
<clipPath id="cp661">
<path transform="matrix(1,0,0,-1,0,841.5)" d="M .000008862 0 L 594.75 0 L 594.75 841.5 L .000008862 841.5 Z " fill-rule="evenodd"/>
</clipPath>
<g clip-path="url(#cp661)">
<text xml:space="preserve" transform="matrix(1 0 -0 1 0 841.5)" font-size="9" font-family="ArialNarrow" font-weight="bold"><tspan y="-460.9" x="414.45 416.7 420.44404 424.95304 428.69706 431.68507 434.68208 436.92308 439.16407 442.91706">("hat", 0)</tspan></text>
</g>
</g>
<path transform="matrix(1,0,0,-1,0,841.5)" d="M 460.57 354.75 C 460.57 362.13 446.64 368.12 429.47 368.12 C 412.3 368.12 398.38 362.13 398.38 354.75 C 398.38 347.36 412.3 341.37 429.47 341.37 C 446.64 341.37 460.57 347.36 460.57 354.75 Z " fill="#ffffff" fill-rule="evenodd"/>
<path transform="matrix(1,0,0,-1,0,841.5)" stroke-width="1.5" stroke-linecap="round" stroke-linejoin="round" fill="none" stroke="#000000" d="M 460.57 354.75 C 460.57 362.13 446.64 368.12 429.47 368.12 C 412.3 368.12 398.38 362.13 398.38 354.75 C 398.38 347.36 412.3 341.37 429.47 341.37 C 446.64 341.37 460.57 347.36 460.57 354.75 Z "/>
<g id="Layer-1" data-name="P">
<clipPath id="cp662">
<path transform="matrix(1,0,0,-1,0,841.5)" d="M .000008862 0 L 594.75 0 L 594.75 841.5 L .000008862 841.5 Z " fill-rule="evenodd"/>
</clipPath>
<g clip-path="url(#cp662)">
<text xml:space="preserve" transform="matrix(1 0 -0 1 0 841.5)" font-size="9.025" font-family="ArialNarrow" font-style="italic"><tspan y="-357.02" x="414.83 418.58439 423.07884 425.31706 429.07145 433.5659 437.32029 441.06568">database</tspan></text>
</g>
</g>
<g id="Layer-1" data-name="P">
<clipPath id="cp663">
<path transform="matrix(1,0,0,-1,0,841.5)" d="M .000008862 0 L 594.75 0 L 594.75 841.5 L .000008862 841.5 Z " fill-rule="evenodd"/>
</clipPath>
<g clip-path="url(#cp663)">
<text xml:space="preserve" transform="matrix(1 0 -0 1 0 841.5)" font-size="9.025" font-family="ArialNarrow" font-weight="bold"><tspan y="-357.02" x="445.23"> </tspan></text>
</g>
</g>
<g id="Layer-1" data-name="P">
<clipPath id="cp664">
<path transform="matrix(1,0,0,-1,0,841.5)" d="M .000008862 0 L 594.75 0 L 594.75 841.5 L .000008862 841.5 Z " fill-rule="evenodd"/>
</clipPath>
<g clip-path="url(#cp664)">
<text xml:space="preserve" transform="matrix(1 0 -0 1 0 841.5)" font-size="9" font-family="ArialNarrow" font-weight="bold"><tspan y="-346.2" x="414.4 416.65 420.394 424.903 428.64704 431.63505 434.63206 436.87306 439.11405 442.86705">("hat", 1)</tspan></text>
</g>
</g>
<path transform="matrix(1,0,0,-1,0,841.5)" d="M 568.48 407.89 C 568.48 415.28 554.56 421.27 537.39 421.27 C 520.21 421.27 506.29 415.28 506.29 407.89 C 506.29 400.51 520.21 394.52 537.39 394.52 C 554.56 394.52 568.48 400.51 568.48 407.89 Z " fill="#ffffff" fill-rule="evenodd"/>
<path transform="matrix(1,0,0,-1,0,841.5)" stroke-width="1.5" stroke-linecap="round" stroke-linejoin="round" fill="none" stroke="#000000" d="M 568.48 407.89 C 568.48 415.28 554.56 421.27 537.39 421.27 C 520.21 421.27 506.29 415.28 506.29 407.89 C 506.29 400.51 520.21 394.52 537.39 394.52 C 554.56 394.52 568.48 400.51 568.48 407.89 Z "/>
<g id="Layer-1" data-name="P">
<clipPath id="cp665">
<path transform="matrix(1,0,0,-1,0,841.5)" d="M .000008862 0 L 594.75 0 L 594.75 841.5 L .000008862 841.5 Z " fill-rule="evenodd"/>
</clipPath>
<g clip-path="url(#cp665)">
<text xml:space="preserve" transform="matrix(1 0 -0 1 0 841.5)" font-size="9" font-family="ArialNarrow" font-style="italic"><tspan y="-410.2" x="512.4 516.153 519.89706 523.64108 528.1321 531.8851 537.1321 539.3731 541.61416 543.86416 548.35519 552.0992 555.8522 557.35519 561.8462">acknow. receipt</tspan></text>
</g>
</g>
<g id="Layer-1" data-name="P">
<clipPath id="cp666">
<path transform="matrix(1,0,0,-1,0,841.5)" d="M .000008862 0 L 594.75 0 L 594.75 841.5 L .000008862 841.5 Z " fill-rule="evenodd"/>
</clipPath>
<g clip-path="url(#cp666)">
<text xml:space="preserve" transform="matrix(1 0 -0 1 0 841.5)" font-size="9" font-family="ArialNarrow" font-weight="bold"><tspan y="-410.2" x="563.75"> </tspan></text>
</g>
</g>
<g id="Layer-1" data-name="P">
<clipPath id="cp667">
<path transform="matrix(1,0,0,-1,0,841.5)" d="M .000008862 0 L 594.75 0 L 594.75 841.5 L .000008862 841.5 Z " fill-rule="evenodd"/>
</clipPath>
<g clip-path="url(#cp667)">
<text xml:space="preserve" transform="matrix(1 0 -0 1 0 841.5)" font-size="9.025" font-family="ArialNarrow" font-weight="bold"><tspan y="-399.4" x="522.45 524.6972 528.4426 532.9642 536.6915 539.6788 542.6751 544.91329 547.1514 550.9058">("hat", 2)</tspan></text>
</g>
</g>
<path transform="matrix(1,0,0,-1,0,841.5)" d="M 362.34 354.75 C 362.34 362.13 348.42 368.12 331.25 368.12 C 314.08 368.12 300.15 362.13 300.15 354.75 C 300.15 347.36 314.08 341.37 331.25 341.37 C 348.42 341.37 362.34 347.36 362.34 354.75 Z " fill="#ffffff" fill-rule="evenodd"/>
<path transform="matrix(1,0,0,-1,0,841.5)" stroke-width="1.5" stroke-linecap="round" stroke-linejoin="round" fill="none" stroke="#000000" d="M 362.34 354.75 C 362.34 362.13 348.42 368.12 331.25 368.12 C 314.08 368.12 300.15 362.13 300.15 354.75 C 300.15 347.36 314.08 341.37 331.25 341.37 C 348.42 341.37 362.34 347.36 362.34 354.75 Z "/>
<g id="Layer-1" data-name="P">
<clipPath id="cp668">
<path transform="matrix(1,0,0,-1,0,841.5)" d="M .000008862 0 L 594.75 0 L 594.75 841.5 L .000008862 841.5 Z " fill-rule="evenodd"/>
</clipPath>
<g clip-path="url(#cp668)">
<text xml:space="preserve" transform="matrix(1 0 -0 1 0 841.5)" font-size="9.025" font-family="ArialNarrow" font-style="italic"><tspan y="-357.02" x="311.95 315.7044 318.69169 322.44609 326.94053 328.4387 332.93315 336.68754 338.92576 341.17298 345.66743 349.4128">granted res.</tspan></text>
</g>
</g>
<g id="Layer-1" data-name="P">
<clipPath id="cp669">
<path transform="matrix(1,0,0,-1,0,841.5)" d="M .000008862 0 L 594.75 0 L 594.75 841.5 L .000008862 841.5 Z " fill-rule="evenodd"/>
</clipPath>
<g clip-path="url(#cp669)">
<text xml:space="preserve" transform="matrix(1 0 -0 1 0 841.5)" font-size="9.025" font-family="ArialNarrow" font-weight="bold"><tspan y="-357.02" x="351.4"> </tspan></text>
</g>
</g>
<g id="Layer-1" data-name="P">
<clipPath id="cp670">
<path transform="matrix(1,0,0,-1,0,841.5)" d="M .000008862 0 L 594.75 0 L 594.75 841.5 L .000008862 841.5 Z " fill-rule="evenodd"/>
</clipPath>
<g clip-path="url(#cp670)">
<text xml:space="preserve" transform="matrix(1 0 -0 1 0 841.5)" font-size="9" font-family="ArialNarrow" font-weight="bold"><tspan y="-346.2" x="316.05 318.3 322.044 326.553 330.29704 333.28504 336.28205 338.52305 340.76405 344.51704">("hat", 1)</tspan></text>
</g>
</g>
<clipPath id="cp671">
<path transform="matrix(1,0,0,-1,0,841.5)" d="M 0 841.5 L 594.75 841.5 L 594.75 .00024414 L 0 .00018311 " fill-rule="evenodd"/>
</clipPath>
<g clip-path="url(#cp671)">
<path transform="matrix(1,0,0,-1,0,841.5)" stroke-width="1.5" stroke-linecap="round" stroke-linejoin="round" fill="none" stroke="#000000" d="M 429.44 526.66 L 429.41 496.55 "/>
</g>
<clipPath id="cp672">
<path transform="matrix(1,0,0,-1,0,841.5)" d="M 0 841.5 L 594.75 841.5 L 594.75 .00024414 L 0 .00018311 " fill-rule="evenodd"/>
</clipPath>
<g clip-path="url(#cp672)">
<path transform="matrix(1,0,0,-1,0,841.5)" d="M 434.15 497.73 L 429.4 483.52 L 424.67 497.74 L 434.15 497.73 Z " fill-rule="evenodd"/>
</g>
<path transform="matrix(1,0,0,-1,0,841.5)" d="M 395.48 506.56 L 463.48503 506.56 L 463.48503 539.64 L 395.48 539.64 Z " fill="#ffffff" fill-rule="evenodd"/>
<path transform="matrix(1,0,0,-1,0,841.5)" stroke-width="2" stroke-linecap="round" stroke-linejoin="round" fill="none" stroke="#000000" d="M 395.48 506.56 L 463.48503 506.56 L 463.48503 539.64 L 395.48 539.64 Z "/>
<g id="Layer-1" data-name="P">
<clipPath id="cp673">
<path transform="matrix(1,0,0,-1,0,841.5)" d="M .000008862 0 L 594.75 0 L 594.75 841.5 L .000008862 841.5 Z " fill-rule="evenodd"/>
</clipPath>
<g clip-path="url(#cp673)">
<text xml:space="preserve" transform="matrix(1 0 -0 1 0 841.5)" font-size="9.025" font-family="ArialNarrow" font-weight="bold"><tspan y="-520.13" x="408.48 413.00154 415.97074 420.49226 424.21958 427.20686 429.44508 433.96659 438.44297 442.96449 447.44087">order goods</tspan></text>
</g>
</g>
<clipPath id="cp674">
<path transform="matrix(1,0,0,-1,0,841.5)" d="M .000061035 841.5 L 594.75 841.5 L 594.75 .00030518 L .000091553 .00024414 " fill-rule="evenodd"/>
</clipPath>
<g clip-path="url(#cp674)">
<path transform="matrix(1,0,0,-1,0,841.5)" stroke-width="1.5" stroke-linecap="round" stroke-linejoin="round" fill="none" stroke="#000000" d="M 429.74 601.06 L 429.51 552.67 "/>
</g>
<clipPath id="cp675">
<path transform="matrix(1,0,0,-1,0,841.5)" d="M .000061035 841.5 L 594.75 841.5 L 594.75 .00030518 L .000091553 .00024414 " fill-rule="evenodd"/>
</clipPath>
<g clip-path="url(#cp675)">
<path transform="matrix(1,0,0,-1,0,841.5)" d="M 434.25 553.84 L 429.45 539.64 L 424.77 553.88 L 434.25 553.84 Z " fill-rule="evenodd"/>
</g>
<clipPath id="cp676">
<path transform="matrix(1,0,0,-1,0,841.5)" d="M -.000061035 841.5 L 594.75 841.5 L 594.75 .00018311 L -.000030518 .00018311 " fill-rule="evenodd"/>
</clipPath>
<g clip-path="url(#cp676)">
<path transform="matrix(1,0,0,-1,0,841.5)" stroke-width="1.5" stroke-linecap="round" stroke-linejoin="round" fill="none" stroke="#000000" d="M 331.57 723.57 L 388.21 693.09 "/>
</g>
<clipPath id="cp677">
<path transform="matrix(1,0,0,-1,0,841.5)" d="M -.000061035 841.5 L 594.75 841.5 L 594.75 .00018311 L -.000030518 .00018311 " fill-rule="evenodd"/>
</clipPath>
<g clip-path="url(#cp677)">
<path transform="matrix(1,0,0,-1,0,841.5)" d="M 389.41 697.83 L 399.69 686.92 L 384.92 689.48 L 389.41 697.83 Z " fill-rule="evenodd"/>
</g>
<clipPath id="cp678">
<path transform="matrix(1,0,0,-1,0,841.5)" d="M -.000061035 841.5 L 594.75 841.5 L 594.75 -.00012207 L -.000061035 -.00012207 " fill-rule="evenodd"/>
</clipPath>
<g clip-path="url(#cp678)">
<path transform="matrix(1,0,0,-1,0,841.5)" stroke-width="1.5" stroke-linecap="round" stroke-linejoin="round" fill="none" stroke="#000000" d="M 429.43 670.19 L 359.7 639.46 "/>
</g>
<clipPath id="cp679">
<path transform="matrix(1,0,0,-1,0,841.5)" d="M -.000061035 841.5 L 594.75 841.5 L 594.75 -.00012207 L -.000061035 -.00012207 " fill-rule="evenodd"/>
</clipPath>
<g clip-path="url(#cp679)">
<path transform="matrix(1,0,0,-1,0,841.5)" d="M 362.7 635.6 L 347.77 634.2 L 358.87 644.27 L 362.7 635.6 Z " fill-rule="evenodd"/>
</g>
<path transform="matrix(1,0,0,-1,0,841.5)" d="M 362.66 723.74 C 362.66 731.13 348.74 737.12 331.57 737.12 C 314.4 737.12 300.48 731.13 300.48 723.74 C 300.48 716.35 314.4 710.37 331.57 710.37 C 348.74 710.37 362.66 716.35 362.66 723.74 Z " fill="#ffffff" fill-rule="evenodd"/>
<path transform="matrix(1,0,0,-1,0,841.5)" stroke-width="1.5" stroke-linecap="round" stroke-linejoin="round" fill="none" stroke="#000000" d="M 362.66 723.74 C 362.66 731.13 348.74 737.12 331.57 737.12 C 314.4 737.12 300.48 731.13 300.48 723.74 C 300.48 716.35 314.4 710.37 331.57 710.37 C 348.74 710.37 362.66 716.35 362.66 723.74 Z "/>
<g id="Layer-1" data-name="P">
<clipPath id="cp680">
<path transform="matrix(1,0,0,-1,0,841.5)" d="M .000008862 0 L 594.75 0 L 594.75 841.5 L .000008862 841.5 Z " fill-rule="evenodd"/>
</clipPath>
<g clip-path="url(#cp680)">
<text xml:space="preserve" transform="matrix(1 0 -0 1 0 841.5)" font-size="9" font-family="ArialNarrow" font-style="italic"><tspan y="-726.33" x="311.45 313.7 318.191 321.944 326.435 330.188 333.93199 336.17298 338.41398 339.91697 342.90498 346.65797 350.40196">request. res.</tspan></text>
</g>
</g>
<g id="Layer-1" data-name="P">
<clipPath id="cp681">
<path transform="matrix(1,0,0,-1,0,841.5)" d="M .000008862 0 L 594.75 0 L 594.75 841.5 L .000008862 841.5 Z " fill-rule="evenodd"/>
</clipPath>
<g clip-path="url(#cp681)">
<text xml:space="preserve" transform="matrix(1 0 -0 1 0 841.5)" font-size="9" font-family="ArialNarrow" font-weight="bold"><tspan y="-726.33" x="352.52"> </tspan></text>
</g>
</g>
<g id="Layer-1" data-name="P">
<clipPath id="cp682">
<path transform="matrix(1,0,0,-1,0,841.5)" d="M .000008862 0 L 594.75 0 L 594.75 841.5 L .000008862 841.5 Z " fill-rule="evenodd"/>
</clipPath>
<g clip-path="url(#cp682)">
<text xml:space="preserve" transform="matrix(1 0 -0 1 0 841.5)" font-size="9.025" font-family="ArialNarrow" font-weight="bold"><tspan y="-715.53" x="316.38 318.62724 322.3726 326.8941 330.62144 333.6087 336.60499 338.8432 341.08143 344.83583">("hat", 1)</tspan></text>
</g>
</g>
<path transform="matrix(1,0,0,-1,0,841.5)" d="M 362.34 622.87 C 362.34 630.26 348.42 636.24 331.25 636.24 C 314.08 636.24 300.15 630.26 300.15 622.87 C 300.15 615.48 314.08 609.49 331.25 609.49 C 348.42 609.49 362.34 615.48 362.34 622.87 Z " fill="#ffffff" fill-rule="evenodd"/>
<path transform="matrix(1,0,0,-1,0,841.5)" stroke-width="1.5" stroke-linecap="round" stroke-linejoin="round" fill="none" stroke="#000000" d="M 362.34 622.87 C 362.34 630.26 348.42 636.24 331.25 636.24 C 314.08 636.24 300.15 630.26 300.15 622.87 C 300.15 615.48 314.08 609.49 331.25 609.49 C 348.42 609.49 362.34 615.48 362.34 622.87 Z "/>
<g id="Layer-1" data-name="P">
<clipPath id="cp683">
<path transform="matrix(1,0,0,-1,0,841.5)" d="M .000008862 0 L 594.75 0 L 594.75 841.5 L .000008862 841.5 Z " fill-rule="evenodd"/>
</clipPath>
<g clip-path="url(#cp683)">
<text xml:space="preserve" transform="matrix(1 0 -0 1 0 841.5)" font-size="9" font-family="ArialNarrow" font-style="italic"><tspan y="-625.38" x="311.95 315.703 318.691 322.444 326.935 328.438 332.929 336.68199 338.92298 341.17298 345.66398 349.40797">granted res.</tspan></text>
</g>
</g>
<g id="Layer-1" data-name="P">
<clipPath id="cp684">
<path transform="matrix(1,0,0,-1,0,841.5)" d="M .000008862 0 L 594.75 0 L 594.75 841.5 L .000008862 841.5 Z " fill-rule="evenodd"/>
</clipPath>
<g clip-path="url(#cp684)">
<text xml:space="preserve" transform="matrix(1 0 -0 1 0 841.5)" font-size="9" font-family="ArialNarrow" font-weight="bold"><tspan y="-625.38" x="351.4"> </tspan></text>
</g>
</g>
<g id="Layer-1" data-name="P">
<clipPath id="cp685">
<path transform="matrix(1,0,0,-1,0,841.5)" d="M .000008862 0 L 594.75 0 L 594.75 841.5 L .000008862 841.5 Z " fill-rule="evenodd"/>
</clipPath>
<g clip-path="url(#cp685)">
<text xml:space="preserve" transform="matrix(1 0 -0 1 0 841.5)" font-size="9" font-family="ArialNarrow" font-weight="bold"><tspan y="-614.55" x="316.05 318.3 322.044 326.553 330.29704 333.28504 336.28205 338.52305 340.76405 344.51704">("hat", 1)</tspan></text>
</g>
</g>
<path transform="matrix(1,0,0,-1,0,841.5)" d="M 395.43 652.38 L 463.435 652.38 L 463.435 686.912 L 395.43 686.912 Z " fill="#ffffff" fill-rule="evenodd"/>
<path transform="matrix(1,0,0,-1,0,841.5)" stroke-width="2" stroke-linecap="round" stroke-linejoin="round" fill="none" stroke="#000000" d="M 395.43 652.38 L 463.435 652.38 L 463.435 686.912 L 395.43 686.912 Z "/>
<g id="Layer-1" data-name="P">
<clipPath id="cp686">
<path transform="matrix(1,0,0,-1,0,841.5)" d="M .000008862 0 L 594.75 0 L 594.75 841.5 L .000008862 841.5 Z " fill-rule="evenodd"/>
</clipPath>
<g clip-path="url(#cp686)">
<text xml:space="preserve" transform="matrix(1 0 -0 1 0 841.5)" font-size="9" font-family="ArialNarrow" font-weight="bold"><tspan y="-677.6" x="408.63 413.139 416.118 419.871 424.38 427.359 428.862 431.85 436.341 440.094 442.335 444.576 449.085 451.326">grant res. of </tspan></text>
</g>
</g>
<g id="Layer-1" data-name="P">
<clipPath id="cp687">
<path transform="matrix(1,0,0,-1,0,841.5)" d="M .000008862 0 L 594.75 0 L 594.75 841.5 L .000008862 841.5 Z " fill-rule="evenodd"/>
</clipPath>
<g clip-path="url(#cp687)">
<text xml:space="preserve" transform="matrix(1 0 -0 1 0 841.5)" font-size="9" font-family="ArialNarrow" font-weight="bold"><tspan y="-666.8" x="409.85 414.359 417.392 421.901 426.437 430.946 434.73503 437.75004 441.52104 443.78904 446.05705 450.56605">products in </tspan></text>
</g>
</g>
<g id="Layer-1" data-name="P">
<clipPath id="cp688">
<path transform="matrix(1,0,0,-1,0,841.5)" d="M .000008862 0 L 594.75 0 L 594.75 841.5 L .000008862 841.5 Z " fill-rule="evenodd"/>
</clipPath>
<g clip-path="url(#cp688)">
<text xml:space="preserve" transform="matrix(1 0 -0 1 0 841.5)" font-size="9" font-family="ArialNarrow" font-weight="bold"><tspan y="-655.97" x="420.33 424.08299 427.07099 431.58 435.324">stock</tspan></text>
</g>
</g>
<clipPath id="cp689">
<path transform="matrix(1,0,0,-1,0,841.5)" d="M .000030518 841.5 L 594.75 841.5 L 594.75 .00012207 L .000030518 .00012207 " fill-rule="evenodd"/>
</clipPath>
<g clip-path="url(#cp689)">
<path transform="matrix(1,0,0,-1,0,841.5)" stroke-width="1.5" stroke-linecap="round" stroke-linejoin="round" fill="none" stroke="#000000" d="M 429.75 758.13 L 429.75 699.95 "/>
</g>
<clipPath id="cp690">
<path transform="matrix(1,0,0,-1,0,841.5)" d="M .000030518 841.5 L 594.75 841.5 L 594.75 .00012207 L .000030518 .00012207 " fill-rule="evenodd"/>
</clipPath>
<g clip-path="url(#cp690)">
<path transform="matrix(1,0,0,-1,0,841.5)" d="M 434.49 701.14 L 429.75 686.92 L 425.01 701.14 L 434.49 701.14 Z " fill-rule="evenodd"/>
</g>
<path transform="matrix(1,0,0,-1,0,841.5)" d="M 460.84 601.23 C 460.84 608.62 446.91 614.61 429.74 614.61 C 412.57 614.61 398.65 608.62 398.65 601.23 C 398.65 593.84 412.57 587.86 429.74 587.86 C 446.91 587.86 460.84 593.84 460.84 601.23 Z " fill="#ffffff" fill-rule="evenodd"/>
<path transform="matrix(1,0,0,-1,0,841.5)" stroke-width="1.5" stroke-linecap="round" stroke-linejoin="round" fill="none" stroke="#000000" d="M 460.84 601.23 C 460.84 608.62 446.91 614.61 429.74 614.61 C 412.57 614.61 398.65 608.62 398.65 601.23 C 398.65 593.84 412.57 587.86 429.74 587.86 C 446.91 587.86 460.84 593.84 460.84 601.23 Z "/>
<g id="Layer-1" data-name="P">
<clipPath id="cp691">
<path transform="matrix(1,0,0,-1,0,841.5)" d="M .000008862 0 L 594.75 0 L 594.75 841.5 L .000008862 841.5 Z " fill-rule="evenodd"/>
</clipPath>
<g clip-path="url(#cp691)">
<text xml:space="preserve" transform="matrix(1 0 -0 1 0 841.5)" font-size="9.025" font-family="ArialNarrow" font-style="italic"><tspan y="-603.72" x="415.08 418.85243 423.3649 425.60313 429.37556 433.88804 437.66047 441.4239">database</tspan></text>
</g>
</g>
<g id="Layer-1" data-name="P">
<clipPath id="cp692">
<path transform="matrix(1,0,0,-1,0,841.5)" d="M .000008862 0 L 594.75 0 L 594.75 841.5 L .000008862 841.5 Z " fill-rule="evenodd"/>
</clipPath>
<g clip-path="url(#cp692)">
<text xml:space="preserve" transform="matrix(1 0 -0 1 0 841.5)" font-size="9" font-family="ArialNarrow" font-weight="bold"><tspan y="-592.9" x="414.68 416.93 420.674 425.183 428.92704 431.91505 434.91206 437.15306 439.39405 443.14704">("hat", 0)</tspan></text>
</g>
</g>
<path transform="matrix(1,0,0,-1,0,841.5)" d="M 460.66 752.39 C 460.66 759.78 446.73 765.77 429.56 765.77 C 412.39 765.77 398.47 759.78 398.47 752.39 C 398.47 745.01 412.39 739.02 429.56 739.02 C 446.73 739.02 460.66 745.01 460.66 752.39 Z " fill="#ffffff" fill-rule="evenodd"/>
<path transform="matrix(1,0,0,-1,0,841.5)" stroke-width="1.5" stroke-linecap="round" stroke-linejoin="round" fill="none" stroke="#000000" d="M 460.66 752.39 C 460.66 759.78 446.73 765.77 429.56 765.77 C 412.39 765.77 398.47 759.78 398.47 752.39 C 398.47 745.01 412.39 739.02 429.56 739.02 C 446.73 739.02 460.66 745.01 460.66 752.39 Z "/>
<g id="Layer-1" data-name="P">
<clipPath id="cp693">
<path transform="matrix(1,0,0,-1,0,841.5)" d="M .000008862 0 L 594.75 0 L 594.75 841.5 L .000008862 841.5 Z " fill-rule="evenodd"/>
</clipPath>
<g clip-path="url(#cp693)">
<text xml:space="preserve" transform="matrix(1 0 -0 1 0 841.5)" font-size="9" font-family="ArialNarrow" font-style="italic"><tspan y="-755" x="414.9 418.65299 423.14399 425.38499 429.13798 433.62898 437.38197 441.12596">database</tspan></text>
</g>
</g>
<g id="Layer-1" data-name="P">
<clipPath id="cp694">
<path transform="matrix(1,0,0,-1,0,841.5)" d="M .000008862 0 L 594.75 0 L 594.75 841.5 L .000008862 841.5 Z " fill-rule="evenodd"/>
</clipPath>
<g clip-path="url(#cp694)">
<text xml:space="preserve" transform="matrix(1 0 -0 1 0 841.5)" font-size="9.025" font-family="ArialNarrow" font-weight="bold"><tspan y="-744.2" x="414.5 416.74723 420.49259 425.0141 428.74143 431.7287 434.72499 436.9632 439.20143 442.9558">("hat", 1)</tspan></text>
</g>
</g>
<clipPath id="cp695">
<path transform="matrix(1,0,0,-1,0,841.5)" d="M .000030518 841.5 L 594.75 841.5 L 594.75 .00018311 L .000030518 .00018311 " fill-rule="evenodd"/>
</clipPath>
<g clip-path="url(#cp695)">
<path transform="matrix(1,0,0,-1,0,841.5)" stroke-width="1.5" stroke-linecap="round" stroke-linejoin="round" fill="none" stroke="#000000" d="M 429.59 651.39 L 429.59 627.64 "/>
</g>
<clipPath id="cp696">
<path transform="matrix(1,0,0,-1,0,841.5)" d="M .000030518 841.5 L 594.75 841.5 L 594.75 .00018311 L .000030518 .00018311 " fill-rule="evenodd"/>
</clipPath>
<g clip-path="url(#cp696)">
<path transform="matrix(1,0,0,-1,0,841.5)" d="M 434.33 628.83 L 429.59 614.61 L 424.85 628.83 L 434.33 628.83 Z " fill-rule="evenodd"/>
</g>
<path transform="matrix(1,0,0,-1,0,841.5)" d="M 56.821 555.2 L 262.011 555.2 L 262.011 779.14 L 56.821 779.14 Z " fill="#92d050" fill-opacity=".18824" fill-rule="evenodd"/>
<clipPath id="cp697">
<path transform="matrix(1,0,0,-1,0,841.5)" d="M -.000007629 841.5 L 594.75 841.5 L 594.75 .00018311 L 0 .00018311 " fill-rule="evenodd"/>
</clipPath>
<g clip-path="url(#cp697)">
<path transform="matrix(1,0,0,-1,0,841.5)" stroke-width="1.5" stroke-linecap="round" stroke-linejoin="round" fill="none" stroke="#000000" d="M 57.581 723.86 L 114.15 692.53 "/>
</g>
<clipPath id="cp698">
<path transform="matrix(1,0,0,-1,0,841.5)" d="M -.000007629 841.5 L 594.75 841.5 L 594.75 .00018311 L 0 .00018311 " fill-rule="evenodd"/>
</clipPath>
<g clip-path="url(#cp698)">
<path transform="matrix(1,0,0,-1,0,841.5)" d="M 115.41 697.25 L 125.55 686.22 L 110.82 688.96 L 115.41 697.25 Z " fill-rule="evenodd"/>
</g>
<clipPath id="cp699">
<path transform="matrix(1,0,0,-1,0,841.5)" d="M 0 841.5 L 594.75 841.5 L 594.75 -.000061035 L .000030518 0 " fill-rule="evenodd"/>
</clipPath>
<g clip-path="url(#cp699)">
<path transform="matrix(1,0,0,-1,0,841.5)" stroke-width="1.5" stroke-linecap="round" stroke-linejoin="round" fill="none" stroke="#000000" d="M 155.44 669.9 L 87.751 628.66 "/>
</g>
<clipPath id="cp700">
<path transform="matrix(1,0,0,-1,0,841.5)" d="M 0 841.5 L 594.75 841.5 L 594.75 -.000061035 L .000030518 0 " fill-rule="evenodd"/>
</clipPath>
<g clip-path="url(#cp700)">
<path transform="matrix(1,0,0,-1,0,841.5)" d="M 91.229 625.22 L 76.62 621.87 L 86.297 633.32 L 91.229 625.22 Z " fill-rule="evenodd"/>
</g>
<path transform="matrix(1,0,0,-1,0,841.5)" d="M 88.675 724.03 C 88.675 731.42 74.754 737.4 57.581 737.4 C 40.408 737.4 26.487 731.42 26.487 724.03 C 26.487 716.64 40.408 710.65 57.581 710.65 C 74.754 710.65 88.675 716.64 88.675 724.03 Z " fill="#ffffff" fill-rule="evenodd"/>
<path transform="matrix(1,0,0,-1,0,841.5)" stroke-width="1.5" stroke-linecap="round" stroke-linejoin="round" fill="none" stroke="#000000" d="M 88.675 724.03 C 88.675 731.42 74.754 737.4 57.581 737.4 C 40.408 737.4 26.487 731.42 26.487 724.03 C 26.487 716.64 40.408 710.65 57.581 710.65 C 74.754 710.65 88.675 716.64 88.675 724.03 Z "/>
<g id="Layer-1" data-name="P">
<clipPath id="cp701">
<path transform="matrix(1,0,0,-1,0,841.5)" d="M .000008862 0 L 594.75 0 L 594.75 841.5 L .000008862 841.5 Z " fill-rule="evenodd"/>
</clipPath>
<g clip-path="url(#cp701)">
<text xml:space="preserve" transform="matrix(1 0 -0 1 0 841.5)" font-size="9" font-family="ArialNarrow" font-style="italic"><tspan y="-726.63" x="31.975 34.225 38.743 42.496 47.014 50.767 54.510999 56.751996 58.992994 60.49599 63.48399 67.23699 70.980998 74.73399 77.72199 81.465999">request. reserv.</tspan></text>
</g>
</g>
<g id="Layer-1" data-name="P">
<clipPath id="cp702">
<path transform="matrix(1,0,0,-1,0,841.5)" d="M .000008862 0 L 594.75 0 L 594.75 841.5 L .000008862 841.5 Z " fill-rule="evenodd"/>
</clipPath>
<g clip-path="url(#cp702)">
<text xml:space="preserve" transform="matrix(1 0 -0 1 0 841.5)" font-size="9" font-family="ArialNarrow" font-weight="bold"><tspan y="-726.63" x="83.325"> </tspan></text>
</g>
</g>
<g id="Layer-1" data-name="P">
<clipPath id="cp703">
<path transform="matrix(1,0,0,-1,0,841.5)" d="M .000008862 0 L 594.75 0 L 594.75 841.5 L .000008862 841.5 Z " fill-rule="evenodd"/>
</clipPath>
<g clip-path="url(#cp703)">
<text xml:space="preserve" transform="matrix(1 0 -0 1 0 841.5)" font-size="9" font-family="ArialNarrow" font-weight="bold"><tspan y="-715.8" x="36.9 39.15 42.894 46.647 51.156 55.664999 60.137998 63.890996 67.634998 69.876 72.117008 75.87001">("shoes", 2)</tspan></text>
</g>
</g>
<path transform="matrix(1,0,0,-1,0,841.5)" d="M 88.675 610.9 C 88.675 618.29 74.754 624.28 57.581 624.28 C 40.408 624.28 26.487 618.29 26.487 610.9 C 26.487 603.52 40.408 597.53 57.581 597.53 C 74.754 597.53 88.675 603.52 88.675 610.9 Z " fill="#ffffff" fill-rule="evenodd"/>
<path transform="matrix(1,0,0,-1,0,841.5)" stroke-width="1.5" stroke-linecap="round" stroke-linejoin="round" fill="none" stroke="#000000" d="M 88.675 610.9 C 88.675 618.29 74.754 624.28 57.581 624.28 C 40.408 624.28 26.487 618.29 26.487 610.9 C 26.487 603.52 40.408 597.53 57.581 597.53 C 74.754 597.53 88.675 603.52 88.675 610.9 Z "/>
<g id="Layer-1" data-name="P">
<clipPath id="cp704">
<path transform="matrix(1,0,0,-1,0,841.5)" d="M .000008862 0 L 594.75 0 L 594.75 841.5 L .000008862 841.5 Z " fill-rule="evenodd"/>
</clipPath>
<g clip-path="url(#cp704)">
<text xml:space="preserve" transform="matrix(1 0 -0 1 0 841.5)" font-size="9" font-family="ArialNarrow" font-style="italic"><tspan y="-613.4" x="37.925 41.696 44.711 48.482 53 54.503004 59.021005 62.792005 65.060009 67.337009 71.85501 75.61701">granted res.</tspan></text>
</g>
</g>
<g id="Layer-1" data-name="P">
<clipPath id="cp705">
<path transform="matrix(1,0,0,-1,0,841.5)" d="M .000008862 0 L 594.75 0 L 594.75 841.5 L .000008862 841.5 Z " fill-rule="evenodd"/>
</clipPath>
<g clip-path="url(#cp705)">
<text xml:space="preserve" transform="matrix(1 0 -0 1 0 841.5)" font-size="9" font-family="ArialNarrow" font-weight="bold"><tspan y="-613.4" x="77.375"> </tspan></text>
</g>
</g>
<g id="Layer-1" data-name="P">
<clipPath id="cp706">
<path transform="matrix(1,0,0,-1,0,841.5)" d="M .000008862 0 L 594.75 0 L 594.75 841.5 L .000008862 841.5 Z " fill-rule="evenodd"/>
</clipPath>
<g clip-path="url(#cp706)">
<text xml:space="preserve" transform="matrix(1 0 -0 1 0 841.5)" font-size="9" font-family="ArialNarrow" font-weight="bold"><tspan y="-602.58" x="36.9 39.15 42.894 46.647 51.156 55.664999 60.137998 63.890996 67.634998 69.876 72.117008 75.87001">("shoes", 2)</tspan></text>
</g>
</g>
<path transform="matrix(1,0,0,-1,0,841.5)" d="M 121.44 652.53 L 189.445 652.53 L 189.445 686.21206 L 121.44 686.21206 Z " fill="#ffffff" fill-rule="evenodd"/>
<path transform="matrix(1,0,0,-1,0,841.5)" stroke-width="2" stroke-linecap="round" stroke-linejoin="round" fill="none" stroke="#000000" d="M 121.44 652.53 L 189.445 652.53 L 189.445 686.21206 L 121.44 686.21206 Z "/>
<g id="Layer-1" data-name="P">
<clipPath id="cp707">
<path transform="matrix(1,0,0,-1,0,841.5)" d="M .000008862 0 L 594.75 0 L 594.75 841.5 L .000008862 841.5 Z " fill-rule="evenodd"/>
</clipPath>
<g clip-path="url(#cp707)">
<text xml:space="preserve" transform="matrix(1 0 -0 1 0 841.5)" font-size="9" font-family="ArialNarrow" font-weight="bold"><tspan y="-677.33" x="134.3 138.809 141.78801 145.54102 150.05002 153.02902 154.53203 157.52004 162.01103 165.76404 168.00504 170.24604 174.75504 176.99604">grant res. of </tspan></text>
</g>
</g>
<g id="Layer-1" data-name="P">
<clipPath id="cp708">
<path transform="matrix(1,0,0,-1,0,841.5)" d="M .000008862 0 L 594.75 0 L 594.75 841.5 L .000008862 841.5 Z " fill-rule="evenodd"/>
</clipPath>
<g clip-path="url(#cp708)">
<text xml:space="preserve" transform="matrix(1 0 -0 1 0 841.5)" font-size="9" font-family="ArialNarrow" font-weight="bold"><tspan y="-666.53" x="135.52 140.029 143.00801 147.51702 152.02602 156.50803 160.26103 163.24904 167.00205 169.24304 171.48404 175.99304">products in </tspan></text>
</g>
</g>
<g id="Layer-1" data-name="P">
<clipPath id="cp709">
<path transform="matrix(1,0,0,-1,0,841.5)" d="M .000008862 0 L 594.75 0 L 594.75 841.5 L .000008862 841.5 Z " fill-rule="evenodd"/>
</clipPath>
<g clip-path="url(#cp709)">
<text xml:space="preserve" transform="matrix(1 0 -0 1 0 841.5)" font-size="9" font-family="ArialNarrow" font-weight="bold"><tspan y="-655.7" x="146 149.753 152.74102 157.25002 160.99402">stock</tspan></text>
</g>
</g>
<clipPath id="cp710">
<path transform="matrix(1,0,0,-1,0,841.5)" d="M .000015259 841.5 L 594.75 841.5 L 594.75 .00018311 L .000015259 .00018311 " fill-rule="evenodd"/>
</clipPath>
<g clip-path="url(#cp710)">
<path transform="matrix(1,0,0,-1,0,841.5)" stroke-width="1.5" stroke-linecap="round" stroke-linejoin="round" fill="none" stroke="#000000" d="M 155.76 735.66 L 155.76 699.25 "/>
</g>
<clipPath id="cp711">
<path transform="matrix(1,0,0,-1,0,841.5)" d="M .000015259 841.5 L 594.75 841.5 L 594.75 .00018311 L .000015259 .00018311 " fill-rule="evenodd"/>
</clipPath>
<g clip-path="url(#cp711)">
<path transform="matrix(1,0,0,-1,0,841.5)" d="M 160.5 700.44 L 155.76 686.22 L 151.02 700.44 L 160.5 700.44 Z " fill-rule="evenodd"/>
</g>
<path transform="matrix(1,0,0,-1,0,841.5)" d="M 186.46 583.76 C 186.46 591.15 172.54 597.13 155.37 597.13 C 138.19 597.13 124.27 591.15 124.27 583.76 C 124.27 576.37 138.19 570.38 155.37 570.38 C 172.54 570.38 186.46 576.37 186.46 583.76 Z " fill="#ffffff" fill-rule="evenodd"/>
<path transform="matrix(1,0,0,-1,0,841.5)" stroke-width="1.5" stroke-linecap="round" stroke-linejoin="round" fill="none" stroke="#000000" d="M 186.46 583.76 C 186.46 591.15 172.54 597.13 155.37 597.13 C 138.19 597.13 124.27 591.15 124.27 583.76 C 124.27 576.37 138.19 570.38 155.37 570.38 C 172.54 570.38 186.46 576.37 186.46 583.76 Z "/>
<g id="Layer-1" data-name="P">
<clipPath id="cp712">
<path transform="matrix(1,0,0,-1,0,841.5)" d="M .000008862 0 L 594.75 0 L 594.75 841.5 L .000008862 841.5 Z " fill-rule="evenodd"/>
</clipPath>
<g clip-path="url(#cp712)">
<text xml:space="preserve" transform="matrix(1 0 -0 1 0 841.5)" font-size="9" font-family="ArialNarrow" font-style="italic"><tspan y="-586.22" x="140.35 144.12102 148.63903 150.90703 154.67804 159.19605 162.96706 166.72907">database</tspan></text>
</g>
</g>
<g id="Layer-1" data-name="P">
<clipPath id="cp713">
<path transform="matrix(1,0,0,-1,0,841.5)" d="M .000008862 0 L 594.75 0 L 594.75 841.5 L .000008862 841.5 Z " fill-rule="evenodd"/>
</clipPath>
<g clip-path="url(#cp713)">
<text xml:space="preserve" transform="matrix(1 0 -0 1 0 841.5)" font-size="9" font-family="ArialNarrow" font-weight="bold"><tspan y="-586.22" x="170.78"> </tspan></text>
</g>
</g>
<g id="Layer-1" data-name="P">
<clipPath id="cp714">
<path transform="matrix(1,0,0,-1,0,841.5)" d="M .000008862 0 L 594.75 0 L 594.75 841.5 L .000008862 841.5 Z " fill-rule="evenodd"/>
</clipPath>
<g clip-path="url(#cp714)">
<text xml:space="preserve" transform="matrix(1 0 -0 1 0 841.5)" font-size="9" font-family="ArialNarrow" font-weight="bold"><tspan y="-575.4" x="134.8 137.07701 140.83902 144.61003 149.11904 153.65503 158.17304 161.94405 165.70606 167.97406 170.24207 174.01308">("shoes", 1)</tspan></text>
</g>
</g>
<path transform="matrix(1,0,0,-1,0,841.5)" d="M 186.67 751.18 C 186.67 758.57 172.75 764.56 155.57 764.56 C 138.4 764.56 124.48 758.57 124.48 751.18 C 124.48 743.8 138.4 737.81 155.57 737.81 C 172.75 737.81 186.67 743.8 186.67 751.18 Z " fill="#ffffff" fill-rule="evenodd"/>
<path transform="matrix(1,0,0,-1,0,841.5)" stroke-width="1.5" stroke-linecap="round" stroke-linejoin="round" fill="none" stroke="#000000" d="M 186.67 751.18 C 186.67 758.57 172.75 764.56 155.57 764.56 C 138.4 764.56 124.48 758.57 124.48 751.18 C 124.48 743.8 138.4 737.81 155.57 737.81 C 172.75 737.81 186.67 743.8 186.67 751.18 Z "/>
<g id="Layer-1" data-name="P">
<clipPath id="cp715">
<path transform="matrix(1,0,0,-1,0,841.5)" d="M .000008862 0 L 594.75 0 L 594.75 841.5 L .000008862 841.5 Z " fill-rule="evenodd"/>
</clipPath>
<g clip-path="url(#cp715)">
<text xml:space="preserve" transform="matrix(1 0 -0 1 0 841.5)" font-size="9" font-family="ArialNarrow" font-style="italic"><tspan y="-753.8" x="140.58 144.33301 148.824 151.065 154.81801 159.309 163.06201 166.80602">database</tspan></text>
</g>
</g>
<g id="Layer-1" data-name="P">
<clipPath id="cp716">
<path transform="matrix(1,0,0,-1,0,841.5)" d="M .000008862 0 L 594.75 0 L 594.75 841.5 L .000008862 841.5 Z " fill-rule="evenodd"/>
</clipPath>
<g clip-path="url(#cp716)">
<text xml:space="preserve" transform="matrix(1 0 -0 1 0 841.5)" font-size="9" font-family="ArialNarrow" font-weight="bold"><tspan y="-742.97" x="135.03 137.28 141.024 144.77701 149.28601 153.79502 158.26802 162.02103 165.76503 168.00603 170.24703 174.00003">("shoes", 3)</tspan></text>
</g>
</g>
<clipPath id="cp717">
<path transform="matrix(1,0,0,-1,0,841.5)" d="M 0 841.5 L 594.75 841.5 L 594.75 .00018311 L 0 .00018311 " fill-rule="evenodd"/>
</clipPath>
<g clip-path="url(#cp717)">
<path transform="matrix(1,0,0,-1,0,841.5)" stroke-width="1.5" stroke-linecap="round" stroke-linejoin="round" fill="none" stroke="#000000" d="M 155.37 652.64 L 155.37 609.99 "/>
</g>
<clipPath id="cp718">
<path transform="matrix(1,0,0,-1,0,841.5)" d="M 0 841.5 L 594.75 841.5 L 594.75 .00018311 L 0 .00018311 " fill-rule="evenodd"/>
</clipPath>
<g clip-path="url(#cp718)">
<path transform="matrix(1,0,0,-1,0,841.5)" d="M 160.11 611.18 L 155.37 596.96 L 150.63 611.18 L 160.11 611.18 Z " fill-rule="evenodd"/>
</g>
<g id="Layer-1" data-name="P">
<clipPath id="cp719">
<path transform="matrix(1,0,0,-1,0,841.5)" d="M .000008862 0 L 594.75 0 L 594.75 841.5 L .000008862 841.5 Z " fill-rule="evenodd"/>
</clipPath>
<g clip-path="url(#cp719)">
<text xml:space="preserve" transform="matrix(1 0 -0 1 0 841.5)" font-size="12.025" font-family="ArialNarrow" font-style="italic"><tspan y="-533.03" x="169.73 174.98493 178.7247 180.97338 183.21002 188.45293 190.68958 195.9445 198.9267 201.16335 202.66648 207.90938 210.89157">article list:</tspan></text>
</g>
</g>
<g id="Layer-1" data-name="P">
<clipPath id="cp720">
<path transform="matrix(1,0,0,-1,0,841.5)" d="M .000008862 0 L 594.75 0 L 594.75 841.5 L .000008862 841.5 Z " fill-rule="evenodd"/>
</clipPath>
<g clip-path="url(#cp720)">
<text xml:space="preserve" transform="matrix(1 0 -0 1 0 841.5)" font-size="12" font-family="ArialNarrow" font-weight="bold"><tspan y="-518.6" x="169.73 173.474 179.486 184.71799 187.70598 190.69399 196.70598 201.93798 204.92598 207.16999 213.18198 219.15798">{p1, p2, p2}</tspan></text>
</g>
</g>
<g id="Layer-1" data-name="P">
<clipPath id="cp721">
<path transform="matrix(1,0,0,-1,0,841.5)" d="M .000008862 0 L 594.75 0 L 594.75 841.5 L .000008862 841.5 Z " fill-rule="evenodd"/>
</clipPath>
<g clip-path="url(#cp721)">
<text xml:space="preserve" transform="matrix(1 0 -0 1 0 841.5)" font-size="12.025" font-family="ArialMT"><tspan y="-504.2" x="169.73">&#x200b;</tspan></text>
</g>
</g>
<g id="Layer-1" data-name="P">
<clipPath id="cp722">
<path transform="matrix(1,0,0,-1,0,841.5)" d="M .000008862 0 L 594.75 0 L 594.75 841.5 L .000008862 841.5 Z " fill-rule="evenodd"/>
</clipPath>
<g clip-path="url(#cp722)">
<text xml:space="preserve" transform="matrix(1 0 -0 1 0 841.5)" font-size="12.025" font-family="ArialNarrow" font-style="italic"><tspan y="-727.85" x="173.4">A</tspan></text>
</g>
</g>
<g id="Layer-1" data-name="P">
<clipPath id="cp723">
<path transform="matrix(1,0,0,-1,0,841.5)" d="M .000008862 0 L 594.75 0 L 594.75 841.5 L .000008862 841.5 Z " fill-rule="evenodd"/>
</clipPath>
<g clip-path="url(#cp723)">
<text xml:space="preserve" transform="matrix(1 0 -0 1 0 841.5)" font-size="12" font-family="ArialNarrow" font-style="italic"><tspan y="-689.25" x="68.8">B</tspan></text>
</g>
</g>
<g id="Layer-1" data-name="P">
<clipPath id="cp724">
<path transform="matrix(1,0,0,-1,0,841.5)" d="M .000008862 0 L 594.75 0 L 594.75 841.5 L .000008862 841.5 Z " fill-rule="evenodd"/>
</clipPath>
<g clip-path="url(#cp724)">
<text xml:space="preserve" transform="matrix(1 0 -0 1 0 841.5)" font-size="12" font-family="ArialNarrow" font-style="italic"><tspan y="-600.17" x="136.8">C</tspan></text>
</g>
</g>
<g id="Layer-1" data-name="P">
<clipPath id="cp725">
<path transform="matrix(1,0,0,-1,0,841.5)" d="M .000008862 0 L 594.75 0 L 594.75 841.5 L .000008862 841.5 Z " fill-rule="evenodd"/>
</clipPath>
<g clip-path="url(#cp725)">
<text xml:space="preserve" transform="matrix(1 0 -0 1 0 841.5)" font-size="12" font-family="ArialNarrow" font-style="italic"><tspan y="-575.78" x="59.6">D</tspan></text>
</g>
</g>
<g id="Layer-1" data-name="P">
<clipPath id="cp726">
<path transform="matrix(1,0,0,-1,0,841.5)" d="M .000008862 0 L 594.75 0 L 594.75 841.5 L .000008862 841.5 Z " fill-rule="evenodd"/>
</clipPath>
<g clip-path="url(#cp726)">
<text xml:space="preserve" transform="matrix(1 0 -0 1 0 841.5)" font-size="12.025" font-family="ArialNarrow" font-style="italic"><tspan y="-727.85" x="442.78">E</tspan></text>
</g>
</g>
<g id="Layer-1" data-name="P">
<clipPath id="cp727">
<path transform="matrix(1,0,0,-1,0,841.5)" d="M .000008862 0 L 594.75 0 L 594.75 841.5 L .000008862 841.5 Z " fill-rule="evenodd"/>
</clipPath>
<g clip-path="url(#cp727)">
<text xml:space="preserve" transform="matrix(1 0 -0 1 0 841.5)" font-size="12" font-family="ArialNarrow" font-style="italic"><tspan y="-693.22" x="343.98">F</tspan></text>
</g>
</g>
<g id="Layer-1" data-name="P">
<clipPath id="cp728">
<path transform="matrix(1,0,0,-1,0,841.5)" d="M .000008862 0 L 594.75 0 L 594.75 841.5 L .000008862 841.5 Z " fill-rule="evenodd"/>
</clipPath>
<g clip-path="url(#cp728)">
<text xml:space="preserve" transform="matrix(1 0 -0 1 0 841.5)" font-size="12.025" font-family="ArialNarrow" font-style="italic"><tspan y="-604.15" x="357.33">G</tspan></text>
</g>
</g>
<g id="Layer-1" data-name="P">
<clipPath id="cp729">
<path transform="matrix(1,0,0,-1,0,841.5)" d="M .000008862 0 L 594.75 0 L 594.75 841.5 L .000008862 841.5 Z " fill-rule="evenodd"/>
</clipPath>
<g clip-path="url(#cp729)">
<text xml:space="preserve" transform="matrix(1 0 -0 1 0 841.5)" font-size="12" font-family="ArialNarrow" font-style="italic"><tspan y="-575.78" x="440.77">H</tspan></text>
</g>
</g>
<g id="Layer-1" data-name="P">
<clipPath id="cp730">
<path transform="matrix(1,0,0,-1,0,841.5)" d="M .000008862 0 L 594.75 0 L 594.75 841.5 L .000008862 841.5 Z " fill-rule="evenodd"/>
</clipPath>
<g clip-path="url(#cp730)">
<text xml:space="preserve" transform="matrix(1 0 -0 1 0 841.5)" font-size="12" font-family="ArialNarrow" font-style="italic"><tspan y="-547.4" x="345.6">I</tspan></text>
</g>
</g>
<g id="Layer-1" data-name="P">
<clipPath id="cp731">
<path transform="matrix(1,0,0,-1,0,841.5)" d="M .000008862 0 L 594.75 0 L 594.75 841.5 L .000008862 841.5 Z " fill-rule="evenodd"/>
</clipPath>
<g clip-path="url(#cp731)">
<text xml:space="preserve" transform="matrix(1 0 -0 1 0 841.5)" font-size="12.025" font-family="ArialNarrow" font-style="italic"><tspan y="-537.2" x="513.83">J</tspan></text>
</g>
</g>
<g id="Layer-1" data-name="P">
<clipPath id="cp732">
<path transform="matrix(1,0,0,-1,0,841.5)" d="M .000008862 0 L 594.75 0 L 594.75 841.5 L .000008862 841.5 Z " fill-rule="evenodd"/>
</clipPath>
<g clip-path="url(#cp732)">
<text xml:space="preserve" transform="matrix(1 0 -0 1 0 841.5)" font-size="12" font-family="ArialNarrow" font-style="italic"><tspan y="-444.13" x="400.45">K</tspan></text>
</g>
</g>
<g id="Layer-1" data-name="P">
<clipPath id="cp733">
<path transform="matrix(1,0,0,-1,0,841.5)" d="M .000008862 0 L 594.75 0 L 594.75 841.5 L .000008862 841.5 Z " fill-rule="evenodd"/>
</clipPath>
<g clip-path="url(#cp733)">
<text xml:space="preserve" transform="matrix(1 0 -0 1 0 841.5)" font-size="12" font-family="ArialNarrow" font-style="italic"><tspan y="-444.13" x="512.55">L</tspan></text>
</g>
</g>
<g id="Layer-1" data-name="P">
<clipPath id="cp734">
<path transform="matrix(1,0,0,-1,0,841.5)" d="M .000008862 0 L 594.75 0 L 594.75 841.5 L .000008862 841.5 Z " fill-rule="evenodd"/>
</clipPath>
<g clip-path="url(#cp734)">
<text xml:space="preserve" transform="matrix(1 0 -0 1 0 841.5)" font-size="12" font-family="ArialNarrow" font-style="italic"><tspan y="-377.17" x="513.17">M</tspan></text>
</g>
</g>
<g id="Layer-1" data-name="P">
<clipPath id="cp735">
<path transform="matrix(1,0,0,-1,0,841.5)" d="M .000008862 0 L 594.75 0 L 594.75 841.5 L .000008862 841.5 Z " fill-rule="evenodd"/>
</clipPath>
<g clip-path="url(#cp735)">
<text xml:space="preserve" transform="matrix(1 0 -0 1 0 841.5)" font-size="12" font-family="ArialNarrow" font-style="italic"><tspan y="-373.2" x="342.42">N</tspan></text>
</g>
</g>
<g id="Layer-1" data-name="P">
<clipPath id="cp736">
<path transform="matrix(1,0,0,-1,0,841.5)" d="M .000008862 0 L 594.75 0 L 594.75 841.5 L .000008862 841.5 Z " fill-rule="evenodd"/>
</clipPath>
<g clip-path="url(#cp736)">
<text xml:space="preserve" transform="matrix(1 0 -0 1 0 841.5)" font-size="12" font-family="ArialNarrow" font-style="italic"><tspan y="-348.8" x="469.88">O</tspan></text>
</g>
</g>
<g id="Layer-1" data-name="P">
<clipPath id="cp737">
<path transform="matrix(1,0,0,-1,0,841.5)" d="M .000008862 0 L 594.75 0 L 594.75 841.5 L .000008862 841.5 Z " fill-rule="evenodd"/>
</clipPath>
<g clip-path="url(#cp737)">
<text xml:space="preserve" transform="matrix(1 0 -0 1 0 841.5)" font-size="12.025" font-family="ArialNarrow" font-style="italic"><tspan y="-636.5" x="172.95">a</tspan></text>
</g>
</g>
<g id="Layer-1" data-name="P">
<clipPath id="cp738">
<path transform="matrix(1,0,0,-1,0,841.5)" d="M .000008862 0 L 594.75 0 L 594.75 841.5 L .000008862 841.5 Z " fill-rule="evenodd"/>
</clipPath>
<g clip-path="url(#cp738)">
<text xml:space="preserve" transform="matrix(1 0 -0 1 0 841.5)" font-size="12.025" font-family="ArialNarrow" font-style="italic"><tspan y="-636.5" x="446.1">b</tspan></text>
</g>
</g>
<g id="Layer-1" data-name="P">
<clipPath id="cp739">
<path transform="matrix(1,0,0,-1,0,841.5)" d="M .000008862 0 L 594.75 0 L 594.75 841.5 L .000008862 841.5 Z " fill-rule="evenodd"/>
</clipPath>
<g clip-path="url(#cp739)">
<text xml:space="preserve" transform="matrix(1 0 -0 1 0 841.5)" font-size="12" font-family="ArialNarrow" font-style="italic"><tspan y="-491.33" x="393.8">c</tspan></text>
</g>
</g>
<g id="Layer-1" data-name="P">
<clipPath id="cp740">
<path transform="matrix(1,0,0,-1,0,841.5)" d="M .000008862 0 L 594.75 0 L 594.75 841.5 L .000008862 841.5 Z " fill-rule="evenodd"/>
</clipPath>
<g clip-path="url(#cp740)">
<text xml:space="preserve" transform="matrix(1 0 -0 1 0 841.5)" font-size="12" font-family="ArialNarrow" font-style="italic"><tspan y="-381.15" x="443.57">d</tspan></text>
</g>
</g>
<g id="Layer-1" data-name="P">
<clipPath id="cp741">
<path transform="matrix(1,0,0,-1,0,841.5)" d="M .000008862 0 L 594.75 0 L 594.75 841.5 L .000008862 841.5 Z " fill-rule="evenodd"/>
</clipPath>
<g clip-path="url(#cp741)">
<text xml:space="preserve" transform="matrix(1 0 -0 1 0 841.5)" font-size="12.025" font-family="ArialNarrow" font-style="italic"><tspan y="-531" x="56.075 58.31165 61.29385 66.548778 74.7859 79.28325 82.26545">items: </tspan></text>
</g>
</g>
<g id="Layer-1" data-name="P">
<clipPath id="cp742">
<path transform="matrix(1,0,0,-1,0,841.5)" d="M .000008862 0 L 594.75 0 L 594.75 841.5 L .000008862 841.5 Z " fill-rule="evenodd"/>
</clipPath>
<g clip-path="url(#cp742)">
<text xml:space="preserve" transform="matrix(1 0 -0 1 0 841.5)" font-size="12" font-family="ArialNarrow" font-weight="bold"><tspan y="-516.57" x="56.075 62.075">p1</tspan></text>
</g>
</g>
<g id="Layer-1" data-name="P">
<clipPath id="cp743">
<path transform="matrix(1,0,0,-1,0,841.5)" d="M .000008862 0 L 594.75 0 L 594.75 841.5 L .000008862 841.5 Z " fill-rule="evenodd"/>
</clipPath>
<g clip-path="url(#cp743)">
<text xml:space="preserve" transform="matrix(1 0 -0 1 0 841.5)" font-size="12" font-family="ArialNarrow"><tspan y="-516.57" x="67.575"> </tspan></text>
</g>
</g>
<g id="Layer-1" data-name="P">
<clipPath id="cp744">
<path transform="matrix(1,0,0,-1,0,841.5)" d="M .000008862 0 L 594.75 0 L 594.75 841.5 L .000008862 841.5 Z " fill-rule="evenodd"/>
</clipPath>
<g clip-path="url(#cp744)">
<text xml:space="preserve" transform="matrix(1 0 -0 1 0 841.5)" font-size="12" font-family="ArialNarrow"><tspan y="-516.57" x="70.3 76.312007 78.592 82.36 85.383998 90.65199 95.93199 101.21199 107.22399 111.747989 115.51598 118.527988 120.80798 126.819988 129.84398 132.85599">= ("shoes", 2), </tspan></text>
</g>
</g>
<g id="Layer-1" data-name="P">
<clipPath id="cp745">
<path transform="matrix(1,0,0,-1,0,841.5)" d="M .000008862 0 L 594.75 0 L 594.75 841.5 L .000008862 841.5 Z " fill-rule="evenodd"/>
</clipPath>
<g clip-path="url(#cp745)">
<text xml:space="preserve" transform="matrix(1 0 -0 1 0 841.5)" font-size="12.025" font-family="ArialNarrow" font-weight="bold"><tspan y="-502.17" x="56.075 62.075029">p2</tspan></text>
</g>
</g>
<g id="Layer-1" data-name="P">
<clipPath id="cp746">
<path transform="matrix(1,0,0,-1,0,841.5)" d="M .000008862 0 L 594.75 0 L 594.75 841.5 L .000008862 841.5 Z " fill-rule="evenodd"/>
</clipPath>
<g clip-path="url(#cp746)">
<text xml:space="preserve" transform="matrix(1 0 -0 1 0 841.5)" font-size="12.025" font-family="ArialNarrow"><tspan y="-502.17" x="67.575"> </tspan></text>
</g>
</g>
<g id="Layer-1" data-name="P">
<clipPath id="cp747">
<path transform="matrix(1,0,0,-1,0,841.5)" d="M .000008862 0 L 594.75 0 L 594.75 841.5 L .000008862 841.5 Z " fill-rule="evenodd"/>
</clipPath>
<g clip-path="url(#cp747)">
<text xml:space="preserve" transform="matrix(1 0 -0 1 0 841.5)" font-size="12.025" font-family="ArialNarrow"><tspan y="-502.17" x="70.3 76.31251 78.585239 82.34906 85.379367 91.39186 96.67084 99.68911 102.71941 105.737689 108.75596 114.034938">= ("hat", 1)</tspan></text>
</g>
</g>
<g id="Layer-1" data-name="P">
<clipPath id="cp748">
<path transform="matrix(1,0,0,-1,0,841.5)" d="M .000008862 0 L 594.75 0 L 594.75 841.5 L .000008862 841.5 Z " fill-rule="evenodd"/>
</clipPath>
<g clip-path="url(#cp748)">
<text xml:space="preserve" transform="matrix(1 0 -0 1 0 841.5)" font-size="12" font-family="ArialMT"><tspan y="-487.75" x="56.075">&#x200b;</tspan></text>
</g>
</g>
</g>
</g>
</svg>
