<?xml version="1.0" encoding="UTF-8" standalone="no"?>
<!DOCTYPE svg PUBLIC "-//W3C//DTD SVG 1.1//EN" "http://www.w3.org/Graphics/SVG/1.1/DTD/svg11.dtd">
<svg xmlns="http://www.w3.org/2000/svg" xmlns:xlink="http://www.w3.org/1999/xlink" version="1.1" width="594.75pt" height="841.5pt" viewBox="0 0 594.75 841.5">
<g enable-background="new">
<g>
<g id="Layer-1" data-name="P">
<clipPath id="cp88">
<path transform="matrix(1,0,0,-1,0,841.5)" d="M .000008862 0 L 594.75 0 L 594.75 841.5 L .000008862 841.5 Z " fill-rule="evenodd"/>
</clipPath>
<g clip-path="url(#cp88)">
<text xml:space="preserve" transform="matrix(1 0 -0 1 0 841.5)" font-size="12.025" font-family="ArialNarrow" font-weight="bold"><tspan y="-565.6" x="43.075 49.099527 52.827276 58.8518 64.828227 70.85275 76.82918 79.81138 85.0663 91.09083 94.81858 98.55835 103.81327">ground sorts </tspan></text>
</g>
</g>
<g id="Layer-1" data-name="P">
<clipPath id="cp89">
<path transform="matrix(1,0,0,-1,0,841.5)" d="M .000008862 0 L 594.75 0 L 594.75 841.5 L .000008862 841.5 Z " fill-rule="evenodd"/>
</clipPath>
<g clip-path="url(#cp89)">
<text xml:space="preserve" transform="matrix(1 0 -0 1 0 841.5)" font-size="12" font-family="ArialNarrow" font-weight="bold"><tspan y="-551.15" x="43.075 49.819 57.307">KN </tspan></text>
</g>
</g>
<g id="Layer-1" data-name="P">
<clipPath id="cp90">
<path transform="matrix(1,0,0,-1,0,841.5)" d="M .000008862 0 L 594.75 0 L 594.75 841.5 L .000008862 841.5 Z " fill-rule="evenodd"/>
</clipPath>
<g clip-path="url(#cp90)">
<text xml:space="preserve" transform="matrix(1 0 -0 1 0 841.5)" font-size="12" font-family="ArialNarrow" font-style="italic"><tspan y="-551.15" x="60.025"> </tspan></text>
</g>
</g>
<g id="Layer-1" data-name="P">
<clipPath id="cp91">
<path transform="matrix(1,0,0,-1,0,841.5)" d="M .000008862 0 L 594.75 0 L 594.75 841.5 L .000008862 841.5 Z " fill-rule="evenodd"/>
</clipPath>
<g clip-path="url(#cp91)">
<text xml:space="preserve" transform="matrix(1 0 -0 1 0 841.5)" font-size="12" font-family="ArialNarrow"><tspan y="-551.15" x="62.775">=</tspan></text>
</g>
</g>
<g id="Layer-1" data-name="P">
<clipPath id="cp92">
<path transform="matrix(1,0,0,-1,0,841.5)" d="M .000008862 0 L 594.75 0 L 594.75 841.5 L .000008862 841.5 Z " fill-rule="evenodd"/>
</clipPath>
<g clip-path="url(#cp92)">
<text xml:space="preserve" transform="matrix(1 0 -0 1 0 841.5)" font-size="12" font-family="ArialNarrow" font-weight="bold"><tspan y="-551.15" x="68.525"> </tspan></text>
</g>
</g>
<g id="Layer-1" data-name="P">
<clipPath id="cp93">
<path transform="matrix(1,0,0,-1,0,841.5)" d="M .000008862 0 L 594.75 0 L 594.75 841.5 L .000008862 841.5 Z " fill-rule="evenodd"/>
</clipPath>
<g clip-path="url(#cp93)">
<text xml:space="preserve" transform="matrix(1 0 -0 1 0 841.5)" font-size="12" font-family="ArialNarrow"><tspan y="-551.15" x="71.275 74.275 81.763 84.751 89.995 92.239009 95.227008 103.45901 108.70301 113.94701 116.94701 119.935009 122.923007 125.16701 128.15502 131.14302 133.38703 136.37502 138.61902 141.60701 144.59502 146.83902 149.82701 152.81502 155.05902 158.04701 161.03502 163.27902 166.26702 169.25502 171.49903 174.48702 177.47502">{Ute, Max}                       </tspan></text>
</g>
</g>
<g id="Layer-1" data-name="P">
<clipPath id="cp94">
<path transform="matrix(1,0,0,-1,0,841.5)" d="M .000008862 0 L 594.75 0 L 594.75 841.5 L .000008862 841.5 Z " fill-rule="evenodd"/>
</clipPath>
<g clip-path="url(#cp94)">
<text xml:space="preserve" transform="matrix(1 0 -0 1 0 841.5)" font-size="12" font-family="ArialNarrow" font-style="italic"><tspan y="-551.15" x="180.3 185.544 190.78801 195.28801 198.27602 203.52002 211.75202 217.74002 220.74002">customers</tspan></text>
</g>
</g>
<g id="Layer-1" data-name="P">
<clipPath id="cp95">
<path transform="matrix(1,0,0,-1,0,841.5)" d="M .000008862 0 L 594.75 0 L 594.75 841.5 L .000008862 841.5 Z " fill-rule="evenodd"/>
</clipPath>
<g clip-path="url(#cp95)">
<text xml:space="preserve" transform="matrix(1 0 -0 1 0 841.5)" font-size="12" font-family="ArialNarrow" font-weight="bold"><tspan y="-536.7" x="43.075 49.819 57.307 60.295">AR  </tspan></text>
</g>
</g>
<g id="Layer-1" data-name="P">
<clipPath id="cp96">
<path transform="matrix(1,0,0,-1,0,841.5)" d="M .000008862 0 L 594.75 0 L 594.75 841.5 L .000008862 841.5 Z " fill-rule="evenodd"/>
</clipPath>
<g clip-path="url(#cp96)">
<text xml:space="preserve" transform="matrix(1 0 -0 1 0 841.5)" font-size="12" font-family="ArialNarrow"><tspan y="-536.7" x="62.775 68.763 71.007 74.75101 77.75101 82.995 88.239009 94.227008 99.47101 103.97101 107.703 110.691 112.935009 116.667 121.911 127.899 130.143 133.87502 136.86302 139.10703 142.83904 148.08304 153.32704 159.31505 161.55905 166.80306 170.53507 173.53507 176.52306 178.76706">= {"shoes", "hat", "pants"}   </tspan></text>
</g>
</g>
<g id="Layer-1" data-name="P">
<clipPath id="cp97">
<path transform="matrix(1,0,0,-1,0,841.5)" d="M .000008862 0 L 594.75 0 L 594.75 841.5 L .000008862 841.5 Z " fill-rule="evenodd"/>
</clipPath>
<g clip-path="url(#cp97)">
<text xml:space="preserve" transform="matrix(1 0 -0 1 0 841.5)" font-size="12" font-family="ArialNarrow" font-style="italic"><tspan y="-536.7" x="182.13 187.37401 191.11801 193.362 195.606 200.85 203.09401 208.33802">articles</tspan></text>
</g>
</g>
<g id="Layer-1" data-name="P">
<clipPath id="cp98">
<path transform="matrix(1,0,0,-1,0,841.5)" d="M .000008862 0 L 594.75 0 L 594.75 841.5 L .000008862 841.5 Z " fill-rule="evenodd"/>
</clipPath>
<g clip-path="url(#cp98)">
<text xml:space="preserve" transform="matrix(1 0 -0 1 0 841.5)" font-size="12" font-family="ArialNarrow" font-weight="bold"><tspan y="-522.25" x="43.075 52.075 59.563">WA </tspan></text>
</g>
</g>
<g id="Layer-1" data-name="P">
<clipPath id="cp99">
<path transform="matrix(1,0,0,-1,0,841.5)" d="M .000008862 0 L 594.75 0 L 594.75 841.5 L .000008862 841.5 Z " fill-rule="evenodd"/>
</clipPath>
<g clip-path="url(#cp99)">
<text xml:space="preserve" transform="matrix(1 0 -0 1 0 841.5)" font-size="12" font-family="ArialNarrow"><tspan y="-522.25" x="62.225 68.213 70.457 74.201007 78.701007 84.689 89.93301 95.17701 100.421009 102.66501 105.65301 110.89701 116.88501 119.12901 122.11701 125.10501 130.34902 135.59302 140.83702 143.82503 149.06903 152.06903 155.05702 157.30103 160.28902 163.27703 165.52103 168.50902 171.49703 173.74103 176.72902">= {shoes, hat, pants}          </tspan></text>
</g>
</g>
<g id="Layer-1" data-name="P">
<clipPath id="cp100">
<path transform="matrix(1,0,0,-1,0,841.5)" d="M .000008862 0 L 594.75 0 L 594.75 841.5 L .000008862 841.5 Z " fill-rule="evenodd"/>
</clipPath>
<g clip-path="url(#cp100)">
<text xml:space="preserve" transform="matrix(1 0 -0 1 0 841.5)" font-size="12" font-family="ArialNarrow" font-style="italic"><tspan y="-522.25" x="179.75 185.03 191.04199 196.32199 201.60199">goods</tspan></text>
</g>
</g>
<g id="Layer-1" data-name="P">
<clipPath id="cp101">
<path transform="matrix(1,0,0,-1,0,841.5)" d="M .000008862 0 L 594.75 0 L 594.75 841.5 L .000008862 841.5 Z " fill-rule="evenodd"/>
</clipPath>
<g clip-path="url(#cp101)">
<text xml:space="preserve" transform="matrix(1 0 -0 1 0 841.5)" font-size="12" font-family="ArialNarrow" font-weight="bold"><tspan y="-507.8" x="43.075 49.087 55.819 58.063 61.051">TE   </tspan></text>
</g>
</g>
<g id="Layer-1" data-name="P">
<clipPath id="cp102">
<path transform="matrix(1,0,0,-1,0,841.5)" d="M .000008862 0 L 594.75 0 L 594.75 841.5 L .000008862 841.5 Z " fill-rule="evenodd"/>
</clipPath>
<g clip-path="url(#cp102)">
<text xml:space="preserve" transform="matrix(1 0 -0 1 0 841.5)" font-size="12" font-family="ArialNarrow"><tspan y="-507.8" x="63.875 69.887 72.131008 75.89901 81.17901 86.45901 89.44701 94.727008 100.739009 102.98301 105.97101 111.25101 116.531009 119.519008 124.799 130.81099 133.81099 136.799 139.043 142.03099 145.019 147.263 150.25099 153.239 155.483 158.471 161.459 163.703 166.691 168.935 171.92299 174.911 177.155">= {12/23, 12/24}                 </tspan></text>
</g>
</g>
<g id="Layer-1" data-name="P">
<clipPath id="cp103">
<path transform="matrix(1,0,0,-1,0,841.5)" d="M .000008862 0 L 594.75 0 L 594.75 841.5 L .000008862 841.5 Z " fill-rule="evenodd"/>
</clipPath>
<g clip-path="url(#cp103)">
<text xml:space="preserve" transform="matrix(1 0 -0 1 0 841.5)" font-size="12" font-family="ArialNarrow" font-style="italic"><tspan y="-507.8" x="180.33 185.61 191.622 193.90201 199.914">dates</tspan></text>
</g>
</g>
<g id="Layer-1" data-name="P">
<clipPath id="cp104">
<path transform="matrix(1,0,0,-1,0,841.5)" d="M .000008862 0 L 594.75 0 L 594.75 841.5 L .000008862 841.5 Z " fill-rule="evenodd"/>
</clipPath>
<g clip-path="url(#cp104)">
<text xml:space="preserve" transform="matrix(1 0 -0 1 0 841.5)" font-size="12.025" font-family="ArialNarrow" font-weight="bold"><tspan y="-493.38" x="43.075 49.809003 56.543004 58.791677 61.773878">SP   </tspan></text>
</g>
</g>
<g id="Layer-1" data-name="P">
<clipPath id="cp105">
<path transform="matrix(1,0,0,-1,0,841.5)" d="M .000008862 0 L 594.75 0 L 594.75 841.5 L .000008862 841.5 Z " fill-rule="evenodd"/>
</clipPath>
<g clip-path="url(#cp105)">
<text xml:space="preserve" transform="matrix(1 0 -0 1 0 841.5)" font-size="12.025" font-family="ArialNarrow"><tspan y="-493.38" x="64.425 70.43751 72.710239 76.47406 84.73524 90.01421 92.27492 97.553897 100.58419 103.60246 106.620738 114.88191 120.16089 122.42159 124.6823 129.96128 133.7251 135.99782 139.0161 145.77416 150.29557 155.57454 161.58704 163.84774 168.36914 172.13297 174.40569 177.42397">= {Maier, M&#x00fc;ller, Schulz}   </tspan></text>
</g>
</g>
<g id="Layer-1" data-name="P">
<clipPath id="cp106">
<path transform="matrix(1,0,0,-1,0,841.5)" d="M .000008862 0 L 594.75 0 L 594.75 841.5 L .000008862 841.5 Z " fill-rule="evenodd"/>
</clipPath>
<g clip-path="url(#cp106)">
<text xml:space="preserve" transform="matrix(1 0 -0 1 0 841.5)" font-size="12.025" font-family="ArialNarrow" font-style="italic"><tspan y="-493.38" x="179.73 182.71219 185.7064 190.96134 193.19799 199.18643 204.44136 206.69004 209.67223 212.65442 217.90935 220.90357 228.39514 233.65007 237.38985 242.64478 247.8997 251.63948">freight forwarders</tspan></text>
</g>
</g>
<g id="Layer-1" data-name="P">
<clipPath id="cp107">
<path transform="matrix(1,0,0,-1,0,841.5)" d="M .000008862 0 L 594.75 0 L 594.75 841.5 L .000008862 841.5 Z " fill-rule="evenodd"/>
</clipPath>
<g clip-path="url(#cp107)">
<text fill="#ff0000" xml:space="preserve" transform="matrix(1 0 -0 1 0 841.5)" font-size="12.025" font-family="ArialMT"><tspan y="-478.95" x="43.075">&#x200b;</tspan></text>
</g>
</g>
<g id="Layer-1" data-name="P">
<clipPath id="cp108">
<path transform="matrix(1,0,0,-1,0,841.5)" d="M .000008862 0 L 594.75 0 L 594.75 841.5 L .000008862 841.5 Z " fill-rule="evenodd"/>
</clipPath>
<g clip-path="url(#cp108)">
<text xml:space="preserve" transform="matrix(1 0 -0 1 0 841.5)" font-size="12" font-family="ArialNarrow" font-weight="bold"><tspan y="-464.5" x="43.075 49.087 54.319 58.063 61.051 66.295 72.283 78.295 80.539 86.527 92.539 96.283008 99.283008">derived sorts</tspan></text>
</g>
</g>
<g id="Layer-1" data-name="P">
<clipPath id="cp109">
<path transform="matrix(1,0,0,-1,0,841.5)" d="M .000008862 0 L 594.75 0 L 594.75 841.5 L .000008862 841.5 Z " fill-rule="evenodd"/>
</clipPath>
<g clip-path="url(#cp109)">
<text xml:space="preserve" transform="matrix(1 0 -0 1 0 841.5)" font-size="12.025" font-family="ArialNarrow" font-weight="bold"><tspan y="-449.92" x="43.075 49.821027 56.555028 59.537229 62.51943 67.77435 70.75655 73.005229 80.496799 87.24282">AP  =  AR </tspan></text>
</g>
</g>
<g id="Layer-1" data-name="P">
<clipPath id="cp110">
<path transform="matrix(1,0,0,-1,0,841.5)" d="M .000008862 0 L 594.75 0 L 594.75 841.5 L .000008862 841.5 Z " fill-rule="evenodd"/>
</clipPath>
<g clip-path="url(#cp110)">
<text xml:space="preserve" transform="matrix(1 0 -0 1 0 841.5)" font-size="12.025" font-family="SymbolMT"><tspan y="-449.92" x="90.425">&#xf0b4;</tspan></text>
<text xml:space="preserve" transform="matrix(1 0 -0 1 0 841.5)" font-size="12.025" font-family="SymbolMT"><tspan y="-449.92" x="90.425">&#xf0b4;</tspan></text>
</g>
</g>
<g id="Layer-1" data-name="P">
<clipPath id="cp111">
<path transform="matrix(1,0,0,-1,0,841.5)" d="M .000008862 0 L 594.75 0 L 594.75 841.5 L .000008862 841.5 Z " fill-rule="evenodd"/>
</clipPath>
<g clip-path="url(#cp111)">
<text xml:space="preserve" transform="matrix(1 0 -0 1 0 841.5)" font-size="12.025" font-family="ArialNarrow" font-weight="bold"><tspan y="-449.92" x="97.025"> </tspan></text>
</g>
</g>
<clipPath id="cp112">
<path transform="matrix(1,0,0,-1,0,841.5)" d="M .000008862 0 L 594.75 0 L 594.75 841.5 L .000008862 841.5 Z " fill-rule="evenodd"/>
</clipPath>
<g clip-path="url(#cp112)">
<text xml:space="preserve" transform="matrix(1 0 -0 1 0 841.5)" font-size="12.025" font-family="SegoeUISymbol"><tspan y="-449.92" x="99.775">&#x2115;</tspan></text>
<text xml:space="preserve" transform="matrix(1 0 -0 1 0 841.5)" font-size="12.025" font-family="SegoeUISymbol"><tspan y="-449.92" x="99.775">&#x2115;</tspan></text>
</g>
<g id="Layer-1" data-name="P">
<clipPath id="cp113">
<path transform="matrix(1,0,0,-1,0,841.5)" d="M .000008862 0 L 594.75 0 L 594.75 841.5 L .000008862 841.5 Z " fill-rule="evenodd"/>
</clipPath>
<g clip-path="url(#cp113)">
<text xml:space="preserve" transform="matrix(1 0 -0 1 0 841.5)" font-size="12.025" font-family="ArialNarrow" font-weight="bold"><tspan y="-449.92" x="108.98 111.962207 114.21088 117.19308 120.17528">     </tspan></text>
</g>
</g>
<g id="Layer-1" data-name="P">
<clipPath id="cp114">
<path transform="matrix(1,0,0,-1,0,841.5)" d="M .000008862 0 L 594.75 0 L 594.75 841.5 L .000008862 841.5 Z " fill-rule="evenodd"/>
</clipPath>
<g clip-path="url(#cp114)">
<text xml:space="preserve" transform="matrix(1 0 -0 1 0 841.5)" font-size="12.025" font-family="ArialNarrow" font-style="italic"><tspan y="-449.92" x="128.22 130.45665 133.43885 138.69377 146.9309">items</tspan></text>
</g>
</g>
<g id="Layer-1" data-name="P">
<clipPath id="cp115">
<path transform="matrix(1,0,0,-1,0,841.5)" d="M .000008862 0 L 594.75 0 L 594.75 841.5 L .000008862 841.5 Z " fill-rule="evenodd"/>
</clipPath>
<g clip-path="url(#cp115)">
<text xml:space="preserve" transform="matrix(1 0 -0 1 0 841.5)" font-size="12.025" font-family="ArialNarrow" font-weight="bold"><tspan y="-435.42" x="43.075 49.821027 55.84555 58.8037 61.7859 67.040828 70.023029">AL  =  </tspan></text>
</g>
</g>
<g id="Layer-1" data-name="P">
<clipPath id="cp116">
<path transform="matrix(1,0,0,-1,0,841.5)" d="M .000008862 0 L 594.75 0 L 594.75 841.5 L .000008862 841.5 Z " fill-rule="evenodd"/>
</clipPath>
<g clip-path="url(#cp116)">
<text xml:space="preserve" transform="matrix(1 0 -0 1 0 841.5)" font-size="12.025" font-family="ArialNarrow" font-weight="bold" font-style="italic"><tspan y="-435.42" x="72.925">M</tspan></text>
</g>
</g>
<g id="Layer-1" data-name="P">
<clipPath id="cp117">
<path transform="matrix(1,0,0,-1,0,841.5)" d="M .000008862 0 L 594.75 0 L 594.75 841.5 L .000008862 841.5 Z " fill-rule="evenodd"/>
</clipPath>
<g clip-path="url(#cp117)">
<text xml:space="preserve" transform="matrix(1 0 -0 1 0 841.5)" font-size="12.025" font-family="ArialNarrow" font-weight="bold"><tspan y="-435.42" x="81.125 84.119228 91.610797 98.344799">(AP)</tspan></text>
</g>
</g>
<g id="Layer-1" data-name="P">
<clipPath id="cp118">
<path transform="matrix(1,0,0,-1,0,841.5)" d="M .000008862 0 L 594.75 0 L 594.75 841.5 L .000008862 841.5 Z " fill-rule="evenodd"/>
</clipPath>
<g clip-path="url(#cp118)">
<text xml:space="preserve" transform="matrix(1 0 -0 1 0 841.5)" font-size="12.025" font-family="ArialNarrow" font-weight="bold"><tspan y="-435.42" x="101.37"> </tspan></text>
</g>
</g>
<g id="Layer-1" data-name="P">
<clipPath id="cp119">
<path transform="matrix(1,0,0,-1,0,841.5)" d="M .000008862 0 L 594.75 0 L 594.75 841.5 L .000008862 841.5 Z " fill-rule="evenodd"/>
</clipPath>
<g clip-path="url(#cp119)">
<text xml:space="preserve" transform="matrix(1 0 -0 1 0 841.5)" font-size="12.025" font-family="ArialNarrow" font-weight="bold"><tspan y="-435.42" x="104.1 107.0822 109.33087 112.31307 115.29527 117.543949 120.526149">       </tspan></text>
</g>
</g>
<g id="Layer-1" data-name="P">
<clipPath id="cp120">
<path transform="matrix(1,0,0,-1,0,841.5)" d="M .000008862 0 L 594.75 0 L 594.75 841.5 L .000008862 841.5 Z " fill-rule="evenodd"/>
</clipPath>
<g clip-path="url(#cp120)">
<text xml:space="preserve" transform="matrix(1 0 -0 1 0 841.5)" font-size="12.025" font-family="ArialNarrow" font-style="italic"><tspan y="-435.42" x="128.22 133.47493 137.2147 139.46338 141.70003 146.94293 149.17958 154.43451 157.4167 159.65335 161.15648 166.39939 169.38158">article lists</tspan></text>
</g>
</g>
<g id="Layer-1" data-name="P">
<clipPath id="cp121">
<path transform="matrix(1,0,0,-1,0,841.5)" d="M .000008862 0 L 594.75 0 L 594.75 841.5 L .000008862 841.5 Z " fill-rule="evenodd"/>
</clipPath>
<g clip-path="url(#cp121)">
<text xml:space="preserve" transform="matrix(1 0 -0 1 0 841.5)" font-size="12.025" font-family="ArialNarrow" font-weight="bold"><tspan y="-420.98" x="43.075 49.821027 58.05815 61.04035">AM =</tspan></text>
</g>
</g>
<g id="Layer-1" data-name="P">
<clipPath id="cp122">
<path transform="matrix(1,0,0,-1,0,841.5)" d="M .000008862 0 L 594.75 0 L 594.75 841.5 L .000008862 841.5 Z " fill-rule="evenodd"/>
</clipPath>
<g clip-path="url(#cp122)">
<text xml:space="preserve" transform="matrix(1 0 -0 1 0 841.5)" font-size="12.025" font-family="ArialNarrow" font-weight="bold" font-style="italic"><tspan y="-420.98" x="66.9 69.899707">  </tspan></text>
</g>
</g>
<g id="Layer-1" data-name="P">
<clipPath id="cp123">
<path transform="matrix(1,0,0,-1,0,841.5)" d="M .000008862 0 L 594.75 0 L 594.75 841.5 L .000008862 841.5 Z " fill-rule="evenodd"/>
</clipPath>
<g clip-path="url(#cp123)">
<text xml:space="preserve" transform="matrix(1 0 -0 1 0 841.5)" font-size="12.025" font-family="ArialNarrow" font-weight="bold" font-style="italic"><tspan y="-420.98" x="72.375">M</tspan></text>
</g>
</g>
<g id="Layer-1" data-name="P">
<clipPath id="cp124">
<path transform="matrix(1,0,0,-1,0,841.5)" d="M .000008862 0 L 594.75 0 L 594.75 841.5 L .000008862 841.5 Z " fill-rule="evenodd"/>
</clipPath>
<g clip-path="url(#cp124)">
<text xml:space="preserve" transform="matrix(1 0 -0 1 0 841.5)" font-size="12.025" font-family="ArialNarrow" font-weight="bold"><tspan y="-420.98" x="80.575 83.56922 91.06079 97.806819 101.546588 103.79526">(AR)  </tspan></text>
</g>
</g>
<g id="Layer-1" data-name="P">
<clipPath id="cp125">
<path transform="matrix(1,0,0,-1,0,841.5)" d="M .000008862 0 L 594.75 0 L 594.75 841.5 L .000008862 841.5 Z " fill-rule="evenodd"/>
</clipPath>
<g clip-path="url(#cp125)">
<text xml:space="preserve" transform="matrix(1 0 -0 1 0 841.5)" font-size="12.025" font-family="ArialNarrow" font-style="italic"><tspan y="-420.98" x="106.83 109.848278 112.121 115.139278 118.15755">     </tspan></text>
</g>
</g>
<g id="Layer-1" data-name="P">
<clipPath id="cp126">
<path transform="matrix(1,0,0,-1,0,841.5)" d="M .000008862 0 L 594.75 0 L 594.75 841.5 L .000008862 841.5 Z " fill-rule="evenodd"/>
</clipPath>
<g clip-path="url(#cp126)">
<text xml:space="preserve" transform="matrix(1 0 -0 1 0 841.5)" font-size="12.025" font-family="ArialNarrow" font-style="italic"><tspan y="-420.98" x="128.22 133.4629 138.71784 141.70003 146.19738 149.17957 154.4345 157.41669 159.66536 165.65381 168.64803 171.63022 173.86687 178.36421 180.60086 185.85579">sets of articles</tspan></text>
</g>
</g>
<g id="Layer-1" data-name="P">
<clipPath id="cp127">
<path transform="matrix(1,0,0,-1,0,841.5)" d="M .000008862 0 L 594.75 0 L 594.75 841.5 L .000008862 841.5 Z " fill-rule="evenodd"/>
</clipPath>
<g clip-path="url(#cp127)">
<text xml:space="preserve" transform="matrix(1 0 -0 1 0 841.5)" font-size="12.025" font-family="ArialNarrow" font-weight="bold"><tspan y="-406.52" x="43.075 52.069704 60.306829 63.28903 69.27748 71.52615">WM =  </tspan></text>
</g>
</g>
<g id="Layer-1" data-name="P">
<clipPath id="cp128">
<path transform="matrix(1,0,0,-1,0,841.5)" d="M .000008862 0 L 594.75 0 L 594.75 841.5 L .000008862 841.5 Z " fill-rule="evenodd"/>
</clipPath>
<g clip-path="url(#cp128)">
<text xml:space="preserve" transform="matrix(1 0 -0 1 0 841.5)" font-size="12.025" font-family="ArialNarrow" font-weight="bold" font-style="italic"><tspan y="-406.52" x="74.55">M</tspan></text>
</g>
</g>
<g id="Layer-1" data-name="P">
<clipPath id="cp129">
<path transform="matrix(1,0,0,-1,0,841.5)" d="M .000008862 0 L 594.75 0 L 594.75 841.5 L .000008862 841.5 Z " fill-rule="evenodd"/>
</clipPath>
<g clip-path="url(#cp129)">
<text xml:space="preserve" transform="matrix(1 0 -0 1 0 841.5)" font-size="12.025" font-family="ArialNarrow" font-weight="bold"><tspan y="-406.52" x="82.775 85.769229 95.509479 102.2555">(WA)</tspan></text>
</g>
</g>
<g id="Layer-1" data-name="P">
<clipPath id="cp130">
<path transform="matrix(1,0,0,-1,0,841.5)" d="M .000008862 0 L 594.75 0 L 594.75 841.5 L .000008862 841.5 Z " fill-rule="evenodd"/>
</clipPath>
<g clip-path="url(#cp130)">
<text xml:space="preserve" transform="matrix(1 0 -0 1 0 841.5)" font-size="12.025" font-family="ArialNarrow" font-weight="bold"><tspan y="-406.52" x="105.72"> </tspan></text>
</g>
</g>
<g id="Layer-1" data-name="P">
<clipPath id="cp131">
<path transform="matrix(1,0,0,-1,0,841.5)" d="M .000008862 0 L 594.75 0 L 594.75 841.5 L .000008862 841.5 Z " fill-rule="evenodd"/>
</clipPath>
<g clip-path="url(#cp131)">
<text xml:space="preserve" transform="matrix(1 0 -0 1 0 841.5)" font-size="12.025" font-family="ArialNarrow" font-weight="bold"><tspan y="-406.52" x="108.48 111.462207 113.71088 116.69308 119.67528">     </tspan></text>
</g>
</g>
<g id="Layer-1" data-name="P">
<clipPath id="cp132">
<path transform="matrix(1,0,0,-1,0,841.5)" d="M .000008862 0 L 594.75 0 L 594.75 841.5 L .000008862 841.5 Z " fill-rule="evenodd"/>
</clipPath>
<g clip-path="url(#cp132)">
<text xml:space="preserve" transform="matrix(1 0 -0 1 0 841.5)" font-size="12.025" font-family="ArialNarrow" font-style="italic"><tspan y="-406.52" x="128.22 133.4629 138.71784 141.70003 146.19738 149.17957 154.4345 157.41669 159.66536 165.65381 170.90874 176.16367 181.4186">sets of goods</tspan></text>
</g>
</g>
<g id="Layer-1" data-name="P">
<clipPath id="cp133">
<path transform="matrix(1,0,0,-1,0,841.5)" d="M .000008862 0 L 594.75 0 L 594.75 841.5 L .000008862 841.5 Z " fill-rule="evenodd"/>
</clipPath>
<g clip-path="url(#cp133)">
<text xml:space="preserve" transform="matrix(1 0 -0 1 0 841.5)" font-size="12" font-family="ArialNarrow" font-weight="bold"><tspan y="-363.27" x="43.075 48.319 54.331 60.343004 66.307 69.307 74.551 80.563 84.295009">constants</tspan></text>
</g>
</g>
<g id="Layer-1" data-name="P">
<clipPath id="cp134">
<path transform="matrix(1,0,0,-1,0,841.5)" d="M .000008862 0 L 594.75 0 L 594.75 841.5 L .000008862 841.5 Z " fill-rule="evenodd"/>
</clipPath>
<g clip-path="url(#cp134)">
<text xml:space="preserve" transform="matrix(1 0 -0 1 0 841.5)" font-size="12" font-family="ArialNarrow" font-weight="bold"><tspan y="-348.85" x="43.075 49.087 54.319 58.063 60.307 67.795 74.539">p1: AP </tspan></text>
</g>
</g>
<g id="Layer-1" data-name="P">
<clipPath id="cp135">
<path transform="matrix(1,0,0,-1,0,841.5)" d="M .000008862 0 L 594.75 0 L 594.75 841.5 L .000008862 841.5 Z " fill-rule="evenodd"/>
</clipPath>
<g clip-path="url(#cp135)">
<text xml:space="preserve" transform="matrix(1 0 -0 1 0 841.5)" font-size="12" font-family="ArialNarrow"><tspan y="-348.85" x="77.025"> </tspan></text>
</g>
</g>
<g id="Layer-1" data-name="P">
<clipPath id="cp136">
<path transform="matrix(1,0,0,-1,0,841.5)" d="M .000008862 0 L 594.75 0 L 594.75 841.5 L .000008862 841.5 Z " fill-rule="evenodd"/>
</clipPath>
<g clip-path="url(#cp136)">
<text xml:space="preserve" transform="matrix(1 0 -0 1 0 841.5)" font-size="12" font-family="ArialNarrow"><tspan y="-348.85" x="79.75 85.738 87.982 91.726009 94.726009 99.97 105.214008 110.45801 116.44601 120.94601 124.678 127.666 129.91 135.89801 138.89801 141.886">= ("shoes", 2), </tspan></text>
</g>
</g>
<g id="Layer-1" data-name="P">
<clipPath id="cp137">
<path transform="matrix(1,0,0,-1,0,841.5)" d="M .000008862 0 L 594.75 0 L 594.75 841.5 L .000008862 841.5 Z " fill-rule="evenodd"/>
</clipPath>
<g clip-path="url(#cp137)">
<text xml:space="preserve" transform="matrix(1 0 -0 1 0 841.5)" font-size="12" font-family="ArialNarrow" font-weight="bold"><tspan y="-334.45" x="43.075 49.087 54.319 58.063 60.307 67.795 74.539">p2: AP </tspan></text>
</g>
</g>
<g id="Layer-1" data-name="P">
<clipPath id="cp138">
<path transform="matrix(1,0,0,-1,0,841.5)" d="M .000008862 0 L 594.75 0 L 594.75 841.5 L .000008862 841.5 Z " fill-rule="evenodd"/>
</clipPath>
<g clip-path="url(#cp138)">
<text xml:space="preserve" transform="matrix(1 0 -0 1 0 841.5)" font-size="12" font-family="ArialNarrow"><tspan y="-334.45" x="77.025"> </tspan></text>
</g>
</g>
<g id="Layer-1" data-name="P">
<clipPath id="cp139">
<path transform="matrix(1,0,0,-1,0,841.5)" d="M .000008862 0 L 594.75 0 L 594.75 841.5 L .000008862 841.5 Z " fill-rule="evenodd"/>
</clipPath>
<g clip-path="url(#cp139)">
<text xml:space="preserve" transform="matrix(1 0 -0 1 0 841.5)" font-size="12" font-family="ArialNarrow"><tspan y="-334.45" x="79.75 85.738 87.982 90.97 93.97 97.701999 102.946 108.934 111.178 114.909999 117.897998 120.142 125.386">=  ("hat", 1)</tspan></text>
</g>
</g>
<g id="Layer-1" data-name="P">
<clipPath id="cp140">
<path transform="matrix(1,0,0,-1,0,841.5)" d="M .000008862 0 L 594.75 0 L 594.75 841.5 L .000008862 841.5 Z " fill-rule="evenodd"/>
</clipPath>
<g clip-path="url(#cp140)">
<text xml:space="preserve" transform="matrix(1 0 -0 1 0 841.5)" font-size="12" font-family="ArialNarrow" font-weight="bold"><tspan y="-320" x="43.075 49.819 53.563 55.807 62.551 66.295 73.039 80.52701 83.52701 86.51501">K: P(KN)  </tspan></text>
</g>
</g>
<g id="Layer-1" data-name="P">
<clipPath id="cp141">
<path transform="matrix(1,0,0,-1,0,841.5)" d="M .000008862 0 L 594.75 0 L 594.75 841.5 L .000008862 841.5 Z " fill-rule="evenodd"/>
</clipPath>
<g clip-path="url(#cp141)">
<text xml:space="preserve" transform="matrix(1 0 -0 1 0 841.5)" font-size="12" font-family="ArialNarrow"><tspan y="-320" x="89.025">=</tspan></text>
</g>
</g>
<g id="Layer-1" data-name="P">
<clipPath id="cp142">
<path transform="matrix(1,0,0,-1,0,841.5)" d="M .000008862 0 L 594.75 0 L 594.75 841.5 L .000008862 841.5 Z " fill-rule="evenodd"/>
</clipPath>
<g clip-path="url(#cp142)">
<text xml:space="preserve" transform="matrix(1 0 -0 1 0 841.5)" font-size="12" font-family="ArialNarrow" font-weight="bold"><tspan y="-320" x="94.8"> </tspan></text>
</g>
</g>
<g id="Layer-1" data-name="P">
<clipPath id="cp143">
<path transform="matrix(1,0,0,-1,0,841.5)" d="M .000008862 0 L 594.75 0 L 594.75 841.5 L .000008862 841.5 Z " fill-rule="evenodd"/>
</clipPath>
<g clip-path="url(#cp143)">
<text xml:space="preserve" transform="matrix(1 0 -0 1 0 841.5)" font-size="12" font-family="ArialNarrow"><tspan y="-320" x="97.525 100.525 108.036998 111.024997 116.269 118.513 121.501 129.76902 135.01302 140.25702 143.25702 146.24501 149.23302 151.47702 154.46501 157.45302 159.69702 162.68502 164.92902 167.917 170.90502 173.14902 176.13701 179.12502 181.36902 184.35701 187.34502 189.58902 192.57701 195.56502 197.80902 200.79701 203.78502 206.02902 209.01702 211.26102 214.24901 217.23702 219.48102">{Ute, Max}                             </tspan></text>
</g>
</g>
<g id="Layer-1" data-name="P">
<clipPath id="cp144">
<path transform="matrix(1,0,0,-1,0,841.5)" d="M .000008862 0 L 594.75 0 L 594.75 841.5 L .000008862 841.5 Z " fill-rule="evenodd"/>
</clipPath>
<g clip-path="url(#cp144)">
<text xml:space="preserve" transform="matrix(1 0 -0 1 0 841.5)" font-size="12" font-family="ArialNarrow" font-style="italic"><tspan y="-320" x="223 228.244 231.988 237.23201 242.47602 246.22002 248.46402 253.70803 258.95204 261.94004 266.44004 272.42805 276.92805 279.91606 285.16007 293.3921 298.63609 302.38008">ordering customers</tspan></text>
</g>
</g>
<g id="Layer-1" data-name="P">
<clipPath id="cp145">
<path transform="matrix(1,0,0,-1,0,841.5)" d="M .000008862 0 L 594.75 0 L 594.75 841.5 L .000008862 841.5 Z " fill-rule="evenodd"/>
</clipPath>
<g clip-path="url(#cp145)">
<text xml:space="preserve" transform="matrix(1 0 -0 1 0 841.5)" font-size="12" font-family="ArialNarrow" font-weight="bold"><tspan y="-305.55" x="43.075 50.575006 54.319005 56.563005 64.051 70.063">G: AL </tspan></text>
</g>
</g>
<g id="Layer-1" data-name="P">
<clipPath id="cp146">
<path transform="matrix(1,0,0,-1,0,841.5)" d="M .000008862 0 L 594.75 0 L 594.75 841.5 L .000008862 841.5 Z " fill-rule="evenodd"/>
</clipPath>
<g clip-path="url(#cp146)">
<text xml:space="preserve" transform="matrix(1 0 -0 1 0 841.5)" font-size="12" font-family="ArialNarrow"><tspan y="-305.55" x="72.625 78.637 80.881008 84.62501 87.62501 91.357 95.857 101.869 107.11301 112.35701 117.601009 120.601009 123.589008 126.577 131.82102 134.82102 137.809 140.79701 143.79701 147.52902 152.77303 158.01703 161.00502 164.73703 166.98102 169.96901 175.21302 178.95702 181.95702 184.94503 187.18903 190.17702 193.16503 195.40903 198.39702 200.64102 203.62902 206.61702 208.86103 211.84902 214.83702 217.08103">= {("shoes", 3), ("hat", 1)}              </tspan></text>
</g>
</g>
<g id="Layer-1" data-name="P">
<clipPath id="cp147">
<path transform="matrix(1,0,0,-1,0,841.5)" d="M .000008862 0 L 594.75 0 L 594.75 841.5 L .000008862 841.5 Z " fill-rule="evenodd"/>
</clipPath>
<g clip-path="url(#cp147)">
<text xml:space="preserve" transform="matrix(1 0 -0 1 0 841.5)" font-size="12" font-family="ArialNarrow" font-style="italic"><tspan y="-305.55" x="220.58 222.824 228.06801 230.31201 233.3 235.544 240.78801 243.03202 245.27602 249.77602 252.76403 255.00803 257.252 261.752 264.74003 269.98405 275.97206 278.21604 284.20405 287.20405 290.19206 292.43605 296.93605 299.18003 304.42405">initially listed articles</tspan></text>
</g>
</g>
<g id="Layer-1" data-name="P">
<clipPath id="cp148">
<path transform="matrix(1,0,0,-1,0,841.5)" d="M .000008862 0 L 594.75 0 L 594.75 841.5 L .000008862 841.5 Z " fill-rule="evenodd"/>
</clipPath>
<g clip-path="url(#cp148)">
<text xml:space="preserve" transform="matrix(1 0 -0 1 0 841.5)" font-size="12.025" font-family="ArialNarrow" font-weight="bold"><tspan y="-291.13" x="43.075 49.821027 53.560804 55.809476 65.54972 73.78684">H: WM </tspan></text>
</g>
</g>
<g id="Layer-1" data-name="P">
<clipPath id="cp149">
<path transform="matrix(1,0,0,-1,0,841.5)" d="M .000008862 0 L 594.75 0 L 594.75 841.5 L .000008862 841.5 Z " fill-rule="evenodd"/>
</clipPath>
<g clip-path="url(#cp149)">
<text xml:space="preserve" transform="matrix(1 0 -0 1 0 841.5)" font-size="12.025" font-family="ArialNarrow"><tspan y="-291.13" x="76.45 82.43845 84.687129 88.4269 92.924259 98.912708 104.167629 109.42255 114.66545 116.91412 119.896327 125.13923 130.39417 135.6491 140.90402 146.14693 149.12912 151.37779 156.6207 161.87563 167.13056 173.119 177.61635 180.59854 183.58074 188.83567 194.09059 197.07279 200.067 203.0492 206.03139 208.28006 211.26226 214.24445 216.49312 219.47531">= {shoes, shoes, shoes, hat}        </tspan></text>
</g>
</g>
<g id="Layer-1" data-name="P">
<clipPath id="cp150">
<path transform="matrix(1,0,0,-1,0,841.5)" d="M .000008862 0 L 594.75 0 L 594.75 841.5 L .000008862 841.5 Z " fill-rule="evenodd"/>
</clipPath>
<g clip-path="url(#cp150)">
<text xml:space="preserve" transform="matrix(1 0 -0 1 0 841.5)" font-size="12.025" font-family="ArialNarrow" font-style="italic"><tspan y="-291.13" x="222.48">i</tspan></text>
</g>
</g>
<g id="Layer-1" data-name="P">
<clipPath id="cp151">
<path transform="matrix(1,0,0,-1,0,841.5)" d="M .000008862 0 L 594.75 0 L 594.75 841.5 L .000008862 841.5 Z " fill-rule="evenodd"/>
</clipPath>
<g clip-path="url(#cp151)">
<text xml:space="preserve" transform="matrix(1 0 -0 1 0 841.5)" font-size="12.025" font-family="ArialNarrow" font-style="italic"><tspan y="-291.13" x="224.65 229.92897 232.16562 235.14781 237.38446 242.66344 244.90009 247.13674 251.65814 254.64034 256.87699 259.11363 263.635 266.61723 271.89619 277.9087 280.15739 286.1699 291.44886 296.7278 302.74034">nitially listed goods</tspan></text>
</g>
</g>
<g id="Layer-1" data-name="P">
<clipPath id="cp152">
<path transform="matrix(1,0,0,-1,0,841.5)" d="M .000008862 0 L 594.75 0 L 594.75 841.5 L .000008862 841.5 Z " fill-rule="evenodd"/>
</clipPath>
<g clip-path="url(#cp152)">
<text xml:space="preserve" transform="matrix(1 0 -0 1 0 841.5)" font-size="12.025" font-family="ArialNarrow" font-weight="bold"><tspan y="-276.67" x="43.075 49.821027 53.560804 55.809476 62.543478 66.28325 72.28372 79.01772 82.01195">R: P(SP) </tspan></text>
</g>
</g>
<g id="Layer-1" data-name="P">
<clipPath id="cp153">
<path transform="matrix(1,0,0,-1,0,841.5)" d="M .000008862 0 L 594.75 0 L 594.75 841.5 L .000008862 841.5 Z " fill-rule="evenodd"/>
</clipPath>
<g clip-path="url(#cp153)">
<text xml:space="preserve" transform="matrix(1 0 -0 1 0 841.5)" font-size="12.025" font-family="ArialNarrow"><tspan y="-276.67" x="85.225 91.21345 93.46212 97.2019 105.43902 110.69394 112.930599 118.18552 121.17974 124.16194 127.14414 135.38127 140.6362 142.87285 145.1095 150.36443 154.1042 157.09842">= {Maier, M&#x00fc;ller} </tspan></text>
</g>
</g>
<g id="Layer-1" data-name="P">
<clipPath id="cp154">
<path transform="matrix(1,0,0,-1,0,841.5)" d="M .000008862 0 L 594.75 0 L 594.75 841.5 L .000008862 841.5 Z " fill-rule="evenodd"/>
</clipPath>
<g clip-path="url(#cp154)">
<text xml:space="preserve" transform="matrix(1 0 -0 1 0 841.5)" font-size="12.025" font-family="ArialNarrow" font-style="italic"><tspan y="-276.67" x="159.97 162.20665 167.46158 169.69823 172.68042 177.93535 180.172 182.40865 186.90599 189.88819 195.14311 200.38602 205.64095 207.8776 210.11425 215.36917 221.35762 223.59427 228.8492 231.83139 234.08007 237.81984 243.07477 245.31142 250.56635 255.82128 258.8035 261.7857 264.0344 270.02284 273.01707 279.7631 285.75154 288.74577 294.00068 299.9891 302.98335">initally available freight forwarders</tspan></text>
</g>
</g>
<g id="Layer-1" data-name="P">
<clipPath id="cp155">
<path transform="matrix(1,0,0,-1,0,841.5)" d="M .000008862 0 L 594.75 0 L 594.75 841.5 L .000008862 841.5 Z " fill-rule="evenodd"/>
</clipPath>
<g clip-path="url(#cp155)">
<text xml:space="preserve" transform="matrix(1 0 -0 1 0 841.5)" font-size="12.025" font-family="ArialNarrow" font-weight="bold"><tspan y="-565.6" x="319.63 322.62425 328.64878 334.6252 340.61366 343.60789 346.5901 352.61463 358.59107">functions</tspan></text>
</g>
</g>
<g id="Layer-1" data-name="P">
<clipPath id="cp156">
<path transform="matrix(1,0,0,-1,0,841.5)" d="M .000008862 0 L 594.75 0 L 594.75 841.5 L .000008862 841.5 Z " fill-rule="evenodd"/>
</clipPath>
<g clip-path="url(#cp156)">
<text xml:space="preserve" transform="matrix(1 0 -0 1 0 841.5)" font-size="12" font-family="ArialNarrow" font-weight="bold"><tspan y="-551.15" x="319.63">f</tspan></text>
</g>
</g>
<g id="Layer-1" data-name="P">
<clipPath id="cp157">
<path transform="matrix(1,0,0,-1,0,841.5)" d="M .000008862 0 L 594.75 0 L 594.75 841.5 L .000008862 841.5 Z " fill-rule="evenodd"/>
</clipPath>
<g clip-path="url(#cp157)">
<text xml:space="preserve" transform="matrix(1 0 -0 1 0 841.5)" font-size="12" font-family="ArialNarrow"><tspan y="-551.15" x="322.9 325.9 333.388 336.388 339.376 345.36399 347.60798 351.33998 358.08399 361.81599 364.804 367.04798 370.03599 373.024 378.26799 381.26799 384.25599 391">(w) = "w",  for w </tspan></text>
</g>
</g>
<clipPath id="cp158">
<path transform="matrix(1,0,0,-1,0,841.5)" d="M .000008862 0 L 594.75 0 L 594.75 841.5 L .000008862 841.5 Z " fill-rule="evenodd"/>
</clipPath>
<g clip-path="url(#cp158)">
<text xml:space="preserve" transform="matrix(1 0 -0 1 0 841.5)" font-size="12" font-family="CambriaMath"><tspan y="-551.15" x="394.22">&#x220a;</tspan></text>
</g>
<g id="Layer-1" data-name="P">
<clipPath id="cp159">
<path transform="matrix(1,0,0,-1,0,841.5)" d="M .000008862 0 L 594.75 0 L 594.75 841.5 L .000008862 841.5 Z " fill-rule="evenodd"/>
</clipPath>
<g clip-path="url(#cp159)">
<text xml:space="preserve" transform="matrix(1 0 -0 1 0 841.5)" font-size="12" font-family="ArialNarrow"><tspan y="-551.15" x="400.88"> </tspan></text>
</g>
</g>
<g id="Layer-1" data-name="P">
<clipPath id="cp160">
<path transform="matrix(1,0,0,-1,0,841.5)" d="M .000008862 0 L 594.75 0 L 594.75 841.5 L .000008862 841.5 Z " fill-rule="evenodd"/>
</clipPath>
<g clip-path="url(#cp160)">
<text xml:space="preserve" transform="matrix(1 0 -0 1 0 841.5)" font-size="12" font-family="ArialNarrow" font-weight="bold"><tspan y="-551.15" x="403.6 412.625">WA</tspan></text>
</g>
</g>
<g id="Layer-1" data-name="P">
<clipPath id="cp161">
<path transform="matrix(1,0,0,-1,0,841.5)" d="M .000008862 0 L 594.75 0 L 594.75 841.5 L .000008862 841.5 Z " fill-rule="evenodd"/>
</clipPath>
<g clip-path="url(#cp161)">
<text xml:space="preserve" transform="matrix(1 0 -0 1 0 841.5)" font-size="12.025" font-family="ArialNarrow"><tspan y="-536.72" x="319.63 322.6122 325.60646 328.58866 333.84358 339.09849 342.0807">f([a1, </tspan></text>
</g>
</g>
<clipPath id="cp162">
<path transform="matrix(1,0,0,-1,0,841.5)" d="M .000008862 0 L 594.75 0 L 594.75 841.5 L .000008862 841.5 Z " fill-rule="evenodd"/>
</clipPath>
<g clip-path="url(#cp162)">
<text xml:space="preserve" transform="matrix(1 0 -0 1 0 841.5)" font-size="12.025" font-family="ArialNarrow"><tspan y="-536.72" x="344.83 354.58229 357.56449 359.81318">&#x2026; , </tspan></text>
</g>
<g id="Layer-1" data-name="P">
<clipPath id="cp163">
<path transform="matrix(1,0,0,-1,0,841.5)" d="M .000008862 0 L 594.75 0 L 594.75 841.5 L .000008862 841.5 Z " fill-rule="evenodd"/>
</clipPath>
<g clip-path="url(#cp163)">
<text xml:space="preserve" transform="matrix(1 0 -0 1 0 841.5)" font-size="12.025" font-family="ArialNarrow"><tspan y="-536.72" x="362.88 368.15898 374.17149 376.4442 380.20805 382.48078 388.4933 391.51158 393.7843 396.80259 399.8329 405.8454 411.12437 414.15467 417.17295">an]) = [f(a1), </tspan></text>
</g>
</g>
<clipPath id="cp164">
<path transform="matrix(1,0,0,-1,0,841.5)" d="M .000008862 0 L 594.75 0 L 594.75 841.5 L .000008862 841.5 Z " fill-rule="evenodd"/>
</clipPath>
<g clip-path="url(#cp164)">
<text xml:space="preserve" transform="matrix(1 0 -0 1 0 841.5)" font-size="12.025" font-family="ArialNarrow"><tspan y="-536.72" x="419.58 429.35633 432.33854 434.58723">&#x2026; , </tspan></text>
</g>
<g id="Layer-1" data-name="P">
<clipPath id="cp165">
<path transform="matrix(1,0,0,-1,0,841.5)" d="M .000008862 0 L 594.75 0 L 594.75 841.5 L .000008862 841.5 Z " fill-rule="evenodd"/>
</clipPath>
<g clip-path="url(#cp165)">
<text xml:space="preserve" transform="matrix(1 0 -0 1 0 841.5)" font-size="12.025" font-family="ArialNarrow"><tspan y="-536.72" x="437.65 440.6322 443.62644 448.88136 454.86979 457.864 460.84623 463.0949 466.07713 471.33204 475.0718 477.3205 480.3027 485.55763 490.81254 493.79475">f(an)] for [p1, </tspan></text>
</g>
</g>
<clipPath id="cp166">
<path transform="matrix(1,0,0,-1,0,841.5)" d="M .000008862 0 L 594.75 0 L 594.75 841.5 L .000008862 841.5 Z " fill-rule="evenodd"/>
</clipPath>
<g clip-path="url(#cp166)">
<text xml:space="preserve" transform="matrix(1 0 -0 1 0 841.5)" font-size="12.025" font-family="ArialNarrow"><tspan y="-536.72" x="496.8 506.57633 509.55854 511.80723">&#x2026; , </tspan></text>
</g>
<g id="Layer-1" data-name="P">
<clipPath id="cp167">
<path transform="matrix(1,0,0,-1,0,841.5)" d="M .000008862 0 L 594.75 0 L 594.75 841.5 L .000008862 841.5 Z " fill-rule="evenodd"/>
</clipPath>
<g clip-path="url(#cp167)">
<text xml:space="preserve" transform="matrix(1 0 -0 1 0 841.5)" font-size="12.025" font-family="ArialNarrow"><tspan y="-536.72" x="514.88 520.13497 526.1234 528.3721">pn] </tspan></text>
</g>
</g>
<clipPath id="cp168">
<path transform="matrix(1,0,0,-1,0,841.5)" d="M .000008862 0 L 594.75 0 L 594.75 841.5 L .000008862 841.5 Z " fill-rule="evenodd"/>
</clipPath>
<g clip-path="url(#cp168)">
<text xml:space="preserve" transform="matrix(1 0 -0 1 0 841.5)" font-size="12.025" font-family="CambriaMath"><tspan y="-536.72" x="531.33">&#x220a;</tspan></text>
</g>
<g id="Layer-1" data-name="P">
<clipPath id="cp169">
<path transform="matrix(1,0,0,-1,0,841.5)" d="M .000008862 0 L 594.75 0 L 594.75 841.5 L .000008862 841.5 Z " fill-rule="evenodd"/>
</clipPath>
<g clip-path="url(#cp169)">
<text xml:space="preserve" transform="matrix(1 0 -0 1 0 841.5)" font-size="12.025" font-family="ArialNarrow"><tspan y="-536.72" x="537.98"> </tspan></text>
</g>
</g>
<g id="Layer-1" data-name="P">
<clipPath id="cp170">
<path transform="matrix(1,0,0,-1,0,841.5)" d="M .000008862 0 L 594.75 0 L 594.75 841.5 L .000008862 841.5 Z " fill-rule="evenodd"/>
</clipPath>
<g clip-path="url(#cp170)">
<text xml:space="preserve" transform="matrix(1 0 -0 1 0 841.5)" font-size="12.025" font-family="ArialNarrow" font-weight="bold"><tspan y="-536.72" x="540.7 547.4748">AM</tspan></text>
</g>
</g>
<g id="Layer-1" data-name="P">
<clipPath id="cp171">
<path transform="matrix(1,0,0,-1,0,841.5)" d="M .000008862 0 L 594.75 0 L 594.75 841.5 L .000008862 841.5 Z " fill-rule="evenodd"/>
</clipPath>
<g clip-path="url(#cp171)">
<text xml:space="preserve" transform="matrix(1 0 -0 1 0 841.5)" font-size="12" font-family="ArialNarrow"><tspan y="-507.85" x="319.63 322.63 328.61799 330.86198 336.84999 339.84999 341.34999 344.33799 350.32597 352.56996 358.55793 360.8019 366.78993 369.0339 372.0219 375.00993 380.25395 383.25395 386.24195 389.24195 395.22993 397.4739 403.4619 406.4619">(a,n)' = n[a] for (a,n) </tspan></text>
</g>
</g>
<clipPath id="cp172">
<path transform="matrix(1,0,0,-1,0,841.5)" d="M .000008862 0 L 594.75 0 L 594.75 841.5 L .000008862 841.5 Z " fill-rule="evenodd"/>
</clipPath>
<g clip-path="url(#cp172)">
<text xml:space="preserve" transform="matrix(1 0 -0 1 0 841.5)" font-size="12" font-family="CambriaMath"><tspan y="-507.85" x="409.42">&#x220a;</tspan></text>
</g>
<g id="Layer-1" data-name="P">
<clipPath id="cp173">
<path transform="matrix(1,0,0,-1,0,841.5)" d="M .000008862 0 L 594.75 0 L 594.75 841.5 L .000008862 841.5 Z " fill-rule="evenodd"/>
</clipPath>
<g clip-path="url(#cp173)">
<text xml:space="preserve" transform="matrix(1 0 -0 1 0 841.5)" font-size="12" font-family="ArialNarrow"><tspan y="-507.85" x="416.08"> </tspan></text>
</g>
</g>
<g id="Layer-1" data-name="P">
<clipPath id="cp174">
<path transform="matrix(1,0,0,-1,0,841.5)" d="M .000008862 0 L 594.75 0 L 594.75 841.5 L .000008862 841.5 Z " fill-rule="evenodd"/>
</clipPath>
<g clip-path="url(#cp174)">
<text xml:space="preserve" transform="matrix(1 0 -0 1 0 841.5)" font-size="12" font-family="ArialNarrow" font-weight="bold"><tspan y="-507.85" x="418.8 425.57499">AP</tspan></text>
</g>
</g>
<g id="Layer-1" data-name="P">
<clipPath id="cp175">
<path transform="matrix(1,0,0,-1,0,841.5)" d="M .000008862 0 L 594.75 0 L 594.75 841.5 L .000008862 841.5 Z " fill-rule="evenodd"/>
</clipPath>
<g clip-path="url(#cp175)">
<text xml:space="preserve" transform="matrix(1 0 -0 1 0 841.5)" font-size="12.025" font-family="ArialNarrow"><tspan y="-493.43" x="319.63 322.6122 327.86714 333.12205 336.10426">[p1, </tspan></text>
</g>
</g>
<clipPath id="cp176">
<path transform="matrix(1,0,0,-1,0,841.5)" d="M .000008862 0 L 594.75 0 L 594.75 841.5 L .000008862 841.5 Z " fill-rule="evenodd"/>
</clipPath>
<g clip-path="url(#cp176)">
<text xml:space="preserve" transform="matrix(1 0 -0 1 0 841.5)" font-size="12.025" font-family="ArialNarrow"><tspan y="-493.43" x="338.8 348.55229 351.5345 353.78318">&#x2026; , </tspan></text>
</g>
<g id="Layer-1" data-name="P">
<clipPath id="cp177">
<path transform="matrix(1,0,0,-1,0,841.5)" d="M .000008862 0 L 594.75 0 L 594.75 841.5 L .000008862 841.5 Z " fill-rule="evenodd"/>
</clipPath>
<g clip-path="url(#cp177)">
<text xml:space="preserve" transform="matrix(1 0 -0 1 0 841.5)" font-size="12.025" font-family="ArialNarrow"><tspan y="-493.43" x="356.88 362.13493 368.12336 370.37205 372.6087 374.8574 380.84587 383.82807 389.08299 394.3379 396.57456 398.82325 404.8117">pn]' = p1' + </tspan></text>
</g>
</g>
<clipPath id="cp178">
<path transform="matrix(1,0,0,-1,0,841.5)" d="M .000008862 0 L 594.75 0 L 594.75 841.5 L .000008862 841.5 Z " fill-rule="evenodd"/>
</clipPath>
<g clip-path="url(#cp178)">
<text xml:space="preserve" transform="matrix(1 0 -0 1 0 841.5)" font-size="12.025" font-family="ArialNarrow"><tspan y="-493.43" x="407.78 417.5323 420.5145 425.76945">&#x2026; + </tspan></text>
</g>
<g id="Layer-1" data-name="P">
<clipPath id="cp179">
<path transform="matrix(1,0,0,-1,0,841.5)" d="M .000008862 0 L 594.75 0 L 594.75 841.5 L .000008862 841.5 Z " fill-rule="evenodd"/>
</clipPath>
<g clip-path="url(#cp179)">
<text xml:space="preserve" transform="matrix(1 0 -0 1 0 841.5)" font-size="12.025" font-family="ArialNarrow"><tspan y="-493.43" x="428.85 434.12898 440.14149 441.64463 444.6629 446.93565 452.94816 455.97846 458.99674 461.26948 467.28199 472.56095 475.57923">pn' for [p1, </tspan></text>
</g>
</g>
<clipPath id="cp180">
<path transform="matrix(1,0,0,-1,0,841.5)" d="M .000008862 0 L 594.75 0 L 594.75 841.5 L .000008862 841.5 Z " fill-rule="evenodd"/>
</clipPath>
<g clip-path="url(#cp180)">
<text xml:space="preserve" transform="matrix(1 0 -0 1 0 841.5)" font-size="12.025" font-family="ArialNarrow"><tspan y="-493.43" x="477.88 487.6323 490.6145 492.8632">&#x2026; , </tspan></text>
</g>
<g id="Layer-1" data-name="P">
<clipPath id="cp181">
<path transform="matrix(1,0,0,-1,0,841.5)" d="M .000008862 0 L 594.75 0 L 594.75 841.5 L .000008862 841.5 Z " fill-rule="evenodd"/>
</clipPath>
<g clip-path="url(#cp181)">
<text xml:space="preserve" transform="matrix(1 0 -0 1 0 841.5)" font-size="12.025" font-family="ArialNarrow"><tspan y="-493.43" x="495.93 501.20896 507.22148 509.4942">pn] </tspan></text>
</g>
</g>
<clipPath id="cp182">
<path transform="matrix(1,0,0,-1,0,841.5)" d="M .000008862 0 L 594.75 0 L 594.75 841.5 L .000008862 841.5 Z " fill-rule="evenodd"/>
</clipPath>
<g clip-path="url(#cp182)">
<text xml:space="preserve" transform="matrix(1 0 -0 1 0 841.5)" font-size="12.025" font-family="CambriaMath"><tspan y="-493.43" x="512.38">&#x220a;</tspan></text>
</g>
<g id="Layer-1" data-name="P">
<clipPath id="cp183">
<path transform="matrix(1,0,0,-1,0,841.5)" d="M .000008862 0 L 594.75 0 L 594.75 841.5 L .000008862 841.5 Z " fill-rule="evenodd"/>
</clipPath>
<g clip-path="url(#cp183)">
<text xml:space="preserve" transform="matrix(1 0 -0 1 0 841.5)" font-size="12.025" font-family="ArialNarrow"><tspan y="-493.43" x="519.03"> </tspan></text>
</g>
</g>
<g id="Layer-1" data-name="P">
<clipPath id="cp184">
<path transform="matrix(1,0,0,-1,0,841.5)" d="M .000008862 0 L 594.75 0 L 594.75 841.5 L .000008862 841.5 Z " fill-rule="evenodd"/>
</clipPath>
<g clip-path="url(#cp184)">
<text xml:space="preserve" transform="matrix(1 0 -0 1 0 841.5)" font-size="12.025" font-family="ArialNarrow" font-weight="bold"><tspan y="-493.43" x="521.77 528.51986">AL</tspan></text>
</g>
</g>
<g id="Layer-1" data-name="P">
<clipPath id="cp185">
<path transform="matrix(1,0,0,-1,0,841.5)" d="M .000008862 0 L 594.75 0 L 594.75 841.5 L .000008862 841.5 Z " fill-rule="evenodd"/>
</clipPath>
<g clip-path="url(#cp185)">
<text xml:space="preserve" transform="matrix(1 0 -0 1 0 841.5)" font-size="12" font-family="ArialNarrow" font-weight="bold" font-style="italic"><tspan y="-464.58" x="319.63 324.874 330.862 336.106 345.09397 351.10597 353.34996 359.33796">examples</tspan></text>
</g>
</g>
<g id="Layer-1" data-name="P">
<clipPath id="cp186">
<path transform="matrix(1,0,0,-1,0,841.5)" d="M .000008862 0 L 594.75 0 L 594.75 841.5 L .000008862 841.5 Z " fill-rule="evenodd"/>
</clipPath>
<g clip-path="url(#cp186)">
<text xml:space="preserve" transform="matrix(1 0 -0 1 0 841.5)" font-size="12.025" font-family="ArialNarrow" font-weight="bold"><tspan y="-450.17" x="319.63 325.63005">p1</tspan></text>
</g>
</g>
<clipPath id="cp187">
<path transform="matrix(1,0,0,-1,0,841.5)" d="M .000008862 0 L 594.75 0 L 594.75 841.5 L .000008862 841.5 Z " fill-rule="evenodd"/>
</clipPath>
<g clip-path="url(#cp187)">
<text xml:space="preserve" transform="matrix(1 0 -0 1 0 841.5)" font-size="12.025" font-family="ArialNarrow" font-weight="bold"><tspan y="-450.17" x="331.13 334.1297">&#x2018; </tspan></text>
</g>
<clipPath id="cp188">
<path transform="matrix(1,0,0,-1,0,841.5)" d="M .000008862 0 L 594.75 0 L 594.75 841.5 L .000008862 841.5 Z " fill-rule="evenodd"/>
</clipPath>
<g clip-path="url(#cp188)">
<text xml:space="preserve" transform="matrix(1 0 -0 1 0 841.5)" font-size="12.025" font-family="ArialNarrow"><tspan y="-450.17" x="336.6 342.59999">= </tspan></text>
</g>
<g id="Layer-1" data-name="P">
<clipPath id="cp189">
<path transform="matrix(1,0,0,-1,0,841.5)" d="M .000008862 0 L 594.75 0 L 594.75 841.5 L .000008862 841.5 Z " fill-rule="evenodd"/>
</clipPath>
<g clip-path="url(#cp189)">
<text xml:space="preserve" transform="matrix(1 0 -0 1 0 841.5)" font-size="12.025" font-family="ArialNarrow"><tspan y="-450.17" x="345.1 348.09425 351.834 357.0769 362.33183 367.58674 372.84165 378.08454 381.8243 384.073 387.0552 390.79499 395.29234 401.28077 406.53569 411.7906 417.03349 420.0277">{"shoes", "shoes"}</tspan></text>
</g>
</g>
<g id="Layer-1" data-name="P">
<clipPath id="cp190">
<path transform="matrix(1,0,0,-1,0,841.5)" d="M .000008862 0 L 594.75 0 L 594.75 841.5 L .000008862 841.5 Z " fill-rule="evenodd"/>
</clipPath>
<g clip-path="url(#cp190)">
<text xml:space="preserve" transform="matrix(1 0 -0 1 0 841.5)" font-size="12" font-family="ArialNarrow" font-weight="bold"><tspan y="-435.75" x="319.63 322.63 328.642 334.618 336.862 339.85 345.862 351.094 354.082 357.07 363.082 368.31404">[p1, p2, p2]</tspan></text>
</g>
</g>
<clipPath id="cp191">
<path transform="matrix(1,0,0,-1,0,841.5)" d="M .000008862 0 L 594.75 0 L 594.75 841.5 L .000008862 841.5 Z " fill-rule="evenodd"/>
</clipPath>
<g clip-path="url(#cp191)">
<text xml:space="preserve" transform="matrix(1 0 -0 1 0 841.5)" font-size="12" font-family="ArialNarrow" font-weight="bold"><tspan y="-435.75" x="371.63 374.63">&#x2018; </tspan></text>
</g>
<clipPath id="cp192">
<path transform="matrix(1,0,0,-1,0,841.5)" d="M .000008862 0 L 594.75 0 L 594.75 841.5 L .000008862 841.5 Z " fill-rule="evenodd"/>
</clipPath>
<g clip-path="url(#cp192)">
<text xml:space="preserve" transform="matrix(1 0 -0 1 0 841.5)" font-size="12" font-family="ArialNarrow"><tspan y="-435.75" x="377.13 383.11799 385.36198">=  </tspan></text>
</g>
<g id="Layer-1" data-name="P">
<clipPath id="cp193">
<path transform="matrix(1,0,0,-1,0,841.5)" d="M .000008862 0 L 594.75 0 L 594.75 841.5 L .000008862 841.5 Z " fill-rule="evenodd"/>
</clipPath>
<g clip-path="url(#cp193)">
<text xml:space="preserve" transform="matrix(1 0 -0 1 0 841.5)" font-size="12" font-family="ArialNarrow"><tspan y="-435.75" x="388.35 391.35 395.082 400.32603 405.57005 410.81407 416.05809 421.3021 425.0341 427.27809 430.26609 433.99809 438.49809 444.48609 449.73008 454.9741 460.2181 463.2181 466.20613 469.19413 472.19413 478.18214 483.42613 486.41413 489.41413 492.40214 494.64613 498.3781 503.6221 509.6101 511.85414 515.5861 518.5861">{"shoes", "shoes", "hat", "hat"} </tspan></text>
</g>
</g>
</g>
</g>
</svg>
