<?xml version="1.0" encoding="UTF-8" standalone="no"?>
<!DOCTYPE svg PUBLIC "-//W3C//DTD SVG 1.1//EN" "http://www.w3.org/Graphics/SVG/1.1/DTD/svg11.dtd">
<svg xmlns="http://www.w3.org/2000/svg" xmlns:xlink="http://www.w3.org/1999/xlink" version="1.1" width="594.75pt" height="841.5pt" viewBox="0 0 594.75 841.5">
<g enable-background="new">
<g>
<g id="Layer-1" data-name="P">
<clipPath id="cp1133">
<path transform="matrix(1,0,0,-1,0,841.5)" d="M .000008862 0 L 594.75 0 L 594.75 841.5 L .000008862 841.5 Z " fill-rule="evenodd"/>
</clipPath>
<g clip-path="url(#cp1133)">
<text xml:space="preserve" transform="matrix(1 0 -0 1 0 841.5)" font-size="11.25" font-family="ArialNarrow"><tspan y="-410.85" x="389.45 394.70378 399.94627 405.18876 407.43876 409.68876 416.4275 421.66999 423.91999 429.16249 434.40498 437.40873 441.90873 446.40873 448.64747 453.14747 455.39747 460.63996 463.6437 468.8862 471.1362 476.3787 480.8787 483.11744 485.35618 489.85618 494.35618 497.35993 502.60243 507.8449">The two parcels are delivered </tspan></text>
</g>
</g>
<g id="Layer-1" data-name="P">
<clipPath id="cp1134">
<path transform="matrix(1,0,0,-1,0,841.5)" d="M .000008862 0 L 594.75 0 L 594.75 841.5 L .000008862 841.5 Z " fill-rule="evenodd"/>
</clipPath>
<g clip-path="url(#cp1134)">
<text xml:space="preserve" transform="matrix(1 0 -0 1 0 841.5)" font-size="11.275" font-family="ArialNarrow"><tspan y="-397.65" x="389.45 391.70503 396.94789 399.20289 402.19078 406.68949 411.93235 414.18736 418.68608 423.92893 428.42765 431.41554 435.91426 443.41215 448.655">to the customer</tspan></text>
</g>
</g>
<g id="Layer-1" data-name="P">
<clipPath id="cp1135">
<path transform="matrix(1,0,0,-1,0,841.5)" d="M .000008862 0 L 594.75 0 L 594.75 841.5 L .000008862 841.5 Z " fill-rule="evenodd"/>
</clipPath>
<g clip-path="url(#cp1135)">
<text xml:space="preserve" transform="matrix(1 0 -0 1 0 841.5)" font-size="11.275" font-family="ArialNarrow" font-weight="bold"><tspan y="-397.65" x="451.7"> </tspan></text>
</g>
</g>
<g id="Layer-1" data-name="P">
<clipPath id="cp1136">
<path transform="matrix(1,0,0,-1,0,841.5)" d="M .000008862 0 L 594.75 0 L 594.75 841.5 L .000008862 841.5 Z " fill-rule="evenodd"/>
</clipPath>
<g clip-path="url(#cp1136)">
<text xml:space="preserve" transform="matrix(1 0 -0 1 0 841.5)" font-size="11.275" font-family="ArialNarrow" font-weight="bold"><tspan y="-397.65" x="454.23 460.97248 463.97163">Ute</tspan></text>
</g>
</g>
<g id="Layer-1" data-name="P">
<clipPath id="cp1137">
<path transform="matrix(1,0,0,-1,0,841.5)" d="M .000008862 0 L 594.75 0 L 594.75 841.5 L .000008862 841.5 Z " fill-rule="evenodd"/>
</clipPath>
<g clip-path="url(#cp1137)">
<text xml:space="preserve" transform="matrix(1 0 -0 1 0 841.5)" font-size="11.275" font-family="ArialNarrow"><tspan y="-397.65" x="468.78 471.035 474.0229 478.5216 483.02033">, by </tspan></text>
</g>
</g>
<g id="Layer-1" data-name="P">
<clipPath id="cp1138">
<path transform="matrix(1,0,0,-1,0,841.5)" d="M .000008862 0 L 594.75 0 L 594.75 841.5 L .000008862 841.5 Z " fill-rule="evenodd"/>
</clipPath>
<g clip-path="url(#cp1138)">
<text xml:space="preserve" transform="matrix(1 0 -0 1 0 841.5)" font-size="11.25" font-family="ArialNarrow"><tspan y="-384.43" x="389.45 394.6925 396.18876 399.18125 401.43125 406.67375 409.6775 414.1775 419.41999 421.66999">different </tspan></text>
</g>
</g>
<g id="Layer-1" data-name="P">
<clipPath id="cp1139">
<path transform="matrix(1,0,0,-1,0,841.5)" d="M .000008862 0 L 594.75 0 L 594.75 841.5 L .000008862 841.5 Z " fill-rule="evenodd"/>
</clipPath>
<g clip-path="url(#cp1139)">
<text xml:space="preserve" transform="matrix(1 0 -0 1 0 841.5)" font-size="11.25" font-family="ArialNarrow"><tspan y="-384.43" x="424.6 426.85 429.85377 435.09626 437.335 441.835 447.07749 449.32749 452.31999 454.56999 459.81248 462.81623 468.81248 474.05497 477.05873 482.3012 487.5437 490.54747 495.04747 497.29747">freight forwarders, </tspan></text>
</g>
</g>
<g id="Layer-1" data-name="P">
<clipPath id="cp1140">
<path transform="matrix(1,0,0,-1,0,841.5)" d="M .000008862 0 L 594.75 0 L 594.75 841.5 L .000008862 841.5 Z " fill-rule="evenodd"/>
</clipPath>
<g clip-path="url(#cp1140)">
<text xml:space="preserve" transform="matrix(1 0 -0 1 0 841.5)" font-size="11.275" font-family="ArialNarrow"><tspan y="-371.23" x="389.45 395.4483 399.94703 405.18989 409.6886 411.93235 416.43107 418.68608 423.92893 429.17179 434.41465 436.66966 444.16755 449.4104 450.90998 456.15284 459.15199">Schulz and Maier.</tspan></text>
</g>
</g>
<g id="Layer-1" data-name="P">
<clipPath id="cp1141">
<path transform="matrix(1,0,0,-1,0,841.5)" d="M .000008862 0 L 594.75 0 L 594.75 841.5 L .000008862 841.5 Z " fill-rule="evenodd"/>
</clipPath>
<g clip-path="url(#cp1141)">
<text xml:space="preserve" transform="matrix(1 0 -0 1 0 841.5)" font-size="11.275" font-family="ArialNarrow"><tspan y="-371.23" x="461.75"> </tspan></text>
</g>
</g>
<g id="Layer-1" data-name="P">
<clipPath id="cp1142">
<path transform="matrix(1,0,0,-1,0,841.5)" d="M .000008862 0 L 594.75 0 L 594.75 841.5 L .000008862 841.5 Z " fill-rule="evenodd"/>
</clipPath>
<g clip-path="url(#cp1142)">
<text xml:space="preserve" transform="matrix(1 0 -0 1 0 841.5)" font-size="11.275" font-family="ArialNarrow"><tspan y="-371.23" x="464.25 470.99247 475.49119">No </tspan></text>
</g>
</g>
<g id="Layer-1" data-name="P">
<clipPath id="cp1143">
<path transform="matrix(1,0,0,-1,0,841.5)" d="M .000008862 0 L 594.75 0 L 594.75 841.5 L .000008862 841.5 Z " fill-rule="evenodd"/>
</clipPath>
<g clip-path="url(#cp1143)">
<text xml:space="preserve" transform="matrix(1 0 -0 1 0 841.5)" font-size="11.25" font-family="ArialNarrow"><tspan y="-358" x="389.45 394.6925 397.69627 402.19627 407.43876 410.4425 412.68125 417.18125 422.42375 424.67375 429.91624 435.15873 437.40873 440.4012 444.9012 450.1437 452.3937 455.3862 461.38246 466.62495 468.87495 474.11744 479.35993 482.36369 484.61369 486.85243 491.35243 493.59117">ordering on the two partial </tspan></text>
</g>
</g>
<g id="Layer-1" data-name="P">
<clipPath id="cp1144">
<path transform="matrix(1,0,0,-1,0,841.5)" d="M .000008862 0 L 594.75 0 L 594.75 841.5 L .000008862 841.5 Z " fill-rule="evenodd"/>
</clipPath>
<g clip-path="url(#cp1144)">
<text xml:space="preserve" transform="matrix(1 0 -0 1 0 841.5)" font-size="11.275" font-family="ArialNarrow"><tspan y="-344.8" x="389.45 394.69288 399.1916 401.43534 403.67909 408.1778 412.6765 415.67567 417.9194 423.16227 427.66099 429.916 432.15974 436.65846 438.91346 441.90135 446.40007 450.89878 456.14164 460.64036 462.8841 465.1391 467.38285 471.88157 477.12443 479.37944">deliveries is  specified. </tspan></text>
</g>
</g>
<clipPath id="cp1145">
<path transform="matrix(1,0,0,-1,0,841.5)" d="M -.000045776 841.5 L 594.75 841.5 L 594.75 .00018311 L -.000045776 .00018311 " fill-rule="evenodd"/>
</clipPath>
<g clip-path="url(#cp1145)">
<path transform="matrix(1,0,0,-1,0,841.5)" stroke-width="1.5" stroke-linecap="round" stroke-linejoin="round" fill="none" stroke="#000000" d="M 204.11 277.87 L 219.73 233.88 "/>
</g>
<clipPath id="cp1146">
<path transform="matrix(1,0,0,-1,0,841.5)" d="M -.000045776 841.5 L 594.75 841.5 L 594.75 .00018311 L -.000045776 .00018311 " fill-rule="evenodd"/>
</clipPath>
<g clip-path="url(#cp1146)">
<path transform="matrix(1,0,0,-1,0,841.5)" d="M 223.8 236.58 L 224.09 221.59 L 214.87 233.41 L 223.8 236.58 Z " fill-rule="evenodd"/>
</g>
<clipPath id="cp1147">
<path transform="matrix(1,0,0,-1,0,841.5)" d="M -.000030518 841.5 L 594.75 841.5 L 594.75 .000061035 L .000030518 .000061035 " fill-rule="evenodd"/>
</clipPath>
<g clip-path="url(#cp1147)">
<path transform="matrix(1,0,0,-1,0,841.5)" stroke-width="1.5" stroke-linecap="round" stroke-linejoin="round" fill="none" stroke="#000000" d="M 332.55 340.84 L 318.26 308.97 "/>
</g>
<clipPath id="cp1148">
<path transform="matrix(1,0,0,-1,0,841.5)" d="M -.000030518 841.5 L 594.75 841.5 L 594.75 .000061035 L .000030518 .000061035 " fill-rule="evenodd"/>
</clipPath>
<g clip-path="url(#cp1148)">
<path transform="matrix(1,0,0,-1,0,841.5)" d="M 323.07 308.12 L 312.93 297.08 L 314.42 311.99 L 323.07 308.12 Z " fill-rule="evenodd"/>
</g>
<clipPath id="cp1149">
<path transform="matrix(1,0,0,-1,0,841.5)" d="M -.000061035 841.5 L 594.75 841.5 L 594.75 .00018311 L -.000030518 .00018311 " fill-rule="evenodd"/>
</clipPath>
<g clip-path="url(#cp1149)">
<path transform="matrix(1,0,0,-1,0,841.5)" stroke-width="1.5" stroke-linecap="round" stroke-linejoin="round" fill="none" stroke="#000000" d="M 311.28 281.23 L 326.9 237.24 "/>
</g>
<clipPath id="cp1150">
<path transform="matrix(1,0,0,-1,0,841.5)" d="M -.000061035 841.5 L 594.75 841.5 L 594.75 .00018311 L -.000030518 .00018311 " fill-rule="evenodd"/>
</clipPath>
<g clip-path="url(#cp1150)">
<path transform="matrix(1,0,0,-1,0,841.5)" d="M 330.97 239.94 L 331.26 224.95 L 322.03 236.77 L 330.97 239.94 Z " fill-rule="evenodd"/>
</g>
<path transform="matrix(1,0,0,-1,0,841.5)" d="M 159.48 111.24 L 364.99 111.24 L 364.99 437.22 L 159.48 437.22 Z " fill="#e5b9b5" fill-opacity=".18824" fill-rule="evenodd"/>
<clipPath id="cp1151">
<path transform="matrix(1,0,0,-1,0,841.5)" d="M -.000030518 841.5 L 594.75 841.5 L 594.75 .00018311 L 0 .00018311 " fill-rule="evenodd"/>
</clipPath>
<g clip-path="url(#cp1151)">
<path transform="matrix(1,0,0,-1,0,841.5)" stroke-width="1.5" stroke-linecap="round" stroke-linejoin="round" fill="none" stroke="#000000" d="M 162.24 359 L 179.99 310.7 "/>
</g>
<clipPath id="cp1152">
<path transform="matrix(1,0,0,-1,0,841.5)" d="M -.000030518 841.5 L 594.75 841.5 L 594.75 .00018311 L 0 .00018311 " fill-rule="evenodd"/>
</clipPath>
<g clip-path="url(#cp1152)">
<path transform="matrix(1,0,0,-1,0,841.5)" d="M 184.03 313.45 L 184.49 298.47 L 175.14 310.18 L 184.03 313.45 Z " fill-rule="evenodd"/>
</g>
<path transform="matrix(1,0,0,-1,0,841.5)" d="M 193 359.27 C 193 371.01 179.22 380.53 162.24 380.53 C 145.25 380.53 131.47 371.01 131.47 359.27 C 131.47 347.53 145.25 338.01 162.24 338.01 C 179.22 338.01 193 347.53 193 359.27 Z " fill="#ffffff" fill-rule="evenodd"/>
<path transform="matrix(1,0,0,-1,0,841.5)" stroke-width="1.5" stroke-linecap="round" stroke-linejoin="round" fill="none" stroke="#000000" d="M 193 359.27 C 193 371.01 179.22 380.53 162.24 380.53 C 145.25 380.53 131.47 371.01 131.47 359.27 C 131.47 347.53 145.25 338.01 162.24 338.01 C 179.22 338.01 193 347.53 193 359.27 Z "/>
<g id="Layer-1" data-name="P">
<clipPath id="cp1153">
<path transform="matrix(1,0,0,-1,0,841.5)" d="M .000008862 0 L 594.75 0 L 594.75 841.5 L .000008862 841.5 Z " fill-rule="evenodd"/>
</clipPath>
<g clip-path="url(#cp1153)">
<text xml:space="preserve" transform="matrix(1 0 -0 1 0 841.5)" font-size="9.025" font-family="ArialNarrow" font-style="italic"><tspan y="-368" x="139.02 141.2582 145.0126 147.2508 149.48899 151.7362 155.49062 157.72882 161.48323 165.97768 167.47582 169.714 171.9522 175.7066 178.69388 183.94643">to freight forw.</tspan></text>
</g>
</g>
<g id="Layer-1" data-name="P">
<clipPath id="cp1154">
<path transform="matrix(1,0,0,-1,0,841.5)" d="M .000008862 0 L 594.75 0 L 594.75 841.5 L .000008862 841.5 Z " fill-rule="evenodd"/>
</clipPath>
<g clip-path="url(#cp1154)">
<text xml:space="preserve" transform="matrix(1 0 -0 1 0 841.5)" font-size="9" font-family="ArialNarrow" font-weight="bold"><tspan y="-357.17" x="140.08 142.33 147.57701 150.56502 154.31803 156.55902 158.80002 161.05002 165.54102 170.05002 174.55902 178.29402 182.78502 185.02602">(Ute, {shoes, </tspan></text>
</g>
</g>
<g id="Layer-1" data-name="P">
<clipPath id="cp1155">
<path transform="matrix(1,0,0,-1,0,841.5)" d="M .000008862 0 L 594.75 0 L 594.75 841.5 L .000008862 841.5 Z " fill-rule="evenodd"/>
</clipPath>
<g clip-path="url(#cp1155)">
<text xml:space="preserve" transform="matrix(1 0 -0 1 0 841.5)" font-size="9.025" font-family="ArialNarrow" font-weight="bold"><tspan y="-346.38" x="141.5 145.25441 149.77594 154.25235 158.7468 162.5012 164.7394 166.97759 171.49912 175.22644 178.21372 181.20099">shoes, hat})</tspan></text>
</g>
</g>
<path transform="matrix(1,0,0,-1,0,841.5)" d="M 187.49 196.82 C 187.49 208.56 173.82 218.08 156.95 218.08 C 140.08 218.08 126.41 208.56 126.41 196.82 C 126.41 185.07 140.08 175.56 156.95 175.56 C 173.82 175.56 187.49 185.07 187.49 196.82 Z " fill="#ffffff" fill-rule="evenodd"/>
<path transform="matrix(1,0,0,-1,0,841.5)" stroke-width="1.5" stroke-linecap="round" stroke-linejoin="round" fill="none" stroke="#000000" d="M 187.49 196.82 C 187.49 208.56 173.82 218.08 156.95 218.08 C 140.08 218.08 126.41 208.56 126.41 196.82 C 126.41 185.07 140.08 175.56 156.95 175.56 C 173.82 175.56 187.49 185.07 187.49 196.82 Z "/>
<g id="Layer-1" data-name="P">
<clipPath id="cp1156">
<path transform="matrix(1,0,0,-1,0,841.5)" d="M .000008862 0 L 594.75 0 L 594.75 841.5 L .000008862 841.5 Z " fill-rule="evenodd"/>
</clipPath>
<g clip-path="url(#cp1156)">
<text xml:space="preserve" transform="matrix(1 0 -0 1 0 841.5)" font-size="9" font-family="ArialNarrow" font-style="italic"><tspan y="-205.4" x="136 139.753 144.244 146.494 148.735 150.976 152.479 156.97 160.723 162.964 164.46701 168.21102 171.96402 174.21402">part. delivery</tspan></text>
</g>
</g>
<g id="Layer-1" data-name="P">
<clipPath id="cp1157">
<path transform="matrix(1,0,0,-1,0,841.5)" d="M .000008862 0 L 594.75 0 L 594.75 841.5 L .000008862 841.5 Z " fill-rule="evenodd"/>
</clipPath>
<g clip-path="url(#cp1157)">
<text xml:space="preserve" transform="matrix(1 0 -0 1 0 841.5)" font-size="9" font-family="ArialNarrow" font-weight="bold"><tspan y="-194.58" x="134.78 137.03 142.27701 145.26502 149.01802 151.25902 153.50002 155.75002 160.24102 164.75002 169.25902 172.99402 177.48502 179.72602">(Ute, {shoes, </tspan></text>
</g>
</g>
<g id="Layer-1" data-name="P">
<clipPath id="cp1158">
<path transform="matrix(1,0,0,-1,0,841.5)" d="M .000008862 0 L 594.75 0 L 594.75 841.5 L .000008862 841.5 Z " fill-rule="evenodd"/>
</clipPath>
<g clip-path="url(#cp1158)">
<text xml:space="preserve" transform="matrix(1 0 -0 1 0 841.5)" font-size="9" font-family="ArialNarrow" font-weight="bold"><tspan y="-183.77" x="136.2 139.97101 144.48001 149.016 153.53401 157.30503 159.57303 161.84104 166.35004 170.13904 173.15404 176.16904">shoes, hat})</tspan></text>
</g>
</g>
<clipPath id="cp1159">
<path transform="matrix(1,0,0,-1,0,841.5)" d="M -.000030518 841.5 L 594.75 841.5 L 594.75 .00018311 L .000030518 .00018311 " fill-rule="evenodd"/>
</clipPath>
<g clip-path="url(#cp1159)">
<path transform="matrix(1,0,0,-1,0,841.5)" stroke-width="1.5" stroke-linecap="round" stroke-linejoin="round" fill="none" stroke="#000000" d="M 178.82 255.95 L 168.62 229.67 "/>
</g>
<clipPath id="cp1160">
<path transform="matrix(1,0,0,-1,0,841.5)" d="M -.000030518 841.5 L 594.75 841.5 L 594.75 .00018311 L .000030518 .00018311 " fill-rule="evenodd"/>
</clipPath>
<g clip-path="url(#cp1160)">
<path transform="matrix(1,0,0,-1,0,841.5)" d="M 173.47 229.06 L 163.9 217.52 L 164.63 232.49 L 173.47 229.06 Z " fill-rule="evenodd"/>
</g>
<path transform="matrix(1,0,0,-1,0,841.5)" d="M 175.54 255.95 L 221.34 255.95 L 221.34 298.47 L 175.54 298.47 Z " fill="#ffffff" fill-rule="evenodd"/>
<path transform="matrix(1,0,0,-1,0,841.5)" stroke-width="2" stroke-linecap="round" stroke-linejoin="round" fill="none" stroke="#000000" d="M 175.54 255.95 L 221.34 255.95 L 221.34 298.47 L 175.54 298.47 Z "/>
<g id="Layer-1" data-name="P">
<clipPath id="cp1161">
<path transform="matrix(1,0,0,-1,0,841.5)" d="M .000008862 0 L 594.75 0 L 594.75 841.5 L .000008862 841.5 Z " fill-rule="evenodd"/>
</clipPath>
<g clip-path="url(#cp1161)">
<text xml:space="preserve" transform="matrix(1 0 -0 1 0 841.5)" font-size="9.025" font-family="ArialNarrow" font-weight="bold"><tspan y="-279.42" x="186.77 191.29154 195.07302 197.3112 199.5494 203.32184 207.83434 210.82163">deliver </tspan></text>
</g>
</g>
<g id="Layer-1" data-name="P">
<clipPath id="cp1162">
<path transform="matrix(1,0,0,-1,0,841.5)" d="M .000008862 0 L 594.75 0 L 594.75 841.5 L .000008862 841.5 Z " fill-rule="evenodd"/>
</clipPath>
<g clip-path="url(#cp1162)">
<text xml:space="preserve" transform="matrix(1 0 -0 1 0 841.5)" font-size="9" font-family="ArialNarrow" font-weight="bold"><tspan y="-268.6" x="187.2 189.45 192.438 196.929 198.432 202.94101 207.45001">freight</tspan></text>
</g>
</g>
<clipPath id="cp1163">
<path transform="matrix(1,0,0,-1,0,841.5)" d="M -.00010681 841.5 L 594.75 841.5 L 594.75 0 L -.000091553 .000061035 " fill-rule="evenodd"/>
</clipPath>
<g clip-path="url(#cp1163)">
<path transform="matrix(1,0,0,-1,0,841.5)" stroke-width="1.5" stroke-linecap="round" stroke-linejoin="round" fill="none" stroke="#000000" d="M 241.21 146.4 L 311.13 277.87 "/>
</g>
<path transform="matrix(1,0,0,-1,0,841.5)" stroke-width="1.5" stroke-linecap="round" stroke-linejoin="round" fill="none" stroke="#000000" d="M 241.21 146.4 L 202.99 146.4 "/>
<path transform="matrix(1,0,0,-1,0,841.5)" d="M 204.17 141.66 L 189.95 146.4 L 204.17 151.14 L 204.17 141.66 Z " fill-rule="evenodd"/>
<clipPath id="cp1164">
<path transform="matrix(1,0,0,-1,0,841.5)" d="M -.000030518 841.5 L 594.75 841.5 L 594.75 .00018311 L -.000030518 .00012207 " fill-rule="evenodd"/>
</clipPath>
<g clip-path="url(#cp1164)">
<path transform="matrix(1,0,0,-1,0,841.5)" stroke-width="1.5" stroke-linecap="round" stroke-linejoin="round" fill="none" stroke="#000000" d="M 161.32 407.18 L 240.27 408.05 "/>
</g>
<path transform="matrix(1,0,0,-1,0,841.5)" d="M 192.08 407.46 C 192.08 419.2 178.31 428.72 161.32 428.72 C 144.33 428.72 130.55 419.2 130.55 407.46 C 130.55 395.72 144.33 386.2 161.32 386.2 C 178.31 386.2 192.08 395.72 192.08 407.46 Z " fill="#ffffff" fill-rule="evenodd"/>
<path transform="matrix(1,0,0,-1,0,841.5)" stroke-width="1.5" stroke-linecap="round" stroke-linejoin="round" fill="none" stroke="#000000" d="M 192.08 407.46 C 192.08 419.2 178.31 428.72 161.32 428.72 C 144.33 428.72 130.55 419.2 130.55 407.46 C 130.55 395.72 144.33 386.2 161.32 386.2 C 178.31 386.2 192.08 395.72 192.08 407.46 Z "/>
<g id="Layer-1" data-name="P">
<clipPath id="cp1165">
<path transform="matrix(1,0,0,-1,0,841.5)" d="M .000008862 0 L 594.75 0 L 594.75 841.5 L .000008862 841.5 Z " fill-rule="evenodd"/>
</clipPath>
<g clip-path="url(#cp1165)">
<text xml:space="preserve" transform="matrix(1 0 -0 1 0 841.5)" font-size="9" font-family="ArialNarrow" font-style="italic"><tspan y="-409.77" x="138.1 140.341 144.11202 146.35301 148.59401 150.84401 154.61502 156.85602 160.62703 165.14504 166.64804 168.88904 171.13004 174.90105 177.88906 183.16306">to freight forw.</tspan></text>
</g>
</g>
<g id="Layer-1" data-name="P">
<clipPath id="cp1166">
<path transform="matrix(1,0,0,-1,0,841.5)" d="M .000008862 0 L 594.75 0 L 594.75 841.5 L .000008862 841.5 Z " fill-rule="evenodd"/>
</clipPath>
<g clip-path="url(#cp1166)">
<text xml:space="preserve" transform="matrix(1 0 -0 1 0 841.5)" font-size="9" font-family="ArialNarrow" font-weight="bold"><tspan y="-409.77" x="184.93"> </tspan></text>
</g>
</g>
<g id="Layer-1" data-name="P">
<clipPath id="cp1167">
<path transform="matrix(1,0,0,-1,0,841.5)" d="M .000008862 0 L 594.75 0 L 594.75 841.5 L .000008862 841.5 Z " fill-rule="evenodd"/>
</clipPath>
<g clip-path="url(#cp1167)">
<text xml:space="preserve" transform="matrix(1 0 -0 1 0 841.5)" font-size="9" font-family="ArialNarrow" font-weight="bold"><tspan y="-398.95" x="142.65 144.9 150.147 153.13501 156.88802 159.12902 161.37001 163.62001 168.12902 172.61103 174.86103 177.84903">(Ute, {hat})</tspan></text>
</g>
</g>
<path transform="matrix(1,0,0,-1,0,841.5)" d="M 189.95 146.67 C 189.95 158.41 176.12 167.93 159.06 167.93 C 142 167.93 128.17 158.41 128.17 146.67 C 128.17 134.93 142 125.41 159.06 125.41 C 176.12 125.41 189.95 134.93 189.95 146.67 Z " fill="#ffffff" fill-rule="evenodd"/>
<path transform="matrix(1,0,0,-1,0,841.5)" stroke-width="1.5" stroke-linecap="round" stroke-linejoin="round" fill="none" stroke="#000000" d="M 189.95 146.67 C 189.95 158.41 176.12 167.93 159.06 167.93 C 142 167.93 128.17 158.41 128.17 146.67 C 128.17 134.93 142 125.41 159.06 125.41 C 176.12 125.41 189.95 134.93 189.95 146.67 Z "/>
<g id="Layer-1" data-name="P">
<clipPath id="cp1168">
<path transform="matrix(1,0,0,-1,0,841.5)" d="M .000008862 0 L 594.75 0 L 594.75 841.5 L .000008862 841.5 Z " fill-rule="evenodd"/>
</clipPath>
<g clip-path="url(#cp1168)">
<text xml:space="preserve" transform="matrix(1 0 -0 1 0 841.5)" font-size="9" font-family="ArialNarrow" font-style="italic"><tspan y="-148.75" x="138.1 141.87102 146.38903 148.66603 150.93404 153.20204 154.72304 159.24105 163.01206 165.28006 166.80106 170.56307 174.33408 176.61109">part. delivery</tspan></text>
</g>
</g>
<g id="Layer-1" data-name="P">
<clipPath id="cp1169">
<path transform="matrix(1,0,0,-1,0,841.5)" d="M .000008862 0 L 594.75 0 L 594.75 841.5 L .000008862 841.5 Z " fill-rule="evenodd"/>
</clipPath>
<g clip-path="url(#cp1169)">
<text xml:space="preserve" transform="matrix(1 0 -0 1 0 841.5)" font-size="9" font-family="ArialNarrow" font-weight="bold"><tspan y="-148.75" x="180.43"> </tspan></text>
</g>
</g>
<g id="Layer-1" data-name="P">
<clipPath id="cp1170">
<path transform="matrix(1,0,0,-1,0,841.5)" d="M .000008862 0 L 594.75 0 L 594.75 841.5 L .000008862 841.5 Z " fill-rule="evenodd"/>
</clipPath>
<g clip-path="url(#cp1170)">
<text xml:space="preserve" transform="matrix(1 0 -0 1 0 841.5)" font-size="9.025" font-family="ArialNarrow" font-weight="bold"><tspan y="-137.95" x="140.38 142.6543 147.9249 150.93924 154.71169 156.97696 159.24224 161.51654 166.03807 170.5596 172.8339 175.84824">(Ute, {hat})</tspan></text>
</g>
</g>
<path transform="matrix(1,0,0,-1,0,841.5)" d="M 282.79 255.95 L 328.59 255.95 L 328.59 298.47 L 282.79 298.47 Z " fill="#ffffff" fill-rule="evenodd"/>
<path transform="matrix(1,0,0,-1,0,841.5)" stroke-width="2" stroke-linecap="round" stroke-linejoin="round" fill="none" stroke="#000000" d="M 282.79 255.95 L 328.59 255.95 L 328.59 298.47 L 282.79 298.47 Z "/>
<g id="Layer-1" data-name="P">
<clipPath id="cp1171">
<path transform="matrix(1,0,0,-1,0,841.5)" d="M .000008862 0 L 594.75 0 L 594.75 841.5 L .000008862 841.5 Z " fill-rule="evenodd"/>
</clipPath>
<g clip-path="url(#cp1171)">
<text xml:space="preserve" transform="matrix(1 0 -0 1 0 841.5)" font-size="9.025" font-family="ArialNarrow" font-weight="bold"><tspan y="-279.42" x="294.15 298.6715 302.45298 304.71827 306.98356 310.75599 315.26847 318.2828">deliver </tspan></text>
</g>
</g>
<g id="Layer-1" data-name="P">
<clipPath id="cp1172">
<path transform="matrix(1,0,0,-1,0,841.5)" d="M .000008862 0 L 594.75 0 L 594.75 841.5 L .000008862 841.5 Z " fill-rule="evenodd"/>
</clipPath>
<g clip-path="url(#cp1172)">
<text xml:space="preserve" transform="matrix(1 0 -0 1 0 841.5)" font-size="9" font-family="ArialNarrow" font-weight="bold"><tspan y="-268.6" x="294.58 296.83 299.818 304.336 305.839 310.348 314.884">freight</tspan></text>
</g>
</g>
<clipPath id="cp1173">
<path transform="matrix(1,0,0,-1,0,841.5)" d="M -.000045776 841.5 L 594.75 841.5 L 594.75 .00018311 L -.000061035 .00018311 " fill-rule="evenodd"/>
</clipPath>
<g clip-path="url(#cp1173)">
<path transform="matrix(1,0,0,-1,0,841.5)" stroke-width="1.5" stroke-linecap="round" stroke-linejoin="round" fill="none" stroke="#000000" d="M 240.27 408.05 L 287.85 310.19 "/>
</g>
<clipPath id="cp1174">
<path transform="matrix(1,0,0,-1,0,841.5)" d="M -.000045776 841.5 L 594.75 841.5 L 594.75 .00018311 L -.000061035 .00018311 " fill-rule="evenodd"/>
</clipPath>
<g clip-path="url(#cp1174)">
<path transform="matrix(1,0,0,-1,0,841.5)" d="M 291.6 313.33 L 293.55 298.47 L 283.07 309.18 L 291.6 313.33 Z " fill-rule="evenodd"/>
</g>
<path transform="matrix(1,0,0,-1,0,841.5)" d="M 353.65 346.51 C 353.65 358.26 343.4 367.77 330.75 367.77 C 318.11 367.77 307.85 358.26 307.85 346.51 C 307.85 334.77 318.11 325.25 330.75 325.25 C 343.4 325.25 353.65 334.77 353.65 346.51 Z " fill="#ffffff" fill-rule="evenodd"/>
<path transform="matrix(1,0,0,-1,0,841.5)" stroke-width="1.5" stroke-linecap="round" stroke-linejoin="round" fill="none" stroke="#000000" d="M 353.65 346.51 C 353.65 358.26 343.4 367.77 330.75 367.77 C 318.11 367.77 307.85 358.26 307.85 346.51 C 307.85 334.77 318.11 325.25 330.75 325.25 C 343.4 325.25 353.65 334.77 353.65 346.51 Z "/>
<g id="Layer-1" data-name="P">
<clipPath id="cp1175">
<path transform="matrix(1,0,0,-1,0,841.5)" d="M .000008862 0 L 594.75 0 L 594.75 841.5 L .000008862 841.5 Z " fill-rule="evenodd"/>
</clipPath>
<g clip-path="url(#cp1175)">
<text xml:space="preserve" transform="matrix(1 0 -0 1 0 841.5)" font-size="9" font-family="ArialNarrow" font-style="italic"><tspan y="-354.18" x="320.9 323.141 325.391 329.14399 331.38499 335.13798 339.62898 341.13197">freight </tspan></text>
</g>
</g>
<g id="Layer-1" data-name="P">
<clipPath id="cp1176">
<path transform="matrix(1,0,0,-1,0,841.5)" d="M .000008862 0 L 594.75 0 L 594.75 841.5 L .000008862 841.5 Z " fill-rule="evenodd"/>
</clipPath>
<g clip-path="url(#cp1176)">
<text xml:space="preserve" transform="matrix(1 0 -0 1 0 841.5)" font-size="9" font-family="ArialNarrow" font-style="italic"><tspan y="-343.38" x="315.58 317.82099 321.57398 323.82398 329.81797 333.57096 335.82096 340.31196 344.06495">forwarder</tspan></text>
</g>
</g>
<g id="Layer-1" data-name="P">
<clipPath id="cp1177">
<path transform="matrix(1,0,0,-1,0,841.5)" d="M .000008862 0 L 594.75 0 L 594.75 841.5 L .000008862 841.5 Z " fill-rule="evenodd"/>
</clipPath>
<g clip-path="url(#cp1177)">
<text xml:space="preserve" transform="matrix(1 0 -0 1 0 841.5)" font-size="9.025" font-family="ArialNarrow" font-weight="bold"><tspan y="-332.58" x="321.52 327.5216 332.01606 333.51423 338.00868">Maier</tspan></text>
</g>
</g>
<path transform="matrix(1,0,0,-1,0,841.5)" d="M 356.93 204.78 C 356.93 216.52 346.68 226.04 334.03 226.04 C 321.39 226.04 311.13 216.52 311.13 204.78 C 311.13 193.04 321.39 183.52 334.03 183.52 C 346.68 183.52 356.93 193.04 356.93 204.78 Z " fill="#ffffff" fill-rule="evenodd"/>
<path transform="matrix(1,0,0,-1,0,841.5)" stroke-width="1.5" stroke-linecap="round" stroke-linejoin="round" fill="none" stroke="#000000" d="M 356.93 204.78 C 356.93 216.52 346.68 226.04 334.03 226.04 C 321.39 226.04 311.13 216.52 311.13 204.78 C 311.13 193.04 321.39 183.52 334.03 183.52 C 346.68 183.52 356.93 193.04 356.93 204.78 Z "/>
<g id="Layer-1" data-name="P">
<clipPath id="cp1178">
<path transform="matrix(1,0,0,-1,0,841.5)" d="M .000008862 0 L 594.75 0 L 594.75 841.5 L .000008862 841.5 Z " fill-rule="evenodd"/>
</clipPath>
<g clip-path="url(#cp1178)">
<text xml:space="preserve" transform="matrix(1 0 -0 1 0 841.5)" font-size="9" font-family="ArialNarrow" font-style="italic"><tspan y="-212.33" x="324.2 326.441 328.691 332.444 334.685 338.438 342.929 344.43199">freight </tspan></text>
</g>
</g>
<g id="Layer-1" data-name="P">
<clipPath id="cp1179">
<path transform="matrix(1,0,0,-1,0,841.5)" d="M .000008862 0 L 594.75 0 L 594.75 841.5 L .000008862 841.5 Z " fill-rule="evenodd"/>
</clipPath>
<g clip-path="url(#cp1179)">
<text xml:space="preserve" transform="matrix(1 0 -0 1 0 841.5)" font-size="9.025" font-family="ArialNarrow" font-style="italic"><tspan y="-201.53" x="318.85 321.08824 324.84263 327.08985 333.10954 336.86393 339.11116 343.6056 347.36">forwarder</tspan></text>
</g>
</g>
<g id="Layer-1" data-name="P">
<clipPath id="cp1180">
<path transform="matrix(1,0,0,-1,0,841.5)" d="M .000008862 0 L 594.75 0 L 594.75 841.5 L .000008862 841.5 Z " fill-rule="evenodd"/>
</clipPath>
<g clip-path="url(#cp1180)">
<text xml:space="preserve" transform="matrix(1 0 -0 1 0 841.5)" font-size="9" font-family="ArialNarrow" font-weight="bold"><tspan y="-190.7" x="324.8 330.82099 335.339 336.84199 341.36">Maier</tspan></text>
</g>
</g>
<clipPath id="cp1181">
<path transform="matrix(1,0,0,-1,0,841.5)" d="M .000015259 841.5 L 594.75 841.5 L 594.75 .00012207 L .000076294 .000061035 " fill-rule="evenodd"/>
</clipPath>
<g clip-path="url(#cp1181)">
<path transform="matrix(1,0,0,-1,0,841.5)" stroke-width="1.5" stroke-linecap="round" stroke-linejoin="round" fill="none" stroke="#000000" d="M 227.97 342.26 L 213.68 310.39 "/>
</g>
<clipPath id="cp1182">
<path transform="matrix(1,0,0,-1,0,841.5)" d="M .000015259 841.5 L 594.75 841.5 L 594.75 .00012207 L .000076294 .000061035 " fill-rule="evenodd"/>
</clipPath>
<g clip-path="url(#cp1182)">
<path transform="matrix(1,0,0,-1,0,841.5)" d="M 218.49 309.53 L 208.35 298.5 L 209.84 313.41 L 218.49 309.53 Z " fill-rule="evenodd"/>
</g>
<path transform="matrix(1,0,0,-1,0,841.5)" d="M 245.84 347.93 C 245.84 359.67 235.58 369.19 222.94 369.19 C 210.29 369.19 200.04 359.67 200.04 347.93 C 200.04 336.19 210.29 326.67 222.94 326.67 C 235.58 326.67 245.84 336.19 245.84 347.93 Z " fill="#ffffff" fill-rule="evenodd"/>
<path transform="matrix(1,0,0,-1,0,841.5)" stroke-width="1.5" stroke-linecap="round" stroke-linejoin="round" fill="none" stroke="#000000" d="M 245.84 347.93 C 245.84 359.67 235.58 369.19 222.94 369.19 C 210.29 369.19 200.04 359.67 200.04 347.93 C 200.04 336.19 210.29 326.67 222.94 326.67 C 235.58 326.67 245.84 336.19 245.84 347.93 Z "/>
<g id="Layer-1" data-name="P">
<clipPath id="cp1183">
<path transform="matrix(1,0,0,-1,0,841.5)" d="M .000008862 0 L 594.75 0 L 594.75 841.5 L .000008862 841.5 Z " fill-rule="evenodd"/>
</clipPath>
<g clip-path="url(#cp1183)">
<text xml:space="preserve" transform="matrix(1 0 -0 1 0 841.5)" font-size="9" font-family="ArialNarrow" font-style="italic"><tspan y="-355.6" x="212.95 215.191 217.441 221.194 223.435 227.188 231.679 233.182">freight </tspan></text>
</g>
</g>
<g id="Layer-1" data-name="P">
<clipPath id="cp1184">
<path transform="matrix(1,0,0,-1,0,841.5)" d="M .000008862 0 L 594.75 0 L 594.75 841.5 L .000008862 841.5 Z " fill-rule="evenodd"/>
</clipPath>
<g clip-path="url(#cp1184)">
<text xml:space="preserve" transform="matrix(1 0 -0 1 0 841.5)" font-size="9.025" font-family="ArialNarrow" font-style="italic"><tspan y="-344.8" x="207.63 209.8682 213.6226 215.86983 221.86243 225.61684 227.86406 232.3585 236.11292">forwarder</tspan></text>
</g>
</g>
<g id="Layer-1" data-name="P">
<clipPath id="cp1185">
<path transform="matrix(1,0,0,-1,0,841.5)" d="M .000008862 0 L 594.75 0 L 594.75 841.5 L .000008862 841.5 Z " fill-rule="evenodd"/>
</clipPath>
<g clip-path="url(#cp1185)">
<text xml:space="preserve" transform="matrix(1 0 -0 1 0 841.5)" font-size="9" font-family="ArialNarrow" font-weight="bold"><tspan y="-333.98" x="211.3 216.565 220.33602 224.84502 229.38101 231.64902">Schulz</tspan></text>
</g>
</g>
<path transform="matrix(1,0,0,-1,0,841.5)" d="M 244.44 200.53 C 244.44 212.27 234.19 221.79 221.54 221.79 C 208.89 221.79 198.64 212.27 198.64 200.53 C 198.64 188.79 208.89 179.27 221.54 179.27 C 234.19 179.27 244.44 188.79 244.44 200.53 Z " fill="#ffffff" fill-rule="evenodd"/>
<path transform="matrix(1,0,0,-1,0,841.5)" stroke-width="1.5" stroke-linecap="round" stroke-linejoin="round" fill="none" stroke="#000000" d="M 244.44 200.53 C 244.44 212.27 234.19 221.79 221.54 221.79 C 208.89 221.79 198.64 212.27 198.64 200.53 C 198.64 188.79 208.89 179.27 221.54 179.27 C 234.19 179.27 244.44 188.79 244.44 200.53 Z "/>
<g id="Layer-1" data-name="P">
<clipPath id="cp1186">
<path transform="matrix(1,0,0,-1,0,841.5)" d="M .000008862 0 L 594.75 0 L 594.75 841.5 L .000008862 841.5 Z " fill-rule="evenodd"/>
</clipPath>
<g clip-path="url(#cp1186)">
<text xml:space="preserve" transform="matrix(1 0 -0 1 0 841.5)" font-size="9" font-family="ArialNarrow" font-style="italic"><tspan y="-208.08" x="211.55 213.791 216.041 219.794 222.035 225.78801 230.279 231.78202">freight </tspan></text>
</g>
</g>
<g id="Layer-1" data-name="P">
<clipPath id="cp1187">
<path transform="matrix(1,0,0,-1,0,841.5)" d="M .000008862 0 L 594.75 0 L 594.75 841.5 L .000008862 841.5 Z " fill-rule="evenodd"/>
</clipPath>
<g clip-path="url(#cp1187)">
<text xml:space="preserve" transform="matrix(1 0 -0 1 0 841.5)" font-size="9.025" font-family="ArialNarrow" font-style="italic"><tspan y="-197.27" x="206.23 208.46819 212.2226 214.46982 220.46242 224.21683 226.46405 230.9585 234.7129">forwarder</tspan></text>
</g>
</g>
<g id="Layer-1" data-name="P">
<clipPath id="cp1188">
<path transform="matrix(1,0,0,-1,0,841.5)" d="M .000008862 0 L 594.75 0 L 594.75 841.5 L .000008862 841.5 Z " fill-rule="evenodd"/>
</clipPath>
<g clip-path="url(#cp1188)">
<text xml:space="preserve" transform="matrix(1 0 -0 1 0 841.5)" font-size="9" font-family="ArialNarrow" font-weight="bold"><tspan y="-186.45" x="209.9 215.165 218.936 223.445 227.981 230.24901">Schulz</tspan></text>
</g>
</g>
<g id="Layer-1" data-name="P">
<clipPath id="cp1189">
<path transform="matrix(1,0,0,-1,0,841.5)" d="M .000008862 0 L 594.75 0 L 594.75 841.5 L .000008862 841.5 Z " fill-rule="evenodd"/>
</clipPath>
<g clip-path="url(#cp1189)">
<text xml:space="preserve" transform="matrix(1 0 -0 1 0 841.5)" font-size="12.025" font-family="ArialNarrow" font-style="italic"><tspan y="-262.05" x="228.23">a</tspan></text>
</g>
</g>
<g id="Layer-1" data-name="P">
<clipPath id="cp1190">
<path transform="matrix(1,0,0,-1,0,841.5)" d="M .000008862 0 L 594.75 0 L 594.75 841.5 L .000008862 841.5 Z " fill-rule="evenodd"/>
</clipPath>
<g clip-path="url(#cp1190)">
<text xml:space="preserve" transform="matrix(1 0 -0 1 0 841.5)" font-size="12.025" font-family="ArialNarrow" font-style="italic"><tspan y="-262.05" x="339.48">b</tspan></text>
</g>
</g>
<g id="Layer-1" data-name="P">
<clipPath id="cp1191">
<path transform="matrix(1,0,0,-1,0,841.5)" d="M .000008862 0 L 594.75 0 L 594.75 841.5 L .000008862 841.5 Z " fill-rule="evenodd"/>
</clipPath>
<g clip-path="url(#cp1191)">
<text xml:space="preserve" transform="matrix(1 0 -0 1 0 841.5)" font-size="12" font-family="ArialNarrow" font-style="italic"><tspan y="-392.4" x="197.35">F</tspan></text>
</g>
</g>
<g id="Layer-1" data-name="P">
<clipPath id="cp1192">
<path transform="matrix(1,0,0,-1,0,841.5)" d="M .000008862 0 L 594.75 0 L 594.75 841.5 L .000008862 841.5 Z " fill-rule="evenodd"/>
</clipPath>
<g clip-path="url(#cp1192)">
<text xml:space="preserve" transform="matrix(1 0 -0 1 0 841.5)" font-size="12" font-family="ArialNarrow" font-style="italic"><tspan y="-331.4" x="183.88">A</tspan></text>
</g>
</g>
<g id="Layer-1" data-name="P">
<clipPath id="cp1193">
<path transform="matrix(1,0,0,-1,0,841.5)" d="M .000008862 0 L 594.75 0 L 594.75 841.5 L .000008862 841.5 Z " fill-rule="evenodd"/>
</clipPath>
<g clip-path="url(#cp1193)">
<text xml:space="preserve" transform="matrix(1 0 -0 1 0 841.5)" font-size="12" font-family="ArialNarrow" font-style="italic"><tspan y="-322.63" x="240.65">B</tspan></text>
</g>
</g>
<g id="Layer-1" data-name="P">
<clipPath id="cp1194">
<path transform="matrix(1,0,0,-1,0,841.5)" d="M .000008862 0 L 594.75 0 L 594.75 841.5 L .000008862 841.5 Z " fill-rule="evenodd"/>
</clipPath>
<g clip-path="url(#cp1194)">
<text xml:space="preserve" transform="matrix(1 0 -0 1 0 841.5)" font-size="12" font-family="ArialNarrow" font-style="italic"><tspan y="-217.08" x="171.3">C</tspan></text>
</g>
</g>
<g id="Layer-1" data-name="P">
<clipPath id="cp1195">
<path transform="matrix(1,0,0,-1,0,841.5)" d="M .000008862 0 L 594.75 0 L 594.75 841.5 L .000008862 841.5 Z " fill-rule="evenodd"/>
</clipPath>
<g clip-path="url(#cp1195)">
<text xml:space="preserve" transform="matrix(1 0 -0 1 0 841.5)" font-size="12.025" font-family="ArialNarrow" font-style="italic"><tspan y="-163.85" x="220.23">D</tspan></text>
</g>
</g>
<g id="Layer-1" data-name="P">
<clipPath id="cp1196">
<path transform="matrix(1,0,0,-1,0,841.5)" d="M .000008862 0 L 594.75 0 L 594.75 841.5 L .000008862 841.5 Z " fill-rule="evenodd"/>
</clipPath>
<g clip-path="url(#cp1196)">
<text xml:space="preserve" transform="matrix(1 0 -0 1 0 841.5)" font-size="12" font-family="ArialNarrow" font-style="italic"><tspan y="-124.03" x="196.13">E</tspan></text>
</g>
</g>
<g id="Layer-1" data-name="P">
<clipPath id="cp1197">
<path transform="matrix(1,0,0,-1,0,841.5)" d="M .000008862 0 L 594.75 0 L 594.75 841.5 L .000008862 841.5 Z " fill-rule="evenodd"/>
</clipPath>
<g clip-path="url(#cp1197)">
<text xml:space="preserve" transform="matrix(1 0 -0 1 0 841.5)" font-size="12" font-family="ArialNarrow" font-style="italic"><tspan y="-369.15" x="303.73">G</tspan></text>
</g>
</g>
<g id="Layer-1" data-name="P">
<clipPath id="cp1198">
<path transform="matrix(1,0,0,-1,0,841.5)" d="M .000008862 0 L 594.75 0 L 594.75 841.5 L .000008862 841.5 Z " fill-rule="evenodd"/>
</clipPath>
<g clip-path="url(#cp1198)">
<text xml:space="preserve" transform="matrix(1 0 -0 1 0 841.5)" font-size="12" font-family="ArialNarrow" font-style="italic"><tspan y="-166.57" x="319.13">H</tspan></text>
</g>
</g>
</g>
</g>
</svg>
