<?xml version="1.0" encoding="UTF-8" standalone="no"?>
<!DOCTYPE svg PUBLIC "-//W3C//DTD SVG 1.1//EN" "http://www.w3.org/Graphics/SVG/1.1/DTD/svg11.dtd">
<svg xmlns="http://www.w3.org/2000/svg" xmlns:xlink="http://www.w3.org/1999/xlink" version="1.1" width="594.75pt" height="841.5pt" viewBox="0 0 594.75 841.5">
<g enable-background="new">
<g>
<path transform="matrix(1,0,0,-1,0,841.5)" d="M 158.58 391.53 L 302.54 391.53 L 302.54 523.64 L 158.58 523.64 Z " fill="#7e649e" fill-opacity=".18824" fill-rule="evenodd"/>
<g id="Layer-1" data-name="P">
<clipPath id="cp1116">
<path transform="matrix(1,0,0,-1,0,841.5)" d="M .000008862 0 L 594.75 0 L 594.75 841.5 L .000008862 841.5 Z " fill-rule="evenodd"/>
</clipPath>
<g clip-path="url(#cp1116)">
<text xml:space="preserve" transform="matrix(1 0 -0 1 0 841.5)" font-size="12.025" font-family="ArialMT"><tspan y="-453.65" x="230.85">&#x200b;</tspan></text>
</g>
</g>
<clipPath id="cp1117">
<path transform="matrix(1,0,0,-1,0,841.5)" d="M 0 841.5 L 594.75 841.5 L 594.75 0 L .000091553 0 " fill-rule="evenodd"/>
</clipPath>
<g clip-path="url(#cp1117)">
<path transform="matrix(1,0,0,-1,0,841.5)" stroke-width="1.5" stroke-linecap="round" stroke-linejoin="round" fill="none" stroke="#000000" d="M 207.35 454.2 L 183.74 437.56 "/>
</g>
<clipPath id="cp1118">
<path transform="matrix(1,0,0,-1,0,841.5)" d="M 0 841.5 L 594.75 841.5 L 594.75 0 L .000091553 0 " fill-rule="evenodd"/>
</clipPath>
<g clip-path="url(#cp1118)">
<path transform="matrix(1,0,0,-1,0,841.5)" d="M 204.21 456.91 L 216.38 460.57 L 208.84 450.33 L 204.21 456.91 Z " fill-rule="evenodd"/>
</g>
<clipPath id="cp1119">
<path transform="matrix(1,0,0,-1,0,841.5)" d="M 0 841.5 L 594.75 841.5 L 594.75 0 L .000091553 0 " fill-rule="evenodd"/>
</clipPath>
<g clip-path="url(#cp1119)">
<path transform="matrix(1,0,0,-1,0,841.5)" d="M 187.44 434.37 L 173.09 430.05 L 181.98 442.12 L 187.44 434.37 Z " fill-rule="evenodd"/>
</g>
<clipPath id="cp1120">
<path transform="matrix(1,0,0,-1,0,841.5)" d="M -.000045776 841.5 L 594.75 841.5 L 594.75 .00018311 L 0 .00012207 " fill-rule="evenodd"/>
</clipPath>
<g clip-path="url(#cp1120)">
<path transform="matrix(1,0,0,-1,0,841.5)" stroke-width="1.5" stroke-linecap="round" stroke-linejoin="round" fill="none" stroke="#000000" d="M 162.87 495.43 L 193.53 474.92 "/>
</g>
<clipPath id="cp1121">
<path transform="matrix(1,0,0,-1,0,841.5)" d="M -.000045776 841.5 L 594.75 841.5 L 594.75 .00018311 L 0 .00012207 " fill-rule="evenodd"/>
</clipPath>
<g clip-path="url(#cp1121)">
<path transform="matrix(1,0,0,-1,0,841.5)" d="M 195.18 479.52 L 204.37 467.68 L 189.91 471.64 L 195.18 479.52 Z " fill-rule="evenodd"/>
</g>
<path transform="matrix(1,0,0,-1,0,841.5)" d="M 204.89 447.65 L 265.506 447.65 L 265.506 474.4 L 204.89 474.4 Z " fill="#ffffff" fill-rule="evenodd"/>
<path transform="matrix(1,0,0,-1,0,841.5)" stroke-width="2" stroke-linecap="round" stroke-linejoin="round" fill="none" stroke="#000000" d="M 204.89 447.65 L 265.506 447.65 L 265.506 474.4 L 204.89 474.4 Z "/>
<g id="Layer-1" data-name="P">
<clipPath id="cp1122">
<path transform="matrix(1,0,0,-1,0,841.5)" d="M .000008862 0 L 594.75 0 L 594.75 841.5 L .000008862 841.5 Z " fill-rule="evenodd"/>
</clipPath>
<g clip-path="url(#cp1122)">
<text xml:space="preserve" transform="matrix(1 0 -0 1 0 841.5)" font-size="9" font-family="ArialNarrow" font-weight="bold"><tspan y="-463.4" x="221.53 225.283 229.792 236.52402 241.03302 243.26502 245.50601 249.25902">compile </tspan></text>
</g>
</g>
<g id="Layer-1" data-name="P">
<clipPath id="cp1123">
<path transform="matrix(1,0,0,-1,0,841.5)" d="M .000008862 0 L 594.75 0 L 594.75 841.5 L .000008862 841.5 Z " fill-rule="evenodd"/>
</clipPath>
<g clip-path="url(#cp1123)">
<text xml:space="preserve" transform="matrix(1 0 -0 1 0 841.5)" font-size="9" font-family="ArialNarrow" font-weight="bold"><tspan y="-452.57" x="209.63 214.139 217.11801 221.62702 225.37102 228.35903 232.85002 237.35903 238.85303 243.36203 247.87104 252.35305 256.86204">ordered goods</tspan></text>
</g>
</g>
<path transform="matrix(1,0,0,-1,0,841.5)" d="M 189.75 500.63 C 189.75 508.02 175.83 514.01 158.65 514.01 C 141.48 514.01 127.56 508.02 127.56 500.63 C 127.56 493.25 141.48 487.26 158.65 487.26 C 175.83 487.26 189.75 493.25 189.75 500.63 Z " fill="#ffffff" fill-rule="evenodd"/>
<path transform="matrix(1,0,0,-1,0,841.5)" stroke-width="1.5" stroke-linecap="round" stroke-linejoin="round" fill="none" stroke="#000000" d="M 189.75 500.63 C 189.75 508.02 175.83 514.01 158.65 514.01 C 141.48 514.01 127.56 508.02 127.56 500.63 C 127.56 493.25 141.48 487.26 158.65 487.26 C 175.83 487.26 189.75 493.25 189.75 500.63 Z "/>
<g id="Layer-1" data-name="P">
<clipPath id="cp1124">
<path transform="matrix(1,0,0,-1,0,841.5)" d="M .000008862 0 L 594.75 0 L 594.75 841.5 L .000008862 841.5 Z " fill-rule="evenodd"/>
</clipPath>
<g clip-path="url(#cp1124)">
<text xml:space="preserve" transform="matrix(1 0 -0 1 0 841.5)" font-size="9" font-family="ArialNarrow" font-style="italic"><tspan y="-503.02" x="140.77 144.514 148.26702 152.75801 156.51102 158.75202 161.74903 163.99002 168.48102 170.73102 174.48403">supply ord.</tspan></text>
</g>
</g>
<g id="Layer-1" data-name="P">
<clipPath id="cp1125">
<path transform="matrix(1,0,0,-1,0,841.5)" d="M .000008862 0 L 594.75 0 L 594.75 841.5 L .000008862 841.5 Z " fill-rule="evenodd"/>
</clipPath>
<g clip-path="url(#cp1125)">
<text xml:space="preserve" transform="matrix(1 0 -0 1 0 841.5)" font-size="9" font-family="ArialNarrow" font-weight="bold"><tspan y="-503.02" x="176.92"> </tspan></text>
</g>
</g>
<g id="Layer-1" data-name="P">
<clipPath id="cp1126">
<path transform="matrix(1,0,0,-1,0,841.5)" d="M .000008862 0 L 594.75 0 L 594.75 841.5 L .000008862 841.5 Z " fill-rule="evenodd"/>
</clipPath>
<g clip-path="url(#cp1126)">
<text xml:space="preserve" transform="matrix(1 0 -0 1 0 841.5)" font-size="9.025" font-family="ArialNarrow" font-weight="bold"><tspan y="-492.22" x="143.23 145.50429 149.26772 153.78925 157.57073 160.58507 163.60845 165.87372 168.13899 171.91144">("hat", 2)</tspan></text>
</g>
</g>
<path transform="matrix(1,0,0,-1,0,841.5)" d="M 191.81 414.39 C 191.81 423.76 177.89 431.36 160.72 431.36 C 143.55 431.36 129.62 423.76 129.62 414.39 C 129.62 405.02 143.55 397.42 160.72 397.42 C 177.89 397.42 191.81 405.02 191.81 414.39 Z " fill="#ffffff" fill-rule="evenodd"/>
<path transform="matrix(1,0,0,-1,0,841.5)" stroke-width="1.5" stroke-linecap="round" stroke-linejoin="round" fill="none" stroke="#000000" d="M 191.81 414.39 C 191.81 423.76 177.89 431.36 160.72 431.36 C 143.55 431.36 129.62 423.76 129.62 414.39 C 129.62 405.02 143.55 397.42 160.72 397.42 C 177.89 397.42 191.81 405.02 191.81 414.39 Z "/>
<g id="Layer-1" data-name="P">
<clipPath id="cp1127">
<path transform="matrix(1,0,0,-1,0,841.5)" d="M .000008862 0 L 594.75 0 L 594.75 841.5 L .000008862 841.5 Z " fill-rule="evenodd"/>
</clipPath>
<g clip-path="url(#cp1127)">
<text xml:space="preserve" transform="matrix(1 0 -0 1 0 841.5)" font-size="9" font-family="ArialNarrow" font-style="italic"><tspan y="-422.13" x="146.75 150.503 154.994 158.74701 163.238 166.98201 169.223 170.72602 175.21701">goods to </tspan></text>
</g>
</g>
<g id="Layer-1" data-name="P">
<clipPath id="cp1128">
<path transform="matrix(1,0,0,-1,0,841.5)" d="M .000008862 0 L 594.75 0 L 594.75 841.5 L .000008862 841.5 Z " fill-rule="evenodd"/>
</clipPath>
<g clip-path="url(#cp1128)">
<text xml:space="preserve" transform="matrix(1 0 -0 1 0 841.5)" font-size="9" font-family="ArialNarrow" font-style="italic"><tspan y="-411.3" x="142.85 148.09702 152.58802 154.83802 158.59102 163.08202 166.83502 171.32602 175.07003">warehouse</tspan></text>
</g>
</g>
<g id="Layer-1" data-name="P">
<clipPath id="cp1129">
<path transform="matrix(1,0,0,-1,0,841.5)" d="M .000008862 0 L 594.75 0 L 594.75 841.5 L .000008862 841.5 Z " fill-rule="evenodd"/>
</clipPath>
<g clip-path="url(#cp1129)">
<text xml:space="preserve" transform="matrix(1 0 -0 1 0 841.5)" font-size="9" font-family="ArialNarrow" font-weight="bold"><tspan y="-400.5" x="144.9 147.915 152.424 156.213 159.228 160.749 163.017 167.526 172.06201 174.33902">{hat, hat}</tspan></text>
</g>
</g>
<g id="Layer-1" data-name="P">
<clipPath id="cp1130">
<path transform="matrix(1,0,0,-1,0,841.5)" d="M .000008862 0 L 594.75 0 L 594.75 841.5 L .000008862 841.5 Z " fill-rule="evenodd"/>
</clipPath>
<g clip-path="url(#cp1130)">
<text xml:space="preserve" transform="matrix(1 0 -0 1 0 841.5)" font-size="12" font-family="ArialNarrow" font-style="italic"><tspan y="-430.88" x="258.98">A</tspan></text>
</g>
</g>
<g id="Layer-1" data-name="P">
<clipPath id="cp1131">
<path transform="matrix(1,0,0,-1,0,841.5)" d="M .000008862 0 L 594.75 0 L 594.75 841.5 L .000008862 841.5 Z " fill-rule="evenodd"/>
</clipPath>
<g clip-path="url(#cp1131)">
<text xml:space="preserve" transform="matrix(1 0 -0 1 0 841.5)" font-size="12" font-family="ArialNarrow" font-style="italic"><tspan y="-493.55" x="196.93">a</tspan></text>
</g>
</g>
<g id="Layer-1" data-name="P">
<clipPath id="cp1132">
<path transform="matrix(1,0,0,-1,0,841.5)" d="M .000008862 0 L 594.75 0 L 594.75 841.5 L .000008862 841.5 Z " fill-rule="evenodd"/>
</clipPath>
<g clip-path="url(#cp1132)">
<text xml:space="preserve" transform="matrix(1 0 -0 1 0 841.5)" font-size="12.025" font-family="ArialNarrow" font-style="italic"><tspan y="-403.65" x="195.95">b</tspan></text>
</g>
</g>
</g>
</g>
</svg>
