<?xml version="1.0" encoding="UTF-8" standalone="no"?>
<!DOCTYPE svg PUBLIC "-//W3C//DTD SVG 1.1//EN" "http://www.w3.org/Graphics/SVG/1.1/DTD/svg11.dtd">
<svg xmlns="http://www.w3.org/2000/svg" xmlns:xlink="http://www.w3.org/1999/xlink" version="1.1" width="594.75pt" height="841.5pt" viewBox="0 0 594.75 841.5">
<g enable-background="new">
<g>
<g id="Layer-1" data-name="P">
<clipPath id="cp257">
<path transform="matrix(1,0,0,-1,0,841.5)" d="M .000008862 0 L 594.75 0 L 594.75 841.5 L .000008862 841.5 Z " fill-rule="evenodd"/>
</clipPath>
<g clip-path="url(#cp257)">
<text xml:space="preserve" transform="matrix(1 0 -0 1 0 841.5)" font-size="11.25" font-family="ArialNarrow"><tspan y="-652.95" x="304.6 312.88 315.11875 317.36875 322.61125 324.86125 330.10374 332.35374 336.85374 342.09623 347.3387 351.8387 354.0887 359.3312 361.5812 364.5737 366.8237 372.0662 376.5662 379.5587 384.0587 388.5587 393.80119 401.30494 403.54368 405.79368 408.04368 413.28617 418.52867 420.77867 426.02116 431.26365 434.2674 438.7674 443.2674 448.5099 453.0099 458.25239 460.50239 465.74488 468.74864 473.24864 478.49113 481.49488 483.74488 488.98738 494.22987 498.72987 501.72236 506.22236">With a copy of the submitted purchase order and a </tspan></text>
</g>
</g>
<g id="Layer-1" data-name="P">
<clipPath id="cp258">
<path transform="matrix(1,0,0,-1,0,841.5)" d="M .000008862 0 L 594.75 0 L 594.75 841.5 L .000008862 841.5 Z " fill-rule="evenodd"/>
</clipPath>
<g clip-path="url(#cp258)">
<text xml:space="preserve" transform="matrix(1 0 -0 1 0 841.5)" font-size="11.25" font-family="ArialNarrow"><tspan y="-639.75" x="304.6 309.1 314.3425 317.34626 320.35 324.85 329.35 334.5925 339.835 344.335 349.57749 351.81623 357.05873 361.55873 364.5512 372.05497 376.55497 381.05497 385.55497 390.79747 396.03996 400.53996 403.53245 406.5362 408.03245 413.27494 417.77494 420.01368 424.51368 429.75617 431.9949 437.2374 441.7374 444.7299 449.2299 452.22239 456.72239 461.96488 464.2036 465.69987 470.19987 475.44236 478.4461 482.9461 485.1961 490.4386 495.6811 497.9311 503.17359 506.17735 508.42735">corresponding message (including a delivery date), </tspan></text>
</g>
</g>
<g id="Layer-1" data-name="P">
<clipPath id="cp259">
<path transform="matrix(1,0,0,-1,0,841.5)" d="M .000008862 0 L 594.75 0 L 594.75 841.5 L .000008862 841.5 Z " fill-rule="evenodd"/>
</clipPath>
<g clip-path="url(#cp259)">
<text xml:space="preserve" transform="matrix(1 0 -0 1 0 841.5)" font-size="11.275" font-family="ArialNarrow"><tspan y="-626.53" x="304.6 306.855 312.09788 317.34074 319.59574 324.8386 329.3373 333.83604 339.0789">the event</tspan></text>
</g>
</g>
<g id="Layer-1" data-name="P">
<clipPath id="cp260">
<path transform="matrix(1,0,0,-1,0,841.5)" d="M .000008862 0 L 594.75 0 L 594.75 841.5 L .000008862 841.5 Z " fill-rule="evenodd"/>
</clipPath>
<g clip-path="url(#cp260)">
<text xml:space="preserve" transform="matrix(1 0 -0 1 0 841.5)" font-size="11.275" font-family="ArialNarrow" font-style="italic"><tspan y="-626.53" x="341.77"> </tspan></text>
</g>
</g>
<g id="Layer-1" data-name="P">
<clipPath id="cp261">
<path transform="matrix(1,0,0,-1,0,841.5)" d="M .000008862 0 L 594.75 0 L 594.75 841.5 L .000008862 841.5 Z " fill-rule="evenodd"/>
</clipPath>
<g clip-path="url(#cp261)">
<text xml:space="preserve" transform="matrix(1 0 -0 1 0 841.5)" font-size="11.275" font-family="ArialNarrow" font-weight="bold"><tspan y="-626.53" x="344.27 351.035 354.03416 358.53288 361.52076 364.5199 369.76277 375.0056 379.50434 382.49223 386.99095 392.2338 397.47666 399.73167 407.99626 413.2391 417.73783 422.98069 428.22355 433.4777">Ute receives message</tspan></text>
</g>
</g>
<g id="Layer-1" data-name="P">
<clipPath id="cp262">
<path transform="matrix(1,0,0,-1,0,841.5)" d="M .000008862 0 L 594.75 0 L 594.75 841.5 L .000008862 841.5 Z " fill-rule="evenodd"/>
</clipPath>
<g clip-path="url(#cp262)">
<text xml:space="preserve" transform="matrix(1 0 -0 1 0 841.5)" font-size="11.275" font-family="ArialNarrow" font-style="italic"><tspan y="-626.53" x="438.67"> </tspan></text>
</g>
</g>
<g id="Layer-1" data-name="P">
<clipPath id="cp263">
<path transform="matrix(1,0,0,-1,0,841.5)" d="M .000008862 0 L 594.75 0 L 594.75 841.5 L .000008862 841.5 Z " fill-rule="evenodd"/>
</clipPath>
<g clip-path="url(#cp263)">
<text xml:space="preserve" transform="matrix(1 0 -0 1 0 841.5)" font-size="11.275" font-family="ArialNarrow"><tspan y="-626.53" x="441.17 446.43544 450.9567 455.47798 459.99925 463.02095 467.5422 470.55265 472.8302 475.8519 481.1173 485.63859 490.904 492.40357 495.414 496.91358 502.179 507.4444">occurs, resulting </tspan></text>
</g>
</g>
<g id="Layer-1" data-name="P">
<clipPath id="cp264">
<path transform="matrix(1,0,0,-1,0,841.5)" d="M .000008862 0 L 594.75 0 L 594.75 841.5 L .000008862 841.5 Z " fill-rule="evenodd"/>
</clipPath>
<g clip-path="url(#cp264)">
<text xml:space="preserve" transform="matrix(1 0 -0 1 0 841.5)" font-size="11.275" font-family="ArialNarrow"><tspan y="-613.3" x="304.6 306.84376 311.34248 314.33036 316.58537 321.82823 326.32695 329.31483 333.81355 338.31227 343.5551 348.79798 353.2967 355.5517 360.79457 366.0374 368.29243 373.53529 378.034 380.27775 382.52149 387.0202 391.51893 394.51808 399.01679">in the expected delivery </tspan></text>
</g>
</g>
<g id="Layer-1" data-name="P">
<clipPath id="cp265">
<path transform="matrix(1,0,0,-1,0,841.5)" d="M .000008862 0 L 594.75 0 L 594.75 841.5 L .000008862 841.5 Z " fill-rule="evenodd"/>
</clipPath>
<g clip-path="url(#cp265)">
<text xml:space="preserve" transform="matrix(1 0 -0 1 0 841.5)" font-size="11.275" font-family="ArialNarrow" font-weight="bold"><tspan y="-613.3" x="402.02 405.01914 411.7616 414.76075 419.25947">(Ute,</tspan></text>
</g>
</g>
<g id="Layer-1" data-name="Span">
<clipPath id="cp266">
<path transform="matrix(1,0,0,-1,0,841.5)" d="M .000008862 0 L 594.75 0 L 594.75 841.5 L .000008862 841.5 Z " fill-rule="evenodd"/>
</clipPath>
<g clip-path="url(#cp266)">
<text xml:space="preserve" transform="matrix(1 0 -0 1 0 841.5)" font-size="11.275" font-family="ArialNarrow" font-weight="bold"><tspan y="-613.3" x="422.07"> </tspan></text>
</g>
</g>
<g id="Layer-1" data-name="P">
<clipPath id="cp267">
<path transform="matrix(1,0,0,-1,0,841.5)" d="M .000008862 0 L 594.75 0 L 594.75 841.5 L .000008862 841.5 Z " fill-rule="evenodd"/>
</clipPath>
<g clip-path="url(#cp267)">
<text xml:space="preserve" transform="matrix(1 0 -0 1 0 841.5)" font-size="11.275" font-family="ArialNarrow" font-weight="bold"><tspan y="-613.3" x="424.6 428.3433 433.59745 438.8403 441.0953 443.3503 449.33735 453.83607 456.82395 459.07896 464.3331">{p1, p2, p2</tspan></text>
</g>
</g>
<g id="Layer-1" data-name="P">
<clipPath id="cp268">
<path transform="matrix(1,0,0,-1,0,841.5)" d="M .000008862 0 L 594.75 0 L 594.75 841.5 L .000008862 841.5 Z " fill-rule="evenodd"/>
</clipPath>
<g clip-path="url(#cp268)">
<text xml:space="preserve" transform="matrix(1 0 -0 1 0 841.5)" font-size="11.275" font-family="ArialNarrow" font-weight="bold"><tspan y="-613.3" x="469.78 473.5233 476.52244 478.77745">}). </tspan></text>
</g>
</g>
<clipPath id="cp269">
<path transform="matrix(1,0,0,-1,0,841.5)" d="M 0 841.5 L 594.75 841.5 L 594.75 .00024414 L -.000015259 .00024414 " fill-rule="evenodd"/>
</clipPath>
<g clip-path="url(#cp269)">
<path transform="matrix(1,0,0,-1,0,841.5)" stroke-width="1.5" stroke-linecap="round" stroke-linejoin="round" fill="none" stroke="#000000" d="M 135.31 589.37 L 135.4 570.22 "/>
</g>
<clipPath id="cp270">
<path transform="matrix(1,0,0,-1,0,841.5)" d="M 0 841.5 L 594.75 841.5 L 594.75 .00024414 L -.000015259 .00024414 " fill-rule="evenodd"/>
</clipPath>
<g clip-path="url(#cp270)">
<path transform="matrix(1,0,0,-1,0,841.5)" d="M 140.13 571.42 L 135.45 557.18 L 130.65 571.38 L 140.13 571.42 Z " fill-rule="evenodd"/>
</g>
<clipPath id="cp271">
<path transform="matrix(1,0,0,-1,0,841.5)" d="M -.000091553 841.5 L 594.75 841.5 L 594.75 -.00012207 L -.000091553 -.00012207 " fill-rule="evenodd"/>
</clipPath>
<g clip-path="url(#cp271)">
<path transform="matrix(1,0,0,-1,0,841.5)" stroke-width="1.5" stroke-linecap="round" stroke-linejoin="round" fill="none" stroke="#000000" d="M 257.24 596.76 L 191.23 597.8 "/>
</g>
<clipPath id="cp272">
<path transform="matrix(1,0,0,-1,0,841.5)" d="M -.000091553 841.5 L 594.75 841.5 L 594.75 -.00012207 L -.000091553 -.00012207 " fill-rule="evenodd"/>
</clipPath>
<g clip-path="url(#cp272)">
<path transform="matrix(1,0,0,-1,0,841.5)" d="M 192.34 593.04 L 178.2 598 L 192.49 602.52 L 192.34 593.04 Z " fill-rule="evenodd"/>
</g>
<clipPath id="cp273">
<path transform="matrix(1,0,0,-1,0,841.5)" d="M 0 841.5 L 594.75 841.5 L 594.75 .00018311 L 0 .00018311 " fill-rule="evenodd"/>
</clipPath>
<g clip-path="url(#cp273)">
<path transform="matrix(1,0,0,-1,0,841.5)" stroke-width="1.5" stroke-linecap="round" stroke-linejoin="round" fill="none" stroke="#000000" d="M 135.89 654.45 L 135.89 625.23 "/>
</g>
<clipPath id="cp274">
<path transform="matrix(1,0,0,-1,0,841.5)" d="M 0 841.5 L 594.75 841.5 L 594.75 .00018311 L 0 .00018311 " fill-rule="evenodd"/>
</clipPath>
<g clip-path="url(#cp274)">
<path transform="matrix(1,0,0,-1,0,841.5)" d="M 140.63 626.42 L 135.89 612.2 L 131.15 626.42 L 140.63 626.42 Z " fill-rule="evenodd"/>
</g>
<path transform="matrix(1,0,0,-1,0,841.5)" d="M 176.29 654.66 C 176.29 663.82 158.2 671.24 135.89 671.24 C 113.58 671.24 95.499 663.82 95.499 654.66 C 95.499 645.5 113.58 638.08 135.89 638.08 C 158.2 638.08 176.29 645.5 176.29 654.66 Z " fill="#ffffff" fill-rule="evenodd"/>
<path transform="matrix(1,0,0,-1,0,841.5)" stroke-width="1.5" stroke-linecap="round" stroke-linejoin="round" fill="none" stroke="#000000" d="M 176.29 654.66 C 176.29 663.82 158.2 671.24 135.89 671.24 C 113.58 671.24 95.499 663.82 95.499 654.66 C 95.499 645.5 113.58 638.08 135.89 638.08 C 158.2 638.08 176.29 645.5 176.29 654.66 Z "/>
<g id="Layer-1" data-name="P">
<clipPath id="cp275">
<path transform="matrix(1,0,0,-1,0,841.5)" d="M .000008862 0 L 594.75 0 L 594.75 841.5 L .000008862 841.5 Z " fill-rule="evenodd"/>
</clipPath>
<g clip-path="url(#cp275)">
<text xml:space="preserve" transform="matrix(1 0 -0 1 0 841.5)" font-size="9" font-family="ArialNarrow" font-style="italic"><tspan y="-658.97" x="111.62 115.373 117.614009 119.85501 123.60802 126.596019 130.34902 134.84001 137.09001 139.33101 143.07501 146.82802 151.31902 152.82202 156.57503">p. order copies</tspan></text>
</g>
</g>
<g id="Layer-1" data-name="P">
<clipPath id="cp276">
<path transform="matrix(1,0,0,-1,0,841.5)" d="M .000008862 0 L 594.75 0 L 594.75 841.5 L .000008862 841.5 Z " fill-rule="evenodd"/>
</clipPath>
<g clip-path="url(#cp276)">
<text xml:space="preserve" transform="matrix(1 0 -0 1 0 841.5)" font-size="9" font-family="ArialNarrow" font-style="italic"><tspan y="-648.15" x="104.65"> </tspan></text>
</g>
</g>
<g id="Layer-1" data-name="P">
<clipPath id="cp277">
<path transform="matrix(1,0,0,-1,0,841.5)" d="M .000008862 0 L 594.75 0 L 594.75 841.5 L .000008862 841.5 Z " fill-rule="evenodd"/>
</clipPath>
<g clip-path="url(#cp277)">
<text xml:space="preserve" transform="matrix(1 0 -0 1 0 841.5)" font-size="9" font-family="ArialNarrow" font-weight="bold"><tspan y="-648.15" x="106.7 108.95 114.224 117.212 120.982997">(Ute,</tspan></text>
</g>
</g>
<g id="Layer-1" data-name="Span">
<clipPath id="cp278">
<path transform="matrix(1,0,0,-1,0,841.5)" d="M .000008862 0 L 594.75 0 L 594.75 841.5 L .000008862 841.5 Z " fill-rule="evenodd"/>
</clipPath>
<g clip-path="url(#cp278)">
<text xml:space="preserve" transform="matrix(1 0 -0 1 0 841.5)" font-size="9" font-family="ArialNarrow" font-weight="bold"><tspan y="-648.15" x="123.12"> </tspan></text>
</g>
</g>
<g id="Layer-1" data-name="P">
<clipPath id="cp279">
<path transform="matrix(1,0,0,-1,0,841.5)" d="M .000008862 0 L 594.75 0 L 594.75 841.5 L .000008862 841.5 Z " fill-rule="evenodd"/>
</clipPath>
<g clip-path="url(#cp279)">
<text xml:space="preserve" transform="matrix(1 0 -0 1 0 841.5)" font-size="9" font-family="ArialNarrow" font-weight="bold"><tspan y="-648.15" x="125.18 128.168 132.677 136.421 138.662 140.903 145.412 149.156 151.397 153.638 158.147">{p1, p2, p2</tspan></text>
</g>
</g>
<g id="Layer-1" data-name="P">
<clipPath id="cp280">
<path transform="matrix(1,0,0,-1,0,841.5)" d="M .000008862 0 L 594.75 0 L 594.75 841.5 L .000008862 841.5 Z " fill-rule="evenodd"/>
</clipPath>
<g clip-path="url(#cp280)">
<text xml:space="preserve" transform="matrix(1 0 -0 1 0 841.5)" font-size="9" font-family="ArialNarrow" font-weight="bold"><tspan y="-648.15" x="162.15 165.15">})</tspan></text>
</g>
</g>
<path transform="matrix(1,0,0,-1,0,841.5)" d="M 297.64 597.01 C 297.64 607.58 279.55 616.15 257.24 616.15 C 234.94 616.15 216.85 607.58 216.85 597.01 C 216.85 586.44 234.94 577.88 257.24 577.88 C 279.55 577.88 297.64 586.44 297.64 597.01 Z " fill="#ffffff" fill-rule="evenodd"/>
<path transform="matrix(1,0,0,-1,0,841.5)" stroke-width="1.5" stroke-linecap="round" stroke-linejoin="round" fill="none" stroke="#000000" d="M 297.64 597.01 C 297.64 607.58 279.55 616.15 257.24 616.15 C 234.94 616.15 216.85 607.58 216.85 597.01 C 216.85 586.44 234.94 577.88 257.24 577.88 C 279.55 577.88 297.64 586.44 297.64 597.01 Z "/>
<g id="Layer-1" data-name="P">
<clipPath id="cp281">
<path transform="matrix(1,0,0,-1,0,841.5)" d="M .000008862 0 L 594.75 0 L 594.75 841.5 L .000008862 841.5 Z " fill-rule="evenodd"/>
</clipPath>
<g clip-path="url(#cp281)">
<text xml:space="preserve" transform="matrix(1 0 -0 1 0 841.5)" font-size="9" font-family="ArialNarrow" font-style="italic"><tspan y="-603.83" x="240.73 246.75099 251.24199 254.986 258.72999 262.48298 266.23597 270.72697">messages</tspan></text>
</g>
</g>
<g id="Layer-1" data-name="P">
<clipPath id="cp282">
<path transform="matrix(1,0,0,-1,0,841.5)" d="M .000008862 0 L 594.75 0 L 594.75 841.5 L .000008862 841.5 Z " fill-rule="evenodd"/>
</clipPath>
<g clip-path="url(#cp282)">
<text xml:space="preserve" transform="matrix(1 0 -0 1 0 841.5)" font-size="9" font-family="ArialNarrow" font-weight="bold"><tspan y="-593.03" x="227.4 229.65 234.897 237.88501 241.63802">(Ute,</tspan></text>
</g>
</g>
<g id="Layer-1" data-name="Span">
<clipPath id="cp283">
<path transform="matrix(1,0,0,-1,0,841.5)" d="M .000008862 0 L 594.75 0 L 594.75 841.5 L .000008862 841.5 Z " fill-rule="evenodd"/>
</clipPath>
<g clip-path="url(#cp283)">
<text xml:space="preserve" transform="matrix(1 0 -0 1 0 841.5)" font-size="9" font-family="ArialNarrow" font-weight="bold"><tspan y="-593.03" x="243.8"> </tspan></text>
</g>
</g>
<g id="Layer-1" data-name="P">
<clipPath id="cp284">
<path transform="matrix(1,0,0,-1,0,841.5)" d="M .000008862 0 L 594.75 0 L 594.75 841.5 L .000008862 841.5 Z " fill-rule="evenodd"/>
</clipPath>
<g clip-path="url(#cp284)">
<text xml:space="preserve" transform="matrix(1 0 -0 1 0 841.5)" font-size="9" font-family="ArialNarrow" font-weight="bold"><tspan y="-593.03" x="245.85 248.865 253.37401 257.163 259.431 261.699 266.208 269.997 272.265 274.53303 279.04203">{p1, p2, p2</tspan></text>
</g>
</g>
<g id="Layer-1" data-name="P">
<clipPath id="cp285">
<path transform="matrix(1,0,0,-1,0,841.5)" d="M .000008862 0 L 594.75 0 L 594.75 841.5 L .000008862 841.5 Z " fill-rule="evenodd"/>
</clipPath>
<g clip-path="url(#cp285)">
<text xml:space="preserve" transform="matrix(1 0 -0 1 0 841.5)" font-size="9" font-family="ArialNarrow" font-weight="bold"><tspan y="-593.03" x="282.82 285.808 288.049">}, </tspan></text>
</g>
</g>
<g id="Layer-1" data-name="P">
<clipPath id="cp286">
<path transform="matrix(1,0,0,-1,0,841.5)" d="M .000008862 0 L 594.75 0 L 594.75 841.5 L .000008862 841.5 Z " fill-rule="evenodd"/>
</clipPath>
<g clip-path="url(#cp286)">
<text xml:space="preserve" transform="matrix(1 0 -0 1 0 841.5)" font-size="9.025" font-family="ArialNarrow" font-weight="bold"><tspan y="-582.22" x="247.1 250.85442 255.34886 257.58708 261.34147 265.8359">12/24)</tspan></text>
</g>
</g>
<path transform="matrix(1,0,0,-1,0,841.5)" d="M 176.32 540.6 C 176.32 549.76 158.23 557.19 135.92 557.19 C 113.61 557.19 95.529 549.76 95.529 540.6 C 95.529 531.44 113.61 524.02 135.92 524.02 C 158.23 524.02 176.32 531.44 176.32 540.6 Z " fill="#ffffff" fill-rule="evenodd"/>
<path transform="matrix(1,0,0,-1,0,841.5)" stroke-width="1.5" stroke-linecap="round" stroke-linejoin="round" fill="none" stroke="#000000" d="M 176.32 540.6 C 176.32 549.76 158.23 557.19 135.92 557.19 C 113.61 557.19 95.529 549.76 95.529 540.6 C 95.529 531.44 113.61 524.02 135.92 524.02 C 158.23 524.02 176.32 531.44 176.32 540.6 Z "/>
<g id="Layer-1" data-name="P">
<clipPath id="cp287">
<path transform="matrix(1,0,0,-1,0,841.5)" d="M .000008862 0 L 594.75 0 L 594.75 841.5 L .000008862 841.5 Z " fill-rule="evenodd"/>
</clipPath>
<g clip-path="url(#cp287)">
<text xml:space="preserve" transform="matrix(1 0 -0 1 0 841.5)" font-size="9" font-family="ArialNarrow" font-style="italic"><tspan y="-544.82" x="107.35 111.103 114.847 119.338008 123.091 126.83501 129.076 132.82901 137.32 139.561 143.31401 147.80501 149.30802 150.81102 154.55503 158.30803 161.29604">expected delivery</tspan></text>
</g>
</g>
<g id="Layer-1" data-name="P">
<clipPath id="cp288">
<path transform="matrix(1,0,0,-1,0,841.5)" d="M .000008862 0 L 594.75 0 L 594.75 841.5 L .000008862 841.5 Z " fill-rule="evenodd"/>
</clipPath>
<g clip-path="url(#cp288)">
<text xml:space="preserve" transform="matrix(1 0 -0 1 0 841.5)" font-size="9.025" font-family="ArialNarrow" font-weight="bold"><tspan y="-534.03" x="105.7 107.9743 113.244899 116.25924 120.03169">(Ute,</tspan></text>
</g>
</g>
<g id="Layer-1" data-name="Span">
<clipPath id="cp289">
<path transform="matrix(1,0,0,-1,0,841.5)" d="M .000008862 0 L 594.75 0 L 594.75 841.5 L .000008862 841.5 Z " fill-rule="evenodd"/>
</clipPath>
<g clip-path="url(#cp289)">
<text xml:space="preserve" transform="matrix(1 0 -0 1 0 841.5)" font-size="9.025" font-family="ArialNarrow" font-weight="bold"><tspan y="-534.03" x="122.12"> </tspan></text>
</g>
</g>
<g id="Layer-1" data-name="P">
<clipPath id="cp290">
<path transform="matrix(1,0,0,-1,0,841.5)" d="M .000008862 0 L 594.75 0 L 594.75 841.5 L .000008862 841.5 Z " fill-rule="evenodd"/>
</clipPath>
<g clip-path="url(#cp290)">
<text xml:space="preserve" transform="matrix(1 0 -0 1 0 841.5)" font-size="9.025" font-family="ArialNarrow" font-weight="bold"><tspan y="-534.03" x="124.18 127.167278 131.6888 135.4432 137.6814 139.91959 144.44112 148.19553 150.43372 152.6719 157.19344">{p1, p2, p2</tspan></text>
</g>
</g>
<g id="Layer-1" data-name="P">
<clipPath id="cp291">
<path transform="matrix(1,0,0,-1,0,841.5)" d="M .000008862 0 L 594.75 0 L 594.75 841.5 L .000008862 841.5 Z " fill-rule="evenodd"/>
</clipPath>
<g clip-path="url(#cp291)">
<text xml:space="preserve" transform="matrix(1 0 -0 1 0 841.5)" font-size="9.025" font-family="ArialNarrow" font-weight="bold"><tspan y="-534.03" x="161.15 164.14997">})</tspan></text>
</g>
</g>
<path transform="matrix(1,0,0,-1,0,841.5)" d="M 92.424 584.11 L 178.198 584.11 L 178.198 611.144 L 92.424 611.144 Z " fill="#ffffff" fill-rule="evenodd"/>
<path transform="matrix(1,0,0,-1,0,841.5)" stroke-width="2" stroke-linecap="round" stroke-linejoin="round" fill="none" stroke="#000000" d="M 92.424 584.11 L 178.198 584.11 L 178.198 611.144 L 92.424 611.144 Z "/>
<g id="Layer-1" data-name="P">
<clipPath id="cp292">
<path transform="matrix(1,0,0,-1,0,841.5)" d="M .000008862 0 L 594.75 0 L 594.75 841.5 L .000008862 841.5 Z " fill-rule="evenodd"/>
</clipPath>
<g clip-path="url(#cp292)">
<text xml:space="preserve" transform="matrix(1 0 -0 1 0 841.5)" font-size="9.025" font-family="ArialNarrow" font-weight="bold"><tspan y="-600.13" x="113.7 118.9706 121.244899 125.7574 128.02268 130.29697 134.80947 138.58191 143.0944 145.35968 149.13213 153.64463 157.41707">Ute receives </tspan></text>
</g>
</g>
<g id="Layer-1" data-name="P">
<clipPath id="cp293">
<path transform="matrix(1,0,0,-1,0,841.5)" d="M .000008862 0 L 594.75 0 L 594.75 841.5 L .000008862 841.5 Z " fill-rule="evenodd"/>
</clipPath>
<g clip-path="url(#cp293)">
<text xml:space="preserve" transform="matrix(1 0 -0 1 0 841.5)" font-size="9" font-family="ArialNarrow" font-weight="bold"><tspan y="-589.3" x="119.68 126.421 130.174 134.665 138.418 142.909 147.418">message</tspan></text>
</g>
</g>
<g id="Layer-1" data-name="P">
<clipPath id="cp294">
<path transform="matrix(1,0,0,-1,0,841.5)" d="M .000008862 0 L 594.75 0 L 594.75 841.5 L .000008862 841.5 Z " fill-rule="evenodd"/>
</clipPath>
<g clip-path="url(#cp294)">
<text xml:space="preserve" transform="matrix(1 0 -0 1 0 841.5)" font-size="12.025" font-family="ArialNarrow" font-weight="bold" font-style="italic"><tspan y="-571" x="89.8">b</tspan></text>
</g>
</g>
<g id="Layer-1" data-name="P">
<clipPath id="cp295">
<path transform="matrix(1,0,0,-1,0,841.5)" d="M .000008862 0 L 594.75 0 L 594.75 841.5 L .000008862 841.5 Z " fill-rule="evenodd"/>
</clipPath>
<g clip-path="url(#cp295)">
<text xml:space="preserve" transform="matrix(1 0 -0 1 0 841.5)" font-size="12" font-family="ArialNarrow" font-weight="bold" font-style="italic"><tspan y="-631.83" x="94.375">C</tspan></text>
</g>
</g>
<g id="Layer-1" data-name="P">
<clipPath id="cp296">
<path transform="matrix(1,0,0,-1,0,841.5)" d="M .000008862 0 L 594.75 0 L 594.75 841.5 L .000008862 841.5 Z " fill-rule="evenodd"/>
</clipPath>
<g clip-path="url(#cp296)">
<text xml:space="preserve" transform="matrix(1 0 -0 1 0 841.5)" font-size="12" font-family="ArialNarrow" font-weight="bold" font-style="italic"><tspan y="-580.9" x="210.45">D</tspan></text>
</g>
</g>
</g>
</g>
</svg>
