<?xml version="1.0" encoding="UTF-8" standalone="no"?>
<!DOCTYPE svg PUBLIC "-//W3C//DTD SVG 1.1//EN" "http://www.w3.org/Graphics/SVG/1.1/DTD/svg11.dtd">
<svg xmlns="http://www.w3.org/2000/svg" xmlns:xlink="http://www.w3.org/1999/xlink" version="1.1" width="594.75pt" height="841.5pt" viewBox="0 0 594.75 841.5">
<g enable-background="new">
<g>
<g id="Layer-1" data-name="P">
<clipPath id="cp487">
<path transform="matrix(1,0,0,-1,0,841.5)" d="M .000008862 0 L 594.75 0 L 594.75 841.5 L .000008862 841.5 Z " fill-rule="evenodd"/>
</clipPath>
<g clip-path="url(#cp487)">
<text xml:space="preserve" transform="matrix(1 0 -0 1 0 841.5)" font-size="11.25" font-family="ArialNarrow"><tspan y="-501.85" x="45.1 50.35375 55.59625 60.83875 63.08875 68.33125 71.33501 75.83501 81.07751 84.08126 86.33126 94.56626 99.06626 104.30876 109.55126 114.05126 119.29376 126.79751 132.04001 136.54001 139.53252 141.78252 147.02503 148.52127 153.02127 158.26378 162.76378 167.26378 172.50629 180.01004 185.25255 186.7488 191.9913 196.4913 198.7413 201.73381 206.23381 211.47632 213.72632 218.96883 221.97257 224.22257 226.46132 230.96132 233.20008 237.70008 240.69258 242.18883 244.42758 248.92758 251.17758 254.17009 258.67008 261.66258">The order management disassembles the article list of </tspan></text>
</g>
</g>
<g id="Layer-1" data-name="P">
<clipPath id="cp488">
<path transform="matrix(1,0,0,-1,0,841.5)" d="M .000008862 0 L 594.75 0 L 594.75 841.5 L .000008862 841.5 Z " fill-rule="evenodd"/>
</clipPath>
<g clip-path="url(#cp488)">
<text xml:space="preserve" transform="matrix(1 0 -0 1 0 841.5)" font-size="11.25" font-family="ArialNarrow"><tspan y="-488.65" x="45.1 47.35 52.5925 57.835 60.085 65.3275 69.8275 72.83125 77.33125 82.57375 87.81625 92.31625 97.558757 99.808757 105.051258 108.05501 112.55501 117.79751 120.80126 123.05126 125.290019 130.53252 132.78252 138.02503 140.27503 142.51378 144.76378 149.26378 151.51378 154.50629 159.00629 162.01003 167.25254 172.49504 174.74504 176.9838 179.2338 184.4763 191.98006 196.48006 198.73006 201.72257 206.22257 210.72257 215.96508 221.20758 225.70758 227.95758 230.20758 235.45009 238.45383 240.70383 245.94634 251.18885 255.68885 260.93135">the purchase order into its three items, sends for each </tspan></text>
</g>
</g>
<g id="Layer-1" data-name="P">
<clipPath id="cp489">
<path transform="matrix(1,0,0,-1,0,841.5)" d="M .000008862 0 L 594.75 0 L 594.75 841.5 L .000008862 841.5 Z " fill-rule="evenodd"/>
</clipPath>
<g clip-path="url(#cp489)">
<text xml:space="preserve" transform="matrix(1 0 -0 1 0 841.5)" font-size="11.275" font-family="ArialNarrow"><tspan y="-475.45" x="45.1 47.343725 49.598726 54.8416 62.339475 64.594478 69.83736 72.09236 75.09151 80.33439 84.833118 90.076 95.31888 99.817607 102.07261">item a request </tspan></text>
</g>
</g>
<g id="Layer-1" data-name="P">
<clipPath id="cp490">
<path transform="matrix(1,0,0,-1,0,841.5)" d="M .000008862 0 L 594.75 0 L 594.75 841.5 L .000008862 841.5 Z " fill-rule="evenodd"/>
</clipPath>
<g clip-path="url(#cp490)">
<text xml:space="preserve" transform="matrix(1 0 -0 1 0 841.5)" font-size="11.275" font-family="ArialNarrow"><tspan y="-475.45" x="104.85 107.105 112.347888 115.34703 117.602039 120.60118 125.84406 130.34279 135.58567 138.58483 143.08356 147.58229 150.57016 152.81389 157.31262 162.5555 164.81049 167.79836 172.29709 175.28496 177.53995 182.78282 187.28156 190.26943 191.769 197.01187 201.5106 206.75348 211.25222 214.24008 218.73882 221.73798 226.23671">for reservation to the inventory </tspan></text>
</g>
</g>
<g id="Layer-1" data-name="P">
<clipPath id="cp491">
<path transform="matrix(1,0,0,-1,0,841.5)" d="M .000008862 0 L 594.75 0 L 594.75 841.5 L .000008862 841.5 Z " fill-rule="evenodd"/>
</clipPath>
<g clip-path="url(#cp491)">
<text xml:space="preserve" transform="matrix(1 0 -0 1 0 841.5)" font-size="11.25" font-family="ArialNarrow"><tspan y="-462.23" x="45.1 52.60375 57.84625 62.34625 67.58875 72.83125 77.33125 84.835 90.0775 95.32 97.57 100.5625 103.56625 109.56251 111.80126 114.05126 119.29376 124.53626 129.03626 132.02877 134.27877 139.52127 144.02127 151.52503 153.76378 159.00629 163.50629 166.4988 168.7488 173.9913 179.23381 181.48381 185.98381 188.22257 189.71881 194.96132 200.20383 202.45383 205.45757 207.70757 210.70008 215.20008 220.44258 225.68509 227.93509 230.93883 236.18134 238.43134 243.67385 245.17009 250.4126 254.9126 257.1626 262.4051">management (without naming the client), and retains a </tspan></text>
</g>
</g>
<g id="Layer-1" data-name="P">
<clipPath id="cp492">
<path transform="matrix(1,0,0,-1,0,841.5)" d="M .000008862 0 L 594.75 0 L 594.75 841.5 L .000008862 841.5 Z " fill-rule="evenodd"/>
</clipPath>
<g clip-path="url(#cp492)">
<text xml:space="preserve" transform="matrix(1 0 -0 1 0 841.5)" font-size="11.275" font-family="ArialNarrow"><tspan y="-449.02" x="45.1 49.598726 54.8416 59.340326 63.83905 66.82693 71.32565 74.31353 76.568538 78.82354 84.06642 89.3093 91.56431 96.80719 102.05007 105.04922 109.54794 114.04667 119.28955 123.78828 129.03115 131.28614 136.529 139.52817 144.0269 149.26978 152.26894 154.52393 157.5118">copy of the purchase order.  </tspan></text>
</g>
</g>
<g id="Layer-1" data-name="P">
<clipPath id="cp493">
<path transform="matrix(1,0,0,-1,0,841.5)" d="M .000008862 0 L 594.75 0 L 594.75 841.5 L .000008862 841.5 Z " fill-rule="evenodd"/>
</clipPath>
<g clip-path="url(#cp493)">
<text xml:space="preserve" transform="matrix(1 0 -0 1 0 841.5)" font-size="11.25" font-family="ArialNarrow"><tspan y="-501.85" x="308.7 315.43876 319.93876 325.18125 330.42375 332.67375 335.6775 340.91999 345.41999 349.91999 352.15873 356.65873 358.89747 364.13996 368.63996 371.63246 376.13246 379.1362 384.3787 389.6212 391.8712 396.3712 398.6212 401.61369 406.11369 409.11744 412.10993 414.35993 419.60243 424.10243 427.0949 430.09867 434.59867 439.84117 445.08366 450.32615 454.82615 457.07615 462.31864 466.81864 469.81114 472.81489 477.31489 481.81489 487.05738 490.06114 494.56114 499.80363 502.05363 504.29237 508.79237 514.03488 518.53488 520.78488">Upon receiving grants for the requested reservations, </tspan></text>
</g>
</g>
<g id="Layer-1" data-name="P">
<clipPath id="cp494">
<path transform="matrix(1,0,0,-1,0,841.5)" d="M .000008862 0 L 594.75 0 L 594.75 841.5 L .000008862 841.5 Z " fill-rule="evenodd"/>
</clipPath>
<g clip-path="url(#cp494)">
<text xml:space="preserve" transform="matrix(1 0 -0 1 0 841.5)" font-size="11.25" font-family="ArialNarrow"><tspan y="-488.65" x="308.7 310.95 316.1925 321.435 323.685 328.9275 331.93125 336.43125 341.67375 344.6775 346.9275 355.16249 359.66249 364.90498 370.14747 374.64747 379.88996 387.3937 392.6362 397.1362 400.1287 402.3787 407.6212 412.1212 416.6212 418.85993 424.10243 428.60243 433.8449 436.8374 441.3374 445.8374 448.8299 451.0799 457.81864 462.31864 465.31114 469.81114 475.05363 478.05738 482.55738 487.79988 489.2961 493.7961 496.7886 501.2886 506.5311 511.7736 514.02359 518.52359 523.76608 529.00857 533.50857">the order management designates two parcels and send </tspan></text>
</g>
</g>
<g id="Layer-1" data-name="P">
<clipPath id="cp495">
<path transform="matrix(1,0,0,-1,0,841.5)" d="M .000008862 0 L 594.75 0 L 594.75 841.5 L .000008862 841.5 Z " fill-rule="evenodd"/>
</clipPath>
<g clip-path="url(#cp495)">
<text xml:space="preserve" transform="matrix(1 0 -0 1 0 841.5)" font-size="11.275" font-family="ArialNarrow"><tspan y="-475.45" x="308.7 313.19874 318.4416 321.44075 324.43989 328.9386 333.43733 338.68019 343.92304 348.42176 353.6646 355.90837 361.1512 365.64994 368.63783 373.13655 376.13569 381.37855 386.6214 389.62055 394.11927 396.37428 398.62928 403.87214 406.12715 409.11503 413.61375 418.8566 421.1116 427.85408 433.09693 436.09608 441.33894 445.83766 451.0805 456.32337 460.82209 465.3208 468.3087 470.5637 475.81785 478.06159 483.30445 487.80317 490.0469 492.29066 496.78938 499.04438 501.29939 504.28727 508.78599 514.0289">corresponding orders to the warehouse. Finally, the </tspan></text>
</g>
</g>
<g id="Layer-1" data-name="P">
<clipPath id="cp496">
<path transform="matrix(1,0,0,-1,0,841.5)" d="M .000008862 0 L 594.75 0 L 594.75 841.5 L .000008862 841.5 Z " fill-rule="evenodd"/>
</clipPath>
<g clip-path="url(#cp496)">
<text xml:space="preserve" transform="matrix(1 0 -0 1 0 841.5)" font-size="11.25" font-family="ArialNarrow"><tspan y="-462.23" x="308.7 313.2 318.4425 322.9425 325.1925 330.435 337.93876 342.43876 345.4425">customer </tspan></text>
</g>
</g>
<g id="Layer-1" data-name="P">
<clipPath id="cp497">
<path transform="matrix(1,0,0,-1,0,841.5)" d="M .000008862 0 L 594.75 0 L 594.75 841.5 L .000008862 841.5 Z " fill-rule="evenodd"/>
</clipPath>
<g clip-path="url(#cp497)">
<text xml:space="preserve" transform="matrix(1 0 -0 1 0 841.5)" font-size="11.25" font-family="ArialNarrow" font-weight="bold"><tspan y="-462.23" x="348.35 355.11128 358.11503">Ute</tspan></text>
</g>
</g>
<g id="Layer-1" data-name="P">
<clipPath id="cp498">
<path transform="matrix(1,0,0,-1,0,841.5)" d="M .000008862 0 L 594.75 0 L 594.75 841.5 L .000008862 841.5 Z " fill-rule="evenodd"/>
</clipPath>
<g clip-path="url(#cp498)">
<text xml:space="preserve" transform="matrix(1 0 -0 1 0 841.5)" font-size="11.25" font-family="ArialNarrow"><tspan y="-462.23" x="362.9"> </tspan></text>
</g>
</g>
<g id="Layer-1" data-name="P">
<clipPath id="cp499">
<path transform="matrix(1,0,0,-1,0,841.5)" d="M .000008862 0 L 594.75 0 L 594.75 841.5 L .000008862 841.5 Z " fill-rule="evenodd"/>
</clipPath>
<g clip-path="url(#cp499)">
<text xml:space="preserve" transform="matrix(1 0 -0 1 0 841.5)" font-size="11.25" font-family="ArialNarrow"><tspan y="-462.23" x="365.43 367.66874 372.16874 374.41874 376.65748 381.15748 384.14997 388.64997 391.65373 399.15748 404.39997 409.64247 411.89247 417.13496 422.37745 426.87745 432.11994 434.36994 437.36244 439.61244 444.85493 449.35493 452.3474 456.8474 462.0899 464.3399 469.5824 471.8324 477.0749 479.3249 482.31739 484.56739 489.80989 495.05238 497.30238 499.5411 504.0411 508.5411 511.5336">is informed about the date of the last </tspan></text>
</g>
</g>
<g id="Layer-1" data-name="P">
<clipPath id="cp500">
<path transform="matrix(1,0,0,-1,0,841.5)" d="M .000008862 0 L 594.75 0 L 594.75 841.5 L .000008862 841.5 Z " fill-rule="evenodd"/>
</clipPath>
<g clip-path="url(#cp500)">
<text xml:space="preserve" transform="matrix(1 0 -0 1 0 841.5)" font-size="11.275" font-family="ArialNarrow"><tspan y="-449.02" x="308.7 313.94288 318.4416 321.44075 324.42863 325.92823 331.17109 333.41484 335.66984 340.9127 345.4114 347.65516 349.8989 354.3976 359.64048 362.63963 367.13835 369.39335 371.64836 376.8912 382.13407 384.38908 389.63194 394.13066">partial delivery, 12/24.</tspan></text>
</g>
</g>
<clipPath id="cp501">
<path transform="matrix(1,0,0,-1,0,841.5)" d="M 0 841.5 L 594.75 841.5 L 594.75 0 L 0 .000061035 " fill-rule="evenodd"/>
</clipPath>
<g clip-path="url(#cp501)">
<path transform="matrix(1,0,0,-1,0,841.5)" stroke-width="1.5" stroke-linecap="round" stroke-linejoin="round" fill="none" stroke="#000000" d="M 454.11 560.38 L 336.8 559.08 "/>
</g>
<clipPath id="cp502">
<path transform="matrix(1,0,0,-1,0,841.5)" d="M 0 841.5 L 594.75 841.5 L 594.75 0 L 0 .000061035 " fill-rule="evenodd"/>
</clipPath>
<g clip-path="url(#cp502)">
<path transform="matrix(1,0,0,-1,0,841.5)" d="M 338.04 554.35 L 323.77 558.93 L 337.94 563.83 L 338.04 554.35 Z " fill-rule="evenodd"/>
</g>
<path transform="matrix(1,0,0,-1,0,841.5)" d="M 27.602 537.08 L 514.002 537.08 L 514.002 796.41006 L 27.602 796.41006 Z " fill="#ffc000" fill-opacity=".18824" fill-rule="evenodd"/>
<clipPath id="cp503">
<path transform="matrix(1,0,0,-1,0,841.5)" d="M -.000030518 841.5 L 594.75 841.5 L 594.75 .00030518 L 0 .00030518 " fill-rule="evenodd"/>
</clipPath>
<g clip-path="url(#cp503)">
<path transform="matrix(1,0,0,-1,0,841.5)" stroke-width="1.5" stroke-linecap="round" stroke-linejoin="round" fill="none" stroke="#000000" d="M 303.12 721.43 L 400.59 684.32 "/>
</g>
<clipPath id="cp504">
<path transform="matrix(1,0,0,-1,0,841.5)" d="M -.000030518 841.5 L 594.75 841.5 L 594.75 .00030518 L 0 .00030518 " fill-rule="evenodd"/>
</clipPath>
<g clip-path="url(#cp504)">
<path transform="matrix(1,0,0,-1,0,841.5)" d="M 401.17 689.17 L 412.77 679.68 L 397.79 680.31 L 401.17 689.17 Z " fill-rule="evenodd"/>
</g>
<clipPath id="cp505">
<path transform="matrix(1,0,0,-1,0,841.5)" d="M .000015259 841.5 L 594.75 841.5 L 594.75 .00018311 L .000015259 .00018311 " fill-rule="evenodd"/>
</clipPath>
<g clip-path="url(#cp505)">
<path transform="matrix(1,0,0,-1,0,841.5)" stroke-width="1.5" stroke-linecap="round" stroke-linejoin="round" fill="none" stroke="#000000" d="M 170.96 672.06 L 170.96 595.27 "/>
</g>
<clipPath id="cp506">
<path transform="matrix(1,0,0,-1,0,841.5)" d="M .000015259 841.5 L 594.75 841.5 L 594.75 .00018311 L .000015259 .00018311 " fill-rule="evenodd"/>
</clipPath>
<g clip-path="url(#cp506)">
<path transform="matrix(1,0,0,-1,0,841.5)" d="M 175.7 596.45 L 170.96 582.23 L 166.22 596.45 L 175.7 596.45 Z " fill-rule="evenodd"/>
</g>
<clipPath id="cp507">
<path transform="matrix(1,0,0,-1,0,841.5)" d="M -.000045776 841.5 L 594.75 841.5 L 594.75 .00018311 L 0 .00012207 " fill-rule="evenodd"/>
</clipPath>
<g clip-path="url(#cp507)">
<path transform="matrix(1,0,0,-1,0,841.5)" stroke-width="1.5" stroke-linecap="round" stroke-linejoin="round" fill="none" stroke="#000000" d="M 160.37 757.73 L 267.59 729.72 "/>
</g>
<clipPath id="cp508">
<path transform="matrix(1,0,0,-1,0,841.5)" d="M -.000045776 841.5 L 594.75 841.5 L 594.75 .00018311 L 0 .00012207 " fill-rule="evenodd"/>
</clipPath>
<g clip-path="url(#cp508)">
<path transform="matrix(1,0,0,-1,0,841.5)" d="M 267.65 734.6 L 280.21 726.42 L 265.25 725.43 L 267.65 734.6 Z " fill-rule="evenodd"/>
</g>
<clipPath id="cp509">
<path transform="matrix(1,0,0,-1,0,841.5)" d="M -.000045776 841.5 L 594.75 841.5 L 594.75 .00018311 L 0 .00012207 " fill-rule="evenodd"/>
</clipPath>
<g clip-path="url(#cp509)">
<path transform="matrix(1,0,0,-1,0,841.5)" stroke-width="1.5" stroke-linecap="round" stroke-linejoin="round" fill="none" stroke="#000000" d="M 168.29 751.8 L 276.5 703.69 "/>
</g>
<clipPath id="cp510">
<path transform="matrix(1,0,0,-1,0,841.5)" d="M -.000045776 841.5 L 594.75 841.5 L 594.75 .00018311 L 0 .00012207 " fill-rule="evenodd"/>
</clipPath>
<g clip-path="url(#cp510)">
<path transform="matrix(1,0,0,-1,0,841.5)" d="M 277.35 708.51 L 288.42 698.4 L 273.5 699.84 L 277.35 708.51 Z " fill-rule="evenodd"/>
</g>
<clipPath id="cp511">
<path transform="matrix(1,0,0,-1,0,841.5)" d="M 0 841.5 L 594.75 841.5 L 594.75 .00018311 L -.000045776 .00018311 " fill-rule="evenodd"/>
</clipPath>
<g clip-path="url(#cp511)">
<path transform="matrix(1,0,0,-1,0,841.5)" stroke-width="1.5" stroke-linecap="round" stroke-linejoin="round" fill="none" stroke="#000000" d="M 144.95 765.88 L 277.81 675.52 "/>
</g>
<clipPath id="cp512">
<path transform="matrix(1,0,0,-1,0,841.5)" d="M 0 841.5 L 594.75 841.5 L 594.75 .00018311 L -.000045776 .00018311 " fill-rule="evenodd"/>
</clipPath>
<g clip-path="url(#cp512)">
<path transform="matrix(1,0,0,-1,0,841.5)" d="M 279.49 680.11 L 288.58 668.19 L 274.16 672.27 L 279.49 680.11 Z " fill-rule="evenodd"/>
</g>
<clipPath id="cp513">
<path transform="matrix(1,0,0,-1,0,841.5)" d="M -.000030518 841.5 L 594.75 841.5 L 594.75 .000061035 L 0 0 " fill-rule="evenodd"/>
</clipPath>
<g clip-path="url(#cp513)">
<path transform="matrix(1,0,0,-1,0,841.5)" stroke-width="1.5" stroke-linecap="round" stroke-linejoin="round" fill="none" stroke="#000000" d="M 387.3 662.24 L 337.18 636.75 "/>
</g>
<clipPath id="cp514">
<path transform="matrix(1,0,0,-1,0,841.5)" d="M -.000030518 841.5 L 594.75 841.5 L 594.75 .000061035 L 0 0 " fill-rule="evenodd"/>
</clipPath>
<g clip-path="url(#cp514)">
<path transform="matrix(1,0,0,-1,0,841.5)" d="M 340.38 633.06 L 325.56 630.84 L 336.08 641.51 L 340.38 633.06 Z " fill-rule="evenodd"/>
</g>
<clipPath id="cp515">
<path transform="matrix(1,0,0,-1,0,841.5)" d="M -.000091553 841.5 L 594.75 841.5 L 594.75 -.00018311 L -.00012207 -.00012207 " fill-rule="evenodd"/>
</clipPath>
<g clip-path="url(#cp515)">
<path transform="matrix(1,0,0,-1,0,841.5)" stroke-width="1.5" stroke-linecap="round" stroke-linejoin="round" fill="none" stroke="#000000" d="M 413.82 645.14 L 332.92 608.95 "/>
</g>
<clipPath id="cp516">
<path transform="matrix(1,0,0,-1,0,841.5)" d="M -.000091553 841.5 L 594.75 841.5 L 594.75 -.00018311 L -.00012207 -.00012207 " fill-rule="evenodd"/>
</clipPath>
<g clip-path="url(#cp516)">
<path transform="matrix(1,0,0,-1,0,841.5)" d="M 335.94 605.11 L 321.02 603.63 L 332.07 613.76 L 335.94 605.11 Z " fill-rule="evenodd"/>
</g>
<clipPath id="cp517">
<path transform="matrix(1,0,0,-1,0,841.5)" d="M .000015259 841.5 L 594.75 841.5 L 594.75 .00018311 L .000015259 .00018311 " fill-rule="evenodd"/>
</clipPath>
<g clip-path="url(#cp517)">
<path transform="matrix(1,0,0,-1,0,841.5)" stroke-width="1.5" stroke-linecap="round" stroke-linejoin="round" fill="none" stroke="#000000" d="M 170.15 764.68 L 170.15 690.61 "/>
</g>
<clipPath id="cp518">
<path transform="matrix(1,0,0,-1,0,841.5)" d="M .000015259 841.5 L 594.75 841.5 L 594.75 .00018311 L .000015259 .00018311 " fill-rule="evenodd"/>
</clipPath>
<g clip-path="url(#cp518)">
<path transform="matrix(1,0,0,-1,0,841.5)" d="M 174.89 691.79 L 170.15 677.57 L 165.41 691.79 L 174.89 691.79 Z " fill-rule="evenodd"/>
</g>
<clipPath id="cp519">
<path transform="matrix(1,0,0,-1,0,841.5)" d="M -.00012207 841.5 L 594.75 841.5 L 594.75 .00018311 L -.000061035 .00018311 " fill-rule="evenodd"/>
</clipPath>
<g clip-path="url(#cp519)">
<path transform="matrix(1,0,0,-1,0,841.5)" stroke-width="1.5" stroke-linecap="round" stroke-linejoin="round" fill="none" stroke="#000000" d="M 422.53 661.51 L 513.04 613.44 "/>
</g>
<clipPath id="cp520">
<path transform="matrix(1,0,0,-1,0,841.5)" d="M -.00012207 841.5 L 594.75 841.5 L 594.75 .00018311 L -.000061035 .00018311 " fill-rule="evenodd"/>
</clipPath>
<g clip-path="url(#cp520)">
<path transform="matrix(1,0,0,-1,0,841.5)" d="M 514.22 618.18 L 524.55 607.33 L 509.77 609.81 L 514.22 618.18 Z " fill-rule="evenodd"/>
</g>
<path transform="matrix(1,0,0,-1,0,841.5)" stroke-width="1.5" stroke-linecap="round" stroke-linejoin="round" fill="none" stroke="#000000" d="M 400.46 560.38 L 486.78 560.38 "/>
<path transform="matrix(1,0,0,-1,0,841.5)" d="M 485.6 565.12 L 499.82 560.38 L 485.6 555.64 L 485.6 565.12 Z " fill-rule="evenodd"/>
<clipPath id="cp521">
<path transform="matrix(1,0,0,-1,0,841.5)" d="M -.000003815 841.5 L 594.75 841.5 L 594.75 .00024414 L -.000007629 .00024414 " fill-rule="evenodd"/>
</clipPath>
<g clip-path="url(#cp521)">
<path transform="matrix(1,0,0,-1,0,841.5)" stroke-width="1.5" stroke-linecap="round" stroke-linejoin="round" fill="none" stroke="#000000" d="M 45.985 757.84 L 108.02 757.44 "/>
</g>
<clipPath id="cp522">
<path transform="matrix(1,0,0,-1,0,841.5)" d="M -.000003815 841.5 L 594.75 841.5 L 594.75 .00024414 L -.000007629 .00024414 " fill-rule="evenodd"/>
</clipPath>
<g clip-path="url(#cp522)">
<path transform="matrix(1,0,0,-1,0,841.5)" d="M 106.87 762.19 L 121.06 757.36 L 106.81 752.71 L 106.87 762.19 Z " fill-rule="evenodd"/>
</g>
<clipPath id="cp523">
<path transform="matrix(1,0,0,-1,0,841.5)" d="M -.000030518 841.5 L 594.75 841.5 L 594.75 .00024414 L -.000045776 .00018311 " fill-rule="evenodd"/>
</clipPath>
<g clip-path="url(#cp523)">
<path transform="matrix(1,0,0,-1,0,841.5)" stroke-width="1.5" stroke-linecap="round" stroke-linejoin="round" fill="none" stroke="#000000" d="M 173.08 758.51 L 323.31 770 "/>
</g>
<clipPath id="cp524">
<path transform="matrix(1,0,0,-1,0,841.5)" d="M -.000045776 841.5 L 594.75 841.5 L 594.75 .00030518 L -.000015259 .00024414 " fill-rule="evenodd"/>
</clipPath>
<g clip-path="url(#cp524)">
<path transform="matrix(1,0,0,-1,0,841.5)" stroke-width="1.5" stroke-linecap="round" stroke-linejoin="round" fill="none" stroke="#000000" d="M 174.5 756.24 L 319.83 737.78 "/>
</g>
<path transform="matrix(1,0,0,-1,0,841.5)" stroke-width="1.5" stroke-linecap="round" stroke-linejoin="round" fill="none" stroke="#000000" d="M 319.46 737.78 L 491.69 737.78 "/>
<path transform="matrix(1,0,0,-1,0,841.5)" d="M 490.5 742.52 L 504.72 737.78 L 490.5 733.04 L 490.5 742.52 Z " fill-rule="evenodd"/>
<path transform="matrix(1,0,0,-1,0,841.5)" stroke-width="1.5" stroke-linecap="round" stroke-linejoin="round" fill="none" stroke="#000000" d="M 183.07 754.32 L 491.58 754.32 "/>
<path transform="matrix(1,0,0,-1,0,841.5)" d="M 490.4 759.06 L 504.62 754.32 L 490.4 749.58 L 490.4 759.06 Z " fill-rule="evenodd"/>
<path transform="matrix(1,0,0,-1,0,841.5)" stroke-width="1.5" stroke-linecap="round" stroke-linejoin="round" fill="none" stroke="#000000" d="M 322.53 770 L 491.89 770 "/>
<path transform="matrix(1,0,0,-1,0,841.5)" d="M 490.7 774.74 L 504.92 770 L 490.7 765.26 L 490.7 774.74 Z " fill-rule="evenodd"/>
<path transform="matrix(1,0,0,-1,0,841.5)" stroke-width="1.5" stroke-linecap="round" stroke-linejoin="round" fill="none" stroke="#000000" d="M 173.83 560.99 L 103.33 560.99 "/>
<path transform="matrix(1,0,0,-1,0,841.5)" d="M 104.51 556.25 L 90.292 560.99 L 104.51 565.73 L 104.51 556.25 Z " fill-rule="evenodd"/>
<path transform="matrix(1,0,0,-1,0,841.5)" d="M 88.795 757.8 C 88.795 766.96 70.71 774.38 48.402 774.38 C 26.093 774.38 8.0079 766.96 8.0079 757.8 C 8.0079 748.64 26.093 741.21 48.402 741.21 C 70.71 741.21 88.795 748.64 88.795 757.8 Z " fill="#ffffff" fill-rule="evenodd"/>
<path transform="matrix(1,0,0,-1,0,841.5)" stroke-width="1.5" stroke-linecap="round" stroke-linejoin="round" fill="none" stroke="#000000" d="M 88.795 757.8 C 88.795 766.96 70.71 774.38 48.402 774.38 C 26.093 774.38 8.0079 766.96 8.0079 757.8 C 8.0079 748.64 26.093 741.21 48.402 741.21 C 70.71 741.21 88.795 748.64 88.795 757.8 Z "/>
<g id="Layer-1" data-name="P">
<clipPath id="cp525">
<path transform="matrix(1,0,0,-1,0,841.5)" d="M .000008862 0 L 594.75 0 L 594.75 841.5 L .000008862 841.5 Z " fill-rule="evenodd"/>
</clipPath>
<g clip-path="url(#cp525)">
<text xml:space="preserve" transform="matrix(1 0 -0 1 0 841.5)" font-size="9.025" font-family="ArialNarrow" font-style="italic"><tspan y="-762.2" x="23.6 27.37245 31.88495 34.15925 37.922674 42.43517 46.20762 49.971044 53.743494 56.00877 60.521268 62.795568 66.568019 71.08052">purchase order</tspan></text>
</g>
</g>
<g id="Layer-1" data-name="P">
<clipPath id="cp526">
<path transform="matrix(1,0,0,-1,0,841.5)" d="M .000008862 0 L 594.75 0 L 594.75 841.5 L .000008862 841.5 Z " fill-rule="evenodd"/>
</clipPath>
<g clip-path="url(#cp526)">
<text xml:space="preserve" transform="matrix(1 0 -0 1 0 841.5)" font-size="9.025" font-family="ArialNarrow" font-weight="bold"><tspan y="-762.2" x="73.325"> </tspan></text>
</g>
</g>
<g id="Layer-1" data-name="P">
<clipPath id="cp527">
<path transform="matrix(1,0,0,-1,0,841.5)" d="M .000008862 0 L 594.75 0 L 594.75 841.5 L .000008862 841.5 Z " fill-rule="evenodd"/>
</clipPath>
<g clip-path="url(#cp527)">
<text xml:space="preserve" transform="matrix(1 0 -0 1 0 841.5)" font-size="9" font-family="ArialNarrow" font-weight="bold"><tspan y="-751.38" x="18.075 20.325 25.572 28.560002 32.313">(Ute,</tspan></text>
</g>
</g>
<g id="Layer-1" data-name="Span">
<clipPath id="cp528">
<path transform="matrix(1,0,0,-1,0,841.5)" d="M .000008862 0 L 594.75 0 L 594.75 841.5 L .000008862 841.5 Z " fill-rule="evenodd"/>
</clipPath>
<g clip-path="url(#cp528)">
<text xml:space="preserve" transform="matrix(1 0 -0 1 0 841.5)" font-size="9" font-family="ArialNarrow" font-weight="bold"><tspan y="-751.38" x="34.5"> </tspan></text>
</g>
</g>
<g id="Layer-1" data-name="P">
<clipPath id="cp529">
<path transform="matrix(1,0,0,-1,0,841.5)" d="M .000008862 0 L 594.75 0 L 594.75 841.5 L .000008862 841.5 Z " fill-rule="evenodd"/>
</clipPath>
<g clip-path="url(#cp529)">
<text xml:space="preserve" transform="matrix(1 0 -0 1 0 841.5)" font-size="9" font-family="ArialNarrow" font-weight="bold"><tspan y="-751.38" x="36.55 39.538 44.046998 47.790998 50.031995 52.27299 56.78199 60.52599 62.766988 65.00799 69.51699">{p1, p2, p2</tspan></text>
</g>
</g>
<g id="Layer-1" data-name="P">
<clipPath id="cp530">
<path transform="matrix(1,0,0,-1,0,841.5)" d="M .000008862 0 L 594.75 0 L 594.75 841.5 L .000008862 841.5 Z " fill-rule="evenodd"/>
</clipPath>
<g clip-path="url(#cp530)">
<text xml:space="preserve" transform="matrix(1 0 -0 1 0 841.5)" font-size="9" font-family="ArialNarrow" font-weight="bold"><tspan y="-751.38" x="73.525 76.525">})</tspan></text>
</g>
</g>
<path transform="matrix(1,0,0,-1,0,841.5)" d="M 88.441 561.78 C 88.441 572.35 70.356 580.91 48.047 580.91 C 25.738 580.91 7.6535 572.35 7.6535 561.78 C 7.6535 551.21 25.738 542.65 48.047 542.65 C 70.356 542.65 88.441 551.21 88.441 561.78 Z " fill="#ffffff" fill-rule="evenodd"/>
<path transform="matrix(1,0,0,-1,0,841.5)" stroke-width="1.5" stroke-linecap="round" stroke-linejoin="round" fill="none" stroke="#000000" d="M 88.441 561.78 C 88.441 572.35 70.356 580.91 48.047 580.91 C 25.738 580.91 7.6535 572.35 7.6535 561.78 C 7.6535 551.21 25.738 542.65 48.047 542.65 C 70.356 542.65 88.441 551.21 88.441 561.78 Z "/>
<g id="Layer-1" data-name="P">
<clipPath id="cp531">
<path transform="matrix(1,0,0,-1,0,841.5)" d="M .000008862 0 L 594.75 0 L 594.75 841.5 L .000008862 841.5 Z " fill-rule="evenodd"/>
</clipPath>
<g clip-path="url(#cp531)">
<text xml:space="preserve" transform="matrix(1 0 -0 1 0 841.5)" font-size="9" font-family="ArialNarrow" font-style="italic"><tspan y="-568.55" x="33.125 39.128 43.619 47.363 51.107 54.859998 58.612997">message</tspan></text>
</g>
</g>
<g id="Layer-1" data-name="P">
<clipPath id="cp532">
<path transform="matrix(1,0,0,-1,0,841.5)" d="M .000008862 0 L 594.75 0 L 594.75 841.5 L .000008862 841.5 Z " fill-rule="evenodd"/>
</clipPath>
<g clip-path="url(#cp532)">
<text xml:space="preserve" transform="matrix(1 0 -0 1 0 841.5)" font-size="9.025" font-family="ArialNarrow" font-weight="bold"><tspan y="-557.75" x="17.925 20.172224 25.424775 28.41205 32.16645">(Ute,</tspan></text>
</g>
</g>
<g id="Layer-1" data-name="Span">
<clipPath id="cp533">
<path transform="matrix(1,0,0,-1,0,841.5)" d="M .000008862 0 L 594.75 0 L 594.75 841.5 L .000008862 841.5 Z " fill-rule="evenodd"/>
</clipPath>
<g clip-path="url(#cp533)">
<text xml:space="preserve" transform="matrix(1 0 -0 1 0 841.5)" font-size="9.025" font-family="ArialNarrow" font-weight="bold"><tspan y="-557.75" x="34.35"> </tspan></text>
</g>
</g>
<g id="Layer-1" data-name="P">
<clipPath id="cp534">
<path transform="matrix(1,0,0,-1,0,841.5)" d="M .000008862 0 L 594.75 0 L 594.75 841.5 L .000008862 841.5 Z " fill-rule="evenodd"/>
</clipPath>
<g clip-path="url(#cp534)">
<text xml:space="preserve" transform="matrix(1 0 -0 1 0 841.5)" font-size="9.025" font-family="ArialNarrow" font-weight="bold"><tspan y="-557.75" x="36.4 39.387277 43.908803 47.636125 49.874326 52.112527 56.634054 60.361375 62.599576 64.83777 69.35929">{p1, p2, p2</tspan></text>
</g>
</g>
<g id="Layer-1" data-name="P">
<clipPath id="cp535">
<path transform="matrix(1,0,0,-1,0,841.5)" d="M .000008862 0 L 594.75 0 L 594.75 841.5 L .000008862 841.5 Z " fill-rule="evenodd"/>
</clipPath>
<g clip-path="url(#cp535)">
<text xml:space="preserve" transform="matrix(1 0 -0 1 0 841.5)" font-size="9.025" font-family="ArialNarrow" font-weight="bold"><tspan y="-557.75" x="73.375 76.362277 78.60047">}, </tspan></text>
</g>
</g>
<g id="Layer-1" data-name="P">
<clipPath id="cp536">
<path transform="matrix(1,0,0,-1,0,841.5)" d="M .000008862 0 L 594.75 0 L 594.75 841.5 L .000008862 841.5 Z " fill-rule="evenodd"/>
</clipPath>
<g clip-path="url(#cp536)">
<text xml:space="preserve" transform="matrix(1 0 -0 1 0 841.5)" font-size="9" font-family="ArialNarrow" font-weight="bold"><tspan y="-546.92" x="37.625 41.378 45.896 48.136999 51.889997 56.407999">12/24)</tspan></text>
</g>
</g>
<path transform="matrix(1,0,0,-1,0,841.5)" d="M 121.04 740.97 L 218.488 740.97 L 218.488 774.13497 L 121.04 774.13497 Z " fill="#ffffff" fill-rule="evenodd"/>
<path transform="matrix(1,0,0,-1,0,841.5)" stroke-width="2" stroke-linecap="round" stroke-linejoin="round" fill="none" stroke="#000000" d="M 121.04 740.97 L 218.488 740.97 L 218.488 774.13497 L 121.04 774.13497 Z "/>
<g id="Layer-1" data-name="P">
<clipPath id="cp537">
<path transform="matrix(1,0,0,-1,0,841.5)" d="M .000008862 0 L 594.75 0 L 594.75 841.5 L .000008862 841.5 Z " fill-rule="evenodd"/>
</clipPath>
<g clip-path="url(#cp537)">
<text xml:space="preserve" transform="matrix(1 0 -0 1 0 841.5)" font-size="12" font-family="ArialNarrow" font-weight="bold"><tspan y="-761.08" x="140.4 146.41199 149.38799 154.63199 159.87599 165.864 171.108 176.352 185.36402 191.376 193.62 199.608">disassemble </tspan></text>
</g>
</g>
<g id="Layer-1" data-name="P">
<clipPath id="cp538">
<path transform="matrix(1,0,0,-1,0,841.5)" d="M .000008862 0 L 594.75 0 L 594.75 841.5 L .000008862 841.5 Z " fill-rule="evenodd"/>
</clipPath>
<g clip-path="url(#cp538)">
<text xml:space="preserve" transform="matrix(1 0 -0 1 0 841.5)" font-size="12.025" font-family="ArialNarrow" font-weight="bold"><tspan y="-746.67" x="134.13 140.15453 146.13095 149.88275 155.13768 161.1622 167.1266 172.38153 177.63646 180.61865 186.64318 190.37091 196.39543 201.62631">purchase order</tspan></text>
</g>
</g>
<path transform="matrix(1,0,0,-1,0,841.5)" d="M 568.37 770.9 C 568.37 774.17 554.45 776.82 537.28 776.82 C 520.1 776.82 506.18 774.17 506.18 770.9 C 506.18 767.63 520.1 764.99 537.28 764.99 C 554.45 764.99 568.37 767.63 568.37 770.9 Z " fill="#ffffff" fill-rule="evenodd"/>
<path transform="matrix(1,0,0,-1,0,841.5)" stroke-width="1.5" stroke-linecap="round" stroke-linejoin="round" fill="none" stroke="#000000" d="M 568.37 770.9 C 568.37 774.17 554.45 776.82 537.28 776.82 C 520.1 776.82 506.18 774.17 506.18 770.9 C 506.18 767.63 520.1 764.99 537.28 764.99 C 554.45 764.99 568.37 767.63 568.37 770.9 Z "/>
<g id="Layer-1" data-name="P">
<clipPath id="cp539">
<path transform="matrix(1,0,0,-1,0,841.5)" d="M .000008862 0 L 594.75 0 L 594.75 841.5 L .000008862 841.5 Z " fill-rule="evenodd"/>
</clipPath>
<g clip-path="url(#cp539)">
<text xml:space="preserve" transform="matrix(1 0 -0 1 0 841.5)" font-size="9" font-family="ArialNarrow" font-style="italic"><tspan y="-768.13" x="512.08 514.33 518.82107 522.57406 527.06509 530.81808 534.5621 536.8031 539.0441 540.5471 543.5351 547.2881 551.0321">request. res.</tspan></text>
</g>
</g>
<g id="Layer-1" data-name="P">
<clipPath id="cp540">
<path transform="matrix(1,0,0,-1,0,841.5)" d="M .000008862 0 L 594.75 0 L 594.75 841.5 L .000008862 841.5 Z " fill-rule="evenodd"/>
</clipPath>
<g clip-path="url(#cp540)">
<text xml:space="preserve" transform="matrix(1 0 -0 1 0 841.5)" font-size="9" font-family="ArialNarrow" font-weight="bold"><tspan y="-768.13" x="553.15"> </tspan></text>
</g>
</g>
<g id="Layer-1" data-name="P">
<clipPath id="cp541">
<path transform="matrix(1,0,0,-1,0,841.5)" d="M .000008862 0 L 594.75 0 L 594.75 841.5 L .000008862 841.5 Z " fill-rule="evenodd"/>
</clipPath>
<g clip-path="url(#cp541)">
<text xml:space="preserve" transform="matrix(1 0 -0 1 0 841.5)" font-size="9" font-family="ArialNarrow" font-weight="bold"><tspan y="-768.13" x="555.22 559.72">p1</tspan></text>
</g>
</g>
<clipPath id="cp542">
<path transform="matrix(1,0,0,-1,0,841.5)" d="M -.000061035 841.5 L 594.75 841.5 L 594.75 .00030518 L 0 .00024414 " fill-rule="evenodd"/>
</clipPath>
<g clip-path="url(#cp542)">
<path transform="matrix(1,0,0,-1,0,841.5)" stroke-width="1.5" stroke-linecap="round" stroke-linejoin="round" fill="none" stroke="#000000" d="M 300.01 696.78 L 362.99 670.47 "/>
</g>
<clipPath id="cp543">
<path transform="matrix(1,0,0,-1,0,841.5)" d="M -.000061035 841.5 L 594.75 841.5 L 594.75 .00030518 L 0 .00024414 " fill-rule="evenodd"/>
</clipPath>
<g clip-path="url(#cp543)">
<path transform="matrix(1,0,0,-1,0,841.5)" d="M 363.73 675.31 L 375.02 665.45 L 360.07 666.56 L 363.73 675.31 Z " fill-rule="evenodd"/>
</g>
<clipPath id="cp544">
<path transform="matrix(1,0,0,-1,0,841.5)" d="M -.000030518 841.5 L 594.75 841.5 L 594.75 .00012207 L .000030518 .00012207 " fill-rule="evenodd"/>
</clipPath>
<g clip-path="url(#cp544)">
<path transform="matrix(1,0,0,-1,0,841.5)" stroke-width="1.5" stroke-linecap="round" stroke-linejoin="round" fill="none" stroke="#000000" d="M 307.43 654.77 L 406.64 584.97 "/>
</g>
<clipPath id="cp545">
<path transform="matrix(1,0,0,-1,0,841.5)" d="M -.000030518 841.5 L 594.75 841.5 L 594.75 .00012207 L .000030518 .00012207 " fill-rule="evenodd"/>
</clipPath>
<g clip-path="url(#cp545)">
<path transform="matrix(1,0,0,-1,0,841.5)" d="M 408.4 589.52 L 417.3 577.47 L 402.95 581.77 L 408.4 589.52 Z " fill-rule="evenodd"/>
</g>
<clipPath id="cp546">
<path transform="matrix(1,0,0,-1,0,841.5)" d="M -.000061035 841.5 L 594.75 841.5 L 594.75 -.00012207 L 0 -.00012207 " fill-rule="evenodd"/>
</clipPath>
<g clip-path="url(#cp546)">
<path transform="matrix(1,0,0,-1,0,841.5)" stroke-width="1.5" stroke-linecap="round" stroke-linejoin="round" fill="none" stroke="#000000" d="M 311.32 631.63 L 207.59 583.82 "/>
</g>
<clipPath id="cp547">
<path transform="matrix(1,0,0,-1,0,841.5)" d="M -.000061035 841.5 L 594.75 841.5 L 594.75 -.00012207 L 0 -.00012207 " fill-rule="evenodd"/>
</clipPath>
<g clip-path="url(#cp547)">
<path transform="matrix(1,0,0,-1,0,841.5)" d="M 210.65 580.01 L 195.76 578.36 L 206.69 588.62 L 210.65 580.01 Z " fill-rule="evenodd"/>
</g>
<clipPath id="cp548">
<path transform="matrix(1,0,0,-1,0,841.5)" d="M 0 841.5 L 594.75 841.5 L 594.75 -.000061035 L .000061035 -.000061035 " fill-rule="evenodd"/>
</clipPath>
<g clip-path="url(#cp548)">
<path transform="matrix(1,0,0,-1,0,841.5)" stroke-width="1.5" stroke-linecap="round" stroke-linejoin="round" fill="none" stroke="#000000" d="M 314.74 602.93 L 230.47 566.9 "/>
</g>
<clipPath id="cp549">
<path transform="matrix(1,0,0,-1,0,841.5)" d="M 0 841.5 L 594.75 841.5 L 594.75 -.000061035 L .000061035 -.000061035 " fill-rule="evenodd"/>
</clipPath>
<g clip-path="url(#cp549)">
<path transform="matrix(1,0,0,-1,0,841.5)" d="M 233.43 563.01 L 218.49 561.78 L 229.7 571.73 L 233.43 563.01 Z " fill-rule="evenodd"/>
</g>
<clipPath id="cp550">
<path transform="matrix(1,0,0,-1,0,841.5)" d="M 0 841.5 L 594.75 841.5 L 594.75 -.000061035 L .000030518 -.000061035 " fill-rule="evenodd"/>
</clipPath>
<g clip-path="url(#cp550)">
<path transform="matrix(1,0,0,-1,0,841.5)" stroke-width="1.5" stroke-linecap="round" stroke-linejoin="round" fill="none" stroke="#000000" d="M 303.12 557.27 L 231.52 555.09 "/>
</g>
<clipPath id="cp551">
<path transform="matrix(1,0,0,-1,0,841.5)" d="M 0 841.5 L 594.75 841.5 L 594.75 -.000061035 L .000030518 -.000061035 " fill-rule="evenodd"/>
</clipPath>
<g clip-path="url(#cp551)">
<path transform="matrix(1,0,0,-1,0,841.5)" d="M 232.84 550.39 L 218.49 554.69 L 232.56 559.86 L 232.84 550.39 Z " fill-rule="evenodd"/>
</g>
<path transform="matrix(1,0,0,-1,0,841.5)" d="M 211.06 660.99 C 211.06 670.15 192.98 677.58 170.67 677.58 C 148.36 677.58 130.28 670.15 130.28 660.99 C 130.28 651.84 148.36 644.41 170.67 644.41 C 192.98 644.41 211.06 651.84 211.06 660.99 Z " fill="#ffffff" fill-rule="evenodd"/>
<path transform="matrix(1,0,0,-1,0,841.5)" stroke-width="1.5" stroke-linecap="round" stroke-linejoin="round" fill="none" stroke="#000000" d="M 211.06 660.99 C 211.06 670.15 192.98 677.58 170.67 677.58 C 148.36 677.58 130.28 670.15 130.28 660.99 C 130.28 651.84 148.36 644.41 170.67 644.41 C 192.98 644.41 211.06 651.84 211.06 660.99 Z "/>
<g id="Layer-1" data-name="P">
<clipPath id="cp552">
<path transform="matrix(1,0,0,-1,0,841.5)" d="M .000008862 0 L 594.75 0 L 594.75 841.5 L .000008862 841.5 Z " fill-rule="evenodd"/>
</clipPath>
<g clip-path="url(#cp552)">
<text xml:space="preserve" transform="matrix(1 0 -0 1 0 841.5)" font-size="9" font-family="ArialNarrow" font-style="italic"><tspan y="-665.3" x="149.33 153.08301 155.324 157.565 161.31801 164.30602 168.05902 172.55002 174.80002 177.04102 180.78502 184.53803 189.02902">p. order copy</tspan></text>
</g>
</g>
<g id="Layer-1" data-name="P">
<clipPath id="cp553">
<path transform="matrix(1,0,0,-1,0,841.5)" d="M .000008862 0 L 594.75 0 L 594.75 841.5 L .000008862 841.5 Z " fill-rule="evenodd"/>
</clipPath>
<g clip-path="url(#cp553)">
<text xml:space="preserve" transform="matrix(1 0 -0 1 0 841.5)" font-size="9" font-family="ArialNarrow" font-weight="bold"><tspan y="-665.3" x="192.45"> </tspan></text>
</g>
</g>
<g id="Layer-1" data-name="P">
<clipPath id="cp554">
<path transform="matrix(1,0,0,-1,0,841.5)" d="M .000008862 0 L 594.75 0 L 594.75 841.5 L .000008862 841.5 Z " fill-rule="evenodd"/>
</clipPath>
<g clip-path="url(#cp554)">
<text xml:space="preserve" transform="matrix(1 0 -0 1 0 841.5)" font-size="9" font-family="ArialNarrow" font-weight="bold"><tspan y="-654.47" x="140.5 142.75 147.99701 150.98502 154.73802">(Ute,</tspan></text>
</g>
</g>
<g id="Layer-1" data-name="Span">
<clipPath id="cp555">
<path transform="matrix(1,0,0,-1,0,841.5)" d="M .000008862 0 L 594.75 0 L 594.75 841.5 L .000008862 841.5 Z " fill-rule="evenodd"/>
</clipPath>
<g clip-path="url(#cp555)">
<text xml:space="preserve" transform="matrix(1 0 -0 1 0 841.5)" font-size="9" font-family="ArialNarrow" font-weight="bold"><tspan y="-654.47" x="156.93"> </tspan></text>
</g>
</g>
<g id="Layer-1" data-name="P">
<clipPath id="cp556">
<path transform="matrix(1,0,0,-1,0,841.5)" d="M .000008862 0 L 594.75 0 L 594.75 841.5 L .000008862 841.5 Z " fill-rule="evenodd"/>
</clipPath>
<g clip-path="url(#cp556)">
<text xml:space="preserve" transform="matrix(1 0 -0 1 0 841.5)" font-size="9" font-family="ArialNarrow" font-weight="bold"><tspan y="-654.47" x="158.98 161.968 166.477 170.22101 172.462 174.703 179.212 182.95601 185.197 187.438 191.947">{p1, p2, p2</tspan></text>
</g>
</g>
<g id="Layer-1" data-name="P">
<clipPath id="cp557">
<path transform="matrix(1,0,0,-1,0,841.5)" d="M .000008862 0 L 594.75 0 L 594.75 841.5 L .000008862 841.5 Z " fill-rule="evenodd"/>
</clipPath>
<g clip-path="url(#cp557)">
<text xml:space="preserve" transform="matrix(1 0 -0 1 0 841.5)" font-size="9" font-family="ArialNarrow" font-weight="bold"><tspan y="-654.47" x="195.95 198.95">})</tspan></text>
</g>
</g>
<path transform="matrix(1,0,0,-1,0,841.5)" d="M 121 545.2 L 218.48401 545.2 L 218.48401 578.365 L 121 578.365 Z " fill="#ffffff" fill-rule="evenodd"/>
<path transform="matrix(1,0,0,-1,0,841.5)" stroke-width="2" stroke-linecap="round" stroke-linejoin="round" fill="none" stroke="#000000" d="M 121 545.2 L 218.48401 545.2 L 218.48401 578.365 L 121 578.365 Z "/>
<g id="Layer-1" data-name="P">
<clipPath id="cp558">
<path transform="matrix(1,0,0,-1,0,841.5)" d="M .000008862 0 L 594.75 0 L 594.75 841.5 L .000008862 841.5 Z " fill-rule="evenodd"/>
</clipPath>
<g clip-path="url(#cp558)">
<text xml:space="preserve" transform="matrix(1 0 -0 1 0 841.5)" font-size="12" font-family="ArialNarrow" font-weight="bold"><tspan y="-557.92" x="131.1 134.088 140.09999 143.088 149.09999 152.844 161.832 164.07599 170.064 176.07599 181.30799 184.30799 190.31998 199.29598 204.53998">inform customer</tspan></text>
</g>
</g>
<path transform="matrix(1,0,0,-1,0,841.5)" d="M 375.02 644.41 L 470.034 644.41 L 470.034 677.57498 L 375.02 677.57498 Z " fill="#ffffff" fill-rule="evenodd"/>
<path transform="matrix(1,0,0,-1,0,841.5)" stroke-width="2" stroke-linecap="round" stroke-linejoin="round" fill="none" stroke="#000000" d="M 375.02 644.41 L 470.034 644.41 L 470.034 677.57498 L 375.02 677.57498 Z "/>
<g id="Layer-1" data-name="P">
<clipPath id="cp559">
<path transform="matrix(1,0,0,-1,0,841.5)" d="M .000008862 0 L 594.75 0 L 594.75 841.5 L .000008862 841.5 Z " fill-rule="evenodd"/>
</clipPath>
<g clip-path="url(#cp559)">
<text xml:space="preserve" transform="matrix(1 0 -0 1 0 841.5)" font-size="12" font-family="ArialNarrow" font-weight="bold"><tspan y="-657.22" x="384.17 390.182 395.474 401.486 403.72999 409.74198 415.75398 421.78996 424.78996 430.06999 433.05799 439.06999 444.362 448.142 454.15403 459.43406 462.42207">designate parcel </tspan></text>
</g>
</g>
<path transform="matrix(1,0,0,-1,0,841.5)" d="M 375.02 543.28 L 470.034 543.28 L 470.034 576.445 L 375.02 576.445 Z " fill="#ffffff" fill-rule="evenodd"/>
<path transform="matrix(1,0,0,-1,0,841.5)" stroke-width="2" stroke-linecap="round" stroke-linejoin="round" fill="none" stroke="#000000" d="M 375.02 543.28 L 470.034 543.28 L 470.034 576.445 L 375.02 576.445 Z "/>
<g id="Layer-1" data-name="P">
<clipPath id="cp560">
<path transform="matrix(1,0,0,-1,0,841.5)" d="M .000008862 0 L 594.75 0 L 594.75 841.5 L .000008862 841.5 Z " fill-rule="evenodd"/>
</clipPath>
<g clip-path="url(#cp560)">
<text xml:space="preserve" transform="matrix(1 0 -0 1 0 841.5)" font-size="12" font-family="ArialNarrow" font-weight="bold"><tspan y="-556" x="384.17 390.182 395.474 401.486 403.72999 409.74198 415.75398 421.78996 424.78996 430.06999 433.05799 439.06999 444.362 448.142 454.15403 459.43406">designate parcel</tspan></text>
</g>
</g>
<path transform="matrix(1,0,0,-1,0,841.5)" stroke-width="1.5" stroke-linecap="round" stroke-linejoin="round" fill="none" stroke="#000000" d="M 559.2 669.21 L 483.07 669.21 "/>
<path transform="matrix(1,0,0,-1,0,841.5)" d="M 484.25 664.47 L 470.03 669.21 L 484.25 673.95 L 484.25 664.47 Z " fill-rule="evenodd"/>
<path transform="matrix(1,0,0,-1,0,841.5)" stroke-width="1.5" stroke-linecap="round" stroke-linejoin="round" fill="none" stroke="#000000" d="M 552.4 651.71 L 483.07 651.71 "/>
<path transform="matrix(1,0,0,-1,0,841.5)" d="M 484.25 646.97 L 470.03 651.71 L 484.25 656.45 L 484.25 646.97 Z " fill-rule="evenodd"/>
<path transform="matrix(1,0,0,-1,0,841.5)" d="M 574.14 594.44 C 574.14 601.99 557.51 608.11 536.98 608.11 C 516.46 608.11 499.82 601.99 499.82 594.44 C 499.82 586.88 516.46 580.76 536.98 580.76 C 557.51 580.76 574.14 586.88 574.14 594.44 Z " fill="#ffffff" fill-rule="evenodd"/>
<path transform="matrix(1,0,0,-1,0,841.5)" stroke-width="1.5" stroke-linecap="round" stroke-linejoin="round" fill="none" stroke="#000000" d="M 574.14 594.44 C 574.14 601.99 557.51 608.11 536.98 608.11 C 516.46 608.11 499.82 601.99 499.82 594.44 C 499.82 586.88 516.46 580.76 536.98 580.76 C 557.51 580.76 574.14 586.88 574.14 594.44 Z "/>
<g id="Layer-1" data-name="P">
<clipPath id="cp561">
<path transform="matrix(1,0,0,-1,0,841.5)" d="M .000008862 0 L 594.75 0 L 594.75 841.5 L .000008862 841.5 Z " fill-rule="evenodd"/>
</clipPath>
<g clip-path="url(#cp561)">
<text xml:space="preserve" transform="matrix(1 0 -0 1 0 841.5)" font-size="9" font-family="ArialNarrow" font-style="italic"><tspan y="-595.8" x="517.95 521.703 526.19406 528.44406 532.18807 536.6791 538.18209 540.4231 544.1761 546.4261 550.9171 554.6701">parcel order</tspan></text>
</g>
</g>
<g id="Layer-1" data-name="P">
<clipPath id="cp562">
<path transform="matrix(1,0,0,-1,0,841.5)" d="M .000008862 0 L 594.75 0 L 594.75 841.5 L .000008862 841.5 Z " fill-rule="evenodd"/>
</clipPath>
<g clip-path="url(#cp562)">
<text xml:space="preserve" transform="matrix(1 0 -0 1 0 841.5)" font-size="9.025" font-family="ArialNarrow" font-weight="bold"><tspan y="-585" x="513.65 515.8972 521.1497 524.13699 527.89138 530.1295 532.3677 534.61489 539.1364 543.6038 545.842 547.3401 551.86166 556.32907 559.3163">(Ute, {p1, p2})</tspan></text>
</g>
</g>
<path transform="matrix(1,0,0,-1,0,841.5)" d="M 568.37 754.07 C 568.37 757.33 554.45 759.98 537.28 759.98 C 520.1 759.98 506.18 757.33 506.18 754.07 C 506.18 750.8 520.1 748.15 537.28 748.15 C 554.45 748.15 568.37 750.8 568.37 754.07 Z " fill="#ffffff" fill-rule="evenodd"/>
<path transform="matrix(1,0,0,-1,0,841.5)" stroke-width="1.5" stroke-linecap="round" stroke-linejoin="round" fill="none" stroke="#000000" d="M 568.37 754.07 C 568.37 757.33 554.45 759.98 537.28 759.98 C 520.1 759.98 506.18 757.33 506.18 754.07 C 506.18 750.8 520.1 748.15 537.28 748.15 C 554.45 748.15 568.37 750.8 568.37 754.07 Z "/>
<g id="Layer-1" data-name="P">
<clipPath id="cp563">
<path transform="matrix(1,0,0,-1,0,841.5)" d="M .000008862 0 L 594.75 0 L 594.75 841.5 L .000008862 841.5 Z " fill-rule="evenodd"/>
</clipPath>
<g clip-path="url(#cp563)">
<text xml:space="preserve" transform="matrix(1 0 -0 1 0 841.5)" font-size="9" font-family="ArialNarrow" font-style="italic"><tspan y="-751.28" x="512.08 514.33 518.82107 522.57406 527.06509 530.81808 534.5621 536.8031 539.0441 540.5471 543.5351 547.2881 551.0321">request. res.</tspan></text>
</g>
</g>
<g id="Layer-1" data-name="P">
<clipPath id="cp564">
<path transform="matrix(1,0,0,-1,0,841.5)" d="M .000008862 0 L 594.75 0 L 594.75 841.5 L .000008862 841.5 Z " fill-rule="evenodd"/>
</clipPath>
<g clip-path="url(#cp564)">
<text xml:space="preserve" transform="matrix(1 0 -0 1 0 841.5)" font-size="9" font-family="ArialNarrow" font-weight="bold"><tspan y="-751.28" x="553.15"> </tspan></text>
</g>
</g>
<g id="Layer-1" data-name="P">
<clipPath id="cp565">
<path transform="matrix(1,0,0,-1,0,841.5)" d="M .000008862 0 L 594.75 0 L 594.75 841.5 L .000008862 841.5 Z " fill-rule="evenodd"/>
</clipPath>
<g clip-path="url(#cp565)">
<text xml:space="preserve" transform="matrix(1 0 -0 1 0 841.5)" font-size="9" font-family="ArialNarrow" font-weight="bold"><tspan y="-751.28" x="555.22 559.72">p2</tspan></text>
</g>
</g>
<path transform="matrix(1,0,0,-1,0,841.5)" d="M 568.37 737.23 C 568.37 740.5 554.45 743.15 537.28 743.15 C 520.1 743.15 506.18 740.5 506.18 737.23 C 506.18 733.97 520.1 731.32 537.28 731.32 C 554.45 731.32 568.37 733.97 568.37 737.23 Z " fill="#ffffff" fill-rule="evenodd"/>
<path transform="matrix(1,0,0,-1,0,841.5)" stroke-width="1.5" stroke-linecap="round" stroke-linejoin="round" fill="none" stroke="#000000" d="M 568.37 737.23 C 568.37 740.5 554.45 743.15 537.28 743.15 C 520.1 743.15 506.18 740.5 506.18 737.23 C 506.18 733.97 520.1 731.32 537.28 731.32 C 554.45 731.32 568.37 733.97 568.37 737.23 Z "/>
<g id="Layer-1" data-name="P">
<clipPath id="cp566">
<path transform="matrix(1,0,0,-1,0,841.5)" d="M .000008862 0 L 594.75 0 L 594.75 841.5 L .000008862 841.5 Z " fill-rule="evenodd"/>
</clipPath>
<g clip-path="url(#cp566)">
<text xml:space="preserve" transform="matrix(1 0 -0 1 0 841.5)" font-size="9" font-family="ArialNarrow" font-style="italic"><tspan y="-734.42" x="512.08 514.33 518.82107 522.57406 527.06509 530.81808 534.5621 536.8031 539.0441 540.5471 543.5351 547.2881 551.0321">request. res.</tspan></text>
</g>
</g>
<g id="Layer-1" data-name="P">
<clipPath id="cp567">
<path transform="matrix(1,0,0,-1,0,841.5)" d="M .000008862 0 L 594.75 0 L 594.75 841.5 L .000008862 841.5 Z " fill-rule="evenodd"/>
</clipPath>
<g clip-path="url(#cp567)">
<text xml:space="preserve" transform="matrix(1 0 -0 1 0 841.5)" font-size="9" font-family="ArialNarrow" font-weight="bold"><tspan y="-734.42" x="553.15"> </tspan></text>
</g>
</g>
<g id="Layer-1" data-name="P">
<clipPath id="cp568">
<path transform="matrix(1,0,0,-1,0,841.5)" d="M .000008862 0 L 594.75 0 L 594.75 841.5 L .000008862 841.5 Z " fill-rule="evenodd"/>
</clipPath>
<g clip-path="url(#cp568)">
<text xml:space="preserve" transform="matrix(1 0 -0 1 0 841.5)" font-size="9" font-family="ArialNarrow" font-weight="bold"><tspan y="-734.42" x="555.22 559.72">p2</tspan></text>
</g>
</g>
<path transform="matrix(1,0,0,-1,0,841.5)" d="M 568.37 669.4 C 568.37 672.66 554.45 675.31 537.28 675.31 C 520.1 675.31 506.18 672.66 506.18 669.4 C 506.18 666.13 520.1 663.48 537.28 663.48 C 554.45 663.48 568.37 666.13 568.37 669.4 Z " fill="#ffffff" fill-rule="evenodd"/>
<path transform="matrix(1,0,0,-1,0,841.5)" stroke-width="1.5" stroke-linecap="round" stroke-linejoin="round" fill="none" stroke="#000000" d="M 568.37 669.4 C 568.37 672.66 554.45 675.31 537.28 675.31 C 520.1 675.31 506.18 672.66 506.18 669.4 C 506.18 666.13 520.1 663.48 537.28 663.48 C 554.45 663.48 568.37 666.13 568.37 669.4 Z "/>
<g id="Layer-1" data-name="P">
<clipPath id="cp569">
<path transform="matrix(1,0,0,-1,0,841.5)" d="M .000008862 0 L 594.75 0 L 594.75 841.5 L .000008862 841.5 Z " fill-rule="evenodd"/>
</clipPath>
<g clip-path="url(#cp569)">
<text xml:space="preserve" transform="matrix(1 0 -0 1 0 841.5)" font-size="9" font-family="ArialNarrow" font-style="italic"><tspan y="-666.53" x="512.9 516.653 519.641 523.394 527.885 529.388 533.879 537.632 539.87307 542.12307 546.6141 550.3581 552.5991">granted res. </tspan></text>
</g>
</g>
<g id="Layer-1" data-name="P">
<clipPath id="cp570">
<path transform="matrix(1,0,0,-1,0,841.5)" d="M .000008862 0 L 594.75 0 L 594.75 841.5 L .000008862 841.5 Z " fill-rule="evenodd"/>
</clipPath>
<g clip-path="url(#cp570)">
<text xml:space="preserve" transform="matrix(1 0 -0 1 0 841.5)" font-size="9" font-family="ArialNarrow" font-weight="bold"><tspan y="-666.53" x="554.4 558.9">p1</tspan></text>
</g>
</g>
<path transform="matrix(1,0,0,-1,0,841.5)" d="M 568.37 652.56 C 568.37 655.83 554.45 658.48 537.28 658.48 C 520.1 658.48 506.18 655.83 506.18 652.56 C 506.18 649.3 520.1 646.65 537.28 646.65 C 554.45 646.65 568.37 649.3 568.37 652.56 Z " fill="#ffffff" fill-rule="evenodd"/>
<path transform="matrix(1,0,0,-1,0,841.5)" stroke-width="1.5" stroke-linecap="round" stroke-linejoin="round" fill="none" stroke="#000000" d="M 568.37 652.56 C 568.37 655.83 554.45 658.48 537.28 658.48 C 520.1 658.48 506.18 655.83 506.18 652.56 C 506.18 649.3 520.1 646.65 537.28 646.65 C 554.45 646.65 568.37 649.3 568.37 652.56 Z "/>
<g id="Layer-1" data-name="P">
<clipPath id="cp571">
<path transform="matrix(1,0,0,-1,0,841.5)" d="M .000008862 0 L 594.75 0 L 594.75 841.5 L .000008862 841.5 Z " fill-rule="evenodd"/>
</clipPath>
<g clip-path="url(#cp571)">
<text xml:space="preserve" transform="matrix(1 0 -0 1 0 841.5)" font-size="9" font-family="ArialNarrow" font-style="italic"><tspan y="-649.67" x="512.9 516.653 519.641 523.394 527.885 529.388 533.879 537.632 539.87307 542.12307 546.6141 550.3581 552.5991">granted res. </tspan></text>
</g>
</g>
<g id="Layer-1" data-name="P">
<clipPath id="cp572">
<path transform="matrix(1,0,0,-1,0,841.5)" d="M .000008862 0 L 594.75 0 L 594.75 841.5 L .000008862 841.5 Z " fill-rule="evenodd"/>
</clipPath>
<g clip-path="url(#cp572)">
<text xml:space="preserve" transform="matrix(1 0 -0 1 0 841.5)" font-size="9" font-family="ArialNarrow" font-weight="bold"><tspan y="-649.67" x="554.4 558.9">p2</tspan></text>
</g>
</g>
<path transform="matrix(1,0,0,-1,0,841.5)" d="M 568.37 635.73 C 568.37 639 554.45 641.64 537.28 641.64 C 520.1 641.64 506.18 639 506.18 635.73 C 506.18 632.46 520.1 629.81 537.28 629.81 C 554.45 629.81 568.37 632.46 568.37 635.73 Z " fill="#ffffff" fill-rule="evenodd"/>
<path transform="matrix(1,0,0,-1,0,841.5)" stroke-width="1.5" stroke-linecap="round" stroke-linejoin="round" fill="none" stroke="#000000" d="M 568.37 635.73 C 568.37 639 554.45 641.64 537.28 641.64 C 520.1 641.64 506.18 639 506.18 635.73 C 506.18 632.46 520.1 629.81 537.28 629.81 C 554.45 629.81 568.37 632.46 568.37 635.73 Z "/>
<g id="Layer-1" data-name="P">
<clipPath id="cp573">
<path transform="matrix(1,0,0,-1,0,841.5)" d="M .000008862 0 L 594.75 0 L 594.75 841.5 L .000008862 841.5 Z " fill-rule="evenodd"/>
</clipPath>
<g clip-path="url(#cp573)">
<text xml:space="preserve" transform="matrix(1 0 -0 1 0 841.5)" font-size="9" font-family="ArialNarrow" font-style="italic"><tspan y="-632.83" x="512.9 516.653 519.641 523.394 527.885 529.388 533.879 537.632 539.87307 542.12307 546.6141 550.3581 552.5991">granted res. </tspan></text>
</g>
</g>
<g id="Layer-1" data-name="P">
<clipPath id="cp574">
<path transform="matrix(1,0,0,-1,0,841.5)" d="M .000008862 0 L 594.75 0 L 594.75 841.5 L .000008862 841.5 Z " fill-rule="evenodd"/>
</clipPath>
<g clip-path="url(#cp574)">
<text xml:space="preserve" transform="matrix(1 0 -0 1 0 841.5)" font-size="9" font-family="ArialNarrow" font-weight="bold"><tspan y="-632.83" x="554.4 558.9">p2</tspan></text>
</g>
</g>
<clipPath id="cp575">
<path transform="matrix(1,0,0,-1,0,841.5)" d="M -.000061035 841.5 L 594.75 841.5 L 594.75 0 L -.000061035 .000061035 " fill-rule="evenodd"/>
</clipPath>
<g clip-path="url(#cp575)">
<path transform="matrix(1,0,0,-1,0,841.5)" stroke-width="1.5" stroke-linecap="round" stroke-linejoin="round" fill="none" stroke="#000000" d="M 533.62 629.57 L 458.19 584.19 "/>
</g>
<clipPath id="cp576">
<path transform="matrix(1,0,0,-1,0,841.5)" d="M -.000061035 841.5 L 594.75 841.5 L 594.75 0 L -.000061035 .000061035 " fill-rule="evenodd"/>
</clipPath>
<g clip-path="url(#cp576)">
<path transform="matrix(1,0,0,-1,0,841.5)" d="M 461.65 580.74 L 447.02 577.47 L 456.76 588.86 L 461.65 580.74 Z " fill-rule="evenodd"/>
</g>
<path transform="matrix(1,0,0,-1,0,841.5)" d="M 574.8 560.7 C 574.8 568.25 558.16 574.38 537.63 574.38 C 517.11 574.38 500.47 568.25 500.47 560.7 C 500.47 553.15 517.11 547.02 537.63 547.02 C 558.16 547.02 574.8 553.15 574.8 560.7 Z " fill="#ffffff" fill-rule="evenodd"/>
<path transform="matrix(1,0,0,-1,0,841.5)" stroke-width="1.5" stroke-linecap="round" stroke-linejoin="round" fill="none" stroke="#000000" d="M 574.8 560.7 C 574.8 568.25 558.16 574.38 537.63 574.38 C 517.11 574.38 500.47 568.25 500.47 560.7 C 500.47 553.15 517.11 547.02 537.63 547.02 C 558.16 547.02 574.8 553.15 574.8 560.7 Z "/>
<g id="Layer-1" data-name="P">
<clipPath id="cp577">
<path transform="matrix(1,0,0,-1,0,841.5)" d="M .000008862 0 L 594.75 0 L 594.75 841.5 L .000008862 841.5 Z " fill-rule="evenodd"/>
</clipPath>
<g clip-path="url(#cp577)">
<text xml:space="preserve" transform="matrix(1 0 -0 1 0 841.5)" font-size="9" font-family="ArialNarrow" font-style="italic"><tspan y="-562.03" x="518.6 522.35299 526.844 529.094 532.838 537.32907 538.83206 541.07308 544.82608 547.07608 551.5671 555.32009">parcel order</tspan></text>
</g>
</g>
<g id="Layer-1" data-name="P">
<clipPath id="cp578">
<path transform="matrix(1,0,0,-1,0,841.5)" d="M .000008862 0 L 594.75 0 L 594.75 841.5 L .000008862 841.5 Z " fill-rule="evenodd"/>
</clipPath>
<g clip-path="url(#cp578)">
<text xml:space="preserve" transform="matrix(1 0 -0 1 0 841.5)" font-size="9" font-family="ArialNarrow" font-weight="bold"><tspan y="-551.22" x="520.67 522.92 528.167 531.15499 534.90798 537.149 539.39 541.64 546.149 550.631 553.61898">(Ute, {p2})</tspan></text>
</g>
</g>
<path transform="matrix(1,0,0,-1,0,841.5)" d="M 325.05 557.44 C 325.05 564.78 315.23 570.73 303.12 570.73 C 291.01 570.73 281.19 564.78 281.19 557.44 C 281.19 550.1 291.01 544.15 303.12 544.15 C 315.23 544.15 325.05 550.1 325.05 557.44 Z " fill="#ffffff" fill-rule="evenodd"/>
<path transform="matrix(1,0,0,-1,0,841.5)" stroke-width="1.5" stroke-linecap="round" stroke-linejoin="round" fill="none" stroke="#000000" d="M 325.05 557.44 C 325.05 564.78 315.23 570.73 303.12 570.73 C 291.01 570.73 281.19 564.78 281.19 557.44 C 281.19 550.1 291.01 544.15 303.12 544.15 C 315.23 544.15 325.05 550.1 325.05 557.44 Z "/>
<g id="Layer-1" data-name="P">
<clipPath id="cp579">
<path transform="matrix(1,0,0,-1,0,841.5)" d="M .000008862 0 L 594.75 0 L 594.75 841.5 L .000008862 841.5 Z " fill-rule="evenodd"/>
</clipPath>
<g clip-path="url(#cp579)">
<text xml:space="preserve" transform="matrix(1 0 -0 1 0 841.5)" font-size="9" font-family="ArialNarrow" font-style="italic"><tspan y="-561.4" x="301.05">B</tspan></text>
</g>
</g>
<g id="Layer-1" data-name="P">
<clipPath id="cp580">
<path transform="matrix(1,0,0,-1,0,841.5)" d="M .000008862 0 L 594.75 0 L 594.75 841.5 L .000008862 841.5 Z " fill-rule="evenodd"/>
</clipPath>
<g clip-path="url(#cp580)">
<text xml:space="preserve" transform="matrix(1 0 -0 1 0 841.5)" font-size="9.025" font-family="ArialNarrow" font-weight="bold"><tspan y="-550.6" x="288.73 290.97724 296.2298 299.21708 302.97148 305.2097 307.4479 311.96943 315.69676">(Ute, p2)</tspan></text>
</g>
</g>
<path transform="matrix(1,0,0,-1,0,841.5)" d="M 325.05 594.88 C 325.05 602.22 315.23 608.17 303.12 608.17 C 291.01 608.17 281.19 602.22 281.19 594.88 C 281.19 587.54 291.01 581.59 303.12 581.59 C 315.23 581.59 325.05 587.54 325.05 594.88 Z " fill="#ffffff" fill-rule="evenodd"/>
<path transform="matrix(1,0,0,-1,0,841.5)" stroke-width="1.5" stroke-linecap="round" stroke-linejoin="round" fill="none" stroke="#000000" d="M 325.05 594.88 C 325.05 602.22 315.23 608.17 303.12 608.17 C 291.01 608.17 281.19 602.22 281.19 594.88 C 281.19 587.54 291.01 581.59 303.12 581.59 C 315.23 581.59 325.05 587.54 325.05 594.88 Z "/>
<g id="Layer-1" data-name="P">
<clipPath id="cp581">
<path transform="matrix(1,0,0,-1,0,841.5)" d="M .000008862 0 L 594.75 0 L 594.75 841.5 L .000008862 841.5 Z " fill-rule="evenodd"/>
</clipPath>
<g clip-path="url(#cp581)">
<text xml:space="preserve" transform="matrix(1 0 -0 1 0 841.5)" font-size="9" font-family="ArialNarrow" font-style="italic"><tspan y="-598.88" x="301.05">B</tspan></text>
</g>
</g>
<g id="Layer-1" data-name="P">
<clipPath id="cp582">
<path transform="matrix(1,0,0,-1,0,841.5)" d="M .000008862 0 L 594.75 0 L 594.75 841.5 L .000008862 841.5 Z " fill-rule="evenodd"/>
</clipPath>
<g clip-path="url(#cp582)">
<text xml:space="preserve" transform="matrix(1 0 -0 1 0 841.5)" font-size="9" font-family="ArialNarrow"><tspan y="-598.88" x="305.98"> </tspan></text>
</g>
</g>
<g id="Layer-1" data-name="P">
<clipPath id="cp583">
<path transform="matrix(1,0,0,-1,0,841.5)" d="M .000008862 0 L 594.75 0 L 594.75 841.5 L .000008862 841.5 Z " fill-rule="evenodd"/>
</clipPath>
<g clip-path="url(#cp583)">
<text xml:space="preserve" transform="matrix(1 0 -0 1 0 841.5)" font-size="9.025" font-family="ArialNarrow" font-weight="bold"><tspan y="-588.08" x="288.73 290.97724 296.2298 299.21708 302.97148 305.2097 307.4479 311.96943 315.69676">(Ute, p2)</tspan></text>
</g>
</g>
<path transform="matrix(1,0,0,-1,0,841.5)" d="M 325.05 626.56 C 325.05 633.9 315.23 639.85 303.12 639.85 C 291.01 639.85 281.19 633.9 281.19 626.56 C 281.19 619.22 291.01 613.27 303.12 613.27 C 315.23 613.27 325.05 619.22 325.05 626.56 Z " fill="#ffffff" fill-rule="evenodd"/>
<path transform="matrix(1,0,0,-1,0,841.5)" stroke-width="1.5" stroke-linecap="round" stroke-linejoin="round" fill="none" stroke="#000000" d="M 325.05 626.56 C 325.05 633.9 315.23 639.85 303.12 639.85 C 291.01 639.85 281.19 633.9 281.19 626.56 C 281.19 619.22 291.01 613.27 303.12 613.27 C 315.23 613.27 325.05 619.22 325.05 626.56 Z "/>
<g id="Layer-1" data-name="P">
<clipPath id="cp584">
<path transform="matrix(1,0,0,-1,0,841.5)" d="M .000008862 0 L 594.75 0 L 594.75 841.5 L .000008862 841.5 Z " fill-rule="evenodd"/>
</clipPath>
<g clip-path="url(#cp584)">
<text xml:space="preserve" transform="matrix(1 0 -0 1 0 841.5)" font-size="9" font-family="ArialNarrow" font-style="italic"><tspan y="-630.58" x="301.05 306.3">B </tspan></text>
</g>
</g>
<g id="Layer-1" data-name="P">
<clipPath id="cp585">
<path transform="matrix(1,0,0,-1,0,841.5)" d="M .000008862 0 L 594.75 0 L 594.75 841.5 L .000008862 841.5 Z " fill-rule="evenodd"/>
</clipPath>
<g clip-path="url(#cp585)">
<text xml:space="preserve" transform="matrix(1 0 -0 1 0 841.5)" font-size="9" font-family="ArialNarrow" font-weight="bold"><tspan y="-619.78" x="288.73 290.98 296.22703 299.21504 302.96803 305.209 307.45 311.959 315.70304">(Ute, p1)</tspan></text>
</g>
</g>
<path transform="matrix(1,0,0,-1,0,841.5)" d="M 325.05 658.24 C 325.05 665.58 315.23 671.53 303.12 671.53 C 291.01 671.53 281.19 665.58 281.19 658.24 C 281.19 650.9 291.01 644.95 303.12 644.95 C 315.23 644.95 325.05 650.9 325.05 658.24 Z " fill="#ffffff" fill-rule="evenodd"/>
<path transform="matrix(1,0,0,-1,0,841.5)" stroke-width="1.5" stroke-linecap="round" stroke-linejoin="round" fill="none" stroke="#000000" d="M 325.05 658.24 C 325.05 665.58 315.23 671.53 303.12 671.53 C 291.01 671.53 281.19 665.58 281.19 658.24 C 281.19 650.9 291.01 644.95 303.12 644.95 C 315.23 644.95 325.05 650.9 325.05 658.24 Z "/>
<g id="Layer-1" data-name="P">
<clipPath id="cp586">
<path transform="matrix(1,0,0,-1,0,841.5)" d="M .000008862 0 L 594.75 0 L 594.75 841.5 L .000008862 841.5 Z " fill-rule="evenodd"/>
</clipPath>
<g clip-path="url(#cp586)">
<text xml:space="preserve" transform="matrix(1 0 -0 1 0 841.5)" font-size="9.025" font-family="ArialNarrow" font-style="italic"><tspan y="-662.3" x="301.05">A</tspan></text>
</g>
</g>
<g id="Layer-1" data-name="P">
<clipPath id="cp587">
<path transform="matrix(1,0,0,-1,0,841.5)" d="M .000008862 0 L 594.75 0 L 594.75 841.5 L .000008862 841.5 Z " fill-rule="evenodd"/>
</clipPath>
<g clip-path="url(#cp587)">
<text xml:space="preserve" transform="matrix(1 0 -0 1 0 841.5)" font-size="9.025" font-family="ArialNarrow" font-weight="bold"><tspan y="-662.3" x="305.98 308.2297">  </tspan></text>
</g>
</g>
<g id="Layer-1" data-name="P">
<clipPath id="cp588">
<path transform="matrix(1,0,0,-1,0,841.5)" d="M .000008862 0 L 594.75 0 L 594.75 841.5 L .000008862 841.5 Z " fill-rule="evenodd"/>
</clipPath>
<g clip-path="url(#cp588)">
<text xml:space="preserve" transform="matrix(1 0 -0 1 0 841.5)" font-size="9" font-family="ArialNarrow" font-weight="bold"><tspan y="-651.47" x="288.73 290.98 296.22703 299.21504 302.96803 305.209 307.45 311.959 315.70304">(Ute, p2)</tspan></text>
</g>
</g>
<path transform="matrix(1,0,0,-1,0,841.5)" d="M 325.05 721.6 C 325.05 728.94 315.23 734.89 303.12 734.89 C 291.01 734.89 281.19 728.94 281.19 721.6 C 281.19 714.26 291.01 708.31 303.12 708.31 C 315.23 708.31 325.05 714.26 325.05 721.6 Z " fill="#ffffff" fill-rule="evenodd"/>
<path transform="matrix(1,0,0,-1,0,841.5)" stroke-width="1.5" stroke-linecap="round" stroke-linejoin="round" fill="none" stroke="#000000" d="M 325.05 721.6 C 325.05 728.94 315.23 734.89 303.12 734.89 C 291.01 734.89 281.19 728.94 281.19 721.6 C 281.19 714.26 291.01 708.31 303.12 708.31 C 315.23 708.31 325.05 714.26 325.05 721.6 Z "/>
<g id="Layer-1" data-name="P">
<clipPath id="cp589">
<path transform="matrix(1,0,0,-1,0,841.5)" d="M .000008862 0 L 594.75 0 L 594.75 841.5 L .000008862 841.5 Z " fill-rule="evenodd"/>
</clipPath>
<g clip-path="url(#cp589)">
<text xml:space="preserve" transform="matrix(1 0 -0 1 0 841.5)" font-size="9" font-family="ArialNarrow" font-style="italic"><tspan y="-725.7" x="301.05">A</tspan></text>
</g>
</g>
<g id="Layer-1" data-name="P">
<clipPath id="cp590">
<path transform="matrix(1,0,0,-1,0,841.5)" d="M .000008862 0 L 594.75 0 L 594.75 841.5 L .000008862 841.5 Z " fill-rule="evenodd"/>
</clipPath>
<g clip-path="url(#cp590)">
<text xml:space="preserve" transform="matrix(1 0 -0 1 0 841.5)" font-size="9" font-family="ArialNarrow" font-weight="bold"><tspan y="-725.7" x="305.98"> </tspan></text>
</g>
</g>
<g id="Layer-1" data-name="P">
<clipPath id="cp591">
<path transform="matrix(1,0,0,-1,0,841.5)" d="M .000008862 0 L 594.75 0 L 594.75 841.5 L .000008862 841.5 Z " fill-rule="evenodd"/>
</clipPath>
<g clip-path="url(#cp591)">
<text xml:space="preserve" transform="matrix(1 0 -0 1 0 841.5)" font-size="9.025" font-family="ArialNarrow" font-weight="bold"><tspan y="-714.9" x="288.73 290.97724 296.2298 299.21708 302.97148 305.2097 307.4479 311.96943 315.69676">(Ute, p1)</tspan></text>
</g>
</g>
<path transform="matrix(1,0,0,-1,0,841.5)" d="M 325.05 689.92 C 325.05 697.26 315.23 703.21 303.12 703.21 C 291.01 703.21 281.19 697.26 281.19 689.92 C 281.19 682.58 291.01 676.63 303.12 676.63 C 315.23 676.63 325.05 682.58 325.05 689.92 Z " fill="#ffffff" fill-rule="evenodd"/>
<path transform="matrix(1,0,0,-1,0,841.5)" stroke-width="1.5" stroke-linecap="round" stroke-linejoin="round" fill="none" stroke="#000000" d="M 325.05 689.92 C 325.05 697.26 315.23 703.21 303.12 703.21 C 291.01 703.21 281.19 697.26 281.19 689.92 C 281.19 682.58 291.01 676.63 303.12 676.63 C 315.23 676.63 325.05 682.58 325.05 689.92 Z "/>
<g id="Layer-1" data-name="P">
<clipPath id="cp592">
<path transform="matrix(1,0,0,-1,0,841.5)" d="M .000008862 0 L 594.75 0 L 594.75 841.5 L .000008862 841.5 Z " fill-rule="evenodd"/>
</clipPath>
<g clip-path="url(#cp592)">
<text xml:space="preserve" transform="matrix(1 0 -0 1 0 841.5)" font-size="9" font-family="ArialNarrow" font-style="italic"><tspan y="-694" x="301.05">A</tspan></text>
</g>
</g>
<g id="Layer-1" data-name="P">
<clipPath id="cp593">
<path transform="matrix(1,0,0,-1,0,841.5)" d="M .000008862 0 L 594.75 0 L 594.75 841.5 L .000008862 841.5 Z " fill-rule="evenodd"/>
</clipPath>
<g clip-path="url(#cp593)">
<text xml:space="preserve" transform="matrix(1 0 -0 1 0 841.5)" font-size="9" font-family="ArialNarrow" font-weight="bold"><tspan y="-694" x="305.98 308.23">  </tspan></text>
</g>
</g>
<g id="Layer-1" data-name="P">
<clipPath id="cp594">
<path transform="matrix(1,0,0,-1,0,841.5)" d="M .000008862 0 L 594.75 0 L 594.75 841.5 L .000008862 841.5 Z " fill-rule="evenodd"/>
</clipPath>
<g clip-path="url(#cp594)">
<text xml:space="preserve" transform="matrix(1 0 -0 1 0 841.5)" font-size="9" font-family="ArialNarrow" font-weight="bold"><tspan y="-683.17" x="288.73 290.98 296.22703 299.21504 302.96803 305.209 307.45 311.959 315.70304">(Ute, p2)</tspan></text>
</g>
</g>
<g id="Layer-1" data-name="P">
<clipPath id="cp595">
<path transform="matrix(1,0,0,-1,0,841.5)" d="M .000008862 0 L 594.75 0 L 594.75 841.5 L .000008862 841.5 Z " fill-rule="evenodd"/>
</clipPath>
<g clip-path="url(#cp595)">
<text xml:space="preserve" transform="matrix(1 0 -0 1 0 841.5)" font-size="12" font-family="ArialNarrow" font-style="italic"><tspan y="-729.2" x="70.45">A</tspan></text>
</g>
</g>
<g id="Layer-1" data-name="P">
<clipPath id="cp596">
<path transform="matrix(1,0,0,-1,0,841.5)" d="M .000008862 0 L 594.75 0 L 594.75 841.5 L .000008862 841.5 Z " fill-rule="evenodd"/>
</clipPath>
<g clip-path="url(#cp596)">
<text xml:space="preserve" transform="matrix(1 0 -0 1 0 841.5)" font-size="12.025" font-family="ArialNarrow" font-style="italic"><tspan y="-775.75" x="502.6">B</tspan></text>
</g>
</g>
<g id="Layer-1" data-name="P">
<clipPath id="cp597">
<path transform="matrix(1,0,0,-1,0,841.5)" d="M .000008862 0 L 594.75 0 L 594.75 841.5 L .000008862 841.5 Z " fill-rule="evenodd"/>
</clipPath>
<g clip-path="url(#cp597)">
<text xml:space="preserve" transform="matrix(1 0 -0 1 0 841.5)" font-size="12" font-family="ArialNarrow" font-style="italic"><tspan y="-757.58" x="502.33">C</tspan></text>
</g>
</g>
<g id="Layer-1" data-name="P">
<clipPath id="cp598">
<path transform="matrix(1,0,0,-1,0,841.5)" d="M .000008862 0 L 594.75 0 L 594.75 841.5 L .000008862 841.5 Z " fill-rule="evenodd"/>
</clipPath>
<g clip-path="url(#cp598)">
<text xml:space="preserve" transform="matrix(1 0 -0 1 0 841.5)" font-size="12" font-family="ArialNarrow" font-style="italic"><tspan y="-740.55" x="504.17">D</tspan></text>
</g>
</g>
<g id="Layer-1" data-name="P">
<clipPath id="cp599">
<path transform="matrix(1,0,0,-1,0,841.5)" d="M .000008862 0 L 594.75 0 L 594.75 841.5 L .000008862 841.5 Z " fill-rule="evenodd"/>
</clipPath>
<g clip-path="url(#cp599)">
<text xml:space="preserve" transform="matrix(1 0 -0 1 0 841.5)" font-size="12" font-family="ArialNarrow" font-style="italic"><tspan y="-633.83" x="200.3">E</tspan></text>
</g>
</g>
<g id="Layer-1" data-name="P">
<clipPath id="cp600">
<path transform="matrix(1,0,0,-1,0,841.5)" d="M .000008862 0 L 594.75 0 L 594.75 841.5 L .000008862 841.5 Z " fill-rule="evenodd"/>
</clipPath>
<g clip-path="url(#cp600)">
<text xml:space="preserve" transform="matrix(1 0 -0 1 0 841.5)" font-size="12" font-family="ArialNarrow" font-style="italic"><tspan y="-714.8" x="333.13">F</tspan></text>
</g>
</g>
<g id="Layer-1" data-name="P">
<clipPath id="cp601">
<path transform="matrix(1,0,0,-1,0,841.5)" d="M .000008862 0 L 594.75 0 L 594.75 841.5 L .000008862 841.5 Z " fill-rule="evenodd"/>
</clipPath>
<g clip-path="url(#cp601)">
<text xml:space="preserve" transform="matrix(1 0 -0 1 0 841.5)" font-size="12" font-family="ArialNarrow" font-style="italic"><tspan y="-689.2" x="330.75">G</tspan></text>
</g>
</g>
<g id="Layer-1" data-name="P">
<clipPath id="cp602">
<path transform="matrix(1,0,0,-1,0,841.5)" d="M .000008862 0 L 594.75 0 L 594.75 841.5 L .000008862 841.5 Z " fill-rule="evenodd"/>
</clipPath>
<g clip-path="url(#cp602)">
<text xml:space="preserve" transform="matrix(1 0 -0 1 0 841.5)" font-size="12.025" font-family="ArialNarrow" font-style="italic"><tspan y="-654.55" x="328.2">H</tspan></text>
</g>
</g>
<g id="Layer-1" data-name="P">
<clipPath id="cp603">
<path transform="matrix(1,0,0,-1,0,841.5)" d="M .000008862 0 L 594.75 0 L 594.75 841.5 L .000008862 841.5 Z " fill-rule="evenodd"/>
</clipPath>
<g clip-path="url(#cp603)">
<text xml:space="preserve" transform="matrix(1 0 -0 1 0 841.5)" font-size="12.025" font-family="ArialNarrow" font-style="italic"><tspan y="-623.67" x="273.2">I</tspan></text>
</g>
</g>
<g id="Layer-1" data-name="P">
<clipPath id="cp604">
<path transform="matrix(1,0,0,-1,0,841.5)" d="M .000008862 0 L 594.75 0 L 594.75 841.5 L .000008862 841.5 Z " fill-rule="evenodd"/>
</clipPath>
<g clip-path="url(#cp604)">
<text xml:space="preserve" transform="matrix(1 0 -0 1 0 841.5)" font-size="12" font-family="ArialNarrow" font-style="italic"><tspan y="-589" x="329.3">J</tspan></text>
</g>
</g>
<g id="Layer-1" data-name="P">
<clipPath id="cp605">
<path transform="matrix(1,0,0,-1,0,841.5)" d="M .000008862 0 L 594.75 0 L 594.75 841.5 L .000008862 841.5 Z " fill-rule="evenodd"/>
</clipPath>
<g clip-path="url(#cp605)">
<text xml:space="preserve" transform="matrix(1 0 -0 1 0 841.5)" font-size="12.025" font-family="ArialNarrow" font-style="italic"><tspan y="-565.8" x="323.35">K</tspan></text>
</g>
</g>
<g id="Layer-1" data-name="P">
<clipPath id="cp606">
<path transform="matrix(1,0,0,-1,0,841.5)" d="M .000008862 0 L 594.75 0 L 594.75 841.5 L .000008862 841.5 Z " fill-rule="evenodd"/>
</clipPath>
<g clip-path="url(#cp606)">
<text xml:space="preserve" transform="matrix(1 0 -0 1 0 841.5)" font-size="12.025" font-family="ArialNarrow" font-style="italic"><tspan y="-673.42" x="501.58">L</tspan></text>
</g>
</g>
<g id="Layer-1" data-name="P">
<clipPath id="cp607">
<path transform="matrix(1,0,0,-1,0,841.5)" d="M .000008862 0 L 594.75 0 L 594.75 841.5 L .000008862 841.5 Z " fill-rule="evenodd"/>
</clipPath>
<g clip-path="url(#cp607)">
<text xml:space="preserve" transform="matrix(1 0 -0 1 0 841.5)" font-size="12" font-family="ArialNarrow" font-style="italic"><tspan y="-654.9" x="499.6">M</tspan></text>
</g>
</g>
<g id="Layer-1" data-name="P">
<clipPath id="cp608">
<path transform="matrix(1,0,0,-1,0,841.5)" d="M .000008862 0 L 594.75 0 L 594.75 841.5 L .000008862 841.5 Z " fill-rule="evenodd"/>
</clipPath>
<g clip-path="url(#cp608)">
<text xml:space="preserve" transform="matrix(1 0 -0 1 0 841.5)" font-size="12" font-family="ArialNarrow" font-style="italic"><tspan y="-637.7" x="499.45">N</tspan></text>
</g>
</g>
<g id="Layer-1" data-name="P">
<clipPath id="cp609">
<path transform="matrix(1,0,0,-1,0,841.5)" d="M .000008862 0 L 594.75 0 L 594.75 841.5 L .000008862 841.5 Z " fill-rule="evenodd"/>
</clipPath>
<g clip-path="url(#cp609)">
<text xml:space="preserve" transform="matrix(1 0 -0 1 0 841.5)" font-size="12.025" font-family="ArialNarrow" font-style="italic"><tspan y="-577.15" x="494.53">O</tspan></text>
</g>
</g>
<g id="Layer-1" data-name="P">
<clipPath id="cp610">
<path transform="matrix(1,0,0,-1,0,841.5)" d="M .000008862 0 L 594.75 0 L 594.75 841.5 L .000008862 841.5 Z " fill-rule="evenodd"/>
</clipPath>
<g clip-path="url(#cp610)">
<text xml:space="preserve" transform="matrix(1 0 -0 1 0 841.5)" font-size="12.025" font-family="ArialNarrow" font-style="italic"><tspan y="-542.47" x="495.08">P</tspan></text>
</g>
</g>
<g id="Layer-1" data-name="P">
<clipPath id="cp611">
<path transform="matrix(1,0,0,-1,0,841.5)" d="M .000008862 0 L 594.75 0 L 594.75 841.5 L .000008862 841.5 Z " fill-rule="evenodd"/>
</clipPath>
<g clip-path="url(#cp611)">
<text xml:space="preserve" transform="matrix(1 0 -0 1 0 841.5)" font-size="12" font-family="ArialNarrow" font-style="italic"><tspan y="-580.25" x="75.875">Q</tspan></text>
</g>
</g>
<g id="Layer-1" data-name="P">
<clipPath id="cp612">
<path transform="matrix(1,0,0,-1,0,841.5)" d="M .000008862 0 L 594.75 0 L 594.75 841.5 L .000008862 841.5 Z " fill-rule="evenodd"/>
</clipPath>
<g clip-path="url(#cp612)">
<text xml:space="preserve" transform="matrix(1 0 -0 1 0 841.5)" font-size="12.025" font-family="ArialNarrow" font-style="italic"><tspan y="-730.35" x="149.35">a</tspan></text>
</g>
</g>
<g id="Layer-1" data-name="P">
<clipPath id="cp613">
<path transform="matrix(1,0,0,-1,0,841.5)" d="M .000008862 0 L 594.75 0 L 594.75 841.5 L .000008862 841.5 Z " fill-rule="evenodd"/>
</clipPath>
<g clip-path="url(#cp613)">
<text xml:space="preserve" transform="matrix(1 0 -0 1 0 841.5)" font-size="12.025" font-family="ArialNarrow" font-style="italic"><tspan y="-632.75" x="433.17">b</tspan></text>
</g>
</g>
<g id="Layer-1" data-name="P">
<clipPath id="cp614">
<path transform="matrix(1,0,0,-1,0,841.5)" d="M .000008862 0 L 594.75 0 L 594.75 841.5 L .000008862 841.5 Z " fill-rule="evenodd"/>
</clipPath>
<g clip-path="url(#cp614)">
<text xml:space="preserve" transform="matrix(1 0 -0 1 0 841.5)" font-size="12.025" font-family="ArialNarrow" font-style="italic"><tspan y="-583.95" x="431.47">c</tspan></text>
</g>
</g>
<g id="Layer-1" data-name="P">
<clipPath id="cp615">
<path transform="matrix(1,0,0,-1,0,841.5)" d="M .000008862 0 L 594.75 0 L 594.75 841.5 L .000008862 841.5 Z " fill-rule="evenodd"/>
</clipPath>
<g clip-path="url(#cp615)">
<text xml:space="preserve" transform="matrix(1 0 -0 1 0 841.5)" font-size="12.025" font-family="ArialNarrow" font-style="italic"><tspan y="-583.95" x="147.38">d</tspan></text>
</g>
</g>
<g id="Layer-1" data-name="P">
<clipPath id="cp616">
<path transform="matrix(1,0,0,-1,0,841.5)" d="M .000008862 0 L 594.75 0 L 594.75 841.5 L .000008862 841.5 Z " fill-rule="evenodd"/>
</clipPath>
<g clip-path="url(#cp616)">
<text xml:space="preserve" transform="matrix(1 0 -0 1 0 841.5)" font-size="12" font-family="ArialNarrow" font-style="italic"><tspan y="-693.6" x="44.425 46.669004 49.657 54.901 63.133 67.633 70.621">items: </tspan></text>
</g>
</g>
<g id="Layer-1" data-name="P">
<clipPath id="cp617">
<path transform="matrix(1,0,0,-1,0,841.5)" d="M .000008862 0 L 594.75 0 L 594.75 841.5 L .000008862 841.5 Z " fill-rule="evenodd"/>
</clipPath>
<g clip-path="url(#cp617)">
<text xml:space="preserve" transform="matrix(1 0 -0 1 0 841.5)" font-size="12" font-family="ArialNarrow" font-weight="bold"><tspan y="-679.17" x="44.425 50.425">p1</tspan></text>
</g>
</g>
<g id="Layer-1" data-name="P">
<clipPath id="cp618">
<path transform="matrix(1,0,0,-1,0,841.5)" d="M .000008862 0 L 594.75 0 L 594.75 841.5 L .000008862 841.5 Z " fill-rule="evenodd"/>
</clipPath>
<g clip-path="url(#cp618)">
<text xml:space="preserve" transform="matrix(1 0 -0 1 0 841.5)" font-size="12" font-family="ArialNarrow"><tspan y="-679.17" x="55.925"> </tspan></text>
</g>
</g>
<g id="Layer-1" data-name="P">
<clipPath id="cp619">
<path transform="matrix(1,0,0,-1,0,841.5)" d="M .000008862 0 L 594.75 0 L 594.75 841.5 L .000008862 841.5 Z " fill-rule="evenodd"/>
</clipPath>
<g clip-path="url(#cp619)">
<text xml:space="preserve" transform="matrix(1 0 -0 1 0 841.5)" font-size="12" font-family="ArialNarrow"><tspan y="-679.17" x="58.65 64.638 66.882 70.62601 73.62601 78.87 84.114009 89.35801 95.34601 99.84601 103.578 106.566 108.810009 114.798007 117.798007 120.786">= ("shoes", 2), </tspan></text>
</g>
</g>
<g id="Layer-1" data-name="P">
<clipPath id="cp620">
<path transform="matrix(1,0,0,-1,0,841.5)" d="M .000008862 0 L 594.75 0 L 594.75 841.5 L .000008862 841.5 Z " fill-rule="evenodd"/>
</clipPath>
<g clip-path="url(#cp620)">
<text xml:space="preserve" transform="matrix(1 0 -0 1 0 841.5)" font-size="12" font-family="ArialNarrow" font-weight="bold"><tspan y="-664.78" x="44.425 50.425">p2</tspan></text>
</g>
</g>
<g id="Layer-1" data-name="P">
<clipPath id="cp621">
<path transform="matrix(1,0,0,-1,0,841.5)" d="M .000008862 0 L 594.75 0 L 594.75 841.5 L .000008862 841.5 Z " fill-rule="evenodd"/>
</clipPath>
<g clip-path="url(#cp621)">
<text xml:space="preserve" transform="matrix(1 0 -0 1 0 841.5)" font-size="12" font-family="ArialNarrow"><tspan y="-664.78" x="55.925"> </tspan></text>
</g>
</g>
<g id="Layer-1" data-name="P">
<clipPath id="cp622">
<path transform="matrix(1,0,0,-1,0,841.5)" d="M .000008862 0 L 594.75 0 L 594.75 841.5 L .000008862 841.5 Z " fill-rule="evenodd"/>
</clipPath>
<g clip-path="url(#cp622)">
<text xml:space="preserve" transform="matrix(1 0 -0 1 0 841.5)" font-size="12" font-family="ArialNarrow"><tspan y="-664.78" x="58.65 64.638 66.882 70.62601 73.62601 79.614009 84.85801 87.84601 90.84601 93.83401 96.82201 102.06601">= ("hat", 1)</tspan></text>
</g>
</g>
<g id="Layer-1" data-name="P">
<clipPath id="cp623">
<path transform="matrix(1,0,0,-1,0,841.5)" d="M .000008862 0 L 594.75 0 L 594.75 841.5 L .000008862 841.5 Z " fill-rule="evenodd"/>
</clipPath>
<g clip-path="url(#cp623)">
<text xml:space="preserve" transform="matrix(1 0 -0 1 0 841.5)" font-size="12" font-family="ArialMT"><tspan y="-650.35" x="44.425">&#x200b;</tspan></text>
</g>
</g>
<g id="Layer-1" data-name="P">
<clipPath id="cp624">
<path transform="matrix(1,0,0,-1,0,841.5)" d="M .000008862 0 L 594.75 0 L 594.75 841.5 L .000008862 841.5 Z " fill-rule="evenodd"/>
</clipPath>
<g clip-path="url(#cp624)">
<text xml:space="preserve" transform="matrix(1 0 -0 1 0 841.5)" font-size="12" font-family="ArialNarrow" font-style="italic"><tspan y="-635.95" x="44.425 49.669 53.413 55.656999 57.900999 63.145 65.389 70.633 73.621 75.865 77.365 82.60899 85.59699">article list:</tspan></text>
</g>
</g>
<g id="Layer-1" data-name="P">
<clipPath id="cp625">
<path transform="matrix(1,0,0,-1,0,841.5)" d="M .000008862 0 L 594.75 0 L 594.75 841.5 L .000008862 841.5 Z " fill-rule="evenodd"/>
</clipPath>
<g clip-path="url(#cp625)">
<text xml:space="preserve" transform="matrix(1 0 -0 1 0 841.5)" font-size="12" font-family="ArialNarrow" font-weight="bold"><tspan y="-621.53" x="44.425 48.169 54.181 59.413 62.400999 65.38899 71.40099 76.632999 79.620998 81.865 87.877 93.853">{p1, p2, p2}</tspan></text>
</g>
</g>
<g id="Layer-1" data-name="P">
<clipPath id="cp626">
<path transform="matrix(1,0,0,-1,0,841.5)" d="M .000008862 0 L 594.75 0 L 594.75 841.5 L .000008862 841.5 Z " fill-rule="evenodd"/>
</clipPath>
<g clip-path="url(#cp626)">
<text xml:space="preserve" transform="matrix(1 0 -0 1 0 841.5)" font-size="12.025" font-family="ArialMT"><tspan y="-607.13" x="44.425">&#x200b;</tspan></text>
</g>
</g>
</g>
</g>
</svg>
